<svg id="Layer_1" data-name="Layer 1" xmlns="http://www.w3.org/2000/svg" viewBox="0 0 69 69"><defs><style>.cls-1{fill:#2effdf;}</style></defs><title>circle</title><path class="cls-1" d="M49.5,12A34.5,34.5,0,1,0,84,46.5,34.5,34.5,0,0,0,49.5,12Zm0,59A24.5,24.5,0,1,1,74,46.5,24.53,24.53,0,0,1,49.5,71Z" transform="translate(-15 -12)"/><path class="cls-1" d="M49.5,12A34.5,34.5,0,1,0,84,46.5,34.5,34.5,0,0,0,49.5,12Zm0,59A24.5,24.5,0,1,1,74,46.5,24.53,24.53,0,0,1,49.5,71Z" transform="translate(-15 -12)"/></svg>