<svg id="Layer_1" data-name="Layer 1" xmlns="http://www.w3.org/2000/svg" viewBox="0 0 1230.45 348.67"><defs><style>.cls-1{fill:#54ada3;}.cls-2{fill:#f3faf9;}</style></defs><title>conscious internet</title><path class="cls-1" d="M389.19,403.63c-18.81-.29-36.37-5.73-53.42-13.17-5.64-2.46-11.3-4.94-16.68-7.92-3.51-2-6.38-1.7-9.77.07-12.71,6.65-25.84,12.43-39.7,16.18s-28.15,6.71-42.84,3.51c-17.45-3.79-28.8-16.2-30.73-34.11-1.83-17,1.61-33.14,7.23-49a106.71,106.71,0,0,1,4.5-11.58c1.83-3.7,1.3-6.39-1.68-9.19-12.13-11.39-23.48-23.55-34.52-36-2.33-2.62-4.3-3.29-7.72-1.91-9,3.61-17.14,1.47-22.44-5.33-5.86-7.51-6-16.33,0-24.43,1.59-2.16,1.56-3.34,0-5.52-18.32-24.83-34.51-50.94-45.87-79.77-6.45-16.4-10.48-33.22-9.73-51.12.89-20.78,14.18-35.81,34.87-38.44,19.16-2.44,37.07,2.69,54.54,9.45,30,11.59,56.87,28.57,82.53,47.8a523.93,523.93,0,0,1,53.45,45.51c4.23,4.17,6.21.44,8.42-1.7a560.34,560.34,0,0,1,45.66-39.37c24.05-18.75,49.49-35.29,77.32-47.85,19.07-8.6,38.78-15.21,60.16-14.39,11.49.44,21.94,3.64,30.11,12.3a37.6,37.6,0,0,1,9.78,20.89,6.6,6.6,0,0,0,4.44,5.84,19.38,19.38,0,0,1,11.92,20c-.8,8.25-6.66,14.88-15.56,16.58-4,.76-5.76,2.54-7,6.28-8.54,25.81-22.17,49-37.1,71.51-19,28.61-41.46,54.38-65.29,79-4,4.18-8.14,8.32-12.37,12.31-2,1.92-2.31,3.78-1.19,6.22a153.08,153.08,0,0,1,11.14,34.58c.62,3.16,3,3.85,5,4.82a19.27,19.27,0,0,1,11.22,18.82c-.52,7.75-6.78,15.43-14.55,17.08-3.09.67-4.76,2.13-6.46,4.68-7.7,11.61-19.22,16.37-32.65,17.37C392.53,403.74,390.85,403.63,389.19,403.63Zm-87-24.52v.1c1.91-.34,4.16-.55,4.67-2.72.28-1.22-1.38-1.55-2.56-1.65L303,374c-2.06-1.79-4.1-3.61-7-4-3.37-2.34-6.68-4.78-10.12-7a503.31,503.31,0,0,1-64-49.95c-7.08-6.43-7-6.49-10.57,2.54-.18.47-.43.9-.61,1.37-4.71,12.32-8.72,24.93-9.32,38.13-1.27,28,12.05,43.89,42.06,42.61,15.59-.66,30.4-5.32,44.58-11.84a53.77,53.77,0,0,0,13-5.84l.05,0Zm20.58-209q12.6,12.42,24.26,25.71c25.84,29.49,49.16,60.73,66.66,96,1.82,3.67,3,4.52,6.43,1.19,31.34-30.69,59.6-63.88,83-101.1,11.34-18.07,21.08-36.93,28.06-57.15.77-2.22,1.67-4.07-1.23-5.88-15.23-9.5-10.66-30.68,4.09-35,2.3-.68,3.07-1.85,2.65-4.41-1.48-8.8-5.51-16-12.79-21.16-11.79-8.44-25-8-38.33-5.71-21.07,3.59-40.29,12.19-58.93,22.28-38.33,20.73-72,47.63-103.56,77.46C317.48,166.69,317.48,166.69,322.75,170.09ZM130.14,61.82c-1.5,0-3,0-4.5,0-20.43.73-33,13.28-34,33.65-.56,12,1.47,23.54,5.1,34.89,10.43,32.59,28,61.31,47.9,88.8,2.7,3.74,5.31,5.22,10.18,4.83,15.08-1.21,24.79,12.11,19.32,26.11-1.2,3.07-.81,5.09,1.36,7.52,10.72,12.06,22,23.57,33.37,35,3.25,3.26,4.32,2.69,6.19-1a405.5,405.5,0,0,1,34-55.08,586.74,586.74,0,0,1,56.78-66.25c3.46-3.52,3.33-5.53-.42-8.52-5.05-4-9.67-8.62-14.49-12.94-33.23-29.77-68.85-56-109.92-74.13C164.86,67.59,148.14,62.09,130.14,61.82ZM410.81,300.31c-.28-.63-.58-1.4-.94-2.15-4-8.23-8.28-16.29-13-24.16a479.26,479.26,0,0,0-50.16-68.78c-9.24-10.67-18.66-21.2-28.71-31.16-2.74-2.71-4.65-2.92-7.26.12-3.33,3.86-7.26,7.15-10.7,11-17.43,19.24-34.26,38.93-49.31,60.12a368.26,368.26,0,0,0-31.19,51.6c-1.37,2.82-1.25,4.77,1.14,7,8.05,7.44,16.32,14.62,24.74,21.63a484.73,484.73,0,0,0,64,44.94c3.07,1.8,5.71,2.6,9.2.58,32.65-18.86,62.12-41.93,89.82-67.38C409.45,302.74,410.65,302,410.81,300.31ZM388,397.83a57.47,57.47,0,0,0,17.58-2.58,31.08,31.08,0,0,0,14.22-9.74c1.9-2.25,2.87-3.88-.9-5.89-6.9-3.68-10.22-10.1-9.65-17.85a18.38,18.38,0,0,1,12.46-16.57c3.36-1.26,4.05-2.76,3.34-5.83a203,203,0,0,0-9.28-28.43c-1.61-4.12-3.57-2.68-5.73-.75-.72.65-1.24,1.52-2,2.18a518.44,518.44,0,0,1-78.76,59.36c-2.6,1.6-7.48,2-7.33,4.89.13,2.54,5,3.06,7.74,4.36C347.75,389.42,366.2,396.48,388,397.83Z" transform="translate(-85.68 -55.31)"/><path class="cls-1" d="M716.39,249.86c-.21-.07-.33,0-.38.22-1.64,1.77-3.36,3.48-4.24,5.79-18.29,18.15-50.2,16.17-67.22,1.55-10.34-8.88-16.06-20.39-17.82-33.61-2.86-21.41,1.22-40.95,18.73-55.47,13.93-11.56,30.1-13.14,47.07-8.57,14.55,3.92,23.72,13.49,27.65,28,1.56,5.79,1.33,6-4.43,5.94a38,38,0,0,0-4,0c-7.08.67-11.84-.4-15.79-8.27-7.07-14.06-32-12.53-41.13,1.58-9.64,14.87-9.09,39.15,1.2,53.49,9.62,13.4,30.66,14.23,40,1.57,2.85-9,9.33-11.44,18-10.07l4,0c2.47.3,3.43,1.65,2.94,4.1-.38,1.93-.69,3.87-1,5.81l0,0A25.63,25.63,0,0,0,716.39,249.86Z" transform="translate(-85.68 -55.31)"/><path class="cls-1" d="M1057,368.87c-7.66,0-15.33.16-23-.06-3.79-.12-4.9,1.34-3.73,4.69,2.41,6.93,6.26,12.49,14.16,13.88,7.44,1.32,14,.29,18.13-6.94,1.07-1.87,2.73-2.21,4.67-2.19,4,0,8,.17,12-.06,4.23-.25,4.46,1.93,3.26,4.95a31.64,31.64,0,0,1-11.36,14.18c-17,12.24-44.56,7-55.68-10.73s-6.86-45.49,8.88-56.6c20-14.13,53.4-9.42,59.51,25.35,2.37,13.54,2.33,13.54-11.36,13.52H1057Zm-10.62-14c4.15,0,8.32-.2,12.45.06,4.56.28,5-1.78,3.87-5.46a16.11,16.11,0,0,0-16.22-11.42,17.18,17.18,0,0,0-16.31,13c-.64,2.86.31,4,3.26,3.85C1037.7,354.78,1042,354.89,1046.34,354.89Z" transform="translate(-85.68 -55.31)"/><path class="cls-1" d="M841.23,368.86c-7.66,0-15.33.18-23-.07-4-.13-5.22,1.42-4,5,2.54,7.1,6.72,12.68,14.77,13.84,7.2,1,13.65-.17,17.62-7.23a3.81,3.81,0,0,1,3.68-2.1c4.66.1,9.32.19,14,.15,3.4,0,3.33,1.62,2.42,4.15-3.13,8.68-9.23,14.38-17.5,18.08-15.9,7.09-37,2.47-47.65-11-15-18.94-11.07-58.86,20-65.72,23.42-5.18,41.07,5.31,46.15,31.71,2.56,13.32,2.43,13.33-11,13.22C851.55,368.82,846.39,368.85,841.23,368.86Zm-10.82-14v0c4.32,0,8.64-.14,13,0,3.57.15,4.32-1.36,3.54-4.56a16.12,16.12,0,0,0-16-12.31,17,17,0,0,0-16.72,13.09c-.54,2.47,0,3.82,2.82,3.75C821.43,354.79,825.92,354.87,830.41,354.87Z" transform="translate(-85.68 -55.31)"/><path class="cls-1" d="M688.26,333.93c6-8.8,14.54-12.25,24.57-11.21,14.48,1.51,23.42,11.14,23.87,26,.49,16.48.21,33,.38,49.46,0,2.9-1.08,3.75-3.85,3.62a99.75,99.75,0,0,0-12,0c-3.57.25-4.53-1.1-4.49-4.53.16-12.65,0-25.31,0-38,0-1.16,0-2.33,0-3.49-.58-10.51-4.7-15.24-13.25-15.19-9,0-15.41,6.37-15.57,16-.21,13.15-.26,26.31-.06,39.46.06,3.87-.89,5.44-5,5.2a86.2,86.2,0,0,0-11.46.45c-3,.24-4.2-.82-4.18-3.92.11-22.31.21-44.63.08-66.94,0-4.95,1.78-7.08,6.7-6.44a8.3,8.3,0,0,0,1,0c3.49,0,7.22-.76,10.43.21C689.94,325.93,685.63,330.88,688.26,333.93Z" transform="translate(-85.68 -55.31)"/><path class="cls-1" d="M730.18,214c5.08-12.56,13.61-21.6,27-24.82,16.1-3.85,34.68-.63,46.58,18.9q2.07,6.48,4.16,13h0a50.05,50.05,0,0,1-8.28,34.43l-.19.15-1.5,1.24-1.08.89a94.47,94.47,0,0,1-8.47,6c-11.71,6.54-24,6.2-36.41,2.38a.62.62,0,0,0-.69-.23,67.16,67.16,0,0,1-15.24-12h0C728.35,241.47,726.29,228.18,730.18,214Zm18.76,14a29.5,29.5,0,0,0,2.11,13.5c2.85,6.73,7.61,11.11,15.31,11.64,8,.55,14.43-2.09,18.11-9.52,4.86-9.82,4.66-19.9.33-29.81-3.18-7.29-9.2-10.74-17-10.61s-13.31,4.48-16.59,11.52A28,28,0,0,0,748.94,228Z" transform="translate(-85.68 -55.31)"/><path class="cls-1" d="M1142.34,264a.65.65,0,0,0-.44.56,4.23,4.23,0,0,0-3.08,1.34h-.43l-.38.21c-15.92,5.06-30.68,3.34-43.85-7.55l-.88-.7-7.1-9.41a.31.31,0,0,0-.08-.49c-1.7-5.72-3.61-11.36-4-17.41-.71-11.52,3.26-21.46,9.93-30.55l0,0a31.25,31.25,0,0,0,7-6l1-.58a2.47,2.47,0,0,0,2-1.33l0,0c14.58-6,28.88-5.84,42.84,1.91l0,0a61.67,61.67,0,0,1,13,15.11.83.83,0,0,0,.28.81l3.66,11.36a.5.5,0,0,0,0,.66q0,7.44-.08,14.87h.08l-6,15,0,0A81.53,81.53,0,0,1,1142.34,264Zm-39.65-35.93a35.52,35.52,0,0,0,1.46,11.81c2.92,8.7,9.31,13.38,18.18,13.26,9.08-.13,14.9-4.78,17.7-13.83a39.28,39.28,0,0,0,.62-20.18c-3.08-14.27-17.79-20.59-29.06-12.62C1104.13,211.81,1102.57,219.64,1102.69,228.1Z" transform="translate(-85.68 -55.31)"/><path class="cls-1" d="M952.25,334c.76-1.06,1.45-2.18,2.3-3.16,7.83-9,18-9.74,28.35-6.72,10.74,3.14,16,11.89,17,22.49,1.46,17.09,1,34.27.37,51.41-.08,2.38-.92,3.18-3.24,3.18a113.56,113.56,0,0,0-12,.49c-3.8.42-5.21-.55-5.12-4.72.27-13.48.12-27,.09-40.47,0-10.64-4.7-16.22-13.48-16.25-8.32,0-15.28,7.14-15.44,16.45-.22,13.15-.24,26.31,0,39.46.07,4-1.07,5.31-5,5.08a88.13,88.13,0,0,0-11.47.44c-2.4.18-3.74-.31-3.73-3.14q.15-35.22.1-70.44c0-2.8,1.28-3.36,3.66-3.29a87.23,87.23,0,0,0,10.48-.05c4.31-.39,6.33,1.05,5.76,5.54a16.32,16.32,0,0,0,.16,3Z" transform="translate(-85.68 -55.31)"/><path class="cls-1" d="M881.85,197.55l-.08.26.19.19c1.41,3.87,4.14,7.14,4.49,11.5,1.48,18.12.32,36.26.64,54.38,0,2.09-1.38,2.38-3,2.38-4,0-8-.23-12,.07s-5.11-1.19-5.05-5.1c.21-13.82.16-27.64,0-41.46,0-5.16-1.22-10.13-6.48-12.56-5.52-2.56-11.18-2.28-16.09,1.36-4.36,3.23-6.41,8-6.42,13.47,0,14.65,0,29.31,0,44a.59.59,0,0,0-.21.62c-5.31.06-10.63,0-15.94.22-3,.11-4.11-1-4.09-4,.13-24.25.15-48.5.21-72.74l0,0c3.83,0,7.66-.07,11.49-.07,7.88,0,7.87,0,8.55,7.92,0,.21.43.39.72.64,2.31-2.07,4.65-4.12,7-6.21s5.73-2.6,8.38-4.3l1.86-.13,10,0a.76.76,0,0,0,.79.11,44.6,44.6,0,0,1,13.06,7.07l0-.06,1.06,1.09-.07-.1Z" transform="translate(-85.68 -55.31)"/><path class="cls-1" d="M1174,255.91a1.18,1.18,0,0,0-.26-.9c-.63-2.56-1.69-5.09-1.82-7.66-1-19.06-.94-38.14-.61-57.21a.64.64,0,0,0,.65-.28c4.15,0,8.31.13,12.47.15,6.56.05,6.58,0,6.59,6.41,0,14,0,28,.08,41.92.07,7,3.15,11.3,8.75,13a15.18,15.18,0,0,0,16.34-5.68c3.06-4.16,3.38-9,3.45-13.77.18-14,.22-27.94.31-41.91h0c4.66,0,9.34.3,14-.05s6,1.11,6,5.79c-.25,19.47-.14,38.93-.12,58.4,0,12.64.05,12.28-12.35,12.35-5.62,0-8.45-1.18-7.66-7.19,0-.12-.47-.3-1-.63-5.23,7-12.36,10-21.15,9.74A51.57,51.57,0,0,1,1184,266l-.21-.18-.27.08-1.48-1,.06,0Q1178.07,260.42,1174,255.91Z" transform="translate(-85.68 -55.31)"/><path class="cls-1" d="M1304,193.85a.58.58,0,0,0,.61.3,34.86,34.86,0,0,1,9.31,15c.55,3-.13,4.85-3.8,4.48a40.15,40.15,0,0,0-8,0c-4,.4-6.54-.73-7.7-5-1-3.81-4.59-4.91-8.06-5.86a19.8,19.8,0,0,0-13.64,1.24,6.89,6.89,0,0,0-4.39,6.7c.07,2.84,1.93,4.41,4.41,5.48,5.1,2.2,10.62,2.64,16,3.84a127,127,0,0,1,13.93,3.78c16.85,5.81,17.3,29.78,4.68,38.77-12.93,9.22-38.76,8.49-50.64-2.1-1.23-1.1-2.3-2.37-3.45-3.57-2.71-4.59-5-9.33-5-14.82l4.76-.28c3.65.06,7.3.15,10.94.14a3.14,3.14,0,0,1,3.37,2.09,18.75,18.75,0,0,0,25.75,8.77c2.86-1.44,4.79-3.71,4.7-7a7.11,7.11,0,0,0-4.7-6.49,42.09,42.09,0,0,0-7.6-2.26c-8.91-1.84-18-3.12-26.26-7.21-8.74-6.69-10.34-15.71-7.27-25.47s11.44-13.72,20.9-15.43C1283.77,186.93,1294.26,188.13,1304,193.85Z" transform="translate(-85.68 -55.31)"/><path class="cls-1" d="M912,265.86l-.22-.16-.25.11L902,258.93l-.89-1a37.26,37.26,0,0,1-5.95-15.62l5.84-.49,5.94,0H909c2.06.5,4.33-.42,5.71,2.65,4.57,10.11,16.39,13.34,26.33,7.56l1-.77c4.64-5.14,3.56-10.42-3.24-12.4-9.49-2.76-19.23-4.71-28.86-7l-.23-.17-.25.12-7.33-5.35a.66.66,0,0,0-.61-.59c-3.79-6.17-4.06-12.94-3.46-19.87a.35.35,0,0,0,0-.56c2.9-7.29,8.49-11.89,15.29-15.28a.36.36,0,0,0,.55-.1l8.16-2,4.84-.2c8.85,0,17.33,1.5,25,6.29l.39.08c1,1.85,2.18,3.47,4.33,4.06l0-.3-.07.3c1.39,3.71,3.54,7.13,4.26,11.12.23,1.27,1.12,3.14-.65,3.37a70.62,70.62,0,0,1-15.92.07c-.89-.09-1.14-1.09-1.39-1.9-2.45-8.07-8.9-9.07-15.91-8.84-6.1.19-11.21,3.67-11.58,7.62s2.35,6.56,9.63,8.2c7.45,1.67,15.08,2.56,22.31,5.14,12.24,4.37,17.06,12.19,15.71,24.94-.38,3.57-2.46,6.49-3.3,9.87l0,0a2.17,2.17,0,0,0-2,2.08l0,0a3,3,0,0,0-2.06,2l0,0a14.36,14.36,0,0,0-6.06,4v-.05A59.54,59.54,0,0,1,912,265.86Z" transform="translate(-85.68 -55.31)"/><path class="cls-1" d="M1030,193.87a.48.48,0,0,0,.52.3l7.43,7.88v0a4.21,4.21,0,0,0,1.85,3.34.51.51,0,0,0,.19.63c.55,1.55,1.16,3.08,1.65,4.64,1.15,3.62.55,5.71-4,5.31-3.79-.34-7.63-.08-11.45,0-2,0-3.24-.38-4.2-2.54-4.64-10.4-14.88-12.6-24-5.37l-2,2c-7.74,9.38-6.79,20-3.87,30.61a16,16,0,0,0,16.34,12.11c8.54-.25,12.81-3.74,15.5-12.69l0,0c5-.07,10,0,14.93-.25,3.62-.15,4.79,1.15,3.8,4.75-2.91,10.47-9.19,18-19.46,21.61s-20.85,2.68-31.25-.21l-.22-.17-.25.12-9.42-6.12a.85.85,0,0,0-.29-.72c0-.55-.24-.81-.8-.75a1.13,1.13,0,0,0-.78-.33L974,249v0a51.89,51.89,0,0,1-3.92-27.31c1.58-12.15,7.32-21.82,17.91-28.46,8.7-5.46,18.26-5.51,28-5.1a.44.44,0,0,0,.63,0Z" transform="translate(-85.68 -55.31)"/><path class="cls-1" d="M754,363.19c0-6.83-.2-13.67.08-20.49.16-3.74-1-5-4.74-4.76-1.91.15-5.13,1.38-5.68-1.28-.76-3.65-1.24-7.75.34-11.29.88-2,3.67-1.1,5.56-1,3.5.27,4.71-1,4.56-4.55-.22-5.15.13-10.32,0-15.49,0-2.81,1.19-3.93,3.85-3.92,4,0,8,0,12,0,2.89,0,4.15,1.15,4,4.21-.18,5.16.14,10.33-.06,15.49-.12,3.22.87,4.28,4.22,4.25,9.35-.08,10.94,2.27,9,11.58-.54,2.53-2.2,2-3.75,2.11-9.37.48-9.36.47-9.35,10,0,9.83,0,19.66,0,29.49,0,6.87,1.72,8.82,8.48,8.6,4.27-.14,5.46,1.35,5.28,5.43-.47,11.21,1.33,10.08-10.28,10.12a56,56,0,0,1-7-.16c-10.77-1.35-16.49-7.93-16.53-18.88,0-6.49,0-13,0-19.49Z" transform="translate(-85.68 -55.31)"/><path class="cls-1" d="M1099,362.92c0-6.83-.2-13.67.08-20.49.14-3.58-1.1-4.61-4.53-4.49-2,.06-5.09,1.2-5.88-1.18a18.64,18.64,0,0,1,0-10.82c.66-2.27,3.46-1.66,5.33-1.49,4,.38,5.22-1.35,5-5.19-.27-4.82.17-9.67-.09-14.49-.18-3.44,1.41-4.23,4.4-4.41,15.64-.9,15.64-.95,15.64,14.54v1c0,8.21,0,8.4,8.06,8.38,4,0,5.54,1.42,4.93,5.3a5.54,5.54,0,0,0,0,1c0,7.38,0,7.65-7.43,7.38-4.28-.16-5.78.88-5.64,5.46.35,11.48.07,23,.15,34.48,0,6.46,2,8.58,8.33,8.29,4.55-.21,5.71,1.4,5.52,5.7-.5,10.94,1.6,9.68-10,9.84a39.88,39.88,0,0,1-9.92-.81c-8.94-2.12-13.42-7.27-13.71-16.51-.23-7.16,0-14.32,0-21.49Z" transform="translate(-85.68 -55.31)"/><path class="cls-1" d="M630.88,347.71c0-16.32.07-32.64-.06-49,0-3.36.77-4.87,4.46-4.59a88.11,88.11,0,0,0,12.48,0c3.78-.24,5,1.3,4.9,4.92-.25,11-.43,22-.4,32.94,0,21.15.27,42.29.38,63.43,0,6.34,0,6.27-6.44,6a65.05,65.05,0,0,0-9.47.1c-4.22.45-6.12-.37-6-5.38.36-16.15.14-32.31.14-48.46Z" transform="translate(-85.68 -55.31)"/><path class="cls-1" d="M897.93,336.26c2.6-3.16,4.28-5.55,6.33-7.57a19.53,19.53,0,0,1,5.31-3.67c8-3.81,12.34-1.15,12.37,7.48,0,.33,0,.66,0,1,0,7.54,0,7.54-7.39,8.72-9.53,1.53-15.42,8.29-15.73,18.92-.34,11.65-.34,23.32-.14,35,.08,4.4-1.33,6.13-5.73,5.51a38.65,38.65,0,0,0-5.49,0c-9.37,0-9.36,0-9.36-9.6,0-20.83.09-41.65-.09-62.48,0-3.86.9-5.52,5-5.18a73.46,73.46,0,0,0,10.49,0c3.53-.21,4.85,1.22,4.52,4.67C897.77,331.09,897.93,333.18,897.93,336.26Z" transform="translate(-85.68 -55.31)"/><path class="cls-1" d="M808.73,119.89l-2.7,0c-11.41-2.19-14-.88-15.93,8.16a.93.93,0,0,0-.15.88c-2.5,5.57-7.53,3.28-11.21,2.81-3.31-.43.28-3.75-.55-5.68l.15-.25-.16-.24c2.28-2.77,2.86-6.2,3.7-9.52a.89.89,0,0,0,.17-.87A37.37,37.37,0,0,0,786,104a.62.62,0,0,0,.17-.7,66.57,66.57,0,0,0,6-17.22l0,0a6.81,6.81,0,0,0,2-5h0c4.3-8.59,4.57-8.74,14.38-7.7.48,0,1,.17,1.44.26V74a40.07,40.07,0,0,0,4,11l.24,1c.89,3.5,1.64,7.06,3.72,10.12h0a6.42,6.42,0,0,0,2,5.38.31.31,0,0,0,.06.52c1.24,6.37,4,12.22,6,18.32,1.2,3.58,4.35,8.35,3.08,10.5-1.85,3.14-7.21.63-11,1.29a.56.56,0,0,0-.63-.25c-.52-2-.73-4.23-1.65-6.06-1-2,0-5.55-3.71-5.92l-.37-.12-.37.13A1.87,1.87,0,0,0,808.73,119.89ZM803.09,85c-2.6,8.39-4.8,15.39-6.93,22.42-.56,1.87-.11,3.83,2.19,3.12,3.88-1.2,8.62,2.48,11.77-2.16.13-.19-.08-.64-.18-1C807.8,100.37,805.65,93.35,803.09,85Z" transform="translate(-85.68 -55.31)"/><path class="cls-1" d="M706,89.7l1,.32a3.75,3.75,0,0,0,3,2.06h0a20.3,20.3,0,0,0,4,6.16A1,1,0,0,0,714,99c.08,8.72-.07,17.44.31,26.15.21,4.83-1,7.61-6.34,7l-4.62-.28c-.09-8.64-.08-17.28-.3-25.92-.15-6.08-5.3-9.32-10.64-6.81-3.94,1.85-5.21,5.31-5.24,9.42-.05,7.81-.15,15.62-.23,23.43h0c-2.33,0-4.66,0-7,.09-2.73.12-3.91-1-3.9-3.8.07-16.83.17-33.66-.07-50.48-.07-5.14,3.07-4.4,6.23-4.61,3.58-.25,5.17.9,5,4.76-.28,5.4-.07,10.81-.07,18C692.88,88.5,699.16,87.93,706,89.7Z" transform="translate(-85.68 -55.31)"/><path class="cls-1" d="M1231.85,113.93c.45,5.74-.55,11.08.71,16.32.28,1.16,0,2.35-1.16,2.14-3.24-.55-7.36,2.15-9.57-2.48-.88-1.85-2-.47-2.76.12-4.71,3.43-9.91,3.45-15.26,2.23-5.86-1.33-9.23-4.8-9.71-9.84-.65-6.73,1.44-10.52,7.09-13.36,3.67-1.84,7.66-2.14,11.58-2.77a16.81,16.81,0,0,0,5.7-1.62c3.07-1.7,3.2-4.53.3-6.56-3.17-2.22-9.57-1.45-11.58,2-2.54,4.32-6.35,2.7-9.68,2.57-2.19-.08-1.34-2.37-.89-3.63,2.22-6.18,7.11-9,13.29-9.69a43.57,43.57,0,0,1,9.95.1c7.37.91,11.63,5.62,12,13C1232,106.39,1231.85,110.39,1231.85,113.93Zm-10.7,1.61c-.71-1.11,1.34-4.41-1.75-3.76-4.15.87-8.53,1.47-12.28,3.83-2.19,1.38-2.41,3.45-2.06,5.67s1.89,3.34,4,3.78C1216,126.46,1221.07,122.53,1221.15,115.54Z" transform="translate(-85.68 -55.31)"/><path class="cls-1" d="M1147.92,111.21c-.08,12.93-8.88,22.11-21.19,22.11-13.08,0-22.58-9.28-22.55-22,0-13.78,9.17-22.78,22.93-22.59C1139.33,88.86,1148,98.24,1147.92,111.21Zm-11-.71c-.32-2-.43-4.82-1.72-7.42-2.85-5.73-9.72-7.71-14.65-4.19-6.77,4.85-6.91,18.85-.28,23.89a7.56,7.56,0,0,0,3.64,1.45C1131.8,125.36,1137,120.17,1136.9,110.5Z" transform="translate(-85.68 -55.31)"/><path class="cls-1" d="M1026.09,94l1-.8,5-3.19,2-.67c9-1.28,17.29-.51,22.62,8.14A27.89,27.89,0,0,1,1061,114l0,0c-8.93,0-17.86.07-26.79,0-2.39,0-4.19.29-2.53,3.31a.6.6,0,0,0,.23.62c2.41,6.23,9.46,9.51,13.82,5.31s9.13-3.74,14.13-3.82a.46.46,0,0,0,.28.5c-.05.66-.1,1.33-.16,2h0l-6,8h0c-7.36,3.72-15,3.7-22.81,1.81v.06a3.09,3.09,0,0,0-3.09-1.93l0,0c-9.87-10.28-10.92-21.59-4-33.84l-.05,0A2.16,2.16,0,0,0,1026.09,94Zm13.67,12.11c2,0,4-.08,6,0,3.81.19,3.77-1.72,2.47-4.35-2.63-5.27-10.2-6.34-14.44-2-1.41,1.44-3.06,3.21-2.37,5.19.75,2.16,3.17.88,4.85,1.11A27.21,27.21,0,0,0,1039.76,106.15Z" transform="translate(-85.68 -55.31)"/><path class="cls-1" d="M725.48,94.18l.68-.75A25.66,25.66,0,0,1,748,89.92a.73.73,0,0,0,.75.19,4.84,4.84,0,0,0,3.22,2c2.34,2.43,4.75,4.8,6.19,7.92.69,3.21,1.8,6.3,2.31,9.59.58,3.69-.51,4.67-4,4.58-7.62-.21-15.24-.13-22.86-.07-1.43,0-3.91-.65-3.14,2.24,1.15,4.3,3.68,7.56,8.4,8,3.8.4,7.73.46,9.32-4.26l0,0,7.93-.41c3.41-.18,3.72,1.61,2.31,4-2.33,4-5.45,7-10.09,8.27-9,2.57-16.95.65-24.07-5.24l0,.11c-.78-4-3.94-7.06-4.4-11.38C719,107.57,720.65,100.51,725.48,94.18Zm14.38,12v0c1.83,0,3.66-.07,5.48,0,3.83.19,4.36-1.38,2.56-4.44A8.94,8.94,0,0,0,733.52,100c-1.41,1.47-2.92,3.22-2.13,5.2.72,1.79,2.94.79,4.49.93C737.2,106.25,738.53,106.15,739.86,106.15Z" transform="translate(-85.68 -55.31)"/><path class="cls-1" d="M887.94,119c0-.61.08-1.23.13-1.84,2.53-6.5,7.85-9,14.27-10.06,3.12-.49,6.26-.87,9.33-1.6,1.56-.37,3.15-1.23,3.26-3.3.09-1.81-.45-3.39-2.12-4.18-3.7-1.75-8.6-2.46-10.62.73-3.32,5.26-7.58,4-12,4l0,.12c.7-6.8,4.09-11,10.48-12.84,5.73-1.7,11.46-.7,17.18.1v0l6,5,0-.06,1,1.14h-.12c2.18,8.93,1,18,1.23,27.05.27,9.62.11,9.62-9.86,8.61l0,0c.05-3.63-1.1-4.51-3.91-1.73-.67.67-1.41,1.26-2.13,1.89l-.07,0c-1.62.24-3.23.51-4.85.7C895,134,888.77,129,887.94,119Zm17.89,6.22a9.93,9.93,0,0,0,6.56-2.2,8.94,8.94,0,0,0,3-10.32c-1.4-3.49-4.46.32-6.84.42a16.11,16.11,0,0,0-5.25,1.4c-2.78,1.14-5,2.91-4.22,6.38C899.8,124.21,902.33,125.2,905.83,125.22Z" transform="translate(-85.68 -55.31)"/><path class="cls-1" d="M964,132.16l-3.69-.27c-.08-8.61-.1-17.21-.3-25.81-.07-3.27-1-6.24-4.74-7.26-3.54-1-6.49-.38-8.47,3h.1l-1,1.14,0,0c-1.64,1.47-1.8,3.42-1.79,5.45,0,4.3,0,8.59,0,12.89,0,11.07,0,11.07-11,10.67-.09-.65-.17-1.29-.26-1.93.09-9.91.21-19.82.24-29.72,0-10.83,0-10.83,10.82-10.19l0,0c.25,1.35-.47,2.91,1.2,4.5,4.16-6.4,10.44-6,16.83-5.3l1.92.79a2.23,2.23,0,0,0,2.07,1.13l-.1,0c1.49,3.44,5.08,5.77,5.17,10,.21,10.27.67,20.55-.19,30.82h-.42l-.38.18Z" transform="translate(-85.68 -55.31)"/><path class="cls-1" d="M653,132l-7,.27c-3.38.13-4.48-1.38-4.41-4.82.23-10.49.1-21,.08-31.48,0-12.62,0-12.76-12.73-12.78-3.83,0-5.18-1-5.18-5s1.48-5,5.26-5c13.65.11,27.3-.06,41-.12h0l1.08.69.13.21c-.34,9.27-.34,9.27-9.76,9.23a23.09,23.09,0,0,1-3,0c-4.29-.66-5.32,1.31-5.28,5.36C653.27,103,653.07,117.5,653,132Z" transform="translate(-85.68 -55.31)"/><path class="cls-1" d="M988,131.79l-.21-.14-.22.13a5.07,5.07,0,0,0-3.6-2.61l-1.25-1.2c0-.53-.18-.76-.71-.71-.43-.44-.86-.87-1.28-1.31l-.72-1-.64-1.07c-4.93-10.44-4.12-20.35,2.79-29.68l0,0c2.37-.8,4.13-2.5,6-4.07v0c8-2.18,15.74-1.88,22.86,3l.93.85a2.9,2.9,0,0,0,2,2.14l0,0c.59,1.71,1.2,3.42,1.75,5.15.3.94.6,1.91-.54,2.61-1.9,1.16-9.3-.09-10.44-2.14-2.35-4.21-6.08-4.36-9.94-3.58s-5.75,3.91-6.53,7.43a24.9,24.9,0,0,0,0,10.9c.84,3.71,2.8,6.85,7,7.53,3.79.62,7.31.14,9.69-3.46,1.88-2.85,9.09-5.14,10.94-3.12,2.5,2.72-1.22,5-1.39,7.59a1.24,1.24,0,0,0-.35.9,21.35,21.35,0,0,1-13.22,7C996.4,133.48,992.27,132.1,988,131.79Z" transform="translate(-85.68 -55.31)"/><path class="cls-1" d="M1094.8,115c0,3.16,0,6.32,0,9.48-.06,7.46-.1,7-6.07,7.53-6.55.54-5.31-3.71-5.33-7.38,0-7.49-.07-15,0-22.47,0-2.5,0-4.56-3.47-4.64-2.9-.07-1.75-2.69-1.88-4.29-.1-1.34-.51-3.38,1.85-3.25,3,.16,3.38-1.52,3.65-4,1-9.13,6-13.19,15-12.88,2.42.09,4,.7,3.55,3.39-.35,2.09,1.53,5.48-2.82,5.51-2.09,0-3.64.79-4.12,2.85-.61,2.62-.8,5.34,3.17,5,3.29-.32,3.85,1.24,3.85,4.09s-1,4-3.79,3.71c-3-.35-3.67,1.27-3.6,3.89.12,4.49,0,9,0,13.48Z" transform="translate(-85.68 -55.31)"/><path class="cls-1" d="M845.67,131.87a.7.7,0,0,0-.66.2l-9,.23-1.83-.68q0-28.8-.07-57.61l.16-.23-.13-.25,9.86-.44,1.89.92Q845.76,102.95,845.67,131.87Z" transform="translate(-85.68 -55.31)"/><path class="cls-1" d="M1164.58,94.72c3.23-2.56,5.49-5.19,9.05-5.45,1.78-.13,4.27-.56,4,2.18s2.4,6.67-2.31,8c-8.84,2.46-10.52,4.55-10.53,13.88,0,5-.16,10,0,15,.19,5.38-3.76,3.42-6.29,3.63s-5.39.85-5.27-3.63c.3-11,.14-22,.35-32.93,0-1.95-1.54-5.42,2.29-5.31C1159.08,90.14,1164.07,87.33,1164.58,94.72Z" transform="translate(-85.68 -55.31)"/><path class="cls-1" d="M880.92,132.18c-9.15-.84-9.14-.84-9.15-10.09s.2-18.66-.09-28c-.14-4.35,2.17-4.5,5.29-4.27,2.78.2,6.06-1,5.9,4.11-.4,12.64-.31,25.3-.41,37.94Z" transform="translate(-85.68 -55.31)"/><path class="cls-2" d="M982,127.26c.53-.05.76.18.71.71C982.51,127.73,982.27,127.49,982,127.26Z" transform="translate(-85.68 -55.31)"/><path class="cls-2" d="M980,124.91l.72,1Z" transform="translate(-85.68 -55.31)"/><path class="cls-2" d="M945.92,103l1-1.14Z" transform="translate(-85.68 -55.31)"/><path class="cls-2" d="M717,257l.42.23L717,257Z" transform="translate(-85.68 -55.31)"/><path class="cls-2" d="M924.87,96.2l-1-1.14Z" transform="translate(-85.68 -55.31)"/><path class="cls-2" d="M981,258.23c.56-.06.82.2.8.75Z" transform="translate(-85.68 -55.31)"/><path class="cls-2" d="M880.89,196.19l-1.06-1.09C880.18,195.46,880.53,195.83,880.89,196.19Z" transform="translate(-85.68 -55.31)"/><path class="cls-2" d="M882.08,73l1,1-.14.16-1.08-.87Z" transform="translate(-85.68 -55.31)"/><path class="cls-2" d="M671,73.72,670,73Z" transform="translate(-85.68 -55.31)"/><path class="cls-2" d="M1182,264.9l1.48,1Z" transform="translate(-85.68 -55.31)"/><path class="cls-2" d="M301.05,380l1.12-.92Z" transform="translate(-85.68 -55.31)"/><path class="cls-1" d="M853.06,102.46c0-8.3.19-16.62-.08-24.91-.13-4.27,2.17-4.51,5.32-4.37,2.93.14,6-.69,6,4.23q-.3,25.17,0,50.33c.05,4.26-2.08,4.52-5.26,4.33-2.91-.18-6.11.78-6-4.2.28-8.46.08-16.94.08-25.41Z" transform="translate(-85.68 -55.31)"/><path class="cls-1" d="M881.85,73.19l1.08.87c0,.82-.08,1.64-.09,2.46-.05,6.39-2.89,8.39-9.09,6.55-1.65-.49-2-1.54-1.93-2.95,0-2.29-.39-4.61.43-6.85Z" transform="translate(-85.68 -55.31)"/><path class="cls-1" d="M1072,178c-5.33,0-10.67-.16-16,0-2.71.07-4-.61-3.86-3.58.18-3.49.11-7,0-10.49-.09-2.66.82-4.07,3.7-4,4.33.1,8.66.14,13,0,2.62-.06,3.54,1.06,3.45,3.58-.18,4.82-.21,9.65-.3,14.47Z" transform="translate(-85.68 -55.31)"/><path class="cls-1" d="M1071.94,190.07q.15,23.48.31,47c0,8.32,0,16.65,0,25,0,2.26.14,4.4-3.2,4.27-5.65-.23-11.31-.28-17-.4,0-23.32.11-46.64-.07-70,0-4.48,1.12-6.36,5.88-5.94S1067.27,190.06,1071.94,190.07Z" transform="translate(-85.68 -55.31)"/></svg>