<svg xmlns="http://www.w3.org/2000/svg" viewBox="0 0 395.36 124.8"><defs><style>.a{fill:#fff;}.b{fill:#55b1ca;}</style></defs><title>CT-logo-white-accent</title><path class="a" d="M138.08,188.35c5.43.11,11.69-.29,17.85,1.17,8.69,2.07,13,6.78,14.22,15.67,1.28,9.72-2.14,17.78-9.59,21.36-3.16,1.51-3,2.67-1.11,5.13,4.08,5.36,7.84,11,11.81,16.42,1.37,1.88,1.47,2.92-1.28,2.76h-.37c-9.57.41-9.57.41-16.29-8.94-1.23-1.72-2.78-3.35-3.5-5.27-3.07-8.16-9.88-6.84-16.26-6.73-2.24,0-2.12,1.67-2.12,3.19,0,4.62-.13,9.25.05,13.87.1,2.82-.66,4.06-3.76,4-7.91-.23-6.7.67-6.76-6.85-.06-6.49.21-13-.1-19.48-.17-3.78,1.24-4.59,4.72-4.49,7.49.22,15,.22,22.49-.07,8.62-.33,12.63-5.48,11.29-14-.72-4.63-3.24-7.06-8.31-7.68-8.59-1.05-17.23-.29-25.84-.55-1.39,0-3.46.75-4-1.08a13,13,0,0,1,.16-7.74c.36-1,1.76-.7,2.74-.7C128.53,188.34,132.91,188.35,138.08,188.35Z" transform="translate(-51.94 -186.51)"/><path class="a" d="M259.09,251.78a39.83,39.83,0,0,1-23.8-8.78c-1.41-1.11-1.66-2.06-.4-3.35.26-.27.47-.59.71-.88,4.05-5,4.05-5,9.54-1.58,4.79,2.94,9.9,4.74,15.63,4.38a12.2,12.2,0,0,0,5.07-1.18c2.53-1.35,4.44-3.19,4.54-6.36a6.77,6.77,0,0,0-4.32-6.82,52.64,52.64,0,0,0-7.05-2.49c-4.08-1.2-8.24-2.08-12.17-3.75-7.48-3.2-11-8.47-10.86-16.28s3.93-13.24,11.34-16c10.69-4,20.63-1.71,30.07,4,1.56.94,2.15,2,.76,3.59a8.48,8.48,0,0,0-.62.94c-3.09,4.63-3.06,4.56-8,2.23A27.29,27.29,0,0,0,255,196.79c-4.7.46-7.54,2.82-8,6.52s1.5,6.24,5.88,8.07c6.21,2.61,13,3.32,19.14,6.39,6.5,3.26,9.35,8.32,9.38,15.25,0,7.17-3.31,12.49-9.65,15.71C267.81,250.72,263.66,252.19,259.09,251.78Z" transform="translate(-51.94 -186.51)"/><path class="a" d="M52,219.24c.11-13.88,6.35-24.17,19-29.61s24.67-3.91,35.43,5.19c2.12,1.79,2.88,3.35.38,5.32a4.39,4.39,0,0,0-.48.57c-3.61,4.12-3.61,4.12-8,.76-8.75-6.67-22.43-5.4-30.09,2.81-7.48,8-7.26,21.72.5,30.1,7.59,8.21,20.07,9.1,29.26,2.14,1.22-.92,2.33-3.12,3.92-2.23a15.65,15.65,0,0,1,5.6,5.9c.64,1.1-.83,1.92-1.6,2.68-9.35,9.22-22.81,11.69-35.74,5.7-11.77-5.45-18-15-18.19-28.21C51.94,220,52,219.61,52,219.24Z" transform="translate(-51.94 -186.51)"/><path class="a" d="M367,201.54c-3.55,8-6.68,15.07-9.77,22.13-3.51,8-7,16-10.48,24-1.17,2.68-9.17,4.73-11.33,2.87-1.38-1.18,0-2.33.39-3.34q9.38-21.65,18.85-43.26c1.85-4.23,3.8-8.42,5.52-12.71.87-2.17,2.15-2.95,4.5-3,7.9,0,8-.14,11.16,7.15,7.6,17.38,15.11,34.81,22.73,52.18,1,2.36.93,3.26-2,3.33-7.62.19-7.69.33-10.76-6.65-5.63-12.79-11.16-25.64-16.74-38.46C368.6,204.72,368,203.64,367,201.54Z" transform="translate(-51.94 -186.51)"/><path class="a" d="M197.79,238c2-8.87-2-15.93-6.64-23-5-7.59-9.53-15.54-14.33-23.28-1.44-2.33-1.51-3.17,1.76-3.49,5.47-.54,9,1,11.54,6.2,3.22,6.6,7.44,12.7,11.1,19.1,1.53,2.67,2.46,2.47,3.93-.08,4.22-7.36,8.61-14.63,13-21.93,1.54-2.6,9.51-4.65,12-3,1.57,1,.07,2-.4,2.81-4.68,7.82-9.06,15.87-14.3,23.29-5.36,7.6-8.13,15.54-6.92,24.82a46,46,0,0,1,0,6c0,5.47,0,5.47-5.49,5.49-5.21,0-5.21,0-5.22-5Z" transform="translate(-51.94 -186.51)"/><path class="a" d="M317.64,224.5c0,7.5-.15,15,.06,22.48.1,3.22-1.09,4.05-4.11,4-8-.21-6.5.45-6.53-6.63-.08-14-.12-28,0-42,0-3.3-.67-4.78-4.3-4.46s-7.49-.05-11.23.1c-2.49.1-3.42-.9-3.21-3.29a14.94,14.94,0,0,0,0-3c-.29-2.65.85-3.41,3.45-3.39,13.61.1,27.23.18,40.84-.07,4.26-.08,3.78,2.35,3.82,5s.16,5-3.74,4.72c-3.6-.26-7.25.13-10.86-.11-3.19-.22-4.42.68-4.3,4.12C317.82,209.51,317.64,217,317.64,224.5Z" transform="translate(-51.94 -186.51)"/><path class="a" d="M408.44,219.53c0-9.12.08-18.24-.06-27.35,0-2.81.57-4,3.73-3.89,7.91.21,6.79-.47,6.81,6.84.05,13.86.1,27.73-.05,41.59,0,3,.75,4.16,3.95,4.06,7.12-.21,14.24,0,21.36-.1,2.5-.05,3.2.82,3.11,3.23-.27,8.23,1.19,6.91-6.85,7-9.24.08-18.49-.15-27.72.1-3.59.1-4.42-1.16-4.35-4.49C408.56,237.51,408.44,228.52,408.44,219.53Z" transform="translate(-51.94 -186.51)"/><path class="b" d="M190.67,270.52q4.92,17.22,9.83,34.45l1.18.15c1.09-3.29,2.26-6.57,3.26-9.89,2.51-8.23,4.93-16.49,7.4-24.74.39-1.28.56-2.9,2.43-2.81,1.62.07,1.75,1.59,2.1,2.73,3.14,10.13,6.21,20.28,9.39,30.4.37,1.19.18,3.22,1.88,3.22,1.38,0,1.46-1.85,1.79-3,2.93-10.19,6.48-20.2,8.87-30.54l.82-1.68c.35-.71.83-1.39,1.7-1.11,1.23.39.74,1.41.53,2.2-1.31,4.82-2.6,9.65-4,14.45-2.37,8-4.84,16-7.26,24-.4,1.32-.66,2.87-2.42,2.9s-2-1.63-2.39-2.9q-4.9-16.14-9.78-32.29c-.25-.8-.64-1.56-1.14-2.76-1.52,1.57-1.68,3.34-2.16,4.91q-4.59,15.06-9.09,30.14c-.4,1.33-.67,2.89-2.47,2.82s-1.9-1.72-2.29-3q-5.54-18.3-11-36.61c-.36-1.22-1.53-3,.06-3.69C190,266.92,189.76,269.57,190.67,270.52Z" transform="translate(-51.94 -186.51)"/><path class="b" d="M374.94,311.08c-1.51.24-2.11-1.13-2.8-2.13q-10.53-15.29-21-30.59c-.82-1.18-1.33-2.7-3-3.18-1.05,1.22-.56,2.65-.57,3.94-.05,9.5,0,19-.06,28.5,0,1.27.52,3.33-1.31,3.39-2.22.06-1.57-2.17-1.58-3.49-.06-12.13,0-24.25,0-36.38,0-2,0-3.94,2.89-3.62L372.1,304l1-.5v-36c2.14-.23,2.92.87,2.92,2.87,0,12.75,0,25.5,0,38.25C376.05,309.56,376.25,310.86,374.94,311.08Z" transform="translate(-51.94 -186.51)"/><path class="b" d="M130.77,267.41c4.11,0,8.23,0,12.35,0,.95,0,2.23-.07,2.23,1.35s-1.23,1.46-2.21,1.5c-2.36.1-4.74.21-7.11.08-2.94-.16-3.94,1.14-3.92,4q.13,16.1,0,32.2c0,1.6.79,4.43-1.3,4.45-2.63,0-1.48-2.91-1.5-4.51-.12-10.73-.15-21.46,0-32.19,0-3.05-.84-4.37-4-4a39.71,39.71,0,0,1-6.36,0c-1.17-.05-2.87.19-2.79-1.62.07-1.48,1.63-1.28,2.7-1.3,4,0,8,0,12,0Z" transform="translate(-51.94 -186.51)"/><path class="b" d="M292.8,289.88c0,6.12,0,12.25,0,18.37,0,1.13.4,2.91-1.44,2.89s-1.5-1.76-1.5-2.93q-.06-18.75,0-37.48c0-1.16-.28-2.92,1.49-2.9s1.44,1.78,1.44,2.94C292.83,277.14,292.8,283.51,292.8,289.88Z" transform="translate(-51.94 -186.51)"/></svg>