<svg xmlns="http://www.w3.org/2000/svg" xmlns:xlink="http://www.w3.org/1999/xlink" viewBox="0 0 1317.7 1216.6"><defs><style>.cls-1{fill:none;}.cls-2{clip-path:url(#clip-path);}.cls-3{fill:url(#linear-gradient);}</style><clipPath id="clip-path" transform="translate(53.75 43.92)"><path class="cls-1" d="M426.48,881.92c-.32.19-.3.66,0,1.12a1.57,1.57,0,0,0,1.33.59c.33-.11.29-.63-.06-1.09a1.53,1.53,0,0,0-.39-.37,1.25,1.25,0,0,0-.92-.25m152.71,60.39c-.69.43-.48,1.69.59,2.74s2.63,1.59,3.41,1.13.49-1.72-.63-2.8a6.8,6.8,0,0,0-.69-.54,2.75,2.75,0,0,0-2.68-.53m-226.9-159.8c-.25.19-.33.5,0,1a1.13,1.13,0,0,0,1.15.64c.31-.06.34-.5.1-.93a1.65,1.65,0,0,0-.45-.46,1.37,1.37,0,0,0-.8-.24M492.43,851c-1.66.7-1.42,3.1.65,5.52s5.08,3.57,6.82,2.93,1.39-3.17-.67-5.5a10.19,10.19,0,0,0-2-1.7c-1.73-1.16-3.64-1.71-4.84-1.25M729.17,982.92c-.18.07,0,.36.24.62s.69.36.82.15a.5.5,0,0,0-.24-.62c-.27-.18-.69-.34-.82-.15M291.6,685.42c-1,.07-1.26,1.19-.54,2.47a3.89,3.89,0,0,0,3.23,2.17c1,0,1.18-1.26.49-2.51a5.34,5.34,0,0,0-1.53-1.6,2.65,2.65,0,0,0-1.65-.53m130.33,79c-.75.13-.73,1.1,0,2s1.95,1.64,2.57,1.39.77-1.14,0-2a3.57,3.57,0,0,0-1-.94,2,2,0,0,0-1.56-.42M637.28,906c-.85.48-.46,1.86.8,3s3.16,1.79,4,1.23.46-1.87-.85-3.08c-.2-.17-.41-.32-.62-.47-1.24-.83-2.65-1.23-3.33-.72m-82.62-80.73c-1.68.73-1.37,3,.83,5.25s5.1,3.42,6.7,2.71,1.24-3-.85-5.22a11.88,11.88,0,0,0-1.76-1.45c-1.8-1.21-3.73-1.74-4.92-1.29M359.42,674.13c-2.22.26-2.6,2.81-.86,5.63s5.26,5,7.41,4.7,2.62-2.93.8-5.73a11.65,11.65,0,0,0-3.26-3.3,6.35,6.35,0,0,0-4.09-1.3m-113.37-77.6c-.71,0-.83.66-.44,1.45a2.36,2.36,0,0,0,1.81,1.45c.65,0,.85-.69.47-1.51a2.8,2.8,0,0,0-.94-1.07,1.64,1.64,0,0,0-.9-.32M776.1,940.2s.06.2.24.32c0,.06.28.08.3,0s0-.2-.07-.28a.71.71,0,0,0-.47-.08m-296.25-200c-3.8,1-3.68,5.88.45,10.93s10.67,8.31,14.48,7.16,3.51-5.93-.61-10.9a23.22,23.22,0,0,0-5-4.49c-3.3-2.22-6.86-3.34-9.34-2.7M688,871.05c-1.44.86-.75,3.09,1.51,5s5.19,2.69,6.53,1.77.68-3.17-1.59-5a8.27,8.27,0,0,0-.95-.73c-2-1.35-4.35-1.84-5.5-1.06m-80.07-73c-2.73,1.2-2,5.08,1.8,8.73s8.92,5.59,11.68,4.34,1.86-5.14-2-8.76a17.94,17.94,0,0,0-2.61-2.12c-3.22-2.15-6.79-3.1-8.89-2.19M312.72,593.28c-1.56.07-2.1,1.66-1.06,3.65s3.15,3.46,4.81,3.45,2-1.64,1.09-3.59a8.38,8.38,0,0,0-2.5-2.66,4.37,4.37,0,0,0-2.34-.85m108.33,68.78c-3.8.45-4.18,4.75-.94,9.47s9.25,8.25,13,7.64,4.05-4.87.69-9.6a20.9,20.9,0,0,0-5.26-5.07c-2.6-1.74-5.35-2.7-7.52-2.44M212.92,514.44c-.4,0-.58.38-.43.84a1.23,1.23,0,0,0,1,.89c.48.09.63-.34.52-.77a1.62,1.62,0,0,0-.61-.77,1.13,1.13,0,0,0-.46-.19m321.73,206c-5.43,1.41-4.93,8.34,1.3,15.39s15.79,11.39,21.15,9.69,4.54-8.53-1.66-15.33A34.41,34.41,0,0,0,549,724.6c-5.08-3.41-10.63-5.16-14.37-4.19M816.1,899.63c-.45.49-.12,1.37.89,2s2.21.84,2.67.36.11-1.34-.9-2-2.2-.84-2.66-.36m85.45,51.82a2.44,2.44,0,0,0-2.64-.1c-.39.57.16,1.63,1.16,2.11s2.17.6,2.55,0,0-1.33-.92-2l-.15-.09M126.49,429.79c-.16,0-.2.1-.19.18s.12.21.23.25.18,0,.17-.15a.33.33,0,0,0-.13-.24l-.08,0m606.4,408.6c-1.88,1.31-.82,4.46,2.46,7.06s7.53,3.63,9.37,2.25.74-4.45-2.55-7q-.42-.33-.87-.63c-3-2-6.63-2.79-8.41-1.66M373.05,586.87c-3.75.09-4.63,3.86-2,8.35s8,8.16,11.8,8,4.5-4,1.81-8.42a18.66,18.66,0,0,0-5.5-5.75,11.27,11.27,0,0,0-6.08-2.18m-96.6-71c-2.06-.16-2.88,1.64-1.95,4s3.51,4.41,5.51,4.56,2.85-1.68,1.81-4.06a8.22,8.22,0,0,0-3-3.57,5.06,5.06,0,0,0-2.4-.93m379.14,256.3c-3.8,1.72-2.52,7.2,3,12.22s13.13,7.58,16.93,5.74c3.61-1.93,2.21-7.33-3.19-12.16a27.09,27.09,0,0,0-3-2.34c-4.92-3.3-10.48-4.82-13.68-3.46M477.5,650c-5.29.71-5.58,6.66-.64,13.17s13.55,11.29,18.72,10.27,5.24-6.82.23-13.24a30.87,30.87,0,0,0-7.05-6.51c-3.92-2.63-8.11-4.12-11.26-3.69M190.85,439.82c-.35-.07-.59.23-.5.65a1.21,1.21,0,0,0,.91.9c.38,0,.62-.23.51-.67a1.24,1.24,0,0,0-.51-.72,1,1,0,0,0-.41-.16m393.63,261.7c-6.88,1.88-6,10.55,2.32,19.37s20.89,14,27.7,11.75,5.2-10.91-3-19.32a46.29,46.29,0,0,0-7.27-6c-7-4.7-14.76-7.16-19.74-5.77M335.88,516.7c-3.45-.16-4.78,2.81-2.86,6.83s6.52,7.51,9.92,7.65,4.6-2.93,2.7-6.88a15.73,15.73,0,0,0-5.19-5.82,9.87,9.87,0,0,0-4.57-1.78m93.38,64.21c-5.41.19-6.5,5.56-2.3,12.08s12.24,11.57,17.66,11.18,6.25-5.77,1.91-12.11a28.55,28.55,0,0,0-7.79-7.74c-3.24-2.18-6.68-3.5-9.48-3.41M858.48,860.35c-4.43-2.73-9.75-3.47-11.83-1.35s-.29,6.13,4.31,9,10,3.5,11.95,1.28c2-2,.25-5.82-3.9-8.6l-.53-.35m-88.68-55c-3.53,2.32-1.36,8.14,4.83,12.68s14.08,6.27,17.52,3.8c3.26-2.6,1-8.16-5.13-12.62-.31-.22-.62-.44-.94-.65-5.94-4-13-5.49-16.28-3.21M932.93,906.82c-2.12-1.16-4.51-1.15-5.29,0s.25,3,2.38,4.14,4.52,1.12,5.42,0c.67-1-.09-2.57-1.75-3.68a5.59,5.59,0,0,0-.76-.44M529.25,638.11c-6.73,1-6.85,8.44-.2,16.53,6.9,8.32,18,13.92,24.58,12.56s6.2-8.75-.56-16.68a42,42,0,0,0-8.32-7.33c-5.42-3.63-11.26-5.71-15.5-5.08M251.44,446.65c-1.62-.23-2.53,1-1.92,2.87a5.63,5.63,0,0,0,4,3.8c1.69.24,2.55-1.06,2-2.91a6.19,6.19,0,0,0-2.38-3.06,4.5,4.5,0,0,0-1.64-.7m447,300.93c-4.88,2.26-3.08,9.31,4.31,15.62s17.5,9.43,22.27,6.85,2.52-9.46-4.75-15.56a35.69,35.69,0,0,0-3-2.23c-6.71-4.5-14.56-6.62-18.84-4.68m310.85,198.27c-.27-.18-.71-.12-.74.13s0,.52.33.58c.45.23.87.19.84-.06s0-.37-.21-.53l-.22-.12M178.69,373.25c-.36,0-.57.21-.56.59a1.14,1.14,0,0,0,.72.84c.39,0,.66-.19.6-.56a1,1,0,0,0-.48-.73,1,1,0,0,0-.28-.14m453,312c-7.46,2.07-6.13,11.31,3.18,20.55,9.49,9.27,23.23,14.59,30.41,11.94s5-11.73-4-20.43a50.14,50.14,0,0,0-6.69-5.33c-8.09-5.43-17.19-8.3-22.85-6.73m-240.55-169c-5-.29-6.75,4.25-3.6,10.1s10.19,11,15.32,11.1,6.58-4.4,3.22-10.32a24.64,24.64,0,0,0-7.57-8.07,15.2,15.2,0,0,0-7.37-2.81m90.25,58.63c-6.92.28-8.11,7.08-2.26,15.29,5.93,8.37,16.56,14.57,23.51,14s7.43-7.53,1.53-15.48a39.17,39.17,0,0,0-9.53-9c-4.54-3-9.39-4.91-13.25-4.77m-173-122.95c-3.1-.4-4.61,2.06-3.27,5.56s4.88,6.6,8,7,4.56-2.06,3.28-5.46a12.67,12.67,0,0,0-4.65-5.66,8.55,8.55,0,0,0-3.41-1.43M578.69,628.66c-6.94,1.09-6.81,8.76.63,17.15s19.37,14,26.29,12.48c6.66-1.57,6-9.22-1.43-17.25a44.33,44.33,0,0,0-7.82-6.64c-6.18-4.15-13-6.53-17.67-5.74M892.07,825.52c-5.42-3.14-11.81-3.86-14.28-1.35s-.06,7.28,5.52,10.67,12,3.74,14.37,1.11c2.15-2.47.05-6.67-4.59-9.78-.33-.22-.67-.44-1-.65m-86.66-48.93c-4.12,2.79-1.32,9.54,6.09,14.74,7.57,5.25,16.89,6.9,20.82,3.8s.94-9.47-6.39-14.48l-.18-.12c-7.27-4.88-16.3-6.73-20.34-3.94M235.79,384.51c-1.2-.28-2,.53-1.78,1.82a3.83,3.83,0,0,0,2.69,2.78c1.23.27,2-.56,1.71-1.82a3.88,3.88,0,0,0-1.63-2.34,2.82,2.82,0,0,0-1-.44M960.86,865.15c-3.58-1.74-7.53-1.65-8.83.28s.54,5,4.22,6.8,7.56,1.63,8.87-.33c1-1.72-.18-4.15-2.85-5.94a13.39,13.39,0,0,0-1.41-.81M735.72,723.23c-6.52,3-3.83,12.21,6.23,20.34s23.59,11.76,29.81,8.21,2.81-12.47-7-20.07c-.91-.71-1.85-1.39-2.81-2-9.34-6.26-20.48-9.21-26.28-6.45M443.14,515.62c-6.51-.33-8.42,5.38-4,12.8s13.74,13.66,20.31,13.71,7.89-5.76,3.3-13a33.28,33.28,0,0,0-9.45-9.54c-3.43-2.31-7.06-3.79-10.2-4m-80.82-59.21c-4.77-.75-6.7,2.91-4.54,7.95s8,9.8,12.64,10.29,6.45-3.13,4.2-8.14a20.15,20.15,0,0,0-6.85-7.86,13.25,13.25,0,0,0-5.45-2.24m169,114.3c-7.22.43-8.14,7.61-1.58,16.13s18.3,15,25.49,14.16,7.52-8,.81-16.26a43.37,43.37,0,0,0-9.46-8.56c-5.25-3.52-10.92-5.69-15.26-5.47m498.53,329.43a.65.65,0,0,0-.73.1c-.12.19.08.48.4.6s.73.09.76-.15,0-.3-.21-.44a.9.9,0,0,0-.22-.11M676.34,671c-7.2,2.17-5.65,11.17,3.94,19.91s23.22,13.69,30.21,10.95c6.82-2.78,4.54-11.58-4.8-19.82a51.15,51.15,0,0,0-5.36-4.12c-8.43-5.66-18.16-8.68-24-6.92M290.1,393.83c-2.48-.53-4,1.17-3.25,3.76a8.25,8.25,0,0,0,5.78,5.66c2.46.46,3.84-1.21,3.2-3.79a9.07,9.07,0,0,0-3.55-4.66,6.56,6.56,0,0,0-2.18-1M174.93,314.92a.35.35,0,0,0-.47.31c0,.26.22.55.44.57s.53,0,.49-.28a.85.85,0,0,0-.32-.54.42.42,0,0,0-.14-.06M623.78,618.5c-7.5,1.24-7,9.56,1.44,18.42s21.64,14.58,29,12.72,6.12-9.92-2.2-18.27a50.51,50.51,0,0,0-7.55-6.18c-7.19-4.82-15.22-7.63-20.65-6.69M493.32,517c-6.66-.31-8.25,5.42-3.32,12.82s14.55,13.45,21.18,13.41,7.72-5.81,2.66-13a34.67,34.67,0,0,0-9.08-8.78c-3.86-2.59-8-4.27-11.44-4.41m-80.41-57.16c-6-.75-8.53,3.95-5.19,10.58s11.22,12.7,17.41,13.33,8.16-4.3,4.68-10.83a28.36,28.36,0,0,0-9.06-9.8,19.33,19.33,0,0,0-7.84-3.28M228.12,329.11a1.05,1.05,0,0,0-1.47,1.16,2.45,2.45,0,0,0,1.75,2,1,1,0,0,0,1.47-1.11,2.61,2.61,0,0,0-1.13-1.79,1.83,1.83,0,0,0-.62-.28M921.74,793.28c-5.89-3.23-12.85-3.77-15.46-1.06s0,7.81,6.17,11.27,13,3.66,15.42.73c2.3-2.56.23-6.79-4.47-9.94-.52-.35-1.08-.68-1.66-1M862.22,752.7c-9.82-6.22-21.83-8.39-27.1-4.67s-1.65,12.5,8.45,19.1,22.6,8.52,27.49,4.18c4.78-4.08,1-12-8-18.09l-.79-.52m-284-186.06c-7.45.48-8,7.82-1,16.28,7.31,8.7,19.45,14.9,26.77,13.93s7.24-8.24.12-16.42a45.81,45.81,0,0,0-8.85-7.7c-5.86-3.93-12.3-6.39-17.08-6.09M772.78,702.9c-6.79,3.24-3.72,12.65,7,20.76s25,11.59,31.29,7.68,2.55-12.87-7.83-20.42c-.52-.38-1-.75-1.58-1.11-10.09-6.77-22.59-9.93-28.88-6.91M341.42,401.05c-4.45-.93-6.76,2-5.2,6.58s6.33,9,10.69,9.74,6.6-2.17,5-6.69a16.89,16.89,0,0,0-6.31-7.77,12,12,0,0,0-4.2-1.86M984.91,827.62c-3.78-1.74-8.13-1.56-9.44.59s.65,5.33,4.67,7.22,8.18,1.47,9.55-.68c1.1-1.79-.23-4.27-3-6.11a13.55,13.55,0,0,0-1.81-1M716.3,656.12c-7.56,2.42-5.61,11.71,4.64,20.54,10.44,9,24.95,13.69,32.15,10.63s4.38-12-5.6-20.29a52.86,52.86,0,0,0-4.42-3.3c-9.35-6.27-20.47-9.62-26.77-7.58m331.86,201.4c-.84-.33-1.63-.13-1.83.36s.26,1.1,1,1.42,1.64.1,1.83-.37,0-.84-.5-1.16a2.16,2.16,0,0,0-.53-.25M666,609c-7.74,1.51-6.95,9.86,2.11,18.8s23.12,14.55,30.6,12.54,5.88-10.35-3.06-18.76a53.33,53.33,0,0,0-6.5-5.13C681.19,611.11,672,608,666,609M279.24,341.21c-2.12-.57-3.57.61-3.27,2.72a6.56,6.56,0,0,0,4.41,4.84c2.14.55,3.52-.71,3.19-2.78a6.35,6.35,0,0,0-2.77-4,5.43,5.43,0,0,0-1.56-.74M461.84,464.7c-6.48-.78-8.69,4.2-4.93,11.09,4,7,12.63,13.15,19.15,13.66s8.32-4.52,4.35-11.31a31.49,31.49,0,0,0-9.38-9.66,21.47,21.47,0,0,0-9.19-3.78m78.1,52c-7.25-.31-8.62,5.87-2.93,13.71s16.43,14.19,23.58,14.06,7.94-6.42,2.18-14a39.13,39.13,0,0,0-9.31-8.61c-4.6-3.09-9.57-5.11-13.52-5.18M390.42,408.3c-5.56-1.06-8.52,2.67-6.2,8.55s9,11.56,14.71,12.53,8.3-2.94,5.86-8.74a23,23,0,0,0-8.28-9.63,17.5,17.5,0,0,0-6.09-2.71M178.09,264c-.23-.15-.41,0-.49.24a.64.64,0,0,0,.38.52c.26.1.45,0,.47-.21a.41.41,0,0,0-.19-.47l-.17-.08m443.4,297.62c-8,.58-8.29,8.23-.37,17.1s21.23,15.2,29.14,14.13c7.69-1.14,7.19-8.87-.77-17.28a48.61,48.61,0,0,0-8.38-7c-6.71-4.5-14.25-7.35-19.62-6.91M328.31,352.39c-3.34-.91-5.43,1-4.71,4.27a11,11,0,0,0,7.38,7.49c3.27.84,5.38-1.11,4.53-4.38a10.76,10.76,0,0,0-4.49-6.11,9.38,9.38,0,0,0-2.71-1.27M807.88,684.52c-6.49,3.17-3.29,12.19,7.26,19.69s24.36,10.42,30.3,6.49,2.19-12.32-8-19.32l-.27-.18c-10.07-6.76-23-9.88-29.25-6.68m84.64,43.56c-9.39-5.58-21-7.38-25.89-3.6-5.09,3.64-1.34,11.84,8.46,17.88s21.68,7.34,26.28,3.14c4.37-3.83,1-10.86-7.21-16.38-.53-.36-1.07-.7-1.64-1M227.33,280.73a.57.57,0,0,0-.87.47,1.11,1.11,0,0,0,.77,1,.56.56,0,0,0,.85-.49,1.05,1.05,0,0,0-.46-.87.81.81,0,0,0-.29-.12M947.82,763.54c-5.82-2.94-12.35-3.14-14.81-.46s.13,7.38,6.07,10.54,12.5,3.1,14.87.27c2-2.54.15-6.3-4.14-9.17a20.9,20.9,0,0,0-2-1.18M754.33,642.91c-7.12,2.45-5,11.27,5.16,19.47s24.28,12.32,31.07,9.28,3.92-11.46-5.88-19.09c-.91-.71-1.86-1.4-2.83-2.05-9.42-6.32-21-9.72-27.52-7.61M508.09,468.66c-6.78-.72-8.94,4.46-4.56,11.62,4.65,7.34,14.09,13.64,21,14.1s8.43-4.91,3.83-11.92a34.44,34.44,0,0,0-9.51-9.39,25.36,25.36,0,0,0-10.74-4.41m-70.21-52.1c-6-1.15-8.76,2.84-6,8.93s10.2,12.05,16.28,13,8.37-3.23,5.53-9.23a26.3,26.3,0,0,0-8.74-9.61,19.81,19.81,0,0,0-7.09-3.11M583.73,516c-7.66-.19-8.88,6.35-2.5,14.45s18.19,14.71,25.77,14.42,8.1-6.85,1.61-14.7a43.88,43.88,0,0,0-9.26-8.23c-5.27-3.54-11.05-5.87-15.62-5.94m122.64,84.74c-7.35,1.51-6.35,9.47,2.63,17.73s22.43,13.2,29.6,11.17,5.33-9.92-3.45-17.59a49.36,49.36,0,0,0-5-3.86c-8.09-5.42-17.74-8.65-23.74-7.45m299.72,192.42c-3.81-1.59-7.87-1.25-9.18.81s.73,5.11,4.58,6.74,8,1.21,9.13-.91c1-1.71-.16-4-2.58-5.59a12.4,12.4,0,0,0-1.95-1.05M375.39,362.61c-4.64-1.26-7.34,1.39-6,5.83s6.14,9.06,10.69,10.14,7.14-1.59,5.75-6a16.39,16.39,0,0,0-6.39-8.08,13.4,13.4,0,0,0-4-1.87M275.13,294c-2.09-.67-3.74.37-3.72,2.3a5.87,5.87,0,0,0,3.94,4.86c2.09.67,3.74-.37,3.67-2.33a5.7,5.7,0,0,0-2.62-4.18,5.86,5.86,0,0,0-1.27-.65M662.85,557.58c-7.73.69-7.79,8.07.29,16.49s21.27,14.24,28.93,13.06,6.77-8.62-1.34-16.6a47.8,47.8,0,0,0-7.1-5.77c-7-4.71-15.12-7.7-20.78-7.18m401,261c-.8-.27-1.7-.12-1.86.41a1.35,1.35,0,0,0,1.1,1.42c.91.31,1.71.1,1.87-.43s0-.8-.51-1.11a2.39,2.39,0,0,0-.6-.29m-512.12-347c-7.37-.72-9.37,4.81-4.28,12.38s15.82,14.3,23.2,14.63,8.71-5.32,3.51-12.63a39.12,39.12,0,0,0-9.75-9.18c-4.23-2.83-8.81-4.8-12.68-5.2M483.25,424c-6.29-1.15-8.94,3-5.75,9.25,3.36,6.41,11.37,12.38,17.71,13.26s8.54-3.38,5.15-9.55a28.8,28.8,0,0,0-9-9.42,22.24,22.24,0,0,0-8.13-3.54M187,220.29a.3.3,0,0,0-.47.15c-.08.21.08.41.3.53a.37.37,0,0,0,.48-.21.42.42,0,0,0-.21-.42l-.1-.05M321.3,307.23c-3.23-1.08-5.7.54-5.45,3.61s3.31,6.47,6.68,7.55,5.72-.65,5.32-3.7a9.55,9.55,0,0,0-4.27-6.33,9.89,9.89,0,0,0-2.28-1.13m546.51,366c-9.15-5.85-20.83-8.3-26.48-5.39-5.56,3.07-2.61,10.77,7,17.21s21.62,8.42,26.87,4.91c4.93-3.44,1.93-10.5-6.57-16.2-.27-.18-.54-.36-.82-.53M625.6,515.67c-7.52,0-8.51,6.4-1.83,14.25S642.44,544,650,543.64s7.76-6.84,1-14.43a44,44,0,0,0-8.25-7.07c-5.74-3.85-12.18-6.43-17.06-6.47M421,373.68c-4.71-1.15-7.3,1.54-5.83,6,1.7,4.66,7,9.34,11.67,10.36s7.21-1.7,5.55-6.21a18.11,18.11,0,0,0-6.79-8,14.91,14.91,0,0,0-4.6-2.14M790.61,630.93c-6.33,2.36-4.22,10,5.11,17.19s22,10.33,28.11,7.5,3.26-10.29-5.68-16.84q-.58-.43-1.2-.84c-8.93-6-20.23-9.16-26.34-7M919.4,705.31c-8.45-4.71-18.68-5.89-23-2.54s-1,10.45,7.85,15.55,19.3,5.89,23.39,2.13c3.47-3.49.86-9.22-5.8-13.68-.75-.5-1.55-1-2.4-1.46M744.33,592.87c-6.71,1.54-5.61,8.75,2.93,16.09s21.12,11.62,27.65,9.56,4.67-9.14-3.62-16c-1.09-.88-2.23-1.73-3.42-2.53-7.9-5.29-17.69-8.46-23.54-7.16M970.83,736.1c-5.11-2.41-10.89-2.45-13,0s.33,6.49,5.49,9,11,2.42,13-.14c1.64-2.19.1-5.31-3.39-7.65a16.3,16.3,0,0,0-2.15-1.22m-738.55-498c-.36-.15-.78,0-.81.38a.92.92,0,0,0,.59.92.66.66,0,0,0,.93-.34,1,1,0,0,0-.44-.84,1.11,1.11,0,0,0-.27-.12M702.93,554.49c-6.8.78-6.6,7.19.76,14.33s19.27,12.1,25.91,10.87,5.84-7.53-1.5-14.3a41.82,41.82,0,0,0-5.28-4.15c-6.71-4.5-14.65-7.34-19.89-6.75M366.37,322c-3.08-1-5.2.47-4.72,3.3s3.42,5.93,6.58,6.92,5.06-.66,4.57-3.47a9.67,9.67,0,0,0-4.13-5.62,8.78,8.78,0,0,0-2.3-1.13M526,429.77c-7-1.23-9.78,3.37-5.72,10.31s13.33,13.49,20.51,14.49c7,.86,9.17-3.93,5-10.71a33.54,33.54,0,0,0-9.72-9.75A26.75,26.75,0,0,0,526,429.77M1024.56,761.3c-3.27-1.23-6.84-.82-7.92,1s.7,4.47,4.06,5.76,6.94.86,7.92-1.08c.83-1.47-.18-3.35-2.19-4.7a9.68,9.68,0,0,0-1.87-1M593.89,475.06c-7.22-.55-9,4.79-3.59,12.05s16,13.59,23.29,13.8,8.35-5.18,2.84-12.21a38.81,38.81,0,0,0-8.91-8.09c-4.53-3-9.52-5.16-13.63-5.55M464.41,382.6c-5.68-1.36-8.61,1.82-6.36,7.23s9,11,14.61,12.17,8.31-2.15,6-7.47a23.25,23.25,0,0,0-8.11-9.07,20.15,20.15,0,0,0-6.14-2.86m-187.65-128c-.93-.33-1.79,0-1.86.86a2.38,2.38,0,0,0,1.57,2.18c1,.35,1.76,0,1.82-.89a2.2,2.2,0,0,0-1.09-1.91,2.11,2.11,0,0,0-.44-.24M665.85,515.79c-6.94.1-7.65,5.9-1.24,13,6.66,7.2,17.79,12.55,24.71,12.08s6.95-6.33.46-13.09a41.16,41.16,0,0,0-6.74-5.58c-5.72-3.84-12.32-6.43-17.19-6.38m411.71,266.87c-.66-.19-1.32,0-1.47.43s.24.92,1,1.13a1.15,1.15,0,0,0,1.47-.43c.1-.29-.11-.66-.49-.91a1.57,1.57,0,0,0-.47-.22m-668-449.21c-4.29-1.28-7.09.73-6.15,4.66s5.3,8.23,9.67,9.48,7-.88,5.94-4.82c-.71-2.76-3.09-5.67-6-7.59a14,14,0,0,0-3.51-1.73M825.35,620c-5.17,2-3.28,8.23,4.51,13.75s18.33,8,23.27,5.57,2.48-8.44-5-13.57l-.19-.12c-7.6-5.1-17.52-7.68-22.56-5.63M895,656.08c-7.64-4.56-17.31-6.29-21.81-3.7s-2,8.84,6,13.73,17.85,6.36,22.1,3.37c4-2.75,1.6-8.17-5-12.6-.4-.27-.81-.54-1.24-.8M320.15,270c-1.7-.62-3.12.08-3.19,1.55s1.37,3.23,3,3.89,3.16-.09,3.22-1.54a4.43,4.43,0,0,0-2.13-3.4,4.7,4.7,0,0,0-.94-.5M780.83,585.76c-5.67,1.48-4.58,7.43,2.83,13.42s18.18,9.29,23.63,7.46,3.81-7.74-3.37-13.28c-.61-.47-1.25-.93-1.91-1.37-7-4.7-16-7.46-21.18-6.23M567.39,435.94c-7.09-1.15-9.53,3.48-5.28,10.23,4.44,7,14.17,13.33,21.28,14.14s8.94-4,4.56-10.55a34.86,34.86,0,0,0-9.34-9,29.93,29.93,0,0,0-11.22-4.85M943,684.21c-6.71-3.48-14.74-4.11-18.17-1.36s-.49,8.31,6.48,12,15.19,4.11,18.27,1c2.7-2.65.77-6.91-4.18-10.23a22,22,0,0,0-2.4-1.41M506.3,391.31c-6.24-1.44-9.26,2.09-6.46,8s10.44,11.88,16.7,13.08c6.43,1.33,9-2.41,6.06-8.15a27,27,0,0,0-8.88-9.46,23.76,23.76,0,0,0-7.42-3.43m128.37,87.6c-6.53-.48-7.83,4.3-2.76,10.63s14.88,11.76,21.36,11.94,7.28-4.75,2.11-10.83a35.25,35.25,0,0,0-7.27-6.37c-4.46-3-9.47-5.09-13.44-5.37M200.53,183.29c-.09,0-.15,0-.15,0s0,.13.07.15a.16.16,0,0,0,.17,0,.14.14,0,0,0-.06-.15h0m540.4,368.07c-5.65.76-5.36,6,1.13,11.91s16.37,9.55,22,8.49,4.75-6.32-1.58-11.82a35.43,35.43,0,0,0-3.41-2.58c-6-4-13.32-6.56-18.11-6M991.11,710.59c-4-1.74-8.43-1.6-10,.36s.31,5.06,4.35,6.9,8.59,1.57,10.11-.51c1.21-1.65.17-3.92-2.4-5.64a12.38,12.38,0,0,0-2-1.11m-539.81-366c-5.22-1.55-8.52.89-7,5.64s7,9.91,12.38,11.36,8.2-1.2,6.69-5.84c-1.07-3.21-4-6.6-7.43-8.89a17.89,17.89,0,0,0-4.63-2.27m-88.86-60.21c-2.64-1-4.76,0-4.59,2.33s2.37,4.93,5,5.91,4.7-.12,4.54-2.44c-.08-1.73-1.45-3.7-3.31-5a7.59,7.59,0,0,0-1.65-.85M242.19,201.62a.68.68,0,0,0-.9.26.75.75,0,0,0,.53.84.62.62,0,0,0,.88-.24.66.66,0,0,0-.33-.76.77.77,0,0,0-.18-.1M704.8,516.27c-6,.15-6.27,5-.68,10.76,5.85,5.84,15.36,10.17,21.18,9.65s5.75-5.32,0-10.87a33.63,33.63,0,0,0-4.71-3.76c-5.2-3.49-11.44-5.89-15.82-5.78m336,215.58c-2.53-.87-5.2-.42-6,1s.6,3.43,3.17,4.33,5.35.48,6.07-1.08c.66-1.06-.1-2.47-1.58-3.46a6.69,6.69,0,0,0-1.63-.8M607.75,442.58c-6.44-.92-8.51,3.14-4.31,9.19s13.27,11.7,19.82,12.37c6.37.64,7.9-3.61,3.63-9.45a32,32,0,0,0-7.94-7.35,28.84,28.84,0,0,0-11.2-4.76m-60.88-42.47c-6.3-1.36-9.15,2.11-6.07,7.87,3.2,5.95,11.18,11.76,17.59,12.92s8.68-2.5,5.47-8.15a28.19,28.19,0,0,0-8.65-8.83,26.05,26.05,0,0,0-8.34-3.81M283.3,219c-.87-.39-1.72-.1-1.92.59a1.93,1.93,0,0,0,1.24,2c.93.39,1.77.13,1.92-.59a1.79,1.79,0,0,0-.9-1.8,1.86,1.86,0,0,0-.34-.19M673.8,482.48c-5.43-.28-6.41,3.65-1.94,8.79,4.64,5.3,12.88,9.53,18.32,9.59s6-4,1.47-8.88a29.53,29.53,0,0,0-5.46-4.64c-4.07-2.73-8.8-4.68-12.39-4.86m-270.27-185c-3.87-1.42-6.78.07-6.43,3.4s3.94,7.2,8,8.58c3.81,1.3,6.58-.27,6.2-3.54-.38-2.52-2.47-5.32-5.14-7.11a11.83,11.83,0,0,0-2.6-1.33M875.3,613.1c-5.72-3.67-13.5-5.45-17.23-3.73-3.91,1.6-2.36,6.18,3.58,10.12s13.94,5.59,17.6,3.66,2-6.08-3.45-9.72l-.5-.33m-59.74-34c-4.41,1.16-3.37,5.72,2.44,10s14.21,6.76,18.38,5.27,2.85-5.92-2.83-10c-.21-.15-.42-.3-.64-.44-5.62-3.77-13.19-6-17.35-4.82M491.79,355.55c-5.85-1.71-9.18,1-7.28,6.15s8.36,10.75,14.29,12.35,8.81-1.42,6.83-6.45c-1.31-3.32-4.48-6.84-8.16-9.3a20.92,20.92,0,0,0-5.68-2.75M919.3,639.8c-5.66-3.16-12.95-4.19-16.23-2.17s-1.28,6.64,4.64,10,13.31,4.27,16.48,2c2.89-2,1.27-5.81-3.34-8.9-.48-.33-1-.64-1.55-1m-142-91.46c-4.28.69-3.92,4.67,1,8.81,5.13,4.26,12.66,6.91,16.85,6s3.57-4.74-1.38-8.78c-.58-.46-1.19-.91-1.82-1.34-4.76-3.18-10.89-5.28-14.68-4.68M963.51,665c-4-1.9-8.71-2.08-10.64-.37s-.2,4.81,3.86,6.84,9,2.16,10.72.26c1.58-1.52.51-3.92-2.29-5.79a12.94,12.94,0,0,0-1.65-.94m126,84.18a1.24,1.24,0,0,0-1.17.38.85.85,0,0,0,.77.91.87.87,0,0,0,1.14-.42c.14-.21,0-.46-.31-.65a2.16,2.16,0,0,0-.43-.22M323.74,235.64c-1.49-.64-2.84-.16-3,1s.81,2.68,2.3,3.32,2.81.13,3-1a3.13,3.13,0,0,0-1.58-2.93,4.58,4.58,0,0,0-.69-.37M741.9,516.46c-4.55.28-4.74,3.92-.14,8.29s12.14,7.48,16.68,7.1,4.27-4.2-.17-8.31a26.41,26.41,0,0,0-3.06-2.37c-4.3-2.89-9.65-4.85-13.31-4.71M586.25,408.69c-6.14-1.27-8.67,2-5.45,7.44s11.09,10.83,17.32,12c6,1,8.2-2.38,4.8-7.74a27.92,27.92,0,0,0-7.92-7.7,26.28,26.28,0,0,0-8.75-4M646.77,449c-5.48-.7-7,2.75-3.25,7.7s11.59,9.48,17,10,6.68-3,2.85-7.8a27.26,27.26,0,0,0-6.15-5.48,26.34,26.34,0,0,0-10.45-4.4M443.32,310.31c-4.76-1.67-8.1.18-7.44,4.22.84,4.16,5.43,8.82,10.4,10.47s8.07-.33,7.12-4.43c-.61-3-3.22-6.24-6.49-8.43a16.22,16.22,0,0,0-3.59-1.83M1009.37,686.7c-2.8-1.12-6-.91-7.07.51s.22,3.51,3.11,4.72,6,.86,7-.64c.87-1.13.13-2.69-1.53-3.8a7.85,7.85,0,0,0-1.53-.79M531.08,366.35c-6-1.7-9.12,1.11-7,6.26s9.15,10.76,15.18,12.29,8.93-1.4,6.61-6.5c-1.45-3.13-4.6-6.44-8.24-8.88a23.86,23.86,0,0,0-6.59-3.17M363.44,251.27c-2.29-.91-4.32-.25-4.48,1.58s1.55,4.08,3.86,5.07,4.31.25,4.43-1.59c.13-1.51-1-3.33-2.73-4.47a8,8,0,0,0-1.08-.59m348.15,234.6c-4.14-.13-4.77,2.78-1.22,6.54s9.88,6.83,14.07,6.87,4.5-3,.87-6.61a21,21,0,0,0-3.57-2.94c-3.29-2.22-7.24-3.78-10.15-3.86M255.47,171.09c-.05.12,0,.25.21.37a.34.34,0,0,0,.45-.07.41.41,0,0,0-.19-.42.4.4,0,0,0-.47.12M482.18,322.94c-5.41-1.88-9.06.22-7.94,4.74s6.76,9.81,12.29,11.61,8.85-.5,7.52-5c-.85-3.17-3.76-6.64-7.35-9a19.58,19.58,0,0,0-4.52-2.28M848.56,572.37c-3,.88-2.17,3.82,1.84,6.61s9.3,4,12.2,3.06,1.84-3.93-2-6.53l-.09-.06c-3.8-2.55-9.12-4-11.93-3.08m51.66,28.57c-3.85-2.32-9.11-3.34-11.64-2.13s-1.54,4.18,2.54,6.65,9.4,3.4,11.85,2.11,1.32-3.93-2-6.18c-.22-.15-.46-.3-.71-.45m154.87,103.61c-1.54-.46-3.07-.14-3.54.76s.4,2,1.9,2.47,3.08.14,3.54-.74c.35-.67-.07-1.44-.91-2a4.35,4.35,0,0,0-1-.49M811.64,544.94c-3,.51-2.53,3.18.94,5.88s8.63,4.36,11.55,3.75,2.37-3.23-1-5.84c-.28-.22-.57-.43-.88-.63-3.35-2.25-7.84-3.62-10.57-3.16M624.39,417.07c-5.49-1.06-7.58,1.76-4.47,6.48s10.28,9.37,15.77,10.24,7.15-2.1,4.06-6.65a26,26,0,0,0-6.59-6.15,25.66,25.66,0,0,0-8.77-3.92M402.25,266.14c-3.12-1.26-5.84-.35-5.84,2.22-.16,2.5,2.53,5.66,5.77,6.94s5.78.24,5.84-2.22c0-2-1.73-4.45-4-6a10.19,10.19,0,0,0-1.72-.93M569.58,377.45c-5.33-1.4-8.18,1-6,5.56s8.79,9.53,14.35,10.88,7.86-1.29,5.49-5.82a22.18,22.18,0,0,0-7.2-7.43,23.82,23.82,0,0,0-6.67-3.19m114.93,77.63c-4.27-.52-5.23,2.1-2.25,5.71s9.08,6.95,13.3,7.34,5-2.28,1.89-5.87a20.89,20.89,0,0,0-4.13-3.56,21.78,21.78,0,0,0-8.81-3.62M942.25,623.9c-4.52-2.33-10.17-2.95-12.62-1.26s-.88,5.05,3.63,7.48c4.7,2.53,10.36,3,12.71,1.13,2.13-1.54,1-4.29-2.19-6.45q-.71-.46-1.53-.9M777.48,516.46c-3.15.16-3.13,2.69,0,5.46s8.37,4.83,11.49,4.51,2.89-2.82-.26-5.52a17,17,0,0,0-1.53-1.15c-3.07-2-7.11-3.53-9.73-3.3M293.92,188.85a1.23,1.23,0,0,0-1.66.3,1.33,1.33,0,0,0,.86,1.57c.68.32,1.45.22,1.66-.3a1.27,1.27,0,0,0-.62-1.44l-.24-.13m689.17,457c-2.49-1.11-5.53-1.11-6.76,0s-.05,3.13,2.55,4.28,5.7,1.15,6.81-.12c1-.95.4-2.34-1.25-3.45a8.51,8.51,0,0,0-1.35-.73m-463-310.34c-5.6-1.88-9.12.22-7.67,4.76s7.35,9.81,13.07,11.6,8.87-.52,7.3-5c-1.05-3.06-4.05-6.43-7.65-8.84a21.6,21.6,0,0,0-5-2.55m-79.95-55.07c-3.94-1.61-7.12-.41-7,2.7s3.69,7.1,7.77,8.68,7,.22,6.81-2.87c-.24-2.44-2.34-5.28-5.2-7.2a14.88,14.88,0,0,0-2.42-1.31m307.35,208c-2.86-.08-3.15,1.94-.69,4.38s7,4.5,9.75,4.46c2.9,0,3.08-2,.58-4.43a13.31,13.31,0,0,0-2-1.57,16,16,0,0,0-7.67-2.84m-416-282.28c-1.16-.57-2.41-.33-2.74.55a2.44,2.44,0,0,0,1.68,2.66c1.16.59,2.35.33,2.65-.55a2.23,2.23,0,0,0-1.15-2.41,4.6,4.6,0,0,0-.44-.25M1100.07,718c-.41-.08-.83.07-.86.42s.12.5.52.58.81,0,.89-.33,0-.37-.24-.52a1.48,1.48,0,0,0-.31-.15M661.71,425.5c-4.38-.86-5.76,1.41-3.19,5A22,22,0,0,0,671,438.08c4.21.61,5.45-1.63,2.84-5.12a19.56,19.56,0,0,0-4.63-4.18,20.73,20.73,0,0,0-7.53-3.28m-54.5-37.24c-4.65-1.23-6.83.83-4.68,4.62s7.61,7.64,12.23,8.73,6.57-1,4.41-4.7a19.4,19.4,0,0,0-5.8-5.76,21,21,0,0,0-6.16-2.89m418.66,275.51c-2-.69-4.18-.45-5,.55s.31,2.59,2.3,3.26,4.19.46,4.92-.63c.55-.82.11-1.83-1-2.57a5.64,5.64,0,0,0-1.23-.61M368.63,222.67c-2-.94-3.88-.52-4.29.89s1,3.46,3,4.38,3.8.44,4.12-1c.36-1.21-.54-2.8-2-3.8a5.56,5.56,0,0,0-.79-.45m352,237.69c-2.87-.24-3.5,1.48-1.29,3.89a16,16,0,0,0,9.26,4.79c2.94.25,3.45-1.49,1.23-3.9A14.17,14.17,0,0,0,727.3,463a15.7,15.7,0,0,0-6.66-2.67M477.28,294.51c-4.53-1.8-8-.48-7.62,3,.46,3.65,4.72,8,9.47,9.79,4.59,1.72,7.82.26,7.33-3.24-.45-2.65-2.93-5.8-6.11-7.93a16.11,16.11,0,0,0-3.07-1.62m80,53.74c-5.15-1.67-8.25.2-6.68,4.26s7.21,8.83,12.45,10.36,8-.46,6.31-4.48c-1-2.56-3.69-5.4-6.86-7.53a22,22,0,0,0-5.22-2.61M886,566.7c-2.35-1.51-5.56-2.24-7.2-1.66s-1.19,2.27,1.16,3.78,5.57,2.22,7.25,1.59,1.13-2.15-.89-3.51l-.32-.2m-42.49-25.92c-1.7.38-1.43,2,.63,3.4s5.3,2.53,7,2.13,1.45-2-.7-3.48l-.34-.23c-2-1.36-4.88-2.16-6.61-1.82m80,48.18c-2.42-1.32-5.62-1.85-7.14-1.06s-.83,2.52,1.66,3.92,5.59,1.8,7.05,1,.88-2.25-1-3.52c-.17-.12-.35-.23-.54-.34M810.79,515.49c-1.77.2-1.75,1.63.13,3.16s5.05,2.7,6.91,2.49,1.74-1.61-.22-3.22c-.21-.17-.44-.33-.67-.49a10.84,10.84,0,0,0-6.15-1.94M405.14,238.61c-2.71-1.29-5.2-.72-5.6,1.26s1.7,4.74,4.43,5.9,5.19.62,5.46-1.35c.31-1.62-1-3.74-3.05-5.12a9.35,9.35,0,0,0-1.24-.69M238,126.2a.07.07,0,0,0,0,.12.2.2,0,0,0,.2,0,.27.27,0,0,0-.1-.1.21.21,0,0,0-.12,0M643.73,398.56c-3.37-.78-4.93.66-3.15,3.43,1.57,2.67,5.9,5.57,9.3,6.3,3.56.8,4.82-.79,3.1-3.43a14.13,14.13,0,0,0-4.05-3.88,17.57,17.57,0,0,0-5.2-2.42m137.8,91.67c-1.72,0-1.81,1.13-.25,2.54a9.9,9.9,0,0,0,5.77,2.42c1.68,0,1.77-1.16.33-2.46a8.8,8.8,0,0,0-1-.77,9.64,9.64,0,0,0-4.85-1.73M961.87,609.41c-2-1-4.42-1.09-5.58-.35s-.34,2.28,1.7,3.29,4.44,1,5.6.29c.83-.73.41-1.88-.94-2.79a8,8,0,0,0-.78-.44M697.53,432.92c-3.1-.5-4,1.08-2.11,3.53a17,17,0,0,0,9.24,5.31c3,.41,3.93-1.13,1.88-3.59a13.51,13.51,0,0,0-3-2.66,16.56,16.56,0,0,0-6-2.59M513.6,308.46c-4.68-1.78-8-.43-7.38,3.14s5.24,7.93,10.08,9.76,7.92.2,7.12-3.34c-.58-2.56-3.11-5.55-6.29-7.68a19.33,19.33,0,0,0-3.53-1.88M1067.87,678.6c-.79-.2-1.6,0-1.79.52s.22,1,1.06,1.27,1.59,0,1.73-.52c.21-.31,0-.73-.41-1a2,2,0,0,0-.59-.26M273,145.21a.33.33,0,0,0-.42,0c-.11.1-.06.23.12.35a.48.48,0,0,0,.45,0,.25.25,0,0,0-.11-.34l0,0M593.57,360.57c-4.36-1.37-6.89.23-5.32,3.6s6.48,7.27,11,8.64c4.4,1.2,6.64-.46,5-3.8a16.35,16.35,0,0,0-5.68-6,20.45,20.45,0,0,0-5-2.48M441.05,254c-3.53-1.62-6.5-.84-6.76,1.7s2.49,5.86,6,7.42,6.54.79,6.62-1.8c.21-2-1.6-4.63-4.17-6.36a11.32,11.32,0,0,0-1.74-1M755.13,464.74c-1.66-.09-2,.87-.7,2.23a9.48,9.48,0,0,0,5.54,2.66c1.79.18,2-.88.7-2.23a9.16,9.16,0,0,0-1.24-1,9.74,9.74,0,0,0-4.3-1.66M307.87,163.62a.89.89,0,0,0-1.13.1c-.18.27,0,.69.45.92s.92.2,1.05-.15.06-.59-.27-.81a.33.33,0,0,0-.1-.06m692.93,464.1a2.77,2.77,0,0,0-2.85.13c-.45.57-.08,1.3,1.07,1.75a2.72,2.72,0,0,0,2.87-.15c.35-.44.19-1-.44-1.4a3.27,3.27,0,0,0-.65-.33M549.29,322.17c-4.63-1.76-7.74-.48-6.89,2.89s5.57,7.64,10.16,9.26,7.62.26,6.58-3.11c-.68-2.36-3.11-5.09-6.07-7.07a18.18,18.18,0,0,0-3.78-2M679.18,408c-2.37-.5-3.36.48-2.16,2.24a12.61,12.61,0,0,0,6.66,4.24c2.39.47,3.27-.55,2-2.34a10,10,0,0,0-2.54-2.33,12.57,12.57,0,0,0-4-1.81m-336.36-227c-1.1-.54-2.35-.45-2.77.28s.18,1.84,1.29,2.41a2.06,2.06,0,0,0,2.76-.28c.34-.68-.09-1.63-1-2.25a2.26,2.26,0,0,0-.26-.16m286.34,191.5c-3.38-1-5.12.17-3.88,2.65s5.23,5.38,8.66,6.37,5-.28,3.66-2.8a12.25,12.25,0,0,0-4.06-4.08,16.75,16.75,0,0,0-4.38-2.14M476.32,269c-4.06-1.83-7.48-1-7.55,1.9s3.36,6.8,7.55,8.63,7.34.76,7.36-2.13c-.14-2.34-2.23-5.21-5.17-7.18a14.6,14.6,0,0,0-2.19-1.22M877.68,536.42c-1.77-1.19-4.62-2-6.17-1.63s-1.28,1.72.62,3,4.73,2,6.21,1.56,1.3-1.64-.51-2.85l-.15-.1M732,439.64c-1.92-.27-2.54.65-1.19,2.18a11.09,11.09,0,0,0,5.83,3.11c1.89.24,2.43-.77,1.13-2.18a8.27,8.27,0,0,0-1.67-1.43,10.44,10.44,0,0,0-4.1-1.68M910.07,557.71a5,5,0,0,0-3.64-.69c-.84.29-.6,1.11.61,1.86a4.68,4.68,0,0,0,3.56.61c.79-.27.63-1-.31-1.64l-.22-.14M841.18,513.1c-1.31.08-1.3,1,.06,2.06a8.06,8.06,0,0,0,4.76,1.57c1.23-.17,1.11-1.16-.15-2.15l-.18-.12c-1.34-.9-3.39-1.6-4.49-1.36M1109.12,689c-.15-.06-.18,0-.21,0s.12.11.13.09a.08.08,0,0,0,.14,0s0-.09,0-.1h0m-731.64-491c-1.81-1-3.78-.76-4.36.51s.54,3,2.42,4,3.77.68,4.26-.54-.28-2.6-1.77-3.6a6.16,6.16,0,0,0-.55-.33m663.07,444.32a2.14,2.14,0,0,0-2.25.4c-.43.44.09,1.15,1,1.42a2.12,2.12,0,0,0,2.19-.42c.25-.37,0-.84-.43-1.15a1.93,1.93,0,0,0-.54-.25m-228-152.21c-1.33,0-1.52.9-.28,1.89a7.82,7.82,0,0,0,4.8,1.9c1.4,0,1.42-.93.21-2-.17-.14-.35-.27-.53-.4a8.2,8.2,0,0,0-4.2-1.42M584.26,335.58c-4.13-1.52-6.86-.41-5.84,2.59s5.25,6.55,9.43,8,6.61.18,5.63-2.69c-.73-2-2.84-4.23-5.37-5.93a17.31,17.31,0,0,0-3.85-2M946,576.61c-2-1-4.55-1.29-5.78-.64s-.75,2,1.3,3.09,4.65,1.33,5.81.59.74-1.72-.63-2.63a7.6,7.6,0,0,0-.7-.41M511,284.08c-4.19-1.81-7.47-.95-7.36,1.93s3.77,6.78,8.11,8.58,7.38.81,7.09-2.11c-.21-2.25-2.42-5.06-5.35-7a15.87,15.87,0,0,0-2.49-1.37M787.64,467.93c-.89,0-1.08.43-.35,1.11a5.62,5.62,0,0,0,2.94,1.32c.9,0,1-.49.31-1.15a3.93,3.93,0,0,0-.44-.34,5.74,5.74,0,0,0-2.46-.94m-376-253c-2.31-1.19-4.68-.9-5.22.59s.93,3.85,3.29,5,4.62.79,5.14-.77c.45-1.36-.63-3.2-2.43-4.41a7.52,7.52,0,0,0-.78-.45M663.94,383.79c-2.33-.67-3.5.1-2.52,1.78a10.85,10.85,0,0,0,5.92,4.07c2.37.7,3.45-.13,2.43-1.76a8.18,8.18,0,0,0-2.56-2.51,12.78,12.78,0,0,0-3.27-1.58m49.34,32.73c-1.39-.31-1.9.27-1.13,1.28a7.5,7.5,0,0,0,4,2.36c1.4.28,1.89-.25,1.13-1.28a5.82,5.82,0,0,0-1.33-1.2,8.2,8.2,0,0,0-2.63-1.16m267.88,178a3.25,3.25,0,0,0-2.83-.11c-.56.44-.13,1.17.89,1.61a3.13,3.13,0,0,0,2.81,0c.41-.36.26-.86-.34-1.26a2.92,2.92,0,0,0-.53-.28M618.55,348.71c-3.29-1.19-5.22-.28-4.37,2s4.39,5.09,7.68,6.18,5.26.22,4.34-2.05a11.39,11.39,0,0,0-4.1-4.3,16.07,16.07,0,0,0-3.55-1.81M545,298.63c-4.2-1.82-7.34-1-7,1.9s4.27,6.72,8.48,8.42,7.32.79,6.8-2.07c-.28-2.11-2.49-4.74-5.35-6.66a17.5,17.5,0,0,0-2.91-1.59m-99.38-67.95c-3.28-1.61-6.43-1.24-7.07.9s1.7,5.33,5.07,7,6.36,1.06,6.89-1.12c.47-1.82-1.15-4.38-3.69-6.08a11.77,11.77,0,0,0-1.2-.7M764.92,445.21c-1.09-.14-1.33.42-.58,1.15a5.54,5.54,0,0,0,3.14,1.54c1.07.16,1.23-.36.59-1.08a3.93,3.93,0,0,0-.71-.6,7.23,7.23,0,0,0-2.44-1M1079.32,654a.54.54,0,0,0-.54.13c-.06.19.1.33.36.44a.57.57,0,0,0,.47-.21c.07-.09,0-.19-.08-.27l-.21-.09M292.52,124.15a.24.24,0,0,0-.28,0,.12.12,0,0,0,0,.21.22.22,0,0,0,.31,0c.05,0,.06-.1,0-.15l0,0m725,485.44a1.45,1.45,0,0,0-1.48.14c-.2.29,0,.63.6.86a1.32,1.32,0,0,0,1.44-.16c.22-.18.11-.45-.21-.66a1.64,1.64,0,0,0-.35-.18m-320-215.66c-1.48-.36-2.06.11-1.42,1.13a7.66,7.66,0,0,0,3.76,2.46c1.41.35,2.07-.13,1.4-1.11a5.52,5.52,0,0,0-1.5-1.39,9.07,9.07,0,0,0-2.24-1.09m171.85,116c-.86.11-.82.73.15,1.45a5.39,5.39,0,0,0,3.24.88c.84-.06.7-.75-.15-1.35l-.09-.06a5.46,5.46,0,0,0-3.15-.92m32.85,20.31a5.06,5.06,0,0,0-3.31-.77c-.79.19-.59.89.29,1.44a4.94,4.94,0,0,0,3.31.77c.75-.18.63-.83-.15-1.36l-.14-.08M479,246.55c-3.78-1.83-7.34-1.45-7.82,1s2.4,6.06,6.3,7.92,7.21,1.27,7.66-1.18c.23-2.11-1.66-4.91-4.55-6.85a13.79,13.79,0,0,0-1.59-.93m99.67,66.94c-3.44-1.38-6-.74-5.51,1.52s3.77,5.4,7.19,6.7,5.94.68,5.41-1.58c-.36-1.63-2.14-3.66-4.45-5.2a15.71,15.71,0,0,0-2.64-1.44m-255-171a.54.54,0,0,0,.27.78.9.9,0,0,0,1,0c.15-.23,0-.54-.29-.75a1,1,0,0,0-1,0M842.15,489.79c-.84.07-.9.56-.14,1.2a5,5,0,0,0,2.94,1c1,0,1-.54.18-1.14l-.23-.16a5.31,5.31,0,0,0-2.75-.91M652.29,361.4c-2.11-.7-3.42-.12-2.7,1.36s3,3.22,5.21,3.95,3.46.14,2.78-1.31a7.26,7.26,0,0,0-2.59-2.63,12.25,12.25,0,0,0-2.7-1.37m93.62,62.44c-.78-.19-1,.15-.57.67a4.2,4.2,0,0,0,2.21,1.22c.7.14,1-.15.58-.66a3,3,0,0,0-.64-.56,4.33,4.33,0,0,0-1.58-.67M932.78,548.65a2.24,2.24,0,0,0-1.46-.28c-.26.18-.12.47.32.7a1.75,1.75,0,0,0,1.32.19c.32-.06.23-.36,0-.53a.55.55,0,0,0-.15-.08M357,160.4a1.75,1.75,0,0,0-2.2,0c-.4.49-.1,1.26.73,1.71a1.82,1.82,0,0,0,2.26,0c.36-.44.11-1.13-.55-1.57l-.24-.14m461,309.49c-.4,0-.55.23-.08.61a3,3,0,0,0,1.61.65c.42,0,.55-.23.14-.59a1.33,1.33,0,0,0-.19-.14,3.2,3.2,0,0,0-1.48-.53M511.84,262.36c-4-2-7.4-1.46-7.74,1s2.9,6.2,6.92,8.08,7.43,1.32,7.56-1.24c.16-2-1.88-4.79-4.79-6.74a17,17,0,0,0-1.95-1.12M965.48,565.23a1.41,1.41,0,0,0-1.15-.05c-.27.11-.14.41.26.6a1.34,1.34,0,0,0,1.15.05c.21-.14.16-.33-.1-.51l-.16-.09M611.77,327.72c-2.66-1.05-4.61-.61-4,1.21s3.08,4,5.81,5,4.53.53,4-1.22a8.2,8.2,0,0,0-3.35-3.72,13.18,13.18,0,0,0-2.4-1.29M389.23,177.78c-1.44-.8-3.05-.76-3.62.08s.06,2.18,1.51,3,3,.73,3.6-.06,0-2-1.15-2.78a3.79,3.79,0,0,0-.34-.2M795.89,449.53c-.63,0-.7.26-.3.63a3.54,3.54,0,0,0,1.81.85c.63.06.7-.26.29-.63a2.79,2.79,0,0,0-.31-.24,3.83,3.83,0,0,0-1.49-.61m258.08,172a.84.84,0,0,0-.83.16c-.14.2.13.49.4.57s.67,0,.8-.19,0-.32-.15-.44a.74.74,0,0,0-.22-.1M729.9,403.14c-.79-.2-1.14,0-.76.55a3.87,3.87,0,0,0,2.05,1.27c.75.17,1-.09.76-.55a2.83,2.83,0,0,0-.73-.66,4.38,4.38,0,0,0-1.32-.61M685.14,373c-1.4-.48-2.29-.12-1.78.79a6.91,6.91,0,0,0,3.57,2.55c1.56.52,2.34.15,1.75-.83a4.76,4.76,0,0,0-1.57-1.52,8.46,8.46,0,0,0-2-1M544.35,278.16c-3.68-1.71-6.77-1.34-6.83.93s3,5.6,6.73,7.29,6.61,1.16,6.66-1.08c0-1.84-1.95-4.24-4.57-6a16.27,16.27,0,0,0-2-1.14M421.28,194.84c-2-1.11-4.16-1.07-4.89.12s.39,3,2.43,4.14,4.18,1.06,4.86-.16c.59-1.06-.25-2.68-1.9-3.79-.16-.11-.33-.21-.5-.31m578,384.84a1.88,1.88,0,0,0-1.6,0c-.32.28-.06.69.47.88a1.81,1.81,0,0,0,1.6,0c.25-.21.12-.52-.21-.74a1.59,1.59,0,0,0-.26-.14m-355-238.51c-2-.72-3.41-.44-2.91.89s2.52,2.93,4.5,3.63c2.12.87,3.38.46,2.91-.81a6,6,0,0,0-2.44-2.61,11,11,0,0,0-2.06-1.1M777,430c-.55-.16-.72.09-.41.43a3.36,3.36,0,0,0,1.47.75c.48.06.71-.08.41-.42a2.28,2.28,0,0,0-.36-.3A3,3,0,0,0,777,430M453.12,211.34c-2.7-1.48-5.49-1.37-6.24.25s.91,4.16,3.59,5.57,5.42,1.26,6.25-.26c.58-1.49-.54-3.55-2.81-5.07-.25-.17-.52-.33-.79-.49m123.26,82.33c-3-1.38-5.5-1.05-5.42.81s2.75,4.56,5.91,5.95,5.52,1,5.34-.87c-.09-1.41-1.7-3.33-3.89-4.79a14.72,14.72,0,0,0-1.94-1.1m319.82,213c-.3.06-.3.26,0,.44a2.1,2.1,0,0,0,1.23.33c.35,0,.35-.22-.06-.5a1.82,1.82,0,0,0-1.14-.27m-26-17.67c-.25.09-.3.25,0,.46a2.14,2.14,0,0,0,1.09.34c.38,0,.44-.17,0-.45l-.06,0a2,2,0,0,0-1-.31M924,523.46c-.36,0-.24.36.09.55a2.28,2.28,0,0,0,1.31.22c.37-.06.22-.32-.15-.57a1.62,1.62,0,0,0-1.25-.2m-206.9-139.7c-.93-.29-1.29,0-1,.47a3.89,3.89,0,0,0,2.09,1.4c.83.23,1.27.07,1-.47a3,3,0,0,0-.85-.79,5.09,5.09,0,0,0-1.24-.61m-232.36-156c-3.22-1.7-6.43-1.64-7.15.22s1.37,4.85,4.61,6.53,6.35,1.44,7.08-.34c.62-1.62-.9-4-3.47-5.76-.34-.23-.7-.45-1.07-.65m123.5,81.09c-2.37-1.09-4.18-.85-4,.5s2.33,3.42,4.69,4.43,4.12.75,4-.58c-.18-1-1.32-2.35-2.85-3.38a11.11,11.11,0,0,0-1.76-1M760.91,411.13c-.45-.11-.7.06-.53.3a2.86,2.86,0,0,0,1.47.86c.45.11.7-.06.44-.36a2.43,2.43,0,0,0-.44-.36,3,3,0,0,0-.94-.44m-84.58-56.85c-1.06-.38-1.82-.23-1.49.45a4.37,4.37,0,0,0,2.43,1.89c1.16.43,1.82.24,1.58-.38a4.19,4.19,0,0,0-1.33-1.34,6.7,6.7,0,0,0-1.19-.62m149.13,98.88c-.12,0-.19.1-.11.16a1.23,1.23,0,0,0,.61.27c.2,0,.25-.06,0-.22a1.88,1.88,0,0,0-.52-.21m206.81,139c-.11.17,0,.28.2.38a2,2,0,0,0,.6-.1c.07-.12-.15-.27-.29-.36s-.47,0-.51.08M515.86,244c-3.37-1.76-6.73-1.67-7.43.24-.52,2.06,1.83,5.16,5.45,6.95s6.74,1.65,7.26-.31c.46-1.72-1.27-4.27-4.06-6.14-.39-.26-.8-.51-1.22-.74M314.15,107.21a.32.32,0,0,0-.29-.07.14.14,0,0,0,.05.23.47.47,0,0,0,.33,0,.09.09,0,0,0,0-.13l-.05,0m28.64,18.17c-.24.14-.11.49.16.68a1.08,1.08,0,0,0,1,0c.16-.19.06-.45-.25-.66s-.73-.25-.94-.07M806.93,435.62c-.21-.08-.24,0-.17.05a1.5,1.5,0,0,0,.4.2c.12,0,.15,0,.09-.14l-.06-.05c-.05,0-.12,0-.26-.06M639.62,323.4c-1.73-.77-2.89-.62-2.72.32s1.75,2.29,3.39,3,2.81.53,2.65-.41a4.39,4.39,0,0,0-1.9-2.15,7.45,7.45,0,0,0-1.42-.76m-92.93-63.11c-3.2-1.62-6.25-1.61-6.58.27s2,4.71,5.36,6.37,6.2,1.49,6.5-.33c.3-1.53-1.38-3.81-3.88-5.48a12.9,12.9,0,0,0-1.4-.83M373.63,143.36a1.9,1.9,0,0,0-2.07-.17c-.45.39-.23,1,.52,1.5a2,2,0,0,0,2.08.15c.38-.4.21-1-.41-1.4l-.12-.08M748,393.61c-.36-.15-.62-.06-.44.17a1.85,1.85,0,0,0,1,.64c.38.12.62.06.46-.18a1.3,1.3,0,0,0-.34-.31,2.45,2.45,0,0,0-.7-.32m-40.39-27.36c-.66-.2-1-.1-.81.23a2.36,2.36,0,0,0,1.32,1c.67.28,1,.12.81-.22a1.5,1.5,0,0,0-.6-.58,5.27,5.27,0,0,0-.72-.41M403.64,160.91c-1.28-.76-2.79-.85-3.42-.21s-.14,1.78,1.07,2.53,2.75.82,3.39.16.21-1.65-.9-2.39l-.14-.09M577.28,276.38c-2.76-1.39-5.25-1.31-5.47.2s2,4,4.84,5.28,5.29,1.37,5.43-.22c.14-1.19-1.29-3-3.41-4.44a12.69,12.69,0,0,0-1.39-.82M791.06,418.64c-.22-.08-.25,0-.17.05a1,1,0,0,0,.38.22c.12,0,.15,0,.07-.11a.52.52,0,0,0-.11-.1.22.22,0,0,0-.17-.06M670.52,337.25c-1-.42-1.63-.32-1.52.2a3.7,3.7,0,0,0,2,1.68c1,.42,1.68.33,1.46-.22,0-.3-.46-.74-1-1.14a6.51,6.51,0,0,0-.94-.52m-237-159c-1.74-1-3.78-1.15-4.56-.29s0,2.55,1.73,3.54,3.79,1.13,4.53.23.13-2.26-1.4-3.29l-.3-.19m462.3,308.86c-.25.07-.27.21,0,.43a1.87,1.87,0,0,0,1.07.28c.33,0,.32-.18,0-.39a2.57,2.57,0,0,0-1.11-.32m24.56,15.25c-.27.11-.25.27,0,.45a1.72,1.72,0,0,0,1.09.23c.22-.11.18-.27,0-.42a2.17,2.17,0,0,0-1.08-.26M607.68,292.18c-2.26-1.16-4.09-1.09-4.09.1s1.68,3,4,4.11,4.05,1,4.05-.22c.06-.87-1.06-2.19-2.61-3.23a12.23,12.23,0,0,0-1.32-.76M463.46,195.24c-2.35-1.34-4.78-1.45-5.57-.27-.95,1.12.25,3.17,2.47,4.39s4.66,1.42,5.55.3-.2-2.92-2.14-4.22l-.31-.2m389.77,260.5c-.15,0-.27,0-.09.14a1.13,1.13,0,0,0,.52.21c.12,0,.18-.07.09-.13l-.06,0a1.37,1.37,0,0,0-.46-.17M738,377.35c-.32-.11-.51,0-.45.09a1.57,1.57,0,0,0,.77.52c.26.11.53.1.41-.12a1.4,1.4,0,0,0-.31-.25,2.42,2.42,0,0,0-.42-.24M947.64,516.83a2,2,0,0,0-1.26-.18c-.17.15-.19.29.22.55a1.79,1.79,0,0,0,1.21.18c.29-.08.23-.29-.08-.49l-.09-.06M493.15,212.08c-2.67-1.53-5.47-1.69-6.35-.36s.56,3.68,3.25,5.18,5.5,1.64,6.28.29-.36-3.25-2.54-4.72c-.21-.13-.42-.27-.64-.39M778,402.65c-.11,0-.14,0-.14,0a1,1,0,0,0,.24.13c.11,0,.12,0,0-.05s0,0,0,0a.41.41,0,0,1-.12-.07m-77-52.37c-.54-.19-1-.22-.78.18a2.33,2.33,0,0,0,1.09.83c.56.24,1,.22.85-.09a1.71,1.71,0,0,0-.63-.61c-.16-.11-.35-.21-.53-.31m134.3,89.89c-.08,0-.11.06-.06.09a.76.76,0,0,0,.3.14c.24.13.31,0,.19-.08a.89.89,0,0,0-.43-.15M637.88,307.58c-1.53-.77-2.73-.75-2.71,0s1.23,1.91,2.74,2.63,2.61.62,2.57-.1-.71-1.37-1.63-2a6.52,6.52,0,0,0-1-.54M522.63,228.85c-2.83-1.6-5.71-1.82-6.44-.43s.93,3.83,3.72,5.37,5.61,1.68,6.27.31-.66-3.35-2.88-4.84c-.22-.14-.44-.28-.67-.41m297,196.22c-.09-.07-.12,0-.15,0a.57.57,0,0,0,.41.17.08.08,0,0,0,.09,0l0-.05a.68.68,0,0,0-.3-.11M551.9,245.34c-2.79-1.54-5.58-1.73-6.26-.4-.49,1.41,1.34,3.8,4.12,5.36s5.58,1.63,6.16.27c.41-1.23-.91-3.19-3.18-4.71-.26-.18-.55-.36-.84-.52m115.75,76.72c-1-.44-1.71-.42-1.71.08s.95,1.23,1.95,1.73,1.7.41,1.71,0-.55-.93-1.24-1.39a5.09,5.09,0,0,0-.71-.42m99.92,65.75,0,.05.11,0v0Zm-36.85-25.17c-.21-.08-.39-.1-.3.06s.2.2.53.38c.18,0,.3.05.26-.08s-.08-.12-.21-.21a1.41,1.41,0,0,0-.28-.15M581,261.85c-2.37-1.29-4.62-1.48-5-.29s1.31,3.16,3.65,4.39,4.56,1.38,5,.27c.27-1-.86-2.57-2.76-3.84-.27-.18-.55-.36-.85-.53M806.72,410.73a.09.09,0,0,0-.09,0l.14.09c.12,0,.14,0,.15,0s-.18-.12-.2-.1M610,278.19c-1.82-1-3.6-1.22-3.74-.33s1,2.28,2.9,3.26,3.49,1.09,3.67.22c.22-.64-.67-1.78-2-2.64a6.83,6.83,0,0,0-.87-.51m87.18,58c-.5-.23-.9-.23-.81,0s.44.53.93.79.89.24.8,0-.2-.35-.5-.55a4.19,4.19,0,0,0-.42-.24M337.21,94a.06.06,0,0,0,0,.08.17.17,0,0,0,.12,0c.06,0,0,0,0-.07a.21.21,0,0,0-.12,0M364,112.1c-.16,0-.16.23.06.3a.69.69,0,0,0,.53.09c.12-.08.09-.23-.09-.36l0,0a.45.45,0,0,0-.46,0m26.56,17.62c-.32.23-.17.7.33,1a1.48,1.48,0,0,0,1.51.15c.38-.21.27-.64-.23-1a1.86,1.86,0,0,0-1.61-.21m29.37,17.87a2.76,2.76,0,0,0-2.54-.35c-.47.41-.24,1.15.63,1.71a2.81,2.81,0,0,0,2.5.32c.5-.37.3-1.09-.52-1.64l-.07,0M638.84,293.94c-1.29-.64-2.44-.79-2.55-.23s.91,1.6,2.18,2.26,2.4.75,2.56.22-.66-1.27-1.6-1.9a4.36,4.36,0,0,0-.59-.35M448,164.82c-1.39-.87-3.22-1.1-4-.49s-.35,1.91,1.14,2.84,3.22,1.1,4,.46.34-1.81-1.07-2.76l-.08-.05M796.3,397.43l-.11,0,.09.06c.11,0,.14,0,.14,0s-.09-.06-.12,0M476.05,182c-1.95-1.24-4.26-1.53-5.18-.64s-.16,2.6,1.75,3.78,4.3,1.47,5.21.6.16-2.44-1.63-3.64l-.15-.1M726.29,349.56c-.29-.16-.46-.1-.4,0a1.26,1.26,0,0,0,.46.31c.18.12.27.09.33,0s-.07-.12-.17-.18a.94.94,0,0,0-.22-.12m-58.76-40.32c-.78-.42-1.42-.45-1.5-.14a2.5,2.5,0,0,0,1.37,1.31c.87.48,1.55.55,1.48.16s-.27-.66-.82-1a5.29,5.29,0,0,0-.53-.31M504,199.1c-2.24-1.39-4.9-1.76-5.83-.77s.13,3,2.38,4.33,4.92,1.72,5.83.75,0-2.73-2-4.06l-.39-.25m27.83,17c-2.37-1.49-5.13-1.89-6-.79s.46,3.15,2.85,4.62,5.1,1.73,5.94.68-.21-2.79-2.43-4.28l-.36-.23m27.69,17c-2.25-1.38-4.72-1.72-5.41-.79s.57,2.89,2.86,4.19,4.65,1.63,5.43.77c.59-.89-.48-2.58-2.41-3.88l-.47-.29M696.1,324c-.49-.26-.86-.28-.84-.13s.32.51.85.8c.35.17.72.21.72,0s-.2-.35-.49-.54l-.24-.15m-109-74.23c-1.87-1.05-3.87-1.41-4.3-.57s.66,2.36,2.54,3.49,3.89,1.38,4.37.58-.56-2.14-2.28-3.29l-.33-.21m27.63,16.68c-1.43-.83-2.75-1-3.12-.47s.56,1.62,2,2.48,2.88,1,3.12.47-.47-1.46-1.59-2.21l-.44-.27m109.42,71.78s0,.11.25.21.26.1.29.06a2.4,2.4,0,0,0-.3-.24c-.2-.1-.24,0-.24,0m-81.81-55.68c-1-.57-2-.72-2.26-.36s.6,1.26,1.65,1.87,2,.7,2.26.36-.42-1.06-1.27-1.63l-.38-.24m27.59,16c-.52-.32-1-.38-1-.13s.23.53.72.79,1,.37,1.11.22-.22-.47-.6-.73l-.26-.15m27.58,15.36c-.3-.14-.51-.21-.57-.12s.25.3.49.43.42.18.47.09-.12-.23-.29-.34a.27.27,0,0,0-.1-.06M436,136.79c-.54.22-.41.81.3,1.32a2.47,2.47,0,0,0,2.2.38c.53-.2.44-.76-.3-1.32a2.4,2.4,0,0,0-2.2-.38m-24.77-17.24c-.26.09-.23.34.09.56a1.28,1.28,0,0,0,1,.23c.28-.12.2-.4-.12-.61l-.06,0a1.14,1.14,0,0,0-.94-.14m49.42,34.13c-.79.49-.51,1.54.77,2.4s3,1.2,3.86.74.48-1.5-.8-2.36l-.14-.09c-1.23-.83-2.9-1.11-3.69-.69M386.48,102c-.1,0-.08.12,0,.17s.18.08.24,0,.05-.07,0-.09-.19-.1-.25-.07M724.79,328.77l-.1,0a1.3,1.3,0,0,0,.16.15c.14.09.16.07.16.07a.69.69,0,0,0-.15-.14.15.15,0,0,0-.07,0M485.7,170.62c-1.06.61-.43,2.12,1.3,3.28s4.07,1.61,5.12,1,.44-2.12-1.19-3.24c-1.87-1.25-4.15-1.69-5.23-1.07m25.58,17c-1,.79-.24,2.52,1.87,3.9s4.68,1.89,5.73,1.11.31-2.44-1.78-3.84-4.67-1.91-5.82-1.17m32,18.29c-2.25-1.48-5-2.1-6.07-1.3s0,2.69,2.25,4.14,5,2,6,1.24.12-2.53-2.1-4l-.1-.06M569.49,223c-2.12-1.36-4.54-1.89-5.46-1.21s.24,2.5,2.38,3.84,4.42,1.77,5.35,1.07-.08-2.24-2.06-3.56l-.21-.14m26.12,17c-1.71-1.08-3.78-1.55-4.4-.91s.32,2,2.17,3.14,3.7,1.49,4.38,1-.36-2-2-3.11l-.12-.08m26.29,16.9c-1.45-.88-2.78-1.17-3.21-.73s.35,1.45,1.65,2.26,2.8,1.15,3.21.73-.3-1.36-1.42-2.12l-.23-.14m26.31,16.48c-1-.56-1.93-.76-2.24-.51s.35,1.06,1.38,1.69,1.91.78,2.16.42-.27-.91-1.16-1.51l-.14-.09m26.35,16.32c-.47-.28-.89-.36-1-.2s.17.44.62.75,1,.43,1.14.27-.15-.41-.61-.71l-.16-.11m26,15.75s.13.29.47.48.47.19.53.09-.11-.23-.47-.47-.49-.17-.53-.1m27,15.68.1.06v0c-.09-.07-.11,0-.11,0m-96.82-71.36c-.78-.52-1.86-.88-2.14-.65-.45.17,0,.85.93,1.46s2,.92,2.27.66-.06-.8-.94-1.39l-.12-.08m25.42,16.71c-.77-.51-1.7-.81-2-.62s.15.76,1,1.34c.68.46,1.6.75,1.87.57s-.11-.74-.82-1.21l-.11-.08m-54.08-34.91c-.76.35-.08,1.5,1.48,2.52s3.33,1.54,4.06,1.14-.1-1.52-1.62-2.61-3.19-1.44-3.92-1.05m78.46,51.23c-.13.08,0,.32.41.57a1.88,1.88,0,0,0,1,.35c.09-.14-.18-.42-.55-.66s-.78-.4-.87-.26M576.34,214.21c-1,.44-.25,1.84,1.6,3.12s4.07,1.8,4.89,1.26.18-1.83-1.63-3.07l-.1-.07c-1.74-1.17-3.82-1.68-4.76-1.24m130.12,85c-.05.07.06.2.26.3s.41.18.44.14,0-.14-.18-.23c-.32-.21-.48-.28-.52-.21M551.21,197c-1.11.48-.41,2,1.5,3.29s4.16,1.87,5.25,1.41.39-2-1.46-3.22l-.11-.07c-1.84-1.24-4.18-1.93-5.18-1.41M526.7,180c-1.08.43-.54,1.79,1.15,3s4,1.75,5.07,1.3.51-1.84-1.17-3l-.18-.12c-1.67-1.12-3.78-1.67-4.87-1.19m-24-17c-1,.36-.58,1.56.71,2.49s3.36,1.49,4.27,1.11.61-1.51-.68-2.43l-.17-.12c-1.37-.92-3.25-1.41-4.13-1m-23.58-16.9c-.84.27-.55,1.11.39,1.78a4,4,0,0,0,3.25.86c.72-.28.58-1.06-.4-1.76l-.18-.12a4.19,4.19,0,0,0-3.06-.76m-22.95-16.67c-.35.13-.32.48.13.8a2,2,0,0,0,1.48.34c.35-.13.33-.48-.12-.81l-.06,0a1.93,1.93,0,0,0-1.43-.29m-23.3-17.21c-.21,0-.18.26,0,.44a1.2,1.2,0,0,0,.89.24c.26-.09.25-.27,0-.47a1.13,1.13,0,0,0-.91-.21M714.27,295s.11.13.16.16.28.16.31.11a.8.8,0,0,0-.17-.14,1.47,1.47,0,0,0-.3-.13m-24.94-16.76c-.17,0,0,.24.31.43a1.32,1.32,0,0,0,.83.33c.17-.05,0-.27-.33-.48s-.73-.4-.81-.28M664.4,261.14c-.26.09,0,.45.56.84a3,3,0,0,0,1.52.59c.15-.13-.1-.54-.65-.9l-.1-.07c-.52-.35-1.13-.57-1.33-.46m-24.82-17.23c-.42.14,0,.73.78,1.31a3.29,3.29,0,0,0,2.14.74c.47-.11.08-.71-.72-1.28a3.71,3.71,0,0,0-2.2-.77M615,226.6c-.67.11-.21,1,.89,1.72a4.94,4.94,0,0,0,3.15,1.12c.5-.26.1-1.05-1-1.81l-.2-.13c-1-.68-2.29-1.13-2.87-.9M590.39,209c-.95.23-.44,1.36,1.07,2.44s3.36,1.69,4.33,1.42.43-1.33-1.09-2.42l-.22-.15c-1.44-1-3.27-1.58-4.09-1.29M566.91,192c-1,.26-.55,1.31.83,2.3s3.38,1.66,4.27,1.41.48-1.3-.92-2.37l-.28-.19a5.88,5.88,0,0,0-3.9-1.15m-23.26-17.19c-1.1.26-.79,1.29.67,2.36a6.49,6.49,0,0,0,4.35,1.37c.87-.3.72-1.27-.69-2.31l-.27-.2a6.17,6.17,0,0,0-4.06-1.22M521.13,158c-.82.24-.67,1,.39,1.78a5.17,5.17,0,0,0,3.48,1.11c.81-.22.67-1-.39-1.78l-.25-.18a5.11,5.11,0,0,0-3.23-.93M723.85,292.66s0,0,.08.08a.41.41,0,0,0,.2.1s0,0-.08-.08a.1.1,0,0,0,0,0,.37.37,0,0,0-.15-.06m-24-17.08c-.14,0,0,.17.29.35a1.14,1.14,0,0,0,.61.28c.15,0,0-.19-.17-.34a1.32,1.32,0,0,0-.73-.29M499.36,141.4c-.52.08-.38.57,0,.92a2.71,2.71,0,0,0,1.85.58c.66,0,.48-.51,0-.94l-.08-.06a3,3,0,0,0-1.78-.5M676,258.28c-.28,0-.09.33.45.72a2.24,2.24,0,0,0,1.24.5c.26,0,.07-.31-.36-.63l-.15-.1a2.49,2.49,0,0,0-1.18-.49M477.44,124.49c-.32.08-.37.34,0,.59a1.76,1.76,0,0,0,1.2.37c.32-.08.36-.32,0-.59l-.07,0a2,2,0,0,0-1.12-.32M652.63,241.1c-.34.11-.22.42.45.9a2.8,2.8,0,0,0,1.56.62c.4,0,.16-.43-.39-.8l-.23-.16a3,3,0,0,0-1.39-.56M455.82,107.61c-.16,0-.11.16,0,.24s.39.21.52.12.12-.08,0-.17a1.07,1.07,0,0,0-.52-.19m173.09,115.8c-.64.17-.45.77.66,1.57a5.39,5.39,0,0,0,3,1.2c.55-.12.28-.8-.72-1.57l-.25-.18a5.06,5.06,0,0,0-2.71-1M606,206.1c-.87.12-.62.92.62,1.84s2.8,1.52,3.56,1.37.58-.87-.63-1.81l-.43-.31A5.33,5.33,0,0,0,606,206.1M712,275c-.14-.09,0,.07.13.19s.47.29.51.24,0-.07-.12-.21-.37-.25-.52-.22M583.46,188.82c-1.05.08-.7,1.05.53,2a7,7,0,0,0,4.09,1.58c.89-.16.68-1-.59-2l-.41-.29a6.81,6.81,0,0,0-3.62-1.28m105.78,68.75c-.2,0-.14.2.25.5s.84.52,1,.47.14-.21-.21-.47l-.09-.06a4,4,0,0,0-1-.44M561.66,171.82c-1,.09-.84,1,.33,1.87a6.52,6.52,0,0,0,3.86,1.44c1-.08.85-.88-.34-1.85-.12-.1-.24-.18-.37-.27a6.48,6.48,0,0,0-3.48-1.19m105.11,68.37c-.23,0-.2.29.33.68a3.17,3.17,0,0,0,1.55.74c.32,0,.21-.31-.32-.7l-.17-.13a3.48,3.48,0,0,0-1.39-.59m-126-84.89c-.7.06-.7.66.11,1.23a4.75,4.75,0,0,0,2.73,1c.67-.11.69-.62-.1-1.22-.11-.09-.22-.18-.34-.26a4.33,4.33,0,0,0-2.4-.79m104,67.52c-.53,0-.32.48.27,1a5.88,5.88,0,0,0,2.13,1c.47,0,.32-.48-.35-.95-.11-.09-.23-.17-.36-.26a3.79,3.79,0,0,0-1.69-.72m81,53.65.09.06,0,0-.1-.06ZM519.94,138.66c-.4.1-.43.44,0,.79a2.93,2.93,0,0,0,1.8.66c.45-.07.52-.38,0-.79l-.18-.13a3.17,3.17,0,0,0-1.63-.53m102.65,66.52c-.9,0-.74.6.42,1.54a6.81,6.81,0,0,0,3.31,1.46c.81,0,.74-.62-.36-1.53-.15-.12-.31-.23-.48-.35a6.06,6.06,0,0,0-2.89-1.12m81.3,53.66c-.29-.06-.2.1,0,.28a3.15,3.15,0,0,0,.9.51c.11-.06.11-.16-.2-.38l-.22-.17a1.37,1.37,0,0,0-.5-.24M499.52,122.07c-.41-.08-.38.17-.1.43a2,2,0,0,0,1.17.42c.43.06.45-.17.11-.45l-.11-.08c-.35-.24-.83-.43-1.07-.32m-20.06-16.55,0,.07c.12.11.22.15.31.11s0,0,0-.08,0,0,0,0a1.09,1.09,0,0,0-.23-.06M601.27,188c-.91,0-.87.71.33,1.68a7.37,7.37,0,0,0,3.78,1.64c.93,0,.87-.7-.32-1.7l-.45-.33a7.54,7.54,0,0,0-3.34-1.29m81.11,53.37c-.34-.09-.23.24.21.57a4,4,0,0,0,1.4.77c.27,0,.27-.21-.25-.63a3.65,3.65,0,0,0-.37-.29,2.19,2.19,0,0,0-1-.42m58,38.25,0,0c.13.12.13.12.23.15l-.07-.07a.84.84,0,0,0-.2-.11M580.73,171.05c-1,0-.94.72.13,1.57a6.84,6.84,0,0,0,3.59,1.54c1,0,.95-.64,0-1.48-.14-.11-.3-.23-.47-.34a7.75,7.75,0,0,0-3.25-1.29m80.59,52.85c-.53-.1-.41.32.23.84a5.26,5.26,0,0,0,1.92,1c.49,0,.46-.29-.22-.85l-.33-.24a4.07,4.07,0,0,0-1.6-.72M719.61,262c-.08,0-.05.07.16.25a1.25,1.25,0,0,0,.43.25c.16,0,.2,0,0-.17a2.86,2.86,0,0,0-.57-.33M561.4,155c-.69-.14-.64.26-.14.7a3.88,3.88,0,0,0,2,.85c.49,0,.56-.33-.08-.85l-.2-.15a3,3,0,0,0-1.58-.55m195.06,129.7h0m0,0c0,.05.09.07.09.07l-.06-.06h0m-116-78.33c-.72,0-.67.51.17,1.21a7.64,7.64,0,0,0,3,1.48c.76.06.65-.47-.13-1.17-.18-.14-.37-.29-.58-.43a6.83,6.83,0,0,0-2.43-1.09m58.74,38.1c-.37-.15-.22.12.05.4a3.14,3.14,0,0,0,1.18.62c.28.06.21-.12-.08-.38-.09-.08-.19-.15-.3-.23a2.81,2.81,0,0,0-.85-.41M541.68,138.33c-.5,0-.44.26-.12.57a3,3,0,0,0,1.55.65c.39,0,.42-.24,0-.62a.58.58,0,0,0-.15-.11,3.19,3.19,0,0,0-1.29-.49M736.47,267c-.11,0-.14,0,0,.15a1,1,0,0,0,.56.34c.11,0,0-.07-.12-.21s-.05,0-.09-.07a3.17,3.17,0,0,0-.38-.21m-116-77.54c-.86-.09-.91.38,0,1.16a7.93,7.93,0,0,0,3.18,1.54c.76,0,.78-.46-.14-1.25-.15-.12-.32-.25-.5-.37a6.66,6.66,0,0,0-2.56-1.08M679.12,227c-.54-.09-.55.13-.07.59a5,5,0,0,0,1.89,1c.39.1.38-.17-.09-.65-.13-.11-.28-.21-.43-.32a4.58,4.58,0,0,0-1.3-.65M522.58,122c-.23,0-.21.12,0,.3.06.11.43.25.55.17s.32-.09.15-.23l0,0a1.63,1.63,0,0,0-.66-.2M601,172.65c-.9-.14-.9.35-.11,1a7.3,7.3,0,0,0,3.05,1.45c.83.13.74-.42.07-1.08a5.92,5.92,0,0,0-.48-.35,6.8,6.8,0,0,0-2.53-1.07m116,76.77c-.32-.11-.31.06,0,.27a3.05,3.05,0,0,0,.93.59c.3.13.28,0,0-.25a4,4,0,0,0-.43-.32,5.55,5.55,0,0,0-.48-.29m37.41,24.43c-.12,0,0,.07.05.13a.48.48,0,0,0,.22.15c.14.09.19,0,0-.07a.61.61,0,0,0-.15-.12.56.56,0,0,0-.17-.09M503.77,105.68v0a.43.43,0,0,0,.15.07v0a.85.85,0,0,0-.15-.07m155.72,104c-.75-.17-.68.23,0,.76a5.66,5.66,0,0,0,2.29,1.3c.69.17.67-.21.07-.78a5.38,5.38,0,0,0-.61-.46,5.84,5.84,0,0,0-1.7-.82m-76.87-53.19c-.54-.07-.58.17-.18.57a4.13,4.13,0,0,0,1.71.79c.54.09.58-.18.08-.62a1.46,1.46,0,0,0-.24-.17,3.49,3.49,0,0,0-1.37-.57M773.25,282.58l.14.09v0l-.13-.09ZM697.93,232.1c-.32-.11-.32.09,0,.35a5.44,5.44,0,0,0,1.25.78c.39.12.42,0,.1-.34a5.48,5.48,0,0,0-.46-.34,3.78,3.78,0,0,0-.86-.45M640.6,192.88c-.65-.11-.71.18,0,.76a6,6,0,0,0,2.24,1.18c.6.1.66-.19.08-.71a6.77,6.77,0,0,0-.58-.44,5.21,5.21,0,0,0-1.7-.79m95.12,63.38c-.2-.1-.24,0,0,.23a2,2,0,0,0,.68.45c.21.08.15,0,0-.19a2.29,2.29,0,0,0-.36-.29,1.9,1.9,0,0,0-.37-.2M564.14,140.16c-.2,0-.3.16,0,.36a2.12,2.12,0,0,0,1,.51c.3,0,.4-.1.1-.36l-.12-.09a3.11,3.11,0,0,0-1-.42m115.21,74.77c-.51-.14-.52.08,0,.52a5.72,5.72,0,0,0,1.69,1c.45.11.42-.15.08-.51a6.11,6.11,0,0,0-.55-.42,5.52,5.52,0,0,0-1.2-.62m-57-38.57c-.56-.14-.62.15-.15.62a4.71,4.71,0,0,0,1.87,1c.57.12.64-.17.13-.6a4,4,0,0,0-.44-.35,4.35,4.35,0,0,0-1.41-.63m133,88.56c-.11,0-.12,0-.06.1a3,3,0,0,0,.51.41c.19,0,.2,0,.08-.12a1.59,1.59,0,0,0-.32-.26,1.35,1.35,0,0,0-.21-.13m-37.9-26.07c-.29-.06-.26.1-.06.29a2.79,2.79,0,0,0,1.18.8c.32.11.39,0,.07-.29a3.3,3.3,0,0,0-.55-.44,4.13,4.13,0,0,0-.64-.36m-171.41-115c-.16,0-.19.1,0,.27a2,2,0,0,0,.69.33c.25,0,.22-.12,0-.27a.45.45,0,0,0-.13-.1,1.75,1.75,0,0,0-.57-.23M775.82,275.4s-.06,0,0,0a2.4,2.4,0,0,0,.3.24c.11,0,.11,0,0-.05a1.52,1.52,0,0,0-.18-.18.32.32,0,0,0-.13-.05M604.52,160c-.43-.05-.53.1-.18.47a3.46,3.46,0,0,0,1.49.73c.39.11.5,0,.14-.4a2.54,2.54,0,0,0-.34-.28,4.25,4.25,0,0,0-1.11-.52m56.75,38c-.71-.21-.73.1-.23.53a5.9,5.9,0,0,0,2.17,1.3c.65.21.71-.08.1-.63a4,4,0,0,0-.65-.53,5.51,5.51,0,0,0-1.39-.67m-132.7-90.1,0,0s.13.09.15.07.1,0,0,0ZM797.27,287.8h0m-.22-.15.22.15-.21-.18Zm-59-40.07c-.26-.1-.32,0,0,.25a4,4,0,0,0,.8.57c.21.08.28,0,.12-.19s-.37-.29-.55-.42l-.34-.21m-38.22-25.79c-.42-.15-.44.08-.11.38a6.06,6.06,0,0,0,1.42.92c.59.21.56.06.23-.34a7.1,7.1,0,0,0-.6-.46,5,5,0,0,0-.94-.5M587.34,144c-.29-.06-.36,0-.15.23a1.71,1.71,0,0,0,.74.36c.29.06.35,0,.14-.2l-.1-.07a3.4,3.4,0,0,0-.63-.32m56.58,37.58c-.47-.09-.6.09-.2.49a4.62,4.62,0,0,0,1.73,1c.53.19.67,0,.26-.38a3.92,3.92,0,0,0-.54-.43,5.71,5.71,0,0,0-1.25-.64m115.21,76.62a3,3,0,0,0,.58.42c.24.13.29.06.07-.11a6.09,6.09,0,0,0-.57-.42c-.19-.12-.21-.08-.08.11M682.66,205c-.54-.17-.65,0-.17.45a5.59,5.59,0,0,0,1.72,1.08c.63.23.74.07.27-.41a4.79,4.79,0,0,0-.58-.44,7.61,7.61,0,0,0-1.24-.68m38.44,25.55c-.35-.17-.43-.06-.15.22a4.54,4.54,0,0,0,1.26.88c.44.23.53.09.16-.25a4.65,4.65,0,0,0-.6-.48,4.1,4.1,0,0,0-.67-.37M781,270.3c.17.14.31.24.43.35s.21.08.14,0a3.1,3.1,0,0,0-.43-.35c-.24-.13-.26-.1-.14,0M570.48,128.07c-.11,0-.13,0-.05.06a.43.43,0,0,0,.15.07c.12,0,.14,0,.06-.09l-.16,0M803.66,284.29a.92.92,0,0,0,.21.17s.13.09,0,0l-.22-.17ZM627.28,165.5c-.35-.07-.28.13-.18.27a3.42,3.42,0,0,0,1,.6c.33.1.41,0,.17-.25l-.26-.2a4.65,4.65,0,0,0-.78-.42m116,75.63c-.29-.16-.34-.1-.14.1a2,2,0,0,0,.76.55c.24.13.29.06.08-.12a4.1,4.1,0,0,0-.52-.42l-.18-.11m-76.8-52.32c-.38-.12-.45,0-.18.27a3.2,3.2,0,0,0,1.11.71c.44.14.5,0,.17-.24a2,2,0,0,0-.47-.42,3.12,3.12,0,0,0-.63-.32m38.45,25.05c-.5-.23-.58-.12-.27.22a6.43,6.43,0,0,0,1.45,1q.57.18.18-.27a3.5,3.5,0,0,0-.63-.53,4.41,4.41,0,0,0-.73-.39M611,149.6c-.22-.06-.26,0-.09.13a1.82,1.82,0,0,0,.56.35c.08,0,.14-.11.11-.16a1.25,1.25,0,0,0-.19-.15,1.05,1.05,0,0,0-.39-.17M765.61,253.33a2.28,2.28,0,0,0,.63.53c.18.12.28.08.17-.05a3.54,3.54,0,0,0-.61-.48c-.27-.18-.3-.14-.19,0m71.3,47.12.3.23c.09.07.11,0,.11,0a.75.75,0,0,0-.29-.26l0,0s-.05,0-.07,0m-48-33.19c-.13-.09-.15-.07-.11,0a2,2,0,0,0,.42.35c.23.15.24.13.12,0a1.11,1.11,0,0,0-.29-.28l-.14-.07M812.71,283a1.64,1.64,0,0,0,.18.22s.12,0,0-.05-.12-.11-.11-.13-.2-.1-.1,0M650.55,172.84c-.27-.11-.31,0-.21.1a1.88,1.88,0,0,0,.76.44c.29.16.34.09.25-.06a2.13,2.13,0,0,0-.32-.26,1.34,1.34,0,0,0-.48-.22m77.12,51.62c-.32-.12-.37-.05-.1.16a3.46,3.46,0,0,0,.78.6c.31.13.34.09.19-.08a3.52,3.52,0,0,0-.61-.53,1.35,1.35,0,0,0-.26-.15m-38.38-26.82c-.46-.21-.61-.18-.24.17a3,3,0,0,0,1.14.76c.44.23.5.14.24-.17a3.78,3.78,0,0,0-.55-.44,3.21,3.21,0,0,0-.59-.32M595.07,133.9c-.09-.06-.1,0,0,0l.11,0Zm155.8,102.72c-.26-.11-.3,0-.21.12a7,7,0,0,0,.94.66c.23.16.26.11.12-.08a4.86,4.86,0,0,0-.71-.62l-.14-.08m73,47.16a2.35,2.35,0,0,0,.29.26s0,0,.06,0l-.24-.22c-.09-.07-.09-.07-.11,0m-49.24-33.06a3.94,3.94,0,0,0,.51.42c.2.09.21.07.16-.06a5.66,5.66,0,0,0-.53-.39c-.13-.09-.24-.13-.14,0M635.07,157c-.15-.07-.19,0-.06.08a2.19,2.19,0,0,0,.37.25c.14,0,.15,0,.06-.09l-.24-.18-.13-.06m164,109.43.21.17c.09.07.11,0,.11,0a2.55,2.55,0,0,0-.31-.24c-.08-.06-.08-.06,0,0m-86.22-58c-.19-.11-.21-.08-.17,0a2.39,2.39,0,0,0,.55.37c.21.07.24,0,.15,0a1.61,1.61,0,0,0-.28-.24,1.23,1.23,0,0,0-.25-.14m-38.61-26.59c-.1,0-.15,0-.07.11a1.18,1.18,0,0,0,.36.25c.27.08.29.06.17-.05a.63.63,0,0,0-.17-.14l-.29-.17m62.53,38.86c-.1-.07-.13,0,0,0l.28.18c.09.07.18.13.1,0a1.29,1.29,0,0,0-.24-.21l-.1-.05m24.45,14,.08.09c.09.06,0,0,0,0l-.09-.07h0m-62.68-42c-.09-.07-.11-.05-.11-.05a.51.51,0,0,0,.23.16v0a.17.17,0,0,0-.06-.06.13.13,0,0,0-.07,0m-38.87-26.39c-.11,0,0,0,0,0l.13.09,0,0Zm63.38,38.66.12.11c.09.06.11,0,0,0Z"/></clipPath><linearGradient id="linear-gradient" x1="-1703.15" y1="2391.58" x2="-1702.15" y2="2391.58" gradientTransform="matrix(0, 1097.87, 1097.87, 0, -2625024.38, 1869846.27)" gradientUnits="userSpaceOnUse"><stop offset="0" stop-color="#ff9915"/><stop offset="1" stop-color="#ffe22a"/></linearGradient></defs><title>diot-whoosh</title><g id="Isolation_Mode" data-name="Isolation Mode"><g class="cls-2"><rect class="cls-3" x="240.84" y="15.37" width="728.53" height="1098.01" transform="translate(-146.9 796.56) rotate(-56.16)"/></g></g></svg>