<svg xmlns="http://www.w3.org/2000/svg" xmlns:xlink="http://www.w3.org/1999/xlink" viewBox="0 0 1155.84 615.94"><defs><style>.cls-1{fill:none;}.cls-2{clip-path:url(#clip-path);}.cls-3{fill:url(#linear-gradient);}</style><clipPath id="clip-path" transform="translate(-24.28 -30.39)"><path class="cls-1" d="M749.49,645.61a3.88,3.88,0,0,0,2.24.7c.91,0,1.45-.28,1.21-.64a4,4,0,0,0-2.24-.67h-.15c-.87,0-1.35.27-1.06.61m41.16-.15a2.87,2.87,0,0,0,2.24.78c.9-.06,1.45-.42,1.2-.9a2.81,2.81,0,0,0-2.23-.82c-1,0-1.51.45-1.21.94m-82-2.33a4.36,4.36,0,0,0,1.33.37c.61,0,.92-.07.73-.19a2.68,2.68,0,0,0-1.39-.33l-.3,0c-.32,0-.51.08-.37.17m123.84-1.9c-1.14.15-1.75.76-1.39,1.48a2.79,2.79,0,0,0,2.6,1.09c1.15-.16,1.76-.79,1.46-1.52a2.82,2.82,0,0,0-2.32-1.07l-.35,0M667,638l1.15.24c.54.06.85.1.67,0a9.47,9.47,0,0,0-1.21-.24,6.17,6.17,0,0,0-.62-.06c-.05,0-.06,0,0,0m205.92-2.54c-1.15.21-1.81,1.09-1.45,2a2.54,2.54,0,0,0,2.78,1.24c1.15-.19,1.81-1,1.45-2a2.51,2.51,0,0,0-2.3-1.28,2.59,2.59,0,0,0-.48,0m-247.8-5.31c-.12,0,.12,0,.49.18s.78.15.84.12-.06-.12-.49-.15a1.65,1.65,0,0,0-.71-.17.31.31,0,0,0-.13,0m30.58-2c.06.21.6.33,1.15.37s.85-.16.67-.34a2.22,2.22,0,0,0-1.16-.33h-.1c-.47,0-.67.17-.56.31m42.19-.66c-.55,0-.91.24-.73.54s.73.45,1.33.45.91-.27.73-.54a1.43,1.43,0,0,0-1.2-.46h-.13m214.92-.88a2.4,2.4,0,0,0-1.94,3.11,3.31,3.31,0,0,0,3.75,1.78,2.33,2.33,0,0,0,1.82-3.08,3.2,3.2,0,0,0-2.9-1.91,2.62,2.62,0,0,0-.73.1M614,625.66a1.8,1.8,0,0,0,.9.25c.37,0,.61,0,.55-.1a2.27,2.27,0,0,0-.91-.24q-.63,0-.54.09m124.92-1.54c-1,.09-1.51.64-1.2,1.21a2.07,2.07,0,0,0,2.17.88c.91-.06,1.46-.61,1.21-1.18a2,2,0,0,0-1.84-.93l-.34,0m40.86-5.53c-.91.19-1.45.85-1.21,1.57a2,2,0,0,0,2.18,1c1-.15,1.51-.84,1.21-1.51a2,2,0,0,0-1.87-1l-.31,0m172.8-2.3a2.27,2.27,0,0,0-1.45,3,2.52,2.52,0,0,0,3,1.66,2.45,2.45,0,0,0,1.57-3,2.63,2.63,0,0,0-2.46-1.76,2.71,2.71,0,0,0-.68.09m-423.08-3.44c-.06,0,.07.06.37.12l.6.09c.06,0-.18-.06-.36-.12s-.46-.09-.56-.09h0m290.65-2.51a1.72,1.72,0,0,0-1.39,2.21,2.27,2.27,0,0,0,2.6,1.27,1.76,1.76,0,0,0,1.46-2.15,2.3,2.3,0,0,0-2.13-1.4,2.5,2.5,0,0,0-.54.07m-260.37.34c.31.48,1.76.9,3.15,1s2.35-.3,2-.85a4.74,4.74,0,0,0-3.2-1c-1.39,0-2.24.36-1.94.88m43.94-1.31c-1.32.1-2.17.67-1.81,1.31s1.69,1.14,3,1.08,2.17-.57,1.81-1.23-1.55-1.16-2.82-1.16h-.21m-85.88-1.23a6.25,6.25,0,0,0,2.72.72c1.21.13,2.05,0,1.75-.33a5.67,5.67,0,0,0-2.78-.73l-.7,0c-.77,0-1.18.15-1,.37m22.36-1.94c-.06.06.12.22.36.3s.55.13.61,0-.06-.18-.37-.3a1.72,1.72,0,0,0-.44-.06.28.28,0,0,0-.16,0m104.74-.79c-2.24.34-3.57,1.54-3,2.88s2.84,2.24,5.08,2,3.5-1.42,3-2.78-2.42-2.14-4.45-2.14l-.57,0M475.34,603c.24.06,1.39.33,2.54.55s2,.14,1.69,0a16.14,16.14,0,0,0-2.53-.54c-.74-.09-1.31-.16-1.59-.16s-.23,0-.11.1m516.51-.18a3,3,0,0,0-1.69,3.89,2.79,2.79,0,0,0,3.5,2,3.05,3.05,0,0,0,1.7-3.84,3,3,0,0,0-2.72-2.21,2.42,2.42,0,0,0-.79.13m-505-.36a1.16,1.16,0,0,0,.25.08c.12.09.24.09.24,0s0-.05-.12-.08a.56.56,0,0,0-.23,0h-.14m373.34-2.66a2.07,2.07,0,0,0-1.39,2.69A2.27,2.27,0,0,0,861.6,604a2.08,2.08,0,0,0,1.4-2.67,2.24,2.24,0,0,0-2.15-1.57,2,2,0,0,0-.63.1M686,599.46c-2.41.46-3.93,2.21-3.26,4s3.14,2.9,5.62,2.51,3.87-2.06,3.26-3.9c-.58-1.57-2.57-2.64-4.66-2.64a6.2,6.2,0,0,0-1,.07m-252.87-4c-.18,0,.36.15,1.08.31s1.63.27,1.76.27-.37-.12-1.15-.3a7.21,7.21,0,0,0-1.62-.28h-.07m30.22-2.2c.6,1,3.26,1.72,6.16,1.87,2.72.09,4.53-.57,4-1.6s-3.33-1.93-6.11-2h-.16c-2.74,0-4.42.75-3.88,1.7m46.29-2.42c-2.84.12-4.65,1.3-4.05,2.63s3.44,2.24,6.28,2.2,4.6-1.14,4-2.53-3-2.31-5.69-2.31h-.54m217.1.09c-2.78.6-4.35,3-3.63,5.32s3.56,3.66,6.35,3.08,4.35-2.87,3.62-5.23a5.23,5.23,0,0,0-5-3.32,5.76,5.76,0,0,0-1.3.15m-229.25-.6s.06.11.24.14.24.1.24,0-.05-.11-.11-.14a.35.35,0,0,0-.21-.07.18.18,0,0,0-.16.07m-76.15.3c.49.51,2.84,1.12,5.26,1.36s4-.06,3.56-.64-2.84-1.23-5.31-1.42c-.42,0-.81,0-1.17,0-1.73,0-2.74.29-2.34.74m22.72-1.06h.19a.06.06,0,0,0-.06-.06,1.25,1.25,0,0,0-.25,0,.36.36,0,0,1,.12.09m586.81-1.63a3.13,3.13,0,0,0-1.4,3.78c.49,1.54,1.82,2.38,3,1.87a3,3,0,0,0,1.51-3.78,2.58,2.58,0,0,0-2.33-2,2.14,2.14,0,0,0-.81.17m-479.47-.87c-3.32.39-5.44,2.23-4.65,4.19s4.05,3.21,7.38,3,5.37-2.06,4.65-4.08c-.66-1.82-3.42-3.13-6.38-3.13a8.37,8.37,0,0,0-1,0m348.44-.7a3.23,3.23,0,0,0-1.94,4,2.87,2.87,0,0,0,3.69,2,3.23,3.23,0,0,0,1.81-4,2.94,2.94,0,0,0-2.72-2.24,2.24,2.24,0,0,0-.84.16m-520.56-.82a28.76,28.76,0,0,0,4.16.88c1.94.27,3.14.36,2.84.12a24,24,0,0,0-4.16-.91,21.7,21.7,0,0,0-2.45-.21c-.37,0-.52,0-.39.12m10.81-.39c-.18.12.31.36,1,.54a4.27,4.27,0,0,0,1.57.18c.12-.08-.3-.33-1-.54a5.2,5.2,0,0,0-1.32-.22.51.51,0,0,0-.26,0m202.65-4.44c-3.74.63-6.1,3.35-5.25,6s4.71,4.26,8.52,3.78,6.16-3.12,5.32-5.83c-.84-2.43-3.8-4.09-7-4.09a9.09,9.09,0,0,0-1.55.13m174.49-.25a5,5,0,0,0-3.5,6.14,5.11,5.11,0,0,0,6.28,3.32,4.77,4.77,0,0,0,3.51-6,5,5,0,0,0-4.85-3.61,5.48,5.48,0,0,0-1.44.19M336.63,578c-.36,0,.79.27,2.42.6s3.26.61,3.57.61-.79-.31-2.48-.64a24.94,24.94,0,0,0-3.4-.58h-.11m33.55-2c.48.81,2.9,1.59,5.5,1.68s4.23-.54,3.8-1.44-3-1.73-5.43-1.82h-.17c-2.5,0-4.11.71-3.7,1.58m46.29-2.52c-3,.1-4.89,1.37-4.35,2.73s3.45,2.35,6.47,2.29,5-1.18,4.35-2.6-3-2.44-5.83-2.44l-.64,0m-88.78-.11c.36.48,2.54,1,4.9,1.26s3.86,0,3.5-.57-2.66-1.18-5-1.36c-.43,0-.83-.05-1.2-.05-1.61,0-2.59.3-2.24.72m306.37-.85c-3.87.85-6.23,4.11-5.33,7.22s4.84,5,8.71,4.2,6.16-3.86,5.19-7.07a6.85,6.85,0,0,0-6.73-4.57,7.71,7.71,0,0,0-1.84.22M347,572.33c-.13.18.24.48.85.63s1.2.24,1.33.06-.31-.42-.91-.64a3.49,3.49,0,0,0-.9-.15c-.19,0-.32,0-.37.1m592.42-.49a3.13,3.13,0,0,0-1.57,3.72c.48,1.54,1.81,2.36,3,1.84a3,3,0,0,0,1.57-3.69,2.45,2.45,0,0,0-2.25-2,1.9,1.9,0,0,0-.77.16m130.31-1.15a3.19,3.19,0,0,0-1.27,3.72c.42,1.54,1.63,2.36,2.78,1.82a3.29,3.29,0,0,0,1.27-3.72,2.4,2.4,0,0,0-2.08-2,1.59,1.59,0,0,0-.7.16m-611-.81c-3.45.33-5.68,2.26-5,4.2s4.06,3.23,7.5,3,5.62-2,4.89-4.08c-.59-1.85-3.35-3.16-6.36-3.16a8.65,8.65,0,0,0-1,0m-173-1.48a13.77,13.77,0,0,0,3.38.69c1.57.27,2.66.34,2.35.12a13.48,13.48,0,0,0-3.38-.75,12.14,12.14,0,0,0-1.88-.18c-.4,0-.59.05-.47.12M294,568c-.25.15.53.51,1.75.81a5.6,5.6,0,0,0,2.54.3c.23-.15-.49-.55-1.76-.84a10.56,10.56,0,0,0-2.14-.35c-.2,0-.34,0-.39.08M807,566.13a7.38,7.38,0,0,0-4.47,9,6.48,6.48,0,0,0,8.16,4.62,7.18,7.18,0,0,0,4.41-8.86,6.5,6.5,0,0,0-6.12-5.08,6,6,0,0,0-2,.34M500.6,564.29c-3.44.54-5.68,3-5,5.31s4.05,3.84,7.55,3.36,5.62-2.75,5-5.17c-.63-2.13-3.23-3.62-6.14-3.62a8.6,8.6,0,0,0-1.42.12m-255.95-2.87c1.33.27,2.47.48,2.66.48a6.81,6.81,0,0,0-1.88-.48,22.39,22.39,0,0,0-2.72-.42,7.74,7.74,0,0,0,1.94.42m430-.24a8,8,0,0,0-5.86,9.48c1.09,3.93,5.5,6.23,9.85,5.14a7.49,7.49,0,0,0,5.74-9.28,7.86,7.86,0,0,0-9.73-5.34m-394.55-2.33a2.42,2.42,0,0,0,1.7.51c.84,0,1.38-.18,1.2-.45s-.84-.54-1.69-.54h-.15c-.69,0-1.12.21-1.06.49m42.13.09c.18.57,1.45,1,2.78,1s2.18-.55,1.94-1.12-1.46-1.06-2.73-1.06-2.23.58-2,1.18M303.76,557c-.13.12.12.38.54.54s.84.15.91,0-.13-.42-.55-.54a1.57,1.57,0,0,0-.59-.14c-.16,0-.29.05-.31.14m-66.55-.67a2.43,2.43,0,0,0,1.21.36c.61,0,1,0,1-.15a2.55,2.55,0,0,0-1.27-.36l-.37,0c-.35,0-.58.09-.54.18m14.15-.81c-.13.17.3.45.9.66a1.84,1.84,0,0,0,1.27.06c.06-.18-.36-.45-.91-.61a3.15,3.15,0,0,0-1-.19c-.16,0-.26,0-.28.08m290.59,0c-4,.9-6.53,4.16-5.69,7.4s4.9,5,8.89,4.26,6.46-3.93,5.62-7.2c-.77-2.79-3.67-4.67-6.95-4.67a8.58,8.58,0,0,0-1.87.21m-175.1-.43c-1.27.09-2.17.82-1.93,1.51s1.45,1.24,2.78,1.15,2.17-.75,1.93-1.51-1.26-1.16-2.46-1.16h-.32m611.47-.9c-1.46.66-2.18,2.78-1.7,4.65s2,2.9,3.51,2.23,2.17-2.71,1.69-4.62c-.44-1.52-1.45-2.45-2.61-2.45a2.23,2.23,0,0,0-.89.19m130.18-1.43c-.48.19-.72,1-.54,1.7s.66,1,1.15.82a1.49,1.49,0,0,0,.53-1.76.91.91,0,0,0-.81-.85.68.68,0,0,0-.33.09m-914.44-1.27a2.78,2.78,0,0,0,.72.16,1.22,1.22,0,0,0,.55,0,5.65,5.65,0,0,0-.73-.18l-.43,0c-.07,0-.11,0-.11,0m652.86-.08c-3.33,1.32-5.2,5.56-4.17,9.39s4.47,5.89,7.73,4.69,5.15-5.38,4.12-9.31c-.83-3.16-3.18-5.18-5.72-5.18a4.93,4.93,0,0,0-2,.41M199,551c-.13.15.66.48,1.93.79a5.35,5.35,0,0,0,2.48.3c.18-.12-.61-.48-1.82-.82a10.31,10.31,0,0,0-2.17-.33,1,1,0,0,0-.42.06m210.08-1.15c-1.51.25-2.54,1.27-2.3,2.3s1.75,1.72,3.33,1.54,2.6-1.24,2.29-2.29a2.76,2.76,0,0,0-2.73-1.59,3.9,3.9,0,0,0-.59,0m305.76-2.38a10.14,10.14,0,0,0-6.28,11.93,8.64,8.64,0,0,0,10.93,6.17,9.81,9.81,0,0,0,6.35-11.73c-1.13-4.16-4.47-6.83-8.27-6.83a8.28,8.28,0,0,0-2.73.46m-563.65-3a1.22,1.22,0,0,0-.29-.06l.29.06m-.36-.07h.05l-.42-.06.37.06m432.07,0c-4.53,1.24-7.37,5.62-6.29,9.7s5.57,6.38,10.1,5.32,7.37-5.32,6.29-9.51a7.82,7.82,0,0,0-7.71-5.84,9.11,9.11,0,0,0-2.39.33m-132.06-2.38c-1.87.39-3.14,1.93-2.71,3.44s2.17,2.42,4.11,2.06,3.19-1.91,2.84-3.42a3.32,3.32,0,0,0-3.37-2.16,4.4,4.4,0,0,0-.87.08m-243.93-1.82c-.12.34.48.85,1.39,1.18s1.69.33,1.82,0-.43-.84-1.27-1.18a3.69,3.69,0,0,0-1.2-.24,1,1,0,0,0-.74.24m67.94-.75s.05.09.11.09l.07-.09a.24.24,0,0,0-.13-.07c-.05,0-.12,0-.05.07m-14.51-.28c0,.13.12.25.36.37s.43.06.43-.06-.13-.27-.31-.34a.64.64,0,0,0-.24,0,.31.31,0,0,0-.24.08m-104.92-.54c-.12.24.54.7,1.57,1s1.93.36,2.06.12-.55-.67-1.52-1a5.87,5.87,0,0,0-1.53-.25c-.3,0-.5,0-.58.13m861.74-3.17c-1.21.63-1.88,2.59-1.45,4.41s1.81,2.63,3.08,2,1.87-2.57,1.39-4.38c-.28-1.4-1.19-2.27-2.18-2.27a1.74,1.74,0,0,0-.84.21M317.47,535s.06,0,.13,0,.11-.08.11-.08,0-.07-.11-.07a.14.14,0,0,0-.13.1m-210.81-.28a.58.58,0,0,1,.18,0H107a.26.26,0,0,1-.13,0h-.18m1040.1-2a.16.16,0,0,0,.12.15c.06,0,.18-.15.06-.24s-.06-.12-.13-.12,0,.15,0,.21m-654.38-.52a3.87,3.87,0,0,0-2.95,4.35,3.91,3.91,0,0,0,7.54-1.9,3.39,3.39,0,0,0-3.49-2.59,4.67,4.67,0,0,0-1.1.14m393.52.43c-4,1.81-6.16,7.46-4.95,12.6s5.5,7.71,9.49,6,6.16-7.28,4.95-12.45c-1-4.14-3.86-6.74-6.95-6.75a5.92,5.92,0,0,0-2.54.59M755,532.4c-4.77,1.94-7.62,7.92-6.29,13.42s6.29,8.31,11.13,6.62,7.56-7.62,6.22-13.2c-1.06-4.52-4.44-7.4-8.19-7.4a7.75,7.75,0,0,0-2.87.56m-131.33-.78A9.88,9.88,0,0,0,617.25,543,8.33,8.33,0,0,0,627.83,549a9.45,9.45,0,0,0,6.34-11.2,8.13,8.13,0,0,0-7.88-6.56,8.44,8.44,0,0,0-2.63.42M359.6,528.21a.35.35,0,0,0,.3.14c.12,0,.24-.14.18-.24s-.11-.14-.24-.14-.24.14-.24.24m-247.86-4.3c-.06.31.43.76,1.15,1s1.45.28,1.57,0-.43-.66-1.15-.94a3,3,0,0,0-1-.2.7.7,0,0,0-.56.17m51.61-1.17c-.11.33.37.84,1,1.12s1.27.24,1.39-.07-.3-.84-1-1.12a2,2,0,0,0-.84-.22.54.54,0,0,0-.56.29M533.55,520a4.83,4.83,0,0,0-3.33,5.53,4,4,0,0,0,5.2,2.9,4.65,4.65,0,0,0,3.2-5.44,3.86,3.86,0,0,0-3.81-3.19,4,4,0,0,0-1.26.2m-131.82-1.18a.52.52,0,0,0-.43.51.5.5,0,0,0,.55.27.43.43,0,0,0,.42-.51.38.38,0,0,0-.4-.29.36.36,0,0,0-.14,0m-185.19,0c-.06.1.12.31.31.4s.42.06.48-.06-.19-.3-.37-.39a.43.43,0,0,0-.23-.08c-.11,0-.19.05-.19.13M663.91,516c-5.07,2-8.22,8.28-6.95,14s6.53,8.7,11.67,6.92,8.28-7.88,6.89-13.75c-1-4.77-4.56-7.77-8.56-7.77a8.36,8.36,0,0,0-3.05.58m391.77-1.36c-1.09.63-1.7,2.54-1.27,4.26s1.63,2.54,2.78,1.93,1.69-2.54,1.27-4.23c-.29-1.34-1.12-2.17-2-2.17a1.56,1.56,0,0,0-.76.21m-130.49-.33c-3.57,1.81-5.56,7.37-4.35,12.35s5,7.47,8.58,5.74,5.5-7.24,4.35-12.23c-.9-4-3.46-6.46-6.24-6.47a5,5,0,0,0-2.34.61m-130.92-.88c-5.55,2.54-8.76,10.3-7.19,17.28s7.5,10.49,13.12,8.22,8.76-9.87,7.13-17c-1.29-5.73-5.18-9.31-9.53-9.31a8.66,8.66,0,0,0-3.53.79m-351.08-6.1a.93.93,0,0,0-.61,1,.7.7,0,0,0,.91.55,1,1,0,0,0,.73-1,.81.81,0,0,0-1-.54M68.29,507c-.07.12.11.37.48.54s.66.13.72,0-.18-.42-.54-.54a.86.86,0,0,0-.41-.12c-.15,0-.25.05-.25.15m505.93-1.18a6,6,0,0,0-3.45,6.59,4.28,4.28,0,0,0,5.62,3.35,5.71,5.71,0,0,0,3.45-6.52,4.33,4.33,0,0,0-4.12-3.69,4.49,4.49,0,0,0-1.5.27M119.6,502.85c-.06.27.24.69.66.91s1,.18,1-.09-.18-.69-.67-.94a1.31,1.31,0,0,0-.57-.15c-.24,0-.42.1-.45.27m584.14-4.62c-5.5,2.5-8.82,10-7.37,16.77s7.19,10.24,12.81,8,8.89-9.58,7.37-16.53c-1.24-5.57-5-9-9.34-9a8.67,8.67,0,0,0-3.47.76M172.9,496c0,.05,0,.14.07.14s.11.07.11,0,0-.09-.05-.11l-.09,0s0,0,0,0m311.39-2.52a1.62,1.62,0,0,0-1.09,1.94,1.26,1.26,0,0,0,1.63,1,2,2,0,0,0,1.09-2,1.28,1.28,0,0,0-1.21-1.05,1.25,1.25,0,0,0-.42.08m610,0a1.85,1.85,0,0,0-.55,1.91c.18.75.67,1.14,1.15.85a1.83,1.83,0,0,0,.55-1.91c-.1-.59-.45-.94-.83-.94a.68.68,0,0,0-.32.09m-260.61.67c-5.57,2.9-8.77,11.36-7.08,18.91s7.56,11.31,13.18,8.71,8.82-10.91,7.13-18.62c-1.42-6.1-5.32-9.92-9.61-9.92a7.91,7.91,0,0,0-3.62.92m130.06-1.78c-3.81,2.17-5.86,8.61-4.6,14.32s5.51,8.55,9.25,6.5,6-8.43,4.72-14.21c-1.08-4.54-3.79-7.36-6.75-7.36a5.13,5.13,0,0,0-2.62.75m-349.16-3c-2.72,1.12-4.35,4.69-3.62,7.95s3.38,4.92,6,3.84,4.41-4.6,3.74-7.86c-.52-2.61-2.38-4.28-4.49-4.28a4.43,4.43,0,0,0-1.67.35M24.28,487.5a.33.33,0,0,0,.19.27c.18.06.29.06.36-.06s-.12-.15-.31-.21a.31.31,0,0,0-.16-.07.07.07,0,0,0-.08.07m51.5-6.86a.9.9,0,0,0,.42.61c.3.14.55.11.61-.1a.62.62,0,0,0-.37-.6.6.6,0,0,0-.32-.1.4.4,0,0,0-.34.19m667.67-1.54c-5.68,2.84-9.07,11.24-7.49,18.74s7.49,11.27,13.23,8.7,9-10.82,7.43-18.47c-1.27-6.08-5.15-9.87-9.51-9.87a8.19,8.19,0,0,0-3.66.9m-218.43-1a2.21,2.21,0,0,0-1.15,2.33,1.4,1.4,0,0,0,1.82,1.15,2.06,2.06,0,0,0,1.09-2.3,1.31,1.31,0,0,0-1.28-1.26,1.42,1.42,0,0,0-.48.08m347.4-6.5c-6.16,3.48-9.6,13.51-7.67,22.4s8.46,13.23,14.62,10.09S888.92,491,887.05,482c-1.55-7.11-5.79-11.5-10.5-11.5a8.44,8.44,0,0,0-4.13,1.13m260.07-1.54a.18.18,0,0,0-.06.28c0,.09.06.12.13.09a2.71,2.71,0,0,0,0-.27.11.11,0,0,0-.1-.11h0m-130.06,0c-3.63,2.24-5.5,8.65-4.29,14.3s5.14,8.43,8.76,6.31,5.38-8.49,4.17-14.2c-.93-4.45-3.44-7.15-6.18-7.15a4.7,4.7,0,0,0-2.46.74m-348.31-1.63c-4,1.91-6.41,7.59-5.32,12.69s5.08,7.74,9.06,6,6.35-7.37,5.26-12.54c-.75-4.14-3.46-6.69-6.5-6.69a5.91,5.91,0,0,0-2.5.58m-88.79-8.16a3.11,3.11,0,0,0-1.57,3.42,1.84,1.84,0,0,0,2.48,1.66,3.43,3.43,0,0,0,1.58-3.44,2,2,0,0,0-1.79-1.8,1.65,1.65,0,0,0-.7.16m217.22-2.84c-6,3.33-9.61,13-7.86,21.58,1.82,8.43,8.22,12.75,14.33,9.7s9.55-12.54,7.8-21.25c-1.46-6.87-5.57-11.12-10.2-11.12a8.52,8.52,0,0,0-4.07,1.09M32,456.1a.43.43,0,0,0,.18.36c.12.13.24.07.24-.06s0-.27-.18-.33a.3.3,0,0,0-.14-.05c-.06,0-.1,0-.1.08m879.27-6.89c-6,3.66-9.31,14.09-7.32,23.27s8.34,13.66,14.33,10.28,9.25-13.73,7.31-23.07C924.06,452.42,920,448,915.4,448a8,8,0,0,0-4.17,1.24m-217.71-1.93c-4.47,2.35-7.06,9.31-5.86,15.5s5.8,9.28,10.28,7,7.19-9.07,6-15.35c-.94-4.9-4-8-7.43-8a6.35,6.35,0,0,0-3,.77m347.17-1.42c-3.45,2.29-5.32,8.82-4.11,14.6s5,8.49,8.46,6.28,5.26-8.7,4-14.51c-1-4.45-3.4-7.15-6-7.15a4.27,4.27,0,0,0-2.39.78m-435.41-4.81a3.72,3.72,0,0,0-1.63,4.08c.3,1.66,1.52,2.51,2.78,1.91a4,4,0,0,0,1.64-4.12c-.24-1.27-1.06-2.06-2-2.06a1.84,1.84,0,0,0-.8.19m216-7.34c-6.47,3.93-10.28,15.05-8.22,24.9s8.88,14.63,15.47,11S838.76,455,836.82,445c-1.58-7.83-6-12.62-11-12.62a8.72,8.72,0,0,0-4.51,1.32M732.81,425c-4.71,2.66-7.43,10.42-6.11,17.31s6.17,10.25,10.95,7.74,7.37-10.25,6-17.2c-1-5.41-4.18-8.77-7.7-8.77a6.29,6.29,0,0,0-3.18.92m216.61-1.54c-6.34,4.2-9.79,15.95-7.67,26.29,2.11,10.18,9,15.23,15.35,11.33s9.79-15.53,7.68-26C963.11,427,958.72,422,953.9,422a8.07,8.07,0,0,0-4.48,1.46M1079,421.89c-2.71,1.94-4.17,7.37-3.14,12.15s4,7.08,6.71,5.17,4.11-7.32,3.14-12.12c-.73-3.65-2.69-5.88-4.76-5.88a3.32,3.32,0,0,0-2,.68M644.93,420.2c-1.27.67-2,2.72-1.69,4.56s1.63,2.69,2.9,2,2.06-2.72,1.69-4.53c-.23-1.41-1.08-2.29-2-2.29a1.88,1.88,0,0,0-.86.23m-89-10.94a.14.14,0,0,0-.06.21c0,.09.06.09.11.09a1.71,1.71,0,0,0,.07-.21c0-.07,0-.1-.08-.1h0m304.06.42c-6.52,4.17-10.15,16-8.16,26.29s9.07,15.27,15.6,11.37,10.09-15.53,8-26c-1.58-8.14-6-13.09-10.94-13.09a8.41,8.41,0,0,0-4.54,1.42m-88.3-8.06c-4.65,2.89-7.37,11.17-5.92,18.46s6.35,10.88,11,8.1,7.38-11,6.05-18.37c-1.12-5.7-4.26-9.2-7.81-9.2a6.3,6.3,0,0,0-3.32,1m345.71-3.54c-1.57,1.18-2.35,4.44-1.75,7.28s2.3,4.2,3.87,3.05,2.36-4.41,1.75-7.25c-.41-2.18-1.52-3.49-2.72-3.49a1.93,1.93,0,0,0-1.15.41m-433.22-.73c-1.51.85-2.3,3.3-1.93,5.51s1.93,3.26,3.32,2.42,2.3-3.3,1.93-5.51c-.32-1.69-1.29-2.71-2.35-2.71a1.91,1.91,0,0,0-1,.29m303.58,1.06c-6,4.24-9.3,16-7.19,26.21s8.59,15.14,14.63,11.14,9.18-15.65,7.13-26c-1.57-8-5.72-12.82-10.25-12.82a7.5,7.5,0,0,0-4.32,1.49m-89.62-15.86c-7,4.8-10.89,18.1-8.59,29.76s9.79,17.17,16.74,12.67,10.82-17.71,8.59-29.5c-1.75-9.11-6.51-14.61-11.75-14.61a8.73,8.73,0,0,0-5,1.68M810,374.33c-5.5,3.65-8.58,13.87-6.89,22.81s7.5,13.24,13.06,9.76,8.58-13.59,6.89-22.66c-1.34-6.94-5-11.19-9.15-11.19a7,7,0,0,0-3.91,1.28m345.65-1.39c-.48.3-.66,1.36-.48,2.2s.66,1.3,1.15.94a2.61,2.61,0,0,0,.48-2.24c-.09-.65-.42-1-.78-1a.63.63,0,0,0-.37.14m-432.5.15c-1.57,1-2.41,3.81-2,6.29s2.05,3.65,3.62,2.66,2.42-3.75,1.93-6.23c-.37-1.9-1.34-3.06-2.48-3.06a2,2,0,0,0-1.08.34m302.68-1.18c-5.62,4.2-8.64,15.83-6.59,26s8.16,14.89,13.84,10.88,8.71-15.6,6.71-25.84c-1.51-7.78-5.48-12.51-9.79-12.51a6.93,6.93,0,0,0-4.17,1.51m-391-7.91a.54.54,0,0,0-.24.66c.06.33.24.45.36.36a.67.67,0,0,0,.3-.73.37.37,0,0,0-.31-.34.13.13,0,0,0-.11.05m301.47-8.47c-6.89,5.08-10.64,18.92-8.34,31s9.85,17.73,16.8,13,10.64-18.55,8.34-30.76c-1.78-9.35-6.49-15-11.72-15a8.75,8.75,0,0,0-5.08,1.79M848.61,349c-5.19,3.62-8.1,13.65-6.4,22.48s7.13,12.9,12.33,9.46,8-13.51,6.4-22.36c-1.33-6.79-4.77-10.89-8.6-10.89a6.41,6.41,0,0,0-3.73,1.31m-87.27-4.08c-2.54,1.69-3.93,6.4-3.2,10.54s3.38,6.07,5.86,4.42,3.87-6.32,3.14-10.46c-.55-3.16-2.23-5.1-4.06-5.1a3,3,0,0,0-1.74.6m302.62.39c-5,3.93-7.68,14.62-5.81,23.9s7.32,13.63,12.33,9.88,7.62-14.47,5.81-23.81c-1.33-7.09-4.82-11.38-8.61-11.38a6,6,0,0,0-3.72,1.41m-390.26-6a.69.69,0,0,0-.24.76c.06.27.24.45.37.3a.64.64,0,0,0,.29-.73.41.41,0,0,0-.33-.35.13.13,0,0,0-.09,0m300.38-12.48c-7,5.38-10.75,20-8.28,32.67s10,18.62,17.05,13.48,10.75-19.64,8.34-32.46c-1.87-9.73-6.64-15.62-11.9-15.62a8.64,8.64,0,0,0-5.21,1.93m128.74-4.05c-2.84,2.3-4.35,8.65-3.26,14.15s4.23,8,7.07,5.8,4.29-8.64,3.32-14.18c-.82-4.12-2.79-6.63-5-6.63a3.42,3.42,0,0,0-2.18.86M886.2,318.9c-5.86,4.36-9.06,16.35-7.07,26.78s8.28,15.26,14.15,11.06,9.06-16.11,7.19-26.62c-1.51-8-5.49-12.8-9.9-12.8a7.39,7.39,0,0,0-4.37,1.58m-87-3c-3.14,2.27-4.89,8.56-3.87,14s4.35,8.09,7.5,5.86,5-8.49,3.93-14c-.73-4.18-2.84-6.72-5.22-6.72a4,4,0,0,0-2.34.82m-87-3.14a1.46,1.46,0,0,0-.48,1.57c.06.58.48.88.78.64s.55-.94.49-1.57c-.1-.45-.33-.71-.58-.71a.35.35,0,0,0-.21.07M1012,298.29c-6.65,5.36-10.21,19.8-7.86,32.28s9.67,18.28,16.38,13.17,10.16-19.55,7.86-32.18c-1.77-9.52-6.33-15.23-11.33-15.23a8.09,8.09,0,0,0-5,2m129-2.2c-1.63,1.39-2.53,5.17-1.93,8.43s2.54,4.81,4.17,3.42,2.48-5.14,1.88-8.43c-.46-2.47-1.59-3.94-2.84-3.94a2,2,0,0,0-1.28.52M837.55,289c-2.78,2.08-4.35,7.86-3.38,12.84s3.92,7.38,6.71,5.29,4.35-7.83,3.38-12.81c-.68-3.8-2.56-6.09-4.64-6.09a3.38,3.38,0,0,0-2.07.77m86.13-1.48c-6.65,5.13-10.16,19.07-7.92,31.12s9.43,17.71,16,12.76,10.16-18.89,7.86-31c-1.68-9.19-6.12-14.74-11-14.74a8,8,0,0,0-4.93,1.9m-173.22-2a1.61,1.61,0,0,0-.36,1.58c.12.6.48.87.78.63s.55-1,.49-1.57c-.1-.45-.32-.74-.61-.74a.63.63,0,0,0-.3.1M1179,268.77a2.66,2.66,0,0,0-.48,2.06c.18.81.6,1.17,1,.85a2.54,2.54,0,0,0,.42-2.09c-.09-.6-.34-1-.64-1a.5.5,0,0,0-.33.14m-129,1.51c-5.93,4.9-9,18.11-6.89,29.47s8.64,16.62,14.56,11.84,9-17.95,6.83-29.37c-1.63-8.61-5.62-13.76-10-13.76a7.07,7.07,0,0,0-4.49,1.82m-88.31-10.57c-5.86,4.8-9,17.73-7,28.89s8.52,16.35,14.51,11.69,9.06-17.62,6.95-28.86c-1.54-8.45-5.55-13.51-10-13.51a7.27,7.27,0,0,0-4.54,1.79m-173.15-2.88a2.4,2.4,0,0,0-.55,2.15c.13.85.66,1.27,1.09.87a2.43,2.43,0,0,0,.6-2.14c-.13-.63-.43-1-.78-1a.55.55,0,0,0-.36.14m86.49.7c-3.51,2.72-5.33,10.12-4.18,16.53s5,9.4,8.46,6.71,5.26-10.1,4.11-16.5c-.9-4.85-3.2-7.76-5.77-7.76a4.24,4.24,0,0,0-2.62,1M700.3,247a.85.85,0,0,0-.18.82c0,.3.18.39.42.3a1.1,1.1,0,0,0,.18-.78c-.05-.24-.13-.38-.28-.38a.27.27,0,0,0-.14,0m388.49.31c-3.5,3-5.25,11-4,17.83s5.07,10.06,8.58,7.09,5.32-10.93,4-17.79c-1-5.18-3.33-8.26-5.91-8.26a4.07,4.07,0,0,0-2.68,1.13m-89.51-17.59c-5.62,4.71-8.52,17.31-6.46,28.13s8.1,15.84,13.72,11.25,8.52-17.2,6.59-28.14c-1.53-8.15-5.34-13-9.51-13a6.76,6.76,0,0,0-4.34,1.79m-173-2.3a2.75,2.75,0,0,0-.54,2.21c.18.84.66,1.24,1.14.87a2.53,2.53,0,0,0,.55-2.2c-.09-.65-.41-1-.77-1a.64.64,0,0,0-.38.15m85.52-4.65c-4.78,3.89-7.31,14.38-5.62,23.42s6.83,13.17,11.61,9.33,7.31-14.32,5.62-23.38c-1.27-6.77-4.48-10.83-8-10.83a5.67,5.67,0,0,0-3.61,1.46m215-3.27c-2.17,2-3.32,7.16-2.53,11.64s3.26,6.55,5.49,4.59,3.39-7.16,2.55-11.63c-.63-3.35-2.13-5.34-3.78-5.34a2.66,2.66,0,0,0-1.73.74m-388.62-1.45a1.2,1.2,0,0,0-.3,1.09c.12.39.36.6.6.43a1.31,1.31,0,0,0,.31-1.09c0-.32-.23-.5-.41-.5a.31.31,0,0,0-.2.07M1037,200.11c-5,4.29-7.5,15.72-5.74,25.51s7.31,14.26,12.27,10,7.56-15.62,5.74-25.47c-1.34-7.33-4.73-11.68-8.42-11.68a5.93,5.93,0,0,0-3.85,1.61m-173.16-3a2.63,2.63,0,0,0-.54,2.24c.18.88.66,1.3,1.15.94A2.74,2.74,0,0,0,865,198c-.13-.66-.43-1-.78-1a.69.69,0,0,0-.37.14M950,196c-3.51,2.94-5.32,10.79-4.11,17.53s5.08,9.82,8.64,6.95,5.32-10.82,4-17.56c-.9-5-3.26-8-5.85-8A4.24,4.24,0,0,0,950,196m215.1-3.32a3.26,3.26,0,0,0-.66,2.75c.24,1,.84,1.51,1.33,1a3.27,3.27,0,0,0,.54-2.75c-.13-.76-.49-1.22-.84-1.22a.5.5,0,0,0-.37.19m-89.51-17.53c-2.84,2.54-4.29,9.16-3.27,14.87s4.18,8.31,7,5.8,4.35-9.19,3.26-14.9c-.76-4.22-2.65-6.73-4.75-6.73a3.49,3.49,0,0,0-2.26,1M988.29,170c-1.76,1.61-2.72,5.78-2.12,9.38s2.72,5.19,4.54,3.62,2.77-5.74,2.11-9.34c-.54-2.67-1.78-4.25-3.12-4.25a2.15,2.15,0,0,0-1.41.59m-87.09-4a2.65,2.65,0,0,0-.55,2.26c.18.91.66,1.33,1.15.91a2.53,2.53,0,0,0,.54-2.3c-.09-.64-.4-1-.75-1a.55.55,0,0,0-.39.17m-87.88-8.31a1.4,1.4,0,0,0-.37,1.41c.13.55.42.79.73.55a2,2,0,0,0,.3-1.42c-.09-.4-.28-.62-.47-.62a.26.26,0,0,0-.19.08m300.56-8.83c-1,.85-1.45,3.14-1.09,5.11s1.39,2.84,2.36,2,1.51-3.17,1.09-5.14c-.27-1.44-.93-2.3-1.62-2.3a1.07,1.07,0,0,0-.74.34M1026,140.49c-1,.85-1.45,3.14-1.09,5s1.4,2.78,2.36,1.93,1.45-3.08,1.14-5c-.31-1.41-1-2.28-1.7-2.28a1,1,0,0,0-.71.32m-87.63-6.62c-.55.39-.73,1.64-.61,2.63s.72,1.42,1.27,1a2.85,2.85,0,0,0,.6-2.63c-.13-.72-.5-1.17-.88-1.17a.57.57,0,0,0-.38.17m-87.94-8a2.72,2.72,0,0,0-.49,2.3c.12.88.6,1.27,1.09.88a2.68,2.68,0,0,0,.54-2.27c-.13-.67-.43-1.06-.77-1.06a.59.59,0,0,0-.37.15m212.2-20.58c-1.57,1.37-2.3,5-1.7,8.1s2.24,4.47,3.75,3.08,2.3-5,1.69-8.09c-.4-2.27-1.45-3.64-2.56-3.64a1.7,1.7,0,0,0-1.18.55m-87.15-3.47a2.41,2.41,0,0,0-.43,2c.12.79.54,1.12,1,.79a2.48,2.48,0,0,0,.48-2.06c-.13-.57-.4-.92-.7-.92a.48.48,0,0,0-.32.14M887.72,95a1,1,0,0,0-.18.87c.06.31.24.46.36.31s.3-.52.24-.85S888,95,887.85,95a.24.24,0,0,0-.13.05m124.86-25.63a1.54,1.54,0,0,0-.3,1.18c.18.48.37.7.55.48a1.28,1.28,0,0,0,.3-1.17c0-.36-.23-.55-.39-.55a.25.25,0,0,0-.16.06m-88.06-7.28a2.22,2.22,0,0,0-.36,1.72c.12.7.55,1,.84.7a1.88,1.88,0,0,0,.37-1.78c0-.47-.28-.76-.55-.76a.48.48,0,0,0-.3.12m124.93-25.69a1,1,0,0,0-.06.61c0,.21.12.33.3.21a.81.81,0,0,0,.12-.57c0-.18-.12-.28-.23-.28l-.13,0m-87.87-6c-.07.06-.07.15-.07.3s.07.12.12.1.12-.22.12-.31a.14.14,0,0,0-.11-.13.05.05,0,0,0-.06,0"/></clipPath><linearGradient id="linear-gradient" x1="-1700.35" y1="2203.45" x2="-1699.23" y2="2203.45" gradientTransform="translate(-1749736.19 2269251.99) rotate(180) scale(1029.72)" gradientUnits="userSpaceOnUse"><stop offset="0" stop-color="#12c2e9"/><stop offset="0" stop-color="#12c2e9"/><stop offset="0.26" stop-color="#c471ed"/><stop offset="0.52" stop-color="#f64f59"/><stop offset="0.86" stop-color="#d40005"/><stop offset="1" stop-color="#d40005"/></linearGradient></defs><title>dot-footer</title><g id="Isolation_Mode" data-name="Isolation Mode"><g class="cls-2"><rect class="cls-3" width="1155.84" height="615.94"/></g></g></svg>