<svg id="Layer_1" data-name="Layer 1" xmlns="http://www.w3.org/2000/svg" xmlns:xlink="http://www.w3.org/1999/xlink" viewBox="0 0 4607.77 2810.94"><defs><style>.cls-1{fill:none;}.cls-2{opacity:0.6;}.cls-3{clip-path:url(#clip-path);}.cls-4{clip-path:url(#clip-path-2);}.cls-5{fill:url(#linear-gradient);}</style><clipPath id="clip-path" transform="translate(-190 952.24)"><rect class="cls-1" x="308.79" y="98.45" width="729.27" height="778.25"/></clipPath><clipPath id="clip-path-2" transform="translate(-190 952.24)"><path class="cls-1" d="M763.66,139.19c-2.28.3-1.45,4.71,1.93,9.85s8.06,9.11,10.33,8.71,1.29-4.9-2.1-10-7.87-8.85-10.16-8.55m11.47-1.54c-2.19.28-1.3,4.55,2.06,9.58s7.91,8.86,10.08,8.48S788.39,151,785,146s-7.75-8.65-9.91-8.34m-23.49,3.16c-2.42.32-1.64,4.84,1.75,10.14s8.22,9.33,10.6,8.91,1.46-5-2-10.27-8-9.1-10.4-8.78m44.83-6.06c-2,.27-1,4.33,2.33,9.11s7.64,8.46,9.6,8.1.82-4.48-2.46-9.23-7.48-8.25-9.47-8m-10.42,1.41c-2.1.29-1.12,4.44,2.19,9.34s7.78,8.67,9.85,8.28,1-4.6-2.36-9.45-7.62-8.44-9.68-8.17m-60.36,8.16c-2.69.34-2.1,5.14,1.35,10.73s8.52,9.88,11.17,9.41,1.9-5.38-1.57-10.9-8.33-9.61-10.95-9.24m-17.11-27.5c-2.73.21-2.29,4.73,1,10.12s8.33,9.58,11.06,9.3,2.11-4.94-1.24-10.28-8.14-9.37-10.84-9.14M739,142.53c-2.54.34-1.85,5,1.58,10.42s8.35,9.6,10.86,9.14,1.68-5.2-1.75-10.57-8.18-9.36-10.69-9m41.1-31.39c-2,.17-1.15,4,2,8.65s7.53,8.25,9.55,8,1-4.17-2.19-8.76-7.36-8.08-9.39-7.93m24.54,70.39c1.9-.48.84-4.69-2.35-9.41s-7.25-8.14-9.2-7.74-1,4.51,2.2,9.28,7.4,8.35,9.35,7.87M722,115.75c-2.59.23-2.06,4.6,1.24,9.84s8.19,9.39,10.76,9.07,1.89-4.79-1.43-10-8-9.11-10.57-8.92m-4.67-7.33c2.57-.18,2.06-4.35-1.1-9.3-.16-.23-.33-.44-.46-.67h-9.58a11.34,11.34,0,0,0,.64,1.11c3.18,5,7.89,9,10.5,8.86M369.84,130.94c7.08-.46,10.6-7.6,8.06-15.88-2.51-8.11-10.06-14.44-17-14.25s-10.94,7.08-8.56,15.46,10.31,15.13,17.47,14.67m34.61-2.23c6.49-.42,9.49-7.28,6.78-15.21s-9.91-13.9-16.33-13.72-9.79,6.79-7.26,14.83,10.19,14.54,16.81,14.1m-30.89,14.73c-7.22.59-11.11,8.31-8.54,17.42s10.87,16.14,18.24,15.3,10.73-8.92,8-17.88-10.55-15.39-17.66-14.84M387.35,190c-7.29,1-11.1,9.58-8.32,19.38s11.28,17,18.73,15.7c7.29-1.3,10.71-10.25,7.74-19.86-2.9-9.43-11-16.19-18.15-15.22M466,124.71c5.6-.36,7.68-6.67,4.74-14-2.38-5.94-7.33-10.76-12.11-12.23h-5.28c-3.91,1.58-5.3,6.88-2.9,13.2,2.86,7.53,9.88,13.42,15.55,13.06m-133.7,8.67c7.66-.5,11.83-8,9.49-16.6s-10.18-15.07-17.71-14.86-12.19,7.41-10,16.16,10.44,15.79,18.26,15.3m474.13,0c-1.91.24-.84,4.21,2.42,8.86s7.51,8.27,9.41,7.92.69-4.38-2.59-9-7.36-8.06-9.24-7.79m-6.58-23.86c-1.86.17-.87,3.83,2.27,8.25s7.26,7.93,9.13,7.72.74-4-2.38-8.39-7.15-7.71-9-7.58M313.71,165.9a22.65,22.65,0,0,0-4.91-9.56v26.71c4.49-3.54,6.57-10.1,4.91-17.15m501.55,13c1.83-.44.71-4.55-2.44-9.15s-7.12-7.92-9-7.57-.84,4.41,2.3,9,7.28,8.14,9.11,7.68m-25-68.6c-2,.17-1,3.91,2.15,8.44s7.37,8.08,9.31,7.87.88-4.08-2.28-8.57-7.24-7.89-9.18-7.74m-60.1-2.76c2.44-.16,1.85-4.23-1.32-9,0-.08-9.22-.08-9.22-.08.1.17.17.33.28.5,3.17,4.91,7.78,8.8,10.26,8.63m-70.94,4.61c3.16-.23,3.09-4.88-.12-10.39a29.45,29.45,0,0,0-2.34-3.35h-11a20.15,20.15,0,0,0,1.76,3.91c3.22,5.62,8.46,10,11.68,9.83m-52.81,3.43c3.78-.27,4.18-5.35,1-11.36a27.29,27.29,0,0,0-4.21-5.81H591.66a16.33,16.33,0,0,0,2,6.44c3.18,6.14,8.9,11,12.7,10.73m83.41-5.41c2.84-.2,2.51-4.59-.69-9.81-.4-.67-.84-1.32-1.29-2H677.44a20.31,20.31,0,0,0,1.26,2.44c3.2,5.3,8.17,9.51,11.07,9.32m-14.9,1c3-.19,2.8-4.73-.4-10.06a29.41,29.41,0,0,0-1.81-2.65H662a22,22,0,0,0,1.52,3.16c3.22,5.45,8.33,9.74,11.36,9.55m120.58-7.81c1.39-.1,1.2-2.12-.25-4.9h-6.57c2.57,2.94,5.33,5,6.82,4.9m-229.88,14.9c4.25-.27,5.09-5.72,1.94-12.12a25.34,25.34,0,0,0-5.88-7.68H550.4c-.44,2.15.06,5.13,1.62,8.4,3.13,6.56,9.23,11.7,13.55,11.4m278.75,53.62c1.6-.4.38-4.19-2.69-8.46s-6.76-7.36-8.36-7-.48,4,2.57,8.34,6.9,7.55,8.48,7.17M910.19,280.8c.78-.47-.19-3.16-2.17-6s-4.21-4.69-5-4.23.13,3.13,2.13,5.94,4.27,4.77,5.05,4.25M625,114.4c3.55-.25,3.78-5.18.57-11a26.83,26.83,0,0,0-3.54-5H610.65a17.87,17.87,0,0,0,2,5.54c3.2,6,8.76,10.64,12.36,10.41m228.16,55.31c1.52-.37.27-4.07-2.75-8.23s-6.66-7.24-8.19-6.92-.4,3.95,2.63,8.14,6.79,7.38,8.31,7m-18.06,4.41c1.64-.42.45-4.31-2.63-8.67s-6.9-7.59-8.56-7.22-.59,4.15,2.5,8.55,7,7.74,8.69,7.34m-292-54.4c4.54-.33,5.63-6,2.52-12.56a24.48,24.48,0,0,0-6.92-8.71H528.05c-.91,2.27-.65,5.66,1.09,9.49,3.09,6.77,9.4,12.06,14,11.78m-49.6,3.22c5.21-.35,6.9-6.43,3.91-13.51a22.72,22.72,0,0,0-9.75-11h-8.33c-2.46,2.13-2.95,6.65-.82,11.87,2.95,7.26,9.72,12.94,15,12.62m241.2-8.2c-2.46.21-1.85,4.46,1.45,9.57s8,9.14,10.49,8.84,1.68-4.65-1.62-9.72-7.88-8.88-10.32-8.69m7.55-7.94c2.24-.16,1.67-3.85-1.17-8.35h-8.78c3.14,4.74,7.6,8.5,9.95,8.35m11.6-.75c2.05-.15,1.56-3.46-1-7.6h-8.33c3.08,4.37,7.16,7.72,9.3,7.6m4.59,6.81c-2.25.19-1.49,4.23,1.75,9.09s7.78,8.67,10,8.42,1.31-4.41-1.93-9.23-7.62-8.46-9.83-8.28m-11.59.91c-2.36.19-1.66,4.35,1.6,9.32s7.91,8.9,10.25,8.65,1.49-4.53-1.79-9.47-7.73-8.67-10.06-8.5M769.53,112c-2.15.17-1.32,4.12,1.91,8.86s7.64,8.48,9.75,8.23,1.16-4.28-2.06-9-7.48-8.27-9.6-8.1M519.2,121.26c4.85-.33,6.22-6.18,3.15-13a23.78,23.78,0,0,0-8.11-9.81h-9.89c-1.55,2.29-1.56,6.18.36,10.65,3,7,9.55,12.46,14.49,12.16M765,105.33c1.88-.13,1.46-3.09-.76-6.88h-7.93c3,4,6.74,7,8.69,6.88M785.73,104c1.54-.12,1.26-2.43-.44-5.53h-7c2.74,3.28,5.83,5.64,7.45,5.53m-10.14.66c1.7-.11,1.35-2.74-.61-6.19h-7.47c2.88,3.64,6.29,6.31,8.08,6.19m-367.22,36c-6.65.53-9.91,7.9-7.14,16.61s10.7,15.44,17.45,14.67,9.59-8.47,6.67-17-10.42-14.77-17-14.25M906.88,244c.91-.46-.2-3.39-2.48-6.56s-4.86-5.29-5.8-4.87.14,3.31,2.43,6.5,4.93,5.42,5.85,4.93M804.74,102.74c1.26-.08,1.13-1.83-.09-4.29h-6.12c2.42,2.61,4.9,4.39,6.21,4.29M372.3,286.86c7.49-1.79,11.2-11.54,8.46-21.55s-10.69-16.56-18-15.11c-7.47,1.49-11.57,10.86-9.06,21.1s11,17.41,18.6,15.56M820.43,124.44c1.77-.23.64-3.88-2.48-8.17s-7-7.57-8.81-7.43-.76,3.73,2.35,8.06,7.16,7.73,8.94,7.54M816,132.12c-1.82.25-.71,4.12,2.51,8.65s7.39,8.08,9.2,7.76.58-4.27-2.66-8.77-7.24-7.89-9-7.64M335.7,146.45c-7.85.65-12.46,8.75-10.12,18.29,2.42,9.7,11,16.9,19.05,16s12.07-9.4,9.53-18.79c-2.55-9.2-10.73-16.08-18.46-15.47m22.35,85.69c8-1.41,12.12-10.88,9.35-21s-11.14-17-19-16c-8,1.09-12.54,10.18-10,20.47,2.59,10.45,11.45,17.88,19.63,16.44m-43.63,7.77c8.82-1.56,13.77-11.6,11.26-22.24-2.16-9.22-9.32-16.06-16.88-16.73V239.7a13.81,13.81,0,0,0,5.62.21m479-55.66c2-.47,1-4.83-2.2-9.68s-7.42-8.38-9.44-7.94-1.14,4.67,2.08,9.56,7.54,8.58,9.56,8.06m6.81,31.54c1.87-.61.86-4.92-2.19-9.62s-7-8-8.9-7.49-1,4.76,2.08,9.51,7.12,8.19,9,7.6m22.63-48.23c-3.08-4.44-7-7.73-8.74-7.37s-.73,4.27,2.4,8.78,7.14,7.93,8.9,7.51.57-4.44-2.56-8.92m-.05,41c1.67-.55.59-4.59-2.4-9s-6.75-7.58-8.46-7.13-.71,4.47,2.3,8.95,6.86,7.75,8.56,7.21m-11,3.51c1.78-.55.72-4.76-2.3-9.32s-6.88-7.77-8.67-7.31-.84,4.61,2.19,9.22,7,8,8.78,7.41M484.28,259.58c5.7-1.36,7.63-9.55,4.46-18.14S478.61,227.09,473,228.21s-7.95,9-4.9,17.78,10.42,15,16.19,13.59M388,347c6.91-2.21,10.21-12.1,7.52-22s-10.17-16.06-17-14.21-10.55,11.49-8,21.59S381,349.19,388,347M503.85,222.06c-5.26,1.05-7,8.57-3.88,16.9s10.21,14.31,15.53,13,6.72-9,3.48-17.22S509,221,503.85,222.06m-1.22,88.43c5.19-1.64,6.79-9.85,3.72-18.23s-9.6-13.76-14.75-12.37-7.07,9.41-4.08,17.93,9.86,14.33,15.11,12.67m52.06,42.28c4.19-1.71,5.11-9.26,2.11-16.84s-8.7-12.31-12.88-10.8-5.33,8.91-2.4,16.61,8.9,12.75,13.17,11M544.23,245c4.84-1.2,6-8.53,2.67-16.39-3.28-7.71-9.74-13.14-14.54-12.21s-6.25,8.14-3,16.1,10,13.68,14.88,12.5m-9.91,55.45c4.75-1.52,6-9.28,2.8-17.24S527.73,270,523,271.31s-6.23,8.86-3.16,17,9.66,13.68,14.46,12.14M436.4,126.63c6-.4,8.52-7,5.7-14.59s-9.78-13.38-15.72-13.21-8.82,6.52-6.12,14.24,10,13.94,16.14,13.56M413.12,276.92c6.8-1.68,9.83-10.81,6.91-20.3-2.85-9.33-10.52-15.73-17.2-14.42s-10.18,10.19-7.41,19.87,10.78,16.52,17.7,14.85M423,185.17c-6.7.91-9.85,9.07-6.89,18.38,3,9.48,11.09,16.28,17.91,15.06s9.51-9.68,6.38-18.83-10.81-15.51-17.4-14.61M468,321.52c5.67-1.81,7.77-10.52,4.78-19.36s-9.82-14.44-15.42-12.92-8.06,10-5.18,19c2.91,9.13,10.06,15.11,15.82,13.28m-17.69-53.65c6.21-1.53,8.65-10.14,5.58-19.17-3-8.88-10.33-15-16.44-13.8s-9,9.6-6.06,18.77c3,9.32,10.61,15.76,16.92,14.2m331.36-80.74c2.13-.52,1.18-5-2.08-10s-7.53-8.6-9.66-8.16-1.31,4.84,1.93,9.85,7.69,8.83,9.81,8.29m-258-55.62c-4.94.4-6.44,6.63-3.24,14s10,13.17,15,12.6,6.15-7.05,2.87-14.35-9.73-12.67-14.61-12.29m-13.11,57.32c3.37,8.27,10.52,14.29,15.87,13.32s6.67-8.27,3.28-16.32-10.23-13.7-15.45-13-7,7.83-3.7,16m26.89-4.19c3.42,7.92,10.3,13.71,15.28,12.84s6-7.91,2.49-15.63-10-13.18-14.88-12.51-6.27,7.46-2.89,15.3m7.7-41.52c3.29,7.23,9.81,12.73,14.48,12.17s5.52-6.76,2.21-13.81-9.57-12.22-14.12-11.87-5.81,6.38-2.57,13.51m23.09-2.27c3.33,7,9.64,12.27,14,11.76s5-6.51,1.62-13.31-9.39-11.79-13.66-11.49-5.22,6.16-1.94,13m8.92,52.28c4.55-.8,5.33-7.56,1.83-15s-9.86-12.7-14.37-12.09-5.62,7.14-2.19,14.67,10.11,13.22,14.73,12.4m-121.29-12.4c-6.19.83-8.78,8.63-5.67,17.51,3.16,9,10.91,15.55,17.16,14.42s8.42-9.14,5.19-17.91c-3.19-8.61-10.6-14.82-16.68-14m-15.35-42.61c-6.16.5-8.88,7.55-6,15.89s10.54,14.81,16.79,14.08,8.56-8.05,5.51-16.27-10.25-14.17-16.31-13.7m334.57,85.67c2.08-.65,1.2-5.3-1.92-10.29s-7.28-8.48-9.4-7.9-1.33,5.1,1.78,10.15,7.45,8.71,9.54,8M498,133.55c-5.3.42-7.15,6.94-4,14.62s10.17,13.68,15.54,13.05,6.87-7.36,3.65-14.94-9.91-13.13-15.15-12.73M481.6,193.34c3.28,8.63,10.71,14.87,16.48,13.88s7.51-8.71,4.17-17.1-10.42-14.23-16-13.49-7.83,8.21-4.61,16.71m-11.3-57.58c-5.7.46-8,7.22-4.93,15.22s10.36,14.24,16.13,13.55,7.64-7.69,4.5-15.58-10.06-13.63-15.7-13.19m272.06,60.93c2.48-.6,1.75-5.54-1.58-11s-8-9.32-10.46-8.82-2,5.33,1.37,10.82,8.16,9.59,10.67,9m4.63,36c2.34-.75,1.6-5.7-1.58-11s-7.58-9-9.93-8.37-1.77,5.51,1.39,10.9,7.76,9.24,10.12,8.5m10.4-61.24c-2.26.46-1.48,5,1.78,10.15s7.84,9.07,10.1,8.5,1.33-5.16-1.95-10.29-7.68-8.82-9.93-8.36M586.61,116.9c4-.27,4.59-5.55,1.43-11.74a26.37,26.37,0,0,0-5-6.71H571.63a14.94,14.94,0,0,0,1.85,7.39c3.16,6.35,9.07,11.3,13.13,11.06m169.56,76.44c2.37-.57,1.55-5.35-1.75-10.65s-7.83-9.05-10.21-8.57-1.7,5.14,1.6,10.48,8,9.33,10.36,8.74m-40.58-13.53c-2.67.58-2.17,5.55,1.16,11.21s8.31,9.89,11,9.24,2-5.75-1.36-11.36-8.12-9.58-10.78-9.09m-125.7-41.1c3.35,6.75,9.45,11.85,13.53,11.4s4.47-6.25,1.1-12.82-9.23-11.48-13.25-11.15-4.72,5.92-1.38,12.57m114-29.42c2.7-.19,2.29-4.48-.9-9.54-.28-.44-.59-.86-.87-1.3h-10c.29.57.61,1.16,1,1.75,3.18,5.17,8,9.27,10.77,9.09m-7,38.91c-3,.42-2.61,5.49.88,11.41s8.82,10.47,11.79,9.95,2.42-5.73-1.11-11.6-8.61-10.14-11.56-9.76m-2.38-30.26c-2.86.23-2.54,4.86.8,10.41s8.48,9.89,11.33,9.54,2.36-5.09-1-10.57-8.29-9.59-11.14-9.38m17.18,28.26c-2.82.4-2.32,5.32,1.15,11.07s8.67,10.16,11.47,9.66,2.13-5.54-1.35-11.24-8.46-9.85-11.27-9.49m155.47-7.75c.93-.15.09-2.39-1.87-5s-4.28-4.53-5.22-4.38-.11,2.33,1.83,4.92,4.33,4.59,5.26,4.44M981.83,267.33c1.38,1.75,2.79,3,3.17,2.67s-.4-2-1.75-3.7-2.77-2.95-3.15-2.64.4,1.92,1.73,3.67m6.73-4.94c-1-1.27-2-2.13-2.32-1.94s.28,1.41,1.29,2.71,2.06,2.17,2.35,2-.33-1.43-1.32-2.73m-11,8.1c-1.35-1.78-2.8-3-3.2-2.7s.36,2,1.75,3.77,2.82,3.05,3.22,2.73-.4-2-1.77-3.8m6.38,35.39c-.28.23.27,1.41,1.18,2.65s1.91,2.06,2.16,1.81-.29-1.43-1.21-2.65-1.9-2.06-2.13-1.81m-6.25,5.55c-.28.2.27,1.44,1.2,2.72s1.93,2.09,2.19,1.85-.24-1.47-1.2-2.75-1.92-2.08-2.19-1.82m3.18-78.34a3.32,3.32,0,0,0-.61-1.24,3.55,3.55,0,0,0-1.08-.91,3.17,3.17,0,0,0,.61,1.22,4,4,0,0,0,1.08.93m.86,131.27a3.58,3.58,0,0,0,.54,1.27,2.35,2.35,0,0,0,1,.8,3.2,3.2,0,0,0-.54-1.27,2.38,2.38,0,0,0-.95-.8m6.8-7.47a3.42,3.42,0,0,0,.52,1.22,2.31,2.31,0,0,0,.93.78,3.47,3.47,0,0,0-.53-1.22,2.55,2.55,0,0,0-.92-.78M966,245.32c.45-.26-.37-2-1.82-3.88s-3-3.17-3.41-2.88.35,2,1.79,3.85,3,3.18,3.44,2.91m-2.83-34.58a3.16,3.16,0,0,0-.55-1.16,3.77,3.77,0,0,0-1.09-.9,3.08,3.08,0,0,0,.58,1.15,3.71,3.71,0,0,0,1.06.91m26.74,89.86c-.23.23.28,1.35,1.2,2.58s1.83,2,2.1,1.77-.29-1.4-1.21-2.59-1.83-2-2.09-1.76m2.57-42.83a3.68,3.68,0,0,0,1.79,2.28,4,4,0,0,0-.65-1.31,4.24,4.24,0,0,0-1.14-1M974.54,372.25a3.45,3.45,0,0,0,.53,1.31,2.67,2.67,0,0,0,1,.82,3.88,3.88,0,0,0-.53-1.31,2.41,2.41,0,0,0-1-.82m-7.43-88.8c.43-.32-.37-2.13-1.77-4s-2.92-3.14-3.36-2.82.34,2.1,1.76,4,2.91,3.17,3.37,2.84m-9.55-70a2.87,2.87,0,0,0-.57-1.18,3.36,3.36,0,0,0-1.09-.92,2.79,2.79,0,0,0,.56,1.16,3.88,3.88,0,0,0,1.1.94m-2.19,67.89c-.44.36.32,2.19,1.75,4.13s3,3.24,3.47,2.92-.34-2.21-1.79-4.16-3-3.2-3.43-2.89m3.62,108a3.91,3.91,0,0,0,.53,1.44,2.48,2.48,0,0,0,1.05.87,4,4,0,0,0-.53-1.43,2.66,2.66,0,0,0-1-.88m8.77-61.16c.28-.29-.25-1.58-1.23-2.93s-2-2.19-2.3-1.95.23,1.59,1.2,2.94,2,2.23,2.33,1.94m-18.37,8.29c-.35.31.19,1.7,1.2,3.14s2.09,2.35,2.43,2-.2-1.71-1.21-3.14-2.1-2.34-2.42-2m26.14-100.21a3.24,3.24,0,0,0-.61-1.23,3.89,3.89,0,0,0-1.13-1,3.45,3.45,0,0,0,.62,1.26,4,4,0,0,0,1.12.93m-2.18,82.85c-1-1.31-1.94-2.15-2.24-1.9s.25,1.52,1.2,2.84,2,2.15,2.25,1.88-.27-1.51-1.21-2.82m0-40.35c.42-.31-.36-2.08-1.78-3.91s-2.83-3.05-3.27-2.76.36,2,1.75,3.88,2.88,3.09,3.3,2.79m-2.48-38c.31-.17-.25-1.33-1.22-2.57s-2-2.08-2.27-1.93.23,1.34,1.21,2.57,2,2.12,2.28,1.93M967,380.57a3.69,3.69,0,0,0,.54,1.35,2.4,2.4,0,0,0,1,.86,3.61,3.61,0,0,0-.56-1.37,2.46,2.46,0,0,0-1-.84m-10-50.84c-.31.29.23,1.64,1.22,3s2,2.26,2.36,2-.23-1.63-1.22-3-2.06-2.29-2.36-2M880.2,134.27c.53-.09,0-1.41-1.18-2.93s-2.58-2.71-3.11-2.63,0,1.39,1.17,2.93,2.59,2.71,3.12,2.63m-8.94-21.34c.34-.05,0-.85-.74-1.84s-1.68-1.74-2-1.72,0,.86.74,1.85,1.68,1.75,2,1.71m-3.46,37.94c-1.13.21-.1,3,2.32,6.25s5.32,5.7,6.42,5.41,0-3.09-2.38-6.31-5.24-5.6-6.36-5.35m9.5-39.52a1.55,1.55,0,0,0-.38-.89,4,4,0,0,0-1-.86,1.49,1.49,0,0,0,.36.91,4.06,4.06,0,0,0,1,.84m6.06,48.55c.9-.23,0-2.57-2.05-5.26s-4.4-4.68-5.32-4.47,0,2.51,2,5.22,4.46,4.72,5.37,4.51m9.22,12.2c-.89.22.08,2.72,2.22,5.52s4.59,4.9,5.46,4.61-.13-2.78-2.24-5.56-4.54-4.84-5.44-4.57m-329.16,119c4.36-1.41,5.24-8.75,2-16.35s-9.2-12.56-13.55-11.37-5.49,8.36-2.34,16.08,9.43,13,13.85,11.64M851.7,129.36c-1.15.17-.24,2.82,2.09,5.9s5.16,5.49,6.31,5.32.15-2.88-2.18-6-5.08-5.42-6.22-5.26m6.68-13.19c.75-.09.12-1.77-1.43-3.75s-3.33-3.55-4.08-3.45-.13,1.71,1.38,3.71,3.39,3.55,4.13,3.49m15.44,20.18c.72-.13,0-1.91-1.57-4s-3.43-3.64-4.17-3.53-.06,1.87,1.52,3.94,3.47,3.67,4.22,3.55m24.73-7.07a2,2,0,0,0-.42-.93,4.48,4.48,0,0,0-1-.84,1.75,1.75,0,0,0,.42.93,3.6,3.6,0,0,0,1,.84M865,114.51c.53,0,0-1.31-1.11-2.78s-2.5-2.61-3.05-2.55-.06,1.28,1.09,2.76,2.51,2.65,3.07,2.57m64.69,54a2.59,2.59,0,0,0-.48-1.05,3.8,3.8,0,0,0-1-.88,2.34,2.34,0,0,0,.48,1,4,4,0,0,0,1,.88m11.47,80.23c-.63.37.32,2.65,2.17,5.09s3.87,4.19,4.48,3.79-.37-2.68-2.22-5.12-3.8-4.14-4.43-3.76m5-59.52a2.68,2.68,0,0,0-.52-1.09,4,4,0,0,0-1.06-.9,2.73,2.73,0,0,0,.51,1.09,4.12,4.12,0,0,0,1.07.9m1.66,55.71c-.59.36.36,2.57,2.17,5s3.79,4,4.38,3.69-.4-2.61-2.19-5-3.75-4-4.36-3.68m-.33-23.64c.46-.24-.26-1.87-1.65-3.66s-2.9-3-3.36-2.82.25,1.85,1.64,3.64,2.9,3,3.37,2.84m5.21-4c.3-.17-.2-1.24-1.13-2.42s-1.92-2-2.23-1.88.19,1.22,1.13,2.42,1.92,2,2.23,1.88m-29-47a2.45,2.45,0,0,0-.47-1.07,4,4,0,0,0-1-.88,2.09,2.09,0,0,0,.48,1,3.74,3.74,0,0,0,1,.9m6,27.93c.5-.19-.19-1.73-1.53-3.47s-2.78-2.93-3.27-2.76.17,1.71,1.5,3.45,2.82,2.95,3.3,2.78m-12.14-4.84c-.69.25.19,2.34,2,4.67s3.78,4,4.46,3.75-.25-2.36-2-4.68-3.75-4-4.42-3.74m22.83-1.94a2.67,2.67,0,0,0-.52-1.13,4.42,4.42,0,0,0-1.08-.91,2.38,2.38,0,0,0,.53,1.12,4,4,0,0,0,1.07.92m20.25,58.28c.58-.34-.42-2.51-2.19-4.84s-3.68-3.92-4.27-3.6.4,2.5,2.18,4.84,3.71,4,4.28,3.6m-23.11-28.12c1.85,2.44,3.88,4.17,4.55,3.85s-.36-2.55-2.21-5-3.86-4.12-4.49-3.82.3,2.52,2.15,4.94M854,298.73c-1,.59-.19,3.78,2,7.07s4.75,5.53,5.78,4.88.13-3.83-2-7.13-4.68-5.41-5.73-4.82M647.56,237.32c-3.27.88-3.33,6.82-.11,13.28s8.63,11,11.91,10,3.14-7.08-.14-13.49-8.44-10.7-11.66-9.81m1.56,179c-2.44,1.41-2.49,7-.07,12.57s6.44,9,8.88,7.45,2.38-7.18-.08-12.68-6.32-8.71-8.73-7.34m-.66-69.49c-2.8,1.29-2.86,7.18-.1,13.22s7.38,9.95,10.2,8.56,2.68-7.39-.1-13.38-7.24-9.64-10-8.4M648,287.91c-3.09,1.09-3.13,7.07-.1,13.42S656,312,659,310.7s3-7.34-.12-13.59S651,286.8,648,287.91m-.67-94.47c-3.41.68-3.49,6.48-.11,13s9,11.29,12.44,10.45,3.27-6.76-.14-13.18-8.8-10.92-12.19-10.25m-.23-38.51c-3.55.47-3.64,6.1-.13,12.63s9.35,11.47,12.9,10.84,3.39-6.4-.16-12.84-9.12-11.11-12.61-10.63M650,499.51c-1.94,1.45-2,6.4,0,11.15s5.17,7.48,7.15,6,1.93-6.5,0-11.21-5.12-7.33-7.09-5.94M742.3,627.94c-.42.47-.3,1.92.27,3.24s1.41,2,1.83,1.52.3-1.92-.29-3.24-1.39-2-1.81-1.52M578.24,393.64c-2.74-6.93-7.79-11.18-11.38-9.54s-4.4,8.7-1.67,15.79,7.95,11.53,11.6,9.74,4.21-9,1.45-16m168.08-11.79c1.74-1.09,1.2-5.6-1.18-10.12s-5.68-7.26-7.43-6.25-1.29,5.49,1.07,10,5.77,7.4,7.54,6.33m20.14,219.49c-.38.44-.25,1.77.33,3s1.33,1.87,1.73,1.45.25-1.78-.32-3-1.37-1.89-1.74-1.45M652.57,726.72c-.62.63-.61,2.53,0,4.19s1.61,2.48,2.18,1.79.59-2.54,0-4.19-1.54-2.46-2.14-1.79m-1.43-125.86c-1.37,1.18-1.37,5,0,8.48s3.54,5.36,4.91,4.14,1.34-5.05,0-8.54-3.54-5.28-4.88-4.08M572.56,814.79c-.78.84-.91,3.14-.32,5.12s1.66,2.88,2.44,2,.92-3.14.32-5.13-1.66-2.85-2.44-2M437.68,537.68c-4.48,2.59-6.48,11.32-4.36,19.59s7.56,12.91,12.09,10.11,6.29-11.64,4.14-19.78-7.45-12.46-11.87-9.92m10.65-142c5.6-2.23,7.85-11.45,5.09-20.44s-9.32-14.41-14.85-12.43-8.09,11-5.47,20.15,9.55,15.05,15.23,12.72m14.29,237.71c-3.39,2.47-4.78,10-3,16.84s6,10.48,9.47,7.89,4.65-10.15,2.86-16.94S466,631,462.62,633.39m452-393.3c.88-.47-.25-3.3-2.49-6.37s-4.79-5.2-5.66-4.76.17,3.22,2.43,6.3,4.84,5.28,5.72,4.83m35.88,158.58c-.15.16.1.84.53,1.49s.9,1,1.07.91a3.64,3.64,0,0,0-.54-1.48,2.63,2.63,0,0,0-1.06-.92M546.4,408.89c-2.68-7.34-8-11.76-11.92-10s-5.09,9.34-2.43,16.87S540.23,428,544.23,426s4.9-9.64,2.17-17.07m-7.69,291.65c-2,1.69-2.44,6.65-1.15,11.08s3.94,6.67,5.87,4.9,2.38-6.72,1.07-11.12-3.91-6.56-5.79-4.86M459.44,433.16c-4.84,2.27-6.86,10.92-4.39,19.48s8.62,13.79,13.52,11.3,6.63-11.29,4.07-19.73-8.4-13.22-13.2-11m64.44,435.23c-.9,1-1.16,3.54-.57,5.73s1.77,3.19,2.63,2.2,1.14-3.57.55-5.74-1.77-3.17-2.61-2.19m-.82-379.72c-3.58,2.08-4.67,9.45-2.36,16.6s7.2,11.27,10.8,9,4.52-9.72,2.17-16.75-7.07-10.92-10.61-8.88M436.67,791c-2.52,2.23-3.62,8.34-2.44,13.72s4.19,7.92,6.73,5.62,3.58-8.48,2.36-13.8-4.17-7.75-6.65-5.54M765,417.37c-1.28.89-.8,4.57,1.08,8.17s4.48,5.79,5.76,4.84.76-4.65-1.15-8.23-4.44-5.72-5.69-4.78M899.39,455c-.21.23,0,1.07.51,1.87s1.05,1.28,1.26,1.07,0-1.07-.51-1.87-1.07-1.3-1.26-1.07M857.07,418.3c-.58.51-.1,2.55,1.1,4.55s2.63,3.25,3.2,2.69.08-2.55-1.12-4.55-2.61-3.2-3.18-2.69m2.13,80.95c-.23.28,0,1.23.48,2.17s1.16,1.46,1.41,1.18,0-1.26-.5-2.19-1.14-1.43-1.39-1.16m51.79-57c-.19.21,0,1,.54,1.78s1,1.25,1.19,1,0-1-.53-1.77-1-1.25-1.2-1m30.56-33.65c-.17.17.08.88.54,1.57s.95,1.1,1.11.91-.1-.86-.56-1.54-.95-1.11-1.09-.94m6.91-122.29c-.5.34.28,2.25,1.75,4.25s3.06,3.36,3.54,3-.32-2.28-1.79-4.29-3-3.31-3.5-3M908.21,315c-.61.45.15,2.68,1.73,5s3.4,3.84,4,3.37-.18-2.73-1.76-5.05-3.35-3.79-4-3.35m33.13,28.58c-.34.32.19,1.75,1.23,3.24s2.13,2.42,2.49,2.11-.19-1.79-1.22-3.26-2.15-2.42-2.5-2.09m-.15-52.15c-.53.34.27,2.34,1.75,4.38s3.13,3.44,3.63,3.07-.29-2.37-1.78-4.41-3.08-3.41-3.6-3m-85.84,61.33c-.84.59-.13,3.34,1.6,6.12s3.79,4.51,4.65,3.9.1-3.37-1.62-6.13-3.79-4.52-4.63-3.89m49.32-22.37c.66-.47-.14-2.84-1.74-5.24s-3.45-3.91-4.11-3.45.09,2.8,1.71,5.22,3.49,4,4.14,3.47M842.3,258.26c-1.26.61-.33,4.1,2.17,7.89s5.57,6.38,6.82,5.74.23-4.2-2.25-7.93-5.46-6.23-6.74-5.7M808.42,555.13c-.3.36-.13,1.53.42,2.61s1.26,1.69,1.58,1.34.14-1.53-.42-2.63-1.25-1.68-1.58-1.32m1.43-221.89c-2.25-3.79-5.13-6.21-6.48-5.45s-.61,4.48,1.66,8.31,5.2,6.31,6.53,5.51.56-4.58-1.71-8.37M775.68,490.46c-.83.74-.49,3.41.8,6s3,4,3.89,3.26.46-3.45-.84-6-3-4-3.85-3.22m146.4-254.09c.84-.42-.29-3.2-2.51-6.2s-4.69-5-5.55-4.66.23,3.14,2.46,6.13,4.76,5.17,5.6,4.73m-149.27,109c-1.55.84-.9,4.94,1.41,9.09s5.48,6.82,7,5.89.84-5-1.5-9.17-5.4-6.7-6.92-5.81m80.1-91.92c-1.19.55-.21,3.94,2.23,7.6s5.45,6.2,6.65,5.59.14-4-2.3-7.66-5.36-6.06-6.58-5.53m-9.77,177.25c-.63.55-.16,2.68,1.05,4.78s2.7,3.35,3.31,2.78.14-2.7-1.07-4.8-2.66-3.31-3.29-2.76m.49,85.68c-.28.29-.07,1.36.48,2.33s1.14,1.49,1.45,1.22.05-1.33-.48-2.3-1.16-1.53-1.45-1.25m-1.16-211c-1.12.61-.28,3.91,1.89,7.34s4.86,5.7,6,5,.21-4-2-7.39-4.8-5.6-5.89-5m.27,56.44c-.92.65-.23,3.51,1.52,6.41s3.93,4.7,4.82,4,.18-3.55-1.58-6.43-3.87-4.64-4.76-4m19-165.56c1.39-.46.17-4.06-2.69-8.06s-6.27-6.84-7.68-6.48-.27,3.94,2.59,8,6.39,7,7.78,6.57m9.3,28.92c1.23-.51.07-4-2.58-7.71s-5.77-6.39-7-5.93-.15,3.87,2.5,7.64,5.87,6.5,7.11,6m-21.42-.55c-2.71-3.92-6-6.69-7.38-6.21s-.34,4.12,2.37,8.12,6.09,6.84,7.48,6.28.23-4.23-2.47-8.19m2.45-9.73c-1.33.47-.24,4,2.44,7.86s6,6.69,7.29,6.16.15-4.1-2.52-8-5.89-6.55-7.21-6.07m19.69,46.73c1.12-.53.06-3.88-2.34-7.41s-5.26-5.9-6.41-5.39-.13,3.81,2.29,7.38,5.33,6,6.46,5.42M873.36,354c.78-.59,0-3.22-1.66-5.89s-3.68-4.32-4.48-3.77-.07,3.18,1.62,5.87,3.74,4.4,4.52,3.79M872.52,304c1-.61,0-3.68-2.06-6.86s-4.59-5.26-5.56-4.69-.1,3.62,2,6.82,4.63,5.32,5.62,4.73M828.16,444c-.67.59-.23,2.84,1,5s2.76,3.5,3.43,2.89.21-2.87-1-5.06-2.74-3.45-3.41-2.86m46.13-30.22c.54-.52,0-2.44-1.14-4.37s-2.54-3.05-3.07-2.59-.05,2.42,1.13,4.35,2.53,3.08,3.08,2.61m-45-42.3c-1,.68-.31,3.67,1.47,6.69s4,4.91,5,4.19.26-3.74-1.51-6.73-4-4.8-4.93-4.15m1-59.05c-1.16.7-.36,4.09,1.83,7.64s5,5.92,6.16,5.18.3-4.17-1.91-7.7-4.9-5.77-6.08-5.12m9.22-83.9c-2.72-4.06-6.11-6.9-7.56-6.38s-.46,4.26,2.3,8.38,6.21,7.05,7.66,6.46.35-4.38-2.4-8.46m-8.35,34.91c-1.33.62-.41,4.25,2.1,8.15s5.68,6.56,7,5.91.33-4.35-2.19-8.23-5.58-6.44-6.92-5.83M882.24,396c-.5.46,0,2.29,1.16,4.13s2.48,3,3,2.52,0-2.33-1.18-4.16-2.46-2.95-3-2.49m11.39-10.1c-.45.42.06,2.17,1.17,3.94s2.43,2.88,2.91,2.44-.08-2.21-1.2-4-2.4-2.84-2.88-2.4m7.87-99.75c.84-.52-.13-3.28-2.15-6.18s-4.29-4.82-5.13-4.32.08,3.22,2.1,6.13,4.34,4.86,5.18,4.37M685.85,690.1c-.54.58-.5,2.28.09,3.8s1.51,2.29,2,1.72.48-2.31-.12-3.83-1.48-2.27-2-1.69M918.44,275.71c.76-.45-.22-3.06-2.19-5.79s-4.11-4.55-4.88-4.11.19,3,2.15,5.75,4.16,4.61,4.92,4.15M904.34,376.4c-.43.4.08,2.09,1.19,3.81s2.38,2.76,2.81,2.36-.09-2.11-1.21-3.81-2.33-2.72-2.79-2.36M826.77,534.93c-.3.33-.1,1.43.44,2.46s1.2,1.56,1.52,1.28.1-1.43-.45-2.46-1.22-1.62-1.51-1.28M887,468.68c-.22.25,0,1.13.51,2s1.08,1.34,1.3,1.09,0-1.12-.52-2-1-1.32-1.29-1.09m-2.54-123c.76-.53,0-3.1-1.69-5.65s-3.63-4.21-4.35-3.66,0,3,1.66,5.62,3.66,4.27,4.38,3.69m-1.69-47.92c.91-.57,0-3.52-2.1-6.61s-4.48-5.07-5.41-4.55,0,3.46,2,6.57,4.54,5.16,5.48,4.59m-9.13,185.65c-.23.25,0,1.18.49,2.06s1.13,1.39,1.36,1.14,0-1.18-.5-2.08-1.12-1.38-1.35-1.12M892.36,291.8c.85-.55-.1-3.4-2.14-6.38s-4.38-5-5.26-4.45,0,3.36,2.08,6.35,4.42,5,5.32,4.48M709.07,477.58c1.62-1.26,1.35-5.64-.61-9.82s-4.82-6.59-6.44-5.4-1.41,5.52.53,9.75,4.88,6.67,6.52,5.47M731,451.29c-1.93-4-4.69-6.26-6.2-5.19s-1.16,5.19.77,9.17,4.74,6.36,6.25,5.24,1.1-5.26-.82-9.22m-4.14-57.42c1.89-1.16,1.45-5.94-.95-10.67s-5.85-7.56-7.74-6.48-1.54,5.81.86,10.58,5.92,7.74,7.83,6.57M715.57,657.36c-.48.51-.38,2.09.19,3.51s1.47,2.15,1.94,1.61.38-2.11-.21-3.52-1.46-2.13-1.92-1.6m6.91-320.84c2.2-1.13,1.72-6.25-1-11.45s-6.71-8.5-8.92-7.51-1.85,6.08.9,11.33,6.85,8.75,9.06,7.63m10.24,192c-1,.92-.76,3.92.55,6.8s3.22,4.46,4.25,3.55.72-4-.61-6.82-3.18-4.39-4.19-3.53m13-97.41c-1.42,1-1,4.88.93,8.65s4.59,6.06,6,5,.93-4.93-1-8.68-4.55-6-5.92-5M700.19,294.08c2.63-1,2.23-6.61-.82-12.35s-7.56-9.54-10.19-8.59-2.4,6.43.63,12.22,7.71,9.79,10.38,8.72m57.7,24.66c1.92-.95,1.26-5.64-1.47-10.44s-6.4-7.87-8.32-7-1.36,5.5,1.35,10.34,6.51,8.08,8.44,7.09m-55.11,27.67c2.36-1.2,2-6.6-.78-12s-6.88-8.89-9.24-7.78-2.15,6.4.61,11.91,7,9.13,9.41,7.91M914.4,367.48c-.4.38.12,2,1.2,3.64s2.32,2.69,2.73,2.29-.11-2-1.2-3.64-2.29-2.65-2.73-2.29m-85.93-84.14c1.39-.71.45-4.54-2.1-8.54s-5.71-6.63-7.13-6-.53,4.42,2,8.44,5.81,6.76,7.22,6.08M705.71,406.89c2-1.28,1.72-6.31-.7-11.28s-6-7.91-8-6.75-1.81,6.18.59,11.17,6.1,8.11,8.15,6.86m2.43,143.46c-1.11,1-.94,4.23.4,7.28s3.35,4.76,4.44,3.73.89-4.29-.44-7.33-3.3-4.65-4.4-3.68M812,458.24c-.72.65-.3,3,1,5.33s2.85,3.66,3.58,3,.26-3-1-5.34-2.82-3.6-3.55-3m-12.59-65.49c-1.11.78-.52,4.08,1.29,7.35s4.27,5.36,5.36,4.5.47-4.13-1.37-7.41-4.2-5.24-5.28-4.44m-4.84,81c-.78.68-.38,3.2.87,5.62s3,3.85,3.74,3.13.36-3.24-.92-5.66-2.93-3.79-3.69-3.09M763.05,361.08c-2.34-4.29-5.52-7-7.16-6s-1.09,5.22,1.25,9.55,5.63,7.12,7.26,6.11,1-5.31-1.35-9.62m51.81,20.63c-1,.75-.4,3.89,1.39,7s4.12,5.07,5.17,4.32.36-3.92-1.45-7.05-4.08-5-5.11-4.29m2.37-61.86c-1.25.74-.5,4.26,1.75,8s5.07,6.08,6.32,5.33.42-4.36-1.81-8-5-6-6.26-5.28m-20.32,30.79c1.41-.86.69-4.79-1.62-8.75s-5.27-6.44-6.68-5.62-.75,4.71,1.54,8.69,5.33,6.53,6.76,5.68m-41.77,158c-.91.85-.62,3.67.69,6.38s3.15,4.23,4.06,3.39.59-3.7-.72-6.38-3.11-4.19-4-3.39m33.67-205.43c1.68-.82.86-5.12-1.79-9.58s-6.09-7.3-7.79-6.56-1,5,1.68,9.49,6.21,7.51,7.9,6.65m-.4,273.93c-.36.4-.19,1.65.37,2.82s1.33,1.79,1.65,1.39.19-1.66-.38-2.82-1.29-1.77-1.64-1.39M789.6,417c1.17-.87.59-4.38-1.26-7.79s-4.31-5.45-5.49-4.61-.67,4.31,1.2,7.76,4.38,5.58,5.55,4.64m105.23-79.17c.69-.55-.07-3-1.71-5.45s-3.53-4.05-4.23-3.56.06,2.92,1.69,5.43,3.55,4.08,4.25,3.58M821.78,98.45H818c1.37,1.22,2.61,2,3.35,1.93s.82-.78.44-1.93M997.5,254.09a3.68,3.68,0,0,0,1.77,2.23,3.45,3.45,0,0,0-.65-1.3,3.86,3.86,0,0,0-1.12-.93M327.3,513.82c-2-10.36-8.94-16.17-15.71-13.11a12,12,0,0,0-2.79,1.87v35.54a8.67,8.67,0,0,0,9.71,1.1c6.9-3.41,10.77-14.86,8.79-25.4M995.56,295.55c-.26.19.3,1.31,1.18,2.5s1.8,1.94,2,1.73-.28-1.35-1.18-2.51-1.83-1.95-2.05-1.72m5.44-4.84c-.22.21.29,1.3,1.19,2.44s1.77,1.89,2,1.7-.31-1.3-1.18-2.44-1.8-1.91-2-1.7m-6,59.07a3.2,3.2,0,0,0,.51,1.2,2.62,2.62,0,0,0,.92.76,3.5,3.5,0,0,0-.54-1.2,2.48,2.48,0,0,0-.89-.76m-72.18-33c.57-.48-.21-2.63-1.78-4.88s-3.27-3.7-3.88-3.28.19,2.59,1.75,4.86,3.3,3.72,3.91,3.3M1001.08,343a3.26,3.26,0,0,0,.52,1.15,2.49,2.49,0,0,0,.87.74,2.88,2.88,0,0,0-.51-1.14,2.29,2.29,0,0,0-.88-.75M883.8,110.7a1.58,1.58,0,0,0-.38-.89,3.83,3.83,0,0,0-1-.82,1.52,1.52,0,0,0,.38.87,4.14,4.14,0,0,0,1,.84m-32.3,7.11c1-.09.18-2.21-1.71-4.69s-4.15-4.4-5.11-4.32-.23,2.17,1.66,4.67,4.21,4.46,5.16,4.34m-14.8,3.3c1.35-.18.38-3.07-2.17-6.48s-5.64-6-7-5.93-.45,3,2.1,6.4,5.73,6.16,7.09,6m7.6-1.62c1.14-.14.27-2.65-2-5.62s-4.93-5.28-6.1-5.17-.34,2.6,1.91,5.56,5,5.34,6.17,5.23m40,11c.8,1,1.71,1.79,2.08,1.75s0-.93-.82-2-1.72-1.79-2.06-1.73,0,.91.8,1.94m148.13,178a2.54,2.54,0,0,0,.47,1,2.12,2.12,0,0,0,.79.64,3.44,3.44,0,0,0-.5-.95,3.1,3.1,0,0,0-.76-.67m-4.67,5.13a3.13,3.13,0,0,0,.51,1,2.55,2.55,0,0,0,.78.65,3.5,3.5,0,0,0-.49-1,2.52,2.52,0,0,0-.8-.67m9.87-9.38a2.67,2.67,0,0,0-.76-.64,3.29,3.29,0,0,0,.49.93,2.41,2.41,0,0,0,.74.63,2.84,2.84,0,0,0-.47-.92m-208-205.86h-2.25a3,3,0,0,0,1.74.74c.37,0,.53-.3.51-.74M1022.88,319a3,3,0,0,0,.5,1,2.56,2.56,0,0,0,.8.66,3.29,3.29,0,0,0-.5-1,2.83,2.83,0,0,0-.8-.68m-5.09,5.6a3.34,3.34,0,0,0,.52,1,2.35,2.35,0,0,0,.82.7,3.09,3.09,0,0,0-.52-1.05,2.24,2.24,0,0,0-.82-.68m-10.88,12a3.09,3.09,0,0,0,.52,1.12,2.39,2.39,0,0,0,.87.72,3.54,3.54,0,0,0-.51-1.1,2.43,2.43,0,0,0-.88-.74m6.78-51.8a4.72,4.72,0,0,0-.7-1.39,4.26,4.26,0,0,0-1.16-1,3.89,3.89,0,0,0,.7,1.39,3.56,3.56,0,0,0,1.16,1m4-5.68a3.57,3.57,0,0,0-1.12-.95,4.45,4.45,0,0,0,.68,1.36,4.14,4.14,0,0,0,1.15,1,4.15,4.15,0,0,0-.71-1.38m-11.51,7c-.22.19.29,1.24,1.17,2.36s1.73,1.83,2,1.66-.3-1.26-1.18-2.38-1.74-1.85-1.95-1.64m6.26,44.38a3.66,3.66,0,0,0,.51,1.07,2.47,2.47,0,0,0,.86.7,3.85,3.85,0,0,0-.52-1.07,2.49,2.49,0,0,0-.85-.7m-128.57-181c-.72.16,0,2,1.66,4.18s3.56,3.79,4.27,3.6,0-2-1.68-4.17-3.54-3.76-4.25-3.61M933.57,296.9c-.53.41.25,2.42,1.75,4.54s3.19,3.54,3.72,3.12-.29-2.43-1.77-4.55-3.18-3.5-3.7-3.11M932,419.08c-.17.19.07.9.53,1.62s1,1.13,1.12.95-.07-.91-.53-1.61-1-1.15-1.12-1m.85-68c-.37.32.18,1.82,1.23,3.37s2.2,2.51,2.57,2.15-.19-1.83-1.22-3.37-2.19-2.48-2.58-2.15m5.87-94.57c-1.84-2.5-3.88-4.21-4.55-3.83s.3,2.72,2.17,5.25,3.93,4.25,4.6,3.88-.35-2.79-2.22-5.3m-10.59-37.48c-.8.32.31,3,2.48,5.81s4.55,4.88,5.35,4.51-.36-3-2.53-5.87-4.54-4.84-5.3-4.45m6.94-24.26c.3-.13-.16-1.16-1.05-2.31s-1.87-2-2.19-1.84.15,1.14,1,2.3,1.89,2,2.22,1.85M921.83,430.27c-.19.17.06,1,.54,1.69s1,1.16,1.16,1-.06-.95-.52-1.69-1-1.18-1.18-1m4.48-159.41c.71-.44-.29-3-2.21-5.6s-4-4.45-4.76-4,.23,2.92,2.15,5.59,4.08,4.48,4.82,4m-.76,31.76c-.57.4.21,2.51,1.75,4.71s3.24,3.6,3.81,3.2-.22-2.54-1.77-4.71-3.24-3.6-3.79-3.2m-1.64,56.44c-.42.34.13,1.92,1.2,3.5s2.25,2.6,2.65,2.24-.15-1.93-1.22-3.51-2.25-2.59-2.63-2.23m3-102.17c-.71.38.27,2.8,2.15,5.39s4,4.38,4.71,4-.3-2.86-2.21-5.44-4-4.34-4.65-3.92m-8.74-83.73c.34-.09-.1-1.06-1-2.17s-1.81-1.92-2.15-1.81.09,1.07.95,2.17,1.83,1.91,2.16,1.81m3,49.05c-.82.38.27,3,2.46,6s4.67,5,5.47,4.61-.33-3.1-2.51-6-4.6-4.93-5.42-4.57M902,152.34c.32-.12-.06-1-.9-2.06s-1.77-1.85-2.11-1.79.06,1,.87,2.06,1.78,1.84,2.14,1.79m.19,23.09c1.7,2.27,3.66,3.93,4.36,3.7s-.15-2.19-1.85-4.44-3.64-3.85-4.34-3.64.1,2.15,1.83,4.38m-10-45.14a1.65,1.65,0,0,0-.41-.95,4,4,0,0,0-1-.86,1.77,1.77,0,0,0,.42,1,4.2,4.2,0,0,0,1,.86m.66,21.8c1.24,1.6,2.65,2.8,3.18,2.69s-.06-1.51-1.29-3.11-2.65-2.78-3.17-2.67.06,1.49,1.28,3.09m14.79-2.15a2,2,0,0,0-.46-1,4,4,0,0,0-1-.88,2.15,2.15,0,0,0,.44,1,4.54,4.54,0,0,0,1,.88m-5.36,47c-1,.34.17,3.33,2.65,6.66s5.36,5.74,6.35,5.36-.23-3.43-2.73-6.73-5.28-5.68-6.27-5.29m15.59,8.59c.86-.34-.27-3-2.46-5.91s-4.68-5-5.54-4.67.21,2.94,2.42,5.85,4.72,5.07,5.58,4.73m-33.31-32.26c-1.1.31,0,3.26,2.56,6.65s5.46,5.85,6.55,5.53-.11-3.34-2.61-6.69-5.41-5.78-6.5-5.49m27.94,2.84c.49-.13-.14-1.62-1.41-3.28s-2.73-2.87-3.22-2.7.09,1.6,1.39,3.25,2.72,2.88,3.24,2.73m1.31-27.54a2,2,0,0,0-.46-1,3.64,3.64,0,0,0-1-.86,1.93,1.93,0,0,0,.45,1,3.53,3.53,0,0,0,1,.85M685.71,578.21c-1.35-3.22-3.43-5-4.63-3.87s-1.14,4.57.21,7.85,3.43,5,4.67,3.91,1.1-4.66-.25-7.89M831.08,241.28c1.5-.64.46-4.53-2.33-8.74s-6.23-7.09-7.76-6.56-.56,4.42,2.22,8.67,6.34,7.23,7.87,6.63m2.17-36c1.6-.53.49-4.46-2.5-8.78s-6.61-7.38-8.23-6.94-.57,4.33,2.38,8.67,6.75,7.56,8.35,7M816,289.57c1.47-.76.57-4.71-2-8.84s-5.83-6.86-7.34-6.19-.66,4.6,1.93,8.78,5.93,7,7.43,6.25m3.68-43.71c1.6-.65.59-4.71-2.23-9s-6.34-7.28-8-6.73-.69,4.57,2.13,9,6.48,7.46,8.08,6.8m33-46.76c1.44-.46.24-4.18-2.65-8.27s-6.37-7-7.85-6.63-.35,4.05,2.53,8.19,6.5,7.2,8,6.71m-9.49,3c1.54-.48.36-4.31-2.58-8.52s-6.49-7.22-8-6.78-.45,4.17,2.48,8.42,6.61,7.39,8.14,6.88M807.73,250.7c1.7-.67.73-4.88-2.13-9.36s-6.5-7.51-8.19-6.92-.84,4.77,2,9.26,6.61,7.72,8.32,7m-26.14,10.55c1.91-.78,1-5.29-1.89-10.06s-6.76-8-8.66-7.32-1.18,5.13,1.73,9.95,6.9,8.22,8.82,7.43M788,219.68c2-.61,1-5.09-2-10s-7.15-8.21-9.15-7.68-1.14,4.92,1.92,9.81,7.3,8.46,9.28,7.82m14.83,76.52c1.58-.8.72-4.92-1.91-9.2s-6-7.11-7.56-6.39-.8,4.82,1.81,9.13,6.08,7.24,7.66,6.46m67.51-102.72c1.33-.42.09-3.95-2.75-7.84s-6.15-6.7-7.5-6.32-.18,3.83,2.65,7.76,6.26,6.82,7.6,6.4M795,255.82c1.8-.72.86-5.09-2-9.7s-6.63-7.73-8.44-7.1-1,4.93,1.89,9.6,6.74,7.91,8.57,7.2m83.84-50.55c-1.16.4,0,3.66,2.58,7.22s5.64,6.19,6.78,5.74-.08-3.74-2.65-7.3-5.56-6.08-6.71-5.66m-2.38-30.43c-1.23.33,0,3.62,2.73,7.37s6.06,6.52,7.28,6.12-.06-3.71-2.84-7.43-5.95-6.42-7.17-6.06m-8,2.19c-1.3.36-.09,3.72,2.69,7.57s6.15,6.67,7.43,6.25,0-3.83-2.78-7.63-6-6.53-7.34-6.19m-9.11-25.32c-1.31.3-.17,3.49,2.58,7.22s6.09,6.55,7.39,6.23.1-3.58-2.65-7.28-6-6.42-7.32-6.17m2.25,15.93c1.45-.33.17-3.95-2.82-8s-6.53-7-8-6.76-.29,3.85,2.69,8,6.67,7.22,8.13,6.84M896.26,215c1.07-.46-.13-3.62-2.68-7.11s-5.45-5.91-6.56-5.52.06,3.54,2.61,7,5.53,6,6.63,5.6m2.46,33.1c1-.5-.13-3.53-2.44-6.77s-5-5.45-5.94-5,.07,3.43,2.4,6.69,5,5.54,6,5.07m-17.53,8.78c1.07-.53,0-3.75-2.38-7.17s-5.16-5.75-6.25-5.25-.06,3.67,2.32,7.12,5.22,5.81,6.31,5.3M773.85,310.74c1.8-.9,1-5.38-1.63-10s-6.25-7.59-8.06-6.77-1.15,5.24,1.52,9.91,6.38,7.79,8.17,6.86m-203-72.24c4.48-1.08,5.28-8.12,1.92-15.64s-9.54-12.66-14-11.76-5.57,7.74-2.27,15.36,9.8,13.16,14.33,12m324-38.93c-1,.36.14,3.44,2.65,6.85s5.45,5.88,6.48,5.46-.19-3.5-2.7-6.9-5.36-5.77-6.43-5.41m-4.63,52.8c1-.51-.09-3.62-2.44-7s-5-5.62-6.07-5.13,0,3.56,2.36,6.9,5.1,5.68,6.15,5.18M718.67,286.63c2.46-1,2-6.3-1.08-11.83s-7.39-9.17-9.85-8.29-2.1,6.1.91,11.68,7.55,9.45,10,8.44M621.94,171.45c-3.51-6.82-9.49-11.85-13.44-11.32s-4.52,6.59-1,13.59,9.72,12.27,13.74,11.56,4.27-6.93.73-13.83m57.65-52.33c-3,.25-2.82,5,.52,10.72s8.63,10.19,11.66,9.81,2.63-5.25-.74-10.9-8.44-9.87-11.44-9.63m-55.67,16.24c-3.36-6.29-9.06-11.09-12.85-10.78s-4.24,5.69-.91,12.13,9.28,11.49,13.11,11,4-6,.65-12.4m23.25-2.29c3.41,6.12,9,10.77,12.34,10.41s3.26-5.63-.12-11.61-8.74-10.42-12.09-10.19-3.49,5.35-.13,11.39m28.94,8.44c3.16-.38,2.93-5.43-.46-11.24s-8.6-10.16-11.76-9.91-3.14,5.19.21,11.06,8.79,10.46,12,10.09m-33.54-28.25c3.35-.23,3.41-5,.19-10.67a28,28,0,0,0-2.88-4.14H628.66a18.94,18.94,0,0,0,1.91,4.71c3.2,5.77,8.61,10.31,12,10.1M584.09,340.92c3.87-1.56,4.46-8.71,1.43-15.91s-8.48-11.72-12.33-10.37-4.67,8.41-1.69,15.7,8.68,12.14,12.59,10.58m6.16-58.31c4-1.27,4.61-8.27,1.35-15.53s-9-12-13-10.93-4.83,7.92-1.65,15.28,9.22,12.48,13.32,11.18m5.18-50.11c4.17-1,4.71-7.74,1.32-14.94s-9.36-12.17-13.49-11.34-5,7.38-1.62,14.68,9.59,12.63,13.79,11.6m5.75-57.81c-3.48-7.07-9.66-12.27-13.88-11.7s-5,6.86-1.59,14.12,9.93,12.73,14.24,12,4.76-7.23,1.23-14.38m17.92,37.93c-3.38-6.85-9.17-11.69-13-11s-4.4,7.05-1,14.06,9.39,12.12,13.31,11.19,4.18-7.38.77-14.3m224-82.84c-1.35.21-.33,3.22,2.32,6.8s5.91,6.34,7.25,6.11.22-3.31-2.41-6.87-5.81-6.21-7.16-6M740.82,327.31c2-1,1.47-5.92-1.28-10.91s-6.56-8.19-8.62-7.24-1.58,5.77,1.15,10.82,6.67,8.37,8.75,7.33M736,279.66c2.29-1,1.68-6-1.33-11.34s-7.22-8.84-9.52-8-1.84,5.83,1.16,11.2,7.37,9.09,9.69,8.16m16.18-6.54c2.16-.85,1.43-5.75-1.54-10.88s-7.07-8.55-9.22-7.75-1.58,5.58,1.39,10.75,7.2,8.76,9.37,7.88m9.32-45c2.21-.71,1.41-5.49-1.75-10.65s-7.43-8.75-9.66-8.14-1.55,5.3,1.6,10.52,7.6,9,9.81,8.27m-29.84,9.49c2.5-.79,1.87-5.95-1.35-11.46s-7.74-9.3-10.24-8.63-2,5.74,1.17,11.3,7.91,9.57,10.42,8.79M767.32,267c2-.82,1.22-5.53-1.71-10.46s-6.94-8.27-9-7.53-1.37,5.36,1.58,10.33,7,8.48,9.09,7.66m-69.45-18.64c2.82-.89,2.42-6.48-.82-12.38s-8.08-10-10.92-9.19-2.59,6.23.63,12.22,8.25,10.25,11.11,9.35m-2.1-40.32c3-.72,2.57-6.21-.82-12.21s-8.46-10.2-11.43-9.62-2.78,6,.59,12,8.65,10.56,11.66,9.81m-1.87-35.71c3.11-.57,2.71-5.94-.82-12s-8.78-10.44-11.89-10-2.93,5.68.58,11.79,9,10.77,12.13,10.23m18.33,31.71c2.79-.69,2.27-6-1.1-11.77s-8.29-9.91-11.11-9.36-2.46,5.76.9,11.6,8.47,10.2,11.31,9.53m3,38.78c2.65-.86,2.12-6.19-1.1-11.91s-7.91-9.62-10.58-8.88-2.29,6,.92,11.73,8.09,9.91,10.76,9.06M879.84,221.6c1.18-.46,0-3.83-2.63-7.49s-5.64-6.19-6.86-5.79-.06,3.75,2.53,7.43,5.76,6.33,7,5.85m-262,408.76c-1.51,1.35-1.66,5.47-.31,9.22s3.68,5.73,5.21,4.36,1.61-5.52.24-9.27-3.64-5.63-5.14-4.31m2.19-109.45c-2.17,1.54-2.36,6.92-.42,12s5.33,7.9,7.54,6.3,2.29-7.05.31-12.06-5.28-7.79-7.43-6.23M615.1,768c-.65.76-.75,2.8-.16,4.61s1.64,2.67,2.31,1.91.74-2.82.13-4.62-1.62-2.64-2.28-1.9m8.44-409.75c-3,1.38-3.32,7.62-.54,14s7.57,10.42,10.62,8.89,3.14-7.84.34-14.13-7.44-10.14-10.42-8.75M615,274.72c3.73-1.18,4.06-7.83.8-14.76s-8.81-11.57-12.54-10.54S599,256.93,602.21,264s9,12,12.81,10.76M621.92,432c-2.67,1.52-2.9,7.5-.5,13.39s6.61,9.43,9.3,7.79,2.78-7.69.34-13.53-6.51-9.18-9.14-7.65M600.1,305c-3.58,1.28-4.08,7.91-1.07,14.86s8.5,11.59,12.08,10.14,3.89-8.19.84-15-8.31-11.19-11.85-10M580.63,663.38c-1.7,1.51-2,6-.67,10.08s3.81,6.15,5.5,4.59,2-6.06.63-10.12-3.79-6.06-5.46-4.55M587,544.56c-2.42,1.73-2.82,7.5-.88,12.93s5.51,8.46,7.93,6.66,2.73-7.66.78-13-5.43-8.25-7.83-6.55M592.11,449c-2.93,1.7-3.39,8.09-1,14.33s6.8,10,9.74,8.18,3.26-8.29.84-14.46-6.69-9.7-9.59-8.05m-32.79,18.83c-3.24,1.87-4,8.73-1.62,15.4s7,10.55,10.25,8.57,3.85-8.95,1.43-15.53-6.86-10.27-10.06-8.44m37.1-97.27c-3.29,1.52-3.79,8.13-1,14.86s7.78,11,11.09,9.28,3.64-8.38.86-15-7.62-10.62-10.9-9.13m28.52-74.45c-3.31,1.18-3.58,7.47-.55,14.1S632.7,321.33,636,320s3.39-7.74.32-14.29-8.1-10.73-11.38-9.55m56.6,60.92c2.55-1.26,2.32-7-.46-12.65s-7.07-9.26-9.62-8.08-2.48,6.76.28,12.54,7.21,9.48,9.8,8.19m-1.19-55c2.81-1.15,2.56-7-.49-12.94s-7.74-9.89-10.56-8.88-2.74,6.73.29,12.79,7.89,10.17,10.76,9m-54.13-58.94c-3.5.95-3.79,7.15-.57,13.89s8.82,11.49,12.35,10.37,3.56-7.43.3-14.1-8.61-11.09-12.08-10.16M684.3,496.21c1.79-1.33,1.6-6-.36-10.45s-4.94-6.92-6.75-5.68-1.67,5.94.27,10.42,5,7.09,6.84,5.71M682.83,421c2.23-1.36,2-6.73-.42-11.93s-6.15-8.31-8.36-7-2.14,6.55.28,11.83,6.25,8.5,8.5,7.13m-3.56-166.71c3-.95,2.76-6.77-.5-12.9s-8.26-10.33-11.28-9.49-3,6.5.27,12.73,8.44,10.63,11.51,9.66m-50.91-96.84c-3.76.53-4,6.35-.54,13.09s9.53,11.87,13.32,11.21,3.79-6.65.25-13.32-9.3-11.47-13-11m-1,40c-3.65.72-3.92,6.74-.55,13.49s9.21,11.7,12.87,10.8,3.69-7,.26-13.69-9-11.33-12.58-10.6m50.9,14.9c3.16-.78,2.89-6.48-.5-12.67s-8.63-10.56-11.79-9.93-3.13,6.21.25,12.48,8.84,10.88,12,10.12m-13.64-59.75c-3.34.43-3.26,5.87.25,12.19s9.18,11.13,12.51,10.52,3-6.15-.51-12.41-9-10.74-12.25-10.3m-34.89-29.48c-3.6.28-3.85,5.52-.52,11.76s9.13,11.12,12.73,10.7,3.62-5.81.23-12-8.9-10.75-12.44-10.48M415.65,453.17c-5.41,2.5-8,11.87-5.68,21.07s8.79,14.7,14.27,11.93,7.78-12.29,5.36-21.34-8.61-14.1-14-11.66m-58.52-20.69c6.94-2.82,10.56-13.49,8.18-23.75-2.35-10.1-9.68-16.21-16.5-13.79s-10.86,12.9-8.63,23.36,9.89,17,16.95,14.18M329.39,599.81c-5.77,3.32-9.15,13.9-7.45,23.71s7.91,15.13,13.78,11.51,8.95-14.33,7.16-24-7.81-14.54-13.49-11.25m3.51-276.59c-7.64,2.07-12.14,12.38-9.87,23.13,2.3,10.94,10.61,17.89,18.42,15.41s11.78-13.05,9.32-23.58c-2.42-10.37-10.37-17-17.87-15m40.85,523.54c-2.92,2.59-4.46,9.49-3.39,15.49s4.32,8.75,7.26,6,4.38-9.64,3.31-15.56-4.3-8.54-7.18-6M349.89,714c-4.46,3.22-6.95,12.46-5.5,20.75s6.32,12.48,10.86,9,6.82-12.75,5.31-20.92-6.23-12-10.67-8.88m24.7-202.85c6.08-3,9.11-13.47,6.88-23.21s-8.8-15.11-14.77-12.35-9.38,13-7.28,22.91,9,15.73,15.17,12.65m454.2-388.3c1.56-.21.49-3.5-2.36-7.37s-6.39-6.84-8-6.73-.59,3.4,2.25,7.28,6.5,7,8.08,6.82m-3.7,8.1c-1.73.21-.59,4,2.61,8.44s7.27,7.89,9,7.58.47-4.15-2.72-8.55-7.13-7.7-8.87-7.47M813.45,98.45H808.4c2,1.93,3.81,3.2,4.86,3.14s1-1.31.19-3.14m-500,330a22.77,22.77,0,0,0-4.66-10.39V450c4.21-5.15,6.2-13.49,4.66-21.53m13.82-130.6c8.25-2,12.8-12.37,10.3-23-2.45-10.44-10.84-17.48-18.92-15.88-4.46.9-7.94,4.23-9.86,8.83V285.2c3.31,8.9,11.05,14.45,18.48,12.64m195.27,67.91c4.59-1.87,5.87-9.91,2.93-17.91s-8.9-12.9-13.47-11.3-6.12,9.55-3.26,17.66,9.11,13.41,13.8,11.55M494,521.18c-2.25-7.47-7.25-11.63-11.21-9.38s-5.49,10.33-3.26,18,7.4,12,11.43,9.54,5.32-10.61,3-18.15M491.1,742.72c-2.14,2-3,7.42-1.69,12.29s4.06,7.22,6.27,5.23,2.91-7.53,1.64-12.35-4-7-6.22-5.17M508.33,444c4.37-2.19,5.7-10.39,3-18.3s-8.19-12.48-12.52-10.49-5.9,10.06-3.31,18.08,8.36,12.92,12.8,10.71m41.81,126.88c-2.69,1.94-3.36,8.21-1.45,14.06s5.68,9,8.39,7,3.27-8.37,1.33-14.14-5.62-8.86-8.27-6.94m-163.2-4.06c-5.09,2.9-7.66,12.48-5.74,21.48S389,602.19,394.08,599s7.49-12.86,5.47-21.7-7.6-13.39-12.61-10.54m122,33.48c-3,2.17-4,9-2.15,15.34s5.85,9.72,8.9,7.43,3.88-9.18,2-15.43-5.77-9.46-8.76-7.34M410.05,671c-3.91,2.77-5.76,11.08-4.12,18.61s6.2,11.41,10.12,8.44,5.62-11.34,3.95-18.75-6.1-11-9.95-8.3m1.64-279.86c-2.56-9.45-9.49-15.26-15.63-13.07s-9.35,11.87-6.9,21.63,9.72,16,16,13.41,9.05-12.39,6.48-22m18.25-57.49c6.23-2,8.88-11.26,6-20.6s-10-15.2-16.16-13.52-9.18,10.7-6.47,20.21,10.27,16,16.61,13.91M834.2,130.19c-1.56.24-.46,3.68,2.52,7.74s6.69,7.22,8.23,7,.34-3.8-2.61-7.84-6.57-7-8.14-6.86M487.24,380c5.07-2.05,6.78-10.63,3.92-19.09s-9.1-13.65-14.12-11.84-7.05,10.22-4.26,18.83S482.1,382,487.24,380"/></clipPath><linearGradient id="linear-gradient" x1="-2248.53" y1="1456.79" x2="-2247.53" y2="1456.79" gradientTransform="matrix(729.27, 0, 0, -729.27, 1639902.64, 1063835.46)" gradientUnits="userSpaceOnUse"><stop offset="0" stop-color="#85ffbd"/><stop offset="1" stop-color="#fffb7d"/></linearGradient></defs><title>dot-screen</title><g class="cls-2"><g class="cls-3"><g class="cls-4"><rect class="cls-5" x="118.8" y="1050.69" width="729.27" height="778.85"/></g></g></g><rect class="cls-1" width="4607.77" height="2810.94"/></svg>