<svg id="Layer_1" data-name="Layer 1" xmlns="http://www.w3.org/2000/svg" xmlns:xlink="http://www.w3.org/1999/xlink" viewBox="0 0 4607.77 2810.94"><defs><style>.cls-1{fill:none;}.cls-2{opacity:0.6;}.cls-3{clip-path:url(#clip-path);}.cls-4{clip-path:url(#clip-path-2);}.cls-5{fill:url(#linear-gradient);}</style><clipPath id="clip-path" transform="translate(-190 952.24)"><rect class="cls-1" x="403.34" y="59.15" width="642.67" height="788.13"/></clipPath><clipPath id="clip-path-2" transform="translate(-190 952.24)"><path class="cls-1" d="M597.8,79.21c-5.63,0-8.71,2.42-7,5.66s7.64,6.27,13.44,6.69,9.1-2.19,7.26-5.79-8-6.48-13.66-6.56M595,74.49c5.57-.08,8.41-2.9,6.23-6.25S592.88,62.62,587.5,63s-8,3.07-6.06,6.08,8,5.45,13.57,5.39m-25.7,4.38c-5.61-.07-8.88,2-7.43,4.75s7.24,5.35,13,5.77,9.24-1.77,7.64-4.88-7.6-5.58-13.22-5.64m4.21,34.07c.84,3,6.34,6.79,12.48,8.35s10.5-.08,9.58-3.55-6.71-7.14-12.74-8.25-10.14.41-9.32,3.45M587,126.09c-6.19-1.7-10.69-.53-10.27,2.65s5.75,7.54,12,9.68,11.07.93,10.56-2.71-6.12-7.91-12.29-9.62M540.88,78.51c-5.62-.08-9.07,1.64-7.83,3.85s6.84,4.44,12.61,4.86,9.39-1.38,8-4-7.18-4.66-12.78-4.74M560.29,65c-5.39.4-8.25,2.71-6.51,5.26s7.56,4.61,13.11,4.53,8.59-2.49,6.69-5.39-7.91-4.8-13.29-4.4m-2.91,66.65c-6.25-2.32-11.21-2.06-11.22.57s4.87,7.06,11.16,9.84,11.51,2.49,11.53-.63-5.22-7.47-11.47-9.78m-10-40.87c-5.81-.57-9.65.82-8.69,3.2s6.49,5.09,12.44,6,10-.51,8.9-3.28-6.82-5.39-12.65-6m26.16,88.41c-.91,3.45,3.28,9.63,9.62,13.86s12.46,4.48,13.43.51-3.65-10.12-10-13.85-12.1-3.91-13-.52m3.37-85.49c-5.83-.57-9.51,1.25-8.36,4.15s6.82,6.08,12.8,7,9.89-1,8.59-4.25-7.18-6.36-13-6.93m-34,12.53c.67,2.48,6.06,5.74,12.16,7.28s10.53.4,9.77-2.51-6.38-6.08-12.38-7.2-10.22,0-9.55,2.43m12.94,11.23c-6.14-1.7-10.73-1-10.4,1.56s5.52,6.42,11.73,8.54S568.2,129,567.78,126s-5.85-6.79-12-8.48m-61.09-9c-6.14-2.28-11.11-3-11.24-1.63s4.67,4.7,10.84,7.43,11.37,3.45,11.45,1.62-4.91-5.15-11.05-7.42m-79.9,26.89c3.07,0,1.89-6.38-2.53-14.2a61.36,61.36,0,0,0-8.92-12.27v14.26c3.87,6.86,8.69,12.15,11.45,12.21M530.63,63.91c5.08-.49,7.85-2.62,6.38-4.76H517.82a1.64,1.64,0,0,0,.16,2.19c1.71,1.91,7.33,3.11,12.65,2.57M423.84,90.25c5.78,4.63,11.27,8.15,12.2,7.79s-3.26-4-9.14-8.13-11.23-7.55-12-7.68,3.16,3.43,8.93,8m-12.21-1.18c5.28,6,10.84,10.92,12.37,10.92s-1.85-4.58-7.36-10.07-10.86-10.25-12.1-10.73,1.83,3.89,7.09,9.88m6.82,1c5.57,5.3,11.11,9.51,12.33,9.3s-2.61-4.3-8.33-9.12-11.11-8.84-12.1-9.15,2.56,3.7,8.1,9m-2.32,31.25c4.57,7.61,10.54,13.69,13.22,13.42s.65-6.33-4.25-13.4-10.61-12.86-12.86-13.12-.67,5.54,3.89,13.1m63-.87c-.72,1.33,3.47,5.62,9.55,9.68s11.81,5.92,12.61,4.11-3.67-6.15-9.81-9.74-11.61-5.35-12.35-4.05m-4.61,6.42c-1.11,1.24,2.71,6,8.65,10.78s11.91,7.28,13.11,5.53-2.9-6.61-9-10.88-11.7-6.63-12.79-5.43M533.07,67c-5.38.4-8.46,2.36-7,4.44s7.13,3.75,12.67,3.7,8.77-2.12,7.13-4.54-7.47-4-12.84-3.6m-39.16,49.52c-6.17-2.91-11.39-4.15-11.82-2.8s4.12,5.16,10.28,8.54,11.62,4.65,12.06,2.84-4.35-5.68-10.52-8.58m18.56-38.39c-5.6-.06-9.24,1.24-8.19,3s6.45,3.53,12.21,3.94,9.54-1,8.36-3-6.78-3.8-12.38-3.87m.89,51.5c-.43,2,4.12,6.43,10.33,9.82s11.8,4.19,12.23,1.67-4.4-6.89-10.63-9.83-11.51-3.66-11.93-1.66m-8.3,20.12c-1.24,1.95,2.51,7.4,8.55,12.22s12.21,6.82,13.55,4.34-2.78-8-8.94-12.29-12-6.19-13.16-4.27M427.92,89.68c5.93,3.94,11.32,6.82,12,6.36s-3.81-3.66-9.81-7.16-11.23-6.26-11.78-6.27,3.7,3.12,9.62,7.07M488,168.35c-2.17,1.72.44,8.16,6,14.52s12.25,9.81,14.64,7.53-.65-8.88-6.47-14.69-12.05-9-14.19-7.36m22.16-28.54c-.8,2,3.39,6.92,9.55,11s12,5.45,12.9,2.94-3.64-7.44-9.85-11.07-11.76-4.88-12.6-2.9M525.9,120c-6.19-2.3-11.15-2.53-11.24-.53s4.76,5.87,11,8.61,11.46,3,11.51.51-5.07-6.3-11.26-8.59m-6.67,58.61c1.79-2.38-1.77-8.46-7.79-13.53s-12.06-7.54-13.72-5.73,1.54,7.81,7.39,13.39,12.29,8.27,14.12,5.87M444.5,104.4c-.95.56,2.93,4.71,8.78,9.38s11.61,7.74,12.66,6.69-3.07-5.3-9-9.51-11.46-7.07-12.4-6.56m2.3,12.75c5.66,5.42,11.51,9.13,12.95,8.21s-2.31-5.65-8.12-10.55-11.44-8.42-12.66-8,2.2,5,7.83,10.38m1.74-15.72c-.67.63,3.56,4.35,9.57,8.35s11.56,6.38,12.3,5.26-3.75-4.9-9.81-8.42-11.41-5.82-12.06-5.19m32.73,38.32c-5.88-4.95-11.73-8-13.18-6.92s1.85,6.39,7.6,11.87,11.91,8.69,13.53,7.06-2-7-8-12m140.4,130.56c-2.4,5.09.5,14,6.8,20.05s13.78,6.36,16.31.67-.95-14.66-7.41-20.09-13.32-5.64-15.7-.63m-.54-115c-6.34-2.34-11.24-1.09-11.14,2.86s5.22,9.49,11.62,12.33,11.65,1.5,11.51-3-5.64-9.87-12-12.23M463.73,97c-6.08-2.24-11.06-3.45-11.21-2.7s4.61,3.56,10.71,6.25,11.24,3.92,11.4,2.72-4.81-4-10.9-6.27M620,192.29c6.46,3.54,12.2,2.66,12.58-1.93s-4.73-10.73-11.17-13.76-11.75-2.19-12.18,1.87,4.31,10.27,10.77,13.82m-78.35-32.91c-.9,2.72,3.31,8.25,9.56,12.42s12.26,5,13.19,1.73-3.64-8.74-9.95-12.42-11.93-4.4-12.8-1.73M654.85,79.94c-5.65-.08-8.33,3.22-6.18,7.43s8.52,8.12,14.35,8.55,8.76-3,6.42-7.65-9-8.26-14.59-8.33M599.43,220.5c-1.56,4.25,2.08,11.74,8.45,16.81s13.08,5.37,14.74.57-2.49-12.31-8.93-16.82-12.68-4.73-14.26-.56M545,145.75c-.44,2.69,4.17,7.66,10.46,11.11s11.92,3.7,12.38.5-4.49-8.14-10.8-11.11-11.61-3.18-12-.5m22.52,50.8c-1.45,3.47,2.21,10.24,8.46,15.23s12.8,5.89,14.35,1.86-2.55-10.82-8.9-15.26-12.43-5.22-13.91-1.83m45.06,65.61c2.33-4.8-1.12-13-7.47-18.37s-13-6.14-15.24-2,.74,12.36,6.92,18.27,13.43,6.88,15.79,2.06m16-156.51c1.56,4,7.58,8.07,13.6,9s9.67-1.86,8-6.25-8-8.29-13.87-8.87-9.24,2.11-7.7,6.08M482.15,264.2c4.77-2.41,4.58-11.38-.21-19.84s-12-13.63-16.35-11.85-4.72,10.4-.4,19.43,12.09,14.7,17,12.26m-3.29-52.77c3.52-1.85,2.05-9.47-3.07-16.9s-11.72-12.19-14.92-11-2.19,8.64,2.59,16.6,11.79,13.13,15.4,11.26m27,98.14c5.33-3.32,5.48-13.21.55-21.9S493.79,274.35,488.84,277s-5.68,12.22-1.24,21.54,12.81,14.38,18.28,11.05m25-17.57c4.44-3.58,3.45-12.9-1.92-20.7s-12.84-11.48-17-8.59-3.75,12,1.3,20.43,13.07,12.48,17.6,8.86m-111-80.64c3.6,9.64,10.75,16.75,15.8,15.59s5.49-9.63,1.41-18.7-10.81-15.7-15.25-15.14-5.5,8.63-2,18.25m39.18,8.71c4.21-1.55,3.67-9.63-1-17.88S446.77,188.3,443,189.24s-3.74,8.68.47,17.47,11.34,14.92,15.65,13.36M410.45,326a28.77,28.77,0,0,0-7.11-13.42v36.68c6.38-3.65,9.42-13.32,7.11-23.26m2.46-79.46c-6.12,1-8.94,10.19-6.08,21s10.84,18.63,17.57,17.07c6.55-1.56,8.86-11.33,5.39-21.57s-10.94-17.43-16.88-16.5m40.89-73.93c3.07-1,1.35-7.87-3.66-15.11S439,145,436.25,145.45s-1.41,7.05,3.24,14.81,11.17,13.41,14.31,12.38m-4.71-30.3c-2.32.76-.19,6.92,4.92,13.89s11.55,11.78,14.14,10.48.09-7.68-5.3-14.14-11.47-10.95-13.76-10.23M557.48,61.27c2.64-.25,4.62-1.05,5.67-2.12H545.94c2.67,1.6,7.25,2.55,11.54,2.12m-129.12,59.9c5,6.86,11,12.12,13.24,11.57s-.45-6.17-5.75-12.5-11-11.32-12.9-11.34.42,5.45,5.41,12.27M408.41,231.65c5.72-.66,7.49-9.49,4.12-19.4-2.12-6.23-5.61-11.6-9.19-14.69V230.3a8.08,8.08,0,0,0,5.07,1.35M536,173c-1.35,2.71,2.36,8.79,8.5,13.7s12.5,6.35,14,3.13-2.66-9.38-8.89-13.76S537.37,170.33,536,173m-119.59,6.84c4.25-.32,4.37-7.92.4-16.73-3.81-8.51-9.72-15.41-13.49-16v19.15c3.62,7.94,9.19,13.91,13.09,13.6M623.18,74.15c5.54-.06,8.17-3.28,5.75-7.09S620.07,60.62,614.7,61s-7.82,3.45-5.57,6.92,8.48,6.28,14,6.23M606.5,96.63c-5.85-.57-9.37,1.68-8,5.13s7.2,7.07,13.18,8,9.8-1.43,8.31-5.26-7.58-7.34-13.45-7.91m-17.38,46.8c-6.28-2.34-11.22-1.58-11.2,1.7s5.05,8.26,11.4,11.07,11.58,2,11.5-1.77-5.41-8.68-11.7-11M626.3,79.58c-5.64-.08-8.52,2.82-6.61,6.53s8.08,7.21,13.89,7.62,8.92-2.61,6.84-6.7-8.48-7.38-14.12-7.45M436.63,177.12c3.64-.71,2.78-8-1.75-16S424.19,147,421,147.13s-2.78,7,1.31,15.6,10.64,15.13,14.37,14.39M517,199.26c-2.45,2.51,0,9.72,5.72,16.19s12.69,9.4,15.36,6.31-.27-10.42-6.2-16.35-12.46-8.61-14.88-6.15m-13.85,12.19c-3.07,2.37-1.39,10.06,4,17.38s12.64,11,16,8.12,1.16-10.84-4.48-17.59-12.42-10.17-15.45-7.91m39-20.57c-6.1-5.13-12.37-7.11-14.26-4.52s1.26,9.28,7.22,15,12.66,7.83,14.7,4.65-1.53-9.93-7.66-15.09m-56,31.78c-3.75,2.11-3,10.29,1.93,18.46s12.42,12.81,16.5,10.08,2.76-11.13-2.48-18.75-12.29-11.87-15.95-9.79m-10.28-46.13c-2.71,1.52-.8,8.44,4.42,15.58s12.1,11.44,15.07,9.32.63-9.22-4.9-15.83-11.95-10.58-14.59-9.07m-37.27-56.82c5.37,6.11,11.29,10.55,13.12,9.81s-1.44-6-7-11.55-11.28-9.85-12.82-9.64,1.35,5.26,6.73,11.38m150.49,41.65c-6.36-3-11.7-2.71-12.12.67s4.21,8.93,10.59,12.44,12.05,3.18,12.48-.7-4.59-9.42-11-12.41m-129.4-23.31c-1.89,1,.9,6.69,6.36,12.91s11.78,10.19,13.89,8.7-1-7.39-6.72-13.09-11.68-9.45-13.53-8.52m282.54,73.71c.48,6.25,5.71,13.55,11.87,16.23s10.88-.57,10.27-7.24-6.21-13.79-12.29-16-10.36.87-9.85,7m-4.65-72.69c-5.7-1-8.88,2.49-7.26,8s7.51,11.33,13.34,12.78,9.31-2.28,7.56-8.23-7.94-11.47-13.64-12.57M719,256.65c-6.73-3.87-12.67-1.81-13.66,4.65s3.41,15.47,10.13,19.93,13.26,2.34,14.22-4.78-4-15.87-10.69-19.8m57.87-30.81c.57,6.23,5.41,13.3,11,15.72s9.75-1,9.09-7.57-5.83-13.47-11.34-15.54-9.33,1.21-8.74,7.39m-58.1-34.37c-6.5-2.42-11.23.43-10.82,6.42s5.89,13.33,12.48,16.23,11.77,0,11.28-6.59-6.43-13.64-12.94-16.06M551.49,273.29c3.62-3.78,1.68-12.54-4.08-19.44s-12.91-9.76-16.31-6.63-2,11.72,3.51,19.21,13.18,10.67,16.88,6.86M713.84,161.11c-6.35-1.73-10.47,1.39-9.47,7.09s6.86,12.25,13.33,14.46,11-1.06,9.87-7.28-7.39-12.51-13.73-14.27m55.42-15c-5.16-1-7.85,2.59-6.23,8.11s7.11,11.13,12.39,12.42,8.27-2.47,6.5-8.32-7.51-11.22-12.66-12.21M679.52,73.48c5.58-.08,7.79-4.06,4.8-8.78A16.77,16.77,0,0,0,678,59.15H664.2c-1.28,1.6-1.3,3.89.3,6.38,2.8,4.4,9.45,8,15,8m66.76,97.44c-5.9-1.6-9.61,1.74-8.53,7.61S744.44,191,750.44,193s10.1-1.49,8.9-7.82-7.17-12.59-13.06-14.27m-13.67,70.36c.16-6.79-5.3-14.79-12-17.92s-12-.63-12.22,5.6,4.75,14.41,11.44,18.07,12.52,1.08,12.73-5.75M605.82,199.33c-1,4.18,3.27,11,9.72,15.29s12.65,4,13.66-.75-3.72-11.5-10.16-15.28-12.23-3.41-13.22.74m12.57-64.57c-6.23-1.72-10.65-.06-10.1,3.74s6,8.68,12.29,10.86,11.09.43,10.42-3.84-6.38-9-12.61-10.76M512.31,99.6c.52,1.91,5.78,4.69,11.84,6.22s10.61.85,10-1.47-6.09-5.07-12.06-6.17-10.29-.5-9.76,1.42m101.13,15.57c-6.06-1.12-10,.86-9.07,4.5s6.65,7.85,12.82,9.41,10.44-.53,9.36-4.59-7-8.18-13.11-9.32M462.83,101.89C456.75,99,451.57,97.3,451.19,98s4.11,4,10.19,7.3,11.45,5.13,11.88,4-4.31-4.48-10.43-7.36M650,143.49c-6.28-1.72-10.6.41-9.93,4.83s6.26,9.86,12.63,12.05,11-.06,10.25-5-6.69-10.18-13-11.91m56.07-11.07c-6.14-1.15-9.7,2.22-8.17,7.62s7.71,11.13,14,12.75,10.19-2,8.52-7.86-8.19-11.37-14.35-12.51m-61.91-11.51c-6.07-1.15-9.93,1.29-8.78,5.5s7,8.94,13.18,10.54,10.39-1,9.09-5.68-7.39-9.24-13.49-10.36M812.33,395.14c5.2,4.1,10.78,1.41,12.12-6s-1.93-16.26-7.11-20-10.31-1-11.7,5.91,1.51,16,6.69,20.08m37.4-172.71c4.19,1.37,6.67-2,5.47-7.58s-5.62-10.85-9.74-12.07-6.4,2.12-5.25,7.44,5.35,10.82,9.52,12.21M856,142.3c3.15.46,4.31-2.61,2.54-6.82s-5.79-7.81-8.88-8.15S845.48,130,847.2,134s5.64,7.83,8.78,8.28m-16.71,37.18c4,1,6.06-2.5,4.4-7.68s-6.25-9.91-10.19-10.69-5.79,2.58-4.25,7.55,6,9.85,10,10.82m8.29,75c.65,5.69,4.61,11.81,8.9,13.66s7.34-1.47,6.61-7.37-4.88-11.91-9.13-13.51-7.05,1.58-6.38,7.22M844,63.15c1.79,0,2.25-1.75,1.26-4h-7.7c1.87,2.34,4.55,4.08,6.44,4m14.42,231.36c-4.36-2.11-7.68,1-7.54,7s3.7,12.8,8.1,15.16,8-.83,7.79-7.08-4-12.9-8.35-15m7.28,66.54c.46-6.52-2.93-13.95-7.39-16.6s-8.31.27-8.78,6.54,2.61,13.82,7.08,16.73,8.64-.08,9.09-6.67M524.78,108.92c-6.1-1.69-10.75-1.46-10.52.5s5.32,5.29,11.49,7.41,11,1.86,10.75-.54-5.63-5.69-11.72-7.37m324,312.38c4.5,3.55,9.26.78,10.44-6.11s-1.73-15-6.21-18.26-8.92-.53-10.1,6,1.37,14.87,5.87,18.35m-41.42-248c4.7,1.14,7.23-2.57,5.46-8.2s-7-10.8-11.6-11.7-6.88,2.67-5.24,8,6.67,10.73,11.38,11.87M779,181.18c-5.35-1.51-8.59,2-7.45,7.81s6.35,12.21,11.77,14,9-1.77,7.76-8-6.74-12.35-12.08-13.85M812,240.07c.65,6.08,5.09,12.83,10.11,15s8.61-1.29,7.9-7.68-5.43-13-10.38-14.82-8.23,1.46-7.63,7.52m3.15-110.21c1.94,4.65,6.56,8.94,10.4,9.51s5.45-2.92,3.43-7.72-6.78-9-10.55-9.37-5.2,3-3.28,7.58M707.3,72.41c5.15-.07,7-4.09,3.94-8.88A16.64,16.64,0,0,0,707,59.15H691.73A6.78,6.78,0,0,0,693,64.32c2.84,4.49,9.21,8.17,14.33,8.09m104.78,119.3c-4.78-1.35-7.58,2.12-6.42,7.82s6,11.77,10.82,13.39,7.91-2,6.67-8-6.29-11.87-11.07-13.23M831.17,339.6c.61-7-3.28-15.15-8.44-18.2s-9.62-.12-10.25,6.55,2.88,15,8.06,18.35,10.08.38,10.63-6.7m-7.85-63.8c-5.06-2.44-9,.75-8.92,7.11s4.08,13.87,9.17,16.63,9.36-.51,9.26-7.26-4.44-14-9.51-16.48m14.45-173.41c3,.17,3.79-2.86,1.73-6.75s-6.13-7-9.07-7.09-3.68,2.88-1.68,6.63,6,7,9,7.21M651.34,73.82c5.56-.07,8-3.67,5.28-7.94-2.2-3.45-7-6.06-11.61-6.73h-4.15c-4.6.74-6.39,3.93-4,7.57,2.51,3.94,9,7.16,14.52,7.1M423,74.53c5.33-.52,8.95-1.39,8.08-1.89s-5.85-.23-11,.59-8.73,1.66-8,1.87,5.58,0,10.9-.57m-7.38,25c1.79.21-1-4.75-6.19-11-2.1-2.5-4.21-4.88-6.08-6.88V87c4.9,6.69,10.42,12.37,12.27,12.58m11.82-22.45c-5.58-.07-9.68.08-9.21.32a99.17,99.17,0,0,0,11.19,1.21c5.72.41,9.89.26,9.3-.33s-5.68-1.12-11.28-1.2m-3.36-2c-5.39.4-9.22.9-8.61,1.15a90.32,90.32,0,0,0,11.09.28c5.53-.06,9.43-.59,8.69-1.14s-5.77-.67-11.17-.29M403.34,90.27v6.19a5.87,5.87,0,0,0,2.15,1.37c1.68.37.65-2.86-2.15-7.56m15.49-17.51c5.07-1,8.41-2.12,7.4-2.56s-5.83.2-10.73,1.43-8.19,2.36-7.36,2.53,5.59-.45,10.69-1.4M407.29,60.62c.89.13,2.88-.46,5.16-1.47h-5.18c-.63.82-.69,1.37,0,1.47m7.18,1.32c1.32.28,5.43-.94,9.43-2.79h-7.6c-2,1.45-2.82,2.55-1.83,2.79m6.35,6.15c-1.13-.38-5.8.63-10.43,2.25s-7.6,3-6.67,3.1,5.55-.86,10.37-2.21,7.85-2.76,6.73-3.14m-5.91-1.74c-1.22-.3-5.74,1.05-10.06,3-.55.24-1,.47-1.51.7V71.9c1.64-.5,3.57-1.15,5.53-1.89,4.54-1.69,7.24-3.37,6-3.66m36.43,6.71c-5.39.4-9,1.26-8.23,1.94s5.93,1.23,11.47,1.17,9.28-1,8.33-2-6.2-1.5-11.57-1.1m4.4,4.38c-5.6-.07-9.54.46-8.88,1.2s5.77,1.68,11.51,2.12,9.78-.15,9-1.24-6-2-11.63-2.08M444,87.67c-.06-.6-5.05-2.45-11-4.11S422.21,81,422.21,81s4.88,2,10.89,4.09,11,3.26,10.89,2.63m15.28-5.56c-5.78-.57-10-.44-9.51.34s5.58,2.18,11.45,3.11,10.25.78,9.66-.36-5.81-2.54-11.6-3.09m-37.6-2.27s5.13,1.62,11.09,3.11,10.65,2.21,10.39,1.58-5.32-2-11.21-3.12-10.27-1.57-10.27-1.57m-1.35-1.2a109.45,109.45,0,0,0,11.17,2.14c5.86,1,10.3,1.2,9.89.59s-5.53-1.58-11.3-2.16-10.1-.81-9.76-.57m12.16,8.29c6,2.67,11.15,4.39,11.3,3.79S439.07,87.83,433,85.6s-11.15-3.76-11.15-3.76,4.54,2.42,10.6,5.09m-1.72,1.58c6,3.3,11.28,5.59,11.68,5s-4.3-3.29-10.34-6.15-11.15-5-11.5-5,4.16,2.79,10.16,6.08M461.84,87c-5.91-1.11-10.4-1.37-10.12-.57S457.06,89,463,90.53s10.65,1.76,10.29.58-5.56-3-11.49-4.14m1.52,5c-6-1.67-10.76-2.38-10.69-1.58s5,3.09,11.08,5.17,11,2.8,10.86,1.6-5.23-3.53-11.25-5.19M484.1,77.81c-5.61-.08-9.4.83-8.56,2.07s6.12,2.59,11.85,3,9.68-.55,8.69-2.15-6.4-2.9-12-3M478.59,71c-5.37.4-8.86,1.62-7.81,2.78s6.3,2.08,11.85,2,9.13-1.35,7.92-2.83-6.59-2.35-12-1.95M465.1,68.2c1.2,1.07,6.44,1.54,11.75,1s8.56-2.09,7.19-3.47-6.73-1.75-11.87-.93-8.27,2.33-7.07,3.39m52.82,19.69c-5.81-.58-9.78.41-9,2.24s6.18,4.1,12.1,5.07,10.08-.09,9.17-2.3-6.46-4.45-12.27-5M409.08,77.2c.7.13,1.35.24,1.89.36.55.28.91.46,1,.48a5.16,5.16,0,0,0-.88-.46l.55.15,1.58.59-1.1-.46c.91.27,1.47.42,1.47.42L412,77.77c.69.13,1.12.23,1.12.23s-.6-.16-1.59-.39a2.37,2.37,0,0,1,.4,0,8.2,8.2,0,0,0-.88-.14l-2-.87-3.76-2-2-1.3a15.83,15.83,0,0,0,1.87,1.24c-.54-.31-1.1-.61-1.68-.91-.19-.16-.19.28-.19.28.21.11.44.21.65.3s.38.29.57.45c-.4-.2-.82-.37-1.22-.56v.56l2.6,1c.2.15.35.22.47.3l-3.07-1v.56l4,1.12c-1.46-.27-2.7-.57-4-.91v1l.48,0-.48,0a20.16,20.16,0,0,0,2.67.19c1.16.14,2.19.23,3.07.35m.49-.25a6.17,6.17,0,0,0-.61-.21,3.71,3.71,0,0,1,.61.21m-1.41-.78a2.68,2.68,0,0,0-.49-.21,2,2,0,0,1,.49.21M405.42,75l-.42-.3,1.94.92a12.48,12.48,0,0,1-1.52-.62m1.2,1a10.12,10.12,0,0,1,1.79.57c-.44-.11-1.1-.32-1.79-.57m.93.63c.48.13,1,.26,1.39.4-.55-.12-1.06-.25-1.58-.39h.19m-3.88-.27.44-.06c.55.1,1.08.19,1.62.31a3.31,3.31,0,0,0-.44,0c-.52-.1-1.05-.17-1.62-.27m.51.42h.46l1.22.11c-.52,0-1.09,0-1.68-.11m2.13-.06,1.32.25c-.63-.08-1.12-.15-1.64-.25ZM494,100.4c-6.06-1.67-10.74-1.92-10.59-.55s5.15,4.2,11.26,6.29,11,2.34,10.81.55S500,102.08,494,100.4m-2.07-7.83c-5.94-1.12-10.37-.93-9.95.4s5.55,3.66,11.57,5.19,10.63,1.29,10.14-.44-5.82-4-11.76-5.15M470.18,63.13c5.05-.93,7.93-2.74,6.43-4H464.93c-4.86,1.24-7.66,3-6.31,3.94s6.51,1,11.56,0m-36.77,5.49c1.09.55,6.06.27,11.13-.66s8.17-2.44,6.92-3.3-6.33-.5-11.21.72-7.93,2.67-6.84,3.24m5.2,3c1,.63,6,.74,11.32.21s8.77-1.73,7.62-2.67-6.27-1-11.41-.17-8.5,2-7.53,2.63m-11-5.7c1.18.5,6-.17,10.84-1.52s7.58-3.07,6.19-3.81-6.31,0-10.91,1.58-7.34,3.28-6.12,3.75m-6.35-2.22c1.3.37,6-.64,10.5-2.35a21.46,21.46,0,0,0,4.58-2.23h-8.81l-.86.36c-4.3,1.94-6.7,3.81-5.41,4.22M505.84,69c-5.4.4-8.66,2-7.4,3.6s6.71,2.92,12.25,2.84,9-1.73,7.53-3.68-7-3.16-12.38-2.76M479.29,86.29c.63,1.29,5.87,3.14,11.78,4.09s10.16.33,9.41-1.33-6.13-3.49-11.93-4.06-9.89,0-9.26,1.3m24.45-19.73c5.32-.51,8.37-2.46,6.73-4.25s-7.19-2.51-12.31-1.69-8.06,2.66-6.59,4.15,6.87,2.33,12.17,1.79M408.55,65c-.82-.15-2.82.48-5.21,1.5v2.54c4.14-2,6.48-3.83,5.21-4M895.1,102c1.53.1,1.81-1.69.59-3.94s-3.47-4.1-5-4.15-1.77,1.69-.57,3.9,3.43,4.12,5,4.19M546.54,230.81c-2.71,3.34-.4,11.3,5.41,17.93s13.17,9,16.1,5,.09-12-5.95-18.09-12.86-8.15-15.56-4.88m347.78,137.5c-3.68-2.21-6.86.51-7.18,6.12s2.28,12.17,6,14.53,7.07-.39,7.39-6.21-2.51-12.21-6.19-14.44m-26,122.83c-1.6,6.19,0,14,3.7,17.43s8.17,1.07,9.81-5.32-.25-14.08-4-17.37-7.93-.88-9.55,5.26m27.13,98.91c-2.85-3-6.55-1-8.46,4.27s-1.14,12.23,1.7,15.34,6.76,1.2,8.65-4.31,1-12.31-1.89-15.3m-1.54-276.16c-3.6-1.75-6.29,1.09-6.1,6.4s3.22,11.21,6.84,13.17,6.5-1,6.27-6.5-3.41-11.3-7-13.07M819.55,739c-3.36,5.75-4.08,13.76-1.45,17.95s7.66,2.86,11.07-3S833.08,740,830.39,736s-7.49-2.65-10.84,3m22.33-287.17c-4.5-3.87-9.55-1.45-11.49,5.37s-.07,15.83,4.4,20,9.89,1.73,11.87-5.45-.28-16-4.78-19.93m16.31,213.64c-2.55,5.58-2.49,13,.27,16.63s7.18,2,9.81-3.73,2.35-13.11-.47-16.6-7-1.81-9.61,3.7m3.8-97.87c2.41-6.59,1.19-15.07-2.5-18.88S851,547,848.63,553.33s-1.51,14.9,2.17,19,8.77,1.94,11.19-4.71m34.56,146.93c-1.81,4.17-1.75,9.57.17,12.1s5,1.15,6.88-3.1,1.64-9.63-.28-12.08-5-1.07-6.77,3.08m-40.32,81.25c-2.42,4.33-2.92,10.16-1.05,13.07s5.34,1.75,7.78-2.63,2.8-10.23.93-13.07-5.26-1.66-7.66,2.63M817,65.59c2.78-.07,3.29-3,1.12-6.44H807.72c2.34,3.74,6.42,6.52,9.26,6.44m49.48,36.72c2.27.13,2.78-2.32,1.11-5.45s-4.86-5.68-7.09-5.74-2.69,2.33-1.07,5.4,4.78,5.68,7.05,5.79m-76.65-34.6c3.48-.08,4.25-3.51,1.64-7.61-.21-.32-.46-.64-.71-1H778.18a12.5,12.5,0,0,0,.82,1.49c2.52,4,7.34,7.14,10.81,7.07M403.34,833v14.33h23.11a20.07,20.07,0,0,0-.11-2.81C425,833.55,415.2,829,403.34,833M875.07,221c1,4.72,4.64,9.49,8.07,10.59s5.37-1.92,4.26-6.78-4.82-9.47-8.19-10.5-5.22,2-4.14,6.69m-9-51.77c-3.25-.63-4.68,2.36-3.25,6.72s5.18,8.66,8.48,9.42,4.81-2.31,3.35-6.83-5.34-8.63-8.58-9.31m20.34-24.35c2.4.34,3.18-2.15,1.71-5.55s-4.58-6.33-6.94-6.59-3.08,2.15-1.66,5.47,4.5,6.33,6.89,6.67m2.3,117.66c-3.49-1.35-5.75,1.58-5.07,6.57s4,10.37,7.51,11.87,5.91-1.5,5.24-6.69-4.17-10.4-7.68-11.75m10.23-84.74c-2.47-.51-3.46,1.95-2.28,5.53s4.13,7,6.65,7.58,3.58-1.94,2.36-5.6-4.25-7-6.73-7.51m-315.71,633c-9.15,7.41-14.71,20.78-12.12,30.06a10.74,10.74,0,0,0,4.42,6.41h12a26.63,26.63,0,0,0,5.66-3.59c9.29-7.77,14.28-21.4,11.39-30.26s-12.33-10-21.32-2.62m36.73-185.46c-4.24-9.63-14.31-11.24-22.84-3.87s-12.88,21.74-9,32,14.75,12.29,23.8,4.13,12.34-22.61,8-32.29m82.45-67.82c5.91-8.15,6.2-21,1-28.62s-13.66-7.41-19.38.15-6.74,20.41-1.79,28.55,14.18,8.21,20.18-.08M644.61,687.09c-3.9-8.88-13.4-9.77-21.57-2.15s-12.38,21.42-8.8,30.85,13.79,10.61,22.39,2.34,11.89-22.12,8-31M674.45,632c-6.78,7.78-9.24,20.76-5.1,29.14s13.47,8.65,20.51.36,8.75-21.38,4.37-29.27-13.07-7.9-19.78-.23m-4.86,119.65c-3.41-7.87-12-8.12-19.51-.69s-11.36,20.2-8.2,28.51,12.37,8.74,20.19.8,10.93-20.73,7.52-28.62M587.94,599.12c9.22-7.76,12.56-22.73,7.93-33.12s-15.09-12.8-23.84-5.79c-8.92,7.14-13.14,21.66-9,32.76s15.53,14.06,24.92,6.15m-23.78,73.41c-3.56-10.74-14.42-13.45-24.6-6.32-10.38,7.24-16.63,22.16-13.53,33.57s14.81,14.64,25.67,6.71c10.67-7.83,16.08-23.15,12.46-34m-19.64-65.94c-3.89-11.49-15.11-15.15-25.52-8.46-10.63,6.78-16.92,22-13.64,34.24s15.47,16.56,26.68,9c11-7.45,16.36-23.17,12.48-34.73M584.29,741.3c-3.28-9.93-13.57-11.77-23.4-4.38s-16,21.93-13.1,32.43,14,12.79,24.3,4.69c10.23-7.95,15.49-22.75,12.2-32.74m243-210.8c2.82-7.37,1.39-17.07-3.07-21.64s-10.17-2.52-13,4.55-1.69,16.79,2.65,21.7,10.48,2.84,13.38-4.61M806.48,418.92c-5.2-4.38-11-2.15-13.17,5.05s-.07,17,5.05,21.89,11.42,2.56,13.66-5.12-.38-17.36-5.54-21.82M784.61,571.34c-3.82,7.33-3.7,17.77.54,23.44s11.06,4.07,15-3.59,3.3-18.08-1-23.4-10.7-3.68-14.48,3.55m36.24,46.36c-3.24,6.65-3.17,15.81.39,20.52s9.27,3,12.6-3.93,2.88-16-.74-20.44-9-2.71-12.25,3.85M784,683.89c-4.22,6.82-5.11,16.68-1.74,22.07s9.81,4.15,14.1-2.94,4.8-16.88,1.33-22-9.48-3.81-13.69,2.91m-78.87,6.79c-6.16,7.54-8.44,19.49-4.8,26.86s12,7,18.36-.91,8-19.93,4.2-26.93-11.64-6.46-17.76,1m29.15-113.15c-4.71-6.92-12.65-6.23-18,1.45s-6.44,19.93-1.93,27.34S727.4,613.24,733,605s6-20.49,1.26-27.44m35.52,236.89c-4.33,5.83-5.91,14.46-3.47,19.26s8.08,3.89,12.41-2.17,5.69-14.65,3.2-19.29-7.87-3.6-12.14,2.2m-32.93-63c-5.33,6.92-7.35,17.46-4.24,23.63s10.24,5.43,15.66-1.77,7-17.74,3.81-23.63-9.91-5-15.23,1.77m28.79-123.2c-4.11-6.08-11.2-5-16.08,2.38s-5.9,18.67-1.9,25.15,11.56,5.47,16.61-2.35,5.51-19.07,1.37-25.18M946.8,561.39c-.84,3.83,0,8.4,2.06,10.19s4.34.18,5.18-3.71-.13-8.4-2.14-10.18-4.25-.09-5.1,3.7m60.76-112c0-1.85-.74-3.87-1.75-4.48s-1.76.4-1.83,2.25.74,3.85,1.73,4.48,1.81-.39,1.85-2.25m-1.39,272.13c-.71,2.38-.38,5.19.65,6.33s2.42.09,3.12-2.29.37-5.2-.68-6.3-2.46-.08-3.09,2.26m-.69-341.34c-.13-1.73-1-3.52-2-4s-1.63.54-1.5,2.27,1,3.54,2,4,1.68-.52,1.52-2.27m-18.1,217.55c-.42,2.08.06,4.48,1.07,5.41s2.19,0,2.63-2.12-.08-4.49-1.11-5.41-2.17.06-2.59,2.12m-12.5,216.93c-1,2.5-1,5.59.1,6.9s2.63.36,3.6-2.15.93-5.59-.12-6.88-2.59-.33-3.58,2.13m7.8-562.91c-.9-.26-1.32.73-.92,2.23s1.41,3,2.31,3.26,1.35-.74.93-2.25a4.7,4.7,0,0,0-2.32-3.24m-21.54,54c1.85.78,3-1.08,2.54-4.15s-2.42-6-4.23-6.84-3,1.13-2.48,4.11,2.32,6.12,4.17,6.88m38.3,214.52c-.21,2,.42,4.19,1.44,5s2-.22,2.22-2.2-.43-4.2-1.46-4.92-2,.23-2.2,2.17M978.39,153.39c.82.1,1-.93.34-2.3s-1.77-2.57-2.59-2.67-1,.92-.36,2.29,1.79,2.57,2.61,2.68M1001,206.08c-.56-1.47-1.68-2.84-2.54-3s-1.12.88-.59,2.34,1.66,2.84,2.51,3.05,1.17-.87.62-2.36m43.15,262.52c-1-.64-1.81.47-1.81,2.45s.79,4.1,1.81,4.75,1.85-.48,1.83-2.48-.82-4.11-1.83-4.72m-2.83-66.93c1,.52,1.62-.58,1.48-2.47s-1.09-3.77-2.06-4.27-1.66.63-1.47,2.47,1.07,3.76,2,4.27M871.89,59.15h-4.07a5.09,5.09,0,0,0,3,1.39c.8,0,1.12-.57,1.1-1.39m96.17,359.33c-1.94-1.18-3.56.61-3.7,4s1.38,7.22,3.34,8.46,3.68-.57,3.76-4-1.46-7.24-3.4-8.44M678.16,819.69c-6.63,6.9-9.92,18.16-7.2,25.12a9.86,9.86,0,0,0,1.41,2.48h12.71a22.48,22.48,0,0,0,3.22-2.85c6.69-7.16,9.59-18.5,6.71-25.2s-10.35-6.46-16.85.45M995.52,311.78c-.94-.37-1.43.62-1.2,2.24s1.23,3.26,2.17,3.64,1.47-.62,1.2-2.26-1.24-3.24-2.17-3.62m21.64-49.51c-.91-.28-1.27.8-.85,2.4s1.49,3.15,2.4,3.43,1.29-.8.86-2.42-1.51-3.14-2.41-3.41m9.78,370.88c-.4,2.25.1,4.8,1.12,5.75s2.27-.11,2.65-2.38-.09-4.82-1.14-5.75-2.21.15-2.63,2.38m4.53-306.95c-.93-.38-1.43.71-1.14,2.44s1.3,3.47,2.25,3.83,1.45-.71,1.16-2.46-1.31-3.43-2.27-3.81m7.13,223.43c-.17,2.12.48,4.46,1.5,5.24s2-.32,2.24-2.45-.5-4.44-1.53-5.23-2,.35-2.21,2.44M926.31,636.27c-1.27,4-.78,9,1.2,11.13s4.71.63,6-3.45.68-9-1.3-11.11-4.65-.55-5.91,3.43M930.18,410c2.84,1.83,5.37-.57,5.56-5.31s-2-9.93-4.84-11.67-5.24.65-5.43,5.26,1.85,9.91,4.71,11.72m-.09,58.29c.64-5-1.17-10.71-4-12.81s-5.68.14-6.39,5,1,10.68,3.91,12.89,5.81-.06,6.52-5.09m6,296.77c-1,2.27-.9,5.15.09,6.46s2.58.46,3.53-1.84.86-5.19-.13-6.45-2.58-.43-3.49,1.83m-.74-568.85c1.69.38,2.38-1.47,1.46-4.12s-3-5.06-4.72-5.43-2.31,1.47-1.44,4.08,3,5.07,4.7,5.47m-15.61,38.6c-.92-3.92-3.83-7.69-6.4-8.46s-3.91,1.7-3,5.55,3.71,7.7,6.34,8.54,4-1.68,3.07-5.63m-3-87.59c1.62.23,2.05-1.58,1-4s-3.28-4.57-4.88-4.76-2.08,1.6-1,4,3.22,4.57,4.86,4.8m3.33,136.72c.59,4.11,3.2,8.4,5.93,9.53s4.44-1.38,3.82-5.59-3.33-8.38-6-9.47-4.34,1.41-3.75,5.53m3.45-182.54c.78,0,.86-.9.21-2.1a4.19,4.19,0,0,0-2.57-2.21c-.77,0-.86.91-.21,2.08s1.79,2.19,2.57,2.23m7.2,248.6c2.78,1.47,4.92-1,4.67-5.47s-2.7-9.18-5.49-10.54-4.78,1.05-4.57,5.41,2.59,9.17,5.39,10.6M967.4,201.11c.85.17,1.15-.8.66-2.21s-1.58-2.67-2.44-2.86-1.12.78-.66,2.19a4.67,4.67,0,0,0,2.44,2.88m-4,157.65c.21,3.22,1.89,6.63,3.79,7.64s3.32-.85,3.11-4.13-1.94-6.65-3.85-7.6-3.26.88-3.05,4.09m.13,127.44c-2-1.47-3.9.27-4.38,3.89s.78,7.77,2.75,9.3,4-.23,4.46-3.91-.84-7.81-2.83-9.28m3.17,193.17c-.71,2.18-.38,4.83.63,5.93s2.32.19,3-2,.38-4.84-.67-5.91-2.4-.19-3,2M947.05,149.18c.81.12,1-.86.41-2.15s-1.69-2.42-2.51-2.53-1,.85-.42,2.15,1.69,2.44,2.52,2.53M907.16,525.89c-1.22,5.16,0,11.47,2.9,14.1s6.32.54,7.55-4.74-.18-11.51-3.07-14-6.14-.4-7.38,4.69M950.32,249c1.79.57,2.69-1.3,2-4.16s-2.72-5.56-4.49-6.09-2.63,1.29-1.95,4.1,2.69,5.58,4.46,6.15m2.84-146.25c.76,0,.82-1,.11-2.2s-1.88-2.31-2.64-2.35-.82,1-.14,2.23,1.89,2.29,2.67,2.32M486.75,787.17c-11.84,7.2-20.11,22.2-18.11,33.84s14,15.15,26.28,7.35c12.12-7.7,19.59-23.15,17.09-34.25s-13.66-14.07-25.26-6.94M894.41,441.58c1-6.08-1.5-13.15-5.2-15.9s-7.37-.13-8.32,5.76,1.22,13.07,5,16,7.66.28,8.57-5.83M531.6,332.17c-5-8.89-13.32-13-18.86-9.46s-6.65,14.12-2.08,23.73,13.54,14.1,19.61,9.79,6.38-15.13,1.33-24.06m23.78,72.1c6.5-5.28,7.28-17.19,2.08-26.38s-14-12.65-20.13-8.13-7.64,16.14-2.93,26,14.35,13.83,21,8.48m-143.08,8c9.6-2.88,14.82-15.19,12.06-27.11s-12-19.36-20.86-17.23c-.16,0-.16,44-.16,44a14.06,14.06,0,0,0,9,.3m106.61,18.12c7.75-5,10.06-17.49,5.47-27.72s-13.88-14.75-21.12-10.54-10.36,16.31-6.38,27.23,14.1,16,22,11M438.25,260.92c3.74,10,11.55,16.62,17.3,14.58s6.61-11.44,2.42-20.77-11.54-15.5-16.67-14.1-6.69,10.38-3.05,20.29m2.67,78.48c7.39-2.47,10.27-13.29,6.69-23.87s-11.76-17.26-18.56-15.47c-7,1.85-10.42,12.12-7.47,23.26s11.77,18.58,19.34,16.08m139.65-28.94c4-4.67,2.19-14.29-3.72-21.34s-13.39-9.34-17.15-5.34-2.53,13.45,3.07,21.16,13.76,10.25,17.8,5.52M480,753.44c12.67-7.39,20.31-23.44,17.55-35.44s-14.35-15.82-26.4-9.09c-12.26,6.8-20.84,22.29-18.71,34.91S467.18,761,480,753.44m17.09-376.31c7-3.94,8.9-15.36,4.44-25.27s-13.05-15-19.61-11.81-9.11,14.24-5.26,24.81,13.25,16.26,20.43,12.27m60.8-43.27c4.88-4.54,4.12-14.77-1.39-22.75s-13.43-11.11-18-7.3-4.49,13.87.67,22.49,13.74,12.11,18.75,7.56m26.89,18.06c-5.66-8.13-14-10.69-19.07-5.94s-5.26,15.78,0,24.64,14.39,11.73,19.85,6.19,4.81-16.69-.83-24.89m126.29-1.54c2.77-7.43-.72-18.08-7.39-23.69s-13.93-4.57-16.62,2.22.12,17.45,6.69,23.7,14.52,5.32,17.32-2.23M688.82,287.5c1.77-6.42-2.44-15.42-9.09-20.06s-13.11-3.68-14.85,2.11,1.93,14.84,8.5,20.1,13.67,4.33,15.44-2.15m55.45,92.57c2.66-7.72-.61-18.3-6.84-23.61s-13.15-3.74-15.74,3.41,0,17.8,6.19,23.67,13.72,4.36,16.39-3.47M722.71,312.9c1.83-7.26-2.45-17-9.2-21.74s-13.28-3.11-15.11,3.52,1.89,16.49,8.58,21.82,13.92,3.76,15.73-3.6m-45.08,7.53c2.65-6.52-.81-16.33-7.37-21.86s-13.63-5.1-16.18.76.29,15.72,6.73,21.86,14.15,5.85,16.82-.76M614.14,420.9c5.79-6.52,5.45-18.71-.32-27.13s-14.62-10.27-20.12-4.52-6,17.8-.56,26.89,15.08,11.35,21,4.76m29.23,45.29c6.25-7.6,6.1-20.84.19-29.49s-15.2-9.8-21.19-3c-6,6.94-6.74,19.93-1.12,29.28s15.74,10.92,22.12,3.24M672,427.38c5-7.62,3.56-20-2.76-27.59s-14.88-7.93-19.65-1.05-4.15,19.21,1.89,27.48,15.45,8.88,20.52,1.16m3-300.72c-6.12-1.16-9.83,1.76-8.5,6.56s7.34,10,13.59,11.62,10.29-1.49,8.82-6.75-7.79-10.3-13.91-11.43m-9.51,80.47c.31-5.28-4.9-12-11.39-15.11s-11.84-1.68-12.22,3.1,4.42,11.61,10.94,15.19,12.33,2.15,12.67-3.18M631.9,244.84c-1.66,5,2,13.26,8.44,18.42s13.4,4.86,15.11-.78-2.46-13.81-9-18.41-12.9-4.21-14.56.77m29.9,109c3.58-6.59,1-17.23-5.4-23.65s-14-6.71-17.49-.8-1.54,16.5,4.67,23.57,14.56,7.55,18.22.88M652,217.69c-6.56-3.76-12.39-2.88-13.4,2s3.3,12.45,9.82,16.81,12.89,3.45,13.88-2.06-3.77-12.94-10.3-16.76M640.8,387.48c4.65-6.59,3.12-18.05-3-25.42s-14.39-8.4-18.8-2.53-3.66,17.2,2.24,25.26,14.88,9.36,19.61,2.69m-42.15-101c3.11-4.76.42-13.7-5.73-19.87s-13.29-7.7-16.22-3.56-.82,13,5.15,19.73,13.62,8.5,16.8,3.7m-17.78-52.64c2.17-3.95-1.31-11.46-7.54-16.7s-12.69-6.63-14.75-3.28,1,10.81,7,16.6,13,7.38,15.24,3.38m29.46,114.7c4.31-5.6,2.65-16.12-3.37-23.32s-13.89-8.9-18-4-3.1,15.3,2.65,23.17,14.31,9.81,18.71,4.13M629.9,319.8c3.36-5.66.73-15.42-5.56-21.73s-13.67-7.2-16.87-2.2-1.18,14.7,4.9,21.62,14.12,8,17.53,2.31m69-95.69c.26-6-5.07-13.4-11.64-16.5S675.33,206.44,675,212s4.58,13,11.17,16.62,12.44,1.62,12.71-4.46M403.34,605.37v7a27.87,27.87,0,0,0,0-7M695.85,105.45c-5.91-.59-8.92,3-6.92,8s8.4,10.08,14.48,11.07,9.4-2.76,7.23-8.25-8.89-10.27-14.79-10.86M683.42,80.3c-5.63-.07-8.13,3.6-5.71,8.33s9,9.05,14.82,9.49,8.6-3.47,6-8.58-9.44-9.18-15.08-9.24m1.85,156.75c-6.63-3.82-12.53-2.37-13.53,3.31s3.34,13.93,10,18.33,13.07,2.92,14.06-3.37-3.87-14.41-10.48-18.27m-26.6-127.5c1.77,4.56,8,9.09,14,10.08s9.52-2.31,7.6-7.26-8.42-9.28-14.31-9.85-9.09,2.53-7.32,7m-5.25,57.7c-6.41-2.39-11.27-.6-11.06,4s5.39,10.74,11.88,13.6,11.69,1,11.44-4.13-5.86-11.13-12.26-13.49M756.23,338c1.7-7.51-2.31-17.23-8.61-21.67s-12.5-2.38-14.2,4.57,1.74,16.79,8,21.76,13.08,2.92,14.79-4.66M681.82,152.27c-6.3-1.73-10.53.89-9.71,6s6.55,11.05,12.95,13.25,11.06-.58,10.1-6.12-7-11.34-13.34-13.09m4.16,27c-6.46-2.38-11.25-.08-11,5.2s5.64,12,12.18,14.92,11.72.48,11.37-5.35-6.13-12.37-12.59-14.77M476,325.53c6.31-2.95,7.74-13.34,3.41-23s-12.28-15.24-18.11-13-7.91,12.25-4.16,22.5,12.37,16.41,18.86,13.45M793.16,494.11c3.26-7.83,1.49-18.47-3.64-23.67s-11.58-3.35-14.73,4.06-1.92,18.08,3.09,23.7,12,3.84,15.28-4.09m-11-151.71c-5.73-4.08-11.43-1.68-13,5.35s1.65,16.5,7.35,21.07,11.91,2.12,13.49-5.44-2.11-16.89-7.87-21M703.09,467.13c4.88-8,3.67-20.39-2.27-27.56s-14.23-6.86-18.9.46-4.29,19.68,1.45,27.48,14.77,7.72,19.72-.38m74.73-57c2.46-7.76-.44-18-6.17-22.87s-12.1-2.89-14.5,4.36,0,17.55,5.6,22.95,12.6,3.39,15.07-4.44m-14.6-112.83c.86-7.23-3.8-16.06-10.08-19.74s-11.81-1.18-12.71,5.57S743.71,298.84,750,303s12.37,1.62,13.22-5.7m-28.5,210.27c4.61-8.1,3.68-20.08-1.79-26.71s-13.21-5.76-17.72,1.77-4.21,19.53,1.08,26.69,13.71,6.43,18.43-1.75m64.39-232.43c0-6.89-4.79-14.61-10.43-17.3s-10,.37-10.08,6.86,4.33,14.39,10,17.46,10.5-.08,10.5-7M726.76,423.21c3.67-7.89,1.39-19.38-4.75-25.57s-13.72-5.23-17.3,2-2,18.79,4,25.59,14.27,5.95,18-2.05m32.84,35.08c3.47-8,1.49-19.08-4.17-24.8s-12.69-4.24-16.08,3.19-2,18.58,3.52,24.81,13.19,4.82,16.73-3.2m37.37-140c.72-7.22-3.56-15.72-9.26-19.11s-10.73-.59-11.51,6.17,3.07,15.48,8.8,19.25,11.23.95,12-6.31M428.71,494.91c-11.23,4.34-18.91,18.48-16.72,32s14.16,20.9,26.2,15.74c11.78-5.07,18.47-19.93,15.5-32.78-3.05-12.7-14-19.22-25-15M419,760.85c-1.15-9-7.34-14.27-15.65-14.74v46.66c10.48-8.16,17-21.17,15.65-31.92m32.9-149.16c12.92-6.3,20.37-22.56,17.29-35.9-3.17-13.18-15-19.1-27.14-13.73-12.35,5.56-20.94,21-18.65,35.13s15.32,20.93,28.5,14.5m13.86,69.73c12.93-7,20.65-23.39,17.68-36.17s-14.9-17.63-27.13-11.45c-12.52,6.31-21.23,22-19,35.52s15.18,19.22,28.45,12.1M734.93,71.06c4.61-.1,6.06-4,3.08-8.67a15,15,0,0,0-2.74-3.24H720.16a8.92,8.92,0,0,0,1.43,3.94c2.8,4.44,8.73,8,13.34,8m74,31.06c3.66.23,4.82-3.24,2.47-7.7s-7.18-8-10.78-8.11-4.61,3.27-2.36,7.54,7,8,10.67,8.27m-25.69,23.61c2.06,5,7.28,9.7,11.8,10.4s6.5-3.07,4.36-8.31-7.58-9.75-12-10.23-6.21,3.13-4.17,8.14M780,101.57c4.31.28,5.83-3.49,3.32-8.37s-8.06-8.74-12.25-8.82-5.57,3.52-3.14,8.17,7.77,8.71,12.07,9m-17.47-32c4.08-.08,5.17-3.86,2.32-8.31a14.78,14.78,0,0,0-1.63-2.1H749a10.48,10.48,0,0,0,1.24,2.73c2.74,4.28,8.18,7.77,12.27,7.68M767.11,549c4.35-8,3.58-19.51-1.39-25.55s-12.13-4.72-16.35,2.84-4.06,19.05.78,25.56,12.58,5.27,17-2.85M712.45,81.39c-5.22-.08-7.34,3.71-4.87,8.53s8.77,9.23,14.16,9.61,7.74-3.61,5.09-8.77-9.17-9.28-14.38-9.37M411.57,681.15c-.81-6.27-3.84-11-8.23-13.84v39.18c6-7.58,9.32-17,8.23-25.34M425,476.25c10.67-3.94,16.61-17.47,13.76-29.85s-13-19.29-22.89-16.16c-5.43,1.75-9.89,6.25-12.54,12v24.29c4.23,8.56,12.94,12.89,21.67,9.68M458,396c8.27-3.47,11.7-15.38,8-26.3s-12.61-17.11-20.25-14.41c-7.83,2.83-11.95,14.18-8.88,25.73s12.69,18.48,21.15,15M756.69,113.31c-4.93-.52-7.13,3.16-5.07,8.32s7.78,10.06,12.84,10.86,7.53-3.07,5.3-8.52-8.14-10.15-13.07-10.66m9.07,144.85c.07-7-5.09-14.94-11.28-17.88s-11.11-.09-11.26,6.39,4.59,14.59,10.82,18,11.62.48,11.72-6.53m-39.62-149c-5.46-.56-8.07,3.14-6,8.33s8.2,10.26,13.82,11.16,8.54-3,6.29-8.55-8.61-10.39-14.09-10.94M475.69,454.59c9.15-4.52,13.15-17.61,9.32-28.87s-13.51-17-22-13.22c-8.71,3.83-13.49,16.33-10.33,28.29s13.67,18.37,23,13.8m262-363.35c2.46,4.82,8.29,9.05,13.15,9.39S757.63,97.05,755,92s-8.63-9.09-13.33-9.18-6.47,3.66-4,8.44M634.47,555.58c7.64-7.91,9.22-22.09,4-31.33s-14.94-10.67-22.19-3.45-9.8,21.15-5,31.1,15.43,11.78,23.16,3.68m27.29,52.19c7.32-8.17,9-21.9,4.27-30.49S652,568,644.92,575.57s-9.63,21.13-5.13,30.31,14.54,10.18,22,1.89m32.62-219.11c3.81-7.56,1.28-19.09-5.26-25.65s-14.44-6.17-18.12.69-1.89,18.37,4.48,25.61,15,7,18.9-.65m-86.54,116c7.64-7.49,9.07-21.59,3.56-31.31S596,461.39,588.71,468s-9.63,20.49-4.64,31,15.91,13.13,23.77,5.59M494,515.24c10-5.68,14.66-20,10.69-31.65s-14.42-16.75-23.83-11.95c-9.61,4.94-15.09,18.66-11.81,31.06s14.66,18.22,25,12.54m178.6-3.83c6.16-8,6.27-21.3.63-29.48s-14.65-8.69-20.54-1.35-6.86,20.48-1.52,29.31,15.16,9.66,21.43,1.52M512.94,578c11-6.84,16.18-22.48,12.06-34.56s-15.35-16.54-25.68-10.6C488.8,539,482.61,554,486,566.88S501.72,585,512.94,578m28.45-92.69c8.5-6.08,11.22-19.77,6.5-30.28s-14.65-14.46-22.66-9.23c-8.11,5.38-11.64,18.54-7.5,29.84s15,15.82,23.66,9.67m23.23,56.76c9.24-7.24,12.4-22.14,7.51-33s-15.45-14.11-24.2-7.77c-8.88,6.5-12.92,20.91-8.67,32.59s15.91,15.52,25.36,8.21m16.6-88.42c7.07-6.34,8.17-19.32,2.84-28.77s-14.71-12.29-21.4-6.74-8.65,18.27-3.79,28.45,15.11,13.49,22.35,7.06"/></clipPath><linearGradient id="linear-gradient" x1="-2247.97" y1="1455.25" x2="-2246.97" y2="1455.25" gradientTransform="matrix(642.67, 0, 0, -642.67, 1444921.35, 936653.31)" gradientUnits="userSpaceOnUse"><stop offset="0" stop-color="#85ffbd"/><stop offset="1" stop-color="#fffb7d"/></linearGradient></defs><title>dot-sun</title><g class="cls-2"><g class="cls-3"><g class="cls-4"><rect class="cls-5" x="212.79" y="1011.39" width="643.28" height="788.13"/></g></g></g><rect class="cls-1" width="4607.77" height="2810.94"/></svg>