<svg id="Layer_1" data-name="Layer 1" xmlns="http://www.w3.org/2000/svg" xmlns:xlink="http://www.w3.org/1999/xlink" viewBox="0 0 1212.07 749.51"><defs><style>.cls-1{fill:none;}.cls-2{clip-path:url(#clip-path);}.cls-3{fill:url(#linear-gradient);}</style><clipPath id="clip-path" transform="translate(0.07 0)"><path class="cls-1" d="M918.28,749.33c0-.12-.12-.19-.34-.19s-.44.07-.44.12.16.25.38.19a.54.54,0,0,0,.4-.12m-132.2-8.09a4.87,4.87,0,0,0-.66,0c-1.31,0-2.43.45-2.67,1s.8,1.36,2.38,1.48,3-.25,3.33-.93-.8-1.42-2.38-1.54M663,722.22a15.72,15.72,0,0,0-2.56-.23c-2.51,0-4.65.68-5.25,1.84-.84,1.48,1.3,3.27,4.78,4s7-.19,7.81-1.67-1.32-3.33-4.78-3.95M549,695.43a13.5,13.5,0,0,0-3.73-.53c-2.13,0-3.94.55-4.67,1.58-1.14,1.54.77,3.57,4.29,4.62s7.38.56,8.49-1.05-.83-3.64-4.38-4.62m383.15-2.35-.09,0c-.14,0-.28.1-.28.21s.09.11.31.11.34,0,.37-.11a.34.34,0,0,0-.31-.19m-124-5.19-.51,0c-1.29,0-2.43.4-2.67,1s.67,1.23,2.16,1.3,2.93-.25,3.2-.87-.7-1.3-2.18-1.36m-115.86-15.5a14,14,0,0,0-2.24-.18c-2.44,0-4.58.67-5.27,1.67-.83,1.35,1.11,3,4.35,3.51s6.7-.12,7.57-1.54-1.15-2.9-4.41-3.46M445.6,660.85a14.15,14.15,0,0,0-4.94-.93,6,6,0,0,0-4.35,1.36c-1.58,1.6.12,4.08,3.79,5.49s7.81,1.18,9.33-.49-.25-4-3.83-5.43m139-11.24a14.56,14.56,0,0,0-3.6-.46c-2,0-3.75.46-4.49,1.32-1.18,1.43.58,3.28,4,4.14s7,.43,8.09-1-.62-3.2-4-4m372.81-7c.68-1.89-2.48-3.27-7.14-3.27h-.62c-4.93.12-9.56,1.79-10.31,3.83s2.75,3.46,7.72,3.27,9.63-1.85,10.35-3.83m-123.24-7.16c-.7,0-1.38-.06-2.07-.06-7.38,0-14.24,2.06-15.9,5-1.79,3.15,3.39,6.3,11.66,6.86,8.31.37,16.4-1.92,18.07-5.19s-3.61-6.17-11.76-6.61m240-1.66c.13-.5-.61-.88-1.7-.88a6.11,6.11,0,0,0-.86.07c-1.54.19-2.93.81-3,1.42s1,1,2.56.8,2.9-.86,3-1.41M725.7,623.62a44.27,44.27,0,0,0-6.41-.46c-7.21,0-13.68,1.73-15.88,4.6-2.87,3.7,2.62,8.08,12.32,9.51s19.82-.69,22.47-4.58-3-7.78-12.5-9.07m-373.06-2.84a10.74,10.74,0,0,0-4.71-1.16,4.86,4.86,0,0,0-3.07.85c-1.51,1.24-.46,3.45,2.35,4.88s6.33,1.48,7.81.18.43-3.39-2.38-4.75m134.3-1.43a15.12,15.12,0,0,0-4.72-.79,6.31,6.31,0,0,0-4.2,1.17c-1.55,1.42,0,3.57,3.42,4.81s7.44,1.05,9-.43-.06-3.52-3.48-4.76m137.72-14.5a42.67,42.67,0,0,0-9.42-1.08c-5.76,0-10.83,1.25-13.09,3.54-3.49,3.46,1.11,8.34,10.28,10.44s19.48.93,22.78-2.71-1.45-8.09-10.55-10.19M982.4,597c1.26-2.9-3.44-4.94-10.75-4.94-.77,0-1.57,0-2.4.07-8.61.43-16.86,3.21-18.34,6.48s4.32,5.68,13.06,5.25,17-3.52,18.43-6.86M862,589.35c-.76,0-1.52,0-2.28,0-13.33,0-26.26,3.53-29.68,8.44-3.58,5.25,5.19,10.25,19.74,10.92s29-3.76,32.25-9.19-5.8-9.7-20-10.13m230.15-3.4c.39-1.55-1.86-2.49-5.38-2.49a23.1,23.1,0,0,0-3.11.21c-5.21.74-9.94,2.84-10.49,4.87s3.23,3,8.51,2.35,9.92-3,10.47-4.94m-693.26-2a10.69,10.69,0,0,0-4.54-1.07,5,5,0,0,0-2.94.76c-1.51,1.11-.55,3,2.1,4.32s6,1.3,7.54.18.49-3-2.16-4.19m361.2-2.84a81.18,81.18,0,0,0-8.82-.48c-11.83,0-22.83,2.53-26.71,6.84-5,5.43,3.33,11.79,18.58,13.76,15.41,1.92,31.58-1.6,36.09-7.28S775,582.8,760.06,581.08m-227.22-2a41,41,0,0,0-12.19-1.91c-4.65,0-8.73.9-11,2.71-4.19,3.34-.49,8.64,8.38,11.61s19.44,2.34,23.52-1.11.06-8.46-8.71-11.3M272,575a11.21,11.21,0,0,0-5.67-1.66,5.42,5.42,0,0,0-3.09.8c-1.92,1.3-1.18,3.83,1.69,5.74s6.89,2.16,8.84.87,1.13-3.89-1.77-5.75m932.74-9.5c0-.33-.4-.53-1.08-.53a6,6,0,0,0-1.18.15c-1.26.25-2.37.93-2.43,1.36s1,.74,2.22.38,2.38-.93,2.47-1.36M665.32,566a76.89,76.89,0,0,0-14.75-1.43c-9.42,0-17.88,1.78-21.78,5.13-6,5.19.93,12.29,15.69,15.5s31.64.86,37.19-4.57-1.91-11.73-16.35-14.63m339.43-9.51c1.55-3-3.14-5-10.87-5-1.2,0-2.48.05-3.82.15-9.94.81-19.58,4-21.65,7.47s4.51,6,14.61,5.31,19.88-4.32,21.73-7.9m-93.63,4.69c4-5.62-5.81-9.75-21.71-9.81-15.74,0-32,3.88-36.46,9.32s5.07,10.62,21.3,10.86c16.4.25,32.94-4.62,36.87-10.37M449.49,548.6A33.14,33.14,0,0,0,437,546a15.72,15.72,0,0,0-8,1.75c-4.2,2.79-1.85,7.6,5.37,10.81s16.67,3.33,20.8.56,1.52-7.53-5.64-10.56m343.91-2.47c-2.84-.25-5.72-.37-8.58-.37-13.79,0-27.05,2.74-32,7.35-6,5.67,2.94,12.1,20.07,13.82,17.32,1.73,35.84-2.28,41.25-8.2s-4-11.3-20.75-12.6m-214.56-1.61a72.11,72.11,0,0,0-19.54-2.76c-7.27,0-13.72,1.24-17.45,3.75-7.06,4.69-1.6,12.53,12.42,16.79s31.21,3.34,37.82-1.78.52-12-13.25-16M322.3,543.17a11,11,0,0,0-5.57-1.59,5.6,5.6,0,0,0-2.86.66c-1.89,1.11-1.24,3.39,1.51,5.06s6.58,2,8.49.8,1.17-3.39-1.57-4.93m785.84.24c.64-1.73-1.76-2.75-5.71-2.75a30.49,30.49,0,0,0-4.76.41c-6.63,1.1-12.68,3.76-13.64,6.1s3.77,3.53,10.49,2.48,12.82-3.89,13.62-6.24m-404.33-8.89a98.37,98.37,0,0,0-15.8-1.28c-10.88,0-20.84,1.83-25.6,5.29-7.1,5.19.31,12.41,16.77,15.56,16.67,3.09,35.65.49,42.23-5.18,6.42-5.62-1.49-11.74-17.6-14.39m-502.29-7.65a7.47,7.47,0,0,0-4.31-1.48,4,4,0,0,0-1.92.43c-1.61.8-1.39,2.71.52,4.2s4.66,1.9,6.21,1.1,1.35-2.77-.5-4.25M1212,522.17c0-.36-.36-.54-1-.54a7.46,7.46,0,0,0-1.63.24c-1.6.36-2.9,1.17-3.09,1.72s1.08.62,2.66.25,2.93-1.11,3.06-1.67m-279.71,5.37c3.32-4-3.28-6.75-14.92-6.75l-1.87,0c-12.6.3-25.94,3.51-29.76,7.53s3.52,7.53,16.51,7.41,26.56-4,30-8.22m-108.11-9c-1.55-.08-3.13-.12-4.71-.12-11.93,0-24,2.21-28.44,5.86-5.13,4.08,1.82,8.58,15.52,9.63s28.87-2.22,33.59-6.54-2.5-8.09-16-8.83m197.92,2.41c1.32-2-1.65-3.32-6.91-3.32a41.82,41.82,0,0,0-4.18.23c-7.65.8-15.3,3.4-17.07,5.87s3.15,4.13,11,3.39,15.56-3.52,17.19-6.17m-401-3.53a86.12,86.12,0,0,0-20.65-2.55c-7.72,0-14.64,1.14-18.75,3.48-7.72,4.39-2.28,11.86,12.38,15.87,14.91,4.14,33.07,3,40.32-1.91s1.11-11.24-13.3-14.89m-121.3,1.18a59.7,59.7,0,0,0-20.65-3.85c-5,0-9.49.78-12.54,2.43-7.13,3.77-3.67,11.11,8,15.87s27.1,5,33.92.86,2.75-10.8-8.73-15.31m239-8.58a92.11,92.11,0,0,0-11.85-.77c-9.31,0-18.05,1.41-22.23,4.1-6,3.83-.25,8.89,13,11,13.46,2.1,29,.06,34.7-4.07s-.56-8.46-13.65-10.25m-361.48,2.78a31.26,31.26,0,0,0-14.41-3.69,16,16,0,0,0-6.95,1.34c-5,2.47-3.58,7.9,3.39,11.73s16.79,4.82,21.71,2.16,3.18-7.72-3.74-11.54m739.17-5.68c.28-.61-.54-.94-2-.94a14.47,14.47,0,0,0-2.18.19c-2.75.56-5.34,1.67-5.74,2.54s1.45,1.23,4.17.8,5.34-1.67,5.74-2.59m-861.39-7.29a7.61,7.61,0,0,0-4.26-1.4,4.23,4.23,0,0,0-1.76.35c-1.58.74-1.36,2.41.4,3.7s4.5,1.79,6.05,1,1.33-2.34-.43-3.7m686-.74c.7-.61-.32-1.07-2.24-1.07l-.72,0c-2.38.06-4.91.8-5.62,1.48s.59,1.17,3,1.05,4.91-.81,5.62-1.48m-90.17-1.3h-.5c-4.07,0-8.46.72-10,1.85s.46,2.29,4.69,2.41,9-.68,10.56-1.91-.49-2.23-4.72-2.35m-189.65-2.34a91,91,0,0,0-19-2c-7.18,0-13.66.91-17.57,2.8-7.32,3.58-2.59,9.57,10.77,12.78,13.58,3.34,30.41,2.29,37.32-1.61s1.61-9.07-11.54-12M546.58,495a76.14,76.14,0,0,0-24-4.08c-5.43,0-10.31.73-13.73,2.28-8.34,3.71-4.73,11.18,8.36,16.12,13.3,5,30.81,5.12,38.78,1s3.54-10.8-9.39-15.3m224.9-4.57a53.11,53.11,0,0,0-5.92-.31c-5.65,0-11.11.8-13.71,2.22-3.55,2-.37,4.38,7.1,5.19s16.39-.13,19.82-2.1.12-4.26-7.29-5m266.46-.13c.7-.88-.49-1.41-2.82-1.41a19.55,19.55,0,0,0-2.65.18c-4,.55-8,1.85-9,3s1.45,1.85,5.46,1.3c4-.37,8-1.85,9-3.09M430.72,487.9a53.22,53.22,0,0,0-22.51-5.31,25.89,25.89,0,0,0-9.54,1.55c-7.78,3.27-5.9,10.61,4.51,16.05s25.41,6.73,32.91,3.09S441,493,430.72,487.9m452.06-10.25c.37-.25-.1-.43-1-.43a5.9,5.9,0,0,0-2.23.43c-.36.19.07.44.93.44a6,6,0,0,0,2.26-.44m-184.37.62a72.77,72.77,0,0,0-12.93-1.13c-5.26,0-10.06.58-12.94,1.81-5.25,2.16-2.1,5.68,7.19,7.6s21.15,1.29,26.24-1.12,1.61-5.43-7.56-7.16M143,476.11a6,6,0,0,0-4-1.64,3.78,3.78,0,0,0-1.45.28c-1.58.62-1.7,2.35-.25,3.77a5.5,5.5,0,0,0,5.53,1.36c1.54-.62,1.6-2.35.15-3.77m445.55,1.11a69.34,69.34,0,0,0-19.92-3,33.05,33.05,0,0,0-11.21,1.59c-7,2.6-4.16,7.9,6.43,11.55s25.07,3.71,31.79.8,3.37-7.6-7.09-10.93m214.65-3h-.55a7.78,7.78,0,0,0-2.26.27c-.49.3-.06.55,1,.61a7.52,7.52,0,0,0,2.83-.25c.47-.31.07-.49-1-.62m163.37.13c.19-.13-.09-.18-.64-.18a4,4,0,0,0-1.31.31c-.12.18.13.24.62.24a3.88,3.88,0,0,0,1.33-.37m-654,.62a23,23,0,0,0-12.09-3.67,12.31,12.31,0,0,0-4.34.7c-4.31,1.67-4,5.87.87,9.27s12.44,4.69,16.67,2.9,3.73-5.87-1.11-9.2m417.91-9.08a8.14,8.14,0,0,0-1.1-.08,3.17,3.17,0,0,0-1.3.21c-.53.12-.22.36.64.55a6.11,6.11,0,0,0,2.41-.12c.49-.19.22-.38-.65-.56M1055.23,464c0-.05,0-.09-.15-.09l-.22,0a2.49,2.49,0,0,0-.62.19c-.09.12.09.19.37.12a6.62,6.62,0,0,0,.62-.24m-575.92,4.93a61.77,61.77,0,0,0-23.92-5.16,29.14,29.14,0,0,0-9.23,1.28c-8.16,2.83-6.43,9.63,4.19,14.75,10.78,5.25,26.18,6.49,34,3.22s5.44-9.27-5.09-14.09m148-5.43a49.23,49.23,0,0,0-11.72-1.45,22.78,22.78,0,0,0-6.31.71c-4,1.3-2.53,3.89,3.49,5.63s14.29,1.9,18.25.54,2.25-3.76-3.71-5.43m287.51-4.57c-.09,0-.25,0-.31.13h.16a.35.35,0,0,0,.31-.13Zm-74.77-.3a4.93,4.93,0,0,0-.55,0,4.3,4.3,0,0,0-1.24.15c-.34.13-.1.31.55.31a4.06,4.06,0,0,0,1.83-.18c.34-.13.12-.25-.59-.25m-69.86-5.25a2.73,2.73,0,0,0-.5-.05,1.37,1.37,0,0,0-.4.05c-.16.06-.09.12.22.12a4.41,4.41,0,0,0,.89,0c.19-.06.06-.12-.21-.12m-105.83-.5a10.43,10.43,0,0,0-1.57-.15,2.53,2.53,0,0,0-.78.09c-.49.13-.31.37.46.56a6.2,6.2,0,0,0,2.35.12c.52-.12.34-.43-.46-.62M199.08,454a6,6,0,0,0-4-1.57,4,4,0,0,0-1.32.22c-1.54.55-1.63,2-.24,3.33a5.52,5.52,0,0,0,5.31,1.36c1.54-.55,1.63-2.1.21-3.34m324.31.87a53.86,53.86,0,0,0-19.1-3.73,25.29,25.29,0,0,0-6.71.77c-6.41,1.78-5.12,6.36,3,9.88s20.13,4.63,26.37,2.59,4.56-6.18-3.56-9.51m-154.14-.31a41.32,41.32,0,0,0-20.73-5.94,22.18,22.18,0,0,0-6.53.88c-7.38,2.29-7,8.7,1,13.95,8.18,5.44,20.81,7.35,28,4.69s6.26-8.51-1.7-13.58m338.08-11.18a9.69,9.69,0,0,0-1.42-.1c-.29,0-.58,0-.86,0-.53.13-.34.32.36.44a10.63,10.63,0,0,0,2.32.12c.53-.12.34-.31-.4-.5m-142.72.87a33.52,33.52,0,0,0-10.6-1.81,16.9,16.9,0,0,0-3.17.27c-3.43.86-2.78,2.84,1.48,4.44s10.56,2.28,13.9,1.42,2.59-2.72-1.61-4.32m40.63-8a6.85,6.85,0,0,0-1.68-.27,1.89,1.89,0,0,0-.58.08c-.55.06-.43.31.25.49a4.78,4.78,0,0,0,2.25.25c.56-.06.44-.37-.24-.55M421.7,439.31A53.53,53.53,0,0,0,397,432.83a27.8,27.8,0,0,0-6.49.68c-8.52,2.16-8.33,8.64.8,14.26,9.32,5.62,23.83,7.84,32.14,5.31s7.35-8.52-1.7-13.77M650,430.11a5.4,5.4,0,0,0-1.33-.18c-.34.06-.31.18.1.24a2.83,2.83,0,0,0,1.38.19c.34,0,.28-.19-.15-.25M259.65,434A20.86,20.86,0,0,0,247,429.48a12.84,12.84,0,0,0-3.48.45c-4.75,1.35-5.25,5.61-1,9.32s11.7,5.49,16.39,4,5-5.62.74-9.26m208.91-5.25a48.85,48.85,0,0,0-21.05-5.15,24.62,24.62,0,0,0-4.69.4c-7,1.36-6.95,6,.49,10.13s19.39,6,26.33,4.38,6.28-5.87-1.08-9.76M95.17,424.37A4.15,4.15,0,0,0,92,422.84a3.38,3.38,0,0,0-1,.17c-1.33.43-1.67,1.73-.68,3a4.27,4.27,0,0,0,4.2,1.35c1.36-.43,1.63-1.79.71-3m416.49-3a32.9,32.9,0,0,0-12.48-2.73,17.12,17.12,0,0,0-2.15.13c-4,.56-3.92,2.72.24,4.81a28.84,28.84,0,0,0,14.79,2.48c4-.62,3.74-2.66-.4-4.69m41.49-4.76a5,5,0,0,0-2.1-.43c-.61.06-.55.37,0,.55a5.2,5.2,0,0,0,2.1.44c.58-.07.58-.38,0-.56M318,418.57a35.73,35.73,0,0,0-20.5-6.91,20.92,20.92,0,0,0-4.67.48c-7.5,1.67-8.43,7.66-1.82,13.09s18.43,8.15,25.84,6.24,7.78-7.66,1.15-12.9m-165-11.49a4.57,4.57,0,0,0-3.24-1.4,2.9,2.9,0,0,0-.83.1c-1.33.37-1.64,1.54-.68,2.66a4.57,4.57,0,0,0,4.08,1.29c1.29-.36,1.6-1.54.67-2.65m218.27.8c-5.84-4.28-15.2-7.23-22.84-7.23a25.73,25.73,0,0,0-4,.31c-8,1.31-9.14,7-2.13,12.3,7.16,5.43,19.63,8.21,27.57,6.54s8.4-6.92,1.42-11.92M419.08,401c-4.6-3.13-12.15-5.32-18.1-5.32a21.86,21.86,0,0,0-2.43.14c-6.14.68-7,4.33-1.64,8s14.82,5.92,20.9,5,6.55-4.26,1.27-7.79m136.64-5.49a2.8,2.8,0,0,0-1-.18c-.31,0-.31.06-.06.18a4.13,4.13,0,0,0,1,.19c.28,0,.31-.06.06-.19m-47.79-.56a4.17,4.17,0,0,0-1.51-.36c-.44,0-.5.18-.13.36a2.64,2.64,0,0,0,1.51.44c.44,0,.5-.25.13-.44m-44.12,1.86a21.29,21.29,0,0,0-9.82-2.69c-.3,0-.59,0-.86,0-3.18.25-3.58,1.8-.87,3.52a20.31,20.31,0,0,0,10.84,2.54c3.15-.19,3.46-1.73.71-3.4m-250-4.26a14,14,0,0,0-9.61-4,8.75,8.75,0,0,0-1.84.17c-3.8.87-4.76,3.89-2.1,6.79A13.75,13.75,0,0,0,212,399.24c3.73-.92,4.57-3.89,1.88-6.73m304.55-16.8a4.12,4.12,0,0,0-.67-.24c-.22,0-.28.06-.13.18a2.27,2.27,0,0,0,.71.19c.19,0,.28-.07.09-.13m-244.63,6c-3.95-4-11.15-6.72-17.26-6.72a17.27,17.27,0,0,0-2.49.17c-6.52.93-8.28,5.68-3.74,10.37S264,393,270.49,391.89s7.85-5.68,3.27-10.18m196.16-9.89a3.71,3.71,0,0,0-1.38-.43c-.47,0-.56.12-.26.37a3.33,3.33,0,0,0,1.4.44c.43.05.58-.19.24-.38m-411.7.62A3.89,3.89,0,0,0,55,370.79a2.88,2.88,0,0,0-.59,0,1.77,1.77,0,0,0-1.18,2.77,4,4,0,0,0,3.84,1.61,1.73,1.73,0,0,0,.78-.32,1.77,1.77,0,0,0,.39-2.46m364.56-1.91a12,12,0,0,0-6.2-2c-2,0-2.54.92-1.11,2a11.06,11.06,0,0,0,6.2,1.91c2,0,2.5-.8,1.11-1.91m-93.35,4.32c-4.81-4.36-13.84-7.68-21.18-7.68-.67,0-1.32,0-1.95.08-7.68.62-9.78,5.56-4.48,10.56,5.41,5.19,16.22,8.4,23.78,7.41s9.16-5.49,3.83-10.37m49.73-3.46c-4.08-3.34-11.8-6.07-17.85-6.07l-.95,0c-6.2.19-7.9,3.58-3.58,7.29s13.06,6.36,19.2,6,7.5-3.64,3.18-7.22M117.27,360a3.73,3.73,0,0,0-3-1.56,3.08,3.08,0,0,0-.68.08,1.43,1.43,0,0,0-1,.35,1.45,1.45,0,0,0-.17,2.06,3.82,3.82,0,0,0,3.73,1.41,1.37,1.37,0,0,0,1-.34,1.41,1.41,0,0,0,.16-2m321.07-11.92a.93.93,0,0,0-.64-.31c-.25,0-.34.07-.19.13s.4.24.62.31.31-.07.21-.13m-259.14,2.1c-1.79-2.54-5.72-4.33-9.27-4.33a10.36,10.36,0,0,0-1.25.07c-3.83.5-5.31,3.21-3.28,6.18s6.86,4.81,10.69,4.26,5.15-3.34,3.11-6.18m206.35-8.71h-.41c-1.57,0-2.1.65-1.13,1.62a8.93,8.93,0,0,0,5.28,2c1.88.18,2.56-.56,1.54-1.49a9.52,9.52,0,0,0-5.28-2.1M240,343.92c-3.23-4.1-10.34-7.28-16.57-7.28-.44,0-.88,0-1.31.05-6.54.44-9.16,4.63-5.67,9.26s11.85,7.85,18.33,7.23,8.71-4.76,5.22-9.26m90-9.14h-.55c-5.55,0-7.62,2.78-4.51,6.18,3.3,3.64,10.87,6.42,16.82,6.55s8-2.72,4.69-6.18S335.91,335,330,334.78m-33.77,6.48c-3.95-4.62-12.86-8.4-20.27-8.4h-.36c-7.49.19-10.56,4.39-6.51,9.27s13.71,8.58,21.18,8.21,10-4.39,6-9.08m117.5-17.17c-.1-.06-.38-.18-.59-.3s-.34.12-.25.18a.83.83,0,0,0,.59.25c.25.06.34,0,.25-.13M30.12,321.57a2,2,0,0,0-1.89-1.06h-.17c-.84.12-1.31.8-1,1.48a2,2,0,0,0,2.07,1,1.07,1.07,0,0,0,1-1.47m331.26-7.1a4.37,4.37,0,0,0-.72-.06c-1.11,0-1.58.5-1,1.23a7.66,7.66,0,0,0,4.23,2c1.66.19,2.41-.31,1.73-1.17a7.52,7.52,0,0,0-4.23-2m-271.62-.81a2,2,0,0,0-1.84-1.05h-.16c-.8.12-1.2.68-.93,1.3a2.27,2.27,0,0,0,2,1c.81-.13,1.2-.68.89-1.3M307,305a14.35,14.35,0,0,0-1.61-.09c-4.15,0-6,2-4.16,4.78,2.19,3.08,8.27,5.86,13.49,6.23s7.63-1.66,5.5-4.63-8-5.8-13.22-6.29m-154.52,3.45c-1.23-2.3-4.72-4.15-8-4.15H144c-3.43.19-5.16,2.41-3.89,4.88s5.19,4.45,8.61,4.14,5-2.41,3.73-4.88m60.76-1.91c-2.28-3.83-8.7-7-14.6-7.1s-8.92,3.39-6.64,7.47,9.08,7.22,15,7,8.58-3.46,6.29-7.41m39.43-7.1-1,0c-6.21,0-9.28,3.28-6.7,7.5,2.78,4.45,10.78,8.09,17.63,8.21s10-3.09,7.25-7.35-10.31-8-17.16-8.33m90.94-11.48a4.91,4.91,0,0,0-.86-.08c-1,0-1.48.36-1.14,1a6,6,0,0,0,3.7,2c1.58.37,2.44-.06,2-.87s-2.1-1.67-3.68-2m38.81-9.76a.93.93,0,0,1-.15-.13.14.14,0,0,0-.12.07.34.34,0,0,0,.15.06h.12m-91.47-1.3a11.63,11.63,0,0,0-1.67-.13c-2.5,0-3.82,1.08-3,2.73,1,2,4.69,4,8.27,4.51s5.52-.63,4.54-2.6-4.6-3.95-8.15-4.51M12,272.11a1.51,1.51,0,0,0-1.52-1H10.3c-.74.06-1.23.62-1.05,1.17a1.6,1.6,0,0,0,1.67,1c.74-.06,1.2-.56,1.05-1.17m59.74-3.65a1.7,1.7,0,0,0-1.58-.86c-.74,0-1.17.5-1,1a1.48,1.48,0,0,0,1.6.86c.71,0,1.17-.49,1-1.05m164.85-1.54a16.65,16.65,0,0,0-2-.12c-5,0-7.82,2.47-6.39,5.86,1.7,3.83,8.21,7.35,14.41,7.9s9.73-1.91,8-5.61-7.84-7.29-14.05-8m-102.58.8c-.78-2.1-3.8-3.89-6.89-4s-4.94,1.73-4.23,3.89,3.89,3.95,7,3.95,4.88-1.73,4.17-3.89m48.44-4.44-.85,0c-4.69,0-7.48,2.45-6.23,5.71,1.3,3.52,6.7,6.42,11.89,6.73s8.18-2.28,6.88-5.68-6.51-6.36-11.69-6.73m149.47-.68a4.89,4.89,0,0,0-1.15-.14c-.7,0-1.08.23-.91.7.21.67,1.57,1.6,3,1.91s2.32.12,2.07-.56-1.58-1.54-3-1.91m-51.73-14a10.66,10.66,0,0,0-2.11-.24c-2,0-3.17.78-2.78,2.1.53,1.72,3.56,3.64,6.77,4.38s5.31-.25,4.78-1.92-3.48-3.64-6.66-4.32M325.84,239a4.23,4.23,0,0,0-1-.14c-.44,0-.7.12-.66.39.06.49.92,1.11,1.94,1.48s1.73.18,1.64-.25-.93-1.11-1.92-1.48m-99-3.52a16.52,16.52,0,0,0-3-.27c-4.26,0-7,1.89-6.31,4.78.86,3.52,6.51,7,12.44,8s9.85-1.11,8.95-4.5-6.23-6.91-12.1-8m-54-7.34a14.52,14.52,0,0,0-1.74-.11c-4.15,0-6.89,2-6.32,4.8.65,3.27,5.4,6.29,10.49,6.85s8.49-1.48,7.85-4.63-5.22-6.24-10.28-6.91m-55.17-1.92h-.35c-1.64,0-2.79.83-2.59,2s1.89,2.36,3.71,2.54,3.11-.81,2.9-2-1.85-2.34-3.67-2.47m-56.28-.8a1,1,0,0,0-1.08-.74c-.53,0-.9.31-.87.67a1.1,1.1,0,0,0,1.08.74c.56.07.93-.3.87-.67M2,224.87c0-.43-.56-.8-1.11-.8s-1,.37-.87.8.5.74,1.12.74.92-.37.86-.74m273.18-3a9.61,9.61,0,0,0-2.44-.37c-1.62,0-2.67.6-2.59,1.67.16,1.42,2.69,3.27,5.59,4.07s5.09.25,4.94-1.17-2.6-3.33-5.5-4.2M324.89,217a3.17,3.17,0,0,0-1.13-.27c-.32,0-.52.11-.54.33-.06.43.68,1,1.57,1.3s1.64.37,1.67-.06-.65-1-1.57-1.3M223.23,206.35a15.56,15.56,0,0,0-3.59-.46c-3.28,0-5.53,1.31-5.4,3.49.16,2.77,4.54,6.05,9.63,7.16s9-.19,8.8-3-4.38-6.05-9.44-7.23m105.4-9a1.46,1.46,0,0,0-.72-.23c-.18,0-.31.06-.33.18s.3.49.82.74,1,.24,1,.06-.31-.56-.8-.75m-53,.07a8.54,8.54,0,0,0-2.69-.5c-1.22,0-2.07.4-2.16,1.12-.12,1.23,1.85,2.9,4.38,3.76s4.69.55,4.82-.62-1.83-2.9-4.35-3.76m-105.77-1.73a13.05,13.05,0,0,0-2.41-.25c-3.14,0-5.4,1.37-5.37,3.46.13,2.65,3.73,5.37,8.05,6.11s7.72-.68,7.63-3.27-3.58-5.25-7.9-6.05m-55.08-6.54a5.52,5.52,0,0,0-.71,0c-1.57,0-2.71.7-2.71,1.77s1.54,2.48,3.42,2.66,3.43-.5,3.43-1.67-1.58-2.41-3.43-2.71m221.85-9.27a1.14,1.14,0,0,0-.45-.1.25.25,0,0,0-.17,0c-.06.06.12.31.4.49a.82.82,0,0,0,.65.07c.07-.13-.16-.31-.43-.5M225,179.43a13.38,13.38,0,0,0-3.92-.62c-2.45,0-4.23.85-4.44,2.35-.31,2.22,3,5.06,7.28,6.23s7.94.5,8.22-1.72-2.87-4.95-7.14-6.24m55.88-4.32a8.38,8.38,0,0,0-2.93-.61c-.91,0-1.58.24-1.76.73-.34,1,1.23,2.59,3.49,3.46s4.32.86,4.66-.12-1.21-2.54-3.46-3.46m-108.42-9.57a11.2,11.2,0,0,0-2.77-.37c-2.33,0-4.11.87-4.33,2.4-.34,2,2.38,4.39,6,5.25s6.73-.06,7-2-2.29-4.38-5.9-5.31m176-.43a.37.37,0,0,0-.32-.19s0,.25.19.31a.81.81,0,0,0,.31.06.32.32,0,0,0-.18-.18M118,155.17a4.88,4.88,0,0,0-.93-.09c-1.19,0-2.15.46-2.28,1.2-.19,1,1,2,2.6,2.34s3-.18,3.2-1.17-1-1.91-2.59-2.28m172.42.37a6.72,6.72,0,0,0-2.67-.68,1.41,1.41,0,0,0-1.28.49c-.43.68.68,1.85,2.41,2.66s3.52,1,3.95.31-.68-2-2.41-2.78m-58.6-1.17a14.3,14.3,0,0,0-4.75-.91c-2.05,0-3.59.62-4,1.83-.71,2,2.13,4.75,6.24,6.18s8,1.05,8.61-.87-2-4.69-6.09-6.23m131.93-1.49a.18.18,0,0,0-.13-.06.7.7,0,0,0,.06.19.25.25,0,0,1,.15.05.42.42,0,0,0-.08-.18M61.82,146.34a.44.44,0,0,0-.16,0c-.27,0-.49.12-.51.33s.18.43.52.55.68-.19.71-.37-.21-.43-.56-.49m320.24-2.72a.22.22,0,0,0-.15-.06l.06.06a.23.23,0,0,0,.16.06l-.07-.06M4.68,138.81c.06-.31-.18-.5-.56-.56s-.67.12-.73.37.24.43.61.55a.65.65,0,0,0,.68-.36m299.15-.19a5.24,5.24,0,0,0-2.5-.77,1.24,1.24,0,0,0-.89.27c-.47.5.33,1.43,1.72,2.23s2.94,1,3.4.56-.31-1.55-1.73-2.29m-123.49-1.05a11.24,11.24,0,0,0-3.45-.57c-2,0-3.56.64-4,1.81-.65,1.79,1.66,4.13,5.09,5.18s6.7.49,7.32-1.3-1.55-4-5-5.12m62.55-5.06a11.94,11.94,0,0,0-4.81-1.13c-1.48,0-2.65.4-3.12,1.19-.93,1.54,1.17,3.89,4.66,5.31s7,1.42,7.84-.07-1.11-3.82-4.57-5.3m-116.11-8.59a4.39,4.39,0,0,0-1.25-.18,2.12,2.12,0,0,0-2,.92c-.31.87.68,1.92,2.16,2.23s2.9.06,3.21-.74-.62-1.8-2.1-2.23m194.25.43a5.79,5.79,0,0,0-2.75-.93,1.3,1.3,0,0,0-.77.19c-.56.31.06,1.36,1.45,2.17s2.9,1.17,3.49.8-.07-1.42-1.42-2.23m19.78-11a4.09,4.09,0,0,0-1.81-.69.57.57,0,0,0-.34.08c-.41.18-.06.74.71,1.29a2.74,2.74,0,0,0,2.13.62c.36-.12.06-.74-.69-1.3m-82.79.07a11.09,11.09,0,0,0-4.74-1.26,3.08,3.08,0,0,0-2.24.7c-1,1.11.46,3.09,3.33,4.51s6,1.67,7,.55-.49-3.08-3.33-4.5m-65.2-.62a10.54,10.54,0,0,0-3.55-.67c-1.48,0-2.67.41-3.15,1.22-.83,1.3.86,3.28,3.76,4.33s5.81.86,6.64-.5-.83-3.27-3.7-4.38m-120.93-.68c0-.18-.06-.25-.25-.31s-.34,0-.36.13,0,.24.24.24a.33.33,0,0,0,.37-.06m291.62-6.79a2.5,2.5,0,0,0-1.38-.67.37.37,0,0,0-.23,0c-.33.06-.15.49.44.87a2.5,2.5,0,0,0,1.57.61c.34-.06.19-.49-.4-.86M15.27,100.4a.4.4,0,0,0-.15,0c-.14,0-.23.06-.25.15s.06.25.25.31.34-.06.37-.19,0-.24-.22-.24m373.16-.06a1.86,1.86,0,0,0-.9-.44c-.22,0-.12.31.18.5a1.18,1.18,0,0,0,.9.43c.21,0,.12-.19-.18-.49m55.44-.49,0,.05a.31.31,0,0,0,.18.19s0-.06,0-.19Zm-28.44-1.31a1,1,0,0,0-.55-.24c-.09,0-.06.12.09.24a1,1,0,0,0,.53.25c.15,0,.12-.12-.07-.25M140.36,96.2a2.55,2.55,0,0,0-1-.19,1.46,1.46,0,0,0-1.3.56c-.28.43.28,1.05,1.24,1.42s2,.12,2.25-.37-.25-1.05-1.21-1.42m136.46,1A10.08,10.08,0,0,0,272,95.83a2.94,2.94,0,0,0-1.64.37c-1.08.8,0,2.59,2.53,4s5.28,1.79,6.39,1,0-2.59-2.47-4m-67.46-6a8.91,8.91,0,0,0-3.34-.73,2.88,2.88,0,0,0-2.12.67c-.83.93.28,2.4,2.5,3.39s4.57,1,5.4.06-.28-2.4-2.44-3.39m88.92-6.86a8.05,8.05,0,0,0-3.68-1.2,1.81,1.81,0,0,0-.83.16c-.87.43-.25,1.6,1.39,2.59s3.64,1.54,4.51,1.11.25-1.67-1.39-2.66M86.74,80.64a.17.17,0,0,0-.1,0,.2.2,0,0,0-.11,0s0,.12.09.12a.39.39,0,0,0,.21-.06.09.09,0,0,0-.09-.06m386.74-7-.06,0s0,.06.06.14a.54.54,0,0,0,.34.25c.12,0,.12-.06,0-.18a1,1,0,0,0-.36-.19m-150.72.81a6.89,6.89,0,0,0-3.24-1.16,2.33,2.33,0,0,0-.37,0c-.75.31-.34,1.18.86,2.1a6.06,6.06,0,0,0,3.61,1.12c.74-.31.34-1.18-.86-2.1m-93-1.79a7.18,7.18,0,0,0-3.29-.9,2.52,2.52,0,0,0-1.56.4c-.83.68,0,2,1.8,2.84s3.95,1.17,4.81.5,0-1.92-1.76-2.84m-71.19-1.3a2.68,2.68,0,0,0-1.12-.24,1.27,1.27,0,0,0-1,.36c-.34.37.06,1,.93,1.3s1.82.31,2.13-.12-.07-1-.93-1.3M440,66.87h-.08c-.16,0-.13.17.11.44a1.73,1.73,0,0,0,.93.56c.24.06.24-.18,0-.43a2,2,0,0,0-.92-.56m-90.15.86a6.69,6.69,0,0,0-3.21-1.31l-.21,0c-.74.12-.47,1,.62,1.85a5.68,5.68,0,0,0,3.42,1.36c.77-.12.5-1-.62-1.92M31.94,66.19s0-.18-.09-.18a.32.32,0,0,0-.22.12s0,.06.1.12.18,0,.21-.06m377.38-1.91a5.09,5.09,0,0,0-2.07-1.18c-.55,0-.49.5.13,1.05a3.78,3.78,0,0,0,2.07,1.12c.52,0,.49-.44-.13-1m-30.5.12A5.22,5.22,0,0,0,376,63c-.68.06-.52.68.34,1.49a5.12,5.12,0,0,0,2.84,1.29c.68,0,.56-.68-.34-1.42M253.11,57.48a5.19,5.19,0,0,0-2.67-.84,1.69,1.69,0,0,0-.85.17c-.71.36-.24,1.29,1,2s2.84,1,3.52.62.24-1.29-1-2m-72.49-7.41a2.42,2.42,0,0,0-1.09-.28,1,1,0,0,0-.73.23c-.3.24-.06.67.62,1a2.12,2.12,0,0,0,1.82.12c.31-.3,0-.8-.62-1m98.49-4.5a2.65,2.65,0,0,0-1.46-.48,1,1,0,0,0-.34,0c-.37.12-.21.55.41,1a3,3,0,0,0,1.79.44c.37-.19.18-.56-.4-1m161.82-9.2c-.12-.12-.27-.31-.39-.31s-.1.12,0,.25a.93.93,0,0,0,.39.18c.1,0,.1-.06,0-.12m-132.4.31a5.84,5.84,0,0,0-2.38-.83l-.22,0c-.62.13-.43.75.4,1.36a3.71,3.71,0,0,0,2.59.87c.59-.13.41-.74-.39-1.42M205.94,32.29a1.51,1.51,0,0,0-.89-.3.59.59,0,0,0-.32.06c-.27.24-.12.49.31.74a1.33,1.33,0,0,0,1.24.12c.24-.12.12-.43-.34-.62m199.92-1a1.57,1.57,0,0,0-.77-.44c-.25,0-.18.19,0,.38a1.76,1.76,0,0,0,.77.42c.25.07.25-.18,0-.36m-66.46.18a3.91,3.91,0,0,0-1.89-.75h-.12c-.49,0-.37.5.25,1a3.1,3.1,0,0,0,2,.74c.47,0,.4-.49-.21-1M372,29.7a2.88,2.88,0,0,0-1.39-.62c-.37,0-.34.31.06.62a4.89,4.89,0,0,0,1.39.74c.34-.12.31-.37-.06-.74M234.18,18a.76.76,0,0,0-.39-.1.54.54,0,0,0-.22,0c-.12.06-.06.18.12.25a.74.74,0,0,0,.65.18c.12-.13.06-.25-.16-.37m31-10.81a1.2,1.2,0,0,0-.49-.14.25.25,0,0,0-.12,0c-.16,0-.13.12.08.25a1,1,0,0,0,.62.24c.16-.06.13-.24-.09-.37M298.09.06A.31.31,0,0,0,297.9,0V.06a.29.29,0,0,0,.19.06s.09,0,0-.06"/></clipPath><linearGradient id="linear-gradient" x1="-1895.33" y1="-830.79" x2="-1894.33" y2="-830.79" gradientTransform="matrix(-1211.94, 0, 0, 1211.94, -2295813.63, 1007235.99)" gradientUnits="userSpaceOnUse"><stop offset="0" stop-color="#fa8bff"/><stop offset="0.49" stop-color="#2bd2ff"/><stop offset="1" stop-color="#2bff88"/></linearGradient></defs><title>dot-swirl-rev</title><g class="cls-2"><rect class="cls-3" width="1212.07" height="749.51"/></g></svg>