<svg xmlns="http://www.w3.org/2000/svg" xmlns:xlink="http://www.w3.org/1999/xlink" viewBox="0 0 1212.0741 749.51"><defs><style>.a{fill:none;}.b{clip-path:url(#a);}.c{fill:url(#b);}</style><clipPath id="a" transform="translate(-22.2139 -1.4973)"><path class="a" d="M315.939,750.8242a.54.54,0,0,0,.398.126c.215.057.404-.063.373-.19,0-.056-.215-.119-.4371-.119-.2149,0-.3339.063-.3339.183m132.191-8.087c-1.574.1209-2.5911.739-2.376,1.5429.277.6761,1.725.9861,3.331.9231,1.575-.12,2.624-.803,2.378-1.479-.239-.58-1.359-1.025-2.665-1.025a5.8423,5.8423,0,0,0-.668.038m123.057-19.018c-3.458.62-5.588,2.345-4.786,3.952.803,1.479,4.318,2.282,7.809,1.668,3.489-.746,5.6209-2.535,4.785-4.014-.604-1.159-2.744-1.833-5.2481-1.833a14.6892,14.6892,0,0,0-2.56.227m114.072-26.795c-3.5531.987-5.468,3.086-4.388,4.628,1.113,1.606,4.977,2.099,8.4919,1.05,3.5221-1.05,5.4361-3.0859,4.2931-4.6279-.734-1.03-2.545-1.578-4.6681-1.578a13.81,13.81,0,0,0-3.7289.528m-383.154-2.346a.3638.3638,0,0,0-.31.184c.031.063.19.119.3731.119.214,0,.373-.119.3089-.119,0-.103-.141-.202-.2779-.202a.2513.2513,0,0,0-.094.018m124.042-5.19c-1.479.062-2.4091.7459-2.187,1.359.2769.62,1.6939.9859,3.2049.8659,1.4861-.063,2.4721-.6839,2.1621-1.2959-.247-.55-1.3871-.9491-2.677-.9491-.166,0-.3341.0061-.503.02M542.009,673.89c-3.269.557-5.218,2.1-4.414,3.459.8659,1.422,4.23,2.036,7.568,1.542,3.238-.556,5.185-2.161,4.35-3.515-.692-1.0031-2.83-1.673-5.2729-1.673a13.3287,13.3287,0,0,0-2.231.187m246.606-11.544c-3.579,1.4229-5.3681,3.825-3.8261,5.43,1.5121,1.671,5.678,1.916,9.3261.494,3.673-1.4171,5.369-3.888,3.7939-5.494a6.0307,6.0307,0,0,0-4.3529-1.358,14.2538,14.2538,0,0,0-4.941.928M649.599,651.11c-3.3311.804-5.095,2.593-3.9511,4.009,1.1121,1.423,4.7861,1.8529,8.0871.992,3.369-.866,5.1279-2.718,3.951-4.141-.744-.861-2.479-1.3261-4.4951-1.3261a14.3594,14.3594,0,0,0-3.5919.4661m-372.81-6.98c.7131,1.98,5.3111,3.705,10.344,3.8319,4.969.1841,8.4281-1.36,7.719-3.276-.7459-2.0349-5.3739-3.7049-10.312-3.8239-.2059-.005-.41-.008-.6109-.008-4.669,0-7.82,1.385-7.14,3.276m123.24-7.164c-8.151.437-13.43,3.3389-11.761,6.609,1.6691,3.274,9.7571,5.558,18.0641,5.19,8.271-.556,13.455-3.706,11.6649-6.854-1.666-2.9391-8.526-4.999-15.9039-4.999q-1.0275,0-2.0641.054m-240.0249-1.662c.089.557,1.479,1.17,2.991,1.416,1.574.191,2.749-.246,2.561-.803-.0581-.613-1.4491-1.232-2.992-1.416a5.3657,5.3657,0,0,0-.856-.0711c-1.0951,0-1.831.376-1.704.8741m348.513-10.1911c-9.54,1.2941-15.161,5.31-12.505,9.0791,2.655,3.888,12.753,6.05,22.4759,4.571,9.6931-1.423,15.1881-5.805,12.317-9.51-2.1989-2.869-8.6729-4.593-15.8839-4.593a45.3136,45.3136,0,0,0-6.404.453m373.06-2.839c-2.8141,1.3591-3.864,3.521-2.379,4.7541,1.48,1.296,4.97,1.233,7.809-.183,2.8079-1.423,3.857-3.642,2.3449-4.882a4.9168,4.9168,0,0,0-3.063-.847,10.7362,10.7362,0,0,0-4.7119,1.1579m-134.3-1.4239c-3.427,1.24-4.969,3.339-3.4831,4.756,1.542,1.484,5.526,1.6679,8.9781.436,3.427-1.24,4.9759-3.396,3.427-4.819a6.3657,6.3657,0,0,0-4.208-1.1671,14.9391,14.9391,0,0,0-4.714.7941M609.559,606.3471c-9.105,2.099-13.803,6.48-10.559,10.1861,3.306,3.641,13.5239,4.937,22.787,2.718,9.168-2.1,13.7629-6.98,10.28-10.439-2.26-2.297-7.33-3.542-13.088-3.542a42.0883,42.0883,0,0,0-9.42,1.0769M251.814,598.5c1.3919,3.339,9.662,6.487,18.431,6.854,8.738.437,14.636-1.973,13.063-5.248-1.486-3.2691-9.73-6.05-18.3421-6.481-.827-.047-1.63-.07-2.4019-.07-7.305,0-12.007,2.047-10.75,4.9451m120.4329-7.656c-14.233.4349-23.1839,4.698-20.0369,10.129,3.213,5.4309,17.66,9.7539,32.258,9.199,14.543-.676,23.312-5.678,19.7329-10.925-3.4209-4.912-16.3479-8.437-29.6759-8.437q-1.1385,0-2.2781.034m-230.1489-3.396c.5509,1.979,5.216,4.199,10.465,4.944,5.2789.677,9.135-.4351,8.515-2.351-.5491-2.036-5.279-4.1361-10.494-4.875a24.3029,24.3029,0,0,0-3.105-.213c-3.522,0-5.774.943-5.381,2.495m693.26-2.035c-2.656,1.232-3.6111,3.0849-2.1631,4.197,1.4861,1.114,4.85,1.05,7.5361-.183,2.65-1.296,3.6109-3.212,2.1-4.3241a5.0062,5.0062,0,0,0-2.9359-.756,10.6618,10.6618,0,0,0-4.537,1.0661m-361.2041-2.839c-14.9719,1.725-23.583,7.162-19.1389,12.842,4.5089,5.677,20.683,9.199,36.09,7.281,15.25-1.971,23.552-8.331,18.583-13.763-3.885-4.31-14.886-6.8311-26.718-6.8321a81.9763,81.9763,0,0,0-8.8161.4721m227.2221-1.979c-8.77,2.845-12.658,7.7829-8.7071,11.298,4.0721,3.4589,14.599,4.078,23.52,1.113,8.864-2.965,12.5689-8.271,8.372-11.608-2.2661-1.809-6.35-2.708-10.997-2.709a40.9816,40.9816,0,0,0-12.188,1.906m260.806-4.073c-2.902,1.853-3.7051,4.3829-1.7651,5.7419,1.9492,1.2961,5.9011.9231,8.834-.8659,2.87-1.91,3.61-4.444,1.695-5.742a5.4853,5.4853,0,0,0-3.093-.797,11.1381,11.1381,0,0,0-5.6709,1.663m-932.74-9.5081c.095.4291,1.146,1.0491,2.4719,1.359,1.2651.3671,2.3471.1191,2.219-.3719-.0559-.43-1.1689-1.114-2.4329-1.36a5.2676,5.2676,0,0,0-1.178-.151c-.679,0-1.101.194-1.08.5239m539.4569.4291c-14.448,2.903-21.8579,9.142-16.3569,14.637,5.55,5.432,22.287,7.714,37.1959,4.565,14.7571-3.205,21.7051-10.312,15.6861-15.498-3.903-3.349-12.3581-5.13-21.782-5.13a76.917,76.917,0,0,0-14.7431,1.426m-339.4359-9.509c1.8529,3.586,11.546,7.164,21.7319,7.9029,10.0971.6841,16.61-1.7249,14.605-5.31-2.068-3.453-11.703-6.6641-21.6419-7.467-1.341-.1-2.62-.148-3.825-.148-7.729,0-12.417,1.981-10.87,5.022m93.6329,4.692c3.9261,5.7469,20.4711,10.623,36.8661,10.375,16.236-.246,25.715-5.368,21.3009-10.868-4.4189-5.431-20.72-9.32-36.463-9.32-15.9.063-25.657,4.199-21.704,9.813m461.631-12.532c-7.1649,3.03-9.7249,7.721-5.6469,10.559,4.134,2.775,13.4859,2.655,20.807-.5561,7.221-3.2119,9.567-8.0229,5.368-10.8059a15.6329,15.6329,0,0,0-7.993-1.752,33.2751,33.2751,0,0,0-12.5351,2.555m-343.912-2.4711c-16.7669,1.302-26.0859,6.7321-20.7509,12.6011,5.4069,5.924,23.932,9.938,41.249,8.2059,17.135-1.7249,26.024-8.1489,20.067-13.827-4.937-4.6029-18.1951-7.3409-31.985-7.3409-2.8611,0-5.743.1169-8.58.3609m214.558-1.6009c-13.77,3.953-19.79,10.863-13.2459,15.991,6.606,5.12,23.653,6.171,37.821,1.789,14.0179-4.261,19.481-12.102,12.412-16.7931-3.723-2.5129-10.172-3.7509-17.4461-3.7509a71.8465,71.8465,0,0,0-19.541,2.764m256.5451-1.359c-2.7431,1.543-3.459,3.7619-1.575,4.938,1.916,1.169,5.716.8039,8.492-.803,2.749-1.6691,3.395-3.952,1.5109-5.064a5.6132,5.6132,0,0,0-2.8629-.66,11.078,11.078,0,0,0-5.565,1.589m-785.8471.2469c.8031,2.3461,6.916,5.1841,13.619,6.234,6.7261,1.05,11.3611-.0629,10.495-2.4719-.9609-2.3461-7.0109-5.001-13.6439-6.107a30.6443,30.6443,0,0,0-4.76-.408c-3.948,0-6.344,1.025-5.71,2.7529m404.3351-8.8889c-16.1161,2.6489-24.02,8.763-17.602,14.3839,6.576,5.677,25.5639,8.2691,42.2349,5.1841,16.458-3.149,23.8631-10.369,16.761-15.56-4.756-3.4619-14.719-5.2879-25.5949-5.2889a97.2554,97.2554,0,0,0-15.799,1.281m502.287-7.657c-1.853,1.479-2.1011,3.3319-.4939,4.256,1.542.802,4.35.309,6.2029-1.107,1.915-1.486,2.13-3.3951.5229-4.198a3.9864,3.9864,0,0,0-1.9179-.429,7.4671,7.4671,0,0,0-4.314,1.478M22.2479,523.6662c.1261.557,1.4851,1.2389,3.06,1.669,1.574.373,2.775.3089,2.655-.246-.19-.556-1.4861-1.36-3.092-1.7261a7.2055,7.2055,0,0,0-1.626-.2319c-.644,0-1.031.171-.9971.535m279.7051,5.373c3.483,4.1989,16.944,8.088,30.038,8.2139,12.993.1211,20.34-3.395,16.514-7.41-3.824-4.015-17.165-7.226-29.76-7.53-.637-.016-1.2631-.024-1.874-.024-11.632,0-18.234,2.762-14.918,6.75m108.11-9.0151c-13.4611.74-20.619,4.5091-15.959,8.8331,4.723,4.3179,19.7589,7.468,33.5859,6.544,13.708-1.05,20.6551-5.558,15.5281-9.6371-4.417-3.65-16.5121-5.8569-28.4451-5.8579-1.5789,0-3.155.039-4.71.1179m-197.917,2.4091c1.631,2.656,9.3519,5.375,17.191,6.177,7.815.739,12.722-.866,10.964-3.395-1.763-2.471-9.42-5.065-17.071-5.867a40.52,40.52,0,0,0-4.176-.231c-5.258,0-8.227,1.279-6.908,3.316m401.0229-3.521c-14.4149,3.648-20.4659,10.001-13.3029,14.884,7.2519,4.8739,25.404,6.05,40.3189,1.915,14.662-4.0151,20.099-11.488,12.38-15.87-4.1119-2.3431-11.0269-3.4881-18.7459-3.4881a85.5921,85.5921,0,0,0-20.65,2.5591m121.2991,1.176c-11.482,4.508-15.4961,11.114-8.738,15.313,6.823,4.1339,22.136,4.015,33.927-.8661,11.672-4.7539,15.13-12.1019,7.998-15.87-3.046-1.6479-7.526-2.4259-12.545-2.4259a59.6131,59.6131,0,0,0-20.642,3.849m-239.045-8.58c-13.086,1.788-19.2331,6.171-13.6441,10.249,5.6531,4.135,21.239,6.171,34.6991,4.071,13.278-2.099,19.0509-7.1631,13.03-10.988-4.182-2.692-12.922-4.1-22.2359-4.1a90.421,90.421,0,0,0-11.849.768m361.482,2.776c-6.9171,3.825-8.6111,8.825-3.738,11.544,4.9139,2.6549,14.6689,1.789,21.707-2.162,6.9729-3.825,8.428-9.255,3.3949-11.729a16.0572,16.0572,0,0,0-6.9569-1.338,31.2675,31.2675,0,0,0-14.407,3.685m-739.1671-5.678c.3981.9229,2.9651,2.099,5.74,2.592,2.719.4309,4.6349.121,4.168-.803-.3991-.8661-2.9921-1.979-5.7421-2.536a14.2107,14.2107,0,0,0-2.1839-.192c-1.444,0-2.261.334-1.9821.939m861.3892-7.29c-1.7581,1.359-1.9732,3.0281-.43,3.7051,1.543.74,4.23.246,6.051-1.05,1.7581-1.2961,1.9732-2.965.398-3.705a4.1,4.1,0,0,0-1.7569-.345,7.5455,7.5455,0,0,0-4.2619,1.3949M293.12,500.5772c.714.675,3.2429,1.4209,5.62,1.4789,2.3779.1261,3.7049-.3679,2.9659-1.05-.7149-.677-3.2429-1.416-5.6219-1.479-.25-.014-.489-.02-.7161-.02-1.923,0-2.9389.464-2.2479,1.07m90.179-1.2981c-4.23.1211-6.329,1.178-4.7231,2.3471,1.5741,1.2319,6.3291,2.099,10.5581,1.915,4.23-.1261,6.298-1.239,4.6919-2.409-1.573-1.13-5.964-1.856-10.03-1.856-.166,0-.332.001-.497.0029m189.6459-2.3449c-13.1519,2.902-18.431,7.967-11.5439,11.9759,6.9149,3.8941,23.741,4.9441,37.3209,1.6051,13.3661-3.212,18.0961-9.1991,10.7731-12.7771-3.906-1.8889-10.39-2.8-17.572-2.8a91.7733,91.7733,0,0,0-18.9781,1.996m114.6921-.43c-12.9361,4.5021-17.229,11.052-9.3891,15.307,7.9651,4.1411,25.473,4.0141,38.776-.9859,13.088-4.938,16.7051-12.412,8.365-16.117-3.4289-1.5541-8.3019-2.2771-13.7339-2.2771a75.9461,75.9461,0,0,0-24.018,4.073M462.73,491.9332c-7.403.74-10.68,2.965-7.2841,5.001,3.427,1.972,12.3161,3.022,19.8211,2.099,7.467-.802,10.6469-3.211,7.1-5.184-2.6049-1.417-8.0629-2.225-13.713-2.225a55.2967,55.2967,0,0,0-5.9239.309m-266.454-.126c.924,1.239,4.97,2.718,8.954,3.091,4.014.55,6.423-.064,5.463-1.297-.9871-1.1761-5.0021-2.471-8.953-3.028a21.803,21.803,0,0,0-2.642-.18c-2.33,0-3.521.533-2.822,1.414m607.2219-2.41c-10.313,5.128-12.8089,11.7989-5.3739,15.378,7.505,3.641,22.382,2.471,32.909-3.087,10.4069-5.437,12.291-12.7841,4.5069-16.052a25.8171,25.8171,0,0,0-9.54-1.548,53.1877,53.1877,0,0,0-22.5021,5.309M351.439,479.1491a6.0536,6.0536,0,0,0,2.2519.4361c.8661,0,1.2951-.247.9291-.4361a5.8568,5.8568,0,0,0-2.2261-.43c-.86,0-1.3269.182-.9549.43m184.3659.62c-9.167,1.724-12.6239,4.8171-7.5609,7.162,5.09,2.41,16.887,3.0231,26.239,1.114,9.294-1.916,12.443-5.437,7.194-7.6009-2.878-1.224-7.6851-1.811-12.946-1.811a73.7142,73.7142,0,0,0-12.9261,1.1359m555.4211-2.1629c-1.4539,1.4229-1.39,3.149.1511,3.768a5.4868,5.4868,0,0,0,5.5268-1.359c1.4551-1.422,1.3272-3.149-.2458-3.769a3.7012,3.7012,0,0,0-1.4541-.2741,5.9478,5.9478,0,0,0-3.978,1.6341m-445.547,1.113c-10.4621,3.332-13.77,7.9669-7.099,10.931,6.727,2.903,21.0529,2.7749,31.796-.802,10.5909-3.649,13.3979-8.953,6.4239-11.552a32.8893,32.8893,0,0,0-11.2009-1.59,69.4471,69.4471,0,0,0-19.92,3.013m-214.651-3.0281c-1.081.125-1.486.3091-1.017.6191a7.6386,7.6386,0,0,0,2.837.247c1.05-.063,1.479-.311.987-.614a8.0425,8.0425,0,0,0-2.256-.266c-.1861,0-.371.0039-.551.0139m-163.376.125a4.0447,4.0447,0,0,0,1.329.3741c.492,0,.739-.064.619-.247a4.2637,4.2637,0,0,0-1.303-.31c-.5491,0-.829.0579-.645.1829m654.053.62c-4.8431,3.333-5.368,7.411-1.1131,9.2,4.23,1.7889,11.7671.556,16.6731-2.902,4.85-3.396,5.184-7.594.866-9.263a12.17,12.17,0,0,0-4.3371-.704,23.0212,23.0212,0,0,0-12.0889,3.6689m-417.91-9.078c-.8659.182-1.1449.3731-.651.5551a5.9691,5.9691,0,0,0,2.4081.1269c.8669-.1889,1.171-.437.645-.557a3.1373,3.1373,0,0,0-1.2991-.204,7.9918,7.9918,0,0,0-1.103.079M178.984,465.5062a5.6244,5.6244,0,0,0,.62.245c.2789.062.4609,0,.3729-.12a2.1544,2.1544,0,0,0-.6179-.189,1.3043,1.3043,0,0,0-.223-.023c-.1431,0-.192.041-.152.087m575.919,4.936c-10.527,4.818-12.9051,10.932-5.09,14.081,7.873,3.275,23.274,2.036,34.047-3.2121,10.6219-5.1209,12.355-11.9189,4.198-14.7569a29.2717,29.2717,0,0,0-9.229-1.273,61.7017,61.7017,0,0,0-23.926,5.161m-148-5.43c-5.954,1.6689-7.6561,4.015-3.705,5.43,3.952,1.36,12.1649,1.1759,18.2479-.549,6.0191-1.732,7.5291-4.325,3.49-5.621a22.944,22.944,0,0,0-6.316-.7171,49.3331,49.3331,0,0,0-11.717,1.4571m-287.6651-4.573a.34.34,0,0,0,.3111.126h.1519c-.057-.126-.2159-.126-.3049-.126Zm74.93-.302c-.715,0-.93.12-.589.246a3.95,3.95,0,0,0,1.822.182c.651,0,.897-.182.556-.308a4.242,4.242,0,0,0-1.2411-.145c-.187,0-.374.008-.5479.025m69.857-5.254c-.2721,0-.3971.062-.214.1259a4.1693,4.1693,0,0,0,.897,0c.31,0,.374-.0639.215-.1259a1.4684,1.4684,0,0,0-.401-.043,2.8087,2.8087,0,0,0-.497.043m105.834-.493c-.803.189-.9861.493-.4611.6189a6.08,6.08,0,0,0,2.3461-.1259c.771-.184.954-.43.461-.5511a2.5486,2.5486,0,0,0-.776-.0959,10.39,10.39,0,0,0-1.57.154m465.273,1.112c-1.4219,1.234-1.3269,2.782.216,3.332a5.5259,5.5259,0,0,0,5.31-1.353c1.385-1.296,1.2959-2.782-.2461-3.338a3.8721,3.8721,0,0,0-1.322-.214,5.905,5.905,0,0,0-3.958,1.573m-324.3111.867c-8.1169,3.331-9.756,7.466-3.553,9.508,6.2411,2.036,18.121,1.05,26.3661-2.593,8.118-3.52,9.414-8.092,2.997-9.88a25.3879,25.3879,0,0,0-6.702-.7689,53.8175,53.8175,0,0,0-19.1081,3.734m154.146-.31c-7.9669,5.0639-8.834,10.988-1.7019,13.581,7.164,2.6549,19.791.746,27.971-4.692,8.023-5.248,8.365-11.664.9859-13.954a22.096,22.096,0,0,0-6.5279-.8761,41.2837,41.2837,0,0,0-20.7271,5.9411M526.885,444.88c-.739.1909-.93.3739-.405.5a10.5667,10.5667,0,0,0,2.321-.1261c.7069-.1209.891-.31.366-.4319a7.8137,7.8137,0,0,0-.8621-.041,9.347,9.347,0,0,0-1.42.099m142.719.866c-4.198,1.605-4.969,3.521-1.605,4.324,3.3369.86,9.604.247,13.896-1.4211,4.256-1.6049,4.907-3.578,1.479-4.4439a16.7427,16.7427,0,0,0-3.171-.263,33.525,33.525,0,0,0-10.599,1.804m-40.629-8.023c-.677.184-.803.493-.245.5559a4.8575,4.8575,0,0,0,2.256-.2529c.676-.183.802-.4291.247-.493a1.9045,1.9045,0,0,0-.5791-.0761,7.11,7.11,0,0,0-1.6789.2661m183.5389,3.085c-9.048,5.249-9.9719,11.236-1.7009,13.771,8.308,2.53,22.819.304,32.137-5.312,9.137-5.62,9.327-12.1.804-14.2631a28.1963,28.1963,0,0,0-6.492-.6789,53.6162,53.6162,0,0,0-24.7481,6.483m-228.271-9.2c-.4289.0641-.4919.2481-.151.2481a2.8267,2.8267,0,0,0,1.3841-.184c.405-.0641.437-.1891.0949-.245a5.4,5.4,0,0,0-1.328.1809m390.32,3.8891c-4.232,3.643-3.9529,7.721.738,9.263,4.6921,1.48,12.1021-.247,16.395-4.015,4.2551-3.7051,3.762-7.967-.9919-9.318a12.7266,12.7266,0,0,0-3.4839-.447,20.85,20.85,0,0,0-12.6572,4.517m-208.9119-5.246c-7.354,3.887-7.965,8.085-1.0811,9.755,6.9421,1.606,18.828-.246,26.3331-4.382,7.437-4.1411,7.531-8.769.493-10.129a25.054,25.054,0,0,0-4.692-.401,48.8807,48.8807,0,0,0-21.053,5.157m373.3931-4.382c-.9231,1.169-.6451,2.529.708,2.958a4.2674,4.2674,0,0,0,4.2048-1.353c.9861-1.24.645-2.535-.6829-2.9651a3.1142,3.1142,0,0,0-1.0419-.17,4.1739,4.1739,0,0,0-3.188,1.53M722.55,422.9041c-4.136,2.0351-4.35,4.07-.3979,4.69a28.7818,28.7818,0,0,0,14.7879-2.472c4.1661-2.0981,4.23-4.255.2461-4.8111a15.8768,15.8768,0,0,0-2.153-.1339,32.9565,32.9565,0,0,0-12.4831,2.7269m-41.4879-4.755c-.62.1821-.62.4921-.0331.5561a5.2145,5.2145,0,0,0,2.1-.437c.5879-.183.6449-.493.031-.549a5.0679,5.0679,0,0,0-2.098.43m235.117,1.9161c-6.638,5.2459-6.2021,10.861,1.144,12.904,7.41,1.9089,19.1069-.746,25.8409-6.24,6.6081-5.431,5.678-11.419-1.8209-13.088a20.976,20.976,0,0,0-4.669-.488,35.7574,35.7574,0,0,0-20.495,6.912m164.982-11.4891c-.93,1.1131-.62,2.2891.676,2.6551a4.5745,4.5745,0,0,0,4.0779-1.2951c.9551-1.1139.645-2.2839-.6828-2.656a3.0153,3.0153,0,0,0-.823-.1069,4.599,4.599,0,0,0-3.2481,1.4029m-218.2681.803c-6.9749,5.0011-6.4809,10.249,1.422,11.9191,7.9351,1.668,20.4091-1.113,27.5661-6.5441,7.0129-5.3119,5.899-10.99-2.13-12.2929a24.4653,24.4653,0,0,0-4.012-.31c-7.6421,0-17.005,2.9509-22.8461,7.2279m-47.755-6.9179c-5.28,3.5219-4.7849,6.9179,1.2641,7.785,6.084.923,15.4969-1.234,20.9029-5.0031,5.3371-3.64,4.5021-7.2829-1.6389-7.9659a20.4965,20.4965,0,0,0-2.4281-.136c-5.954,0-13.5049,2.188-18.1,5.32m-136.6439-5.493c-.2461.126-.2151.19.064.19a4.1779,4.1779,0,0,0,.9859-.19c.2471-.12.2471-.184-.056-.184a2.774,2.774,0,0,0-.9939.184m47.793-.556c-.3731.188-.311.436.126.436a2.6916,2.6916,0,0,0,1.51-.436c.368-.1841.312-.3671-.126-.3671a4.1947,4.1947,0,0,0-1.51.3671m44.118,1.8519c-2.75,1.6691-2.44,3.2121.709,3.401a20.3186,20.3186,0,0,0,10.838-2.5339c2.711-1.7271,2.3119-3.27-.868-3.5231-.2741-.021-.5611-.0309-.856-.0309a21.3211,21.3211,0,0,0-9.823,2.6869m249.9709-4.255c-2.688,2.8391-1.8528,5.8041,1.883,6.7281a13.7473,13.7473,0,0,0,11.6651-3.769c2.656-2.9021,1.7019-5.925-2.098-6.791a9.4922,9.4922,0,0,0-1.842-.172,13.958,13.958,0,0,0-9.6081,4.0039M715.823,377.21c-.19.062-.0961.126.088.126a2.3072,2.3072,0,0,0,.714-.184c.153-.126.09-.188-.126-.188a4.3214,4.3214,0,0,0-.676.246m244.6271,5.994c-4.5711,4.501-3.18,9.009,3.2749,10.1849,6.449,1.114,15.592-1.6689,20.219-6.36,4.541-4.692,2.7771-9.4459-3.7361-10.375a17.7825,17.7825,0,0,0-2.4968-.1689c-6.105,0-13.3091,2.766-17.261,6.719m-196.1581-9.882c-.342.1819-.189.429.245.371a3.18,3.18,0,0,0,1.3929-.435c.3031-.246.2151-.366-.2539-.366a3.4657,3.4657,0,0,0-1.384.43m411.7069.6189a1.7586,1.7586,0,0,0,1.1692,2.776,4.0018,4.0018,0,0,0,3.8328-1.6059,1.769,1.769,0,0,0-1.1758-2.775,3.3007,3.3007,0,0,0-.5911-.0511,3.9068,3.9068,0,0,0-3.2351,1.656M811.433,372.0262c-1.391,1.112-.929,1.9149,1.1119,1.9149a11.0916,11.0916,0,0,0,6.203-1.9149c1.4231-1.051.8991-1.973-1.1119-1.973a12.0822,12.0822,0,0,0-6.203,1.973m93.352,4.322c-5.335,4.877-3.73,9.448,3.8319,10.37,7.5621.987,18.3671-2.219,23.7731-7.409,5.3049-5.002,3.205-9.939-4.477-10.559-.632-.056-1.283-.084-1.948-.084-7.344,0-16.366,3.323-21.18,7.682m-49.733-3.456c-4.318,3.578-2.965,6.727,3.18,7.219,6.1451.374,14.8531-2.155,19.2021-5.986,4.3239-3.706,2.624-7.102-3.579-7.2831q-.4667-.024-.949-.0239c-6.056,0-13.776,2.729-17.854,6.074m261.8881-11.427a1.4237,1.4237,0,0,0,1.1118,2.347,3.8275,3.8275,0,0,0,3.737-1.417,1.4634,1.4634,0,0,0-1.144-2.409,2.9918,2.9918,0,0,0-.678-.075,3.7377,3.7377,0,0,0-3.0268,1.554m-321.0672-11.917c-.094.063-.032.1269.2141.1269.216-.0639.527-.1269.621-.31.151-.062.057-.126-.19-.126a.9208.9208,0,0,0-.645.309m259.138,2.1c-2.0359,2.844-.678,5.6209,3.1172,6.176,3.8308.557,8.6489-1.2951,10.6848-4.26s.5561-5.678-3.2749-6.172a9.77,9.77,0,0,0-1.253-.079c-3.5461,0-7.479,1.799-9.2741,4.335M848.66,342.9411a9.4444,9.4444,0,0,0-5.279,2.099c-1.0181.93-.3361,1.6691,1.548,1.4871a8.9212,8.9212,0,0,0,5.28-1.98c.97-.969.4339-1.619-1.1381-1.619-.13,0-.2669.004-.4109.0129m145.596,2.4721c-3.49,4.508-1.2639,8.5229,5.217,9.263,6.481.6189,14.7891-2.536,18.335-7.226,3.49-4.628.866-8.8271-5.677-9.263q-.645-.0482-1.3069-.0481c-6.23-.0009-13.3362,3.182-16.5681,7.2741m-89.994-9.135c-5.9571.183-13.241,3.1469-16.4521,6.544-3.2749,3.4579-1.208,6.1709,4.6911,6.1709,5.956-.1209,13.524-2.9029,16.824-6.5439,3.11-3.405,1.039-6.18-4.508-6.18q-.273,0-.555.0091m33.773,6.48c-4.039,4.692-1.51,8.706,5.964,9.0789,7.4669.3671,17.07-3.2119,21.174-8.2119,4.0471-4.8821.9861-9.079-6.512-9.263-.12-.002-.24-.003-.3611-.003-7.4039,0-16.313,3.783-20.2649,8.399M820.537,325.5921c-.088.1271,0,.1891.246.1271a.8714.8714,0,0,0,.5889-.248c.095-.062,0-.188-.2459-.188-.215.126-.4931.245-.589.3089m383.553-2.5289c-.3091.676.16,1.36.9939,1.479a1.991,1.991,0,0,0,2.0681-1.0491c.3081-.677-.159-1.359-.9939-1.479-.0581-.005-.1182-.0069-.1782-.0069a2.0393,2.0393,0,0,0-1.89,1.056m-331.252-7.099a7.5363,7.5363,0,0,0-4.229,1.9719c-.6841.8661.063,1.359,1.725,1.1751a7.73,7.73,0,0,0,4.23-1.978c.572-.721.1009-1.2291-1.011-1.2291a4.6126,4.6126,0,0,0-.715.06M1144.45,315.16c-.3091.6181.0879,1.1691.8918,1.2961a2.2615,2.2615,0,0,0,2.041-1.05c.272-.619-.1259-1.175-.9289-1.295q-.078-.006-.159-.006a2.02,2.02,0,0,0-1.8449,1.0549M927.262,306.4532c-5.215.494-11.083,3.2689-13.214,6.298-2.13,2.965.248,5.001,5.494,4.6279,5.224-.3669,11.3049-3.1479,13.493-6.2339,1.872-2.809-.013-4.781-4.165-4.781a15.345,15.345,0,0,0-1.608.089m154.5179,3.459c-1.302,2.4669.335,4.692,3.731,4.875,3.426.31,7.29-1.6061,8.6181-4.135,1.263-2.4721-.468-4.691-3.895-4.881q-.2266-.012-.456-.0121c-3.27,0-6.76,1.8521-7.9981,4.1531m-60.76-1.916c-2.282,3.953.437,7.227,6.2981,7.41,5.8669.183,12.626-2.9651,14.946-7.037,2.283-4.078-.771-7.41-6.6381-7.473-5.9.063-12.3169,3.275-14.606,7.1m-39.4209-7.1c-6.854.3729-14.479,4.135-17.165,8.334-2.751,4.26.3969,7.536,7.2509,7.3459,6.8531-.12,14.8521-3.7609,17.6341-8.2069,2.5759-4.22-.4949-7.5011-6.708-7.5011q-.4937,0-1.012.0281m-90.949-11.482c-1.576.367-3.245,1.234-3.674,2.036-.4631.8029.403,1.233,1.978.8659a5.9681,5.9681,0,0,0,3.7-1.9779c.3451-.638-.1489-.999-1.1369-1a5.5408,5.5408,0,0,0-.867.076m-38.8091-9.756h.126a.34.34,0,0,0,.151-.063.13.13,0,0,0-.1189-.063,1.2174,1.2174,0,0,1-.1581.126m91.4761-1.296c-3.5481.551-7.134,2.53-8.151,4.503-.9861,1.9769,1.017,3.148,4.54,2.598,3.578-.5,7.2521-2.473,8.27-4.508.825-1.645-.487-2.731-2.9941-2.731a10.67,10.67,0,0,0-1.6649.138m278.926-4.7541c-.1521.6131.3089,1.1061,1.05,1.1691a1.5916,1.5916,0,0,0,1.668-.986c.1838-.556-.3091-1.113-1.0491-1.175-.051-.004-.1011-.006-.1521-.006a1.5043,1.5043,0,0,0-1.5169.9979m-59.737-3.6479c-.1819.556.279,1.048.987,1.048a1.506,1.506,0,0,0,1.606-.8591c.158-.5559-.2781-1.05-1.0181-1.05a1.6942,1.6942,0,0,0-1.5749.861m-164.854-1.543c-6.208.739-12.38,4.325-14.0491,8.03-1.6938,3.705,1.822,6.1709,8.0291,5.6139,6.2041-.5509,12.716-4.0709,14.417-7.9039,1.423-3.392-1.429-5.864-6.396-5.864a16.7876,16.7876,0,0,0-2.001.124m102.5849.803c-.7089,2.162,1.1111,3.8879,4.1722,3.8879,3.0539,0,6.17-1.7259,6.9428-3.9519.7151-2.155-1.17-3.8871-4.2309-3.8871-3.086.063-6.107,1.8531-6.8841,3.9511m-48.4389-4.445c-5.1841.3739-10.3379,3.396-11.697,6.7339-1.2959,3.3941,1.696,5.8611,6.8859,5.6781,5.1851-.311,10.584-3.212,11.886-6.728,1.249-3.265-1.542-5.709-6.229-5.709-.2759,0-.5569.008-.8459.025m-149.4781-.676c-1.39.367-2.7189,1.2329-2.9659,1.909-.245.682.653.93,2.069.556,1.391-.308,2.75-1.2321,2.9649-1.9091.1691-.469-.213-.7019-.9179-.7019a5.4526,5.4526,0,0,0-1.15.146m51.7371-14.018c-3.18.677-6.107,2.655-6.6641,4.3179-.5239,1.67,1.5751,2.5361,4.7861,1.9161,3.207-.74,6.234-2.6551,6.7609-4.381.3971-1.3161-.79-2.095-2.7779-2.095a10.1584,10.1584,0,0,0-2.105.242m-45.686-9.6351c-.986.3721-1.8521.9921-1.916,1.485-.095.43.6829.494,1.638.2471,1.0189-.3731,1.8839-.986,1.9409-1.48.0391-.2681-.2159-.395-.656-.395a4.4738,4.4738,0,0,0-1.0069.1429m98.9729-3.515c-5.866,1.1121-11.2029,4.6911-12.1009,8.0241-.8979,3.394,3.054,5.374,8.9529,4.5069,5.93-.9859,11.5772-4.5069,12.4422-8.0239.66-2.8931-2.0562-4.7841-6.3182-4.7841a16.9876,16.9876,0,0,0-2.976.277m53.9641-7.3479c-5.065.677-9.5659,3.825-10.281,6.91-.6441,3.156,2.782,5.1911,7.8459,4.636,5.0911-.5569,9.845-3.584,10.4961-6.855.5689-2.8319-2.1731-4.7989-6.3249-4.7989a14.4126,14.4126,0,0,0-1.7361.108m55.17-1.915c-1.82.126-3.457,1.233-3.6719,2.472-.216,1.232,1.0811,2.099,2.9019,2.037,1.82-.1841,3.489-1.297,3.7041-2.536.2019-1.1531-.947-1.985-2.586-1.985q-.171,0-.3481.012m56.2781-.804c-.063.3739.311.74.8659.678a1.1038,1.1038,0,0,0,1.0811-.74c.032-.367-.3411-.678-.865-.678a1.05,1.05,0,0,0-1.082.74m59.4331-.493c-.0642.3669.366.74.86.74.6191,0,1.111-.3731,1.111-.74.128-.43-.3081-.802-.8659-.802-.5491,0-1.105.3719-1.105.802M959.002,223.4051c-2.901.8681-5.3111,2.7191-5.5,4.1991-.152,1.424,2.041,1.979,4.9439,1.1759,2.9011-.802,5.43-2.6559,5.5891-4.0769.083-1.067-.969-1.6631-2.5859-1.6631a9.3462,9.3462,0,0,0-2.4471.365m-49.677-4.9359c-.922.309-1.606.922-1.574,1.296.032.43.771.43,1.6689.064.8921-.312,1.6381-.8671,1.5751-1.298-.016-.2261-.224-.3351-.545-.3351a3.1058,3.1058,0,0,0-1.125.2731m101.661-10.6221c-5.0569,1.1761-9.231,4.4441-9.4451,7.2261-.1519,2.776,3.7041,4.072,8.8,2.965,5.09-1.112,9.4781-4.387,9.63-7.162.1369-2.1751-2.1162-3.484-5.3982-3.484a15.3715,15.3715,0,0,0-3.5869.4549m-105.397-9.0159c-.494.189-.86.556-.804.746.064.1819.5249.1819,1.0249-.0631.5251-.2469.859-.557.828-.74-.0269-.1169-.1529-.1779-.3309-.1779a1.4387,1.4387,0,0,0-.718.235m53.04.0629c-2.528.865-4.477,2.5351-4.35,3.7681.1211,1.169,2.2511,1.48,4.812.62,2.535-.8671,4.5081-2.535,4.387-3.7681-.0969-.72-.9429-1.115-2.165-1.115a8.4862,8.4862,0,0,0-2.6839.495m105.77-1.7259c-4.3239.803-7.8449,3.579-7.903,6.05-.095,2.5929,3.238,4.0149,7.625,3.269,4.3191-.74,7.928-3.459,8.0559-6.107.0251-2.093-2.2349-3.46-5.3718-3.46a12.2294,12.2294,0,0,0-2.4061.2481m55.0711-6.544c-1.8472.303-3.3972,1.48-3.4282,2.7129,0,1.1751,1.5171,1.916,3.4282,1.6681,1.8838-.182,3.4258-1.48,3.4258-2.655,0-1.073-1.146-1.773-2.7068-1.773a5.5724,5.5724,0,0,0-.719.047m-221.8411-9.263c-.278.183-.5.3659-.436.494a.8336.8336,0,0,0,.651-.064c.2779-.184.4609-.43.3989-.494a.2728.2728,0,0,0-.172-.041,1.1173,1.1173,0,0,0-.4419.105m111.6309-.4361c-4.261,1.2961-7.41,4.1421-7.1309,6.24.2791,2.22,3.92,3.0231,8.2119,1.7261,4.2862-1.1691,7.5931-4.015,7.284-6.234-.209-1.5-1.9868-2.354-4.439-2.354a13.7818,13.7818,0,0,0-3.926.6219m-55.8779-4.3179c-2.251.9229-3.7691,2.465-3.459,3.458.3409.986,2.409,1.05,4.659.12,2.258-.865,3.831-2.466,3.492-3.4581-.18-.4849-.846-.7319-1.7641-.7329a8.4537,8.4537,0,0,0-2.9279.613m108.4189-9.573c-3.61.93-6.2019,3.276-5.8928,5.311.31,1.916,3.428,2.838,7.0368,1.972,3.5791-.86,6.2981-3.268,5.9571-5.2461-.2219-1.5329-1.9939-2.4049-4.3291-2.4049a11.2037,11.2037,0,0,0-2.772.368m-176.0019-.429a.3029.3029,0,0,0-.183.182.8271.8271,0,0,0,.31-.063c.151-.056.184-.31.184-.31a.367.367,0,0,0-.311.191m230.4641-9.94c-1.605.3681-2.75,1.4161-2.5911,2.2831.1509.986,1.63,1.542,3.2051,1.169,1.6069-.303,2.7829-1.3531,2.593-2.345-.1221-.7371-1.0881-1.199-2.2742-1.199a4.8144,4.8144,0,0,0-.9328.0919m-172.4222.3681c-1.7259.802-2.8079,2.099-2.4089,2.781.4359.676,2.194.5489,3.9509-.31,1.7331-.803,2.8451-1.9789,2.4091-2.6549a1.4023,1.4023,0,0,0-1.2731-.493,6.8017,6.8017,0,0,0-2.678.677m58.5982-1.171c-4.0791,1.5429-6.7661,4.255-6.083,6.234.6438,1.916,4.5078,2.346,8.6118.867,4.1091-1.4231,6.947-4.1991,6.2331-6.1781-.4191-1.2039-1.9611-1.8269-4.007-1.8269a14.3856,14.3856,0,0,0-4.7549.904m-131.9212-1.486a.3973.3973,0,0,0-.0889.184.3752.3752,0,0,1,.151-.0561.4932.4932,0,0,0,.0639-.19.1949.1949,0,0,0-.126.062m301.8711-6.5441c-.341.0641-.5881.3111-.5561.4931.032.1839.3352.373.707.373.343-.126.6221-.373.5271-.555-.0271-.205-.2451-.3271-.51-.3271a.9934.9934,0,0,0-.168.016m-320.238-2.7179-.064.063a.2469.2469,0,0,0,.158-.063l.063-.057a.26.26,0,0,0-.157.057m377.3809-4.812a.6435.6435,0,0,0,.6782.367c.3718-.12.6189-.309.6189-.557-.064-.245-.374-.365-.739-.365-.3741.056-.62.245-.5581.555m-299.1519-.19c-1.416.747-2.188,1.795-1.7261,2.29.4611.429,2.0041.184,3.3951-.558,1.3909-.802,2.1929-1.732,1.726-2.224a1.2244,1.2244,0,0,0-.895-.2731,5.3564,5.3564,0,0,0-2.5.7651m123.4929-1.049c-3.428,1.113-5.6518,3.396-4.977,5.1279.6211,1.7891,3.865,2.3451,7.322,1.2961,3.428-1.05,5.741-3.3951,5.09-5.185-.42-1.1681-1.992-1.8091-3.9829-1.8091a11.3853,11.3853,0,0,0-3.4522.57m-62.55-5.0591c-3.458,1.48-5.4629,3.89-4.5708,5.3061.8659,1.486,4.3879,1.549,7.8459.0629,3.4829-1.416,5.584-3.7679,4.659-5.3109-.4729-.786-1.6431-1.188-3.126-1.188a11.9667,11.9667,0,0,0-4.8081,1.13m116.1091-8.5849c-1.48.429-2.41,1.4229-2.1,2.226s1.7322,1.169,3.2122.7389c1.479-.31,2.4729-1.3589,2.1609-2.2259a2.1123,2.1123,0,0,0-2.022-.921,4.52,4.52,0,0,0-1.251.182m-194.244.429c-1.358.804-1.979,1.797-1.421,2.226.587.374,2.13.064,3.489-.802,1.385-.803,2.005-1.853,1.448-2.162a1.3039,1.3039,0,0,0-.765-.193,5.7061,5.7061,0,0,0-2.751.931M893.4,114.8612c-.7461.555-1.05,1.175-.6841,1.295a2.7359,2.7359,0,0,0,2.13-.614c.772-.555,1.1141-1.1121.709-1.295a.6275.6275,0,0,0-.339-.081,4.1371,4.1371,0,0,0-1.8159.695m82.793.062c-2.8391,1.423-4.3181,3.459-3.332,4.509,1.018,1.1129,4.135.803,6.98-.557,2.8711-1.422,4.35-3.395,3.3321-4.508a3.0271,3.0271,0,0,0-2.2361-.696,11.0589,11.0589,0,0,0-4.7439,1.252m65.2051-.619c-2.87,1.112-4.5081,3.092-3.7051,4.388.835,1.3529,3.7671,1.606,6.6389.493,2.9021-1.05,4.596-3.029,3.761-4.324-.4758-.8161-1.6719-1.225-3.148-1.225a10.5384,10.5384,0,0,0-3.5468.668m120.926-.677a.3463.3463,0,0,0,.366.0639c.19,0,.2788-.19.2478-.2479-.0259-.126-.2149-.126-.368-.126-.184.064-.279.126-.2458.31m-291.6182-6.79c-.5869.3661-.739.802-.4029.859a2.49,2.49,0,0,0,1.574-.6129c.587-.372.7709-.802.437-.8661a.455.455,0,0,0-.23-.0529,2.4842,2.4842,0,0,0-1.3781.6729m348.2361-4.9439c-.1831,0-.2771.1259-.2141.2459.031.125.2141.1891.3672.1891.19-.0641.2768-.1891.2458-.3091-.019-.0929-.1088-.1479-.2419-.1479a.6169.6169,0,0,0-.157.022m-373.1531-.057c-.3029.3029-.3969.492-.182.492.2151.064.5871-.126.8981-.435.302-.184.397-.4941.182-.4941a1.8429,1.8429,0,0,0-.8981.4371m-55.625-.4371c-.0629.1261-.0319.19-.0319.19a.3351.3351,0,0,0,.1839-.19l.031-.0559Zm28.6171-1.3579c-.1841.126-.217.246-.0641.246a1.0931,1.0931,0,0,0,.5241-.246c.1579-.1211.1839-.248.0949-.248a1.0971,1.0971,0,0,0-.5549.248m275.069-2.347c-.96.374-1.5171.9919-1.208,1.4239.279.4911,1.2959.6751,2.257.3721.9549-.3721,1.512-.993,1.233-1.422a1.4454,1.4454,0,0,0-1.293-.5641,2.7143,2.7143,0,0,0-.989.19m-136.454,1.05c-2.473,1.36-3.5541,3.149-2.473,3.9519,1.114.802,3.953.31,6.393-.9869,2.4969-1.422,3.61-3.212,2.5291-4.015a3.0423,3.0423,0,0,0-1.6411-.371,10.1726,10.1726,0,0,0-4.808,1.421m67.455-5.988c-2.1609.9869-3.243,2.5289-2.439,3.396.834.928,3.2429.928,5.3979-.064,2.2261-.9861,3.3391-2.4651,2.5052-3.394a2.88,2.88,0,0,0-2.1241-.662,8.9061,8.9061,0,0,0-3.34.724m-88.913-6.854c-1.639.9869-2.2211,2.1639-1.391,2.657.866.4289,2.876-.064,4.507-1.114,1.638-.986,2.258-2.161,1.3909-2.591a1.8784,1.8784,0,0,0-.828-.157,7.9268,7.9268,0,0,0-3.6789,1.205m211.534-3.767a.1022.1022,0,0,0-.0891.062.4018.4018,0,0,0,.2161.064c.0559,0,.0879-.126.0879-.126a.2957.2957,0,0,0-.117-.026.19.19,0,0,0-.0979.026m-386.733-6.974a.9912.9912,0,0,0-.3671.184c-.0949.126-.0949.182.0251.182a.5688.5688,0,0,0,.342-.246c.069-.088.088-.145.0559-.145a.117.117,0,0,0-.0559.025m150.7169.802c-1.2009.924-1.6059,1.79-.8659,2.1a6.0242,6.0242,0,0,0,3.617-1.1121c1.201-.9239,1.606-1.79.8589-2.1a1.617,1.617,0,0,0-.3729-.039,6.8691,6.8691,0,0,0-3.2371,1.151m93.0181-1.789c-1.7891.924-2.593,2.219-1.7581,2.839.86.677,3.022.493,4.8121-.4941,1.82-.8659,2.624-2.161,1.7961-2.839a2.5607,2.5607,0,0,0-1.5552-.4069,7.1984,7.1984,0,0,0-3.2949.901m71.1929-1.2961c-.867.303-1.2969.9231-.93,1.2961.31.43,1.2652.43,2.1311.12s1.264-.922.93-1.2961a1.2935,1.2935,0,0,0-1.0149-.3649,2.7882,2.7882,0,0,0-1.1162.2449M794.204,68.37a1.9466,1.9466,0,0,0-.923.557c-.2781.246-.2781.4929-.0331.43a1.7262,1.7262,0,0,0,.9231-.5571c.242-.2679.2739-.442.1179-.442a.3607.3607,0,0,0-.0849.0121m90.1479.86c-1.114.929-1.3919,1.795-.6209,1.916a5.7139,5.7139,0,0,0,3.427-1.359c1.082-.86,1.359-1.727.62-1.853a1.5035,1.5035,0,0,0-.2181-.015,6.5991,6.5991,0,0,0-3.208,1.311m317.918-1.542c.032.062.126.062.2151.062.095-.062.095-.126.095-.126a.3237.3237,0,0,0-.2151-.12c-.063,0-.095.1841-.095.1841m-377.376-1.9091c-.6189.5491-.652.9861-.1269.9861a3.7962,3.7962,0,0,0,2.068-1.113c.619-.557.682-1.05.1259-1.05a5.0273,5.0273,0,0,0-2.067,1.177m30.499.12c-.8969.7391-1.0169,1.4211-.3409,1.4211a5.1157,5.1157,0,0,0,2.839-1.295c.866-.804,1.025-1.4231.3409-1.486a5.19,5.19,0,0,0-2.839,1.36m125.7142-6.9179c-1.2662.683-1.7332,1.5429-1.0191,1.979.676.368,2.25.0639,3.5149-.619,1.2651-.74,1.7332-1.669,1.0181-2.0361a1.7936,1.7936,0,0,0-.845-.171,5.2146,5.2146,0,0,0-2.6689.8471m72.4868-7.41c-.6509.2471-.929.7461-.6189,1.0491a2.13,2.13,0,0,0,1.821-.12c.676-.3091.9229-.739.62-.987a1.0573,1.0573,0,0,0-.7319-.224,2.3515,2.3515,0,0,0-1.09.2819m-98.487-4.5029c-.5809.432-.771.798-.3989.9879a3.1155,3.1155,0,0,0,1.7889-.4359c.621-.43.7731-.8611.4061-.987a1.1416,1.1416,0,0,0-.34-.044,2.61,2.61,0,0,0-1.4561.479M793.281,37.8631c-.0961.0641-.0961.1281,0,.1281a1.0113,1.0113,0,0,0,.398-.184c.096-.1261.096-.247,0-.247-.121,0-.278.1829-.398.3029m132.408.3111c-.803.683-.987,1.296-.3991,1.422a3.7154,3.7154,0,0,0,2.5921-.867c.8349-.613,1.018-1.232.398-1.358a1.0157,1.0157,0,0,0-.216-.021,5.71,5.71,0,0,0-2.375.824m102.589-4.382c-.4681.183-.5879.4929-.3411.619a1.3047,1.3047,0,0,0,1.2331-.1261c.4361-.2469.587-.4929.31-.74a.7087.7087,0,0,0-.314-.0609,1.5142,1.5142,0,0,0-.8879.308m-199.9261-.9861c-.2459.1831-.2459.4291,0,.3661a1.6805,1.6805,0,0,0,.771-.4291c.1831-.1839.2471-.3739,0-.3739a1.5886,1.5886,0,0,0-.771.4369m66.463.1831c-.6129.4939-.676.986-.2149.986a3.1132,3.1132,0,0,0,1.979-.74c.614-.4921.74-.986.2469-.986a.9832.9832,0,0,0-.1239-.007,3.9247,3.9247,0,0,0-1.8871.747m-32.568-1.79c-.3719.368-.4039.614-.062.741a4.9259,4.9259,0,0,0,1.39-.741c.399-.309.43-.619.0629-.619a2.8764,2.8764,0,0,0-1.391.619m137.783-11.734c-.2158.1269-.279.2469-.16.374a.72.72,0,0,0,.6531-.1841c.1819-.063.2458-.19.1259-.2469a.5333.5333,0,0,0-.225-.042.82.82,0,0,0-.3941.099M969.036,8.66c-.2219.1271-.2529.31-.095.3721a1.0262,1.0262,0,0,0,.6189-.245c.2161-.1271.2481-.248.0891-.248a.2767.2767,0,0,0-.1269-.024,1.0979,1.0979,0,0,0-.4861.1449M936.12,1.5592c-.088.063,0,.063,0,.063a.3146.3146,0,0,0,.19-.063v-.062a.3167.3167,0,0,0-.19.062"/></clipPath><linearGradient id="b" x1="-2251.0396" y1="1455.6832" x2="-2250.0395" y2="1455.6832" gradientTransform="matrix(1211.9376, 0, 0, -1211.9376, 2728119.5815, 1764571.9461)" gradientUnits="userSpaceOnUse"><stop offset="0" stop-color="#fa8bff"/><stop offset="0.4861" stop-color="#2bd2ff"/><stop offset="1" stop-color="#2bff88"/></linearGradient></defs><title>dot-swirl</title><g class="b"><rect class="c" width="1212.0741" height="749.51"/></g></svg>