<svg xmlns="http://www.w3.org/2000/svg" xmlns:xlink="http://www.w3.org/1999/xlink" viewBox="0 0 1098.0115 728.5281"><defs><style>.a{fill:none;}.b{clip-path:url(#a);}.c{fill:url(#b);}</style><clipPath id="a" transform="translate(-31.1287 -29.955)"><path class="a" d="M608.625,757.4379c-.1621.331.1121.713.658.9051a1.5675,1.5675,0,0,0,1.426-.2481c.218-.275-.1069-.684-.658-.875a1.4533,1.4533,0,0,0-.5219-.089,1.2468,1.2468,0,0,0-.9041.307m160.457-34.893c-.3291.742.5511,1.672,2.0269,1.948,1.594.247,3.071-.14,3.458-.96.27-.825-.55-1.701-2.0879-1.976a6.14,6.14,0,0,0-.864-.0629,2.778,2.778,0,0,0-2.533,1.0509M491.64,716.1839c-.106.304,0,.6071.5491.826a1.1193,1.1193,0,0,0,1.3139-.113c.22-.2179,0-.6-.437-.819a1.5473,1.5473,0,0,0-.6308-.135,1.3924,1.3924,0,0,0-.7952.241M646.1741,695.028c-.9832,1.504.551,3.3669,3.6208,4.22,3.0152.742,6.197.136,7.292-1.369,1.0391-1.5389-.6059-3.402-3.62-4.194a10.502,10.502,0,0,0-2.573-.317c-2.0781,0-3.978.6081-4.72,1.66m270.1008-22.2861c-.1128.163.1631.331.5442.382.3318.1121.7688-.079.7688-.3259a.5086.5086,0,0,0-.5488-.3831c-.3272,0-.7642.108-.7642.327M387.156,669.345c-.77.6009-.3821,1.6949.9309,2.3579a3.9049,3.9049,0,0,0,3.8911,0c.7681-.578.2749-1.7-.988-2.3579a5.4258,5.4258,0,0,0-2.1621-.4761,2.6549,2.6549,0,0,0-1.6719.4761m152.2329-6.989c-.55.5169,0,1.3149,1.094,1.6949,1.0442.36,2.5271.277,2.9082-.2739.4368-.573,0-1.37-1.15-1.6951a3.6053,3.6053,0,0,0-1.324-.251,2.0016,2.0016,0,0,0-1.5281.5251m257.7051-2.3571c-.437.876.656,1.808,2.3579,2.083,1.8071.191,3.62-.275,4.0022-1.207.3828-.876-.657-1.808-2.4131-2.083a7.0766,7.0766,0,0,0-.782-.042c-1.489,0-2.883.4551-3.165,1.249M683.51,638.97c-.988,1.5389.55,3.2679,3.615,3.8969,2.9651.656,6.1411,0,7.073-1.482,1.0449-1.533-.656-3.2059-3.615-3.8629a11.5726,11.5726,0,0,0-2.2649-.2261c-2.1711,0-4.07.631-4.8081,1.6741M437.2051,622.1979c-1.7,1.453-.605,3.7831,2.4138,5.1531,3.177,1.37,7.1811,1.2629,8.769-.219,1.7571-1.506.55-3.89-2.521-5.2111a11.81,11.81,0,0,0-4.541-.922,6.3474,6.3474,0,0,0-4.1208,1.199m-137.3792-1.314c-.6018.382-.3249,1.016.438,1.454a2.3587,2.3587,0,0,0,2.3071.191c.545-.359.326-1.0439-.444-1.511a2.84,2.84,0,0,0-1.376-.37,1.7087,1.7087,0,0,0-.9251.236M931.459,611.127c0,.051.1631.1359.3821.1359.0549.027.2749-.0849.2749-.1359,0-.1121-.1121-.167-.22-.1951a.7681.7681,0,0,0-.437.1951m-357.4231-1.099c-2.5779,2.9849.218,6.9379,6.4661,8.8289,6.2529,1.9151,13.49.955,16.01-2.109,2.633-3.021-.388-6.883-6.5789-8.719a23.4238,23.4238,0,0,0-6.6291-.958c-3.982,0-7.565,1.042-9.2681,2.9571m245.698-7.2361c-.7129,1.509,1.0991,2.9861,4.0591,3.346,2.958.303,5.81-.6569,6.415-2.1679.6011-1.5041-1.207-3.0141-4.115-3.2881a9.759,9.759,0,0,0-1.2009-.074c-2.4231,0-4.6382.89-5.1582,2.184M712.5659,586.731c-1.595,2.52,1.2012,5.317,6.354,6.2479,5.103.961,10.5261-.325,12.1192-2.902,1.477-2.499-1.3182-5.293-6.522-6.1689a18.5638,18.5638,0,0,0-3.3511-.3041c-3.8679,0-7.364,1.2051-8.6,3.1271M353.385,581.0549c-1.258.933-.8191,2.549,1.15,3.622,1.9761,1.066,4.553,1.123,5.9221.191,1.315-.932.77-2.498-1.094-3.593a8.4434,8.4434,0,0,0-3.5639-.8159,4.3577,4.3577,0,0,0-2.4141.5959m128.28-3.2039c-2.9079,2.4929-.8259,6.276,4.4959,8.3859,5.479,2.112,12.2771,1.7011,15.073-.9029,2.9072-2.578.656-6.3041-4.7669-8.359a20.9621,20.9621,0,0,0-7.2-1.2831c-3.1211,0-5.95.7361-7.6021,2.1591m-255.0791-6.6921c-.3249.219-.2678.633.1121.933a1.2322,1.2322,0,0,0,1.314.1951c.438-.1951.331-.6331,0-.93a1.6944,1.6944,0,0,0-.9419-.2989,1.1135,1.1135,0,0,0-.4842.1009m381.927-8.1109c-3.7258,4.193.5511,9.678,9.65,12.063,9.1,2.437,19.4619.6569,22.9709-3.7331,3.5081-4.357-.988-9.615-9.925-11.811a34.246,34.246,0,0,0-8.4251-1.0449c-6.124,0-11.7009,1.6389-14.271,4.526m333.5782-7.8931c-.106.657.6569,1.208,1.864,1.1791,1.2058.0289,2.302-.5221,2.4138-1.1791.219-.629-.657-1.178-1.8628-1.178s-2.3032.521-2.415,1.178m99.831-4.552a2.4409,2.4409,0,0,0-2.25,1.3981c0,.6839,1.043,1.2619,2.138,1.099,1.207-.0561,2.1379-.7121,2.1379-1.3971.103-.631-.739-1.104-1.8579-1.104-.0562,0-.1111.0011-.168.004M107.6589,548.986c-.1118.1119-.1118.1909-.0568.2469a.39.39,0,0,0,.331.085c.135-.029.135-.1129.052-.22a.3153.3153,0,0,0-.239-.1219.3891.3891,0,0,0-.0872.01M838.87,550.63c-.8262,2.14,1.8069,4.166,5.9729,4.498,4.114.33,8.281-1.18,9.043-3.3459.8811-2.1621-1.8631-4.11-6.03-4.4131-.3589-.027-.7181-.04-1.075-.04-3.6621,0-7.062,1.3779-7.9109,3.3009m-438.9441-8.492c-3.07,2.1611-1.695,5.782,2.9639,8.055,4.822,2.301,11.1821,2.3291,14.2532.0851,2.9018-2.2521,1.5319-5.81-3.1831-8.006a18.5332,18.5332,0,0,0-7.7749-1.7121,11.2239,11.2239,0,0,0-6.2591,1.578m-119.781-5.182c-1.8071,1.011-1.477,2.959.606,4.412,2.19,1.37,5.373,1.7011,7.124.714,1.7571-1.0449,1.427-2.9869-.7639-4.385a8.274,8.274,0,0,0-4.4551-1.3109,5.0631,5.0631,0,0,0-2.511.57m457.637,1.724c-2.1961,3.536,1.92,7.376,9.2629,8.4991,7.4031,1.1219,15.1341-1.016,17.2661-4.66,1.92-3.62-2.2461-7.32-9.425-8.329a28.1979,28.1979,0,0,0-3.814-.2569c-5.9189,0-11.393,1.8319-13.29,4.7469M521.8459,536.407c-4.0019,3.5359-.9318,8.6329,6.7981,11.2939,7.837,2.7111,17.544,1.835,21.2691-1.8929,3.7839-3.67.551-8.583-7.18-11.13a30.9932,30.9932,0,0,0-9.4858-1.479c-4.718-.0011-9.0291,1.0979-11.4012,3.208M166.6951,521.4679c-.325.136-.3521.5231-.0491.82a1.2135,1.2135,0,0,0,1.2571.2459.4841.4841,0,0,0,.0549-.847,1.2508,1.2508,0,0,0-.8259-.314,1.0065,1.0065,0,0,0-.437.095m472.687-1.8629c-4.6651,5.4.876,12.1139,12.7148,14.802,11.8941,2.656,25.1651.0229,29.55-5.6741,4.278-5.676-1.7571-11.952-13.2649-14.366a46.0141,46.0141,0,0,0-9.39-.957c-8.4338,0-16.2468,2.271-19.61,6.1951m-309.407-15.0491c-2.958,1.7841-2.407,4.99,1.427,7.2631,3.84,2.2739,9.594,2.6029,12.501.8259,2.958-1.786,2.1889-4.991-1.5882-7.215a15.7667,15.7667,0,0,0-7.5568-1.9439,9.7984,9.7984,0,0,0-4.783,1.07m113.3149,1.318c-4.383,3.178-2.3,8.2471,4.823,11.317,7.1851,3.0711,16.6111,2.7951,20.887-.545,4.385-3.29,1.9761-8.279-5.1531-11.13A28.698,28.698,0,0,0,453.06,503.43c-3.8992,0-7.4881.817-9.77,2.444m512.1231-6.937c-5.2051.19-10.032,2.5481-10.5772,5.456-.6618,2.929,3.178,5.258,8.605,5.096,5.43-.135,10.251-2.66,10.6321-5.591.53-2.812-3.033-4.973-8.023-4.973q-.3148,0-.6369.012M851.147,502.663c-1.645,3.8969,3.4011,7.5119,11.0749,7.843,7.7862.4089,15.1851-2.6331,16.667-6.6081,1.2571-3.9749-3.7339-7.32-11.2949-7.617-.3789-.015-.759-.023-1.136-.023-7.1521,0-13.85,2.683-15.311,6.4051m191.977-6.6021c-2.4089.22-4.384,1.561-4.384,2.959-.1079,1.3981,1.863,2.329,4.2771,2.1111,2.52-.2481,4.3838-1.5891,4.4958-3.0431,0-1.198-1.5129-2.083-3.509-2.083a7.0273,7.0273,0,0,0-.88.056m-484.9309,1.64c-5.0461,4.552-.987,10.828,9.044,13.843,10.363,3.07,22.696,1.538,27.41-3.2619,4.66-4.7371.2761-10.7151-9.761-13.5391a41.76,41.76,0,0,0-10.9819-1.4559c-6.5271,0-12.5411,1.53-15.711,4.4139m-337.3611-4.3c-1.4809.713-1.532,2.2731,0,3.451a5.6171,5.6171,0,0,0,5.429.933c1.5329-.741,1.5329-2.302,0-3.5079a6.2471,6.2471,0,0,0-3.686-1.2091,4.3111,4.3111,0,0,0-1.743.333m538.82,1.016c-2.7952,4.603,2.6328,9.453,12.282,10.575,9.7,1.152,19.7878-1.9129,22.3078-6.713,2.5271-4.744-3.1779-9.263-12.6079-10.2779a36.4436,36.4436,0,0,0-3.7341-.19c-8.0759,0-15.7759,2.611-18.2478,6.606m368.6047-8.4419c-.3247,0-.6557.297-.5439.516,0,.2469.3262.4149.6011.3029.4941-.056.8261-.327.6572-.5219,0-.1961-.1753-.322-.4692-.322a1.3117,1.3117,0,0,0-.2452.025M119.5259,472.9509a.4938.4938,0,0,0-.136.797,1.1294,1.1294,0,0,0,1.0681.303c.3311-.1959.438-.521.189-.798a1.02,1.02,0,0,0-.813-.342,1.1893,1.1893,0,0,0-.3081.04m550.0571,6.882c-5.04,5.8671,1.207,12.7991,14.09,15.291,13.0459,2.4141,27.41-.82,31.907-7.017,4.4409-6.135-2.3582-12.551-14.7461-14.718a51.47,51.47,0,0,0-8.5259-.702c-9.7461,0-18.9021,2.683-22.7251,7.146m-293.9409-6.444c-4.3281,2.554-3.2341,7.292,2.6338,10.39,5.9721,3.156,14.583,3.453,18.9111.6861,4.385-2.7121,3.0139-7.32-3.071-10.364a24.6971,24.6971,0,0,0-10.782-2.4821,15.1573,15.1573,0,0,0-7.6919,1.77m107.6108-1.562c-5.59,4.087-2.7949,10.392,6.636,13.9511,9.593,3.6489,21.87,2.879,27.2981-1.5041,5.3159-4.333,1.9771-10.3919-7.3469-13.708a39.2258,39.2258,0,0,0-12.92-2.162c-5.4709,0-10.5388,1.153-13.667,3.423m-212.1508-5.78c-2.7962,1.398-2.6841,4.2771.3818,6.4391,2.9641,2.193,7.729,2.7669,10.581,1.3189,2.8511-1.399,2.6331-4.2509-.3249-6.36a12.7031,12.7031,0,0,0-7.01-2.1109,8.6118,8.6118,0,0,0-3.6279.7129m322.89-3.727c-5.154,4.7651-.77,11.069,10.0811,13.893,10.9131,2.823,23.852.796,28.781-4.272,4.6589-5.019-.1631-10.9919-10.7949-13.54a44.5977,44.5977,0,0,0-10.1912-1.159c-7.44,0-14.416,1.802-17.876,5.078m369.919-11.02c-6.2478.41-11.9509,3.3681-12.6079,6.825-.657,3.4811,4.0019,6.0851,10.5261,5.784,6.36-.332,12.0059-3.5379,12.5508-7.0739.4082-3.25-3.6709-5.57-9.2588-5.57q-.594,0-1.21.035m-99.2239,7.616c-1.865,4.61,4.22,8.6631,13.2691,8.854,9.207.14,17.8689-3.672,19.4069-8.437,1.532-4.687-4.4961-8.392-13.3769-8.471-.07,0-.1411-.0009-.2112-.0009-8.7568,0-17.29,3.489-19.0879,8.0549M173.2241,450.502a1.4129,1.4129,0,0,0-.466,2.499,3.8157,3.8157,0,0,0,3.7778.8189c1.18-.466,1.32-1.56.415-2.4639a3.8875,3.8875,0,0,0-2.6579-1.0391,2.9669,2.9669,0,0,0-1.0689.1851m869.9-4.6031c-3.947.55-7.1809,2.825-7.1809,5.1541-.0552,2.33,3.2339,3.8619,7.293,3.29,4.0029-.439,7.18-2.853,7.18-5.21-.092-2.0059-2.4641-3.342-5.676-3.342a12.4316,12.4316,0,0,0-1.616.108m-266.0371,7.51c-3.7268,6.142,3.616,12.278,16.4981,13.429,12.9389,1.178,26.1489-3.369,29.331-9.786,3.07-6.33-4.603-11.9209-16.9409-12.798-1.155-.0809-2.3142-.121-3.469-.121-11.2422,0-22.14,3.7591-25.4192,9.276M418.4561,443.924c-5.59,3.3449-4.002,9.155,3.841,12.832,7.9978,3.7,19.0178,3.7,24.5029.079,5.428-3.5641,3.345-9.183-4.497-12.6371a33.5444,33.5444,0,0,0-13.1619-2.6659c-4.133,0-7.979.7889-10.685,2.392m-100.1-4.1661c-4.3841,2.032-3.9471,6.141.6569,9.1281,4.771,2.9859,12.1141,3.6709,16.229,1.51,4.1651-2.167,3.615-6.198-1.0439-9.1a20.1552,20.1552,0,0,0-10.071-2.714,13.0922,13.0922,0,0,0-5.771,1.176m204.041.797c-5.76,4.3841-2.5269,10.8521,7.6731,14.28,10.3059,3.426,23.572,2.3029,29.0549-2.4421,5.593-4.659,1.8081-10.8-8.386-13.948a43.2593,43.2593,0,0,0-12.6221-1.8439c-6.3259,0-12.2348,1.3549-15.72,3.9539m597.53-4.03c-.33.084-.55.303-.55.494,0,.218.332.354.6621.2741.3261-.0561.6577-.33.5439-.55,0-.146-.1621-.246-.4111-.2469a1.1122,1.1122,0,0,0-.2451.0289M698.6951,443.131c-4.772,5.8109,1.532,12.418,14.364,14.3369,12.772,2.055,26.9118-1.5649,31.19-7.729,4.114-6.1129-2.6841-12.148-15.0219-13.786a51.0451,51.0451,0,0,0-6.7581-.443c-10.1489,0-19.916,2.909-23.7739,7.6211m-475.179-15.1331c-2.352.937-2.6841,3.2111-.6,4.934a8.2717,8.2717,0,0,0,7.949,1.483c2.3-.988,2.519-3.151.5491-4.9349a9.0549,9.0549,0,0,0-5.5411-1.8861,6.5123,6.5123,0,0,0-2.3569.404M83.918,426.601a.3443.3443,0,0,0-.219.5209c.1689.1911.4951.331.686.219.303-.0789.415-.325.2481-.494a.805.805,0,0,0-.5662-.2729.3925.3925,0,0,0-.1489.027m541.8691,2.1669c-5.541,5.2081-.4951,11.844,11.4558,14.4991,12.0032,2.661,26.0921.0559,31.1392-5.563,5.041-5.484-.4441-11.6481-12.0081-13.95a50.1213,50.1213,0,0,0-9.7131-.933c-8.6489,0-16.8909,2.143-20.8738,5.947m-164.8982-11.677c-5.7029,3.451-3.84,9.099,4.384,12.501,8.28,3.453,19.5691,3.0711,25.053-.657,5.479-3.677,3.177-9.1269-5.0459-12.311a34.8,34.8,0,0,0-12.437-2.2379c-4.6479,0-9.018.907-11.9541,2.7049m-98.6228-2.6829c-5.4292,2.739-4.8791,8.026,1.5869,11.676,6.5291,3.7549,16.3921,4.2989,21.877,1.3689,5.3149-2.964,4.384-8.111-2.1389-11.596a28.3441,28.3441,0,0,0-12.9822-3.097,19.3305,19.3305,0,0,0-8.3428,1.6481M136.001,408.761a1.0532,1.0532,0,0,0-.5779,1.7789,2.4568,2.4568,0,0,0,2.5759.713,1.0578,1.0578,0,0,0,.607-1.7509,2.6332,2.6332,0,0,0-1.9319-.8541,1.9334,1.9334,0,0,0-.6731.1131m834.5949-.77c-6.685.6009-12.7709,4.031-13.427,7.73-.6579,3.784,4.3841,6.4671,11.4021,5.922,6.91-.549,12.826-4.1929,13.2139-7.977.49-3.4049-3.5908-5.7639-9.249-5.7639q-.9433,0-1.94.089m-72.0319-.55c-11.62.303-22.802,5.182-25.104,11.2111-2.3011,6.141,5.591,11.2939,17.65,11.1589,12.1128-.057,23.52-5.5129,25.1648-11.844,1.7012-6.046-5.813-10.537-16.7539-10.537q-.4738,0-.957.011M559.07,411.0619c-5.9231,4.547-2.3011,10.963,8.2739,14.062,10.9131,3.149,24.4519,1.532,29.988-3.345,5.5911-4.852,1.4251-10.88-9.0449-13.7039a45.5007,45.5007,0,0,0-11.633-1.4671c-7.0562-.001-13.7791,1.546-17.584,4.454m237.479,4.821c-3.8391,6.474,3.947,12.581,17.374,13.351,13.5959.797,27.1919-4.2789,30.2629-11.048,3.014-6.63-5.0471-12.115-17.873-12.609q-.969-.0375-1.94-.037c-12.1489,0-24.2851,4.332-27.8239,10.343m-526.38-10.468c-4.22,1.702-4.4958,5.427-.656,8.358,3.7271,2.993,10.25,3.925,14.3081,2.1391,4.054-1.724,4.273-5.479.44-8.358a16.9448,16.9448,0,0,0-9.5711-2.9371,12.0162,12.0162,0,0,0-4.521.798m772.022-4.082c-4.1079.657-7.6179,3.234-7.51,5.755,0,2.521,3.5081,4.0591,7.8992,3.395,4.271-.6849,7.6159-3.34,7.561-5.887-.09-2.1049-2.5781-3.426-5.8791-3.426a13.6515,13.6515,0,0,0-2.0711.163M723.585,408.486c-4.9341,6.219,1.864,12.854,15.291,14.4709,13.709,1.7011,28.343-2.521,32.6211-9.072,4.2719-6.444-3.07-12.445-15.9551-13.73a53.3969,53.3969,0,0,0-5.5061-.281c-11.2529,0-22.356,3.406-26.4509,8.6121m387.7939-17.5431c-.8818.191-1.4258.797-1.32,1.3141.1118.494.8247.7689,1.645.6059.769-.2469,1.4248-.8249,1.3188-1.32-.0429-.4131-.496-.687-1.07-.687a1.9794,1.9794,0,0,0-.5742.0869m-455.7739,6.416c-5.5911,5.563-.2739,12.058,12.227,14.443,12.6079,2.33,27.2991-.7959,32.3951-6.6339,5.0458-5.8371-.876-11.8671-12.9891-13.8711a52.1461,52.1461,0,0,0-8.2509-.641c-9.636-.001-19.0381,2.508-23.3821,6.703m-470.407-7.016c-2.082.707-2.6279,2.4911-1.207,4.0811a6.5546,6.5546,0,0,0,6.36,1.56c2.083-.736,2.5259-2.549,1.1-4.0809a6.35,6.35,0,0,0-4.5439-1.8161,5.5358,5.5358,0,0,0-1.709.256m220.4309.875c-5.8088,2.958-4.8769,8.3311,2.083,11.952,7.2361,3.614,17.8181,3.89,23.5161.684,5.7029-3.1549,4.388-8.386-2.6831-11.8159a31.4858,31.4858,0,0,0-13.176-2.807,21.567,21.567,0,0,0-9.74,1.9869m93.853-.275c-6.198,3.784-3.896,9.6781,5.2041,13.018,9.156,3.401,21.544,2.633,27.4109-1.4539,5.865-4.053,3.0132-9.756-5.9729-12.828a39.37,39.37,0,0,0-12.5281-1.9711c-5.54,0-10.7978,1.097-14.114,3.235m-184.5778-6.797c-5.209,2.217-5.5911,6.96-.387,10.552,5.209,3.6151,13.926,4.576,19.188,2.218,5.427-2.3579,5.2639-7.068,0-10.526a22.9984,22.9984,0,0,0-12.2332-3.385,17.6413,17.6413,0,0,0-6.5678,1.141M58.209,382.585c-.2749,0-.3259.2469-.2749.4659a.6168.6168,0,0,0,.6069.218c.2739-.055.3521-.275.2739-.437a.4233.4233,0,0,0-.4189-.2789.5834.5834,0,0,0-.187.032m534.0249.2469c-6.36,4.957-2.3008,11.457,9.2121,14.415,11.6761,2.9311,26.0921.7961,32.07-4.4959,5.7539-5.2331,1.0388-11.374-10.2561-13.922a48.8463,48.8463,0,0,0-10.887-1.1851c-8.073,0-15.925,1.8371-20.1391,5.188M232.177,372.3069c-3.2839,1.0951-3.946,3.8611-1.532,6.162a10.9608,10.9608,0,0,0,10.3059,2.112c3.177-1.123,3.8411-3.9189,1.314-6.164a10.7623,10.7623,0,0,0-7.1309-2.5719,9.0807,9.0807,0,0,0-2.957.4619m583.2839,8.7671c-3.62,6.2479,4.053,11.9519,16.992,12.3059,13.0471.358,26.041-4.907,28.78-11.481,2.7412-6.443-5.04-11.457-17.428-11.5689-.1089,0-.218-.001-.3269-.001-12.1269,0-24.65,4.631-28.0171,10.745m94.56-10.9621c-10.906.6-21.5391,5.563-23.5139,11.428-2.1961,5.866,5.4829,10.582,16.9919,10.1441,11.4561-.41,22.094-5.979,23.576-12.0351,1.4931-5.614-5.1971-9.5859-15.1141-9.587q-.951,0-1.94.05M108.4,369.017a.5745.5745,0,0,0-.4668.875,1.1193,1.1193,0,0,0,1.2068.411.56.56,0,0,0,.438-.8771,1.0668,1.0668,0,0,0-.8728-.4669.7916.7916,0,0,0-.3052.058m867.3-.2481c-6.4729.792-12.0081,4.273-12.5579,7.866-.5462,3.649,4.2209,6.056,10.9128,5.3721,6.522-.7421,12.1131-4.386,12.4951-8.0561.241-3.2149-3.3779-5.3139-8.54-5.3139a20.8668,20.8668,0,0,0-2.31.1319m-227.886,7.562c-4.554,6.006,2.1379,12.142,15.1279,13.298,13.0452,1.202,27.029-3.2889,30.9741-9.594,3.947-6.281-3.126-11.703-15.5151-12.5849-1.157-.079-2.323-.1181-3.491-.1181-11.3479,0-22.8718,3.635-27.0959,8.999m-301.565-7.588c-6.029,3.176-4.9341,8.689,2.689,12.1961,7.949,3.5089,19.2939,3.4809,25.2729.0289,5.971-3.43,4.27-8.7739-3.4589-12.036a34.3533,34.3533,0,0,0-13.1241-2.502,25.5088,25.5088,0,0,0-11.3789,2.313m-87.324-4.167c-5.5959,2.3581-5.7021,7.2371,0,10.744,5.754,3.589,15.1839,4.329,20.7759,1.752,5.479-2.604,5.1531-7.343-.55-10.744a26.23,26.23,0,0,0-12.6089-3.115,19.7452,19.7452,0,0,0-7.617,1.363m176.5169,1.369c-6.4658,4.11-3.8389,10.2231,5.9731,13.401,9.981,3.2391,23.303,2.0871,29.4371-2.38,6.1989-4.441,2.9089-10.201-6.8482-13.102a44.0755,44.0755,0,0,0-12.28-1.6849c-6.35,0-12.4431,1.2829-16.2822,3.7659m149.0571,2.084c-5.2671,5.344,0,11.401,12.0569,13.265,12.115,1.835,25.9861-1.5329,30.8071-7.2089,4.7161-5.647-1.0949-11.209-12.664-12.6911a49.1372,49.1372,0,0,0-6.336-.401c-9.739,0-19.55,2.698-23.864,7.036m356.104-7.1009c-4.0581.7959-7.2361,3.3449-7.1789,5.7859.1628,2.409,3.4509,3.8351,7.56,3.044,4.1152-.77,7.292-3.43,7.0742-5.844-.1321-1.968-2.34-3.203-5.2632-3.203a11.5482,11.5482,0,0,0-2.1919.2171m-763.634-6.3611c-4.553,1.5381-5.3181,5.238-1.7571,8.197,3.4561,3.041,10.1421,4.1131,14.5271,2.469,4.3889-1.646,5.0459-5.2939,1.4251-8.1949a16.3622,16.3622,0,0,0-9.814-3.1581,13.3744,13.3744,0,0,0-4.3811.687m-121.4839-1.15c-2.11.606-2.9011,2.385-1.8071,3.974a5.8567,5.8567,0,0,0,5.978,1.841c2.1111-.6059,2.9031-2.385,1.751-3.974a6.03,6.03,0,0,0-5.9219-1.841M624.304,356.41c-6.0281,4.876-1.9761,11.04,9.4311,13.538,11.564,2.4651,25.5969-.027,31.3-5.2639,5.593-5.21.8211-10.9361-10.3618-13.047a48.3586,48.3586,0,0,0-9.104-.8351c-8.459,0-16.8491,2.029-21.2651,5.608m478.4631-6.553c-.82.22-1.4761.8481-1.313,1.371a1.3466,1.3466,0,0,0,1.7009.572c.9319-.2469,1.4761-.875,1.313-1.3979-.0781-.401-.4851-.641-1.0459-.641a2.4519,2.4519,0,0,0-.655.0959m-618.582-2.963c-6.522,3.5081-5.096,9.2111,3.3449,12.663,8.606,3.4811,21.1079,3.072,27.4119-.767,6.2471-3.78,4.271-9.2629-4.115-12.44a39.1133,39.1133,0,0,0-13.2109-2.192c-5.0911-.001-9.9861.9129-13.4309,2.7359M400.752,345.496c-5.867,2.5489-5.76,7.4549.3811,10.885,6.36,3.4519,16.3359,3.9459,22.0949,1.15,5.698-2.745,5.2039-7.5659-1.0439-10.799a28.7272,28.7272,0,0,0-12.708-2.821,22.0488,22.0488,0,0,0-8.7241,1.5851M41.2439,341.2749c-.2468.026-.3589.19-.303.3871.0562.219.303.298.551.2689a.36.36,0,0,0,.2752-.437.4077.4077,0,0,0-.4011-.2319.5825.5825,0,0,0-.1221.0129m159.9631-2.577c-3.289.9031-4.4389,3.6211-2.52,6.034,1.971,2.381,6.356,3.531,9.7571,2.549,3.345-1.015,4.3838-3.7269,2.3579-6.0349a9.5465,9.5465,0,0,0-7.0759-2.8791,9.4066,9.4066,0,0,0-2.5191.331m657.7261-.41c-10.8562.2469-21.927,4.7149-24.9971,10.2779-2.9089,5.646,3.834,10.391,15.4031,10.391,11.4568-.084,22.64-5.046,25.053-10.885,2.178-5.605-4.2481-9.796-14.4841-9.797-.3221,0-.646.004-.9749.0131m-288.8992,4.0589c-6.25,4.193-3.509,10.059,6.4141,12.855,10.083,2.8521,23.354,1.313,29.3821-3.182,5.8659-4.4919,2.6328-10.004-7.2361-12.525a44.1718,44.1718,0,0,0-10.79-1.2749c-6.909,0-13.701,1.4459-17.77,4.1269m-248.988-4.003c-4.553,1.674-5.2109,5.3441-1.4829,8.252,4.0019,2.9311,11.02,3.8631,15.46,2.111,4.6021-1.786,5.0411-5.428,1.1512-8.2519a18.1393,18.1393,0,0,0-10.1182-2.897,14.9955,14.9955,0,0,0-5.01.7859m450.2312,7.836c-3.9512,5.485,2.083,10.694,13.8159,11.43,11.676.6629,24.064-3.6991,27.5159-9.426,3.4531-5.6741-3.013-10.3621-14.0889-10.8271q-.7335-.024-1.469-.0229c-10.748-.0011-21.8969,3.6559-25.7739,8.8459m148.3938-9.947c-9.65.792-18.8,5.5081-20.5559,10.7171-1.752,5.3149,4.99,9.24,15.185,8.5479,10.085-.683,19.2969-5.859,20.6121-11.26.938-4.829-4.4182-8.1329-12.438-8.1329-.9021,0-1.8391.042-2.8032.1279m-208.0359,4.11c-4.7161,5.0181.218,10.39,11.3989,11.7321,11.2381,1.3139,24.011-2.11,28.2871-7.4551,4.3289-5.3159-1.206-10.194-11.894-11.2379-1.395-.1331-2.82-.1971-4.2529-.1971-9.5032-.0009-19.3982,2.8271-23.5391,7.158m267.898-7.18c-5.59.8469-10.4119,4.031-10.8011,7.2089-.3808,3.204,3.897,5.2081,9.595,4.439,5.7031-.819,10.5242-4.1379,10.7441-7.371.1419-2.726-2.8769-4.462-7.081-4.463a16.9688,16.9688,0,0,0-2.457.1861M88.7749,330.861c-.3879.0789-.6628.411-.4658.7689a.9292.9292,0,0,0,1.009.4391.6637.6637,0,0,0,.5779-.797.9624.9624,0,0,0-.83-.4541,1.0231,1.0231,0,0,0-.291.0431m567.105.6569c-5.2078,4.4411-1.481,9.65,8.6062,11.485,10.25,1.836,22.7519-.6839,27.574-5.4,4.7719-4.6589.656-9.509-9.2071-11.047a43.1663,43.1663,0,0,0-6.6989-.505c-8.085-.001-16.25,2.066-20.2742,5.467M246.873,325.871c-3.1269.8759-4.0581,3.29-2.081,5.3719,1.969,2.083,6.134,3.015,9.3181,2.083,3.07-.96,3.833-3.368,1.8628-5.4289a9.73,9.73,0,0,0-6.563-2.3721,9.0431,9.0431,0,0,0-2.5369.3461m192.5789.6059c-6.5239,2.903-6.2478,8.247.9871,11.755,7.236,3.5931,18.5869,3.784,25.1091.607,6.3049-3.183,5.428-8.3639-1.813-11.6769a33.5607,33.5607,0,0,0-13.5061-2.6831,26.6694,26.6694,0,0,0-10.7771,1.998m598.7371-2.307c-3.396.797-6.136,3.127-6.0281,5.2381.112,2.166,3.07,3.317,6.5791,2.5189,3.4509-.74,6.2471-3.147,5.978-5.314-.1321-1.677-2.0129-2.678-4.4309-2.678a9.8179,9.8179,0,0,0-2.0981.235m-517.1121,2.111c-6.304,3.565-4.822,8.993,3.729,12.0071,8.66,3.07,20.8872,2.359,27.0271-1.5091,6.085-3.78,4.054-8.96-4.439-11.728a39.13,39.13,0,0,0-11.906-1.755c-5.46,0-10.7819,1.016-14.4111,2.985m-159.031-4.687c-5.4778,2.0321-6.1418,6.3031-1.2568,9.5421,4.9338,3.29,13.59,4.1659,18.9118,1.97,5.479-2.1891,5.698-6.41.82-9.537a23.2083,23.2083,0,0,0-11.793-3.02,20.2134,20.2134,0,0,0-6.6821,1.0449m-227.145-1.808c-.961.2471-1.4759,1.0171-1.0669,1.7571a2.396,2.396,0,0,0,2.521.932c.989-.2461,1.4531-.989,1.0151-1.7581a2.222,2.222,0,0,0-1.9712-.977,2.6828,2.6828,0,0,0-.498.046m468.6282.2471c-5.7041,3.947-3.0711,9.155,6.1918,11.4569,9.543,2.274,21.762.523,27.2471-3.7279,5.3721-4.2491,2.2461-9.126-6.91-11.126a41.2883,41.2883,0,0,0-8.696-.8831c-6.8931,0-13.8182,1.526-17.833,4.28m490.5769-7.6451c-.657.2181-1.095.741-.982,1.178.1619.437.7119.629,1.4251.411.657-.192,1.0949-.714.9819-1.1789-.0781-.3011-.4541-.485-.91-.485a1.8548,1.8548,0,0,0-.5151.0749m-805.024-1.044c-4.278,1.3191-5.479,4.552-2.521,7.2921,2.959,2.7379,8.993,3.8889,13.3221,2.4919,4.2768-1.3969,5.3149-4.6319,2.2439-7.3139-2.127-1.8941-5.7281-2.9921-9.1741-2.9921a13.8062,13.8062,0,0,0-3.8709.522m504.9409,6.388c-3.177,4.547,1.865,8.661,11.407,8.908,9.594.248,19.6761-3.564,22.4212-8.335,2.6269-4.682-2.6321-8.3869-11.7322-8.466-.074,0-.1489-.001-.2229-.001-9.147,0-18.8269,3.3771-21.8731,7.894m77.9561-8.796c-8.8811.465-17.874,4.41-20.176,9.07-2.407,4.7149,3.29,8.444,12.6079,8.084,9.2681-.2741,18.3672-4.6591,20.2322-9.5091,1.7568-4.499-3.2132-7.68-11.1831-7.681q-.7244,0-1.481.036m-692.479-.552c-1.7561.439-2.5491,1.808-1.7839,3.072.7959,1.257,2.9348,1.919,4.687,1.532,1.813-.4659,2.5759-1.8349,1.813-3.07a4.444,4.444,0,0,0-3.6592-1.641,5.1912,5.1912,0,0,0-1.0569.1069M738,314.111c-3.89,4.39.3269,8.718,9.814,9.57,9.592.792,20.281-2.412,23.789-6.9659,3.5091-4.5751-1.15-8.5491-10.195-9.1551-.7749-.0489-1.5621-.073-2.3521-.073-8.4338,0-17.448,2.7181-21.0559,6.6241m-260.719-5.5641c-6.529,2.987-5.979,8.197,1.313,11.43,7.5669,3.318,19.188,3.183,25.5471-.107s5.2029-8.279-2.082-11.2949a34.9456,34.9456,0,0,0-12.761-2.2531,29.8894,29.8894,0,0,0-12.0171,2.225m450.231-2.985c-7.5091.847-14.5269,4.7931-15.846,8.993-1.2019,4.215,4.221,7.179,12.064,6.354,7.729-.792,14.9089-5.041,15.7341-9.347.763-3.699-3.2092-6.168-9.167-6.169a23.8124,23.8124,0,0,0-2.7851.169m-525.8279-.0559c-5.98,2.2729-6.5232,6.8819-.9321,10.2,5.5339,3.396,15.291,4.052,21.156,1.559,6.0849-2.47,6.142-7.017.4951-10.143a27.05,27.05,0,0,0-12.6411-2.91,23.5745,23.5745,0,0,0-8.0779,1.2941m155.41,1.2629c-5.698,3.2331-4.1089,7.92,3.6211,10.361,7.8359,2.437,18.9109,1.477,24.396-1.975,5.3718-3.4809,3.396-8.005-4.2781-10.173a35.467,35.467,0,0,0-9.592-1.242c-5.368,0-10.6971,1.05-14.147,3.029m-525.2229-3.756c-.0862.028-.1421.057-.1121.107a.0963.0963,0,0,0,.138.0841.1563.1563,0,0,0,.1369-.1071c0-.046-.072-.092-.1279-.092a.0783.0783,0,0,0-.0349.008M685.7,307.756c-4.273,3.7779-1.095,7.9989,7.5661,9.2619,8.4988,1.236,18.9119-1.1779,22.971-5.181s.4389-7.892-7.8931-8.936a36.5136,36.5136,0,0,0-4.2661-.2429c-7.2219,0-14.719,1.968-18.3779,5.098m296.466-7.072c-4.2771.7679-7.8921,3.3669-8.1111,5.865-.2749,2.5489,3.07,4.031,7.4551,3.317,4.385-.7961,8.0039-3.4861,8.11-6.062.0908-2.04-2.0471-3.344-5.134-3.344a12.6992,12.6992,0,0,0-2.32.224M329.9751,297.31c-5.2022,1.616-6.5781,5.484-2.6812,8.5821,3.8331,3.1779,11.344,4.3289,16.6092,2.5489,5.1538-1.729,6.1418-5.568,2.301-8.583-2.675-2.062-7-3.246-11.12-3.246a17.7869,17.7869,0,0,0-5.1089.698M222.64,296.787c-2.739.6639-3.9458,2.6609-2.52,4.4969,1.313,1.836,4.7158,2.767,7.4549,2.11,2.738-.713,3.8391-2.71,2.414-4.547-1.0329-1.396-3.2681-2.27-5.5071-2.27a7.9229,7.9229,0,0,0-1.842.21M76.6841,295.0359a.6758.6758,0,0,0-.6021.712.7434.7434,0,0,0,.9031.411c.4109-.057.6858-.383.6018-.686a.67.67,0,0,0-.699-.457,1.1067,1.1067,0,0,0-.2038.02m559.459,3.6991c-4.8782,3.4519-2.408,7.6739,5.4289,9.319,8.1111,1.5939,18.418-.1071,22.971-3.7841,4.4961-3.5859,1.8071-7.6169-6.03-9.042a34.3063,34.3063,0,0,0-6.0129-.504c-6.2539,0-12.7739,1.4811-16.3569,4.0111m399.144-8.083c-2.5771.6849-4.552,2.548-4.44,4.193.1621,1.6739,2.4131,2.521,5.041,1.8349,2.5762-.655,4.7151-2.576,4.439-4.2769-.0369-1.2421-1.4558-1.9981-3.2339-1.9981a6.9051,6.9051,0,0,0-1.8059.2471m-520.7881.932c-5.8611,2.823-5.3159,7.3419,1.5381,10.03,7.0149,2.712,17.5408,2.331,23.3518-.767,5.647-3.015,4.552-7.4-2.2458-9.87a32.3939,32.3939,0,0,0-10.688-1.681,28.7516,28.7516,0,0,0-11.9561,2.2881m-74.2231-1.37c-5.9778,2.3811-6.417,6.848-.657,9.9181,5.9731,3.156,15.842,3.5379,21.8152.9339,5.978-2.5489,5.81-6.905,0-9.8139a27.9835,27.9835,0,0,0-12.1021-2.5141,25.9643,25.9643,0,0,0-9.0561,1.476m-319.763-3.621c-.9318.1631-1.4809.876-1.2629,1.561a1.9383,1.9383,0,0,0,2.1389.96c.9881-.1909,1.5381-.875,1.2632-1.56a1.7907,1.7907,0,0,0-1.7432-.995,2.3131,2.3131,0,0,0-.396.0339m471.064,1.343c-4.6589,2.7951-3.29,6.606,3.2891,8.385,6.8,1.813,16.0061.741,20.5571-2.245,4.4978-2.959,2.74-6.607-3.7271-8.1949a29.6413,29.6413,0,0,0-7.123-.8081c-4.897,0-9.9089,1.01-12.9961,2.863m-327.4929-3.121c-4.001.98-5.59,3.8321-3.4519,6.41,2.2458,2.5759,7.292,3.7829,11.4018,2.688,3.8892-1.0441,5.3152-3.896,3.178-6.3891-1.719-1.885-5.0139-3.051-8.2339-3.051a11.9538,11.9538,0,0,0-2.894.342m567.6011-.608c-6.7981.14-14.252,2.9871-16.3921,6.495-2.3579,3.5081,1.4809,6.444,8.612,6.417,7.2349-.057,14.69-3.127,16.66-6.771,1.9732-3.4879-1.7448-6.147-8.29-6.1479-.1938,0-.39.0029-.59.0069M763.11,289.199c-3.02,3.422.3809,6.6339,7.617,6.9879,7.2919.41,15.5659-2.302,18.1989-5.866,2.69-3.537-.9321-6.495-7.948-6.77q-.387-.0105-.778-.011c-6.77,0-14.295,2.36-17.09,5.6591m-393.39-5.318c-5.81,1.8369-7.0669,5.9449-2.626,9.157,4.49,3.312,12.9331,4.2719,18.748,2.3009,5.698-2.033,6.523-6.085,2.0821-9.1549-2.9341-2.0341-7.532-3.1871-11.96-3.1871a20.8782,20.8782,0,0,0-6.2441.8841m513.384-2.004c-6.4661.5229-13.0959,3.729-14.69,7.2369-1.5882,3.5641,2.633,6.225,9.43,5.7311,6.7991-.438,13.4341-3.8681,14.8039-7.511,1.2911-3.2511-2.186-5.5331-7.7358-5.5331q-.8715,0-1.8081.0761m-168.843,3.1c-3.178,2.959-.657,6.057,5.76,6.741,6.63.6851,14.3589-1.313,17.323-4.411,3.07-3.044.3259-5.924-6.0339-6.5239-.7361-.0611-1.491-.0911-2.2552-.0911-5.727,0-11.9848,1.675-14.7939,4.285m219.6069-6.771c-4.384.657-8.386,3.1281-9.0429,5.62-.5521,2.52,2.519,4.11,7.0161,3.536,4.5529-.634,8.6609-3.211,9.0429-5.759.4681-2.14-1.7541-3.532-5.124-3.532a13.91,13.91,0,0,0-1.8921.135m151.5762-.274a1.2425,1.2425,0,0,0-.7632.96.8528.8528,0,0,0,1.1511.33.8705.8705,0,0,0,.7119-.9869c0-.2511-.269-.3651-.6179-.3651a2.0354,2.0354,0,0,0-.4819.062M163.356,277.876c-1.5889.303-2.4429,1.453-1.949,2.526.4951,1.15,2.167,1.7789,3.7561,1.475,1.532-.2961,2.4148-1.453,1.9209-2.52a3.1192,3.1192,0,0,0-2.9409-1.5529,4.38,4.38,0,0,0-.7871.072m503.707.359c-3.615,2.767-1.752,5.8939,4.4961,6.96,6.2478,1.045,14.2529-.549,17.8169-3.3959,3.4519-2.907,1.207-5.866-4.771-6.798a26.13,26.13,0,0,0-3.8621-.2741c-5.177,0-10.7138,1.345-13.68,3.5081m-189.294-2.8241c-5.81,2.358-6.0849,6.495-.382,9.206,5.8659,2.7171,15.2419,2.824,21.051.304,5.5911-2.521,5.4841-6.551-.325-9.1a27.9132,27.9132,0,0,0-10.865-1.99,26.2538,26.2538,0,0,0-9.479,1.58m72.6951-.247c-4.9341,2.465-4.2761,6.17,1.5889,8.1961s14.9089,1.4259,19.68-1.1791c4.823-2.689,3.8911-6.197-1.9748-8.061a27.58,27.58,0,0,0-8.1631-1.13,26.2783,26.2783,0,0,0-11.1309,2.174M304.2661,273.3c-4.8791,1.2631-6.6291,4.6591-3.8342,7.646,3.0151,2.985,9.426,4.3061,14.4722,2.9091,4.9338-1.343,6.5229-4.7721,3.4519-7.6521-2.157-2.112-6.1509-3.383-10.085-3.383a16.2561,16.2561,0,0,0-4.0049.48M984.03,270.668c-2.959.6279-5.4841,2.5759-5.591,4.3609-.1121,1.808,2.1379,2.7961,5.2089,2.189,3.0142-.684,5.48-2.632,5.48-4.439.0882-1.426-1.395-2.307-3.396-2.307a7.78,7.78,0,0,0-1.7019.1961m-575.6611.302c-5.9219,1.9209-6.9609,6.0019-2.3008,9.073,4.8218,3.1259,13.596,3.838,19.4619,1.756,5.9219-2.111,6.6289-6.141,1.864-9.0771-2.947-1.8-7.4089-2.792-11.788-2.792a23.8689,23.8689,0,0,0-7.2371,1.04M205.043,268.7479c-2.41.522-3.73,2.1961-2.847,3.8111.876,1.6179,3.5579,2.521,6.0291,2.0539,2.4639-.493,3.7258-2.188,2.7949-3.782-.73-1.323-2.718-2.191-4.7561-2.191a6.8439,6.8439,0,0,0-1.2209.108m419.812.959c-3.5091,2.1961-2.4151,4.963,2.6269,6.114,5.1021,1.122,12.0061.163,15.5161-2.139,3.4009-2.272,2.0811-4.9619-2.958-5.9729a22.0289,22.0289,0,0,0-4.6049-.4561c-3.97,0-8.1221.896-10.58,2.454m-554.1441-7.426c.0281.135.1631.192.3811.192.191-.0289.3311-.135.3311-.304a.4018.4018,0,0,0-.3872-.242.3949.3949,0,0,0-.325.354m272.8611-.1339c-5.5339,1.448-7.3979,5.2309-3.947,8.3579,3.51,3.149,11.0769,4.384,16.668,2.795,5.591-1.644,7.072-5.343,3.4521-8.358-2.47-2.157-6.821-3.416-11.145-3.416a19.7693,19.7693,0,0,0-5.0281.6211m443.2161,3.1209c-1.9712,2.386.3308,4.3841,5.21,4.4681,4.771.1119,9.9749-1.8361,11.8389-4.2491,1.7561-2.409-.6579-4.301-5.3169-4.301h-.105c-4.5791-.001-9.7771,1.797-11.6269,4.082m58.824-5.0419c-4.4971.2189-9.4312,2.3029-10.8572,4.7159-1.532,2.464,1.0451,4.328,5.81,4.109,4.771-.219,9.7061-2.4139,11.0191-4.85,1.237-2.3139-1.096-3.998-5.136-3.998q-.4065,0-.8359.0231m186.33-.19c-1.533.4651-2.6328,1.589-2.521,2.599.1072.987,1.426,1.4031,2.958.987,1.5381-.4639,2.6331-1.588,2.5271-2.576-.084-.751-.8621-1.158-1.865-1.158a4.4016,4.4016,0,0,0-1.0991.148M740.854,263.05c-2.197,2.083-.333,4.053,4.052,4.356,4.3889.331,9.593-1.178,11.676-3.318,1.9749-2.11.167-4.001-4.1091-4.271q-.5325-.0345-1.0808-.0339c-4.0332,0-8.531,1.3569-10.5381,3.2669m-226.7371-1.92c-5.154,2.167-5.3169,5.676-.1059,7.865,5.2019,2.223,13.759,2.061,18.7991-.2749,5.0459-2.2741,4.7719-5.7271-.3262-7.78a28.2858,28.2858,0,0,0-18.367.19M245.554,259.485c-3.2891.6859-5.0411,2.959-3.6141,5.0979,1.2571,2.166,5.2591,3.289,8.6612,2.5491,3.34-.7151,4.9348-3.016,3.615-5.0981-1.1541-1.6629-3.9231-2.733-6.7112-2.734a10.1724,10.1724,0,0,0-1.9509.1851m200.97-.74c-5.209,1.807-6.248,5.3711-1.864,7.9491,4.553,2.5759,12.6082,3.0129,17.9812,1.0429,5.2649-1.947,5.81-5.456,1.3179-7.8969a22.1929,22.1929,0,0,0-10.115-2.1651,23.9344,23.9344,0,0,0-7.32,1.07m138.6931.466c-3.8391,1.9471-3.176,4.659,1.314,6,4.6089,1.319,11.407.714,15.135-1.312,3.614-2.029,2.8511-4.659-1.7009-5.9229a20.7294,20.7294,0,0,0-5.4131-.657,21.6876,21.6876,0,0,0-9.335,1.8919m308.087-3.318c-5.0469.578-10.087,3.211-11.181,5.977-1.208,2.769,2.0811,4.6891,7.179,4.195,5.3159-.5219,10.25-3.318,11.1819-6.1409.9121-2.4681-1.5278-4.1381-5.4129-4.1381a15.2284,15.2284,0,0,0-1.767.107m-196.6919,2.526c-2.52,1.887-1.095,3.974,3.071,4.5191,4.272.55,9.6428-.6571,12.0579-2.655,2.414-1.9771.8249-3.9521-3.29-4.4411a17.6324,17.6324,0,0,0-1.9109-.099c-3.697,0-7.8791,1.022-9.9279,2.676m-584.0762-2.801a1.2275,1.2275,0,0,0-1.2068,1.179,1.3382,1.3382,0,0,0,1.5889.825c.7409-.112,1.32-.629,1.207-1.179a1.265,1.265,0,0,0-1.3169-.844,1.9615,1.9615,0,0,0-.2722.019m826.9282-4.2149c-2.6892.4649-5.2092,2.16-5.5962,3.7779-.438,1.6441,1.7012,2.6321,4.4961,2.1381,2.7439-.4661,5.3721-2.218,5.5911-3.89.2678-1.329-.9722-2.1741-2.958-2.1741a8.4561,8.4561,0,0,0-1.533.1481m-557.3562.077c-5.6958,1.5609-7.4538,5.266-3.7268,8.225,3.7268,3.07,11.5708,4.0579,17.323,2.3569,5.7039-1.73,7.074-5.372,3.29-8.1959-2.58-1.954-6.9458-3.08-11.281-3.08a21.8018,21.8018,0,0,0-5.605.6941m-97.0788-1.2061c-4.1722.8521-6.1421,3.621-4.2781,6.1131,1.864,2.5479,7.0171,3.839,11.2949,2.8789,4.165-.96,5.917-3.699,4.0532-6.168-1.5552-1.901-4.8882-3.088-8.3242-3.088a14.14,14.14,0,0,0-2.7458.264m371.1259,1.594c-2.4131,1.532-1.5381,3.3681,1.864,4.025,3.4519.6341,8.3311-.1629,10.5811-1.723,2.4089-1.618,1.4258-3.402-1.9761-4.003a14.206,14.206,0,0,0-2.511-.2069,16.0551,16.0551,0,0,0-7.958,1.9079m-502.7519-2.745c-1.2852.169-2.19,1.0711-1.97,1.9771a2.4428,2.4428,0,0,0,2.8738,1.2829c1.291-.161,2.1391-1.037,1.8921-1.941a2.2181,2.2181,0,0,0-2.293-1.355,3.5855,3.5855,0,0,0-.5029.036m923.3789-2.9859c-.3811.1629-.657.521-.4881.8249,0,.27.3811.353.763.1911.3872-.1121.6572-.4661.55-.7691,0-.1959-.2229-.296-.4909-.296a1.1824,1.1824,0,0,0-.334.0491m-526.98,1.2069c-4.1089,1.723-3.9971,4.384.1111,5.894a21.9832,21.9832,0,0,0,14.636-.635c3.8388-1.835,3.62-4.384-.489-5.837a19.6876,19.6876,0,0,0-6.1761-.893,20.8689,20.8689,0,0,0-8.082,1.471m-65.999-.578c-4.552,1.566-5.209,4.4961-1.3179,6.4441,3.8389,1.942,10.5808,2.1109,15.022.437,4.3828-1.6731,4.8769-4.5241,1.0439-6.359a19.3889,19.3889,0,0,0-8.029-1.5511,20.9313,20.9313,0,0,0-6.719,1.029m501.1579-4.329c-2.0258.5231-3.727,1.9491-3.8388,3.233,0,1.314,1.7009,1.9771,3.727,1.426,1.9759-.494,3.7329-1.948,3.7329-3.2609,0-.9831-.9231-1.5821-2.257-1.5821a5.5,5.5,0,0,0-1.3641.184m-791.5388-.3309c-2.1892.3309-3.508,1.729-3.071,3.1269.55,1.454,2.7448,2.329,4.9338,1.97,2.1392-.325,3.4021-1.751,2.8521-3.148-.376-1.202-2.0049-2.0169-3.813-2.0169a5.99,5.99,0,0,0-.9019.068m424.741,1.37c-2.52,1.3979-2.083,3.182,1.1008,3.952a15.987,15.987,0,0,0,10.3572-1.1791c2.5759-1.426,2.031-3.1539-1.1511-3.9239a14.71,14.71,0,0,0-3.2881-.3431,15.731,15.731,0,0,0-7.0188,1.4941m-294.491-2.2171c-4.7661,1.038-6.904,4.059-4.6592,6.7421,2.4141,2.7669,8.387,4.03,13.3211,2.8509,4.772-1.123,6.635-4.1369,4.2781-6.77-1.8492-1.952-5.658-3.183-9.4842-3.183a16.2032,16.2032,0,0,0-3.4558.36m96.3728.084c-5.2038,1.4761-6.7409,4.766-3.178,7.259,3.6722,2.575,10.907,3.317,16.1182,1.672,5.2588-1.6169,6.3589-4.822,2.739-7.235-2.2661-1.567-6.0661-2.4339-9.883-2.4339a21.87,21.87,0,0,0-5.7962.7379m394.7041-1.645c-2.7949.05-5.8669,1.23-6.9111,2.6271-1.0369,1.37.2751,2.5489,3.071,2.4979,2.7952-.0559,5.865-1.263,6.91-2.7169.99-1.3571-.2561-2.4161-2.6951-2.4161-.123,0-.247.002-.375.008m-49.7261,2.133c-1.206,1.2641-.1059,2.412,2.4151,2.469,2.633.1081,5.81-.848,7.0171-2.1379,1.2058-1.369.1118-2.4411-2.521-2.4921-.1341-.006-.27-.009-.407-.009-2.436,0-5.2551.926-6.5042,2.17m93.252-4.519c-2.7449.248-5.7019,1.589-6.522,3.099-.8249,1.4761.7132,2.5491,3.5591,2.329,2.7449-.196,5.647-1.622,6.417-3.099.751-1.386-.5271-2.352-2.821-2.352-.2029,0-.4141.007-.6331.023M723.748,239.063c-1.3691,1.152-.55,2.33,1.8641,2.55,2.52.246,5.698-.573,7.1218-1.78,1.426-1.2069.552-2.302-1.969-2.549-.27-.024-.55-.036-.8359-.036a10.7428,10.7428,0,0,0-6.181,1.8151M232.62,235.011c-2.9631.4369-4.7141,2.3009-3.9512,4.1649.8811,1.864,4.0591,2.9861,6.9671,2.437,3.0139-.495,4.6589-2.38,3.7829-4.166-.646-1.5179-2.915-2.553-5.3779-2.553a8.6444,8.6444,0,0,0-1.4209.1171M31.157,234.7629a.0611.0611,0,0,0,.0849.08.1843.1843,0,0,0,.1631-.1069.3474.3474,0,0,0-.1411-.0281.1951.1951,0,0,0-.1069.055m488.7131.219c-3.2331,1.23-3.727,3.29-.706,4.6021,2.7939,1.344,7.998,1.344,11.2319.0569,3.4021-1.318,3.5649-3.346.6621-4.579a14.2621,14.2621,0,0,0-5.519-.965,17.5075,17.5075,0,0,0-5.669.885m165.5029-.6049c-1.425.9589-.874,1.947,1.2071,2.25a9.8824,9.8824,0,0,0,6.136-1.2061c1.3759-.9609.8259-1.948-1.094-2.223a8.8961,8.8961,0,0,0-1.2552-.084,9.6,9.6,0,0,0-4.9939,1.2631m216.1551-1.449c-2.251.297-4.2771,1.5609-4.8281,2.818-.493,1.2629.988,2.088,3.239,1.7849,2.2461-.3309,4.2719-1.616,4.822-2.88.282-1.0709-.7119-1.789-2.336-1.789a6.3581,6.3581,0,0,0-.8969.0661m-317.843.6279c-2.8521,1.314-2.7461,3.15.218,4.11a16.97,16.97,0,0,0,10.6318-.741c2.7461-1.342,2.6331-3.1209-.437-4.025a13.7768,13.7768,0,0,0-3.9978-.525,16.7489,16.7489,0,0,0-6.415,1.181m-222.0762-.932c-4.8789,1.123-6.9048,4.11-4.3838,6.715,2.6829,2.576,8.7678,3.671,13.814,2.492,4.935-1.229,6.687-4.244,4.0529-6.742-1.9079-1.804-5.677-2.875-9.508-2.875a18.8623,18.8623,0,0,0-3.9751.41m666.4971-1.262c-.7669.2741-1.3179.903-1.2061,1.4261,0,.494.7642.7409,1.5891.4659.7129-.2469,1.313-.9039,1.1509-1.3979,0-.375-.396-.6081-.9019-.6081a1.88,1.88,0,0,0-.632.114M70.8169,231.058a.33.33,0,0,0-.325.2749c-.029.1421.0782.22.2962.22a.49.49,0,0,0,.36-.27.25.25,0,0,0-.281-.2281.4152.4152,0,0,0-.05.0031m386.2322.3039c-4.3831,1.2911-5.59,4.03-2.4131,5.95,3.1831,2.027,9.4309,2.436,13.927,1.067,4.3281-1.454,5.259-4.082,2.083-5.9719a16.4469,16.4469,0,0,0-8.0391-1.7831,20.1806,20.1806,0,0,0-5.5578.738m-186.0552-3.615c-3.8389.628-5.865,2.93-4.6628,5.1811,1.207,2.2169,5.32,3.48,9.155,2.7949,3.7268-.661,5.866-2.991,4.4968-5.181-.95-1.787-3.9109-2.959-7.011-2.959a11.8587,11.8587,0,0,0-1.978.164m378.2522.162c-1.426.849-1.207,1.864.6609,2.245a9.485,9.485,0,0,0,6.0849-.874c1.5892-.848,1.2022-1.864-.6608-2.246a8.492,8.492,0,0,0-1.5831-.138,9.8016,9.8016,0,0,0-4.5019,1.013m-539.1741-1.015c-.4941.0561-.8811.359-.8811.7121,0,.3309.387.5789.8811.5229.438-.0289.876-.354.791-.713.0769-.302-.278-.5289-.6731-.5289a.9445.9445,0,0,0-.1179.0069m833.9939-.438a2.7856,2.7856,0,0,0-2.3,1.7c-.0561.714.656,1.124,1.8628.847a2.7237,2.7237,0,0,0,2.301-1.722c.0452-.5559-.38-.914-1.1418-.914a3.2488,3.2488,0,0,0-.7222.089m-545.178-2.33c-4.8278,1.1219-6.6909,3.9189-4.115,6.2479,2.6321,2.358,8.88,3.239,13.596,2.0331,4.7722-1.2371,6.4722-4.0321,3.727-6.254-1.875-1.579-5.414-2.4921-8.979-2.4921a18.6672,18.6672,0,0,0-4.229.4651m155.6861-1.0381c-2.2461.9031-2.521,2.274-.5511,3.0651a12.59,12.59,0,0,0,7.898-.1911c2.2451-.932,2.4082-2.2739.3821-3.07a10.0139,10.0139,0,0,0-3.4141-.5241,12.52,12.52,0,0,0-4.3149.72M148.8,221.9089c-1.207.162-2.194.932-2.1379,1.7791.1338.876,1.178,1.4259,2.4129,1.2849,1.257-.106,2.19-.931,2.1379-1.7789-.1018-.7511-.9829-1.2991-2.1018-1.2991-.1021,0-.2051.004-.3111.014m344.4839-.415c-3.395,1.016-4.165,2.9911-1.75,4.3621,2.521,1.369,7.3421,1.56,10.7442.4659,3.3388-1.101,4.0019-3.016,1.4768-4.364a12.3429,12.3429,0,0,0-5.64-1.131,16.9487,16.9487,0,0,0-4.8311.667m-184.6279-.905c-4.39.742-6.748,3.375-5.209,5.7881,1.6441,2.4929,6.5779,3.7769,11.07,2.9589,4.3889-.854,6.5288-3.4539,4.9338-5.8659-1.42-1.8671-4.7519-3.0871-8.2978-3.0871a15.0526,15.0526,0,0,0-2.4971.206m482.2959-1.397c-2.1318,0-4.929.932-6.0278,2.082-1.0391,1.179-.1072,2.1391,2.1948,2.167,2.3582,0,5.042-.988,6.029-2.167,1.064-1.118.1641-2.084-2.009-2.084-.061,0-.1228.001-.187.002m-174.8718.74c-1.751.848-1.751,1.9491.219,2.472a11.0864,11.0864,0,0,0,6.58-.664c1.7012-.8479,1.5891-1.998-.2749-2.435a8.286,8.286,0,0,0-2.19-.265,10.3205,10.3205,0,0,0-4.334.892m213.635-1.095c-1.426.108-2.9641.7421-3.4021,1.455-.5449.707.112,1.2571,1.5381,1.202a4.6325,4.6325,0,0,0,3.2888-1.4769c.508-.6641-.03-1.188-1.169-1.188-.083,0-.1679.0029-.2558.0079m-82.0652,1.314c-1.0449.797-.4929,1.589,1.2022,1.6731a8.0378,8.0378,0,0,0,4.8269-1.3411c.9321-.8259.2751-1.589-1.3179-1.7009-.074-.0031-.15-.004-.2261-.004-1.614,0-3.7009.5649-4.4851,1.3729m320.5271-3.0979c-.1631.0279-.1631.0849-.1631.14,0,.029.1631.029.1631,0a.0825.0825,0,0,0,.1121-.0829c0-.0421-.06-.0681-.0921-.0681-.0119,0-.02.004-.02.0111m-881.115-.3261c-2.0261.22-3.56,1.4771-3.3411,2.8521.22,1.3419,2.1392,2.2179,4.2222,1.9419,2.0259-.247,3.5078-1.532,3.2339-2.8219-.197-1.1791-1.676-2.005-3.4819-2.005a5.9534,5.9534,0,0,0-.6331.0329m798.1751-.2459c-.9312.3029-1.6451.9869-1.6451,1.5889-.112.6.7139.903,1.6451.6.8188-.2409,1.5879-.954,1.5879-1.56,0-.452-.4339-.72-.9981-.72a2.0287,2.0287,0,0,0-.59.0911m-274.1541.572c-1.094.7689-.7681,1.594.8211,1.729a7.8914,7.8914,0,0,0,5.0449-1.094c1.1521-.7981.657-1.567-.9319-1.7581-.2112-.021-.4312-.031-.657-.031a8.1391,8.1391,0,0,0-4.2771,1.1541m-275.686-1.2571c-4.2769,1.037-5.9209,3.4811-3.4,5.4,2.4138,1.892,8.0039,2.52,12.282,1.397,4.2709-1.127,5.591-3.536,3.177-5.371-1.7041-1.2259-4.7122-1.936-7.7691-1.936a17.44,17.44,0,0,0-4.29.51m434.718-1.292c-2.2449.2481-4.4961,1.4551-5.1531,2.689-.657,1.258.4942,2.0841,2.7952,1.836,2.251-.275,4.6018-1.482,5.1538-2.74.5681-1.0949-.3428-1.8389-1.9868-1.8389a6.47,6.47,0,0,0-.8091.0539m-524.241-.684c-4.4909.824-6.7419,3.373-5.041,5.703,1.752,2.3581,6.905,3.5361,11.5129,2.6041,4.491-.9041,6.5791-3.428,4.7161-5.7021-1.43-1.749-4.833-2.8509-8.36-2.852a16.0372,16.0372,0,0,0-2.8279.247m332.1519-1.369c-.7639.464-.658.959.331,1.122a5.6728,5.6728,0,0,0,3.178-.544c.7691-.4659.5491-.961-.3818-1.129a3.9371,3.9371,0,0,0-.56-.036,5.7594,5.7594,0,0,0-2.5671.587m-453.19-.771c-2.5778.3051-4.3859,1.865-4.0039,3.403.3821,1.644,2.908,2.682,5.5359,2.357,2.5252-.359,4.2771-1.919,3.8391-3.508-.385-1.3779-2.301-2.304-4.4719-2.304a7.8216,7.8216,0,0,0-.8992.052m303.5891-.218c-2.301.741-2.85,2.032-1.0949,2.879a10.881,10.881,0,0,0,7.18.085c2.3579-.74,2.7959-2.032,1.04-2.823a8.3147,8.3147,0,0,0-3.531-.65,12.5076,12.5076,0,0,0-3.594.509m59.2071-.297c-1.3191.515-1.426,1.286-.22,1.6951a7.58,7.58,0,0,0,4.604-.2461c1.313-.546,1.4248-1.2589.2178-1.6959a5.57,5.57,0,0,0-1.7688-.2511,8.1665,8.1665,0,0,0-2.833.498m321.6269-1.348a3.27,3.27,0,0,0-2.415,1.483c-.218.6851.55,1.044,1.645.848a3.1534,3.1534,0,0,0,2.3569-1.534c.1312-.526-.2639-.861-.989-.861a3.1056,3.1056,0,0,0-.5979.064m-438.063-2.218c-3.403.848-4.496,2.6831-2.5271,4.081,2.0831,1.398,6.4732,1.786,9.8121.854,3.4589-.931,4.497-2.745,2.47-4.115a11.3264,11.3264,0,0,0-5.803-1.291,16.14,16.14,0,0,0-3.9519.471m-88.9741-.633c-4.4958.825-6.636,3.289-4.7729,5.485,1.9211,2.193,7.292,3.204,11.7329,2.273,4.4961-.961,6.5222-3.424,4.4961-5.508-1.4119-1.598-4.7129-2.5529-8.1609-2.5529a17.6141,17.6141,0,0,0-3.2952.3029M261.8391,205.871c-3.62.495-6.0342,2.5479-5.3721,4.688.8189,2.1369,4.3841,3.4809,8.1121,2.9859,3.616-.545,5.866-2.656,5.0969-4.766-.62-1.769-3.4-2.9919-6.456-2.9919a11.2935,11.2935,0,0,0-1.3809.084m384.667.359c-.988.4939-.8762,1.095.1619,1.2849a5.6045,5.6045,0,0,0,3.458-.465c.9829-.4659.82-.989-.1121-1.2359a3.8263,3.8263,0,0,0-.9148-.0981,7.1837,7.1837,0,0,0-2.593.5141m377.4309-1.6441a.5515.5515,0,0,0-.3821.409c.0552.191.2752.219.55.1631a.5588.5588,0,0,0,.2761-.438c0-.1121-.08-.1741-.219-.1741a.7666.7666,0,0,0-.2251.04m-948.5959-1.92a.24.24,0,0,0-.2471.134.1293.1293,0,0,0,.135.168c.1411,0,.2471-.083.2471-.195.0239-.044-.01-.113-.0911-.113a.1818.1818,0,0,0-.0439.006m872.51-.579a1.4433,1.4433,0,0,0-1.15.932c0,.359.325.55.981.387.551-.111,1.1-.55,1.1-.932.082-.2739-.1541-.434-.5381-.434a1.7965,1.7965,0,0,0-.3928.047m-385.93-.876c-1.4248.523-1.6438,1.237-.55,1.729a7.6214,7.6214,0,0,0,4.4958-.055c1.37-.494,1.646-1.263.5462-1.7009a5.5185,5.5185,0,0,0-2.022-.3151,8.7959,8.7959,0,0,0-2.47.342m207.3242.6081c-.656.5719-.2751,1.0659.9319,1.1209a5.3759,5.3759,0,0,0,3.1831-1.072c.657-.515.1638-1.009-.8811-1.0379-.0349-.001-.071-.001-.106-.001a5.4113,5.4113,0,0,0-3.1279.99m38.5928-1.4261a5.08,5.08,0,0,0-3.177,1.2c-.55.6061,0,1.073,1.0391,1.0441a4.996,4.996,0,0,0,3.1821-1.2071c.5158-.568.0539-1.042-.8841-1.042-.052,0-.1049.002-.16.005M298.4,200.47c-4.1648.579-6.9048,2.881-5.916,5.21.9831,2.33,5.3711,3.7,9.6431,3.0711,4.278-.6291,6.6921-2.9591,5.7031-5.2371-.98-1.889-4.106-3.1629-7.5891-3.1629a14.35,14.35,0,0,0-1.8411.119m120.0562.0849c-3.615.7691-5.3711,2.71-3.7271,4.328,1.5891,1.672,6.1421,2.386,9.7061,1.5661,3.728-.7691,5.3169-2.745,3.6149-4.3341-1.21-1.148-3.8149-1.8379-6.592-1.8379a16.0384,16.0384,0,0,0-3.0019.2779m-307.0152,0c0,.304.27.521.6582.4941a.8974.8974,0,0,0,.8189-.55c0-.275-.2691-.4659-.657-.4659a.9674.9674,0,0,0-.82.5219M735.48,200.252c-.6619.5219-.438.9589.5439,1.072a4.9639,4.9639,0,0,0,3.0152-.797c.8259-.578.4939-.9881-.4881-1.0441-.093-.0079-.1889-.011-.289-.011a5.335,5.335,0,0,0-2.782.78m-229.2-.9031c-2.1389.6-2.907,1.806-1.4809,2.6321,1.312.8189,4.2759,1.01,6.5219.3809,2.3011-.628,2.959-1.807,1.5889-2.633a7.4032,7.4032,0,0,0-3.6189-.742,12.4149,12.4149,0,0,0-3.011.362m112.54-.276c-.7632.276-.7632.685-.1072.8761a4.2241,4.2241,0,0,0,2.521-.22c.656-.2689.7131-.656.112-.8739a3.1525,3.1525,0,0,0-.8488-.1021,4.2949,4.2949,0,0,0-1.677.32m224.709-.41a2.2453,2.2453,0,0,0-1.3692.578c-.1118.2979.1631.4659.655.411a1.7982,1.7982,0,0,0,1.208-.5791c.23-.235-.0139-.428-.3278-.428a.7882.7882,0,0,0-.166.0181m-694.481-1.78c-.9341.023-1.781.6291-1.8081,1.258-.0569.634.6279,1.1,1.56,1.0161.9881-.056,1.8069-.6281,1.8631-1.291.051-.5661-.5442-1-1.3411-1a2.3391,2.3391,0,0,0-.2739.0169m555.2378.3261c-.3308.219-.3308.4939.2751.5509a3.0692,3.0692,0,0,0,1.701-.36c.3249-.2689.3249-.494-.22-.572a2.1158,2.1158,0,0,0-.23-.012,3.17,3.17,0,0,0-1.5261.3931m-369.813-1.8921c-4.3838.579-6.9609,2.9091-5.8669,5.1531,1.207,2.2519,5.8669,3.5379,10.2509,2.8519,4.3911-.6849,6.91-3.041,5.5911-5.2369-.991-1.761-4.23-2.9291-7.7361-2.93a15.5237,15.5237,0,0,0-2.239.162m545.4541-1.095a1.4119,1.4119,0,0,0-.988.6021c-.1619.2459.112.4149.551.3579a1.3868,1.3868,0,0,0,.9871-.606c.092-.229-.055-.3659-.3741-.3659a1.4068,1.4068,0,0,0-.176.0119m-426.0549-.275c-2.7952.6071-4.17,2.056-2.689,3.2621,1.3189,1.151,4.772,1.589,7.6228.9319,2.8462-.6289,4.0542-2.0819,2.6282-3.2329a8.1288,8.1288,0,0,0-4.855-1.23,13.4909,13.4909,0,0,0-2.707.2689m-268.344-.599c-1.6441.134-2.958,1.066-2.958,2.082-.0552,1.039,1.259,1.7791,2.9028,1.617,1.644-.141,2.9082-1.073,2.958-2.055,0-.982-1.1008-1.6619-2.5049-1.6619q-.1952,0-.3979.0179m489.1008-.77c-.55.3031-.437.6011.1072.6841a3.4668,3.4668,0,0,0,1.9768-.303c.5491-.297.437-.6-.1128-.6841a2.7524,2.7524,0,0,0-.39-.025,3.8278,3.8278,0,0,0-1.5811.328m310.17-.8479c-.33.136-.6072.3819-.6072.6,0,.2479.3892.332.6572.2479.2749-.1909.5508-.382.5508-.6,0-.186-.1548-.28-.3689-.28a.9423.9423,0,0,0-.2319.0321m-390.8072-.932c-.77.271-.9328.657-.332.8769a3.8508,3.8508,0,0,0,2.4131-.0849c.7141-.2751.822-.657.3259-.875a2.77,2.77,0,0,0-.9758-.146,4.4053,4.4053,0,0,0-1.4312.229m-53.946-.083c-1.4258.3819-1.9719,1.1779-1.0388,1.6439a6.8589,6.8589,0,0,0,4.384.136c1.5889-.439,2.0259-1.18.9878-1.668a4.8348,4.8348,0,0,0-2.1509-.3879,8.4118,8.4118,0,0,0-2.1821.276M370.27,190.3329c-4.0019.629-6.36,2.655-5.154,4.5751,1.2639,1.9749,5.592,2.9869,9.65,2.301,4.0579-.6281,6.1419-2.7111,4.9348-4.6021-1.0649-1.505-3.9848-2.438-7.146-2.438a15.8822,15.8822,0,0,0-2.2849.164m-148.6179-.662c-2.2461.167-4.053,1.426-3.9961,2.824.0491,1.346,2.0259,2.305,4.3279,2.081,2.3-.191,4.0591-1.448,3.9451-2.8459-.096-1.2041-1.7029-2.0841-3.6939-2.0841-.1912,0-.386.008-.583.025m694.4038-2.275a1.87,1.87,0,0,0-1.3188.904c-.1072.416.33.6071.8808.466a1.77,1.77,0,0,0,1.313-.903c.0881-.311-.188-.496-.5869-.496a1.4812,1.4812,0,0,0-.2881.029m-427.7058-.38c-2.0261.492-3.07,1.5321-1.92,2.357,1.1.792,3.7271,1.038,5.7591.516,2.247-.4659,3.072-1.504,1.9719-2.301a6.0274,6.0274,0,0,0-3.4859-.807,11.355,11.355,0,0,0-2.3249.235m159.689-.142c-.5452.1691-.5452.467-.1072.579a3.4785,3.4785,0,0,0,1.644-.19c.438-.22.55-.467.1072-.5789a1.9983,1.9983,0,0,0-.4622-.047,2.9056,2.9056,0,0,0-1.1818.2369m-390.7532-1.229c-3.07.27-5.3159,1.9141-5.04,3.672.1628,1.7521,3.0708,2.958,6.085,2.6321,3.071-.3031,5.2028-1.9751,5.04-3.7-.343-1.5549-2.4221-2.6439-5.157-2.6439q-.453,0-.9282.04m148.2312-.275c-3.2881.545-5.1541,2.1891-4.053,3.6991,1.1519,1.5089,4.8218,2.2459,8.2239,1.646,3.397-.6,5.1531-2.224,3.946-3.6991-.8611-1.116-3.2619-1.813-5.8969-1.813a14.7836,14.7836,0,0,0-2.22.167M789.752,184.136c-.22.219-.1141.381.2189.381a2.1624,2.1624,0,0,0,1.2071-.41c.269-.218.1631-.3809-.3321-.3809a1.8024,1.8024,0,0,0-1.0939.41m-31.4141-.22c-.1629.22-.1118.3821.219.41a2.0649,2.0649,0,0,0,1.0952-.3249c.3308-.1911.2749-.3881-.219-.3881-.0242-.0019-.05-.0029-.0781-.0029a2.114,2.114,0,0,0-1.0171.3059m63.8662-1.286c-.2751.242,0,.4391.3809.411a2.2821,2.2821,0,0,0,1.208-.55c.2739-.2471,0-.3821-.439-.3821a1.6261,1.6261,0,0,0-1.15.521M572.553,181.834c-.9319.2749-1.095.6839-.544.9319a3.9063,3.9063,0,0,0,2.521,0c.82-.2749,1.094-.657.543-.9319a2.9854,2.9854,0,0,0-1.1541-.1861,4.9316,4.9316,0,0,0-1.3659.1861M292.7019,181.7c-3.62.3809-6.2539,2.2159-5.8108,4.1639.44,1.999,3.836,3.2621,7.4558,2.852,3.7281-.443,6.085-2.3349,5.698-4.221-.3869-1.6959-2.999-2.857-6.0949-2.8579-.409,0-.826.021-1.2481.063m147.7371-1.4261c-2.576.4091-3.9461,1.615-3.07,2.6551.875,1.072,3.8391,1.5379,6.36,1.072s3.8379-1.6741,2.958-2.69c-.7241-.764-2.404-1.218-4.2461-1.218a11.058,11.058,0,0,0-2.0019.181m183.7519-.1119c-.437.163-.543.4369-.2678.5489a2.8146,2.8146,0,0,0,1.6938-.112c.439-.162.552-.4369.17-.5449A2.7236,2.7236,0,0,0,625.219,180a3.191,3.191,0,0,0-1.0281.1621m-101.906-.108c-1.0959.271-1.646.82-.989,1.202a4.4225,4.4225,0,0,0,3.07.2179c1.209-.297,1.644-.819,1.101-1.2a4.1132,4.1132,0,0,0-1.852-.3669,6.0113,6.0113,0,0,0-1.33.147m178.9312-.9311c-.1072.05-.1072.19,0,.19a1.2383,1.2383,0,0,0,.655-.1121c.1689-.107.1689-.19-.1062-.19a1.9613,1.9613,0,0,0-.5488.1119m249.155.241c0,.196.1628.225.3828.196a1.8773,1.8773,0,0,0,.437-.415c0-.1339-.27-.1339-.437-.1339-.1079.0829-.3828.2739-.3828.3529m-622.803-1.56c-3.7842.4089-6.5222,2.358-6.0342,4.333.7122,1.999,4.3892,3.2609,8.3921,2.74,3.9961-.439,6.523-2.386,5.86-4.3061-.5759-1.68-3.4309-2.8359-6.7879-2.837-.4689,0-.947.0231-1.43.07m-243.7-1.2591a.3093.3093,0,0,0-.2749.1071.1415.1415,0,0,0,.1631.1629.4588.4588,0,0,0,.2739-.19c0-.0449-.0361-.0869-.1059-.0869a.2382.2382,0,0,0-.0562.0069m33.906-.853c-.1118.248.1922.467.5171.467a1.066,1.066,0,0,0,.88-.5219c.0291-.2481-.1958-.411-.5769-.411-.354.0279-.741.192-.82.4659m558.281-.819c-.219.0511-.219.1071-.113.135a1.1715,1.1715,0,0,0,.4392-.056c.1128-.051.1128-.108,0-.163a.2886.2886,0,0,0-.073-.01.5875.5875,0,0,0-.2532.094m-201.4619-.029c-1.865.327-2.74,1.096-2.084,1.781.657.656,2.739.93,4.4959.6051,1.7522-.3581,2.6272-1.1271,1.9712-1.812a4.34,4.34,0,0,0-2.782-.7321,8.1376,8.1376,0,0,0-1.6011.158m-112.3269-.6559c-3.56.438-6.0852,2.1389-5.3161,3.89.655,1.73,4.2771,2.796,8.0041,2.302,3.5649-.4669,5.9729-2.2169,5.21-3.891-.606-1.443-3.2671-2.3939-6.272-2.3939a14.1837,14.1837,0,0,0-1.626.093m-208.863-.74c-.876.0271-1.6961.493-1.8081,1.01-.1619.578.3821.987,1.2639.96a1.9974,1.9974,0,0,0,1.8081-1.04c.0991-.542-.375-.936-1.116-.936-.049,0-.0981.0021-.1479.006m450.2888-.63c-.3818.078-.5508.2981-.2749.3821a1.8326,1.8326,0,0,0,1.207-.0281c.3809-.1129.55-.303.2749-.409a1.27,1.27,0,0,0-.457-.0689,2.3016,2.3016,0,0,0-.75.1239m-48.7878-.224c-.6561.197-.8812.4651-.55.635a2.3545,2.3545,0,0,0,1.646.077c.7119-.134.875-.437.5491-.6269a1.4726,1.4726,0,0,0-.8162-.1561,5.0008,5.0008,0,0,0-.8288.071M188.106,171.308c-1.482.0849-2.7959.8479-2.9581,1.729-.1689.9039.875,1.56,2.3,1.5039,1.427-.106,2.74-.8469,2.9031-1.75.1618-.8469-.7432-1.486-2.0782-1.486-.0549,0-.1108.001-.1669.0031m208.531-.797c-3.0711.3879-5.097,1.8359-4.44,3.2119.7119,1.369,3.896,2.161,6.9661,1.6951,3.178-.41,5.1528-1.807,4.384-3.2071-.5451-1.065-2.7512-1.795-5.3042-1.795a13.5183,13.5183,0,0,0-1.6059.0951m256.78-.9041c-.2261.057-.2261.112-.114.141a1.1354,1.1354,0,0,0,.4389-.029c.1121-.055.1121-.112,0-.138a.57.57,0,0,0-.1528-.02.2517.2517,0,0,0-.1721.046m-145.4419-.466c-1.0381.192-1.532.635-1.15,1.0171a3.7133,3.7133,0,0,0,2.633.2469c1.043-.191,1.5891-.657,1.094-.989a2.22,2.22,0,0,0-1.5081-.366,6.3587,6.3587,0,0,0-1.0688.091M222.584,169.007c-2.0271.1059-3.7781,1.151-3.9461,2.301-.1069,1.2359,1.4261,2.1109,3.4012,1.9759,2.0258-.112,3.7839-1.1789,3.89-2.3349.154-1.13-1.1441-1.9521-2.99-1.9521-.116,0-.2339.003-.355.01m555.98-.932c-.1631.1909-.107.3249.2751.3249a1.8362,1.8362,0,0,0,1.044-.353c.2739-.1909.1628-.3319-.2181-.3319a2.5756,2.5756,0,0,0-1.101.36m28.8921-1.017c-.1622.2489-.0552.36.2749.36a1.7737,1.7737,0,0,0,1.039-.416c.1121-.2181,0-.324-.2739-.324a2.1809,2.1809,0,0,0-1.04.38m-376.773-.353c-2.52.297-4.0032,1.37-3.3462,2.359.55,1.0089,3.07,1.56,5.5911,1.2,2.469-.353,3.896-1.448,3.2341-2.4349-.4311-.7591-2.0972-1.2271-3.9651-1.2271a11.0823,11.0823,0,0,0-1.5139.1031m-173.7781-.1961c-2.6889.1961-4.771,1.454-4.771,2.88-.164,1.453,1.9761,2.4921,4.4971,2.2731,2.52-.135,4.6589-1.42,4.771-2.8461,0-1.355-1.7871-2.3149-4.1282-2.3149-.1218,0-.2448.0029-.3689.0079m468.814-.708c-.1069.1071-.219.163,0,.163a1.059,1.059,0,0,0,.5491-.112c.1118-.051.1118-.1629,0-.1629a.3949.3949,0,0,0-.0711-.005,1.2928,1.2928,0,0,0-.478.1169m-139.406-.908c-.3259.084-.439.274-.3259.33a1.6992,1.6992,0,0,0,.9309,0c.2751-.056.4941-.218.2751-.33a1.7828,1.7828,0,0,0-.3982-.039,3.1383,3.1383,0,0,0-.4819.039m251.843-.9329a2.033,2.033,0,0,0-1.15.551c-.0571.2179,0,.3529.489.3309a1.7318,1.7318,0,0,0,1.1-.5229c.2009-.2261.0329-.3621-.333-.3621-.033,0-.0689.001-.106.0031m-547.21,0c-3.071.22-5.48,1.645-5.48,3.24,0,1.6159,2.521,2.738,5.592,2.4929,3.07-.248,5.479-1.701,5.3728-3.263,0-1.453-2.1089-2.4969-4.7358-2.4969q-.3691,0-.7491.027m342.677-.3261c-.1069.0291-.1069.08-.1069.08a.8338.8338,0,0,0,.27-.024c.112-.0269.112-.056,0-.056,0-.009-.0059-.012-.0169-.012-.0239,0-.071.012-.146.012m-93.14-.6059c-.5449.14-.9309.36-.5449.5789a2.3328,2.3328,0,0,0,1.3689.083c.603-.112.9341-.359.6582-.549a1.6826,1.6826,0,0,0-.865-.15,5.3175,5.3175,0,0,0-.6172.037m161.6082-.1351c-.0511.0571-.0511.1081,0,.1081a.7579.7579,0,0,0,.332-.051c.2739-.0281.2739-.14.1118-.1691a.8819.8819,0,0,0-.4438.112m-237.75-.218c-1.7.218-2.689.903-2.25,1.505.4438.5771,2.0879.909,3.7319.662,1.645-.276,2.521-.933,2.083-1.511a3.2713,3.2713,0,0,0-2.4609-.7469,6.7484,6.7484,0,0,0-1.104.0909m-139.5682-1.208c-3.239.2481-5.76,1.674-5.591,3.234.269,1.588,2.9021,2.661,6.0791,2.386,3.1821-.275,5.5969-1.729,5.3779-3.234-.1538-1.4029-2.4018-2.4139-5.084-2.4139-.2578,0-.5178.0089-.782.0279m355.9981-2.463c-.113,0-.113.051-.113.1071a.6165.6165,0,0,0,.4379-.0851.0884.0884,0,0,0,.0572-.079.2007.2007,0,0,0-.0762-.011.7724.7724,0,0,0-.3059.068m-322.5081-.141c-3.1779.275-5.592,1.673-5.4228,3.156.3828,1.447,3.2329,2.407,6.4109,2.161,3.29-.2979,5.54-1.753,5.2651-3.2049-.3452-1.25-2.5271-2.151-5.26-2.151q-.4863,0-.9932.0389m138.8621-.741c-1.1011.22-1.646.607-1.37,1.016.269.354,1.4761.495,2.5762.354,1.1508-.191,1.646-.6,1.4209-.9539-.2029-.313-.9671-.4661-1.7979-.4661a6.7454,6.7454,0,0,0-.8291.05m119.613-1.039v.057l.1121-.028v-.029Zm-44.623-.387c-.219.057-.3821.141-.219.22a1.4161,1.4161,0,0,0,.657.027c.1689-.078.2761-.1349.1689-.2179a.5069.5069,0,0,0-.2888-.0551,2.2292,2.2292,0,0,0-.3181.026m-180.5191-.297c-2.6889.247-4.6589,1.341-4.3339,2.548.332,1.18,2.852,1.892,5.4841,1.6171,2.6838-.303,4.553-1.3971,4.2788-2.5491-.3389-1.007-2.146-1.657-4.427-1.657-.325,0-.66.0131-1.002.041m270.4261-2.084a.0923.0923,0,0,0-.0569.081h.1628c.1121-.057.1121-.081.1121-.1079-.1121,0-.218,0-.218.0269m-237.2061-.5219c-2.0808.1629-3.6709.989-3.29,1.8089.2761.824,2.14,1.314,4.2231,1.094,2.138-.219,3.5081-1.037,3.177-1.863-.1809-.653-1.552-1.1029-3.105-1.1029a7.95,7.95,0,0,0-1.0051.063m104.7041-.386c-.5439.0849-.876.303-.656.4659.1121.168.656.197,1.2061.14.55-.0839.8759-.3029.656-.4649-.074-.114-.366-.1761-.7232-.1761a3.3789,3.3789,0,0,0-.4829.0351M95.68,152.75a.0553.0553,0,0,0,.0552.057.1749.1749,0,0,0,.1079-.057c.0549-.028,0-.049-.051-.049a.2018.2018,0,0,0-.1121.049m32.2891.112c-.114.107,0,.2751.218.219a.7136.7136,0,0,0,.4939-.219c.0562-.14-.0569-.247-.2749-.247a.2271.2271,0,0,0-.0449-.0039.4735.4735,0,0,0-.3921.2509m31.8779-.161c-.1408.38.2471.684.8491.684a1.4651,1.4651,0,0,0,1.34-.713c.197-.388-.1338-.685-.7349-.685a1.8811,1.8811,0,0,0-1.4541.714m34.344-1.5119a2.7685,2.7685,0,0,0-2.302,1.1229c-.168.607.439,1.0951,1.4761,1.073a2.8236,2.8236,0,0,0,2.2519-1.13c.2142-.584-.3569-1.0669-1.3459-1.0669-.0271,0-.053,0-.08.001m263.353-.381c-1.426.19-2.4709.7119-2.2458,1.229.2688.5229,1.6438.8249,3.064.6639,1.426-.17,2.415-.714,2.2519-1.237-.229-.4109-1.258-.691-2.3869-.691a6.5137,6.5137,0,0,0-.6832.0351m-230.4079-.96c-1.645.051-3.2891.875-3.62,1.8351-.3262.9889.7678,1.78,2.5269,1.724,1.7509-.051,3.289-.8761,3.614-1.864.3259-.937-.7261-1.6961-2.429-1.6961-.031,0-.061,0-.092.001m418.82-.7689-.107.0289h.107c.112-.0289.112-.0859.112-.0859s-.112,0-.112.057m-385.98-.6021c-2.3081.052-4.3892,1.0971-4.6592,2.3531-.3889,1.2629,1.3142,2.2509,3.5581,2.1669,2.252-.078,4.39-1.179,4.6589-2.408.377-1.174-1.2209-2.1139-3.373-2.1139-.0608,0-.1228.001-.1848.0019m301.1748-.167c-.33.027-.4358.167-.33.219a1.2037,1.2037,0,0,0,.55,0c.22,0,.2749-.0789.2749-.192a.4124.4124,0,0,0-.25-.0549,1.0856,1.0856,0,0,0-.2451.0279m-71.262-.764c-.8818.079-1.427.41-1.3188.714a2.48,2.48,0,0,0,1.864.3251c.988-.084,1.594-.4091,1.3179-.6851-.086-.234-.5931-.4-1.2471-.4a4.1855,4.1855,0,0,0-.616.046m-197.187-.387c-2.6328.084-5.0459,1.263-5.2649,2.604-.3259,1.3431,1.7571,2.386,4.384,2.2741,2.7439-.1071,5.0469-1.3141,5.2649-2.6261.2061-1.293-1.5258-2.2639-3.916-2.2639q-.2292,0-.468.0119m32.5591-1.426c-2.7949.085-5.3159,1.291-5.4231,2.689-.2749,1.37,2.1392,2.357,4.935,2.244,2.7952-.161,5.2022-1.397,5.3162-2.7379.1008-1.2481-1.7261-2.203-4.4031-2.203-.14,0-.281.0029-.425.0079m32.458-1.313c-2.634.106-4.8789,1.2071-4.936,2.3581,0,1.207,2.0839,2.082,4.716,1.8909,2.6841-.14,4.7671-1.2349,4.9351-2.3859,0-1.0671-1.8411-1.8781-4.1641-1.8781-.1809,0-.365.004-.551.015m164.1269-.5229c-.55.057-.875.2469-.769.36.1121.192.551.2469,1.1511.192.387-.057.7119-.22.606-.3891-.044-.128-.3579-.172-.7029-.172-.094,0-.1912.003-.2852.0091m-131.894-.9311c-2.14.163-4.0029.9881-3.8909,1.918,0,.9611,1.8631,1.5911,4.053,1.484,2.251-.198,4.002-1.016,3.9461-1.948,0-.85-1.647-1.4609-3.709-1.462-.1321,0-.2642.003-.3992.008m32.2322-1.5319c-1.645.1059-2.8511.6839-2.8511,1.3409.0549.6281,1.3689,1.0391,3.07.931,1.644-.112,2.9638-.74,2.8518-1.341-.1448-.564-1.2029-.95-2.552-.95-.169,0-.3418.006-.5188.0191M553.04,140.1129c0,.0291.107.057.326.0291.113,0,.2761-.057.2761-.1061a2.0415,2.0415,0,0,0-.3831-.028c-.219.028-.219.105-.219.105m-98.9489-.683c-1.15.083-2.083.521-2.083.96.1069.4091,1.2009.712,2.4089.6271,1.262-.1061,2.083-.5431,2.083-.954-.094-.4081-.9451-.6481-1.9651-.6481q-.219,0-.4438.015m31.7949-2.112c-.606.029-1.044.248-.876.437,0,.17.489.3041,1.0391.249.55-.051,1.0439-.249,1.0439-.438-.093-.1579-.446-.2619-.905-.2619-.0969,0-.198.005-.302.0139m31.4641-2.604c-.3262.057-.5461.112-.5461.218,0,.0851.383.113.6579.0851s.438-.0851.438-.1911c0-.071-.2319-.118-.4348-.118a1.0746,1.0746,0,0,0-.115.006m-315.8171-1.449c-.326.489.113.904.988.932a2.4646,2.4646,0,0,0,2.032-.9089c.3269-.4661-.055-.876-.9871-.932a2.405,2.405,0,0,0-2.0329.9089m-30.179-.52c-.1609.218,0,.4081.3889.4081a1.2578,1.2578,0,0,0,.9861-.3821c.1631-.246-.0549-.4369-.437-.4369-.0249-.0021-.0491-.0031-.074-.0031a1.1251,1.1251,0,0,0-.864.414m60.06.8181c-.387.8539.438,1.5669,1.97,1.5669,1.5381,0,3.1829-.685,3.6221-1.538.3809-.821-.4392-1.5069-1.977-1.5069-.0562-.0021-.1121-.0031-.168-.0031-1.4832,0-3.0261.692-3.447,1.4811m-90.344-1.59c-.084.057,0,.1431.0849.1431.05,0,.19-.031.19-.1431.0781-.0549,0-.083-.0281-.083-.1118,0-.219.0281-.2468.083m407.2558-.105-.113.022a1.0542,1.0542,0,0,0,.219.0281c.1682,0,.1682-.0281.1682-.0281a.829.829,0,0,0-.198-.03.308.308,0,0,0-.0762.0079m-286.6538,1.807c-.5451,1.096.824,1.9991,2.907,1.9991,2.1379-.0291,4.2769-.9321,4.8218-1.9991.3872-1.1219-.82-2.004-2.7959-2.026-2.2449,0-4.3841.9041-4.9329,2.026m30.7-.139c-.439,1.235,1.207,2.222,3.727,2.1941s4.9339-1.0391,5.3718-2.2731-1.0949-2.1949-3.6159-2.1949c-2.5249.0279-4.9341,1.015-5.4829,2.2739m36.7849-2.657c-2.689.0281-5.3159,1.0391-5.76,2.303-.3821,1.263,1.4819,2.244,4.1711,2.1951,2.7388-.0571,5.2588-1.1011,5.699-2.3311.38-1.2169-1.322-2.167-3.9951-2.167h-.115m31.3-.33c-2.52.0549-4.822.9589-5.208,2.031-.2761,1.124,1.5879,1.9429,4.114,1.8649,2.521-.057,4.659-.988,5.0411-2.0889.2658-1.031-1.3162-1.81-3.7012-1.81q-.1212,0-.2459.0031m31.1389-.4661c-2.0268.055-4.0019.8241-4.165,1.701-.1689.819,1.3691,1.453,3.5591,1.398,2.032-.057,3.895-.8259,4.1709-1.6449.104-.8571-1.4138-1.4551-3.428-1.4551-.0449,0-.09,0-.137.001m31.2442-.601c-1.6951.078-2.958.573-3.07,1.179-.1059.6011,1.1011,1.01,2.6331.96,1.644-.057,2.9638-.6061,3.07-1.1791.053-.568-1.0059-.965-2.3618-.965-.0891,0-.1792.002-.271.005m31.032-.959c-1.1.055-2.032.4371-2.1382.818,0,.417.875.685,2.081.6351,1.096-.0561,2.0281-.4161,2.0281-.8531.106-.337-.7329-.603-1.8049-.603-.0552,0-.11.001-.166.003m30.97-1.123c-.5449.026-.9311.191-.9311.381,0,.134.3862.276.9311.276.55-.057,1.1011-.219,1.1011-.411,0-.149-.353-.251-.894-.251-.0662,0-.136.0021-.2071.005m30.3689-1.3979c0,.05.2752.1629.6631.134.2691-.0281.4881-.1061.4881-.218,0-.0851-.219-.135-.656-.135-.2771.0219-.4952.135-.4952.219m31.1382-2.0041h.1118V123.97c-.1118,0-.1118.0279-.1118.0279M426.186,118.653c-.9311,0-2.0261.3039-2.1389.6579-.2742.387.4939.684,1.5889.684,1.1011-.028,2.1379-.325,2.251-.7129.156-.338-.493-.6311-1.562-.6311-.0459,0-.0921.0011-.139.0021m30.4261-.2741c-.9331,0-1.8641.2741-1.9761.578-.1069.298.55.543,1.594.543.8191,0,1.751-.2689,1.863-.5709.0481-.2891-.4951-.552-1.353-.552-.042,0-.085,0-.1279.0019M392.2529,119.5c-.438.714.7691,1.2931,2.6321,1.264,1.865,0,3.615-.572,4.0029-1.313.2752-.685-.9318-1.207-2.7949-1.2629-1.758,0-3.459.5779-3.84,1.3119m93.69-1.1489c-.0571.14.2178.2459.656.2459a1.8715,1.8715,0,0,0,1.0379-.275c0-.162-.3809-.241-.8189-.241-.3882,0-.875.1071-.875.27m-124.716,1.0429c-.55.9041.8188,1.673,3.07,1.7011,2.1338,0,4.3838-.7691,4.7659-1.672.438-.8771-.875-1.6181-3.07-1.6441-.041-.0009-.0808-.0009-.1218-.0009-2.0962,0-4.11.73-4.644,1.6159m155.41-1.863c0,.084.167.135.3869.1061.27,0,.438-.0771.438-.1341,0-.084-.1118-.084-.2749-.084-.383,0-.55.029-.55.112m-185.8909,1.531c-.657,1.0181.7688,1.8931,3.07,1.8931,2.2461.0279,4.4961-.7631,5.1531-1.751.55-1.016-.769-1.8361-3.0149-1.864-.041,0-.082-.0011-.123-.0011-2.2132,0-4.5462.732-5.085,1.723m-29.8191-.465c-.6631.96.5439,1.786,2.626,1.864,2.082.028,4.2771-.763,4.9341-1.7519.551-.9591-.6-1.807-2.6321-1.8351-.074-.002-.1489-.0029-.2239-.0029-2.0151,0-4.071.7259-4.7041,1.7259m-29.3879-.7629c-.657.875.3889,1.6169,1.9758,1.6659,1.7522.057,3.615-.628,4.166-1.4469.6011-.9041-.3318-1.594-1.92-1.645-.0669-.0021-.135-.0031-.2029-.0031-1.6521,0-3.49.636-4.019,1.4291m-28.9991-.9091c-.5449.69.1619,1.235,1.3179,1.2631a3.9438,3.9438,0,0,0,3.178-1.0951c.4382-.6339-.1118-1.2059-1.314-1.234-.072-.0029-.145-.005-.218-.005a4.2,4.2,0,0,0-2.9639,1.071m-28.342-1.066c-.219.302,0,.577.5491.6a1.9994,1.9994,0,0,0,1.426-.5451c.219-.3029,0-.578-.5491-.6059-.0261-.0011-.051-.0021-.0769-.0021a1.9879,1.9879,0,0,0-1.3491.553m-28.9441-1.314c-.1628.1341,0,.325.2742.353a1.24,1.24,0,0,0,.8779-.302c.1621-.22.0559-.3549-.2761-.383a1.1623,1.1623,0,0,0-.876.332m335.4971-4.906c0,.027.1631.0491.22.0491.2181,0,.325-.0221.325-.077a.9487.9487,0,0,0-.219-.0291,2.0316,2.0316,0,0,0-.3259.057m-30.043-.0279c-.1631.077.1121.218.4949.1889a1.3479,1.3479,0,0,0,.874-.1889c.1121-.141-.1619-.22-.543-.22-.4389,0-.8259.0791-.8259.22m-30.206-.277c-.1629.22.2751.354.9321.3829a2.9837,2.9837,0,0,0,1.593-.354c.0508-.19-.386-.3869-1.0432-.3869-.04-.001-.08-.0021-.1209-.0021-.622,0-1.2561.155-1.361.36m-30.2071-.4921c-.269.354.3882.6281,1.375.656a3.3051,3.3051,0,0,0,2.189-.572c.332-.361-.325-.635-1.313-.6639a3.6939,3.6939,0,0,0-2.251.58m-30.094-.657c-.4929.465.3821.9311,1.7012.9311a4.97,4.97,0,0,0,3.2339-.8251c.2749-.495-.4939-.932-1.8081-.9609-.0789-.0031-.159-.0041-.2388-.0041-1.2051,0-2.53.343-2.8882.859m-30.2058-.932c-.6572.7121.387,1.369,2.252,1.4251,1.75.052,3.727-.4651,4.3828-1.234.55-.714-.3809-1.343-2.251-1.3981-.09-.0029-.18-.005-.271-.005-1.7339,0-3.59.5071-4.1128,1.212m-28.999-1.0949c-.657.7639.2749,1.3979,1.9748,1.4489,1.7012.083,3.7271-.495,4.3291-1.208.606-.713-.3249-1.3409-2.083-1.448q-.1665-.009-.3359-.009a5.9407,5.9407,0,0,0-3.885,1.2161m-28.8872-1.32c-.77.826.0561,1.511,1.863,1.589a6.47,6.47,0,0,0,4.3841-1.286c.55-.74-.1121-1.4519-1.8631-1.538-.11-.004-.2219-.007-.332-.007a6.1414,6.1414,0,0,0-4.052,1.242M284.041,103.413c-.551.6579,0,1.2069,1.313,1.2619a5.125,5.125,0,0,0,3.509-1.015c.5511-.629,0-1.207-1.313-1.2579-.103-.0071-.207-.01-.312-.01a5.1284,5.1284,0,0,0-3.197,1.021m243.397-1.011s0,.0229.112.0229a.3785.3785,0,0,0,.22-.0229s0-.0271-.114-.0271a.2454.2454,0,0,0-.0649-.008.3819.3819,0,0,0-.1531.0351M498,101.5769c-.1121.084.113.134.438.134a1.1362,1.1362,0,0,0,.657-.107c.113-.112-.107-.162-.326-.189a1.3683,1.3683,0,0,0-.769.162m-241.2629.22c-.3831.358,0,.685.5488.74a2.6866,2.6866,0,0,0,1.865-.55c.55-.353.112-.685-.5508-.764-.0342-.001-.0681-.002-.1021-.002a3.0311,3.0311,0,0,0-1.7609.576m211.8259-1.315c-.219.1921.1059.3261.769.355a2.2246,2.2246,0,0,0,1.314-.275c.218-.137-.113-.298-.657-.3269-.0571-.0031-.113-.004-.168-.004a2.6684,2.6684,0,0,0-1.258.2509m-239.45-.521c-.22.247-.113.4931.325.4931a1.7664,1.7664,0,0,0,1.207-.3581c.22-.248.1131-.466-.332-.489-.0281-.0019-.0569-.003-.0869-.003a1.9536,1.9536,0,0,0-1.1131.357m210.45-.714c-.219.2751.0559.466.876.495a2.7652,2.7652,0,0,0,1.645-.36c.332-.2181-.1069-.438-.7691-.438-.092-.0071-.186-.01-.281-.01a3.062,3.062,0,0,0-1.4709.3129m-237.804-1.263c-.113.113,0,.197.106.22.218,0,.437-.051.4939-.192.1621-.0511.0552-.1341-.0569-.1631a1.0184,1.0184,0,0,0-.543.135m208.2549-.218c-.4389.494.0562.8811,1.426.931a5.3492,5.3492,0,0,0,3.177-.6849c.387-.4081-.219-.8191-1.4758-.9031-.102-.005-.2051-.007-.3091-.007a5.08,5.08,0,0,0-2.8181.664m-28.6689-1.617c-.656.578,0,1.1,1.5329,1.179,1.37.056,3.1831-.298,3.7271-.8479.657-.5491,0-1.0431-1.533-1.15-.175-.0131-.352-.0191-.531-.0191a5.34,5.34,0,0,0-3.196.838m126.4111-1.807c-.1631,0,0,.084.219.084.1689.0281.5508-.0289.5508-.084.112,0,0-.0849-.22-.1119-.2739,0-.437,0-.55.1119m-154.7532,0c-.8249.655,0,1.262,1.532,1.3411a7.0478,7.0478,0,0,0,4.2781-.96c.657-.629,0-1.229-1.5879-1.314-.166-.0119-.3362-.018-.5061-.018a6.9167,6.9167,0,0,0-3.7161.951m126.1411-1.808c-.1679.107,0,.247.4881.276.4438,0,.989-.029,1.1008-.169.218-.136,0-.248-.437-.276-.0378-.001-.0759-.002-.1128-.002a4.4135,4.4135,0,0,0-1.0391.171M325.43,92.3649c-.8259.6631-.1689,1.264,1.313,1.377a6.5322,6.5322,0,0,0,4.0032-.961c.7688-.6079.218-1.2069-1.3142-1.3479-.146-.0111-.2969-.0161-.4509-.0161a6.5048,6.5048,0,0,0-3.5511.948m125.3721-1.75c-.1689.1631,0,.352.657.38a3.1141,3.1141,0,0,0,1.7009-.246c.2742-.163,0-.382-.6579-.411-.066-.0029-.1351-.005-.2049-.005a3.4485,3.4485,0,0,0-1.4951.282m-151.9641-.303c-.5449.437-.2178.931.769.959a4.7906,4.7906,0,0,0,2.8521-.656c.4939-.466.22-.9049-.7691-.961a3.869,3.869,0,0,0-.4228-.0219,4.2509,4.2509,0,0,0-2.4292.68M422.84,88.4479c-.437.301,0,.578.77.656a5.9223,5.9223,0,0,0,2.302-.381c.386-.275,0-.578-.82-.6019-.142-.0091-.291-.0141-.4411-.0141a3.773,3.773,0,0,0-1.8108.341m97.1418-.5449h.114v-.028h-.114Zm-247.6728.1619c-.2752.304-.1121.601.437.658a2.9383,2.9383,0,0,0,1.8628-.4659c.332-.3041.22-.6-.4368-.657q-.1037-.0091-.21-.0091a3.1435,3.1435,0,0,0-1.6528.474m122.302-1.92c-.77.467-.2761.905,1.2048,1.046a6.7844,6.7844,0,0,0,3.5672-.635c.655-.4659.2678-.932-1.1521-1.067-.1951-.015-.3941-.023-.594-.023a6.02,6.02,0,0,0-3.0259.679m97.417-.7119c-.2761.1119-.1131.1909.1609.22a3.0338,3.0338,0,0,0,1.04-.08c.0549-.112,0-.1959-.3821-.1959a1.5535,1.5535,0,0,0-.2778-.021,1.3328,1.3328,0,0,0-.541.077m-245.9231.22c-.3831.161-.22.358.1621.4089a1.9849,1.9849,0,0,0,1.207-.297c.3819-.192.2759-.3879-.1631-.439-.0461-.003-.094-.004-.144-.004a1.4406,1.4406,0,0,0-1.062.3311m-25.8731-2.578v.0839c.1631.028.2691,0,.325-.0839a.0549.0549,0,0,0-.0559-.0561.0589.0589,0,0,0-.0449-.0169,1.43,1.43,0,0,0-.2242.073m147.08.629c-.769.4939-.331,1.0719,1.207,1.2069a7.3,7.3,0,0,0,4.053-.741c.7681-.5169.33-1.066-1.208-1.229-.18-.015-.3679-.022-.561-.022a7.5074,7.5074,0,0,0-3.491.7851m97.0859-.849c-.331.1119-.0568.3319.4932.3609a4.0394,4.0394,0,0,0,1.5889-.1409c.22-.163.1079-.3251-.55-.3821a3.1614,3.1614,0,0,0-.477-.033,2.241,2.241,0,0,0-1.055.1951m69.5062-.5481h.0568a.4645.4645,0,0,0,.2752,0l-.1082-.023a.9536.9536,0,0,0-.2238.023M340.833,81.1039c-.769.573-.383,1.123.988,1.23a6.8289,6.8289,0,0,0,3.834-.713c.8809-.572.437-1.0661-.82-1.229-.1851-.016-.3789-.0241-.5779-.0241a7.8461,7.8461,0,0,0-3.4241.736m96.3721-.987c-.4932.2181-.1621.4941.6579.5721a5.0646,5.0646,0,0,0,2.138-.2691c.438-.224.219-.494-.657-.578-.1311-.01-.269-.014-.4089-.014a4.2633,4.2633,0,0,0-1.73.289m69.62-.825c-.056.056,0,.082.2751.112a1.2615,1.2615,0,0,0,.4929-.03c.1631-.0549.1631-.1119-.1111-.1329a2.65,2.65,0,0,0-.6569.0509m-190.99-.7639c-.656.2689-.386.572.2751.6579a3.8151,3.8151,0,0,0,2.1338-.411c.3872-.303.2751-.579-.5449-.662-.08-.006-.1619-.009-.2461-.009a2.9026,2.9026,0,0,0-1.6179.4241m234.2409-.9091h0m0,0c0,.056.1121,0,.1121,0a.4642.4642,0,0,0-.0779-.01c-.0342,0-.0342.01-.0342.01M410.07,77.1809c-.6072.387-.2752.798.82.91a7.6791,7.6791,0,0,0,3.2891-.416c.6621-.3819.2751-.7629-.762-.904-.2251-.021-.468-.032-.718-.032a6.8489,6.8489,0,0,0-2.6289.442m70.0058-1.066c-.3869.0841-.1118.218.2691.3031a3.1031,3.1031,0,0,0,1.32-.14c.2749-.1071.106-.219-.2751-.276a3.3675,3.3675,0,0,0-.3728-.0191,2.85,2.85,0,0,0-.9412.132m-189.9-.439c-.437.2481-.219.4661.2249.546a3.0136,3.0136,0,0,0,1.645-.327c.3262-.219.219-.437-.3308-.521a1.6491,1.6491,0,0,0-.1931-.011,3.2684,3.2684,0,0,0-1.346.313M523.603,74.032c-.112.0279-.112.079.107.1059a1.06,1.06,0,0,0,.656-.0269c.112-.0241,0-.079-.2181-.1071a.3742.3742,0,0,0-.1188-.012,2.3526,2.3526,0,0,0-.4261.04m-139.5171.1909c-.771.41-.552.824.6551.959a8.0945,8.0945,0,0,0,3.509-.4929c.657-.3821.387-.82-.8191-.96a6.0238,6.0238,0,0,0-.6169-.0289,6.5907,6.5907,0,0,0-2.7281.5229m69.617-1.455c-.4939.22-.3809.41.2761.523a5.0712,5.0712,0,0,0,2.1389-.1909c.3821-.14.218-.359-.4389-.494-.1651-.0141-.3479-.021-.5359-.021a4.5317,4.5317,0,0,0-1.44.1829m-188.4668,0c-.219.085-.1072.22.1609.247.113.057.4951-.027.552-.162.219-.1119.219-.2469,0-.275a.384.384,0,0,0-.06-.0039,1.5249,1.5249,0,0,0-.6528.1939m93.3579-1.646c-.8191.39-.551.798.4939.934a7.2385,7.2385,0,0,0,3.3462-.494c.7629-.354.3808-.7629-.55-.932-.187-.018-.384-.027-.5859-.027a6.7966,6.7966,0,0,0-2.7041.519m139.0759-.817c-.3259.0771-.219.218.1121.246a3.0141,3.0141,0,0,0,1.094-.028c.332-.055.219-.19-.107-.218a4.2924,4.2924,0,0,0-.5429-.0329,4.3894,4.3894,0,0,0-.5562.0329m44.677-.551c-.1059.057,0,.085.1121.085a.457.457,0,0,0,.2739,0c.1631,0,.1631-.085,0-.085a.8116.8116,0,0,0-.1919-.021.8314.8314,0,0,0-.1941.021m-301.834-.084v.028a.3933.3933,0,0,0,.1631-.028V69.647a1.0911,1.0911,0,0,0-.1631.0229m187.261-.3249c-.7119.2749-.437.5719.3892.656a5.6063,5.6063,0,0,0,2.626-.19c.6628-.2469.4389-.55-.3821-.6849a5.4161,5.4161,0,0,0-.7659-.0491,5.8943,5.8943,0,0,0-1.8672.2681M334.31,67.975c-.4942.2469-.388.4659.1628.573a4.0476,4.0476,0,0,0,1.864-.2981c.4942-.219.3872-.466-.2749-.5509-.093-.0091-.1931-.0141-.2959-.0141a3.6013,3.6013,0,0,0-1.456.29M562.8521,66.52h.164v-.026h-.164Zm-90.6741.0291c-.325.078-.219.2469.167.3039a5.3581,5.3581,0,0,0,1.477-.057c.3889-.1129.3321-.2469-.1059-.333-.1822-.018-.3741-.027-.563-.027a3.41,3.41,0,0,0-.9751.1131m-69.4561-.657c-.6008.271-.4929.5449.386.657a5.8877,5.8877,0,0,0,2.521-.2741c.551-.2479.4392-.5229-.33-.629a5.7358,5.7358,0,0,0-.7271-.044,5.38,5.38,0,0,0-1.85.29m114.302-.3311c-.22.028-.22.1121.1631.162a1.9831,1.9831,0,0,0,.8191,0c.22-.05.1118-.106-.1062-.162a2.7691,2.7691,0,0,0-.4609-.042,2.0287,2.0287,0,0,0-.4151.042m-207.166-.875c-.1628.134-.1628.302.167.3251a2.0939,2.0939,0,0,0,1.1511-.1621c.2749-.135.2749-.304-.112-.355-.0511-.004-.104-.006-.156-.006a3.1711,3.1711,0,0,0-1.05.198m137.323-2.0549c-.4939.1629-.3809.354.2752.4369a5.4322,5.4322,0,0,0,1.9748-.0829c.4392-.1631.271-.354-.218-.4661a5.5516,5.5516,0,0,0-.6858-.04,5.3432,5.3432,0,0,0-1.3462.1521m-68.8-.3031c-.5432.191-.437.466.22.6a4.7462,4.7462,0,0,0,2.0879-.2461c.5439-.219.437-.495-.2249-.574a3.4241,3.4241,0,0,0-.5671-.0439,4.3684,4.3684,0,0,0-1.5159.2639m159.8008-.5239c-.1079.03-.1079.057,0,.1129a3.1031,3.1031,0,0,0,.6572.051c.168-.078.168-.1069,0-.1339a1.695,1.695,0,0,0-.415-.047,1.5291,1.5291,0,0,0-.2422.017m-45.9929-.548c-.274.1119-.1609.224.1069.2739a2.72,2.72,0,0,0,1.427,0c.332-.077.332-.191-.1079-.2739a3.5605,3.5605,0,0,0-.6929-.06,4.229,4.229,0,0,0-.7331.06m-206.396-.0231c-.1079.135-.1079.1911.112.2471a1.8946,1.8946,0,0,0,.763-.1121c.2231-.1119.113-.22-.107-.2469a.6457.6457,0,0,0-.1631-.0191,1.8368,1.8368,0,0,0-.6049.131m275.196-2.111c-.0559,0-.0559.022,0,.0511a2.0368,2.0368,0,0,0,.3821.0279c.1128-.0279.1128-.0279,0-.057a1.0976,1.0976,0,0,0-.2422-.046.44.44,0,0,0-.14.024m-206.56-.466c-.388.191-.388.3821.1059.488a3.5082,3.5082,0,0,0,1.646-.218c.3872-.136.3872-.3249-.1079-.41a1.9339,1.9339,0,0,0-.438-.043,4.3834,4.3834,0,0,0-1.206.183m68.3061-.027c-.7141.218-.551.493.105.572a5.9087,5.9087,0,0,0,2.5268-.135c.657-.191.5452-.4649-.2749-.577a4.2736,4.2736,0,0,0-.8339-.074,5.1217,5.1217,0,0,0-1.523.214m-160.4021-.932v.051s.1631,0,.1631-.024c0,0,.1069-.027,0-.027Zm323.3779-.22h0m-.2749,0h.2749a2.0449,2.0449,0,0,0-.2749-.0279Zm-71.3191-.4139c-.2749.0549-.2749.168.1121.2179a3.49,3.49,0,0,0,.9819.0281c.2181-.052.2181-.1641,0-.22a5.6365,5.6365,0,0,0-.6938-.0409c-.15,0-.2881.006-.4.015m-46.1049-.135c-.438.1119-.325.303.114.381a6.6688,6.6688,0,0,0,1.695-.0281c.605-.163.493-.2689,0-.41a4.879,4.879,0,0,0-.75-.0531,4.6332,4.6332,0,0,0-1.059.11m-136.772-2c-.2759.1079-.2759.2429,0,.27a1.7131,1.7131,0,0,0,.8191-.107c.2749-.112.2749-.218,0-.2459a.7747.7747,0,0,0-.1211-.0081,2.9688,2.9688,0,0,0-.698.0911m67.9231-.302c-.4441.19-.4441.41.1069.5219a4.6608,4.6608,0,0,0,1.9761-.169c.5439-.1339.5439-.382,0-.466a4.4482,4.4482,0,0,0-.688-.049,5.9678,5.9678,0,0,0-1.395.1621m138.3618-.5221a3.0363,3.0363,0,0,0,.7122.0271c.2768-.0271.2768-.1121,0-.1341a5.0183,5.0183,0,0,0-.7122-.029c-.219,0-.219.051,0,.136m-93.14-1.588c-.543.1621-.543.353.1121.4651a5.6984,5.6984,0,0,0,2.0268-.0561c.657-.1629.657-.354,0-.495a5.0218,5.0218,0,0,0-.7258-.0439,7.1642,7.1642,0,0,0-1.4131.13m46.16-.1919c-.3879.05-.3879.1919,0,.2689a4.6612,4.6612,0,0,0,1.532.029c.4951-.051.4951-.218,0-.2979a4.7629,4.7629,0,0,0-1.532,0m71.9212-.3311c.219.028.386.028.551.057.218-.029.218-.057.1118-.086a2.5557,2.5557,0,0,0-.551-.055c-.2749.0291-.2749.055-.1118.084m-254.085-.876c-.1121.029-.1121.0561,0,.078a.4943.4943,0,0,0,.1628-.0219c.1121-.0561.1121-.083,0-.1121a.8491.8491,0,0,1-.1628.056m280.677-.113a1.0543,1.0543,0,0,0,.2749.0291s.1621,0,0-.0291a2.3394,2.3394,0,0,0-.2749-.026Zm-212.646-.437c-.332.141-.1631.276,0,.331a3.5291,3.5291,0,0,0,1.2068-.083c.3252-.107.3252-.248,0-.3029a2.2385,2.2385,0,0,0-.334-.021,5.724,5.724,0,0,0-.8728.0759m138.417-1.75c-.33.026-.33.1061-.0562.161a2.0135,2.0135,0,0,0,.9332.0281c.2739-.0281.2739-.1131,0-.14a3.4738,3.4738,0,0,0-.6561-.0611,1.7644,1.7644,0,0,0-.2209.012M421.908,48.131c-.3821.1069-.3821.2469,0,.3259a3.4285,3.4285,0,0,0,1.32-.0289c.438-.1341.438-.2461,0-.297a1.8338,1.8338,0,0,0-.6179-.0841,2.6976,2.6976,0,0,0-.7021.0841m45.885-.6061c-.5491.084-.5491.22-.106.332a6.6418,6.6418,0,0,0,1.751,0c.383-.112.383-.22,0-.332a4.2216,4.2216,0,0,0-1.645,0M353.99,46.4569c-.218.079-.218.136,0,.1641a1.7817,1.7817,0,0,0,.6579-.0281c.0562-.057.0562-.162,0-.1909a1.9345,1.9345,0,0,0-.2409-.0171,1.1742,1.1742,0,0,0-.417.072m186.2251.0291a2.1217,2.1217,0,0,0,.8179.0789c.219,0,.2739-.0789.113-.134a3.7714,3.7714,0,0,0-.77-.057c-.33,0-.33.057-.1609.1121m85.459-.578c.113,0,.2749.0279.3818.0279.113,0,.113-.0279.113-.0279a.8.8,0,0,0-.3818-.0561.2728.2728,0,0,0-.0691-.011c-.0439,0-.0439.026-.0439.0671m-58.33-.8471c-.1631,0-.1631.027-.1069.051a2.0545,2.0545,0,0,0,.551.055c.2688,0,.2688-.029.1059-.055a1.1,1.1,0,0,0-.394-.0629.9443.9443,0,0,0-.156.0119m28.512-.168a2.6054,2.6054,0,0,0,.268.0831s.1121-.0561,0-.0561c0,0-.1631-.027-.1631-.05-.1049,0-.217.023-.1049.023M399.82,43.7119c-.2762.057-.2762.141-.1121.198a1.9266,1.9266,0,0,0,.875-.057c.332-.027.332-.1119.169-.19a2.094,2.094,0,0,0-.407-.0381,1.3119,1.3119,0,0,0-.5249.087m92.8088-.077c-.333.077-.333.1631,0,.191a3.5944,3.5944,0,0,0,.9861.0561c.3259-.0561.3259-.1131.1079-.17a3.6335,3.6335,0,0,0-.793-.1,1.7953,1.7953,0,0,0-.301.023M445.811,42.73c-.4941.079-.6.1909-.1069.276a2.9943,2.9943,0,0,0,1.3709,0c.4919-.056.4919-.1681.1059-.276a3.5023,3.5023,0,0,0-.7038-.0631,2.968,2.968,0,0,0-.6661.0631m-113.7519-.4661c-.1062,0-.1062.0291,0,.0291l.1118-.0291ZM518.67,40.8109c-.2768.0551-.2768.135-.114.22a7.464,7.464,0,0,0,1.1511.026c.2749,0,.2749-.0549.0569-.1389a4.5391,4.5391,0,0,0-.9319-.1131q-.0842,0-.1621.006m86.885-1.4819a1.8581,1.8581,0,0,0,.3831.057c.0549,0,.0549,0,.0549-.0291l-.3259-.056c-.1121,0-.1121,0-.1121.0281m-59.312-.0281a4.4073,4.4073,0,0,0,.657.056c.218-.0279.218-.056.1062-.134a4.5826,4.5826,0,0,0-.657-.0289c-.1611,0-.2751.0289-.1062.1069M378.1641,39.194c-.1641.0289-.1641.1069,0,.1069a2.2705,2.2705,0,0,0,.437,0c.1118-.078.1118-.1069,0-.1069-.072,0-.1922-.0121-.2981-.0121a.6166.6166,0,0,0-.1389.0121m197.186-.4661.2739.0291c.1121,0,.1121-.0291.1121-.0291a1.8007,1.8007,0,0,0-.386-.0279c-.1082,0-.1082,0,0,.0279m-103.9351-.189c-.219.021-.219.049-.113.132a2.4732,2.4732,0,0,0,.657,0c.219-.0549.219-.111.113-.111a1.6436,1.6436,0,0,0-.374-.042,1.9253,1.9253,0,0,0-.283.021m-46.874-.58c-.1059.0279-.1059.1119,0,.1339a1.1034,1.1034,0,0,0,.438,0c.2759-.077.2759-.106.113-.1339a.89.89,0,0,0-.215-.021c-.0889,0-.198.0069-.336.021m73.572-2.547c-.113,0-.113.0549,0,.0549h.325c.113,0,.219,0,.113-.0279a1.56,1.56,0,0,0-.321-.0391.4432.4432,0,0,0-.117.0121m28.117-1.978.114.0289c.106,0,0-.0289,0-.0289h-.114v0m-75.4849-.022c-.112,0-.112.022-.112.022a.4465.4465,0,0,0,.2749,0v-.022a.3592.3592,0,0,0-.0889-.0121.1834.1834,0,0,0-.074.0121m-46.979-.2741c-.113.027,0,.027,0,.027h.1629v-.027ZM477.937,29.955l.1631.0269c.1118,0,.1118-.0269,0-.0269Z"/></clipPath><linearGradient id="b" x1="-2252.6722" y1="1455.747" x2="-2251.6721" y2="1455.747" gradientTransform="matrix(1097.866, 0, 0, -1097.866, 2473132.1785, 1598579.3704)" gradientUnits="userSpaceOnUse"><stop offset="0" stop-color="#08aeea"/><stop offset="1" stop-color="#2af598"/></linearGradient></defs><title>dot-wave-green</title><g class="b"><rect class="c" width="1098.0115" height="728.5281"/></g></svg>