<svg id="Layer_1" data-name="Layer 1" xmlns="http://www.w3.org/2000/svg" xmlns:xlink="http://www.w3.org/1999/xlink" viewBox="0 0 725.2 720.63"><defs><style>.cls-1{fill:none;}.cls-2{clip-path:url(#clip-path);}.cls-3{fill:url(#linear-gradient);}</style><clipPath id="clip-path" transform="translate(-303.66 -114.22)"><path class="cls-1" d="M724,801.77a15.24,15.24,0,0,0-9.9,5.75,16,16,0,0,0-3.37,11.31,14.93,14.93,0,0,0,5.64,10.43,15.86,15.86,0,0,0,22.33-3,14.86,14.86,0,0,0,2.64-11.55,16,16,0,0,0-6.27-10,15.26,15.26,0,0,0-9.07-3,15,15,0,0,0-2,.13m-106.16.35a18.53,18.53,0,0,0-7.39,11.36,17,17,0,0,0,2.82,13.33,18.26,18.26,0,0,0,25.73,3.8,17,17,0,0,0,6.55-11.93,18.48,18.48,0,0,0-3.78-13A17.38,17.38,0,0,0,630.49,799a16.06,16.06,0,0,0-2.49-.19,17.55,17.55,0,0,0-10.2,3.34m197.22-24a13.35,13.35,0,0,0-6.72,17.14,13.15,13.15,0,1,0,24-10.76,13.55,13.55,0,0,0-12-7.5,12.69,12.69,0,0,0-5.23,1.12m-287.44-8.47a21,21,0,0,0-11.67,9.88,19.08,19.08,0,0,0-1.28,15.34,20.74,20.74,0,0,0,26.8,12.39,19.06,19.06,0,0,0,10.85-10.9,21,21,0,0,0,0-15.3,19.62,19.62,0,0,0-10-10.79,19.09,19.09,0,0,0-8-1.75,20.58,20.58,0,0,0-6.67,1.13m151.07-15.38a17,17,0,0,0-11.8,4.9,18.24,18.24,0,0,0-5.57,12.08,16.61,16.61,0,0,0,4.64,12.57,18,18,0,0,0,25.66-.09,16.6,16.6,0,0,0,4.56-12.58,18.32,18.32,0,0,0-5.65-12,17,17,0,0,0-11.75-4.83h-.09m80.07-9.81a15.18,15.18,0,0,0-8.84,7.15,16.1,16.1,0,0,0-1.65,11.67,14.81,14.81,0,0,0,7.12,9.47A15.89,15.89,0,0,0,777,766.28a14.75,14.75,0,0,0,.77-11.81A16.08,16.08,0,0,0,770,745.6a15.6,15.6,0,0,0-7.11-1.75,14.94,14.94,0,0,0-4.21.61m-173.23-1.73a20.46,20.46,0,0,0-9.78,11.14,18.43,18.43,0,0,0,1,14.89,20.14,20.14,0,0,0,27.6,8A18.41,18.41,0,0,0,613,764.66,20.46,20.46,0,0,0,610.69,750a18.94,18.94,0,0,0-11.1-8.83,18.54,18.54,0,0,0-5.08-.71,19.33,19.33,0,0,0-9,2.26m310.8-13.36A11,11,0,0,0,895,744.55a10.85,10.85,0,1,0,16.51-14.09,11.16,11.16,0,0,0-8.23-3.63,10.7,10.7,0,0,0-7,2.54M713,721.9a11.93,11.93,0,0,0-10,12.9,11.68,11.68,0,1,0,23.15-3.15,12,12,0,0,0-11.61-9.85,10.8,10.8,0,0,0-1.5.1m-80.27.27a13.93,13.93,0,0,0-5.59,8.59,12.79,12.79,0,0,0,2.13,10.07,13.82,13.82,0,0,0,19.46,2.88,12.84,12.84,0,0,0,4.95-9,14,14,0,0,0-2.86-9.83,13,13,0,0,0-18.09-2.68M450.78,713a23.6,23.6,0,0,0-15.62,6.85,21.24,21.24,0,0,0-6.23,16,23.19,23.19,0,0,0,24.9,21.72,21.23,21.23,0,0,0,15-8.34,23.56,23.56,0,0,0,4.67-16.4,21.4,21.4,0,0,0-21.65-19.86c-.36,0-.71,0-1.07,0m382.64-.65a13.7,13.7,0,0,0-4.19,18.32,12.87,12.87,0,0,0,8.27,6.14A13.77,13.77,0,0,0,854,726.18a12.92,12.92,0,0,0-2.16-10.08,13.93,13.93,0,0,0-11.34-5.84,13,13,0,0,0-7.06,2.06M512.51,704a22.66,22.66,0,0,0-13.83,8.71A20.16,20.16,0,0,0,495,728.81a22.3,22.3,0,0,0,26.88,17,20.29,20.29,0,0,0,13-10.17,22.71,22.71,0,0,0,2-16.23,20.81,20.81,0,0,0-9-12.7,20.37,20.37,0,0,0-10.94-3.13,22.35,22.35,0,0,0-4.38.43m269.32,0a10.12,10.12,0,0,0-5.08,13,9.95,9.95,0,1,0,18.15-8.14,10.24,10.24,0,0,0-9.12-5.67,9.79,9.79,0,0,0-3.95.83m-217.34-6.39a15.85,15.85,0,0,0-8.83,7.47,14.45,14.45,0,0,0-1,11.6A15.66,15.66,0,0,0,575,726.05a14.43,14.43,0,0,0,8.21-8.23,15.89,15.89,0,0,0,0-11.58,14.82,14.82,0,0,0-7.56-8.15,14.42,14.42,0,0,0-6.06-1.33,15.25,15.25,0,0,0-5,.86M678.75,686a12.9,12.9,0,0,0-8.93,3.72,13.78,13.78,0,0,0-4.21,9.12,12.6,12.6,0,0,0,3.51,9.5,13.63,13.63,0,0,0,19.41-.06A12.58,12.58,0,0,0,692,698.8a13.86,13.86,0,0,0-4.27-9.12,12.92,12.92,0,0,0-8.91-3.65h0m60.54-7.42a12,12,0,0,0-7.93,14.24,11.2,11.2,0,0,0,5.38,7.16,12.05,12.05,0,0,0,16.4-4.89,11.16,11.16,0,0,0,.58-8.93,12.14,12.14,0,0,0-5.87-6.7,11.66,11.66,0,0,0-5.39-1.34,11.26,11.26,0,0,0-3.17.46m-131-1.31a15.47,15.47,0,0,0-7.4,8.43,13.93,13.93,0,0,0,.73,11.27,15.24,15.24,0,0,0,20.87,6,13.94,13.94,0,0,0,6.62-9.14,15.48,15.48,0,0,0-1.77-11.07,14.28,14.28,0,0,0-8.4-6.67,13.76,13.76,0,0,0-3.84-.55,14.75,14.75,0,0,0-6.81,1.71m235-10.14a8.32,8.32,0,0,0-1,11.47A8.2,8.2,0,1,0,854.77,668a8.43,8.43,0,0,0-6.22-2.75,8.12,8.12,0,0,0-5.27,1.92m-138.61-5.64a9,9,0,0,0-7.58,9.74,8.83,8.83,0,1,0,17.5-2.38,9.06,9.06,0,0,0-8.78-7.44,8.86,8.86,0,0,0-1.14.08m-64.92,6.69a10.15,10.15,0,1,0,20.08,3,10.39,10.39,0,0,0-8.59-11.27,9.51,9.51,0,0,0-1.4-.1,10.45,10.45,0,0,0-10.09,8.4m256.74-8a11.63,11.63,0,0,0,1,16,11.44,11.44,0,1,0,15-17.3,11.84,11.84,0,0,0-7.35-2.57,11.37,11.37,0,0,0-8.61,3.88m64.65-.86a8.64,8.64,0,0,0,2.35,11.79,8.55,8.55,0,1,0,9.4-14.29,8.72,8.72,0,0,0-4.6-1.31,8.51,8.51,0,0,0-7.15,3.81m-454.73-4.59a17.77,17.77,0,0,0-11.8,5.18A16,16,0,0,0,489.89,672a17.54,17.54,0,0,0,18.83,16.43,16,16,0,0,0,11.34-6.31,17.83,17.83,0,0,0,3.54-12.39,16.18,16.18,0,0,0-16.37-15c-.27,0-.54,0-.82,0m289.36-.44a10.36,10.36,0,0,0-3.17,13.85,10.16,10.16,0,1,0,17.09-11,10.58,10.58,0,0,0-8.55-4.42,9.85,9.85,0,0,0-5.37,1.57m-242.65-6.27a17.19,17.19,0,0,0-10.46,6.59,15.28,15.28,0,0,0-2.76,12.14,16.85,16.85,0,0,0,20.33,12.88A15.32,15.32,0,0,0,570,672a17.26,17.26,0,0,0,1.48-12.28,15.82,15.82,0,0,0-6.8-9.6,15.47,15.47,0,0,0-8.29-2.37,16.71,16.71,0,0,0-3.3.33M756.74,648a7.67,7.67,0,0,0-3.85,9.82,7.53,7.53,0,1,0,13.73-6.16,7.76,7.76,0,0,0-6.9-4.29,7.42,7.42,0,0,0-3,.63m-320,3.23a22,22,0,0,0-8.86,15.68,24.47,24.47,0,0,0,23.06,26.27,22,22,0,0,0,16.69-6.76,24.94,24.94,0,0,0,7-16.45A22.22,22.22,0,0,0,454,646.43c-.77-.07-1.55-.1-2.32-.1a24.87,24.87,0,0,0-14.9,4.88m155.67-8.06a11.93,11.93,0,0,0-6.68,5.65,10.89,10.89,0,0,0-.72,8.77,11.84,11.84,0,0,0,15.31,7.09,11,11,0,0,0,6.21-6.24,12.06,12.06,0,0,0,0-8.75,11.3,11.3,0,0,0-5.71-6.17,11,11,0,0,0-4.59-1,11.56,11.56,0,0,0-3.81.65m-217.54-3.62a23.24,23.24,0,0,0-11.61,15A25.64,25.64,0,0,0,383,685.3a23.23,23.23,0,0,0,18.44-4.3,26.09,26.09,0,0,0,9.92-16,23.52,23.52,0,0,0-17.86-27.86,27,27,0,0,0-6.31-.76,25.79,25.79,0,0,0-12.34,3.12m428.35-19.41a6.28,6.28,0,0,0-.76,8.68,6.2,6.2,0,1,0,9.44-8,6.4,6.4,0,0,0-4.71-2.08,6.08,6.08,0,0,0-4,1.45m40.25-5.21a8.79,8.79,0,0,0,.77,12.09,8.64,8.64,0,1,0,11.3-13.08A8.94,8.94,0,0,0,850,612a8.61,8.61,0,0,0-6.52,2.93m48.86-.69a6.52,6.52,0,0,0,1.78,8.91,6.47,6.47,0,1,0,7.11-10.81,6.65,6.65,0,0,0-3.49-1,6.44,6.44,0,0,0-5.4,2.89m-343.84-3.48a13.46,13.46,0,0,0-8.92,3.92A12.08,12.08,0,0,0,536,623.8a13.23,13.23,0,0,0,14.23,12.42,12.11,12.11,0,0,0,8.57-4.76,13.51,13.51,0,0,0,2.68-9.38,12.5,12.5,0,0,0-4.17-8.35,12.37,12.37,0,0,0-8.21-3h-.62m-52.66-2.64a16.61,16.61,0,0,0-6.7,11.86,18.5,18.5,0,0,0,17.44,19.87,16.63,16.63,0,0,0,12.62-5.12,18.88,18.88,0,0,0,5.27-12.43,17.38,17.38,0,0,0-17.38-17.87,18.85,18.85,0,0,0-11.25,3.69M449,599.23a17.62,17.62,0,0,0-8.78,11.3,19.38,19.38,0,0,0,14.94,23.3,17.56,17.56,0,0,0,13.94-3.25,19.75,19.75,0,0,0,7.51-12.07,17.8,17.8,0,0,0-13.51-21.07,20.42,20.42,0,0,0-4.77-.57,19.42,19.42,0,0,0-9.33,2.36m493.61-7.29a9.56,9.56,0,0,0,4.54,12.44A9.44,9.44,0,1,0,955,587.21a9.88,9.88,0,0,0-3.73-.74,9.48,9.48,0,0,0-8.65,5.47M840.28,580.08a4.92,4.92,0,0,0,1.35,6.74,4.88,4.88,0,1,0,5.37-8.16,5,5,0,0,0-2.63-.75,4.87,4.87,0,0,0-4.09,2.17m-445.17-5.64A23.77,23.77,0,0,0,381.05,588a26.61,26.61,0,0,0,16.08,34.5,23.77,23.77,0,0,0,19.45-2,27.25,27.25,0,0,0,12.2-15.06,24.07,24.07,0,0,0-14.3-30.67,27.87,27.87,0,0,0-10.2-1.95,26.6,26.6,0,0,0-9.17,1.62M1004,573.39a6.28,6.28,0,0,0,4.1,7.78,6.25,6.25,0,1,0,3.65-12A6.65,6.65,0,0,0,1010,569a6.26,6.26,0,0,0-6,4.42m-498.92-4.64a13.3,13.3,0,0,0-6.64,8.56,14.68,14.68,0,0,0,11.29,17.62,13.32,13.32,0,0,0,10.55-2.47,14.9,14.9,0,0,0,5.67-9.13,13.44,13.44,0,0,0-10.21-15.92,15,15,0,0,0-3.61-.44,14.76,14.76,0,0,0-7.05,1.78m373.27-5.46a7.24,7.24,0,0,0,3.43,9.41,7.14,7.14,0,1,0,5.93-13,7.47,7.47,0,0,0-2.83-.56,7.17,7.17,0,0,0-6.53,4.14m-414-13.23a18,18,0,0,0-10.64,10.27,20.12,20.12,0,0,0,12.17,26.09,17.93,17.93,0,0,0,14.7-1.54,20.59,20.59,0,0,0,9.23-11.38A18.19,18.19,0,0,0,479,550.31a21,21,0,0,0-7.71-1.48,20.13,20.13,0,0,0-6.94,1.23m460.37-.85a4.77,4.77,0,0,0,3.11,5.89,4.72,4.72,0,1,0,2.75-9,4.5,4.5,0,0,0-1.31-.18,4.76,4.76,0,0,0-4.55,3.33m-584.51-3.93a25.32,25.32,0,0,0-16.86,12,28.12,28.12,0,0,0,11.27,38.59A25.26,25.26,0,0,0,355.31,597a28.67,28.67,0,0,0,15.25-13.76,25.58,25.58,0,0,0-10.08-34.54,29.08,29.08,0,0,0-14.58-4,28.54,28.54,0,0,0-5.69.58m524.57-14.35a3.62,3.62,0,0,0,2.36,4.46,3.57,3.57,0,1,0,2.08-6.84,3.45,3.45,0,0,0-1-.14,3.6,3.6,0,0,0-3.44,2.52m-442-3a19.14,19.14,0,0,0-12.75,9.1,21.28,21.28,0,0,0,8.52,29.18,19.14,19.14,0,0,0,15.64.81,21.75,21.75,0,0,0,11.54-10.41,19.35,19.35,0,0,0-7.63-26.12,21.94,21.94,0,0,0-11-3,21.21,21.21,0,0,0-4.3.44m62.46-13.1a14.49,14.49,0,0,0-9.65,6.89,16.09,16.09,0,0,0,6.45,22.06,14.49,14.49,0,0,0,11.83.61,16.41,16.41,0,0,0,8.72-7.87,14.6,14.6,0,0,0-5.77-19.74,16.31,16.31,0,0,0-11.58-1.95M968,512.93a7.51,7.51,0,0,0,6.19,8.42,7.44,7.44,0,1,0,2.15-14.72,6.79,6.79,0,0,0-.9-.05,7.49,7.49,0,0,0-7.44,6.35m-70.46-9.39a5.67,5.67,0,0,0,4.67,6.37,5.63,5.63,0,1,0,1.64-11.13c-.23,0-.46,0-.69,0a5.65,5.65,0,0,0-5.62,4.8m-518.75-7.06a22,22,0,0,0-15.91,8.44,24.48,24.48,0,0,0,5.3,34.56,22,22,0,0,0,17.71,3.28,24.91,24.91,0,0,0,14.72-10.12,22.23,22.23,0,0,0-4.74-30.92,25,25,0,0,0-15.31-5.3q-.88,0-1.77.06M452,491.06a16.59,16.59,0,0,0-12,6.38,18.49,18.49,0,0,0,4,26.13,16.6,16.6,0,0,0,13.39,2.48,18.85,18.85,0,0,0,11.13-7.64A16.8,16.8,0,0,0,464.89,495a18.94,18.94,0,0,0-11.58-4c-.44,0-.88,0-1.33.05M874.48,472a2.28,2.28,0,0,0,2.23,2.29,2.26,2.26,0,1,0-2.23-2.29m66.08-2.23a3,3,0,1,0,3,3,3,3,0,0,0-3-3h0m84.38,0a4,4,0,1,0,3.93,4v-.1a3.94,3.94,0,0,0-3.93-3.89h0m-555.3-8a17.51,17.51,0,0,0,0,25A15.63,15.63,0,0,0,481.8,491a17.9,17.9,0,0,0,11.45-5.58,15.83,15.83,0,0,0,0-22.25,17.92,17.92,0,0,0-11.45-5.58c-.48,0-.95-.06-1.42-.06a15.54,15.54,0,0,0-10.74,4.25m-67.5-4a23.13,23.13,0,0,0,0,33.1,20.67,20.67,0,0,0,16.08,5.54A23.75,23.75,0,0,0,433.37,489a20.93,20.93,0,0,0,0-29.42,23.81,23.81,0,0,0-15.15-7.39c-.63-.05-1.24-.08-1.86-.08a20.55,20.55,0,0,0-14.22,5.63m-89.27-5.34a30.62,30.62,0,0,0,0,43.78,27.35,27.35,0,0,0,21.26,7.33,31.36,31.36,0,0,0,20-9.77,27.66,27.66,0,0,0,0-38.91,31.35,31.35,0,0,0-20-9.76c-.82-.07-1.64-.11-2.45-.11a27.24,27.24,0,0,0-18.81,7.44m589.77-16.61a4.12,4.12,0,0,0,1.16,8.15,4.12,4.12,0,0,0-.51-8.2,4.87,4.87,0,0,0-.65.05m-458.7-5a16.87,16.87,0,0,0-3.21,23.86,15.29,15.29,0,0,0,11.07,5.68,17.14,17.14,0,0,0,11.78-3.78,15.47,15.47,0,0,0,2.9-21.56,17.17,17.17,0,0,0-10.36-6.76,16.17,16.17,0,0,0-3.23-.33,15.18,15.18,0,0,0-8.95,2.89m530.81-7.44a5.44,5.44,0,0,0,1.53,10.77,5.44,5.44,0,0,0-.67-10.84,6.36,6.36,0,0,0-.86.07M867.14,413.12a3.58,3.58,0,0,0,2.08,6.85,3.59,3.59,0,0,0-1-7,3.69,3.69,0,0,0-1.08.17m-499,3.57a22.28,22.28,0,0,0-4.25,31.54,20.24,20.24,0,0,0,14.65,7.52,22.67,22.67,0,0,0,15.57-5A20.47,20.47,0,0,0,398,422.23a22.69,22.69,0,0,0-13.69-8.93,20.8,20.8,0,0,0-4.27-.45,20.1,20.1,0,0,0-11.84,3.84m113.91-12a16.11,16.11,0,0,0-6.45,22.08,14.49,14.49,0,0,0,9.65,6.87,16.41,16.41,0,0,0,11.58-1.94A14.61,14.61,0,0,0,502.62,412a16.43,16.43,0,0,0-8.72-7.86,14.8,14.8,0,0,0-5.27-1,14.42,14.42,0,0,0-6.56,1.58m445.76-11.29a4.73,4.73,0,0,0,2.75,9,4.74,4.74,0,0,0-1.31-9.28,4.81,4.81,0,0,0-1.44.23M418.58,382.27a21.3,21.3,0,0,0-8.52,29.19,19.14,19.14,0,0,0,12.75,9.1A21.71,21.71,0,0,0,438.13,418a19.35,19.35,0,0,0,7.63-26.12,21.74,21.74,0,0,0-11.54-10.4,19.53,19.53,0,0,0-7-1.3,19.09,19.09,0,0,0-8.68,2.1m465.54-6.76a2.59,2.59,0,1,0,1.09-.24,2.61,2.61,0,0,0-1.09.24m-418-7.51a15.24,15.24,0,0,0-8.8,19.86,14,14,0,0,0,8.16,7.8,15.49,15.49,0,0,0,11.21-.26,14.1,14.1,0,0,0,8-18.13,15.47,15.47,0,0,0-7.35-8.47,14.07,14.07,0,0,0-6.53-1.63,13.84,13.84,0,0,0-4.72.83m542-.66a6.25,6.25,0,0,0,3.65,12A6.26,6.26,0,0,0,1010,367a6,6,0,0,0-1.91.3m-166.47-5.65a4.89,4.89,0,0,0,5.37,8.17,4.91,4.91,0,0,0-2.64-9,4.74,4.74,0,0,0-2.73.86m-331.9-8.1a14.67,14.67,0,0,0-11.29,17.62,13.3,13.3,0,0,0,6.64,8.56,14.92,14.92,0,0,0,10.66,1.34A13.45,13.45,0,0,0,526,365.18a14.93,14.93,0,0,0-5.67-9.13,13.42,13.42,0,0,0-8-2.7,13.26,13.26,0,0,0-2.51.24m-175.11-1a28.14,28.14,0,0,0-11.27,38.6,25.28,25.28,0,0,0,16.86,12,28.8,28.8,0,0,0,20.27-3.38,25.59,25.59,0,0,0,10.08-34.55,28.66,28.66,0,0,0-15.25-13.75,25.71,25.71,0,0,0-9.21-1.72,25.12,25.12,0,0,0-11.48,2.78m615.63-9a3.44,3.44,0,0,0,2.84,6.27,3.45,3.45,0,0,0-1.4-6.59,3.54,3.54,0,0,0-1.44.32m-552.82-9.87A20.13,20.13,0,0,0,385.79,360a18.38,18.38,0,0,0,10.79,10.32A20.47,20.47,0,0,0,411.4,370,18.64,18.64,0,0,0,422,346a20.5,20.5,0,0,0-9.72-11.21,18.68,18.68,0,0,0-8.66-2.15,18.39,18.39,0,0,0-6.22,1.09m496.67-8.34a6.47,6.47,0,0,0,7.11,10.8,6.41,6.41,0,0,0,1.92-9,6.5,6.5,0,0,0-5.42-2.94,6.27,6.27,0,0,0-3.61,1.14m-48.73-6.32a4.11,4.11,0,0,0,5.5,6.12,4.08,4.08,0,0,0,.34-5.83,4.14,4.14,0,0,0-3.07-1.38,4.08,4.08,0,0,0-2.77,1.09m-42.92.65a6.2,6.2,0,0,0,9.44,8,6.13,6.13,0,0,0-.63-8.82,6.28,6.28,0,0,0-4.07-1.52,6,6,0,0,0-4.74,2.29m-347.28-5A19.38,19.38,0,0,0,440.23,338,17.61,17.61,0,0,0,449,349.29a19.73,19.73,0,0,0,14.1,1.78A17.79,17.79,0,0,0,476.62,330a19.75,19.75,0,0,0-7.51-12.07,17.54,17.54,0,0,0-13.94-3.25m49.28-.66a13.62,13.62,0,0,0-12.52,14.83,12.56,12.56,0,0,0,5,8.79,13.74,13.74,0,0,0,9.7,2.64,12.7,12.7,0,0,0,11.53-13.65A13.86,13.86,0,0,0,514,317.5a12.59,12.59,0,0,0-8.7-3.5l-.81,0m36.06,1.5a13,13,0,0,0-4.51,9.19,12.09,12.09,0,0,0,3.56,9.15,13.4,13.4,0,0,0,8.92,3.91,12.25,12.25,0,0,0,13-11.33,13.5,13.5,0,0,0-2.68-9.38,12.16,12.16,0,0,0-8.57-4.77c-.38,0-.75-.05-1.13-.05a13.07,13.07,0,0,0-8.59,3.28m212.38-24.8a7.52,7.52,0,0,0,13.73,6.15,7.42,7.42,0,0,0-3.73-10.07,7.71,7.71,0,0,0-3.15-.68,7.32,7.32,0,0,0-6.85,4.6M591.16,284.2a11.63,11.63,0,0,0-6.16,6.74,10.91,10.91,0,0,0,.72,8.78,12,12,0,0,0,6.67,5.65,11,11,0,0,0,14.11-6.53,12,12,0,0,0,0-8.75,10.94,10.94,0,0,0-6.21-6.23,11.27,11.27,0,0,0-4.13-.78,11.92,11.92,0,0,0-5,1.12m372.33-6.83a8.56,8.56,0,0,0,9.4,14.3,8.56,8.56,0,1,0-9.4-14.3m-169.7.48a5.63,5.63,0,0,0,9.58,5.91,5.57,5.57,0,0,0-1.8-7.79,5.67,5.67,0,0,0-3-.86,5.53,5.53,0,0,0-4.79,2.74M547,274.73a11.83,11.83,0,0,0-5.17,7.7,11.21,11.21,0,0,0,2,8.72,11.93,11.93,0,0,0,16,3.07,11.44,11.44,0,0,0,4.84-7.11,12.16,12.16,0,0,0-1.36-8.81,11.19,11.19,0,0,0-7.22-5.3,11.69,11.69,0,0,0-2.51-.27,11.91,11.91,0,0,0-6.6,2m150.11,2.52a8.83,8.83,0,0,0,17.5,2.39,8.69,8.69,0,0,0-7.53-10.15,9.15,9.15,0,0,0-1.27-.09,8.64,8.64,0,0,0-8.7,7.85m-48.82-8.72a10,10,0,0,0-8.52,11.78,10.15,10.15,0,0,0,20.07-3,9.88,9.88,0,0,0-10-8.93,10.64,10.64,0,0,0-1.59.12m250.78.49a5.44,5.44,0,0,0,7.27,8.1,5.45,5.45,0,0,0-3.61-9.53,5.33,5.33,0,0,0-3.66,1.43m-56.77.86a8.21,8.21,0,0,0,12.49,10.65,8.12,8.12,0,0,0-.83-11.67,8.29,8.29,0,0,0-5.38-2,8,8,0,0,0-6.28,3M383,263.21A25.65,25.65,0,0,0,363.25,294a23.29,23.29,0,0,0,11.61,15,26.09,26.09,0,0,0,18.65,2.35,23.52,23.52,0,0,0,17.86-27.86,26.12,26.12,0,0,0-9.92-16,23.25,23.25,0,0,0-18.44-4.3m65.18-.86A18,18,0,0,0,431.62,282a16.64,16.64,0,0,0,6.65,11.63,18.3,18.3,0,0,0,12.83,3.49A16.77,16.77,0,0,0,466.35,279,18.29,18.29,0,0,0,460.76,267a16.63,16.63,0,0,0-11.51-4.63c-.35,0-.71,0-1.06,0m47.68,2a17.25,17.25,0,0,0-6,12.15,16,16,0,0,0,4.72,12.09,17.78,17.78,0,0,0,11.8,5.19,16.2,16.2,0,0,0,17.19-15,17.85,17.85,0,0,0-3.54-12.4,16,16,0,0,0-11.34-6.3c-.5-.05-1-.07-1.5-.07a17.26,17.26,0,0,0-11.35,4.34m236.69-11.17a7.13,7.13,0,0,0,13.75,3.8,7,7,0,0,0-4.94-8.88,7.41,7.41,0,0,0-2-.27,7,7,0,0,0-6.85,5.35m-123.83-6a10,10,0,0,0-6.63,12.93,10.16,10.16,0,0,0,19.41-6,9.89,9.89,0,0,0-9.66-7.39,10.38,10.38,0,0,0-3.12.48m66.61-9.09a8.53,8.53,0,0,0-8.52,8.94,8.65,8.65,0,0,0,17.29-.26,8.51,8.51,0,0,0-8.61-8.68h-.16m101.41-6.55a9.95,9.95,0,0,0,18.15,8.14A9.79,9.79,0,0,0,790,226.36a10.11,10.11,0,0,0-4.18-.91,9.69,9.69,0,0,0-9,6.08M562.87,222.9a15.43,15.43,0,0,0-8.18,8.93,14.49,14.49,0,0,0,1,11.6,15.89,15.89,0,0,0,8.83,7.47,14.63,14.63,0,0,0,18.66-8.62,15.9,15.9,0,0,0,0-11.58,14.47,14.47,0,0,0-8.21-8.24,14.86,14.86,0,0,0-5.48-1,15.67,15.67,0,0,0-6.61,1.47m268-8.38a7.44,7.44,0,0,0,12.66,7.81,7.44,7.44,0,1,0-12.66-7.81m-326.41-4.13a15.58,15.58,0,0,0-6.84,10.17,14.77,14.77,0,0,0,2.67,11.54,16.08,16.08,0,0,0,10,6.23,14.92,14.92,0,0,0,17.56-11.58A16.06,16.06,0,0,0,526,215.11a14.79,14.79,0,0,0-9.56-7,15.28,15.28,0,0,0-3.32-.36,15.83,15.83,0,0,0-8.72,2.65m198.51,3.32a11.69,11.69,0,0,0,23.15,3.16,11.48,11.48,0,0,0-10-13.41,11.94,11.94,0,0,0-1.67-.12,11.44,11.44,0,0,0-11.52,10.37m-64.56-11.53a13.6,13.6,0,0,0-9.13,5.5,12.81,12.81,0,0,0-2.13,10.08,14,14,0,0,0,5.59,8.59,13,13,0,0,0,18.09-2.68,14,14,0,0,0,2.86-9.83,12.87,12.87,0,0,0-4.95-9,13.51,13.51,0,0,0-8.25-2.78,13.34,13.34,0,0,0-2.08.16M895,204a10.85,10.85,0,0,0,16.51,14.08,10.73,10.73,0,0,0-1.1-15.43,10.94,10.94,0,0,0-7.11-2.64,10.52,10.52,0,0,0-8.3,4m-458.14-7.35a22.77,22.77,0,0,0-7.9,16.08,21.22,21.22,0,0,0,6.23,16,23.61,23.61,0,0,0,15.62,6.86,21.44,21.44,0,0,0,22.72-19.84,23.57,23.57,0,0,0-4.67-16.4,21.18,21.18,0,0,0-15-8.33c-.65-.06-1.3-.09-2-.09a22.9,22.9,0,0,0-15,5.73m313-14.77a9.44,9.44,0,0,0,18.19,5,9.32,9.32,0,0,0-6.53-11.75,9.74,9.74,0,0,0-2.6-.35,9.26,9.26,0,0,0-9.06,7.07m-163.76-7.92a13.63,13.63,0,0,0-8.15,6.81,13,13,0,0,0-.61,10.29,13.71,13.71,0,0,0,16.73,8.57,13.2,13.2,0,0,0,7.66-6.35A13.89,13.89,0,0,0,603,183.07a13,13,0,0,0-6.33-8.14,13.41,13.41,0,0,0-6.43-1.63,13.88,13.88,0,0,0-4.14.63m88.09-12a11.26,11.26,0,0,0-11.26,11.82,11.43,11.43,0,0,0,22.86-.34,11.26,11.26,0,0,0-11.39-11.49h-.21m134.12-8.66a13.15,13.15,0,0,0,24,10.76,13,13,0,0,0-6.51-17.61,13.51,13.51,0,0,0-5.52-1.2,12.8,12.8,0,0,0-12,8.05M525.44,141.84a20.39,20.39,0,0,0-10.81,11.8A19.08,19.08,0,0,0,515.91,169a21,21,0,0,0,11.67,9.89,19.32,19.32,0,0,0,24.68-11.41,21,21,0,0,0,0-15.3,19,19,0,0,0-10.85-10.91,19.78,19.78,0,0,0-7.24-1.36,20.82,20.82,0,0,0-8.75,2m190.89-22.58a14.91,14.91,0,0,0-5.64,10.43A16,16,0,0,0,714.06,141a15,15,0,0,0,21,2.85,16,16,0,0,0,6.27-10,14.87,14.87,0,0,0-2.64-11.55,15.66,15.66,0,0,0-10.53-6.18,16.38,16.38,0,0,0-2.2-.15,15.53,15.53,0,0,0-9.6,3.29m-91-4.83a18,18,0,0,0-12.06,7.27A17,17,0,0,0,610.41,135a18.5,18.5,0,0,0,7.39,11.36,17.17,17.17,0,0,0,23.93-3.54,18.46,18.46,0,0,0,3.78-13A17,17,0,0,0,639,117.9,17.85,17.85,0,0,0,628,114.22a18.39,18.39,0,0,0-2.75.21"/></clipPath><linearGradient id="linear-gradient" x1="-2258.83" y1="1880.39" x2="-2257.83" y2="1880.39" gradientTransform="matrix(725.2, 0, 0, -725.2, 1638114.79, 1364022.05)" gradientUnits="userSpaceOnUse"><stop offset="0" stop-color="#fa8bff"/><stop offset="0.5" stop-color="#2bd2ff"/><stop offset="1" stop-color="#2bff88"/></linearGradient></defs><title>dot-sacred</title><g class="cls-2"><rect class="cls-3" width="725.2" height="720.63"/></g></svg>