<svg xmlns="http://www.w3.org/2000/svg" xmlns:xlink="http://www.w3.org/1999/xlink" viewBox="0 0 846 773"><defs><style>.a{fill:none;}.b{clip-path:url(#a);}.c{fill:url(#b);}</style><clipPath id="a" transform="translate(-251)"><path class="a" d="M803.1058,741.46a10.4839,10.4839,0,0,0-9.703,10.867,10.3654,10.3654,0,1,0,20.688-1.3049,10.4873,10.4873,0,0,0-10.346-9.5821c-.212,0-.425.0059-.639.02m-68.445,8.8211a11.7058,11.7058,0,1,0,23.337,1.835,11.8516,11.8516,0,0,0-10.76-12.4222q-.447-.0343-.891-.0349a11.8761,11.8761,0,0,0-11.686,10.6221m124.195-14.9822a9.1094,9.1094,0,0,0-7.022,10.5681,9.0207,9.0207,0,1,0,17.664-3.665,9.1373,9.1373,0,0,0-8.845-7.0859,8.8963,8.8963,0,0,0-1.797.1828m-182.023,4.426a13.05,13.05,0,1,0,25.461,5.7281,13.2474,13.2474,0,0,0-9.914-15.3921,12.7167,12.7167,0,0,0-2.782-.3079,13.3078,13.3078,0,0,0-12.765,9.9719m236.531-18.436a7.7421,7.7421,0,0,0-4.648,9.761,7.6831,7.6831,0,1,0,14.4521-5.219,7.78,7.78,0,0,0-7.23-4.9959,7.519,7.519,0,0,0-2.574.4539m-292.203-.447a14.3931,14.3931,0,1,0,26.891,10.259,14.6182,14.6182,0,0,0-8.406-18.3359,14.012,14.012,0,0,0-4.982-.9141,14.78,14.78,0,0,0-13.503,8.991m344.336-21.23a6.3827,6.3827,0,0,0-2.641,8.5271,6.3364,6.3364,0,1,0,11.1871-5.9531,6.4178,6.4178,0,0,0-5.6061-3.3069,6.2432,6.2432,0,0,0-2.94.7329m-165.226-5.926a5.537,5.537,0,0,0-5.148,5.8061,5.5069,5.5069,0,1,0,10.991-.7041,5.5492,5.5492,0,0,0-5.493-5.113c-.116,0-.232.0041-.35.011m-56.251,4.562a6.6771,6.6771,0,1,0,13.313,1.04,6.7266,6.7266,0,0,0-6.141-7.1089c-.173-.0141-.346-.021-.517-.021a6.7344,6.7344,0,0,0-6.655,6.09m105.211-10.0149a4.3461,4.3461,0,1,0,.882-.0911,4.2963,4.2963,0,0,0-.882.0911M568.8488,694.03a15.7336,15.7336,0,1,0,27.492,15.2971,16,16,0,0,0-6.242-21.1321,15.3926,15.3926,0,0,0-7.466-1.9189,16.228,16.228,0,0,0-13.784,7.7539m124.789-4.429a7.847,7.847,0,1,0,15.312,3.437,7.9224,7.9224,0,0,0-5.961-9.2878,7.6339,7.6339,0,0,0-1.684-.188,7.9639,7.9639,0,0,0-7.667,6.0388m203.461-13.72a3.1712,3.1712,0,1,0,1.075-.1909,3.1372,3.1372,0,0,0-1.075.1909m117.077-5.2419a5.0119,5.0119,0,1,0,2.9321-.96,4.9323,4.9323,0,0,0-2.9321.96m-369.109,3.0559a9.01,9.01,0,1,0,16.836,6.418,9.1028,9.1028,0,0,0-5.25-11.52,8.8313,8.8313,0,0,0-3.15-.58,9.1693,9.1693,0,0,0-8.436,5.6819m297.82-16.884a2.0033,2.0033,0,1,0,.937-.2368,1.9705,1.9705,0,0,0-.937.2368m-410.483-3.1089a17.6517,17.6517,0,0,0-11.453,6.2471,16.4393,16.4393,0,0,0-3.696,12.5659,17.4971,17.4971,0,0,0,19.813,15.02,16.4706,16.4706,0,0,0,11.093-6.958,17.6193,17.6193,0,0,0,2.922-12.7109,16.7769,16.7769,0,0,0-6.421-10.93,16.6019,16.6019,0,0,0-10.109-3.365,17.8173,17.8173,0,0,0-2.149.1311m264.874-1.969a1.7489,1.7489,0,0,0-1.633,1.852,1.7424,1.7424,0,1,0,3.478-.2189,1.7491,1.7491,0,0,0-1.737-1.636c-.036,0-.072.0009-.108.0029M751.2,652.898a2.7587,2.7587,0,1,0,5.5.437,2.7779,2.7779,0,0,0-2.538-2.9609c-.068-.0051-.136-.008-.203-.008a2.7693,2.7693,0,0,0-2.759,2.5319m-151.867-2.04a10.1815,10.1815,0,1,0,17.797,9.8911,10.3145,10.3145,0,0,0-4.023-13.7192,10.0294,10.0294,0,0,0-4.855-1.2469,10.4176,10.4176,0,0,0-8.919,5.075m107.992-5.0891a3.7768,3.7768,0,1,0,7.368,1.6641,3.7936,3.7936,0,0,0-2.86-4.4959,3.66,3.66,0,0,0-.827-.0952,3.822,3.822,0,0,0-3.681,2.927m351.039-10.8909a3.6626,3.6626,0,1,0,2.548-1.0381,3.6467,3.6467,0,0,0-2.548,1.0381m-393.398-2.574a4.79,4.79,0,1,0,8.952,3.4129,4.8282,4.8282,0,0,0-2.772-6.148,4.7535,4.7535,0,0,0-1.691-.312,4.8493,4.8493,0,0,0-4.489,3.0471M557.38,621.659a11.3467,11.3467,0,1,0,18.094,13.6919,11.5033,11.5033,0,0,0-2.305-15.75,11.1486,11.1486,0,0,0-6.752-2.248,11.659,11.659,0,0,0-9.037,4.3061m-77.125-.3349a15.7363,15.7363,0,1,0,22.153,22.3469,16.0084,16.0084,0,0,0-.122-22.0349,15.5455,15.5455,0,0,0-11.076-4.5511,16.3125,16.3125,0,0,0-10.955,4.2391m144.766-8.521a5.807,5.807,0,1,0,10.147,5.6489,5.8628,5.8628,0,0,0-2.272-7.8521,5.7618,5.7618,0,0,0-2.79-.7209,5.894,5.894,0,0,0-5.085,2.9241m57.054-16.6211a1.53,1.53,0,1,0,1.424-.968,1.517,1.517,0,0,0-1.424.968m415.085-3.1211a2.3223,2.3223,0,1,0,1.829-.896,2.3144,2.3144,0,0,0-1.829.896m-508.842-5.335a6.822,6.822,0,1,0,10.867,8.249,6.8806,6.8806,0,0,0-1.352-9.4958,6.7349,6.7349,0,0,0-4.083-1.365,6.9539,6.9539,0,0,0-5.432,2.6118m-68.267-.989a12.5137,12.5137,0,1,0,17.626,17.7622,12.7081,12.7081,0,0,0-.086-17.5391,12.4281,12.4281,0,0,0-8.824-3.622,12.8938,12.8938,0,0,0-8.716,3.3989m127.133-7.1789a2.402,2.402,0,1,0,3.258-.918,2.3512,2.3512,0,0,0-1.158-.303,2.4247,2.4247,0,0,0-2.1,1.221m-201.866-2.129a14.3925,14.3925,0,1,0,17.144,23.117,14.6249,14.6249,0,0,0,2.785-19.981,14.3364,14.3364,0,0,0-11.55-5.7219,14.8876,14.8876,0,0,0-8.379,2.5859m169.75-19.3791a3.2837,3.2837,0,1,0,4.586-.606,3.2284,3.2284,0,0,0-1.971-.667,3.3268,3.3268,0,0,0-2.615,1.273m-59.446-.4338a7.8369,7.8369,0,1,0,11.016,11.1479,7.916,7.916,0,0,0,0-11.0149,7.8034,7.8034,0,0,0-5.549-2.2932,8.0033,8.0033,0,0,0-5.467,2.16m-67.414-10.8631a13.6835,13.6835,0,1,0,16.305,21.9729,13.93,13.93,0,0,0,2.618-18.9848,13.6225,13.6225,0,0,0-10.974-5.4241,14.2141,14.2141,0,0,0-7.949,2.436m98.188-14.613a4.1627,4.1627,0,1,0,5.851,5.9221,4.1908,4.1908,0,0,0,.015-5.8682,4.1387,4.1387,0,0,0-2.95-1.2229,4.2141,4.2141,0,0,0-2.916,1.169m-169.547-3.0591a13.0487,13.0487,0,1,0,12.39,22.9651,13.2277,13.2277,0,0,0,5.102-17.5779,13.0618,13.0618,0,0,0-11.534-6.7781,13.4991,13.4991,0,0,0-5.958,1.3909m110.765-5.981a8.8528,8.8528,0,1,0,10.547,14.219,8.9565,8.9565,0,0,0,1.735-12.3039,8.8231,8.8231,0,0,0-7.108-3.534,9.0861,9.0861,0,0,0-5.174,1.6189m85.594-13.0659a1.3219,1.3219,0,1,0,1.868.012,1.3093,1.3093,0,0,0-.936-.39,1.3356,1.3356,0,0,0-.932.3779m-51.453-7.68a5.0507,5.0507,0,1,0,6.016,8.114,5.0512,5.0512,0,0,0-6.016-8.114m-99.207.1919a14.8492,14.8492,0,1,0,14.109,26.125,15.1228,15.1228,0,0,0,5.731-19.969,14.8617,14.8617,0,0,0-13.14-7.68,15.5207,15.5207,0,0,0-6.7,1.5239m128.957-18.176a2.0876,2.0876,0,1,0,2.484,3.3559,2.0877,2.0877,0,0,0-2.484-3.3559m-86.582.5119a9.8671,9.8671,0,1,0,9.375,17.3621,10.0033,10.0033,0,0,0,3.855-13.292,9.8884,9.8884,0,0,0-8.725-5.124,10.18,10.18,0,0,0-4.505,1.0539M395.38,477.2491a11.7066,11.7066,0,1,0,8.078,21.9729,11.6759,11.6759,0,0,0-4.284-22.5849,12.1184,12.1184,0,0,0-3.794.612m146.328-7.9382a5.931,5.931,0,1,0,5.633,10.4382,5.9166,5.9166,0,0,0-2.89-11.0972,6.0683,6.0683,0,0,0-2.743.659M444.3008,457.3a13.6813,13.6813,0,1,0,9.454,25.6721,13.6309,13.6309,0,0,0-5.122-26.3459,14.3432,14.3432,0,0,0-4.332.6738m129.454-1.4649a2.871,2.871,0,1,0,1.336-.3281,2.8475,2.8475,0,0,0-1.336.3281m-85.712-12.0739a10.8811,10.8811,0,1,0,7.501,20.4248,10.8422,10.8422,0,0,0-4.043-20.9668,11.3263,11.3263,0,0,0-3.458.542M526.7,433.6939a6.815,6.815,0,1,0,4.688,12.7972,6.7993,6.7993,0,0,0-2.473-13.157,7.03,7.03,0,0,0-2.215.36m33.664-8.688a3.6231,3.6231,0,1,0,2.5,6.8011,3.6173,3.6173,0,0,0-1.288-7.0049,3.7316,3.7316,0,0,0-1.212.2038m-179.085-2.0649a10.3645,10.3645,0,1,0,4.335,20.269,10.3493,10.3493,0,0,0-2.404-20.445,10.7947,10.7947,0,0,0-1.931.176m51.21-12.977a12.5162,12.5162,0,1,0,5.243,24.4731,12.4915,12.4915,0,0,0-3.028-24.6621,13.1732,13.1732,0,0,0-2.215.189m44.86-9.347a11.8973,11.8973,0,1,0,4.938,23.272,11.8722,11.8722,0,0,0-2.899-23.439,12.5347,12.5347,0,0,0-2.039.167m39.702-4.352a7.6985,7.6985,0,1,0,3.187,15.062,7.6856,7.6856,0,0,0-1.798-15.1831,8.0321,8.0321,0,0,0-1.389.1211m34.555-3.711a4.3914,4.3914,0,1,0,1.829,8.59,4.3863,4.3863,0,0,0-.987-8.669,4.5766,4.5766,0,0,0-.842.0791m-176.804-25.3449a8.9237,8.9237,0,0,0-8.5,8.9338v.0662c.001.208.008.416.023.6259a8.9332,8.9332,0,0,0,9.719,8.3709,9.017,9.017,0,0,0-.838-18.0049c-.134,0-.269.0029-.404.0081m52.508-5.7571a11.3471,11.3471,0,1,0,1.571,22.637,11.343,11.343,0,0,0-1.19-22.6431c-.127,0-.253.0022-.381.0061m120.343-2.2739a5.1585,5.1585,0,1,0,.696,10.2929,5.1567,5.1567,0,0,0-.475-10.2971c-.073,0-.147.001-.221.0042m-34.735-1.3431a8.58,8.58,0,1,0,1.158,17.118,8.5768,8.5768,0,0,0-.889-17.1221c-.09-.001-.179.001-.269.0041m-39.913-1.4531A12.9119,12.9119,0,1,0,474.76,382.14a12.9079,12.9079,0,0,0-1.497-25.76c-.086,0-.171,0-.258.0019M542.13,331.05a5.87,5.87,0,0,0,5.546,6.3511,5.9267,5.9267,0,0,0,.876-11.82,5.8309,5.8309,0,0,0-6.422,5.469m-38.102-3.1128a9.3393,9.3393,0,0,0,8.915,10.1438,9.4629,9.4629,0,0,0,1.398-18.8709,9.2166,9.2166,0,0,0-1.057-.062,9.3658,9.3658,0,0,0-9.256,8.7891m-42.18-2.9651a11.7177,11.7177,0,0,0,11.228,12.749,11.895,11.895,0,0,0,1.741-23.7219,11.3745,11.3745,0,0,0-1.374-.083,11.7532,11.7532,0,0,0-11.595,11.0559m-44.015-2.8789a10.0629,10.0629,0,0,0,9.559,10.9019,10.18,10.18,0,0,0,1.472-20.305,9.8759,9.8759,0,0,0-1.056-.0571,10.0781,10.0781,0,0,0-9.975,9.46m-50.062-3.8821a7.6273,7.6273,0,0,0,7.18,8.221,7.6787,7.6787,0,0,0,1.117-15.3159c-.245-.023-.487-.0352-.728-.0352a7.6363,7.6363,0,0,0-7.569,7.13m178.453-20.657a6.6174,6.6174,0,0,0,5.203,7.9881,6.695,6.695,0,0,0,2.866-13.0781,6.5,6.5,0,0,0-1.602-.201,6.662,6.662,0,0,0-6.467,5.291m-37.391-8.519a10.1916,10.1916,0,0,0,8.078,12.3711,10.3445,10.3445,0,0,0,4.453-20.2,9.8911,9.8911,0,0,0-2.583-.344,10.2686,10.2686,0,0,0-9.948,8.1731m-39.484-8.5129a10.7328,10.7328,0,0,0,8.484,13.009,10.8845,10.8845,0,0,0,4.672-21.2581,10.42,10.42,0,0,0-2.676-.35,10.8091,10.8091,0,0,0-10.48,8.5992m-43.024-9.0511a8.9359,8.9359,0,0,0,6.993,10.7549,9.0136,9.0136,0,0,0,3.85-17.61,8.77,8.77,0,0,0-2.134-.2652,8.9712,8.9712,0,0,0-8.709,7.12m128.735-6.6049a7.3668,7.3668,0,0,0,4.483,9.6408,7.4617,7.4617,0,0,0,5.235-13.9729,7.1624,7.1624,0,0,0-2.777-.56,7.44,7.44,0,0,0-6.941,4.8921M377.4888,260.57a6.3019,6.3019,0,0,0,4.883,7.55,6.3363,6.3363,0,0,0,2.711-12.3789,6.2167,6.2167,0,0,0-1.448-.1712,6.3181,6.3181,0,0,0-6.146,5m141.696-9.4768a11.0448,11.0448,0,0,0,6.773,14.5508,11.2271,11.2271,0,0,0,7.914-21.0078,10.6751,10.6751,0,0,0-4.272-.8931,11.19,11.19,0,0,0-10.415,7.35m-36.11-13.352a9.7477,9.7477,0,0,0,5.922,12.7658,9.8695,9.8695,0,0,0,6.937-18.477,9.4858,9.4858,0,0,0-3.683-.7449,9.8362,9.8362,0,0,0-9.176,6.4561m85.437-4.0782a8.1158,8.1158,0,0,0,3.392,11.242,8.2278,8.2278,0,0,0,7.906-14.429,7.8666,7.8666,0,0,0-4.088-1.1409,8.2413,8.2413,0,0,0-7.21,4.3279m-126.605-10.93a7.7666,7.7666,0,0,0,4.676,10.126,7.8444,7.8444,0,0,0,5.508-14.689,7.6416,7.6416,0,0,0-2.876-.563,7.8262,7.8262,0,0,0-7.308,5.126m94.52-6.968a10.1947,10.1947,0,0,0,4.258,14.1489,10.3488,10.3488,0,0,0,9.969-18.134,9.89,9.89,0,0,0-5.169-1.4529,10.3386,10.3386,0,0,0-9.058,5.438m-141.156-10.6919a4.9654,4.9654,0,0,0,2.953,6.4409,4.9924,4.9924,0,0,0,3.5-9.3511,4.9149,4.9149,0,0,0-1.795-.3408,4.9857,4.9857,0,0,0-4.658,3.251m191.07-.457a8.8663,8.8663,0,0,0,1.93,12.7028,8.9981,8.9981,0,0,0,10.805-14.3869,8.6318,8.6318,0,0,0-5.516-1.9761,8.9946,8.9946,0,0,0-7.219,3.66m-83.644-7.1331a8.7594,8.7594,0,0,0,3.613,12.0859,8.8519,8.8519,0,0,0,8.523-15.5149,8.5444,8.5444,0,0,0-4.384-1.207,8.85,8.85,0,0,0-7.752,4.636M939.88,183.3661a1.3174,1.3174,0,1,0,1.8741,1.852,1.3084,1.3084,0,0,0-.0071-1.863,1.3314,1.3314,0,0,0-.934-.3831,1.2923,1.2923,0,0,0-.933.3941m-381.454-.023a9.3436,9.3436,0,0,0,2.017,13.3518,9.4653,9.4653,0,0,0,11.374-15.1289,9.1093,9.1093,0,0,0-5.791-2.062,9.4942,9.4942,0,0,0-7.6,3.8391m49.736-5.0281a9.6141,9.6141,0,0,0,.148,13.9529,9.763,9.763,0,0,0,13.804-13.8039,9.3548,9.3548,0,0,0-6.97-3.075,9.8664,9.8664,0,0,0-6.982,2.926m-143.947-1.4489a6.6281,6.6281,0,0,0,2.704,9.0969,6.6763,6.6763,0,0,0,6.422-11.7061,6.5288,6.5288,0,0,0-3.273-.8779,6.6752,6.6752,0,0,0-5.853,3.4871m450.001-15.2112a2.0888,2.0888,0,0,0,3.352,2.4931,2.0888,2.0888,0,1,0-3.352-2.4931m-386.469-1.1089a7.7652,7.7652,0,0,0,1.641,11.0349,7.8375,7.8375,0,0,0,9.406-12.5378,7.5935,7.5935,0,0,0-4.758-1.6641,7.8536,7.8536,0,0,0-6.289,3.167m106.711-4.054a8.8651,8.8651,0,0,0-1.68,12.7339,8.9967,8.9967,0,0,0,14.383-10.8059,8.6716,8.6716,0,0,0-7.21-3.78,9.1385,9.1385,0,0,0-5.493,1.852m-49.757-2.0471a8.4672,8.4672,0,0,0,.092,12.2261,8.5775,8.5775,0,0,0,12.133-12.125,8.2738,8.2738,0,0,0-6.107-2.6589,8.64,8.64,0,0,0-6.118,2.5578m-163.989-1.5788a3.651,3.651,0,1,0,4.972-1.4371,3.5823,3.5823,0,0,0-1.771-.467,3.65,3.65,0,0,0-3.201,1.9041m464.965-8.9612a2.856,2.856,0,1,0,3.883-1.168,2.9159,2.9159,0,0,0-1.369-.345,2.8291,2.8291,0,0,0-2.514,1.513m-222.164-5.242a8.1163,8.1163,0,0,0-3.195,11.3011,8.2316,8.2316,0,0,0,14.437-7.907,8.0126,8.0126,0,0,0-7.214-4.438,8.355,8.355,0,0,0-4.028,1.0439M492.7,134.78a5.4758,5.4758,0,0,0,1.149,7.7341,5.5085,5.5085,0,0,0,6.601-8.82,5.4132,5.4132,0,0,0-3.328-1.1408A5.513,5.513,0,0,0,492.7,134.78m362.148-4.2659a3.6231,3.6231,0,0,0,6.798,2.5081,3.5985,3.5985,0,0,0-2.133-4.68,3.6822,3.6822,0,0,0-1.265-.2258,3.5939,3.5939,0,0,0-3.4,2.3979M614.7,129.62a7.6054,7.6054,0,0,0-1.484,10.863,7.6973,7.6973,0,0,0,12.321-9.2271,7.5118,7.5118,0,0,0-6.183-3.2038A7.7127,7.7127,0,0,0,614.7,129.62m-57.038-1.9959a6.7465,6.7465,0,0,0,.046,9.6948,6.82,6.82,0,0,0,9.648-9.64,6.65,6.65,0,0,0-4.85-2.081,6.8167,6.8167,0,0,0-4.844,2.0261m137.046-2.41a7.361,7.361,0,0,0-4.327,9.715,7.4612,7.4612,0,0,0,13.975-5.227,7.3138,7.3138,0,0,0-6.969-4.979,7.6226,7.6226,0,0,0-2.679.491m127.695-3.449a4.3889,4.3889,0,0,0,8.585,1.8281,4.3525,4.3525,0,0,0-3.374-5.2461,4.4318,4.4318,0,0,0-.937-.1,4.3352,4.3352,0,0,0-4.274,3.5181m-95.007-5.3909a6.63,6.63,0,0,0-5.086,8.07,6.6943,6.6943,0,0,0,13.078-2.86,6.5971,6.5971,0,0,0-6.525-5.3692,6.855,6.855,0,0,0-1.467.1592m61.624,1.43a5.1614,5.1614,0,0,0,10.298.7029,5.1073,5.1073,0,0,0-4.79-5.5549c-.124-.009-.248-.0129-.371-.0129a5.1133,5.1133,0,0,0-5.137,4.8649m-28.124-5.5241a5.873,5.873,0,0,0-5.469,6.4231,5.9272,5.9272,0,0,0,11.821-.876,5.8564,5.8564,0,0,0-5.9-5.563c-.15,0-.3.0049-.452.0159m-113.094-2.9138a6.7406,6.7406,0,0,0-2.664,9.32,6.8141,6.8141,0,0,0,11.96-6.531,6.6845,6.6845,0,0,0-5.981-3.6428,6.9015,6.9015,0,0,0-3.315.854m-194.606-4.4092a2.3011,2.3011,0,1,0,1.848-.928,2.3061,2.3061,0,0,0-1.848.928M591.81,99.339a5.7515,5.7515,0,0,0-1.125,8.1669,5.802,5.802,0,0,0,9.281-6.9648,5.69,5.69,0,0,0-4.648-2.38,5.8331,5.8331,0,0,0-3.508,1.178m277.257-.5281a1.5153,1.5153,0,0,0,2.844,1.0471,1.5012,1.5012,0,0,0-.898-1.9451,1.507,1.507,0,0,0-1.946.898M526.7,97.221a4.342,4.342,0,1,0,6.164.012,4.2736,4.2736,0,0,0-3.077-1.2959A4.3522,4.3522,0,0,0,526.7,97.221m156.657-3.136a5.8749,5.8749,0,0,0-3.461,7.6949,5.9294,5.9294,0,0,0,11.109-4.148,5.841,5.841,0,0,0-5.542-3.93,6.0211,6.0211,0,0,0-2.106.383m148.515-5.7929a2.4015,2.4015,0,1,0,2.852-1.855,2.4069,2.4069,0,0,0-2.852,1.855M720.5988,84.077a5.0182,5.0182,0,0,0-3.861,6.0539,5.0537,5.0537,0,0,0,9.876-2.1479,5,5,0,0,0-4.918-4.0261,5.0978,5.0978,0,0,0-1.097.12m72.945-.7581a3.2811,3.2811,0,0,0,6.547.4451,3.2522,3.2522,0,0,0-3.048-3.5149c-.082-.0061-.165-.009-.247-.009a3.2609,3.2609,0,0,0-3.252,3.0788m-34.797-3.8549a4.1435,4.1435,0,0,0-3.851,4.488,4.167,4.167,0,0,0,8.312-.6021,4.1328,4.1328,0,0,0-4.145-3.8979c-.104,0-.21.0039-.316.012m-129.242-3.2071a4.7524,4.7524,0,0,0-1.882,6.531,4.787,4.787,0,0,0,8.398-4.5969,4.72,4.72,0,0,0-4.198-2.5339,4.7879,4.7879,0,0,0-2.318.6m-63.937-11.282a3.1647,3.1647,0,1,0,1.908-.6389,3.1654,3.1654,0,0,0-1.908.6389m104.406-6.144a3.7795,3.7795,0,1,0,1.328-.2378,3.8512,3.8512,0,0,0-1.328.2378m42.406-11.41a2.7578,2.7578,0,0,0,1.171,5.39,2.7766,2.7766,0,0,0,2.118-3.273,2.74,2.74,0,0,0-2.688-2.1819,2.82,2.82,0,0,0-.601.065m43.446-5.27a1.7621,1.7621,0,1,0,.131-.0039c-.044,0-.087.0009-.131.0039m-147.329-3.4561a2.0075,2.0075,0,1,0,.966-.2458,2.0084,2.0084,0,0,0-.966.2458"/></clipPath><linearGradient id="b" x1="-2248.5946" y1="1454.1776" x2="-2247.4435" y2="1454.1776" gradientTransform="matrix(734.9991, 0, 0, -734.9991, 1652714.9382, 1069205.729)" gradientUnits="userSpaceOnUse"><stop offset="0" stop-color="#b721ff"/><stop offset="0.0013" stop-color="#b721ff"/><stop offset="1" stop-color="#21d4fd"/></linearGradient></defs><title>dot-circle</title><g class="b"><rect class="c" width="846" height="773"/></g></svg>