<svg xmlns="http://www.w3.org/2000/svg" xmlns:xlink="http://www.w3.org/1999/xlink" viewBox="0 0 961.69 538.87"><defs><style>.a{fill:none;}.b{clip-path:url(#a);}.c{fill:url(#b);}</style><clipPath id="a" transform="translate(-170.62 -121)"><path class="a" d="M766.11,656.9c-1,.49-1.09,1.48-.15,2.18a3.83,3.83,0,0,0,3.71.2,1.18,1.18,0,0,0,.16-2.18,4.49,4.49,0,0,0-2.17-.56,3.25,3.25,0,0,0-1.55.36m-426.92-8.52a.8.8,0,0,0-.74,1,.95.95,0,0,0,1.83-.4.8.8,0,0,0-.85-.62l-.24,0M421.62,629a2,2,0,0,0-1.73,2.57,2.7,2.7,0,0,0,3.27,1.39,2,2,0,0,0,1.74-2.57,2.69,2.69,0,0,0-2.56-1.47,3.53,3.53,0,0,0-.72.08m417.31-11c-.79.5-.79,1.19.05,1.79a3.49,3.49,0,0,0,3.12,0c.89-.4.79-1.29-.05-1.79a3.46,3.46,0,0,0-1.6-.37,3,3,0,0,0-1.52.37m-336.71-9c-1,.29-1.39,1.09-1,1.78a2.32,2.32,0,0,0,2.53.79c1-.3,1.44-1,1-1.78a2.13,2.13,0,0,0-1.87-.85,3.23,3.23,0,0,0-.61.06m200.38-.3c-1,.4-1.24,1.29-.49,2a3.66,3.66,0,0,0,3.36.4c1-.5,1.19-1.39.4-2a3.21,3.21,0,0,0-2-.63,3.18,3.18,0,0,0-1.26.23m-446.68-18a1.34,1.34,0,0,0-1.34,1.18.91.91,0,0,0,1.14,1,1.36,1.36,0,0,0,1.29-1.18.87.87,0,0,0-.9-1l-.19,0M579,586.26c-1.08.29-1.43,1.19-.94,1.88a2.79,2.79,0,0,0,2.93.69c1-.29,1.43-1.18.84-1.88a2.62,2.62,0,0,0-2-.81,2.81,2.81,0,0,0-.82.12m-250-6a2,2,0,0,0-1.89,2,1.8,1.8,0,0,0,2.19,1.48,2.13,2.13,0,0,0,1.93-2.08,1.82,1.82,0,0,0-1.85-1.42l-.38,0m573.94-.49c-.69.49-.59,1.19.25,1.59a3,3,0,0,0,2.92-.11c.74-.39.65-1.09-.24-1.58a3.46,3.46,0,0,0-1.33-.25,3.6,3.6,0,0,0-1.6.35m-129.59-2.38a.84.84,0,0,0-.14,1.59,3.15,3.15,0,0,0,2.82.19c.84-.39.89-1.09.19-1.58a2.7,2.7,0,0,0-2.87-.2m-371.58-10.8c-2,.4-3.32,2-2.92,3.57s2.38,2.67,4.41,2.28,3.36-2.08,2.87-3.67a3.44,3.44,0,0,0-3.48-2.26,4.43,4.43,0,0,0-.88.08m248.18-5.85c-2.27.8-2.87,2.68-1.43,4.07a6.79,6.79,0,0,0,6.78,1.18c2.23-.79,2.88-2.57,1.39-4.05a6.39,6.39,0,0,0-4.45-1.52,8.17,8.17,0,0,0-2.29.32M472.5,549.3c-3.91.79-6.09,3.87-4.91,6.84s5.5,4.66,9.51,3.76,6.1-4.06,4.76-6.93c-1.05-2.35-4-3.91-7.22-3.91a9.75,9.75,0,0,0-2.14.24M837,545.84c-.75.39-.7,1,0,1.48a3.12,3.12,0,0,0,2.67,0c.74-.4.74-1.09,0-1.39a2.65,2.65,0,0,0-1.44-.38,2.75,2.75,0,0,0-1.28.29m-119.74-10c-2.13.79-2.52,2.47-.93,3.76a7.17,7.17,0,0,0,6.68.79c2.08-.79,2.48-2.47.84-3.76a7.17,7.17,0,0,0-4.16-1.2,6.93,6.93,0,0,0-2.43.41m-174.12-1.09c-2.28.59-3.42,2.38-2.43,4s3.77,2.48,6.1,1.88,3.37-2.37,2.33-4.06a5.24,5.24,0,0,0-4.4-2,6.16,6.16,0,0,0-1.6.2m-342.85-3.17c-.1.39.1.59.44.59a.91.91,0,0,0,.9-.69.47.47,0,0,0-.45-.69,1.28,1.28,0,0,0-.89.79m63.21-5.85a3.44,3.44,0,0,0-3,2.68,1.91,1.91,0,0,0,2.19,2.27,3.32,3.32,0,0,0,3.07-2.67,1.92,1.92,0,0,0-2-2.28h-.2M327,519.58a3.5,3.5,0,0,0-3.27,3.17,2.63,2.63,0,0,0,3.12,2.48c1.83-.3,3.32-1.69,3.32-3.17a2.56,2.56,0,0,0-2.76-2.5l-.41,0m281.52-5c-3.76,1.09-5.3,4-3.22,6.45s6.79,3.76,10.65,2.57,5.2-4.06,3.12-6.64c-1.52-1.74-4.42-2.84-7.37-2.84a11,11,0,0,0-3.18.46m170.76-4.16c-1.84.8-2,2.28-.45,3.37a7,7,0,0,0,6.14.4c1.84-.79,2-2.28.4-3.27a6.94,6.94,0,0,0-6.09-.5M391,509.37c-3.27.5-5.7,3-5.35,5.65s3.27,4.36,6.59,4,5.69-3.08,5.3-5.75c-.35-2.29-2.73-3.95-5.47-3.95a7.82,7.82,0,0,0-1.07.08m616.25-1.58c-.25.3-.15.49.25.69a1.31,1.31,0,0,0,1.23-.2c.31-.19.15-.49-.24-.59a2.35,2.35,0,0,0-.54-.06,1.39,1.39,0,0,0-.7.16m-552.74-9.51c-4,.59-6.54,3.66-5.7,6.74s4.95,5.05,9,4.26,6.58-3.87,5.59-6.84c-.8-2.63-3.81-4.31-7.18-4.31a10.2,10.2,0,0,0-1.73.15m218.16-2.08c-2.72.89-3.62,3-1.83,4.65s5.45,2.38,8.17,1.49,3.52-3.07,1.74-4.75a8.1,8.1,0,0,0-5.38-1.8,8.62,8.62,0,0,0-2.7.41m-155.3-9.81c-3.92.7-6.09,3.67-4.85,6.44s5.59,4.46,9.56,3.66,6.09-3.86,4.75-6.64c-1.12-2.24-4.1-3.71-7.25-3.71a9.79,9.79,0,0,0-2.21.25m319.37-.79c-.84.39-.89,1.19,0,1.68a4.1,4.1,0,0,0,3.22.1c.89-.49.89-1.29,0-1.68a3.62,3.62,0,0,0-1.71-.39,4.05,4.05,0,0,0-1.56.29m107.4-.8c-.25.2-.2.5.15.6a1.6,1.6,0,0,0,1.18,0c.3-.2.21-.5-.14-.69a1.23,1.23,0,0,0-.35,0,2.89,2.89,0,0,0-.84.14m-212.42-9.11c-2.63,1-3.27,3-1.29,4.56s5.7,2,8.33,1.09,3.17-3.08,1.18-4.66a8.78,8.78,0,0,0-5.16-1.46,9.44,9.44,0,0,0-3.06.47m316.2-1.39c-.2.2,0,.3.2.5a1.33,1.33,0,0,0,.89-.2c.15-.1,0-.3-.25-.39a1,1,0,0,0-.38-.07.66.66,0,0,0-.46.16m-469.37-1.48c-3.66,1-5.45,3.66-3.86,6.14s6,3.76,9.71,2.87,5.44-3.66,3.76-6.14c-1.28-1.94-4.21-3.16-7.19-3.16a9.89,9.89,0,0,0-2.42.29m-407.85-.9c-.09.1-.05.2,0,.2s.2,0,.25-.1,0-.19-.05-.19a.41.41,0,0,0-.2.09M220,473.21c-.39,1.09,0,1.88,1,1.88a3,3,0,0,0,2.48-1.78c.4-1,0-1.88-1-1.88a3,3,0,0,0-2.43,1.78m56.48-5.15a6.59,6.59,0,0,0-5.7,4.56,3.13,3.13,0,0,0,3.37,4.16,6.4,6.4,0,0,0,5.7-4.56,3.1,3.1,0,0,0-3.18-4.16h-.19m55.24-4c-3.37.19-6.4,2.77-6.84,5.74s2,5.25,5.39,5,6.45-2.88,6.79-5.85c.33-2.79-1.75-4.88-4.75-4.88a5.83,5.83,0,0,0-.59,0m555.27-4.26c-1,.49-.9,1.28.19,1.88a4.47,4.47,0,0,0,3.57-.1c.94-.5.84-1.29-.15-1.78a4.34,4.34,0,0,0-1.83-.37,4,4,0,0,0-1.78.37m-249.58-2c-3.57,1-5,3.56-3.07,5.84s6.29,3.27,9.91,2.28,4.8-3.66,2.87-5.85c-1.39-1.68-4.13-2.66-6.86-2.66a10.43,10.43,0,0,0-2.85.39m350.18-2.18c-.2.1-.15.29.15.39a1.27,1.27,0,0,0,.85-.1c.14-.1.09-.29-.2-.39a1,1,0,0,0-.35-.07.63.63,0,0,0-.45.17m-599.7-.2c-5.95.49-10.85,5-10.95,10s5,8.72,11.2,8,11-5.35,10.75-10.3c-.23-4.58-4.39-7.8-9.67-7.8a12.1,12.1,0,0,0-1.33.07m399.87.1c-1.54.59-1.74,1.78-.45,2.77a6.53,6.53,0,0,0,5.1.4c1.54-.7,1.69-1.88.45-2.78a6.32,6.32,0,0,0-3.08-.74,5.39,5.39,0,0,0-2,.35m-343.55-5.95c-5.45.8-9.46,4.86-8.87,9.12s5.8,7.23,11.45,6.44,9.51-4.95,8.67-9.22c-.76-3.74-4.84-6.44-9.62-6.44a12.85,12.85,0,0,0-1.63.1m637.56-6.93c-.11.2,0,.29.24.39a.64.64,0,0,0,.74-.19c.2-.1.06-.2-.19-.3a.82.82,0,0,0-.26,0,1.22,1.22,0,0,0-.53.14m-388.08-.5c-2.93.89-3.87,3.07-2,4.86s5.69,2.38,8.67,1.48,3.76-3.07,1.88-4.85a9,9,0,0,0-5.78-1.88,9.45,9.45,0,0,0-2.74.39m-193.3-1c-5.55.89-9.22,5-8,9,1.24,4.26,7,6.84,12.84,5.74s9.16-5.05,7.72-9.21c-1.24-3.42-5.53-5.73-10.28-5.73a15,15,0,0,0-2.3.18m431.57-6.34c-.69.4-.54,1.09.3,1.39a3.49,3.49,0,0,0,2.82-.1c.74-.4.6-1-.29-1.39a4.22,4.22,0,0,0-1.36-.21,3.13,3.13,0,0,0-1.47.31m-94.66-.79c-1.54.69-1.69,2-.15,2.87a7.05,7.05,0,0,0,5.69.2c1.64-.7,1.69-2,.15-2.88a7.08,7.08,0,0,0-3.11-.66,6.78,6.78,0,0,0-2.58.47M555.87,431.7c-5.2,1-8.17,4.75-6.49,8.32s7.58,5.75,13,4.66,8-4.86,6.19-8.52c-1.5-2.84-5.56-4.75-9.83-4.75a13.72,13.72,0,0,0-2.85.29m468.68-4.06c-.15.09,0,.29.19.39a.93.93,0,0,0,.75-.1c.15-.09,0-.29-.2-.39a.59.59,0,0,0-.23,0,1,1,0,0,0-.51.14M746,425.16c-2.73,1-3.37,3-1.44,4.56s5.8,2.08,8.57,1.09,3.27-3,1.34-4.56a10.51,10.51,0,0,0-8.47-1.09m-136.18-4.85c-5.1,1.08-7.63,4.75-5.45,8.12s8.32,5.25,13.57,4,7.53-4.95,5.21-8.32c-1.84-2.5-5.86-4.13-10-4.13a15,15,0,0,0-3.33.37m-367.67,1.88c-.84,1.49-.25,2.78,1.19,2.87a5,5,0,0,0,4-2.67c.79-1.59.2-2.88-1.24-2.88h-.17a4.66,4.66,0,0,0-3.79,2.68m-41.76-2.68c-.3.5-.2.89.2.89s.89-.29,1.18-.69.2-.89-.19-.89a1.68,1.68,0,0,0-1.19.69m85.6,3.67c-1.09,2.67.35,5.05,3.22,5.05a8.13,8.13,0,0,0,7-5.15c1-2.68-.44-4.95-3.22-4.95a8,8,0,0,0-7,5.05m55.38-7.83c-4.16.1-8.37,3.27-9.36,7.13s1.68,6.94,6,6.64c4.31-.1,8.47-3.36,9.32-7.23.81-3.64-1.67-6.55-5.61-6.55h-.39m768.24-2.28c-.06.2,0,.2.14.3s.4,0,.45-.1,0-.2-.15-.3a.64.64,0,0,0-.44.1m-226.49.1c-1,.5-1,1.29.1,1.88a4.47,4.47,0,0,0,3.91,0c1-.49,1-1.29-.15-1.88a5.13,5.13,0,0,0-2.05-.41,3.77,3.77,0,0,0-1.81.41m87.93-2.67c-.6.39-.4,1,.4,1.29a3.41,3.41,0,0,0,2.62-.2c.64-.5.45-1-.4-1.29a3,3,0,0,0-1.07-.17,3,3,0,0,0-1.55.37M391,409.8c-6.24.4-12,5.06-12.78,10.51s4.16,9.61,10.75,9.11,12.24-5.35,12.58-10.8c.38-5.1-3.83-8.84-9.67-8.85l-.88,0m271.32-1.38c-4.36,1.19-6.15,4.26-3.86,7s7.77,4,12.23,2.77,6-4.35,3.71-7c-1.8-1.95-5.3-3.16-8.79-3.16a13.35,13.35,0,0,0-3.29.39m131.92-1c-2.82,1-3.27,3.17-1,4.66s6.44,1.89,9.26.8,3.17-3.17.84-4.66a10.6,10.6,0,0,0-5.52-1.41,9.84,9.84,0,0,0-3.59.61m-353.45-1.88c-6.69.6-12.24,5.35-12.19,10.8s5.94,9.42,12.93,8.63,12.28-5.85,11.89-11.21c-.36-4.82-5.12-8.3-11-8.3-.52,0-1,0-1.59.08m615.16-4.36c-.06,0,0,.11.19.2a.65.65,0,0,0,.4-.09c.1-.11,0-.21-.15-.21a.28.28,0,0,0-.13,0,.61.61,0,0,0-.31.14M490.78,399.6c-6.93.89-12.14,5.85-11.35,11.2s7.68,8.91,15,7.92,12.14-6.24,11-11.39c-1.07-4.65-6.45-7.84-12.62-7.84a17.67,17.67,0,0,0-2,.11m221-4.65c-4.11,1.18-5.55,4.15-3,6.63s8,3.47,12.24,2.18,5.4-4.26,2.77-6.64c-1.83-1.69-5-2.68-8.24-2.68a13.6,13.6,0,0,0-3.79.51m-170.86-1.69c-6.49,1-10.7,5.55-9.27,10.2s8.28,7.63,15.07,6.44,10.6-5.84,8.91-10.4c-1.49-3.85-6.53-6.44-12-6.44a17.11,17.11,0,0,0-2.66.2m382.43-1.19c-.89.5-.79,1.29.3,1.78a4.53,4.53,0,0,0,3.62-.1c.94-.49.79-1.29-.25-1.78a4.47,4.47,0,0,0-1.72-.33,4.38,4.38,0,0,0-1.95.43m-83.42-1.78c-1.83.79-2,2.17-.3,3.17a8,8,0,0,0,6.39.29c1.83-.79,1.89-2.27.2-3.17a6.88,6.88,0,0,0-3.45-.82,7.22,7.22,0,0,0-2.84.53M1005.18,387c-.5.39-.25.79.39,1a2.71,2.71,0,0,0,2-.2c.39-.4.25-.79-.45-1a2.61,2.61,0,0,0-.75-.1,2,2,0,0,0-1.18.3M1132,385.53c-.06,0,0,.1.1.1a.21.21,0,0,0,.2-.1h0a.18.18,0,0,1-.12-.1.35.35,0,0,0-.19.1m-541.85-.69c-6.54,1.19-10.3,5.65-8.22,10.11s9.41,6.93,16.2,5.64,10.1-5.94,7.77-10.3c-1.89-3.46-7-5.75-12.42-5.75a17.86,17.86,0,0,0-3.33.3m168-4.26c-4.06,1.28-5.15,4.26-2.32,6.63s8.56,3.08,12.73,1.69,5-4.36,2.08-6.64a13.5,13.5,0,0,0-8-2.32,15.06,15.06,0,0,0-4.45.64M1082,376c0,.1,0,.1,0,.1h.2s0-.1,0-.1Zm-443.36.2c-5.55,1.19-8.37,5-6.09,8.62s9,5.45,14.76,4.16,8.22-5.15,5.74-8.72c-1.95-2.74-6.36-4.43-10.86-4.43a16.91,16.91,0,0,0-3.55.37m-334.83,3c-1.58,3.17-.2,5.94,3.08,6s7.18-2.48,8.61-5.74.1-5.85-3.07-5.95h-.19c-3.13,0-6.87,2.45-8.43,5.65m-38-2.18c-1.29,2.18-.74,4.06,1.29,4.16s4.6-1.48,5.89-3.66.69-3.87-1.29-4.07h-.33a7.27,7.27,0,0,0-5.56,3.58m-34.78-3.37c-.3.5-.24.89.15,1a1.77,1.77,0,0,0,1.29-.79c.34-.4.25-.89-.1-.89a2.31,2.31,0,0,0-1.34.69m649.19-1.38c-1.68.79-1.68,2.18,0,3.06a8.08,8.08,0,0,0,6.29,0c1.69-.69,1.64-2.08-.09-3a7.22,7.22,0,0,0-3.22-.68,7.44,7.44,0,0,0-3,.59m78.33-.9c-.9.6-.7,1.39.49,1.79a4.62,4.62,0,0,0,3.81-.2c.9-.5.7-1.39-.49-1.79a5.64,5.64,0,0,0-1.68-.24,4.58,4.58,0,0,0-2.13.44m-617,8.62c-2.08,5.45,1.19,9.91,7.24,9.81s12.23-4.56,14-9.91-1.49-9.51-7.18-9.61a16.11,16.11,0,0,0-14,9.71m57.27-11.88c-6.84.29-13.77,5.25-15.31,11.39s3.17,11,10.5,10.7,14-5.65,15.11-11.7-3.32-10.4-10.07-10.4h-.23m403.83-1.39c-3,1.09-3.52,3.17-1.19,4.75s6.69,2.08,9.66,1,3.37-3.27,1-4.85a11.59,11.59,0,0,0-9.46-.89m-359.84-.9c-7.24.4-13.92,5.55-14.67,11.6s5.11,10.79,12.88,10.2,14.17-6,14.37-12c.24-5.69-4.84-9.83-11.65-9.83l-.93,0M685,365.72c-5.36,1.28-7.68,4.95-5,8.22s9.52,4.85,15,3.47,7.44-5.15,4.61-8.33c-2.1-2.39-6.35-3.83-10.59-3.83a16.81,16.81,0,0,0-4,.47m349.24-1.1c-.3.2-.1.5.4.6a1.33,1.33,0,0,0,1.38-.2c.3-.2.1-.5-.4-.59a1.45,1.45,0,0,0-.54-.11,1.19,1.19,0,0,0-.84.3m-546.65-2.47c-7.58.69-13.82,6-13.72,11.89s6.88,10.3,15,9.41,13.87-6.44,13.27-12.18c-.51-5.37-6.15-9.18-13-9.18-.48,0-1,0-1.48.06m45-4.16c-7.24.89-12.63,5.74-11.74,11.09s8,9.12,15.65,8,12.58-6.25,11.3-11.39c-1.16-4.61-6.63-7.87-13-7.87a17.36,17.36,0,0,0-2.26.14m383.92-3.57c-1.59.8-1.44,2.08.34,2.88a8.06,8.06,0,0,0,6.09-.11c1.59-.79,1.39-2.08-.44-2.87a7,7,0,0,0-2.85-.55,7.3,7.3,0,0,0-3.14.65m-187.41-.1c-5.15,1.39-7,4.95-4,7.93s9.91,4.26,15.21,2.77,6.74-5.15,3.57-8c-2.24-2.06-6.21-3.26-10.17-3.26a18,18,0,0,0-4.6.58m-151.68-2.27c-7.18,1.08-11.94,5.94-10.4,10.89,1.58,5.16,9.16,8.33,16.69,7s11.84-6.25,9.86-11.2c-1.64-4.14-7.25-6.93-13.38-6.93a20,20,0,0,0-2.77.2m412.6-.4c-.5.29-.3.89.5,1.19a3.79,3.79,0,0,0,2.57-.3c.55-.4.35-.89-.49-1.19a3.87,3.87,0,0,0-.92-.1,3.12,3.12,0,0,0-1.66.4m-147.27,0c-2.63,1.09-2.93,3.07-.65,4.45a11.62,11.62,0,0,0,9.12.5c2.62-1,2.82-3,.44-4.36a10.28,10.28,0,0,0-5.14-1.21,10.73,10.73,0,0,0-3.77.62M621.76,345.7c-6.4,1.19-10.16,5.45-8.23,9.71s9.32,6.84,16,5.55,10.06-5.74,7.78-9.91c-1.9-3.39-7-5.61-12.37-5.61a18.86,18.86,0,0,0-3.18.26m436.87-2.48c-.2.2-.05.4.3.5a1.26,1.26,0,0,0,.89-.2c.15-.19,0-.39-.35-.39a1.07,1.07,0,0,0-.38-.07.6.6,0,0,0-.46.16m-286.92-.09c-4,1.29-5.1,4.06-2.48,6.24s8.22,3.07,12.29,1.68,4.9-4.06,2.12-6.24a13.48,13.48,0,0,0-7.88-2.24,14.16,14.16,0,0,0-4,.56M664.8,337.67c-6.19,1.29-9.46,5.46-7,9.32s10,6.14,16.45,4.76,9.26-5.75,6.49-9.62c-2.14-2.92-7.09-4.84-12.15-4.84a19.46,19.46,0,0,0-3.81.38m284.55-.49c-1.09.6-.84,1.59.5,2.08a5.77,5.77,0,0,0,4.3-.2c1.09-.59.84-1.58-.49-2.08a5.6,5.6,0,0,0-1.92-.31,5.06,5.06,0,0,0-2.39.51m-70.15-.69c-2.38,1.09-2.42,2.87-.14,4.06a10.8,10.8,0,0,0,8.42.2c2.33-1,2.33-2.78,0-4a10.83,10.83,0,0,0-8.28-.3m-555,3.47c-2.08,3.37-1,6.34,2.43,6.54s7.68-2.48,9.61-5.85.74-6.24-2.53-6.44h-.36c-3.18,0-7.24,2.42-9.15,5.76m-32.69-3c-1.59,2.28-1.24,4.36.79,4.56s5-1.49,6.54-3.76,1.14-4.16-.84-4.46l-.34,0c-2,0-4.65,1.62-6.15,3.68M262,333.22c-.34.49-.34.89,0,.89s1-.3,1.39-.69.35-.89,0-1a2,2,0,0,0-1.39.79m754.66-.79c-.44.29-.25.79.5,1a2.54,2.54,0,0,0,2.13-.3c.44-.3.2-.69-.5-1a3,3,0,0,0-.79-.1,2.06,2.06,0,0,0-1.34.4m-660.09,9.21c-2.82,5.75,0,10.7,6.24,10.8s13.18-4.56,15.56-10.21-.35-10.2-6.14-10.4h-.39c-5.72,0-12.51,4.2-15.27,9.82m37.1.69c-2.33,6.34,1.84,11.5,9.17,11.4s14.61-5.45,16.45-11.6-2.18-10.89-9-10.89-14.27,4.85-16.6,11.09m55.58-12.08c-7.22.2-14.56,5.34-16.14,11.59s3.71,11.39,11.59,11,14.91-5.85,15.9-12.09c.92-5.92-3.81-10.51-10.9-10.51h-.45m361.39.39c-3.67,1.29-4.46,3.86-1.69,5.85s8.17,2.57,11.89,1.18,4.31-3.86,1.44-5.84a14.81,14.81,0,0,0-11.64-1.19m-321.5-2.08c-7.44.4-14.27,5.45-15,11.49s5.44,10.71,13.42,10.11,14.41-6.14,14.56-12c.14-5.53-5-9.64-11.85-9.65-.39,0-.78,0-1.17,0m217.17.2c-5.95,1.29-8.67,5.35-5.8,8.91s10.45,5.46,16.6,3.87,8.42-5.55,5.3-9.11c-2.27-2.57-7-4.16-11.71-4.16a19.5,19.5,0,0,0-4.39.49M529.57,326c-7.28.59-13.28,5.45-13.18,11s6.74,9.61,14.51,8.82,13.33-6,12.69-11.39c-.55-4.92-5.79-8.51-12.3-8.51a16.66,16.66,0,0,0-1.72.09m548.92-3c-.14.1,0,.3.3.4a1.51,1.51,0,0,0,.79-.2c.15-.2,0-.3-.29-.39a.75.75,0,0,0-.26,0,.64.64,0,0,0-.54.23m-508.25-1.09c-7.29.8-12.68,5.65-11.89,10.8.89,5.36,8.07,8.92,15.75,7.93s12.69-6,11.4-11.2c-1.2-4.5-6.61-7.67-12.93-7.67a20.64,20.64,0,0,0-2.33.14m341.91-.49c-2,1-1.89,2.57.3,3.56a9.92,9.92,0,0,0,7.57,0c1.94-1,1.79-2.57-.39-3.56a9.17,9.17,0,0,0-3.78-.74,8.61,8.61,0,0,0-3.7.74m65.54-1.19c-.8.5-.55,1.29.64,1.68a4.63,4.63,0,0,0,3.67-.3c.79-.59.49-1.28-.65-1.68a4.87,4.87,0,0,0-1.54-.24,3.9,3.9,0,0,0-2.12.54m-231-.3c-4.85,1.19-6.68,4.56-4,7.34,2.82,2.87,9.16,4.05,14.17,2.67s6.44-4.75,3.56-7.43c-2-1.94-5.81-3.1-9.56-3.1a16.35,16.35,0,0,0-4.16.52m-135.83-2.47c-6.69.89-11.15,5.25-9.76,9.81s8.47,7.52,15.46,6.34,11-5.55,9.26-10c-1.5-3.76-6.61-6.34-12.25-6.34a17.75,17.75,0,0,0-2.71.2m235.65.29c-3.37,1.29-3.86,3.77-1,5.55s8.07,2.18,11.45.8,3.71-3.77.79-5.46a14.25,14.25,0,0,0-11.2-.89m192.61-3.66c-.36.19-.11.59.54.79a2.33,2.33,0,0,0,1.73-.3c.4-.3.15-.69-.49-.79a2.22,2.22,0,0,0-.67-.1,1.47,1.47,0,0,0-1.11.4m-388.43-2.78c-6.54,1.09-10.45,5.35-8.57,9.62s9.31,6.73,16.1,5.54,10.25-5.65,8-9.81c-1.86-3.39-6.91-5.61-12.31-5.61a19.07,19.07,0,0,0-3.19.26m133.45-1.68c-4.51,1.29-5.89,4.46-3,6.93s9.17,3.47,13.72,2.08,5.7-4.55,2.68-7c-2-1.64-5.49-2.57-8.9-2.57a16.48,16.48,0,0,0-4.48.59M942,306.77c-1.44.79-1.19,2,.5,2.67a7.53,7.53,0,0,0,5.89-.1c1.49-.79,1.19-2.08-.55-2.77a7.5,7.5,0,0,0-2.7-.47,6.87,6.87,0,0,0-3.14.67m-61.82-1.49c-2.63,1.09-2.83,3-.4,4.36A12.34,12.34,0,0,0,889,310c2.58-1.18,2.63-3.07.15-4.46a11.82,11.82,0,0,0-5-1,10.46,10.46,0,0,0-4,.72m-190.58-.59c-6,1.18-9.21,5.15-7,8.91s9.51,5.75,15.75,4.46,9-5.35,6.44-9c-2-2.88-6.79-4.66-11.72-4.66a19.44,19.44,0,0,0-3.49.31m405.13-.8c-.11.1,0,.3.14.3a.67.67,0,0,0,.45-.1c0-.1,0-.2-.2-.2a.29.29,0,0,0-.16,0,1.44,1.44,0,0,0-.23,0m-92.74-.2c-.79.5-.45,1.2.74,1.59a4.55,4.55,0,0,0,3.47-.39c.74-.5.44-1.2-.74-1.59a5.56,5.56,0,0,0-1.36-.16,3.54,3.54,0,0,0-2.11.55m-655.29,1.09c-2.18,3.27-1.48,6.15,1.59,6.34s7.38-2.18,9.51-5.35,1.39-5.94-1.63-6.24l-.54,0c-2.93,0-6.78,2.2-8.93,5.27m95.91,4.46c-2.18,6,2,10.9,9.31,10.8s14.37-5.15,16-11-2.38-10.3-9.11-10.3-14.07,4.56-16.2,10.5m-35.07-.49c-2.92,5.94.39,11,7.13,11.09s14.12-4.75,16.49-10.6-.74-10.5-7-10.7h-.4c-6.16,0-13.38,4.39-16.19,10.21m411.85-9.61c-4.11,1.29-5.05,4.06-2.13,6.24s8.77,2.87,12.84,1.48,4.75-4.16,1.78-6.34a14.36,14.36,0,0,0-7.85-2.06,15.18,15.18,0,0,0-4.64.68m-325-.79c-6.74.29-13.43,4.85-14.77,10.4s3.62,10.1,10.85,9.7S504.1,313.2,505,307.76s-3.76-9.42-10.36-9.42h-.24m-119.44,8.71c-3.17,5.45-1.14,10.21,4.55,10.41s12.59-3.87,15.42-9.22.79-9.71-4.56-10.1l-.58,0c-5.18,0-11.73,3.78-14.83,8.93m-56.57-5.65c-1.74,2.08-1.59,4,.29,4.27s4.76-1.29,6.39-3.37,1.54-4.07-.34-4.26a2.45,2.45,0,0,0-.48,0c-1.78,0-4.28,1.41-5.86,3.4m409-3.86c-5.3,1.09-7.73,4.66-5.35,7.83s9,4.65,14.46,3.37,7.49-4.86,4.91-7.93c-2-2.28-6.08-3.68-10.24-3.68a17.1,17.1,0,0,0-3.78.41m-196.52-.89c-7,.4-13.32,5.06-13.92,10.4-.64,5.55,5.16,9.71,12.64,9.12s13.37-5.45,13.52-10.8c0-5-4.8-8.75-11.25-8.75q-.5,0-1,0m-238,.6c-.49.39-.49.89-.14.89a1.67,1.67,0,0,0,1.43-.7c.45-.49.5-.89.15-1a2.13,2.13,0,0,0-1.44.8m765-.7c-.25.3,0,.59.55.7a1.68,1.68,0,0,0,1.43-.3c.25-.2,0-.5-.5-.7a2.86,2.86,0,0,0-.42,0,1.46,1.46,0,0,0-1.06.33m-490.08-2.08c-6.73.5-12.28,4.86-12.19,9.91s6.25,8.62,13.38,7.82,12.33-5.35,11.84-10.2c-.5-4.47-5.42-7.6-11.46-7.6-.51,0-1,0-1.57.07m342.46-2.08c-2.09,1-2.09,2.67.15,3.76a10.49,10.49,0,0,0,7.77.1c2.13-1,2-2.67-.2-3.66a9.57,9.57,0,0,0-4.18-.89,8.6,8.6,0,0,0-3.54.69m57.76-.3c-1.14.7-.85,1.79.69,2.38a6.09,6.09,0,0,0,5-.3c1.18-.69.84-1.78-.7-2.28a6.81,6.81,0,0,0-2.32-.39,5.38,5.38,0,0,0-2.63.59m-363.12-.89c-6.48.69-11.29,4.85-10.6,9.31.75,4.66,7,7.73,13.82,6.84s11.25-5.25,10.16-9.61c-1-3.93-5.86-6.64-11.48-6.64a17.41,17.41,0,0,0-1.9.1m158.33-2c-4.91,1.29-6.89,4.56-4.26,7.33s9.06,4.16,14.07,2.78,6.63-4.66,3.86-7.44c-2-2-5.86-3.13-9.68-3.13a17,17,0,0,0-4,.46m89.27-.7c-3.28,1.19-3.82,3.48-1.24,5.26s7.53,2.08,10.75.89,3.66-3.57,1-5.25a13.33,13.33,0,0,0-10.5-.9m170.65-.69c-.54.4-.24,1,.7,1.29a3.15,3.15,0,0,0,2.57-.4c.5-.39.15-1-.74-1.18a3.06,3.06,0,0,0-1-.15,2.6,2.6,0,0,0-1.57.44m-381.54-1.09c-6.29.89-10.6,5-9.41,9.12s7.93,6.93,14.51,5.94,10.51-5.15,8.92-9.31c-1.38-3.56-6.26-5.9-11.67-5.9a18.78,18.78,0,0,0-2.35.15m465.65-.69c0,.1,0,.1.11.2a.62.62,0,0,0,.25-.1c0-.1,0-.1-.11-.1Zm-429.34-4c-5.64.9-9.06,4.46-7.53,8.13s7.88,5.75,13.73,4.66,8.91-4.76,7.08-8.23c-1.5-2.91-5.89-4.77-10.57-4.77a17.77,17.77,0,0,0-2.71.21m119.39-1.38c-4.21,1.19-5.7,4.16-3.07,6.54s8.42,3.27,12.78,2,5.45-4.16,2.77-6.54c-1.9-1.59-5.14-2.51-8.38-2.51a15.47,15.47,0,0,0-4.1.53m276-.7c-.1.2,0,.4.35.5a1.31,1.31,0,0,0,.74-.2c.1-.2,0-.3-.34-.39a.64.64,0,0,0-.24,0,1.15,1.15,0,0,0-.51.13m-136.47-.49c-1.84,1-1.64,2.48.45,3.37a9,9,0,0,0,7.18-.1c1.78-.89,1.53-2.48-.55-3.37a10.56,10.56,0,0,0-3.54-.58,8.38,8.38,0,0,0-3.54.68m53.7-1.59c-.89.7-.55,1.49.79,2a5.25,5.25,0,0,0,4.11-.4c.89-.6.55-1.49-.79-1.88a5.33,5.33,0,0,0-1.74-.28,4.67,4.67,0,0,0-2.37.57m-108.1-.39c-2.72,1.09-3,3.17-.59,4.55a12.61,12.61,0,0,0,9.51.5c2.68-1.09,2.87-3.17.4-4.56a12.18,12.18,0,0,0-9.32-.49m-169.31-1.39c-5.31,1-8.23,4.36-6.35,7.63s8.13,5.06,13.58,4,8-4.56,5.89-7.73c-1.67-2.55-5.77-4.14-10-4.14a16.73,16.73,0,0,0-3.08.28m327.78-3.36c-.29.29-.09.59.5.79a2,2,0,0,0,1.54-.3c.29-.2,0-.6-.55-.7a1.36,1.36,0,0,0-.49-.08,1.88,1.88,0,0,0-1,.29M829,271.59c-3.76,1.2-4.8,3.87-2.18,5.85s8,2.77,11.79,1.48,4.61-3.86,1.94-5.84A13.19,13.19,0,0,0,833.1,271a13.92,13.92,0,0,0-4.08.58m-340.57,8.33c-1.84,5.05,2,9.21,8.32,9s12.54-4.36,13.87-9.31-2.18-8.72-8.12-8.72-12.29,4-14.07,9m-32.94-.4c-2.58,5.25.54,9.81,6.79,9.81s13-4.26,15.05-9.41-.89-9.32-6.73-9.51h-.22c-5.75,0-12.45,3.93-14.89,9.12m79.9-9.11c-6,.09-12,4.06-13.18,8.91s3.32,8.72,9.77,8.42,12.23-4.56,12.92-9.31c.72-4.48-3.1-8-8.81-8-.23,0-.46,0-.7,0m-111,7.72c-3.08,5.25-.84,9.81,4.9,10s12.58-3.87,15.21-9,.54-9.32-4.85-9.62h-.6c-5.21,0-11.71,3.67-14.66,8.63m692.14-8.72h0Zm-.1,0h.1s0,0,0,0,0,0,0,0m-547.54-.09c-5.84.29-11.1,4.06-11.59,8.52s4.26,7.72,10.45,7.23,11.2-4.36,11.29-8.72c.19-4-3.81-7.07-9.17-7.07-.32,0-.65,0-1,0m178.09.19c-5,1.09-7.33,4.26-5.26,7.24S750,281.1,755,279.92s7.08-4.37,4.8-7.24c-1.78-2.17-5.65-3.49-9.58-3.49a16.81,16.81,0,0,0-3.25.32M370.7,273.18c-2.23,2.78-1.93,5.25.69,5.65,2.58.19,6.39-1.79,8.52-4.56s1.79-5.15-.69-5.45a3.64,3.64,0,0,0-.67-.05c-2.49,0-5.81,1.87-7.85,4.41M395.57,276c-3.32,4.65-2,8.91,2.77,9.3s11.14-3.26,14.17-7.92,1.68-8.62-2.87-9a6,6,0,0,0-.74,0c-4.4,0-10.24,3.26-13.33,7.67m207.16-8.83c-5.69.5-10.4,4.07-10.35,8.23s5.2,7,11.2,6.44,10.45-4.36,10-8.42c-.32-3.66-4.39-6.3-9.53-6.3-.43,0-.87,0-1.32.05m-256.9,2.28c-1.64,1.89-1.73,3.57-.15,3.77s4.11-1,5.7-2.77,1.64-3.47.1-3.77a2.15,2.15,0,0,0-.45,0c-1.48,0-3.72,1.2-5.2,2.81M960.7,267c-1.34.79-1.09,2,.64,2.67a7.48,7.48,0,0,0,5.7-.2c1.33-.79,1-2-.75-2.67a7.27,7.27,0,0,0-2.63-.47,6.14,6.14,0,0,0-3,.67m-51.28-.7c-2.33,1.09-2.42,2.87,0,4.07a10.54,10.54,0,0,0,8.47.19c2.33-1,2.28-2.87-.05-4a10.33,10.33,0,0,0-4.57-1,10.13,10.13,0,0,0-3.8.67m-585.88-1.29c-.35.5-.45.8-.15.8a1.32,1.32,0,0,0,1.19-.5c.39-.39.44-.79.15-.79a.3.3,0,0,0-.13,0,2.15,2.15,0,0,0-1.06.51m761.49-.59c-.14.1,0,.29.35.4s.69,0,.79-.2-.05-.3-.39-.4a1.09,1.09,0,0,0-.26,0c-.23,0-.45.1-.49.24m-448.41-.39c-5.55.59-9.76,4.15-9.17,7.92s5.9,6.34,11.65,5.65,9.65-4.36,8.81-8c-.76-3.3-4.85-5.63-9.66-5.63a15,15,0,0,0-1.63.09m373.22.19c-.65.49-.3,1.19.84,1.59a3.93,3.93,0,0,0,3.22-.4c.64-.49.25-1.19-.84-1.58a4.17,4.17,0,0,0-1.13-.14,3.89,3.89,0,0,0-2.09.53m-230.06-1.39c-4.11,1-5.89,3.67-3.81,6.05s7.33,3.37,11.54,2.28,5.6-3.77,3.42-6c-1.61-1.69-4.71-2.67-7.85-2.67a13.92,13.92,0,0,0-3.3.38m78.92-.49c-3.17,1.09-3.87,3.37-1.44,5.05s7.18,2.18,10.4,1,3.62-3.46,1.19-5.05a12.46,12.46,0,0,0-10.15-1M670.26,260.6c-5.06.69-8.48,3.86-7.54,7.13s6,5.35,11.25,4.56,8.32-4,7.13-7.13c-1-2.8-4.8-4.67-9.09-4.67a12.85,12.85,0,0,0-1.75.11m384.66-2.28c-.25.3,0,.59.54.69a2,2,0,0,0,1.39-.2c.24-.29,0-.59-.55-.69a2.12,2.12,0,0,0-.44,0,1.58,1.58,0,0,0-.94.24M703.2,256.14c-4.71.69-7.63,3.66-6.39,6.64s6.29,4.75,11.14,3.86,7.43-3.86,6-6.74c-1.18-2.35-4.78-3.92-8.69-3.92a13.63,13.63,0,0,0-2.11.16m107.35-.79c-3.62,1-4.91,3.36-2.83,5.35s6.84,2.87,10.51,1.78,4.7-3.47,2.57-5.35c-1.51-1.4-4.24-2.21-7-2.21a12.32,12.32,0,0,0-3.29.43m123.44.1c-1.88.88-1.78,2.37.25,3.36a9.48,9.48,0,0,0,7,0c1.83-1,1.68-2.48-.35-3.36a8.23,8.23,0,0,0-3.54-.75,7,7,0,0,0-3.35.75m47.66-.6c-.94.6-.6,1.59.69,2a5.47,5.47,0,0,0,4.21-.2c1-.69.6-1.58-.74-2a5.92,5.92,0,0,0-1.93-.32,4.46,4.46,0,0,0-2.23.52m-95.86-2.08c-2.67,1.09-3.12,3.07-.79,4.56a11.9,11.9,0,0,0,9.21.59c2.68-1.09,2.93-3.07.6-4.46a11.07,11.07,0,0,0-5.39-1.27,10.76,10.76,0,0,0-3.63.58m-150.64-2c-4.41.89-6.94,3.66-5.45,6.34s6.54,4.26,11.1,3.37,6.78-3.77,5.15-6.44c-1.35-2.13-4.84-3.45-8.49-3.45a15,15,0,0,0-2.31.18m290.79.29c-.55.4-.2,1,.84,1.29a3.17,3.17,0,0,0,2.77-.3c.49-.49.15-1.08-.89-1.38a3.34,3.34,0,0,0-1-.14,2.61,2.61,0,0,0-1.73.53m68.11-1.28c0,.1.1.29.3.29s.44,0,.49-.19c.1,0-.1-.2-.3-.2a.33.33,0,0,0-.17,0,.48.48,0,0,0-.32.14m-254.92-2.58c-3.37,1-4.41,3.27-2.18,5.15s6.79,2.48,10.2,1.39,4.11-3.37,1.89-5.15a10.67,10.67,0,0,0-6.46-1.87,12.09,12.09,0,0,0-3.45.48m-296.58-.69c-4.81,0-10,3.07-11.45,7.13s1.69,7.23,6.84,7,10.16-3.37,11.29-7.34c1.08-3.8-1.69-6.83-6.45-6.83h-.23m30.41-.3c-4.71.1-9.36,3.17-10.2,6.74s2.52,6.53,7.53,6.34,9.41-3.37,10-7c.62-3.45-2.4-6.06-6.84-6.06H573m-72.42,7.13c-2,4.26.59,7.73,5.7,7.73s10.55-3.37,12.23-7.43-.79-7.43-5.6-7.53h-.22c-4.7,0-10.16,3.14-12.11,7.23m265.67-7.92c-3.77.79-5.6,3.17-4.06,5.35s5.94,3.37,9.76,2.48,5.5-3.28,3.86-5.36c-1.24-1.7-4.09-2.73-7-2.73a11.75,11.75,0,0,0-2.51.26m-295,6.84c-2.48,4.25-.49,8,4.41,8.22A15.12,15.12,0,0,0,488.45,253c2.23-4.16.3-7.63-4.31-7.93h-.41a16,16,0,0,0-12.57,7.25M603.92,245c-4.61.2-8.76,3.17-9.21,6.54s3.37,5.95,8.22,5.55,8.77-3.37,8.92-6.64S608.92,245,604.7,245l-.78,0m462.34-.3c-.2.1,0,.4.45.5s.89,0,1-.2,0-.49-.44-.59a.91.91,0,0,0-.23,0,1,1,0,0,0-.76.32m-110.47-.19c-1.39.79-1.19,2,.45,2.67a7.15,7.15,0,0,0,5.54-.1c1.39-.79,1.09-2-.54-2.67a6.89,6.89,0,0,0-2.61-.48,6.48,6.48,0,0,0-2.84.58m-512.32,5.84c-2.93,4.16-1.64,7.93,2.82,8.23s10.36-2.88,13-7,1.39-7.73-2.87-8a6.28,6.28,0,0,0-.75,0c-4.13,0-9.48,2.95-12.23,6.87m-24.28-2.48c-2.37,3-1.92,5.65,1.05,6s7.13-1.88,9.41-4.86,1.73-5.54-1.09-5.84a4.93,4.93,0,0,0-.55,0c-2.76,0-6.59,2-8.82,4.78m215.89-4.75c-4.36.4-7.92,3.07-7.92,6.14s3.81,5.25,8.37,4.76,7.92-3.27,7.68-6.15-3.31-4.78-7.27-4.78l-.86,0m275.48.1c-2.23.89-2.38,2.57-.3,3.76a9.78,9.78,0,0,0,7.83.3c2.13-.89,2.18-2.58.1-3.76a9.34,9.34,0,0,0-4.25-.94,8.28,8.28,0,0,0-3.38.64m88.58-.4c-.8.6-.45,1.39.84,1.79a4.43,4.43,0,0,0,3.76-.3c.8-.6.45-1.39-.84-1.88a5.05,5.05,0,0,0-1.46-.21,4.07,4.07,0,0,0-2.3.6m-603.47,1.79c-1.88,2.08-1.88,4.06.05,4.35s5-1.18,6.88-3.27,1.83-4.06-.05-4.35a2.89,2.89,0,0,0-.52,0,9.73,9.73,0,0,0-6.36,3.31m270.52-4.07c-4,.4-7.08,3-6.73,5.65s4.16,4.56,8.32,4.06,7-3.07,6.53-5.74c-.44-2.42-3.39-4-6.94-4a11.77,11.77,0,0,0-1.18.05m129.54-1.39c-3.37.8-4.85,3-3.27,4.86s5.7,2.87,9.12,2,4.65-3,3-4.85c-1.23-1.42-3.78-2.27-6.36-2.27a11.1,11.1,0,0,0-2.51.28m70.15-.09c-2.87.89-3.57,3-1.49,4.46s6.2,2.08,9,1,3.41-3,1.28-4.46a9.92,9.92,0,0,0-5.53-1.51,10.07,10.07,0,0,0-3.28.52m-492.21,1.58c-1.39,1.39-1.53,2.68-.44,2.88s3.22-.7,4.55-2.08,1.59-2.68.5-2.88a1.87,1.87,0,0,0-.34,0,7.15,7.15,0,0,0-4.27,2.11m665.64-2.18c-.35.3,0,.8.79,1s1.74.1,2-.3,0-.88-.74-1.08a2.36,2.36,0,0,0-.65-.08,2.12,2.12,0,0,0-1.43.47M697,237.11c-3.81.5-6.48,2.88-5.89,5.36s4.46,4.06,8.37,3.56,6.49-3.07,5.7-5.45c-.65-2.08-3.51-3.56-6.78-3.56a11.09,11.09,0,0,0-1.4.09m-342.75-.79c-.1.1-.14.2-.05.2s.25,0,.4-.2.2-.2.05-.2a.48.48,0,0,0-.4.2m746.29-.2c0,.1,0,.1.15.2a.55.55,0,0,0,.24-.1c.06-.1-.05-.1-.14-.2a.38.38,0,0,0-.25.1M932.9,233.75c-1.68.79-1.68,2.08.11,3.07a8.36,8.36,0,0,0,6.18.1c1.64-.8,1.54-2.18-.19-3.07a7.18,7.18,0,0,0-3.19-.69,6.81,6.81,0,0,0-2.91.59m41.52,0c-1.14.69-.84,1.78.69,2.37a5.7,5.7,0,0,0,4.95-.19c1.14-.7.74-1.79-.74-2.38a6.56,6.56,0,0,0-2.31-.39,5.14,5.14,0,0,0-2.59.59m-247.4-.7c-3.61.6-5.89,2.78-5,5.06s4.66,3.56,8.37,3,5.8-2.88,4.81-5.06c-.79-1.83-3.49-3.11-6.45-3.11a10.58,10.58,0,0,0-1.68.14m96.41-.69c-3.07.89-4.32,2.87-2.63,4.66s5.69,2.47,8.82,1.58,4.11-2.87,2.37-4.66a8.85,8.85,0,0,0-5.9-1.91,10.59,10.59,0,0,0-2.66.33m251.35-.59c-.1.29.1.39.45.49a.69.69,0,0,0,.79-.2c.1-.2-.1-.39-.45-.39a1,1,0,0,0-.28,0,1,1,0,0,0-.51.14m-60.29-.3c-.44.39-.14.89.7,1.18a2.59,2.59,0,0,0,2.33-.29c.49-.39.19-.89-.65-1.19a3.63,3.63,0,0,0-.87-.1,2.51,2.51,0,0,0-1.51.4M890.74,231c-2.17.8-2.57,2.38-.79,3.57a8.67,8.67,0,0,0,7.19.6c2.13-.8,2.43-2.38.64-3.57a9,9,0,0,0-7-.6m-134.39-2.18c-3,.5-4.8,2.38-3.82,4.16s4.27,2.88,7.34,2.38,4.7-2.57,3.71-4.36c-.83-1.43-3-2.35-5.44-2.35a10,10,0,0,0-1.79.17m293.76-2.28c-.25.3.05.6.6.7a1.29,1.29,0,0,0,1.38-.2c.2-.3-.1-.59-.59-.7a4.83,4.83,0,0,0-.63-.05.92.92,0,0,0-.76.25m-200.53-1c-2.53.79-3.42,2.58-1.83,4s5,2,7.63,1.2,3.32-2.58,1.68-4a7.92,7.92,0,0,0-5-1.5,9.63,9.63,0,0,0-2.48.31m-278.8,4.36c-1.14,3,1.24,5.45,5.15,5.35s7.78-2.58,8.67-5.55-1.34-5.15-5.1-5.15-7.68,2.38-8.72,5.35m37.06-5.94c-3.77.1-7.53,2.48-8.23,5.35s2,5.15,6,5,7.53-2.67,8.07-5.45-1.91-4.85-5.58-4.85h-.26m-66,5.84c-1.63,3.37.55,6.24,4.81,6.24s8.76-2.77,10.16-6-.7-6-4.76-6.14-8.62,2.58-10.21,5.94M952.27,224c-1.43.79-1.33,2.08.35,2.87a6.63,6.63,0,0,0,5.65-.1c1.43-.79,1.18-2-.45-2.77a7.46,7.46,0,0,0-2.85-.52,6.41,6.41,0,0,0-2.7.52m-167.78-.4c-2.73.59-4.11,2.28-3.07,3.87s4.11,2.37,6.83,1.88,4-2.38,2.93-3.87c-.84-1.26-2.9-2-5.07-2a8.8,8.8,0,0,0-1.62.15m319.86-.3c0,.1.05.1.15.1h.1c.05-.1,0-.1,0-.1Zm-589.64,5.55c-1.94,3.37-.3,6.25,3.61,6.34a12,12,0,0,0,10.26-5.75c1.73-3.26.19-6-3.57-6.14h-.42a12.61,12.61,0,0,0-9.88,5.56m121.76-6c-3.67.2-7,2.47-7.33,5.05s2.52,4.66,6.34,4.36,7-2.58,7.18-5.15-2.32-4.27-5.67-4.27h-.52m354.24.49c-.94.6-.54,1.49.75,2a4.59,4.59,0,0,0,4-.3c.84-.59.45-1.48-.89-2a5.55,5.55,0,0,0-1.66-.24,4.13,4.13,0,0,0-2.21.53M913,222.45c-1.83.8-2,2.18-.4,3.17a7.48,7.48,0,0,0,6.34.4c1.79-.79,1.88-2.18.25-3.17a6.81,6.81,0,0,0-3.49-.85,8,8,0,0,0-2.7.45m-247.79-.79c-3,.2-5.55,2.08-5.55,4.16s2.53,3.57,5.6,3.27,5.5-2.18,5.4-4.26c-.09-1.85-2.18-3.19-4.89-3.19a5.33,5.33,0,0,0-.56,0m-177.39,5.55c-2.63,3.76-1.39,7,2.77,7.33S500,232,502.32,228.2s1.19-6.74-2.72-7c-.2,0-.41,0-.62,0-3.83,0-8.73,2.59-11.17,6.07m-23-2.19c-2.13,2.78-1.63,5.26,1.14,5.46s6.69-1.69,8.72-4.36,1.54-5.06-1.14-5.35a5.17,5.17,0,0,0-.57,0c-2.6,0-6.12,1.8-8.15,4.28m561.91-4.65c-.4.3-.1.8.69,1a2.22,2.22,0,0,0,2-.19c.39-.4,0-.9-.7-1.1a3.63,3.63,0,0,0-.8-.09,1.52,1.52,0,0,0-1.18.39m54.29-.59c0,.1,0,.19.3.29a.7.7,0,0,0,.54-.19c.1-.1-.09-.2-.34-.3s-.5.1-.5.2m-387.19-.6c-2.82.3-5,2-4.8,3.87s2.72,3.17,5.64,2.87,5-2.08,4.71-4c-.22-1.69-2.24-2.82-4.69-2.82a8.38,8.38,0,0,0-.86,0m-251.55,3.08c-1.93,2.08-1.83,4.05.2,4.35s5.1-1.29,7-3.36,1.73-4.07-.21-4.27a4.74,4.74,0,0,0-.55,0,9.62,9.62,0,0,0-6.43,3.32M874,218.49c-2,.69-2.62,2.18-1.18,3.27s4.3,1.49,6.34.79,2.52-2.08,1.08-3.27a7.5,7.5,0,0,0-6.24-.79m-62.81-.5c-2.58.5-3.76,2.18-2.62,3.67s4.16,2.18,6.73,1.59,3.67-2.28,2.48-3.77c-.86-1-2.77-1.7-4.72-1.7a8.31,8.31,0,0,0-1.87.21m-389.91.8c-1.49,1.38-1.69,2.87-.35,3.07s3.52-.8,4.95-2.28,1.64-2.87.35-3.07a2,2,0,0,0-.35,0,7.44,7.44,0,0,0-4.6,2.31M722,216.11c-2.63.3-4.51,1.88-4.16,3.57s2.92,2.77,5.65,2.47,4.46-2.08,4.06-3.66-2.27-2.46-4.46-2.46a8.11,8.11,0,0,0-1.09.08m336.21-.89c-.14.2.1.5.6.59s.89,0,1-.19-.1-.5-.55-.6a1.45,1.45,0,0,0-.35,0,.92.92,0,0,0-.69.24m-88.72-.59c-1.18.69-.94,1.78.5,2.47a5.85,5.85,0,0,0,4.7-.2c1.09-.59.84-1.68-.59-2.27a5.4,5.4,0,0,0-2.34-.49,5,5,0,0,0-2.27.49m-567.4.09c-.8.7-.95,1.39-.4,1.49a4,4,0,0,0,2.33-1c.74-.69.89-1.39.35-1.49h-.18a3.62,3.62,0,0,0-2.1,1m530.74-.79c-1.63.7-1.68,2.08,0,2.87a6.9,6.9,0,0,0,5.79.3c1.54-.79,1.49-2.08,0-3a6.4,6.4,0,0,0-3-.7,7,7,0,0,0-2.66.5m71.88-.59c-.59.49-.24,1.09.7,1.48a3.1,3.1,0,0,0,2.72-.29c.59-.4.25-1.1-.74-1.39a3,3,0,0,0-1.14-.22,2.73,2.73,0,0,0-1.54.42m-255.07-.7c-2.27.3-3.71,1.69-3.26,3.08s2.77,2.27,5,1.88,3.66-1.79,3.12-3.17c-.42-1.08-2-1.88-3.83-1.88a6.74,6.74,0,0,0-1.08.09m86.89-.39c-2.13.5-3,1.88-1.93,3.07s3.72,1.78,5.8,1.19,2.92-2,1.83-3.17a5.36,5.36,0,0,0-3.83-1.34,6.91,6.91,0,0,0-1.87.25m59.65-1.09c-1.69.59-2,1.88-.75,2.77a6.28,6.28,0,0,0,5.5.6c1.68-.6,2-1.89.64-2.78a5.56,5.56,0,0,0-3.29-.93,6.21,6.21,0,0,0-2.1.34m-511.93-1c-.14.09-.14.2-.1.2a.62.62,0,0,0,.4-.11c.15-.19.2-.29.1-.29a1,1,0,0,0-.4.2m652.41-.3c-.19.2.06.59.55.69a1.14,1.14,0,0,0,1.29-.19c.24-.3,0-.6-.55-.7a3.43,3.43,0,0,0-.55-.06.88.88,0,0,0-.74.26m-260.31-1.29c-2,.3-3.18,1.49-2.58,2.68s2.63,1.88,4.6,1.49,3.08-1.59,2.49-2.68-1.86-1.6-3.41-1.6a5.13,5.13,0,0,0-1.1.11m308.52-.2c0,.2.1.2.24.2a.39.39,0,0,0,.35,0c0-.1-.1-.2-.24-.2a.34.34,0,0,0-.15,0,1.13,1.13,0,0,0-.2,0M860.23,206.1c-1.73.5-2.33,1.69-1.34,2.68a5.81,5.81,0,0,0,4.91.79c1.68-.49,2.23-1.68,1.24-2.67a5.06,5.06,0,0,0-3.23-1,6,6,0,0,0-1.58.21m90.41-.49c-1.19.6-1.14,1.68.2,2.38a5.49,5.49,0,0,0,4.65.1c1.24-.7,1.14-1.69-.25-2.38a5.26,5.26,0,0,0-2.42-.54,5.11,5.11,0,0,0-2.18.44m33.63-.1c-.84.59-.54,1.49.65,2a4.6,4.6,0,0,0,3.67-.1c.88-.69.54-1.48-.65-2a4.72,4.72,0,0,0-1.77-.32,4,4,0,0,0-1.9.42m79.81-1c0,.2.1.4.44.4s.6,0,.65-.2-.15-.3-.4-.4-.64,0-.69.2m-457.23,3.86c-1,2.48,1,4.37,4.26,4.37s6.49-2.09,7.28-4.46S617.3,204,614.18,204s-6.44,2-7.33,4.36m195.08-4.46c-1.74.4-2.68,1.49-2.08,2.48s2.47,1.59,4.21,1.29,2.62-1.48,2-2.48a3.63,3.63,0,0,0-3.18-1.37,6.37,6.37,0,0,0-1,.08m-221.54,4.46c-1.28,2.58.4,4.76,3.72,4.76s6.83-2.08,8-4.66-.5-4.65-3.62-4.65-6.84,2-8.08,4.55m60-4.75c-3,.1-6,2-6.64,4.16s1.49,4,4.61,3.86,6.1-2.08,6.54-4.26-1.38-3.76-4.25-3.76h-.26m275.73-.1c-1.49.69-1.74,1.88-.49,2.68a5.79,5.79,0,0,0,5.09.39c1.49-.6,1.69-1.78.4-2.58a5.46,5.46,0,0,0-3-.79,6.23,6.23,0,0,0-2,.3m99.67,0c-.5.49-.15,1.09.69,1.39a2.81,2.81,0,0,0,2.43-.3c.45-.4,0-1-.79-1.29a3.31,3.31,0,0,0-1.06-.17,2,2,0,0,0-1.27.37m-349-.49c-2.63.09-5,1.68-5.25,3.46s1.68,3.17,4.3,3.07,4.91-1.88,5.16-3.66-1.44-2.9-3.7-2.9l-.51,0m-112.31,4.65c-1.68,2.77-.25,5.15,3.12,5.25a10.74,10.74,0,0,0,8.82-4.85c1.49-2.78.15-5.05-3.12-5.16h-.23a10.91,10.91,0,0,0-8.59,4.76M693.29,202c-1.78.2-3.37,1.29-3.42,2.48s1.44,2.18,3.32,2,3.37-1.29,3.37-2.48-1.18-2-2.77-2l-.5,0M530.06,206.3c-1.93,2.78-.94,5.16,2.18,5.35a11.47,11.47,0,0,0,8.92-4.65c1.78-2.78.79-5.06-2.18-5.25l-.42,0a11.49,11.49,0,0,0-8.5,4.57m189.63-6.44c-1.64.1-3,1.09-2.87,2.18s1.48,1.79,3.17,1.69,2.93-1.19,2.82-2.28-1.18-1.62-2.56-1.62l-.56,0m324.38,0c-.15.2.1.5.54.6a1.26,1.26,0,0,0,1.09-.2c.1-.2-.15-.5-.59-.6a.8.8,0,0,0-.37-.08.89.89,0,0,0-.67.28m-537.94,4.36c-2.37,3-1.68,5.65,1.49,5.95s7.53-2,9.76-4.86,1.58-5.55-1.38-5.85l-.59,0c-3,0-7,2-9.28,4.78m376-4.56c-1.49.5-1.93,1.49-1,2.38a5.14,5.14,0,0,0,4.4.6c1.45-.5,1.89-1.49.9-2.28a4.16,4.16,0,0,0-2.78-.93,4.85,4.85,0,0,0-1.53.23m-396,2.18c-1.58,1.79-1.48,3.37.3,3.67s4.36-1.09,5.9-2.87,1.38-3.27-.3-3.57l-.36,0a8.84,8.84,0,0,0-5.54,2.79M826.25,199c-1.49.4-2.23,1.39-1.59,2.18s2.28,1.29,3.82,1,2.13-1.29,1.53-2.18a3.37,3.37,0,0,0-2.75-1.09,5.67,5.67,0,0,0-1,.1m260.57-1.09s0,.1.09.1h.06l-.06-.1Zm-620.47,1c-1,1-1,1.88-.14,2a4.25,4.25,0,0,0,3.31-1.48c1-.89,1-1.88.2-2h-.2a5.15,5.15,0,0,0-3.17,1.5m500.09-1.38c-.84.49-.74,1.28.3,1.78a4.16,4.16,0,0,0,3.42,0c.84-.5.69-1.29-.35-1.78a4.09,4.09,0,0,0-1.74-.38,3.41,3.41,0,0,0-1.63.38M745.55,197c-1.44.2-2.53,1.09-2.37,2.08s1.58,1.59,3.06,1.29,2.53-1.09,2.38-2-1.25-1.43-2.5-1.43a3.64,3.64,0,0,0-.57,0m251.3-.2c-.59.4-.29,1.09.65,1.49a3.67,3.67,0,0,0,2.77-.2c.6-.5.25-1.19-.64-1.59a3.86,3.86,0,0,0-1.13-.16,2.69,2.69,0,0,0-1.65.46m-62.51-.59c-1.14.49-1.29,1.48-.15,2.18a4.53,4.53,0,0,0,4.06.2c1.14-.5,1.19-1.49.1-2.09a4.39,4.39,0,0,0-2.33-.6,4.23,4.23,0,0,0-1.68.31m-486.46-.9c-.3.3-.35.6-.1.6s.64-.1.94-.4.35-.49.15-.59l-.11,0a2.37,2.37,0,0,0-.88.41m619.92-.79c-.06.1.14.3.34.3s.45,0,.5-.2-.15-.2-.4-.2a.33.33,0,0,0-.17,0,.3.3,0,0,0-.27.14m-42.71-.1c-.19.2.05.6.6.8a1.38,1.38,0,0,0,1.43-.2c.25-.3,0-.6-.59-.8a1.74,1.74,0,0,0-.59-.1,1.14,1.14,0,0,0-.85.3m-254.27-.69c-1.34.2-2.24,1-2,1.78s1.54,1.39,2.88,1.19,2.23-1.09,2-1.88a2.34,2.34,0,0,0-2.28-1.13,4,4,0,0,0-.59,0m78.36,0c-1.34.3-1.88,1.19-1.28,1.88a3.42,3.42,0,0,0,3.46.8c1.29-.3,1.79-1.19,1.24-1.89a3.14,3.14,0,0,0-2.41-.9,5,5,0,0,0-1,.11m52.86-.6c-1.29.4-1.58,1.39-.69,2.09a4.25,4.25,0,0,0,4,.49c1.29-.4,1.59-1.38.69-2.08a3.84,3.84,0,0,0-2.42-.76,4.33,4.33,0,0,0-1.54.26M429.9,191c-.35.3-.45.6-.25.7a1.69,1.69,0,0,0,1-.5c.35-.29.49-.49.25-.59a1.61,1.61,0,0,0-1,.39m619.47-.69c0,.2.19.4.54.5a1.13,1.13,0,0,0,.89-.1c0-.2-.19-.5-.54-.6a1.77,1.77,0,0,0-.3,0,.72.72,0,0,0-.59.24m-254.23-.49c-1.29.19-2.08,1-1.79,1.78s1.64,1.19,2.93,1,2.08-1,1.73-1.78a2.23,2.23,0,0,0-2.11-1.08,3.35,3.35,0,0,0-.76.09m184.53-.6c-.7.5-.5,1.29.45,1.69a3.37,3.37,0,0,0,2.92-.1c.69-.4.44-1.19-.5-1.59A4,4,0,0,0,981,189a2.91,2.91,0,0,0-1.36.29m-29.28-.39c-.84.39-.84,1.18.05,1.68a3.59,3.59,0,0,0,3.32.2c.84-.5.79-1.29-.1-1.79a3.81,3.81,0,0,0-1.79-.42,3.16,3.16,0,0,0-1.48.33m-79.8-.6c-1,.3-1.49,1-1,1.59a3.17,3.17,0,0,0,3,.59c1-.3,1.43-1.09.89-1.68a2.81,2.81,0,0,0-1.92-.68,3.18,3.18,0,0,0-1,.18m216.23-.2h0l0,.1c.09,0,.09-.1.09-.1Zm-79.76,0c-.45.5-.15,1.09.7,1.39a2.5,2.5,0,0,0,2.27-.2c.45-.39.15-1-.69-1.28a2.48,2.48,0,0,0-1.12-.26,1.82,1.82,0,0,0-1.16.35m-86.74-1.49c-1,.3-1.14,1.1-.35,1.69a3.45,3.45,0,0,0,3.12.3c1-.4,1.09-1.09.35-1.69a3.13,3.13,0,0,0-1.82-.53,3.74,3.74,0,0,0-1.3.23M646.38,186a5.5,5.5,0,0,0-4.86,2.88c-.59,1.48.6,2.77,2.73,2.67s4.26-1.29,4.8-2.87-.5-2.68-2.44-2.68h-.23M617,188.87c-.79,1.58.25,3,2.38,3a6,6,0,0,0,5.2-3c.74-1.59-.3-2.88-2.33-3a6.21,6.21,0,0,0-5.25,3m50-.7c-.34,1.19.8,2.08,2.48,2.08s3.27-1.09,3.62-2.27-.74-2.08-2.43-2.08-3.32,1.08-3.67,2.27m151.49-2.38c-1,.2-1.58.9-1.29,1.49a2.32,2.32,0,0,0,2.38.7c1-.2,1.59-.8,1.29-1.4a2.32,2.32,0,0,0-2-.8h-.37m213.41-.3c-.2.21,0,.6.54.7s1,.1,1.19-.2-.09-.59-.54-.69a2.55,2.55,0,0,0-.54-.06c-.3,0-.56.07-.65.25m-439.1,2.78c-1,1.78-.15,3.27,2.08,3.37a7.21,7.21,0,0,0,5.84-3.07c1-1.79.1-3.27-2-3.37h-.22a7.37,7.37,0,0,0-5.67,3.08m476.8-3.17c0,.1.14.2.25.2s.24,0,.24-.1a2.11,2.11,0,0,0-.24-.2.55.55,0,0,0-.25.1m-374.26-.49c-1.79.09-3.42,1.18-3.67,2.37s1,2.18,2.88,2.09,3.41-1.2,3.61-2.38-1-2.09-2.55-2.09h-.27m-125.78,2.47c-1.39,1.88-.69,3.57,1.54,3.67a7.68,7.68,0,0,0,6.29-3.17c1.29-1.88.59-3.47-1.54-3.57l-.43,0a7.77,7.77,0,0,0-5.86,3.09m150.16-3.17c-1,.1-1.79.6-1.84,1.29s.69,1.09,1.68,1,1.84-.59,1.84-1.29-.55-1-1.39-1h-.29m170.6-1.38c-.94.29-1.24.88-.74,1.48a3.17,3.17,0,0,0,2.72.4c.9-.3,1.19-.89.65-1.49a2.54,2.54,0,0,0-1.68-.53,3,3,0,0,0-.95.14m-342.9,2.87c-1.54,1.88-1.09,3.47.94,3.67a8.2,8.2,0,0,0,6.34-3.08c1.44-1.78,1-3.46-1-3.67h-.21a8.63,8.63,0,0,0-6.08,3.08m196.61-3.67c-.88.1-1.63.7-1.58,1.29s.74.89,1.63.79,1.64-.59,1.59-1.19-.61-.9-1.37-.9h-.27m308.87-.29c0,.09.1.29.4.39a.54.54,0,0,0,.59-.1.45.45,0,0,0-.49-.4l-.18,0a.36.36,0,0,0-.32.14m-212.31-.11c-.9.2-1.34.8-1,1.29a2,2,0,0,0,2.18.7c.9-.3,1.34-.79,1-1.39a1.91,1.91,0,0,0-1.6-.66,2.76,2.76,0,0,0-.57.06m123.79.2c-.69.4-.64,1.09.15,1.49a2.65,2.65,0,0,0,2.72,0c.65-.29.55-1-.2-1.49a3.23,3.23,0,0,0-1.37-.29,2.8,2.8,0,0,0-1.3.29m26.4-.09c-.54.39-.3,1.09.55,1.38a2.69,2.69,0,0,0,2.48,0c.49-.5.24-1.09-.55-1.49a4,4,0,0,0-1.23-.2,2.23,2.23,0,0,0-1.25.31M526.1,183c-1.84,2-1.64,3.86.35,4.06s5.15-1.18,6.88-3.17,1.54-3.76-.4-4a3.24,3.24,0,0,0-.55,0A9.63,9.63,0,0,0,526.1,183m410.62-3c-.7.3-.79.89-.15,1.28a2.49,2.49,0,0,0,2.37.2c.7-.29.75-.89.16-1.29a2.78,2.78,0,0,0-1.43-.36,2.4,2.4,0,0,0-.95.17m78.56-.1c-.29.29,0,.79.65,1.09a2,2,0,0,0,1.78-.2c.3-.4,0-.89-.69-1.09a2.07,2.07,0,0,0-.81-.17,1.15,1.15,0,0,0-.93.37m-248.67.29c0,.5.69.8,1.48.7s1.34-.59,1.24-1.09-.7-.7-1.49-.7c-.74.21-1.34.6-1.23,1.09M1085.08,179h0Zm.05,0c.06.1.06,0,.06,0Zm-577.36,1.48c-1.09,1.09-1.14,2.09-.15,2.18s2.63-.59,3.72-1.58,1.08-2.08.09-2.18a1.48,1.48,0,0,0-.31,0,5.81,5.81,0,0,0-3.35,1.61m529-3.37c0,.2.19.5.54.6s.89.1.94-.2-.15-.4-.54-.49a1.13,1.13,0,0,0-.47-.11.56.56,0,0,0-.47.2m-175.27-.29c-.59.2-.89.59-.64.89a1.45,1.45,0,0,0,1.58.4c.59-.1.89-.6.64-.89a1.29,1.29,0,0,0-1.08-.48,1.69,1.69,0,0,0-.5.08m47,0c-.69.2-.89.69-.44,1.19a2.66,2.66,0,0,0,2.13.3c.69-.3.89-.8.44-1.29a2,2,0,0,0-1.24-.37,2.27,2.27,0,0,0-.89.17m-418.7.49c-.59.6-.73,1.09-.24,1.19a3,3,0,0,0,2.08-.89c.65-.59.74-1.09.25-1.19h-.17a3.53,3.53,0,0,0-1.92.9m579.9-.89c0,.1.09.1.2.1h.24c0-.1-.15-.2-.24-.2s-.25,0-.2.1m-278.75-.3c-.75.2-1.24.6-1.14,1.1a1.44,1.44,0,0,0,1.54.59c.74-.1,1.28-.5,1.13-1s-.62-.72-1.24-.72l-.29,0m185.42-1.78c-.6.4-.45,1,.24,1.39a3.11,3.11,0,0,0,2.29,0c.54-.4.44-1-.3-1.39a3,3,0,0,0-1.17-.22,2.25,2.25,0,0,0-1.06.22m23.83-.4c-.35.3-.16.9.49,1.09a1.81,1.81,0,0,0,1.88-.09c.3-.3.05-.8-.54-1.09a2.12,2.12,0,0,0-.87-.18,1.63,1.63,0,0,0-1,.27m-526.89-.29c-.05,0,0,.1,0,.1s0,0,.1-.1Zm.1,0h0m477.84-.1c-.49.2-.54.69,0,1a1.77,1.77,0,0,0,1.73.1c.49-.2.49-.7.05-1a2.08,2.08,0,0,0-1-.28,1.35,1.35,0,0,0-.72.18m103.34-.4c0,.1.15.2.35.3s.39,0,.39-.1-.15-.29-.34-.29a.41.41,0,0,0-.17-.05.26.26,0,0,0-.23.14m-241.35-.3c-.59.1-.94.5-.84.8a1.08,1.08,0,0,0,1.23.49c.6-.1.95-.49.85-.79a1,1,0,0,0-1-.52l-.29,0m208.41-.69c-.2.3.1.6.59.79s1,.11,1.19-.19-.1-.6-.59-.79a1.9,1.9,0,0,0-.4-.05,1.18,1.18,0,0,0-.79.24m-140.69-.3c-.55.11-.75.5-.5.79a1.25,1.25,0,0,0,1.34.3c.54-.1.74-.49.5-.79a1.37,1.37,0,0,0-1-.33,2,2,0,0,0-.36,0m44.19-.79c-.35.2-.5.5-.2.7a1.7,1.7,0,0,0,1.19.2c.39-.2.44-.5.14-.7a.83.83,0,0,0-.67-.26,1.7,1.7,0,0,0-.46.06m-250.77-.2c-.24.7.25,1.19,1.2,1.19a2.48,2.48,0,0,0,2.22-1.29c.3-.69-.24-1.18-1.18-1.18a2.57,2.57,0,0,0-2.24,1.28m-22.93.1c-.44.8.1,1.39,1.14,1.49a3.16,3.16,0,0,0,2.62-1.49c.4-.79-.1-1.38-1.14-1.49a3.35,3.35,0,0,0-2.62,1.49m388.62-1.68c0,.1.15.3.4.39s.5,0,.5-.09-.11-.4-.35-.5-.5,0-.55.2m-205.58-.2c-.54.1-.84.5-.69.8s.64.39,1.14.39.84-.5.69-.8a1,1,0,0,0-.88-.42,1.15,1.15,0,0,0-.26,0m-135-.2a2.59,2.59,0,0,0-2.23,1.39c-.25.69.4,1.29,1.44,1.19a2.38,2.38,0,0,0,2.28-1.39c.18-.64-.36-1.2-1.27-1.2h-.22m-70.69,1.59c-.64,1-.15,1.78,1.09,1.88a4.21,4.21,0,0,0,3.32-1.79c.59-1,.1-1.78-1.09-1.78a4.12,4.12,0,0,0-3.32,1.69m93.38-2a1,1,0,0,0-1,.6c-.1.39.25.59.74.59s1-.29,1-.69-.16-.51-.55-.51h-.19m346.07-.19s.1.1.15.1.1,0,.05-.1a.1.1,0,0,0-.1-.1s-.1,0-.1.1m-461.34,1.18c-.8,1.09-.35,2,.89,2.09a4.66,4.66,0,0,0,3.61-1.79c.75-1.09.4-2-.89-2.08h-.21a4.49,4.49,0,0,0-3.4,1.78m379.65-2.08c-.34.4-.24.8.35,1.09a1.59,1.59,0,0,0,1.63,0c.35-.29.2-.79-.34-1.09a1.77,1.77,0,0,0-.81-.18,1.89,1.89,0,0,0-.83.18m-22.59-.29c-.34.2-.29.49,0,.69a1.52,1.52,0,0,0,1.14.1c.3-.2.3-.5,0-.69a1.54,1.54,0,0,0-.71-.21.59.59,0,0,0-.38.11m-220,.49c0,.3.35.5.84.5s.89-.4.94-.7-.34-.49-.79-.49a1,1,0,0,0-1,.69m155-.69c-.34.1-.45.3-.25.49s.55.2.89.2a.41.41,0,0,0,.25-.59,1.35,1.35,0,0,0-.59-.14,1,1,0,0,0-.3,0m108.78-.2c-.14.2,0,.6.45.8a1.23,1.23,0,0,0,1.19-.11c.15-.29,0-.59-.49-.79a1.25,1.25,0,0,0-.5-.11,1,1,0,0,0-.65.21M585.75,168c-1,1.09-.7,2.18.59,2.28a5,5,0,0,0,4-1.88c.94-1.19.64-2.18-.59-2.28h-.19a5.72,5.72,0,0,0-3.77,1.89m468.87-2.68c0,.11.14.2.3.2s.24,0,.24-.09l-.29-.2c-.15,0-.25,0-.25.09m-200-.09c-.39,0-.59.29-.49.49s.49.3.89.2.55-.2.4-.49a.62.62,0,0,0-.54-.24.75.75,0,0,0-.26,0m85.06-.1a.32.32,0,0,0-.1.59,1.25,1.25,0,0,0,1,.2c.3-.2.35-.49.1-.69a.93.93,0,0,0-.58-.17,1.7,1.7,0,0,0-.46.07m-173.23.39c0,.3.34.5.74.4s.74-.2.74-.49-.35-.5-.74-.5-.74.3-.74.59m259.72-.79c-.1.2.1.5.45.59s.65.11.74-.09a.61.61,0,0,0-.44-.6,1.13,1.13,0,0,0-.3,0,.59.59,0,0,0-.45.14M565.63,166c-1.09,1.09-.94,2.18.24,2.38a6.11,6.11,0,0,0,4.12-1.89c1.09-1.19.94-2.17-.25-2.37h-.21a6,6,0,0,0-3.9,1.89m223-3c0,.19.2.29.49.29a.47.47,0,0,0,.45-.29c0-.3-.25-.3-.49-.3s-.5.2-.45.3m252.84-1.19c0,.1.2.2.4.29s.39,0,.39-.09-.15-.3-.35-.4-.44,0-.44.2m-126.27-.2c-.25.1-.3.3-.15.4a.58.58,0,0,0,.65.2c.24-.11.34-.3.24-.4a.76.76,0,0,0-.53-.24.52.52,0,0,0-.21,0M546.51,163.4c-1.24,1.19-1.24,2.38,0,2.48a5.64,5.64,0,0,0,4.31-1.88c1.24-1.19,1.24-2.18.05-2.48h-.2a6.86,6.86,0,0,0-4.11,1.89m327-2.38c-.25,0-.3.2-.25.3s.3.2.55.2.34-.2.24-.39a.5.5,0,0,0-.36-.15.53.53,0,0,0-.18,0m191.81-.29h0Zm-70.35.1c-.14.19-.09.39.25.59a1.32,1.32,0,0,0,.89,0c.2-.2.1-.49-.24-.59a.91.91,0,0,0-.49-.15.58.58,0,0,0-.41.15m-20.4-.1c-.25.1-.2.29,0,.49a1,1,0,0,0,.88.1.33.33,0,0,0,0-.59,1.81,1.81,0,0,0-.56-.12.46.46,0,0,0-.33.12m-164.77-.4a.35.35,0,0,0,.45.1c.25,0,.44-.1.39-.3s-.2-.2-.44-.2-.4.2-.4.4m-280,.3c-.64.5-.74,1-.24,1.19a3,3,0,0,0,1.93-.89c.59-.5.69-1,.25-1.09l-.17,0a3.09,3.09,0,0,0-1.77.81m483.34-.89c-.14.19.05.49.45.59a.8.8,0,0,0,.94,0c.1-.2-.1-.59-.44-.69a1,1,0,0,0-.45-.11.62.62,0,0,0-.5.21m-60.58-.5c-.2.1-.25.3,0,.5a1.12,1.12,0,0,0,.79.1c.2-.2.25-.4,0-.5a.74.74,0,0,0-.49-.16,1,1,0,0,0-.35.06m100.66-1.19a.18.18,0,0,0,.15.1h.15c0-.1-.1-.19-.2-.19s-.15,0-.1.09m-24.37-.39a.55.55,0,0,0,.44.49c.25,0,.5,0,.5-.1s-.15-.39-.4-.49a.52.52,0,0,0-.21,0,.38.38,0,0,0-.33.14m-198.7-.5a.55.55,0,0,0,.45.2c.2-.1.34-.2.34-.3a.51.51,0,0,0-.44-.2c-.25.1-.35.2-.35.3m-316.7.1c-.34.3-.44.59-.19.7a2.08,2.08,0,0,0,1.09-.5c.35-.3.44-.5.25-.6l-.16,0a1.88,1.88,0,0,0-1,.42m377.58-.7a.21.21,0,0,0-.19.3c.1.1.24.1.44.1a.21.21,0,0,0,.2-.29.31.31,0,0,0-.28-.14l-.17,0m38.84-.19c-.2.1-.29.19-.15.39a.71.71,0,0,0,.65.1c.2-.1.25-.3.09-.39a.32.32,0,0,0-.32-.17.64.64,0,0,0-.27.07m111.51-1.59c0,.1.15.2.25.3s.24,0,.24-.1a.22.22,0,0,0-.24-.2.24.24,0,0,0-.13,0,.21.21,0,0,0-.12,0m-57.91-.29c-.15.1-.1.29.1.49a.83.83,0,0,0,.69,0,.3.3,0,0,0-.1-.49.83.83,0,0,0-.36-.08.64.64,0,0,0-.33.08m17.88-.2c-.09.2,0,.39.25.49s.65.2.79,0,0-.39-.29-.49a.51.51,0,0,0-.34-.12.77.77,0,0,0-.41.12m-296.48,0c0,.1,0,.2.25.2a.53.53,0,0,0,.49-.3c0-.1,0-.2-.25-.2a.55.55,0,0,0-.49.3m-21.45.1c-.15.2.05.39.35.49a1.32,1.32,0,0,0,.94-.49c.15-.3,0-.5-.35-.5a1.13,1.13,0,0,0-.94.5m166.25-.6c.05,0,.15.1.3,0s.15,0,.15-.1-.15-.1-.25-.1a.22.22,0,0,0-.2.2m-351.23-.2s-.09.1,0,.1.15-.1.25-.1,0-.09,0-.09,0-.05-.05-.05-.12.07-.2.14m465.37-.09c-.16.09-.16.19,0,.29a.52.52,0,0,0,.54,0c.1,0,.1-.2,0-.29a.67.67,0,0,0-.29-.08.44.44,0,0,0-.25.08m-237.64.19c0,.1.05.2.25.2a.44.44,0,0,0,.45-.3c0-.09-.1-.2-.25-.2a.61.61,0,0,0-.45.3m-63.8.3c-.2.4,0,.69.39.69a1.62,1.62,0,0,0,1.19-.59c.25-.4.1-.7-.34-.7h-.18a1.31,1.31,0,0,0-1.06.61M1017,153.1c0,.2.1.4.39.49a.5.5,0,0,0,.65,0c.1-.2-.1-.49-.35-.59a1.12,1.12,0,0,0-.35-.06.35.35,0,0,0-.34.16m-375.25.1c-.4.39-.25.89.35.89a2.46,2.46,0,0,0,1.63-.79c.35-.5.2-.89-.34-.89a2,2,0,0,0-1.64.79m105.62-.6c0,.2.09.3.29.3a.38.38,0,0,0,.4-.3c0-.09-.1-.19-.3-.19a.45.45,0,0,0-.39.19m159.81-.49c-.11,0-.16,0-.11.1s.15.1.25.1.15-.2.15-.2a.22.22,0,0,0-.15-.08.19.19,0,0,0-.14.08m143.21-.8a.16.16,0,0,1,.14.11v-.11s0-.09-.09-.09,0,.09,0,.09m-281.87-.09c0,.09,0,.09.15.09s.19,0,.19-.09,0-.1-.19-.1-.15.1-.15.1m174.42.2h.4s.1-.2,0-.2a.51.51,0,0,0-.39-.1.33.33,0,0,0,0,.3m-321.2.49c-.5.5-.3,1,.3,1a2.32,2.32,0,0,0,2-.89c.45-.59.35-1-.29-1.09a2.91,2.91,0,0,0-2,1M1030,151c0,.2.16.29.3.4s.45,0,.45-.11-.2-.29-.39-.39-.36,0-.36.1m-161.93-1s-.05.1,0,.1,0,.09.1,0,.1,0,0-.1Zm-265.13.1c-.39.39-.34.79.1.79a1.79,1.79,0,0,0,1.54-.7c.44-.39.39-.69-.06-.79h-.14a2.43,2.43,0,0,0-1.44.71m186.31-.79c-.1,0-.15,0-.15.09s.05.1.11.1a.21.21,0,0,0,.19-.1c0-.07,0-.14-.07-.14a.15.15,0,0,0-.08.05m201.47-.8c0,.1,0,.2.1.3s.35.1.4,0,0-.2,0-.3a.6.6,0,0,0-.26-.07.25.25,0,0,0-.19.07m49.15-.2s.09.1.19.1.15.1.15,0-.1-.19-.2-.19-.14,0-.14.09m-33.64-.2c-.1.11.05.3.2.4s.39,0,.44-.1,0-.19-.19-.3a.78.78,0,0,0-.26-.07.29.29,0,0,0-.19.07m-32.94-.09a.31.31,0,0,0,.39,0c.1,0,.1-.1-.05-.2a.45.45,0,0,0-.34-.1.19.19,0,0,0,0,.3m-51.42-.6c-.06,0-.06.1-.06.1H922s.09-.1,0-.1Zm-112.7-.2c0,.1,0,.1.1.1a.18.18,0,0,0,.14-.1.18.18,0,0,0-.14-.09s-.1.09-.1.09m-224.66.6c-.64.59-.69,1.19,0,1.19a3,3,0,0,0,2.18-.9c.6-.59.65-1.09.05-1.18l-.2,0a3.16,3.16,0,0,0-2,.91m434.8-1a.51.51,0,0,0,.3.39c.24.1.39.1.44-.09s-.15-.3-.35-.4a.34.34,0,0,0-.16,0,.26.26,0,0,0-.23.14m-64.85-1c-.1,0-.1.19,0,.19s.2.11.3,0,.1-.09,0-.19Zm91.89-.79h0Zm-478.28.19c-.2.2-.25.4-.1.4s.49,0,.74-.3.25-.29,0-.4a2.49,2.49,0,0,0-.69.3m461.69-.39c0,.09.15.2.24.2s.16,0,.16,0a.21.21,0,0,0-.2-.2.23.23,0,0,0-.14-.08s-.06,0-.06.08m-201.27-.1c0,.1.05.1.15.1s.1-.1.1-.1,0-.1-.1-.1a.18.18,0,0,0-.15.1m106.55-2h.1l-.1-.1Zm61.33-.1c0,.1,0,.19.1.3h.25c0-.11,0-.2-.1-.3Zm-15.21-.4c-.05,0,0,.1,0,.2h.25c0-.1,0-.1,0-.2s-.09-.08-.12-.08-.08,0-.13.08m55.93,0s.1.1.15.1h0l-.1-.2c-.1,0-.1,0-.1.1m-27.64-.1a.24.24,0,0,0,.2.3c.15.09.34.09.34,0s0-.2-.25-.3a.21.21,0,0,0-.16-.07.13.13,0,0,0-.13.07M847.15,142h0Zm-295.54.1c-.59.49-.69.9-.3,1.09a3.81,3.81,0,0,0,1.74-.69c.59-.5.74-1,.35-1l-.18,0a3.48,3.48,0,0,0-1.61.61M1020.24,141s.1.1.2.2a.14.14,0,0,0,.2,0c0-.1-.11-.2-.2-.3s-.25,0-.2.1m-55.63-.2h0m63.55-1.68s.16.1.2.1h.1c0-.1-.1-.1-.14-.2s-.16,0-.16.1m-315-.1c0,.1,0,.1,0,.1s.2,0,.2-.1,0-.1-.05-.1-.2,0-.2.1m19.62-.1c-.05,0,0,.1.15.1s.15-.1.2-.1,0-.1-.1-.1-.2,0-.25.1m-39.13-.2c-.05.1,0,.1,0,.1s.19,0,.24-.1,0-.1-.1-.1a.19.19,0,0,0-.19.1m-156.55,0c-.29.2-.34.4-.19.5a1.71,1.71,0,0,0,.84-.3c.3-.3.4-.5.25-.5l-.13,0a1.76,1.76,0,0,0-.77.32m215.59-.39h-.09l.05.09s.09-.09.09-.09Zm194.09-.2v0ZM674.47,138c-.05.1-.05.1.09.1s.3,0,.35-.1.05-.2,0-.2a.57.57,0,0,0-.39.2m326-.79s.05.09.1.09,0,.11.1,0a.09.09,0,0,0-.1-.09Zm-12.93-.3s-.05.1,0,.1h.1l-.05-.1Zm-331.8-.1c0,.1,0,.2.1.2s.24-.1.34-.1c.06-.2.06-.3-.05-.3a.62.62,0,0,0-.39.2m355.58-.2c0,.1,0,.1.1.2h.15c0-.1,0-.2-.15-.2Zm21.8,0,.1.1h0l-.1-.1Zm-241.6-.4h.1l0-.09Zm181.31-.49h0Zm46.77-.3a1.39,1.39,0,0,0,.24.2c.05,0,.1,0,.1-.1a.53.53,0,0,0-.2-.19c-.1,0-.14,0-.14.09m-381.84-.19c-.15.1-.1.19,0,.19s.3,0,.35-.09.09-.2,0-.2a.46.46,0,0,0-.35.1m387.58-1.59a.1.1,0,0,0,.1.1h0s0-.1-.1-.1Zm-405-.39c-.15.19-.15.29,0,.29a.79.79,0,0,0,.6-.2c.14-.19.14-.3,0-.3a1.4,1.4,0,0,0-.6.21M1003.2,132l0,.09V132Zm-10.8-.1h0Zm19.37-.5s.05.1.09.1h.06l-.06-.1Zm-407.9-.49c-.24.2-.24.39,0,.49a2.11,2.11,0,0,0,.85-.4c.25-.19.29-.39.09-.49a2.13,2.13,0,0,0-.94.4m414-.6c.05,0,.05.1.1.1h.1c-.05-.1-.1-.1-.15-.2s-.05,0-.05.1m3.57-1.58h0Zm-432.72-.6c-.09.1-.09.2,0,.2s.21-.1.3-.1.15-.2,0-.2a.37.37,0,0,0-.3.1M1015,125.56h.05s-.05-.1-.1-.1Zm-440.59-.5c-.15.1-.2.1-.1.1a.38.38,0,0,0,.3-.1c.1-.1.14-.2.05-.2a.7.7,0,0,0-.25.2m442-.89h0v0m-346-2.77,0,.09h.1v-.09ZM1011,121l0,.1V121Z"/></clipPath><linearGradient id="b" x1="-2252.27" y1="1455.26" x2="-2251.71" y2="1455.26" gradientTransform="matrix(1717.54, 0, 0, -1717.54, 3868361.74, 2499739.49)" gradientUnits="userSpaceOnUse"><stop offset="0" stop-color="#ffe53b"/><stop offset="1" stop-color="#ff2525"/></linearGradient></defs><title>dot-wave</title><g class="b"><rect class="c" width="961.69" height="538.87"/></g></svg>