<svg id="Layer_1" data-name="Layer 1" xmlns="http://www.w3.org/2000/svg" viewBox="0 0 925.32 664.76"><defs><style>.cls-1{fill:#6e6e6e;}.cls-2{fill:#707070;}.cls-3{fill:gray;}.cls-4{fill:#7f7f7f;}.cls-5{fill:#7d7d7d;}.cls-6{fill:#727272;}.cls-7{fill:#7a7a7a;}.cls-8{fill:#7b7b7b;}.cls-9{fill:#838383;}.cls-10{fill:#7e7e7e;}.cls-11{fill:#7c7c7c;}.cls-12{fill:#818181;}.cls-13{fill:#757575;}.cls-14{fill:#767676;}.cls-15{fill:#747474;}.cls-16{fill:#797979;}.cls-17{fill:#828282;}.cls-18{fill:#f8f8f8;}.cls-19{fill:#777;}.cls-20{fill:#787878;}.cls-21{fill:#737373;}.cls-22{fill:#f7f7f7;}.cls-23{fill:#717171;}.cls-24{fill:#f6f6f6;}.cls-25{fill:#6f6f6f;}.cls-26{fill:#8e8e8e;}.cls-27{fill:#f2f2f2;}.cls-28{fill:#848484;}.cls-29{fill:#858585;}.cls-30{fill:#d6d6d6;}.cls-31{fill:#a5a5a5;}.cls-32{fill:#878787;}.cls-33{fill:#6a6a6a;}.cls-34{fill:#696969;}.cls-35{fill:#656565;}.cls-36{fill:#686868;}.cls-37{fill:#676767;}.cls-38{fill:#fefefe;}.cls-39{fill:#fdfdfd;}.cls-40{fill:#fcfcfc;}.cls-41{fill:#6c6c6c;}</style></defs><title>global reset</title><path class="cls-1" d="M664.57,279.14,613,249.21c-.62-1.33-2.77-1.15-3-2.92,7.67-2.43,7.7-2.43,7.75-11.95,0-2.65.95-5.48-1.12-7.85a3,3,0,0,0,.75-1.31c-.1.07-.43,1.19-1.4,1.6-2.2.61-4.86.8-5.48-1.6-.75-2.89-3.77-5.91-.62-9.13,24,13.13,47.57,27,71.2,40.84,2.75-.14,1.22-1.75,1-2.91q-30.31-52.81-60.74-105.57c-1.95-3.36-2.09-6.06-.2-9.23,3.66-6.15,7.74-12,11.89-17.86,2-2.86,3.12-2.1,4.55.39q15.91,27.71,31.94,55.35,18,31.11,36,62.19a10.51,10.51,0,0,0,4,4.57c.22-4.09.58-7.82.59-11.55q.17-73,.26-146c0-7.83.52-15.65.63-23.48A4.52,4.52,0,0,1,714.51,58c5.66-1.94,11.38-3.77,16.87-6.13,4.16-1.8,4.66-.27,4.68,3.45.17,26.83.59,53.66.73,80.48.18,34.66.16,69.33.25,104,0,1.28.12,2.56.22,4.43,4.06-2.22,5.41-6,7.2-9,17.06-29.15,33.6-58.6,50.88-87.61,17.53-29.45,34.4-59.27,51.54-88.94,1.68-2.91,3.5-3.51,6.42-2.58A128.78,128.78,0,0,1,868.68,62c3.85,1.8,4.72,3.64,2.35,7.52-5,8.23-9.35,16.86-14.34,25.1-18.12,29.89-34.77,60.63-52.36,90.82-13.9,23.87-27.44,47.94-41.14,71.93a2.36,2.36,0,0,0-.44,2.38c2.21.77,3.73-.9,5.35-1.82q46.18-26.32,92.31-52.75c24.85-14.22,49.65-28.51,74.55-42.64,5.63-3.19,10.7-7.38,16.89-9.58,1.43-.54,3-.78,4.15-2a3.37,3.37,0,0,1,4,2.24c2,5.29,4.93,10.17,6.56,15.63.88,3,.15,4.8-2.3,6.3-4.26,2.59-8.46,5.3-12.78,7.8q-38.38,22.29-76.82,44.5-46.41,26.92-92.75,54c-1.65,1-3.47,1.89-4.54,4.63,4.4.22,8.45.55,12.5.59q86.73.9,173.46,1.73c7.78.08,7.78.13,5.45,7.66-5.36,17.3-5.36,17.24-23.33,17.31q-81.24.32-162.48.76c-2.43,0-5-.55-7.74,1,1.54,2.16,3.73,3.22,5.76,4.38,15.15,8.69,30.36,17.29,45.47,26,4,2.31,7.72,5,11.56,7.58,1.14,1.05,2.68,1.27,4,1.93,13,6.64,25.49,14.28,38.09,21.66,5.74,3.36,11.44,6.78,17.22,10.07,2.44,1.38,3.23,2.42.58,4.61a107.36,107.36,0,0,1-19.22,12.43c-3.38,1.76-6.11,0-8.85-1.55q-30.47-17.52-60.92-35.09c-15.14-8.7-30.31-17.32-45.47-26-.85-.48-1.61-1.22-3.33-.57,5.8,12.62,13.74,24,19.91,36.35a19,19,0,0,0,4,7.08c.66,1,1.33,2,2,3.07.28.84-.19,1.36-.9,1.32-1.89-.11-3.22-1.78-5.8-.3-2.2,1.27-1.42-2.52-2.31-3.75-3.88,1.4-7.17,1.46-9.29-2.88-1.19-2.43-4.17-3-5.4-1.35-3.14,4.33-6.85,2.35-10.51,2-5.55-9.12-11.62-17.93-15.88-27.79-.19-.64-.41-1.36-1.1-1.55-1.17-.32-3.2,1.44-3.34-1.28a3.26,3.26,0,0,1,3.08-3.39c3.79,0,4.37-2.05,4-5-.39-3.5-2.73-4.69-5.92-4.79-1.66-.05-3.33,0-5-.09-2.11-.17-12.59-10.32-12.85-12.41-1.31-10.53-1.31-10.53-11.38-11.59-1.17-.12-3.06-.11-3.19-1-.93-6.31-9.12-6.39-10.38-12.38-.28-1.3-1.72-2-3-2.36a5.45,5.45,0,0,1-4.3-4.33c-.29-1.14-.88-2.42-2-2.76-7-2.2-7.54-9-9.89-14.29-1.4-3.15-4.25-1.59-6-3.14,2.93,1.24,5.4,2.74,6.29,6.07.64,2.42.08,4-2.37,4.5-1.41.27-3.4.38-2.17-2.23C667.34,280.34,666.22,279.6,664.57,279.14Z" transform="translate(-44.81 -51.16)"/><path class="cls-2" d="M664.57,279.14c4-.19,3.3,2.28,2.45,4.81,2.06-.36,4.35-.79,2.84-3.26-.85-1.39-.79-4.66-3.9-3.67a2.69,2.69,0,0,1-3.05-.88c-1.32-1.31.39-1.93.74-2.89,1-2.67,1.89-.25,2.81-.05a24.49,24.49,0,0,0,2.85.76c2.19.21,5-.24,2.45,3.41-.83,1.19.57,1.69,1.07,2.44,1.46,2.21,3.3,4.21,3.23,7.13a1.78,1.78,0,0,0,1.77,2,14.92,14.92,0,0,1,1.5.13c4.13.8,3.49,5.52,5.62,7.18,2.37,1.85,6.51,1.63,7,5.79.23,2,.86,2.93,3,3a4.84,4.84,0,0,1,4.85,4.27c.21,3.75,2.29,3.81,5,3.68,1.66-.08,3.33,0,5,0,4,.07,6.12,2.13,6.26,6.14.06,2,.07,4,0,6-.09,2.22.16,3.83,3.07,4a4.8,4.8,0,0,1,4.73,4.38c.23,3.37,2,3.71,4.6,3.54,1.66-.11,3.33-.06,5,0,5.88.19,9,6.15,5.76,11.05-.24.35-1.36,4.73-3,.5a9.4,9.4,0,0,0-4.52,3.34c1.86.45,5-1.21,4.26,2.42-1.93-1.33-2.35.08-2.43,1.5-.19,3-.23,6-.26,9-.17,16.65-.4,33.31-.43,50,0,4-1.22,5-5,3.43-6-2.5-12.07-4.77-18.18-6.93-2.8-1-3.56-2.74-3.8-5.59-1.32-15.64-.39-31.3-.75-46.94a17.7,17.7,0,0,0-.55-5C696,364.41,690.83,377,683.11,388c-1.59,1.68-3.49.9-2.37-.81,2.69-4.13-.1-8.64,1.78-12.61.44-.91-.52-.37-.78-.55-4.23-2.83-9-2-13.55-1.56-2.51.23-3.93,2.08-2.89,5.22.84,2.5-.07,4.35-3.32,3.29-4-2.1-4.75-4.51-2.1-8.71,6-9.56,11.5-19.48,17.15-29.28a10.42,10.42,0,0,0,1.52-6l-16.92,9.8c-5.76,3.34-11.57,6.6-17.24,10.07-3,1.86-5.23,1.34-7.23-1.45-3.5-4.86-7.07-9.67-10.62-14.49-2.36-3.22-2-5.33,1.83-7.44,10.78-5.89,21.33-12.19,32-18.37,1.55-.9,3-2,4.76-3.15-1.86-1.94-4-1.31-5.76-1.32-15-.09-30-.16-45,0-3,0-4.53-.91-5.47-3.71-2.12-6.3-4.32-12.58-6.77-18.76-1.57-4-.48-5.18,3.69-5.38,16.81-.83,33.63-.32,50.45-.52,2.5,0,5,0,7.49-.13C667.09,282,665.72,280.53,664.57,279.14Z" transform="translate(-44.81 -51.16)"/><path class="cls-3" d="M408.83,635c3,5.33,3.33,11.65,6.17,17,.64,1.3.94,2.77,1.86,3.94,2.62,6.74,5.3,13.46,7.83,20.23a46.15,46.15,0,0,1,1.37,5.77c-.65,2.82,1.73,4.88,1.7,7-.71-1.33,2.29-2.22,1.22-4L434,671a41.76,41.76,0,0,0,1.88-5.19c.43-3.73,2.23-6.93,3.88-10.19,2,1.49,1.56-.47,1.84-1.31,3.79-11.51,8.53-22.65,13.37-33.74.59-1.35,1.15-2.82,3-3,5.26,0,10.53.2,15.77-.07,4.07-.21,7.63-.05,9.14,4.57q-.15,36.22-.33,72.45c0,5.16-.25,10.32-.39,15.48A38.12,38.12,0,0,1,463,710c-.48-9.33-1.15-18.64-.78-28,.89.09,1-.19.95-1.14-.24-12.08.15-24.17-.86-36.48-1,2.62-2.9,4.74-3.29,7.59a208.93,208.93,0,0,1-8.92,24.13,1.52,1.52,0,0,1-.51-1.31c-.29.07-.06.31-.14.44-2.19,3.23-2.11,7.17-3.4,10.69l-.25.21-.32,0c-2.35,4-4.92,8-5.32,12.86-.12,1.52-1,2.81-1.17,4.29s-.91,3-2.31,2.73c-2-.38-.91-2.35-1.09-3.64,0,2.24-.68,4.77,2.49,5.66-.11,2.67-1.11,4.36-4.16,4.32-2.13,0-4.26.35-6.4.43-9,.33-10.81-1.19-12.58-10.45-1.12-2.73-1.15-5.9-3.33-8.19-.94-2.67-1.87-5.33-2.81-8a3.08,3.08,0,0,1,3.45-2.84c2.14,0,3.69-.75,3.16-3.24-.49-2.32-2.2-2.43-4.25-2.22-4.51.48-4.28.28-5-4.89a20.89,20.89,0,0,0-2.34-5.8c-2.71-5.31-4.49-11-7.44-16.19a20.11,20.11,0,0,0-3.73-6.55c-.62,17.76,0,35.07-2.41,52.22.19.67,1.24,0,.57.07,0,0-.06-.06-.07-.2a34.61,34.61,0,0,1,.36-10.31c.22-1.1.22-2.45,2-2.17,0,8.28-.17,16.57-.09,24.86,0,2.63-1,3.42-3.51,3.45-3.8,0-7.62.31-11.4.73-3.28.36-4.68-.7-3.86-4.06.87-1.91.32-3.93.32-5.89q.07-40.1,0-80.2c0-1.3.4-2.65-.32-3.9-.45-2.84,1.54-1.82,2.88-1.83a169.79,169.79,0,0,0,23.87,0c3.39,4,3.24,9.64,6.06,13.94A32.34,32.34,0,0,0,408.83,635Z" transform="translate(-44.81 -51.16)"/><path class="cls-3" d="M352.84,712c-6.41,2.29-12.84.35-19.24,0-1.64-.08-1.38-2-1.39-3.29q-.13-16.37-.22-32.72c2.58.49,1.38,2.54,1.44,3.88.32,7.38-.41,14.78.19,19.61.22-16-1.06-34.56-.84-53.21-3,.9-1.42,3.17-1.81,4.79-3.7,3-3,8.31-6,11.7-1.68-.24-1.67,1-2,2.12-1.12,3.71-2.18,7.46-5,10.35a1.48,1.48,0,0,1-1.62-1.26c-.93,3.1.53,6.53.76,10.08-3.17,9.5-5.91,19.18-11.13,27.86-3.31-.68-7,1.51-10-1.36-.57-.23.24-1.9-1.3-1.2a6.61,6.61,0,0,1-5.32.28,2.23,2.23,0,0,1-.89-1c-1.58-6.37-4.62-12.23-5.77-18.88-.67-3.91-4.29-7.55-5.56-11.84-.7-2.33-2.23-4.37-1.73-7.09.42-2.28-1.79-.86-2.61-1.47-3.12-5.81-4.63-12.25-7.19-18.28-.48-1.13-.1-3.31-2.51-2.84-1.15-1.15-.11-2.13,0-3.17-1.49,7.36-1.25,14.83-.89,22.26.64,13.27.12,26.53.29,39.79.05,3.49-1.69,5-5.27,5-2.74,0-5.5-.93-8.23,0l-.48.1-.47-.14c-3.61-.46-3.49-3.18-3.49-5.81q0-22.23,0-44.46c0-11,0-22,0-33,0-1.61.55-3.33-.58-4.83.46-2.84-3-8.05,4.15-6.81a23.53,23.53,0,0,0,8.89,0c14.94-.78,14.94-.78,20.37,13.16.71,1.82,1.79,3.53,1.75,5.59a12.34,12.34,0,0,0,1.52,6.74c2.73,5.17,4,10.85,6,16.28-.34-1.69-2.27-3.17-.51-5.09A16.42,16.42,0,0,1,289,662c-1.24,2.63,1.51,4,1.95,6.22.68,3.35,2.39,6.46,2.71,9.94-.13-1.13-.6-2.26.38-3.26a22.56,22.56,0,0,1,3,9c0,1.18.18,2.61,1.35,2.84,1.42.28,1.58-1.44,1.92-2.34.78-2.08,2-4.12,1.5-6.5a57,57,0,0,1,5.05-14.16c.67-.35.53,1.85.94.58,2.47-7.69,6.1-14.91,8.84-22.48.48-1.33-.71-.44-.81-.87a75.2,75.2,0,0,1,6-15.3c2.07-.44.81-1.83.82-2.86.45-.94.9-1.87,1.34-2.81a4.52,4.52,0,0,1,1.84,2.25c.09.66.9,0,.31.35-.11.07-.16-.06-.23-.37-.47-2.21-1.54-5,2.59-2.58,2.83-4.28,7.1-1.54,10.66-2,4.2-.6,8.53.33,12.78-.44,1.39.37,1,1.54,1,2.44q0,45.69-.14,91.4c-3.68,1.16-7.49,0-10.66.56C345.36,711.73,349.12,711,352.84,712Z" transform="translate(-44.81 -51.16)"/><path class="cls-4" d="M135.54,565.19c-1.63-4.89-3.12-9.83-4.54-14.78-2.5-8.75-4.41-17.83-14.39-22.44,5.91-2.8,10.83-5.5,13.42-10.94h0v0a36.43,36.43,0,0,1,.73-3.57,46.94,46.94,0,0,0,1.35-6.63,2.09,2.09,0,0,0,1.09,1.59,4.72,4.72,0,0,0,.61-1.34c1.95-21-9.52-29.28-26.65-31.92-16.46-2.53-33.26-.58-49.9-1.15-4.87-.17-5.69,1.6-5.66,5.95.16,29.31.08,58.63.08,87.95a1.74,1.74,0,0,0,2.43.1l0,0,.14-.11a5.59,5.59,0,0,0,.22-2.11,2.2,2.2,0,0,0,1.28,2,4.22,4.22,0,0,0,.87.29,45.78,45.78,0,0,0,6.82.6c2.4,1.07,5.09.52,7.52,1.4,3.29,0,1.91-2.54,1.93-4,.16-10.53.15-21.07.19-31.61.33-1.22,1.34-1.36,2.33-1.37,5.46-.08,10.93-.34,16.36.08,5,.39,9.84,1.63,12.65,6.52.09.12.19.24.27.36a1.09,1.09,0,0,1,.13.17.71.71,0,0,1,.1.14c.24.32.46.66.67,1h0c2.51,4,3.41,8.75,5.25,13.07a9.63,9.63,0,0,1,.7,2.19c-.31-.8-.11-2.14-1.69-1.58.2,4.44,2.43,8.26,3.77,12.34.61,1.88,2,2.45,3.88,2.45,5,0,10,0,15,.14C136.35,570,136.55,568.2,135.54,565.19ZM54.9,478.64h0l0,.06a3.74,3.74,0,0,0-.42,1.3C54.43,479.5,54,478.81,54.9,478.64ZM54.54,559c0,1.22,0,2.27-.06,3.18q0-39.75,0-79.5c0,.34,0,.68,0,1Q54.48,521.32,54.54,559Zm19-66.06c0-.29.38-.53.59-.79l27.54,0c2.48,1.2,5.42,1.55,7.27,3.91,1.67,6.54,2.43,13-2,18.86a15.51,15.51,0,0,1-10.64,3.29c-6.62-.17-13.25-.08-19.87-.15-1.42,0-3.36.29-3.34-1.92C73.18,508.38,72.35,500.62,73.58,492.9Z" transform="translate(-44.81 -51.16)"/><path class="cls-3" d="M429.13,392.43c-.39-.69,1,.22,1.15-.46-1.69-5.89-8.65-11.54-14.89-12.09-1.57-1.87-4.92-.59-6.22-3.27,6.25-2.71,13.1-4.13,16.06-11.14,0-.09.64.48.49.57-.34.22.18.3.45.32,8.84-14.07-.95-32.86-18.31-34-18.58-1.18-37.23-.9-55.86-.42a6.23,6.23,0,0,0-.57,1.12,6.58,6.58,0,0,0-.43,1.83,2.28,2.28,0,0,0,0,.26,15.1,15.1,0,0,0-1-3.22l-2,.28c-.73,1-.47,2.24-.47,3.37q0,41.79,0,83.57c0,2.6-.57,5.27.4,7.84h0a154.51,154.51,0,0,0,26.08,0h0l-.06.05c1.63-1.21,3.5-.55,5.25-.6,10.34-.28,20.7.45,31-.41a16.6,16.6,0,0,0,10.91-5c.24-2.07,2.52-2.73,3.17-4.22a15,15,0,0,1,.92-1.73c1.24-2,2.81-3.84,3.67-5.92C431.23,403.83,432.38,398.09,429.13,392.43Zm-30.48,19.39h0l-3.66.27c-7.31.05-14.63,0-22,.21-2.83.07-4.28-.57-4.18-3.82.22-7.46.14-14.94.18-22.41l3.34-.59a3.73,3.73,0,0,0,2-.35h1.31a13.42,13.42,0,0,0,3.77.41c7.18.55,14.4-.11,21.56.56,3.76,1.55,6.09,4.47,7.74,8C409.92,404.82,408,408.22,398.65,411.82Zm-44.73,12.7,3.87,0c-2.11.11-4.48.78-6.17-.3A5.86,5.86,0,0,0,353.92,424.52Zm32.09,0c.91,0,1.81-.05,2.67-.11C388.16,425,387,424.54,386,424.5Zm-7.61,0c1.3,0,2.6,0,3.88,0-7.8,0-15.61.06-23.4,0C365.39,424.45,371.9,424.5,378.4,424.48ZM401,349c2.87,1.54,4.2,4,4.61,7.18,1.12,8.65-1.18,11.93-10.59,14.79H370c0-6.44,0-12.89-.19-19.33-.1-3,.85-4.11,3.93-4,8.09.26,16.19.25,24.29.36A3.17,3.17,0,0,0,401,349Zm-49.7,69.75.09-.4a4.6,4.6,0,0,0,.06-.52,3.45,3.45,0,0,0,0-.72,13.37,13.37,0,0,1,0-2c0-23.48.09-47-.08-70.44,0-1.18,0-2.38,0-3.58,0,.24.08.48.1.72h0a0,0,0,0,1,0,0s0,0,0,0c.07.62.08,1.25.09,1.87q.07,36.23,0,72.45a18.22,18.22,0,0,1-.13,2.56,8.19,8.19,0,0,1-.47,1.86,4.18,4.18,0,0,0-.38,2.37C350.07,421.77,350.91,420.28,351.28,418.79Z" transform="translate(-44.81 -51.16)"/><path class="cls-3" d="M331.14,373.75a15.15,15.15,0,0,0,.07-6.89c-.07-.35-.15-.69-.25-1h0a31,31,0,0,0-2.31-5.83c-1.57-3.15-3.13-6.4-3.62-10,.17-2.39-1.47-3.71-3-5.11-2.16-.21-3.27-2-4.79-3.17l-.22-.16-.2-.14c-.87-.62-1.91-2.36-2.74-1.15-1,1.43-1.25,2.28-1.9.1-1.08-3.66-3.73-3.95-6.68-3.17a9.64,9.64,0,0,1-1.77.3,6.79,6.79,0,0,1-1.69-.05h0a9.07,9.07,0,0,1-4-1.6c-3.18-2.14-3.22-2.84.29-5-2.63-1.27-5.47-1.47-8.31-1.67-3.9,2.15-8.28-.76-12.17.92.2-.19.29-.49.13-1a39,39,0,0,0-14.18,2.8c-.49,2-2.43,2.05-3.82,2.79-6.38,3.42-13.3,6.25-14.9,14.59-.09.49-.49-.31-.74-.49-.68-.47-1.3-1-2.22-.74-.66,1.31-2.22,2.05-2.29,3.71,0,.07-.05.13-.07.2l-.09.25h0c-.37,1-.72,2.07-1,3.11h0c-1.72,5.48-2.79,11-2,16.73-2.44,3.19-3,6-2.37,11s1.55,9.91,1.34,15c2.27,6.69,5.11,13.06,10.43,18,1.3.31,3.59-.43,3.69-.12,1.4,4.33,4.83,5.42,8.3,6.41.75.21,1.5.42,2.23.66l.59.18.09,0,.08,0,0,0,0,0c.57.39,1.15.75,1.73,1.08h0c.37.22.75.43,1.13.62h0s0,0,0,0l0,0,.13.07c.15.07.29.15.44.21.46.21.93.41,1.37.63a33.73,33.73,0,0,0,11,2.61,11.1,11.1,0,0,0-2.33.6,42.8,42.8,0,0,0,18.61,0,2.14,2.14,0,0,0-.92-.64A3.69,3.69,0,0,1,295,429c15-1.33,33.15-15.88,36-32a3.62,3.62,0,0,1-.39-4.23c2.46-4.42.94-9.16,1.47-13.71C332.26,377.21,330.65,375.76,331.14,373.75Zm-25.3,21c-.15,1.58-.07,3.25-1.6,4.31a29.23,29.23,0,0,0-5.07,6.43h0a4.14,4.14,0,0,0-4.1,2.5l-.17-.05c-1.69-.21-3.29.36-4.94.49-10,.79-19.72.88-26.45-8.67-3.21-4.56-4.12-9.71-5.06-14.95-.3-1.7.19-3.74-1.51-4.89,2.16-2.13,1.32-4.92,1.53-7.47-.15-1.68,0-3.37-.26-5a1.13,1.13,0,0,0,.36-.06,3.4,3.4,0,0,0,1-4.67c1.82-.09,2.69-1.51,3.5-2.85,3.31-5.49,8.52-7.88,14.41-9.7,5.61-1.72,10.8.58,16.18.62l.23-.07a2,2,0,0,0,1.16,1.31c5.47,2.76,8.67,7.34,10.57,13a3.43,3.43,0,0,0,1.16,1.9l0,.14C308.54,376.33,309,385.59,305.84,394.74Z" transform="translate(-44.81 -51.16)"/><path class="cls-3" d="M153,570c-3.37.63-2.89-1.79-2.9-3.72,0-11.48,0-23,0-34.44q0-28.89-.12-57.77a1.32,1.32,0,0,1,2-.15c22.6.07,45.2.12,67.8.28,1.45,0,3.95-1.44,4.19,1.78-2,.47-5.83-1.46-4.41,3.08a3.93,3.93,0,0,1,1.07-3.56c3.08,5.39.78,11.2,2.31,16.31-15.11.08-30.22.29-45.32.14-4,0-5.31,1.19-4.94,5.07.5,5.27-.51,10.61.59,15.87-2.9.47-2.66-1.29-2.48-3.28.39-4.43.15-8.9.44-13.34-.55,4.63.14,9.31-.61,13.94-.4,2.45.85,3.57,3.34,3.85a112.51,112.51,0,0,0,16.31.28c3.64-.11,7.2,1.34,10.8.26,1-.2,2.09,0,3.13-.2-.46,0-.91.12-1.38.08a6.32,6.32,0,0,0-2.36.22c-2,0-4.21,1-5.44-1.56a90.64,90.64,0,0,1,17,.78c2.91,3.83.82,8.23,1.5,11.76.38-3.46-.54-7.54.49-11.54,1.94,4.37.64,9,.8,13.44.05,1.54-1.48,1.53-2.62,1.54-2.63,0-5.26,0-7.89-.06-8.63.93-17.29.12-25.93.43-1.78.07-3.67-.61-5.32.59l.09-.09c-1.36,5-.27,10-.63,15-.14,1.93.49,4-.77,5.73.16.73-1.9-.16-.82.87,1.65,1.57,3.93,1.46,6.12,1.4,13.05-.32,26.08,1,38.19.43-5.49,0-11.92.08-18.36-.07-1.29,0-3.44,1.3-3.84-1.44,9.46.07,18.91.17,28.37.19,2.34,0,3.21.79,3,3.26a93.56,93.56,0,0,0-.06,10.46c.1,2.62-.58,3.91-3.57,3.91-20.92,0-41.84.1-62.76.18.51-2.56,2.57-1.39,3.89-1.41,8.44-.11,16.95.57,25.31-.24,7.76-.75,15.44.82,21.78.1-4.16,1.79-9.52-2.65-15-.75a11.6,11.6,0,0,1-1.5.43c-10.14.86-20.29.09-30.43.4C159,568.61,155.75,568,153,570Z" transform="translate(-44.81 -51.16)"/><path class="cls-3" d="M63.74,339.84c3.73-6.06,9.93-7.56,16.26-8.83,2.06.87,4-.93,6-.32a1.16,1.16,0,0,0,.1-.46c0-.13-.22-.23-.33-.34,1.6-1.11,3.4-1.06,5.22-.86a.64.64,0,0,1,0,.86c3.08.5,6.29-1,9.34.53,0,0-.88-.71-.31-1.3,15.85,1.25,28.05,8.11,35.1,22.86a1.33,1.33,0,0,1-1.75-.31c-.12.56.4.76.62,1.12,4.93,8,4,10.13-5.21,12.23a31,31,0,0,1-8.37.34c-3.23-3.35-4.61-7.59-5.63-12-.35-1.51-.13-3.15-.5-4.74-.81.63-1.28,1.57-2.25,1.93a4.53,4.53,0,0,1-4.21-.75C94.69,341.39,72,347.23,68.09,370c-.44,2.59-2.37,5.39,0,8.07l0,4c-1.93,4.44,0,8.74,1.18,12.73a26.35,26.35,0,0,0,14.25,16.74c2,.94,3.14,3,5.37,3.56.43.14.84.29,1.26.45,6.49,2.55,10.85-2.89,16.27-4.34,1.86-.49,3.2-3,5.72-1.06.52.39-.08-1.63.58-2.33a36.88,36.88,0,0,0,5.41-7.06c1.85-3.44,3.09-7,.18-10.6-4.33-1.07-8.49.74-12.75.63-2.41-.06-5.31,1.34-6.82-1.38-1.66-3-1.51-6.47-.83-9.76.32-1.56,2-1.54,3.34-1.54,11.33-.06,22.66,0,34,0,3,0,4.47,1.47,4.89,4.47.71,5.15.3,10.31.35,15.46.06,7.32.12,14.63.49,21.94.3,5.86-.2,6.12-6.24,6.09-1.9,0-3.94.39-5.66-1.05.52-1.84,1.86-1.31,2.86-1.39a14.53,14.53,0,0,0,2.22-.19c-1.06.83-3.5-.66-5.24.87.69,2.52,3.54,1.16,4.44,2.92-6,1.29-6,1.29-6.45-7,.93-3.75.21-7.44-.2-11.56-3.58,1.48-4,5.37-6.37,6.49.26-.43,1-.68,2,0-5.23,8.46-13.5,12.32-22.71,14.22a40.89,40.89,0,0,1-24.81-2.21c.82-1.46,2.84-.82,3.69-2.14.63-.33-.34-1,.07-.48,0,.06-.08.11-.28.28-2.91,2.43-5.48.84-8.1-.62-1.62-.91-2.85-2.94-5.2-2a22.42,22.42,0,0,1-9.2-9c-.29-3.5-2.87-5.9-4.22-8.88-3.12-6.89-6.28-13.83-3-21a1.45,1.45,0,0,1-.69,1.63c-.94.41-1.59-.51-1.62-1.35a61.12,61.12,0,0,1,2.46-20.13c.67-2.11,4-.67,4.84-3,.59-.32-.37-.88,0-.32.11.18,0,.26-.14.38-3,2.11-3-.19-2.8-2.06.26-2.75,2.06-4.87,3.44-7.13C56.21,346.57,61.6,344.59,63.74,339.84Z" transform="translate(-44.81 -51.16)"/><path class="cls-3" d="M537.09,422.93H537l-.15,0c-1.41-.35-1.71-1.48-2.14-2.77-1.82-5.45-3.44-11.05-5.83-16.22-6.1-13.22-10.32-27.13-15.82-40.56-4.25-10.38-8.37-20.81-12.1-31.39-8.67-.2-17.34-.61-26,.2a27.91,27.91,0,0,1-1.83,3.82c-5.66,14.71-12.47,29-17.11,44.06.06.15.2.33.17.46-2.92,11.3-7.69,21.94-12,32.72-.18.43-.77.56-1.29.57h0c-1.52,3.93-4,7.52-4.05,12-.23,2.19,1.46,1.7,2.59,1.72,4.26.07,8.52.11,12.77,0,2-.06,4.31.47,5.91-1.47,1-2.92,2-5.85,3.08-8.75,3.43-9.11,4.42-9.94,13.89-10,10.31,0,20.64-.78,30.9.86.49-.08-.53-2.19,1-.8A9.39,9.39,0,0,1,512,416c.82,2.68,1.62,5.38,2.49,8.05.48,1.43,1.06,2.88,3,2.92,5.8.13,11.61.34,17.41.35C538.21,427.31,539.09,425.76,537.09,422.93Zm-54-60.89c1.48-1.75,1-3.87,1.12-5.87v0c.54-.32,1.26-.52,1.56-1,.75-1.15.55-3.44,2.56-3,1.48.31,1.72,2.27,2.12,3.67.89,3.16,1.61,6.37,3.53,9.12a7.23,7.23,0,0,0,1.87,5.1c0,.05,0,.1,0,.15h0a10.75,10.75,0,0,0,2.05,5.86c.09,4.77,4,8.72,3,13.73L478,390l-1.73-.11c-1.35-1-1.16-2.46-1.17-3.86q2.45-8,4.91-16A20.31,20.31,0,0,0,483.08,362Z" transform="translate(-44.81 -51.16)"/><path class="cls-4" d="M350.9,550c.92,2.82,3.31,1.7,5.07,1.72,13.78.19,27.55.21,41.32.39,2.56,0,5.64-.28,5.78,3.72a19.34,19.34,0,0,1,0,8.53c.84,4-.42,5.53-4.83,5.48-21.62-.22-43.24-.13-64.86-.11-2.59,0-5.34.38-4.35-3.72.4-.73,3.45.18,1.27-2.23-.72-.79-.34-2.26-.33-3.42.28-25.82-.85-51.63-.49-77.46,0-.5,0-1,0-1.5.19-5.52,1-6.36,6.45-6.37,14.33,0,28.67,0,43,0,6,0,12,.11,18,0,3.47-.09,4.95,1.23,4.52,4.7a25,25,0,0,0,0,3c0,7.66-.78,8.54-8.22,7.39s-15,.29-22.43.38c-5.82.08-11.66.36-17.48-.33-2.65-.32-4.22.65-4.05,3.56.33,5.81-.12,11.61-.2,17.4,1.06,2,2.51,3.15,4.92,2.45,10.84,1,21.69.29,32.53,0,2.6-.08,4.83.3,6.44,2.52-.1,4,1.08,8.68-.65,11.74-1.88,3.35-7,1.34-10.67,1.57-8.29.52-16.61.48-24.92.68-2,0-4-.39-5.65,1.25-1.24-3,.73-2.8,2.69-2.77,7.47.11,14.95,0,22.42.07.67,0,0-.82.15-.17q0,.11-.45.12c-9.64,0-19.29,0-28.66,0,2.86,1.5,2.68,4.38,2.55,7.75C349.62,540.82,349,545.55,350.9,550Z" transform="translate(-44.81 -51.16)"/><path class="cls-3" d="M306,486.07c1.9,1,2.5,3.07,3.47,4.74,4.2,7.21,3.86,7.88-4.38,10.22-2,.55-4.24.83-6.1,1.8s-3.11.22-4.49-.72C290.07,493.25,282.87,489,273,489c-5.2-3.28-15.44,3.23-17.62,7.65-1.77,3.61,2.34,10,6.56,10.5,4.54,2.45,10.17,2.19,14.28,5.7l-.23.43c-.08.15-.16.29-.25.43,7.71.83,14.58,4.48,21.93,6.5,1.52.35,2.14,3.08,4.34,1.66,2.34.56,3.87,2.17,5.21,4a1.77,1.77,0,0,0,.24,1.42c6.31,7.12,5,15.48,3.94,23.82-.3,4.33-5.07,6.52-5.26,10.92a8.72,8.72,0,0,1-5.12,4.1c-6.61,2-13.08,4.56-20,5.45-7.37.94-14.44-1.09-21.63-2a1.45,1.45,0,0,1-1.43-1.13c-.09-.43.4-.91.39-.91-7,.53-11.38-4.39-16.47-7.81-2.11-1.14-2.35-4.26-5.06-4.76a3.64,3.64,0,0,1-1.75-3.06c.36-1.25.68-2.48-1.15-2.83a2.22,2.22,0,0,1,1-4.16,19.7,19.7,0,0,0,5.71-1.66,4.3,4.3,0,0,1,1.34,0c1.07.23,2.11.58,3.2.74,2.36-.12,4.65.56,7,.57,5.89,7.39,13.88,10.19,23,10.55,4.68.19,8.8-1.57,12.64-3.79,5.54-3.19,5.46-9.93.13-15.42.3-.69,1.14-.24,1.53-.73-2.67-.2-4.6-3.29-7.66-2-1-.21-2.17.1-2.91-.93-1.64-2-4.12-1.62-6.23-2.28-9.88-2.39-19.73-4.84-27.78-11.61a39.54,39.54,0,0,0-4.29-4.39l-.72-.78a25.93,25.93,0,0,0-2.06-4.28l.07.06c-1-1.56.41-3.61-1-5.09l.05.07c-1.15-5.16-.1-10.18,1-15.2l-.06.07a27.38,27.38,0,0,0,2-4.31c1.35-2,2.54-4.16,5.05-5,.57,0-.16,1.46.92.86,5.23-2.88,10.08-6.67,16.5-6.66.33,0-.57-.55-.64-1l4.09-1a41.44,41.44,0,0,1,12.43,0c4.68.35,9.41.49,13.54,3.19.28,1.77-.51,3.54-.07,5.32-.07.66.76-.11.1,0-.14,0,0-.14-.08-.45-.32-2.13.91-3.22,2.42-1.91,2.61,2.28,6.74,2.77,7.91,6.84C302.61,486.76,304.2,487.24,306,486.07Z" transform="translate(-44.81 -51.16)"/><path class="cls-3" d="M204.15,679c1.5-19.29.46-38.61.77-57.92,0-2.14-.52-4.7,3.14-3.89,5.63,1,11.35-.26,17,.67-1.18,17-.35,34-.55,51.06-.1,9.6-.87,19.07-4.24,28.16-2.82,6.46-7.87,10.55-14.2,13.24A23.47,23.47,0,0,0,194.7,713c-3.65,1.93-7.8.77-11.69,1.31-5.06.7-10.07-1.84-15.13-.16-6.64-.62-12-3.88-16.94-8.08a38.37,38.37,0,0,0-6.12-9.84c-1.07-1.32-2.12-2.43-2.12-4.29,0-.57,1.78-1.63-.24-1.93a2.09,2.09,0,0,1-1.46-1.18,7.27,7.27,0,0,1-1-4.3c.45-16.87-1.08-33.72-.38-50.6.16-3.84,1-7.56,1.23-11.37.18-3,2.67-3.92,4.92-5,5.06.05,10.14-.16,15,1.47l.12,57a1.15,1.15,0,0,1-1.43-.73c-1.1-5.41-.41-10.89-.47-16.34-.13-11.07,0-22.14,0-33.21q0,22.62,0,45.24c0,1.63-.31,3.34.77,4.8,1.38,2.07.39,4.32.69,6.17.49-1.08-.54-2.78.61-4.1,1.21,5.15,1.73,10.57,5.91,14.5a8.69,8.69,0,0,0,3.11,2.6l-.06,0c1.15,1.65,3.21,1.3,4.74,2.12,9.39,2,17.94.71,25.1-6.24,1.66,0,2.12-1.43,2.67-2.51a31.72,31.72,0,0,0,1.47-4.14c.39-1.13.36-3,2.43-1.65C205.72,681.28,206,679.45,204.15,679Z" transform="translate(-44.81 -51.16)"/><path class="cls-3" d="M558,632l-.06-3.57a9,9,0,0,1-.38-3.61,15.75,15.75,0,0,0,.33-6.3,1.39,1.39,0,0,1,.15-1.31l2,0c1.93.81,3.94.31,5.9.32q36.9,0,73.77,0c2.38.12,2.92,1.6,2.82,3.69-.11,2.36,0,4.72-.06,6.76,1.07-2.35-1.64-5.65,1.51-8-.05,3.66-.24,7.32-.1,11,.12,3.11-1.26,4-4.17,4-7.31.1-14.63.64-21.94.64-4.18,0-5.86,1.28-5.83,5.76.16,22.14-.1,44.28.06,66.42,0,4-.77,5.66-5.14,5.2-5.26-.56-12.07,1.36-15.45-1.75s-1-10.08-1.13-15.33c-.22-12.65-.15-25.3-.21-37.94,2.72.53,1.34,2.68,1.36,4,.18,8.8-.06,17.6.24,24.6.16-13.74-.69-29.27-.59-44.81,0-3.12-1.34-6.26.07-9.36a1.78,1.78,0,0,0-.17-1c-1.19-1.46-1.21-1.46-2.2,0a4.3,4.3,0,0,1-3.91,1.74c-6.77,0-13.56.61-20.31-.4-.66-.1-1,0-.33.06.08,0,.11.29.17.47a1.28,1.28,0,0,1-.82,1.07C561.29,634.52,558.81,635.11,558,632Z" transform="translate(-44.81 -51.16)"/><path class="cls-3" d="M439.91,493.33c-8.63-.4-17.26-1.11-25.89-1.07-4.28,0-5.63-1.43-5.19-5.4a25.24,25.24,0,0,0-.1-4c-.49-8.78-.49-8.79,8.1-8.78,24.6,0,49.21.17,73.81-.07,4.63,0,5.24,1.72,4.95,5.54-.95,12.46-.87,12.53-13.31,13.2-5,.26-10,.11-15,.24-1.69,0-3.84-.67-4.42,2-1.48,1.1-1,2.7-1,4.13.21,14.62.15,29.25,0,43.87-.06,6.79-1.42,13.53-.93,20.36.06.78.28,1.82-.91,1.92-1.37.12-1.56-1-1.57-2,0-5.12-.07-10.24,0-14.35C460,554.6,455.12,562.2,462,568c0,.66-.12,1.51-.87,1.54-6.07.27-12.15.49-18.23.62-2.35,0-1.91-1.7-1.72-3.18,1.32-1.39.86-3.14.86-4.76,0-19.12,0-38.25,0-57.38,0-3.17-.46-6.29-.71-9.43-.12-1.48-.1-3.4-3-4.41C440,491.83,440.56,492.36,439.91,493.33Z" transform="translate(-44.81 -51.16)"/><path class="cls-4" d="M545.17,695.88c2,.09,4.12-.87,5.69,1.13-1.71,2.91-.81,6.11-.79,9.15,0,3.66-1.45,4.93-5,4.91-2.68,0-5.61-1-8.06,1-11.5,1.06-23,.65-34.54.93-2.19.05-4.12,0-3.29-3.08,1.26-2.16,1-4.57.79-6.85-.35-4.34,1.87-6,5.77-6.74,2.76-.55,6.39,1,8.09-1.19,1.91-2.41.75-6.09.77-9.22.07-15.16,0-30.33.06-45.49.06-7.7-.56-8.37-8.1-8a14.23,14.23,0,0,1-3,.25c3.12.84,7.21-2.31,9.43,2.27-3-.06-6-.36-9-.13-3.72.29-5.66-.62-5.08-4.84a27.55,27.55,0,0,0,0-7.48c-.72-5.13,1.57-6.48,6.14-5.42,14,.58,27.93.6,41.89,0,3.77-.81,5.17.4,5.15,4.54-.06,13-1.06,14.05-15,13,1.76-2.62,4.47-.22,6.9-1.43-3.12,1-6.48-1.22-8.81,1.84-.39,18.25-.07,36.48-.17,54.71a4.09,4.09,0,0,0,.92,3.24c2,4.29,6.53.69,9.22,2.88-2,1.13-4.11.43-5.07.49C541,696.14,543.2,697.16,545.17,695.88Z" transform="translate(-44.81 -51.16)"/><path class="cls-3" d="M157,332.23a4,4,0,0,1,3-.29c1.25,2.89.05,5.88.51,8.55.17-.33,0-1,0-1.56.07-5.86.06-5.86,5.72-5.92,11.27-.13,11.26-.13,11.27,11.34q0,27.91,0,55.83,0-28.33,0-56.66c0-1.28-.42-2.68.61-3.81,1.23,13.24.27,26.51.56,39.77.17,8.13.24,16.27.06,24.41-.09,3.73.84,5.2,5,5.16,13.77-.13,27.56-.31,41.3,1,4.76,3.86,4.27,14.12-.78,16.43-20.77,0-41.55-.07-62.32.09-3.46,0-4.5-.9-4.47-4.43.16-19.61.09-39.22.05-58.82,0-1.78.56-3.66-.56-5.34l0-1.94a11.23,11.23,0,0,0,0-8.07c0-1.21,0-2.43,0-3.65A34.28,34.28,0,0,1,157,332.23Z" transform="translate(-44.81 -51.16)"/><path class="cls-4" d="M572.94,406c.24,3.11,2.49,2.92,4.7,2.94,9.58.09,19.16.19,28.74.35,1.63,0,3.25.37,4.87.56-2.69,1.24-5.44.38-8.16.72,3.31-.53,6.64.66,9.94-.64,9.26-.5,9.26-.5,9.33,8.42.06,8.63.06,8.63-8.71,8.63-19.16,0-38.33,0-57.49-.05-1.66,0-3.66.95-5-.94a2.59,2.59,0,0,1,1.36-.55c20.13.14,40.27.05,60.41,0,.33,0,.61.12.52,0q-29.8,0-60.52,0c.84-2.82,2.69-2.86,4.23-2.87,19-.09,37.94-.28,56.91.07.57,0,1.13.29,1.69.35-5.19-.88-10.44-.49-15.68-.52-13.65-.06-27.3,0-40.94,0-6.41,0-7.15-.75-7.08-7.22.18-16.64-.31-33.28-.44-49.92a19.22,19.22,0,0,0-.39-5,30.16,30.16,0,0,1,0-6.58c.88-5.08.35-10.19.42-15.29.06-3.88,1.52-5.82,5.63-5.53,2.95.2,5.93.08,8.89,0a6.05,6.05,0,0,1,5.41,2.84c.67,1.59.48,3.27.48,4.92,0,20.75.14,41.5-.11,62.25C571.86,404.22,571.62,405.35,572.94,406Z" transform="translate(-44.81 -51.16)"/><path class="cls-3" d="M75.83,670.36l-3.18-1.19c-1.14-1.87-3.71-3.63-.48-5.86,1.6-3,2.82-6.38,7.41-5.21,1,.26,1.27-.77,1.12-1.66A3.46,3.46,0,0,1,82,653a3.72,3.72,0,0,1,3,.93c2.09,1.23,4.49,1.48,6.77,2.1,4.85,2.54,10.88,1.39,15.41,4.92-.32,2.36,4.76,2,2.64,5.29-.09.13-.21.24-.32.37,6.92-2.77,8.16,6,13.43,6.6a24.57,24.57,0,0,1,2,18.66c-.57-.34-.61-1.1-1.15-1.47.3,3.38-2.28,6.22-1.83,9.63-5.29,8.29-13.3,12.22-22.58,14.12-1.72.86-3.76-.27-5.43.89l-.36.17-.38-.1a35.37,35.37,0,0,1-11.34,0C80,713.66,77.78,714,75.6,714l-.72.07A36.09,36.09,0,0,1,51,700a3.51,3.51,0,0,0-.72-2.34c-1.54-1.63-2.27-3.47-.66-5.27,1.4-1.56,3.25-1.15,5-.21-.15-.33-.54-.39-.84-.52-1.94-.83-5.56,1.31-5.48-3,0-2,4.83-5.56,7.22-4.95,3.25.83,6.58.76,8.58,5.27a11.6,11.6,0,0,0,11.07,6.85c4.32.77,8.45,2.38,13,2.21,3.15-.12,6.09-.48,8.82-2.06,1.37-.72,3.21-.65,4-2.37,2.47-3.07,3.8-6.46,3-10.46.1-3.33-1.64-4.56-4.63-6.15a88.15,88.15,0,0,0-16.2-6.18A13.33,13.33,0,0,0,75.83,670.36Z" transform="translate(-44.81 -51.16)"/><path class="cls-3" d="M53.94,624.82c4.39-5.41,10.53-7.49,17-8.92,14.28-3.16,28.06-2.88,40.58,5.94,2.32,1.62,4.58,3.32,5.85,6a2.24,2.24,0,0,0,.36,2.32c1,1.12,1.48,2.55,2.56,3.62s1.75,2.38,1,4c-.17.34-.93.61-.64.7,2.83.92,1.24,2,.18,3.09a8.28,8.28,0,0,1-2.39.68c-3,.65-5.59,3.31-9,2.45s-3.15-4.81-5.06-6.88a17.64,17.64,0,0,0-8.77-5.48c-6.61-1.41-13.4-2.6-20.08.07a3.48,3.48,0,0,1-4.12-.65c-.69-.63-1.37-1.77-2.43-.78a2.3,2.3,0,0,0-.5,3.1c1.1,2.05,1.34,4-2,3.87-.93,0-.6.56-.36.92.35.56,1,.87,1.39,1.42.61,1.07.38,2.27.56,3.41.15.65.2,1.5.67,1.84,5.85,4.33,3.89,10.06,2.92,15.63-2.29,5.6-2.15,5.42-6.7,2-2.21-1.65-5.36-1.25-8-2.1a14.88,14.88,0,0,1-6-6.9,17.78,17.78,0,0,0-1.7-4.14l-.34-3.67a31.77,31.77,0,0,1,0-10.7l.17-2.68A64.8,64.8,0,0,0,53.94,624.82Z" transform="translate(-44.81 -51.16)"/><path class="cls-2" d="M751.76,382.11c1.79-.32,3.32-4.2,5.48-.23.84,1.56,1.3.1,1.87-.69,3.46-4.84,7.67-4.6,10,.67,1.22,2.75,3.73,2.66,5.45,2,4.23-1.64,4.67.15,3.91,4.37,2.37-5.93,5.13.55,7.5-1.15q10.31,17.56,20.61,35.14c1.66,2.81.55,4-2.28,4.18-7.94.5-15.89.91-23.84,1.4-2,.12-2.92-1.17-3.84-2.63Q763.3,404.15,751.76,382.11Z" transform="translate(-44.81 -51.16)"/><path class="cls-2" d="M617,226c3.61.93,1.89,3.73,2,5.82a73.4,73.4,0,0,1,0,8.9c-.47,5.68-2.82,7.24-8.17,5.41l2.18,3.08c-5.21-2.2-9.82-5.44-14.6-8.38a5.53,5.53,0,0,1-2.61-4.49c-.91-7.63.06-15.21.4-22.81.15-3.2,1.84-4.59,4.92-2.83s6.39,2.7,8.79,5.35C609.79,224.49,610.84,226,617,226Z" transform="translate(-44.81 -51.16)"/><path class="cls-5" d="M349,513c-1.8-.86-2.24-2.34-1.78-4.16,1.33-5.24.94-10.5.33-15.78-.39-3.39,2.76-5.15,6.12-4.62a88,88,0,0,0,22.82.15c5.81-.62,11.5-.93,17.28.11,2.3.41,5.79,1.59,6.76-1,1.24-3.29,1-7.23,0-10.78-.33-1.21-2-.92-3.14-.92-21,0-41.92,0-62.89,0-2.57,0-3.51.93-3.51,3.51.06,27.28.12,54.57-.06,81.85,0,4.11,2.61,3.72,5,4.67h-6.87c-.35-29.44-.67-58.88-1.11-88.32,0-3,1.16-3.63,3.84-3.62q33.19.12,66.39,0c3.06,0,3.91.95,4,4,.23,13.93.33,13.91-13.32,13.93-12.48,0-25,.09-37.44.13-1.77,3.08-1.16,6.5-1.44,9.8C349.64,505.61,351.08,509.46,349,513Z" transform="translate(-44.81 -51.16)"/><path class="cls-4" d="M552,360c1.61,1.49,1,3.44,1,5.2,0,16.93.14,33.86-.05,50.79,0,3.93,1.05,5.14,5,5.1,17.82-.21,35.65-.09,53.47-.09a13,13,0,0,0,2.5,0c2-.39,3,2,4.91,1.6-1,2.47-3.16,1.37-4.77,1.38-18.33.08-36.65.05-55,.05h-4.9c0,.31,0,.63,0,.94H616V426H551.12q-.15-20.4-.29-40.79c0-.3.07-.6.1-.9.16-6.39,0-12.79.1-19.18C551.05,363.39,550.54,361.49,552,360Z" transform="translate(-44.81 -51.16)"/><path class="cls-6" d="M662,381c1.85-.58,4.26-.42,1.3-3.42-1.52-1.54,2.69-6.41,5.36-6.61A43.73,43.73,0,0,1,684,372.72a1.32,1.32,0,0,1,.75,2.15c-4.12,1-2,3.28-.9,4.89,2,3.11-1.72,4.17-2,6.46-.19,1.41-1.33,2.72,1.31,1.81-3,6.26-3.35,6.38-8.81,2.72A90.47,90.47,0,0,1,662,381Z" transform="translate(-44.81 -51.16)"/><path class="cls-4" d="M133.3,427.14a21.64,21.64,0,0,1-3.89-.65c-1-.35-1.74-1.57-1-2.41,1.76-2.07,5-.64,7.09-2.77.65-.68,2,1.11,2.71,2.74h-8.28c.9,1.42,1.93.91,2.76.92,7.82.13,8.66-.32,7.16-8.05-1.28-6.55-.49-13-.79-19.49-.22-4.82-.09-9.65,0-14.48,0-2.7-1.15-4-3.89-4q-17,.06-34,0c-2,0-2.72.51-2.26,2.59a17.58,17.58,0,0,1,.1,4c-.09,4,1.65,5,5.54,4.24,4.5-.93,9.14-1.24,13.73-1.77,2.79-.32,1.59.92.73,2-.33.87-.85,1.43-1.88,1.23-5.6.38-11.2.23-16.8.26-1.64,0-3.36.25-4.4-1.51-.49-12.63-.49-12.63,12-12.64,9.64,0,19.28.1,28.92-.07,3.16-.06,4.47.88,4.53,4.17.22,14.12.59,28.23,1,42.35.06,2.27-.64,3.42-3.1,3.28C137.29,427,135.29,427.1,133.3,427.14Z" transform="translate(-44.81 -51.16)"/><path class="cls-7" d="M513,635c-2.84-2.1-6.1-.57-9.13-1-1.36-.21-3.62.64-3.58-1.48,0-1.62,2-.77,3.23-.86,1-.08,1.91-.44,2.88-.57,7.32-1,9.67,1.19,9.64,8.53-.09,17.64-.06,35.28,0,52.92,0,3.42-.13,6.29-4.84,4.51-2.49-.94-4.76,1.33-7.42.61-.5-.13-3,1.44-2.92,4s1.53,6.09-1.69,8.27c-.06-3.65,0-7.31-.24-10.93-.25-3.25,1.25-3.79,4.08-3.86,9.94-.24,10-.34,10-10.38Q513,659.92,513,635Z" transform="translate(-44.81 -51.16)"/><path class="cls-5" d="M145,618c-4.42,3.45-3.58,8.74-3.81,13.16-.61,12-1,24.17-.09,36.15.45,5.76.76,11.31-.07,17a5.63,5.63,0,0,0,1.22,4.77c1.89-1.32-.47-2.9.3-4.33,1.59.51,2.41,1.36,2,3.19s-1.3,4.59-.71,5c3.73,2.38,4.21,7,7.19,9.69,1.64,1.5,1.85,1.27-.08,3.43-7.06-5-10.77-12.18-11.84-20.35a129.62,129.62,0,0,1-.93-25.69c1.85-3,.26-6.16.26-9.22,0-10.23.53-20.48-.26-30.7-.34-2.15-.15-4.08,2.66-2.63,1.67.86,2.81,0,4.17-.29.35.19.47.39.35.58S145.12,618,145,618Z" transform="translate(-44.81 -51.16)"/><path class="cls-8" d="M220.25,697.05c-.95.1-2.89,1-1.58-1.26,5-8.5,4.38-17.82,4.34-27.1,0-13.94,0-27.89,0-41.84,0-3.15,0-6.22,2-8.87-.34-.18-.45-.35-.34-.53s.23-.26.34-.26c1.79,1,1,2.67,1,4-.14,20.13.52,40.27-.84,60.39A30.16,30.16,0,0,1,220.25,697.05Z" transform="translate(-44.81 -51.16)"/><path class="cls-9" d="M352,340c1.63,1.48,1,3.44,1,5.19q.06,35.19,0,70.4c0,1,.34,2.19-.08,3-3.83,7.07,1.63,5.4,5.09,5.42,10.61.06,21.23,0,31.85,1-12.52,0-25,0-37.55,0-2.84,0-2.28-2.36-2.29-4.08,0-11.31,0-22.63,0-33.95V332h1a3.51,3.51,0,0,1,.46,1.4c.06,27.81,0,55.62,0,83.43,0,.6.22,1.35-.71,1.54l.64.05a29.9,29.9,0,0,0,.1-4.55q0-34.21,0-68.44C351.54,343.6,351.07,341.73,352,340Z" transform="translate(-44.81 -51.16)"/><path class="cls-10" d="M55,351c-.71,3.28-4,5.67-3.33,9.53,2.25-.4.52-3.39,3-3.77.75,2.52-.1,5.2-2.21,5.67-3.42.75-3.52,3-3.81,5.39-.67,5.35-1.17,10.72-1.77,16.31,1.92-.68.43-2.49,2.36-3.3-1.1,7.49-1,14.62,2.68,21.19,1.44,2.57,2.82,5.18,4.33,7.71.78,1.32,1.08,2.44-.44,3.39C43.06,396,42.18,377.45,49.14,358A16.42,16.42,0,0,0,51,353.89c.64-1.62,1.14-3.33,2.86-4.22A1.52,1.52,0,0,1,55,351Z" transform="translate(-44.81 -51.16)"/><path class="cls-4" d="M67,640c-3.55.83-3.18-2.17-2.71-3.58.77-2.28,1.88-.51,2.66.44.48.59.87.33,1.08-.16s.31-1.25.15-1.33c-3.8-2.12-1.07-5,.16-6.07,2.35-2,3.24,1.25,4.73,2.42.44.35,1.28.2,1.94.28.08.19.16.39.25.58A2.78,2.78,0,0,1,74,634c-3.5,2.12-5.82,5-4.61,9.26,1.32,4.72,5.33,6.86,9.45,8.6,1,.42,2.22.39,3.15,1.15-.12,1.43-.83,2.82.06,4.29.77,1.27-.14,1.63-1.23,1.91-1.37.34-7.23,4.07-7.83,4.83-1.71-.3-1.37-2-2-3,1.73-6.39-.57-11.84-4-17A3.66,3.66,0,0,0,67,640Z" transform="translate(-44.81 -51.16)"/><path class="cls-11" d="M537.09,422.93c-3,2.43-3.42-.24-3.75-2.06-1.18-6.6-4-12.57-6.41-18.74-1.88-4.79-3.67-9.78-5.58-14.46-3.54-8.69-6-17.78-10.08-26.28-2.26-4.75-3.62-10-5.79-14.72s-4.11-9.47-4.48-14.73c.54.29,1.42.46,1.57.89,2.68,7.66,6.48,14.9,8.57,22.77A9.41,9.41,0,0,0,513,360l4,11.06c.92,1.54.94,3.49,2.16,4.9l-.06-.07a15.34,15.34,0,0,0,1.68,4.08c.74,2.1,1.48,4.19,2.21,6.29,1.08,2.55,1.7,5.28,3,7.75l5,13c.83,1.6,1.09,3.43,2,5l2,5.25c1,1.81.43,4.17,2.1,5.72Z" transform="translate(-44.81 -51.16)"/><path class="cls-11" d="M462,568c-2.69-.15-4-1.62-4-4.26a125.48,125.48,0,0,1,1-19.51v20.07c2.47-22.17,2.41-44.34,1.76-66.52a5.37,5.37,0,0,0-.1-1.45c-.26-.85-1.77-1.61-.6-2.52s1.86,1,2.94,1.16C463.27,519.33,462.88,543.67,462,568Z" transform="translate(-44.81 -51.16)"/><path class="cls-7" d="M68.06,378c-1.85-.79-2.27-2.34-2-4.11,2.71-17.84,11.94-29,31.19-29,4.24,0,7.51,2.28,11,4A7.56,7.56,0,0,0,112,350c1.84,1.48,2.56,3.15.93,5.24-12.39-13.34-37.84-9.09-42.86,11.56A88,88,0,0,0,68.06,378Z" transform="translate(-44.81 -51.16)"/><path class="cls-10" d="M397,652c2.72.32,2.14,3,3.22,4.52,2.37,3.3,2,8.24,6.16,10.5-3.35,3.59,1.93,4.11,2.26,6.36.41,2.75-2.81-1.22-2.17,1,.46,1.6,1.38,3.85,4.26,2.36,3.24-1.69,5.57-.4,6.19,3.11.57,3.21-1,5.22-4.39,4.57-2-.38-2.57,1.05-3.76,1.7L396.09,652C396.39,651.52,396.69,651.5,397,652Z" transform="translate(-44.81 -51.16)"/><path class="cls-7" d="M439.91,493.33c-1.45-2.64-4.46-.33-6.23-2,4.65-3,7.84-1.65,8.33,3.41,2.24,23.47.17,47,1.25,70.49.1,2.05-1.07,1.59-2.13,1.72q-.12-32.65-.25-65.31C440.86,498.87,441.06,496,439.91,493.33Z" transform="translate(-44.81 -51.16)"/><path class="cls-12" d="M156.93,358c1.82,1.61,1,3.75,1,5.65.06,19,.14,38,0,57,0,3.94.77,5.54,5.16,5.49,20.66-.24,41.32-.13,62-.14,1.95-.43,2.58-1.61,2.5-3.6-.18-4.12.19-8.26-.56-12.36a1.58,1.58,0,0,1,1.87,1.76c-.05,4.81,1.76,10.48-.71,14.15-2,3-7.77,1-11.85,1-18,.14-36,0-54,.14-3.94,0-5.43-.78-5.39-5.15C157.15,400.61,157,379.29,156.93,358Z" transform="translate(-44.81 -51.16)"/><path class="cls-8" d="M242,559c2,.26,3.2,3.9,5.94,1.53.08-.07.72.24.76.44,1.31,7.58,8.29,3.94,12.24,6.84,0,.37-1,0-1.43.3-1.23.91,0,.82.44.88,10.58,1.24,21.22,3.58,31.61-.84,2.86-1.23,6-1.53,8.71-3.53,1.6-1.18.67.89.76,1.56-6.83,5.19-15,6.34-23.08,6.51-13.12.27-25.85-1.78-36.08-11.26C241.56,560.6,241.3,559.77,242,559Z" transform="translate(-44.81 -51.16)"/><path class="cls-11" d="M75.09,695.82c-4.15,3.09-6.06-1.44-8.85-2.74-1-.48-1.41-2.11-3.18-1.65-2,.5-1.37-.12-1-1.67.56-2.34.1-4-3.69-4-2.68,0-5.09-.26-7.52.92a2.46,2.46,0,0,0-1.71,2.7c.24,1.56,1.45,1.48,2.61,1.68,3.52.63,3.51.67,4.7,4.17-1.31,0-1.3-1.25-1.9-1.92-1.14-1.27-2.65-1.86-3.89-.66-.92.9-1.84,2.44,0,3.78,1.36,1,2,2.27.32,3.65-1.43-.44-1.87-1.81-2.63-2.86-5.44-7.44-4.7-10.14,3.71-13.63a19.16,19.16,0,0,0,2.76-1.11c4.18-2.56,7-1.58,8.85,3C65.79,690.62,70.17,693.56,75.09,695.82Z" transform="translate(-44.81 -51.16)"/><path class="cls-13" d="M572.94,406a6.25,6.25,0,0,1-1.16.92c-.63.28-.8-.15-.79-.71,0-1.16,0-2.33,0-3.49q0-33.36,0-66.73a2.93,2.93,0,0,1,0-4c2.55-.25,2,1.67,2,3q-.11,35-.26,70.08A4.08,4.08,0,0,0,572.94,406Z" transform="translate(-44.81 -51.16)"/><path class="cls-14" d="M397,652h-.89c-1.33-1.91-2.12-2-2.19.62-.19,7.31-.42,14.62-.63,21.92-.09,3.16-.17,6.31-.25,9.47-3,4.6-1.6,9.92-2.78,14.88,1.4-19.34.48-38.74,1.36-58.08C394,644.45,398.19,647.06,397,652Z" transform="translate(-44.81 -51.16)"/><path class="cls-10" d="M564,634c0-.32,0-.65,0-1,9.64-1.1,19.36.12,29-1-2.31,4.48-.75,9.3-.8,13.86-.16,14.57-1.07,29.18.72,43.73a3.31,3.31,0,0,1-1.92,3.66c0-10.22,0-20.12,0-30,0-1.76.65-3.7-.92-5.21l-.15-15.71c-1.17-1.92.77-4.52-1.36-6.22l-.31,0-.25-.19c-6.2-.56-12.36-1.61-18.63-1.48C567.58,634.48,565.71,635,564,634Z" transform="translate(-44.81 -51.16)"/><path class="cls-15" d="M331,651.07c-3.39-3.81.41-5.94,2.07-9.46,2.54,4.12,1,7.89,1,11.35.2,14.77-.11,29.54.05,44.31,0,3.68,1.62,7.32.41,11.19-2.16-.68-1.42-2.27-1.43-3.39-.09-8.14-.05-16.27-.11-24.41,0-1.59.55-3.36-1-4.66Z" transform="translate(-44.81 -51.16)"/><path class="cls-16" d="M249,712.09c2.47-2.16,5.42-1,8.11-1,3.47,0,5-1.53,4.89-4.73-.46-13.4.92-26.82-.79-40.24a75,75,0,0,1,.38-18.26,16.07,16.07,0,0,0,.25-2.92c-.1-1.32-1.78-3,.56-3.69,1.54-.47,2.24,1,2.86,2.22.86,1.69.79,2.84-1.45,3.13-.81.11-.72.95-.68,1.61,0,20.09-.16,40.18,0,60.27,0,3.82-1.06,5.07-4.74,4.52C255.25,712.54,252.1,712.38,249,712.09Z" transform="translate(-44.81 -51.16)"/><path class="cls-5" d="M239.83,351.74c2.42,2.28.3,4.47-.49,6.33-1.51,3.56-2.33,6.86-1.5,10.86.73,3.48.15,7.24-.67,10.93-.1-2.29-.21-4.58-.31-6.88-2.67,8.84-.85,17.48,1,26.24l-2.26-1.17c-3.49-14.26-4-28.36,2.17-42.11,1.18-1.12,1.28-2.81,2.14-4.09Z" transform="translate(-44.81 -51.16)"/><path class="cls-4" d="M272.8,669.33c.88-1.53,2.44-.16,3.62-.88.88-.54,1.54.24,1.43,1.28-.63,5.56,1.51,12.87,4.81,16.5.55.61,1.41,1.37,1.37,2-.49,7.45,4.87,13.47,5,20.75a.74.74,0,0,1-1.15.07,49.65,49.65,0,0,1-5-12.66,11.26,11.26,0,0,0-1.7-4.36A129.41,129.41,0,0,1,272.8,669.33Z" transform="translate(-44.81 -51.16)"/><path class="cls-15" d="M535.92,693c-1,.36-1.94.55-1.93-1.08q.09-28.86.2-57.71c0-.4.54-.8.82-1.19.84.45,1.61.93,1,2.09Q536,664,535.92,693Z" transform="translate(-44.81 -51.16)"/><path class="cls-11" d="M178.14,339.71v64.22L177,404V392.08c0-17.32-.16-34.65.1-52,.08-4.65-.95-6.44-5.95-6.24-9.51.38-9.52.09-11.15,10.87V331.94c4.24-.06,8.51.13,12.73-.26,4.41-.4,6.47,1,5.63,5.59C178.22,338.07,178.21,338.9,178.14,339.71Z" transform="translate(-44.81 -51.16)"/><path class="cls-11" d="M195,513.16c1.81,1.55,4,.52,6,.92.31.22.41.43.29.63s-.23.29-.35.29c-3.1,2.26-6.55.11-9.93.64-5.67.88-11.65-.29-17.51-.58-2.11-.11-3.46-.95-3.55-3.27-.21-5.87.45-11.76-.49-17.62-.11-.63.59-1.52,2.28-1.78,0,5.62.18,11.16-.1,16.67-.09,1.79-.73,3.27,1.59,3.85Z" transform="translate(-44.81 -51.16)"/><path class="cls-7" d="M75,632c4.91-3.86,10.59-2,15.85-1.69a21.79,21.79,0,0,1,13.77,6c1.48,1.34,1.47,2.76,2.06,4,1.86,3.93,4.57,4.46,7.76,2.34A10.2,10.2,0,0,1,121,641c.07.21.14.42.2.63-1.38,1.54-3.68,1.16-5.18,2.46-7.43,3.42-7.46,3.42-11.5-3.16s-10.31-8.39-17.35-8.8c-2.31-.14-4.63,0-7,0A6.8,6.8,0,0,1,75,632Z" transform="translate(-44.81 -51.16)"/><path class="cls-4" d="M317,342l-2.38-1.47c-.94,1.6,1.69,2.39.6,4.14-1.35-1.21-3.8-1.19-4.15-3.38-.69-4.34-3.52-3.9-6.12-2.67-4.19,2-6.7-2.28-10.38-2.39-1.37,0,.06-2.82-.25-4.43s2.66-.29,4-.95a15.45,15.45,0,0,1,8.73,2.86c1,1.25,2.83,1.09,3.86,2.29,2,1.65,4.64,2.48,6.18,4.74A.79.79,0,0,1,317,342Z" transform="translate(-44.81 -51.16)"/><path class="cls-8" d="M457,618c-3.94,9.87-7.86,19.75-11.83,29.61a36.9,36.9,0,0,0-2.32,7.53c-.26,1.44-1.39,4.39-3.05.48,4.53-11.87,9.1-23.73,13.55-35.63.7-1.85,2.14-2.27,3.66-2.81.34.19.46.37.34.55S457.12,618,457,618Z" transform="translate(-44.81 -51.16)"/><path class="cls-4" d="M113,408c1.14,2.54,1.42,4.15-2.16,2.23-.48-.26-1.59.24-2.19.69-3.13,2.34-7.25,2.72-10.12,6.15-1.09,1.31-6.41.67-9.49-1.11,1.25-1.08,2.39-.89,3.48-1-1.26,0-2.58-.15-3.48,1-2.34-.49-4.71-.93-5-3.93,1.49-1.2,3.45.12,5-.93,8,.34,16,.92,22.93-4.3A1.36,1.36,0,0,1,113,408Z" transform="translate(-44.81 -51.16)"/><path class="cls-13" d="M459,652c-1.42-3.87,1.67-6.56,2.64-9.79.28-.94,1.39-.64,2.15-.21s.88,1.15.73,2.09c-1.93,11.56.3,23.18-.58,34.75-.08,1,1.77,3.8-1.74,3.19-.12-9.06-.17-18.12-.42-27.17C461.71,653.45,462.59,650.27,459,652Z" transform="translate(-44.81 -51.16)"/><path class="cls-10" d="M153,570c-.38-1-2.19-1.18-1.77-2.78,3.75,1.34,7.64.69,11.46.73,8.17.09,16.33,0,24.49,0,2,0,4,.11,5.81-1,.66.65,1.5.5,2.3.49A3.39,3.39,0,0,1,193,567c3.08-2,6.85-.38,10.05-1.89.51-.23,1.65.3,1.31.95s-1.46,1-2.4,1.58c4.87,1.65,9.66-2.17,14.76.1-1.6,1.88-3.51,1.22-5.13,1.22-16.13.06-32.26,0-48.4.07-1.75,0-3.7-.66-5.18,1Z" transform="translate(-44.81 -51.16)"/><path class="cls-16" d="M350.9,550c-.54-.84-4,2-2.3-2.09,1-2.5,1.44-5.91-1.09-8.42-.11-.11-.25-.39-.21-.43,4.84-5.45-2.49-9.43-1.79-14.73,2.4,6.58,7.8,2.91,11.58,3.42,6.83.92,13.87.26,20.83,1.26-7.58,0-15.16,0-22.74,0-1.66,0-3.95-.76-4.07,2.22Z" transform="translate(-44.81 -51.16)"/><path class="cls-9" d="M348,332.24q0,41.68,0,83.39c0,3.8,0,7.6,0,11.4-.91-1-.68-2.17-.68-3.31q0-44.1,0-88.21C347.34,334.4,347,333.16,348,332.24Z" transform="translate(-44.81 -51.16)"/><path class="cls-10" d="M456.06,380c2.41,3.63-.57,6.74-1.44,9.79s-2.16,6.18-3.35,9.23c-.47,1.2-1.89,2.21.38,3,.88.31.7,1.36.09,1.39-6,.3-3.7,5.94-5.74,8.77-.79,1.1-.48,4.16-3.1,1.56C446.91,402.37,451.15,391.07,456.06,380Z" transform="translate(-44.81 -51.16)"/><path class="cls-15" d="M374.18,619c.56-.14,1.56-.71,1.51.23-1.41,29.51-.69,59-.32,88.54,0,.85-.52,1.1-1.21,1.22Z" transform="translate(-44.81 -51.16)"/><path class="cls-17" d="M243.91,624c1.84,1.6,1.05,3.74,1.05,5.64q.09,37.44,0,74.9c0,2.91-.34,6,3,7.54-2.74.58-3.9-.32-3.9-3.32Q244.11,666.36,243.91,624Z" transform="translate(-44.81 -51.16)"/><path class="cls-10" d="M262,507.17a2.87,2.87,0,0,1-3.66.36c-4.62-2.32-5.34-10.88-1.71-14.45a25.82,25.82,0,0,1,8.92-5.43c2.59-1,5.51-1.79,7.51,1.37-4.12.42-8.23.93-11.7,3.47C255.92,496.43,256.24,503.33,262,507.17Z" transform="translate(-44.81 -51.16)"/><path class="cls-8" d="M352,340v78.79h-1V332h1Z" transform="translate(-44.81 -51.16)"/><path class="cls-4" d="M331,397c-2.1-.92-1.56-2.35-1.1-4.12,1.45-5.64,2.28-11.32-.24-16.94-1.15-2.57,1.49-4.56.9-7.55-1.13-5.65-5-10.13-5.78-15.79-.14-1-.85-1.83.28-2.6,3,3.76,4.45,8.3,6.06,12.74,1,1.61-.43,3.72,1.05,5.24l-.06-.07c1,4.09-.22,8.36,1.07,12.42C334.08,386.09,331.73,391.44,331,397Z" transform="translate(-44.81 -51.16)"/><path class="cls-5" d="M421.22,421.1c-1.76-4.4,4.3-3.81,4.44-7.1-1.39-.89-2.34,2-4.19.15,10.65-5.25,9.33-14,6.48-23.44l2.33,1.26C434.65,402.63,431.5,412.77,421.22,421.1Z" transform="translate(-44.81 -51.16)"/><path class="cls-4" d="M263.8,331.88c2.05,1.85.35,2.7-1.06,3-6.19,1.33-10.22,5.85-14.74,9.64-1.88,1.57-3.48,3.18-1.26,5.7.6.68,1.61,1.64.34,2.42-1.05.65-1.6-.3-2.17-1.24a26.82,26.82,0,0,0-2.79-3.37A36.31,36.31,0,0,1,263.8,331.88Z" transform="translate(-44.81 -51.16)"/><path class="cls-15" d="M641,618l-79.75.37c-.85,0-1.11-.5-1.23-1.2h81c.23.18.31.37.23.56S641.08,618,641,618Z" transform="translate(-44.81 -51.16)"/><path class="cls-4" d="M75.83,670.36c1.79-2,4.06-1.91,6.24-1.19,4.63,1.54,10.09,1.72,13.83,4.2a33.47,33.47,0,0,0,8.14,3.75c1.1.38,1.65,4-.15,6l0,0c-.77-1.85-2.31-3-3.83-4.14l-6.1-3c-1.43-1.39-3.4-1.3-5.12-1.89Z" transform="translate(-44.81 -51.16)"/><path class="cls-10" d="M167.88,714.1c1.91-1.92,3.48-2.21,6.63-1.56a49.24,49.24,0,0,0,18.27-.08c.63-.11,3.34.41,1.75-2.13-.41-.67.49-1.48,1-1.13,3.5,2.33,6.49-.36,9.7-.79,2.06-.28.67,1.19.81,1.88a23.92,23.92,0,0,1-9.78,3.81c-3,1.19-6.3-.57-9.25,1l.06-.05c-6.47,1.37-12.76-1-19.17-1Z" transform="translate(-44.81 -51.16)"/><path class="cls-5" d="M571,332c0,1.35,0,2.69,0,4-5-3.3-10.53-1.76-15.87-1.88-2.46-.06-2,2.13-2.13,3.72-.52,5.38,1.13,10.88-1,16.16-1.74-2-.55-4.58-1.47-6.73.24-5.09-.58-10.22.47-15.28Z" transform="translate(-44.81 -51.16)"/><path class="cls-13" d="M193,552c3.56,2.16,7.45.74,11.18,1,4.71.27,9.45.06,14.14,1.06-9.59,0-19.19,0-28.79,0-5.31,0-10.63,0-15.9.38-3.18.24-2.88-1.4-2.63-3.4a27.09,27.09,0,0,1,5.21.92Z" transform="translate(-44.81 -51.16)"/><path class="cls-18" d="M488.67,471.86H414.33v-.5h74.54Z" transform="translate(-44.81 -51.16)"/><path class="cls-18" d="M399.65,471.38H327.78v-.47h72.09Z" transform="translate(-44.81 -51.16)"/><path class="cls-18" d="M152,473.94l-2,.15c.77-3.95,3.62-3.17,6.49-3.15,19.47.11,39,.06,58.42.06h4.91l0,1h-4.49c-19.48,0-39,0-58.42.05C155.17,472.05,152.7,470.92,152,473.94Z" transform="translate(-44.81 -51.16)"/><path class="cls-8" d="M89,411.1c-1.43,1.53-3.31.66-5,.93-10.07-2.48-16-13-16.78-22.38C67,387.35,63.43,384,68,382A66,66,0,0,0,71,396.24c.72,1.2,1,2.62,1.87,3.74.39,1.9,1.91,3,3.13,4.28,1.38,1.59,2.76,3.18,4.26,4.67C82.88,410.77,86,410.76,89,411.1Z" transform="translate(-44.81 -51.16)"/><path class="cls-10" d="M123,673.18l-1.64,1.07c-1.64-3.43-6.5-2.89-8-6.49-.22-.54-.16-1.82-.67-1.52-4,2.34-4.31-2.32-6.45-3.4s-.14-1.62,1-1.92C113.71,663.39,120.17,665.92,123,673.18Z" transform="translate(-44.81 -51.16)"/><path class="cls-4" d="M438,708l-2.29,2.41c3-2.88-6.35-7.25,1-9.57.79,1.58-1.42,2.81,0,4.63,1.74-2.6,1.84-5.4,2.36-8.17.81-4.36,2.28-8.57,6.33-11.2-.14,1-.28,1.94-.43,2.9-.89,1.56-1.15,3.38-2,5C441.55,698.72,440.59,703.64,438,708Z" transform="translate(-44.81 -51.16)"/><path class="cls-5" d="M121,365a48.07,48.07,0,0,0,13.31-3c1.76-.7,2.53-1,1.38-3-1.61-2.81-1.95-6.34-5-8.33-.82-.54-.66-1.4,0-2.25,2,.53,2.37,3.18,4.45,3.58,6.15,12.21,3.52,12.95-7.84,14.12a6.82,6.82,0,0,1-5.81-.51C121.31,365.4,121.16,365.2,121,365Z" transform="translate(-44.81 -51.16)"/><path class="cls-8" d="M415.39,379.88c-2.53-.67-5.74,1-7.57-2.1-.77-1.31-1.74-3.3.7-3.27,7,.06,11.65-3.74,15.84-8.53,1.17-1.34,1.56-1.54,1.81.38-1.72,4.08-5.26,6.22-9,8C414.36,375.66,413.51,377.22,415.39,379.88Z" transform="translate(-44.81 -51.16)"/><path class="cls-19" d="M73.11,534.42C73,532,74.77,532,76.48,532c6.9,0,13.83-.42,20.63,1.07,3.8.83,7.34,2.26,7.89,6.93l-.31.38-.49,0-.35-.35c-4.46-4.8-10-6.49-16.45-6C82.65,534.45,77.88,534.33,73.11,534.42Z" transform="translate(-44.81 -51.16)"/><path class="cls-11" d="M315.86,641a8.15,8.15,0,0,1,1.18-.87c1.15-.56,1,.44.8.89-1.11,2.72-2.65,5.26-1.35,8.5.2.5-2.66.44-3.28,2.78-1.37,5.19-3.61,10.15-5.59,15.47-1.65-1.36,0-2.86-.73-4q2.08-5.84,4.16-11.69c.76-1.64,1.19-3.41,1.89-5.07C313.92,645,314.89,643,315.86,641Z" transform="translate(-44.81 -51.16)"/><path class="cls-6" d="M393,516l-1.5,1.24c-1.87-5.38-6.57-3.54-9.8-3-9.64,1.45-19.15.33-28.7-.21a.51.51,0,0,1-.21-.56c.07-.18.14-.28.21-.28,12.37,0,24.73-.06,37.1-.17C392.31,513,393.7,513.38,393,516Z" transform="translate(-44.81 -51.16)"/><path class="cls-5" d="M310,551c1.57-7.54,2.9-15-2.7-21.74-.36-.43-3.78-2.23-.07-3.34,6.74,4.71,6.19,12,6.3,18.85,0,1.59.2,3.56-.55,5.24-.78.61-.2,2.22-1.7,2.31C310.63,552.1,310.42,551.44,310,551Z" transform="translate(-44.81 -51.16)"/><path class="cls-4" d="M71,661l2,3c-1,1.15-2.86,2.24,0,3.5,1.83.81,1.45,1.41-.3,1.67A4.25,4.25,0,0,1,69,667.88c-1.16-1-2.66-1.22-4-1.88A22.8,22.8,0,0,1,57,661.08c4.27-.39,8.81-1.6,11.11,4.33Z" transform="translate(-44.81 -51.16)"/><path class="cls-4" d="M306,486.07c-.15,1.19-.34,2.54-1.91,2.29-1.19-.2-2.63-.23-3.11-1.95-.76-2.75-.92-6.12-5.55-4.91-1.46.39.16-3.52-2.65-3-1.27,1.42,1.21,3.07-.44,4.74a7.74,7.74,0,0,1-.56-8.14C297.6,477.34,301.89,481.59,306,486.07Z" transform="translate(-44.81 -51.16)"/><path class="cls-5" d="M246,416c.13-2.16,3.91-.07,3.42-2.94.81,0,2.1-.17,2,.79-.51,5.67,3.09,6.75,7.51,7.15.38,0,.71.63,1.07,1a4.61,4.61,0,0,0-.07.5c1,1.16,2.7,1.05,3.84,2a1.27,1.27,0,0,1,.38,1.27c-1,1.12-2.13.83-3.28.29A31.33,31.33,0,0,1,246,416Z" transform="translate(-44.81 -51.16)"/><path class="cls-4" d="M112.93,355.24,112,350c.67-1.14,1.38-2.72,2.85-2.24s1.2,2.21,1.14,3.52c-.27,5.29,2.62,9.41,5,13.72h0c.55.57,1.63.86,1,2a3.33,3.33,0,0,1-4.6-2.5C116.52,361.07,114.46,358.3,112.93,355.24Z" transform="translate(-44.81 -51.16)"/><path class="cls-8" d="M223,491.83c-2.82-1.82-1.84-4.69-1.94-7.23s0-5,0-8.1c-1.83,2.35-.21,4.69-1.48,6.48-1.28-7.75-.75-8.57,4.47-7C223.66,481.28,225.61,486.7,223,491.83Z" transform="translate(-44.81 -51.16)"/><path class="cls-20" d="M122.31,415.08c-2.1.27-2.74,2.76-5.85,3.47,3.16-4.1,5.72-7.54,8.42-10.86.62-.76,1.48-2.13,2.79-.77s.5,11.75-.82,13.25l0-.05c-1.32-2.53,1-5.64-1.33-8C123.85,412.41,123.64,414.35,122.31,415.08Z" transform="translate(-44.81 -51.16)"/><path class="cls-4" d="M261.72,472.87c.77.18,2,.11,2.24.59.63,1.05-.59,1.4-1.25,1.41-7.27.13-12.5,5.14-18.81,7.74-.55-1.28,1.2-1.8,1-2.94C249.69,475.31,255.41,473.38,261.72,472.87Z" transform="translate(-44.81 -51.16)"/><path class="cls-4" d="M551,332l.06,16.11a360.73,360.73,0,0,1,.1,36.62l-.33.49c-1.11-14.56-.52-29.16-.69-43.74C550.1,338.34,548.89,335,551,332Z" transform="translate(-44.81 -51.16)"/><path class="cls-10" d="M242,544h-1c-2.27-.16-3.93,1.54-6,2h-1.86c.18-3.57,3.46-3,5.48-4.14a9.82,9.82,0,0,0,4.37-1.78c5.52-3.39,7,1.2,9.15,4.6-.24.7-.67,2.2-1.1,1.71-1.79-2-4.27-.07-6-1.39-.63-1.2.42-1.77,1-2.62C244.66,543,243.58,544.17,242,544Z" transform="translate(-44.81 -51.16)"/><path class="cls-7" d="M352,617.17c-5.17,1.85-10.51.43-15.76.81-3.26.23-7.27-1.21-7.43,4.54-1.07-1.17-.44-2.49-1.89-3.15-1.24,1.49.86,3.1-.23,4.67a5.17,5.17,0,0,1-2.64-4c.07-2.75,1.83-3.08,4.08-3C336,617.09,344,617.11,352,617.17Z" transform="translate(-44.81 -51.16)"/><path class="cls-21" d="M353,513.14V514c-1.91,2-3,.61-4-1,.19-6.42-.4-12.87.7-19.28.24-1.4.6-1.64,1.71-1.61l-.18,16.82C351.21,510.59,351.07,512.3,353,513.14Z" transform="translate(-44.81 -51.16)"/><path class="cls-21" d="M138.17,620.06c1.49,1.73.71,3.81.81,5.73.52,10.4-1,20.86,1,31.23.25,1.35.07,2.72-1.77,3Z" transform="translate(-44.81 -51.16)"/><path class="cls-7" d="M537,712.11c1-3.77,4.16-2.13,6.15-2,4.81.38,6.59-1.38,5.89-6.07-.26-1.77,0-3.61-.28-5.38-.31-2,1.09-1.53,2.11-1.68q0,7,.07,14c-3.2,1.39-6.76-.48-9.95,1.07Z" transform="translate(-44.81 -51.16)"/><path class="cls-11" d="M286.07,653.84c.24,1.74.47,3.47.82,6-3.32-4.18-3.54-8.83-5.55-12.71-1-2-1.42-4.28-2.7-6.27a3.62,3.62,0,0,1,.43-5h0c.66,1.68,1.09,3.44,1.89,5.07C283,645.14,285.06,649.28,286.07,653.84Z" transform="translate(-44.81 -51.16)"/><path class="cls-5" d="M65,422.15c0-.65-1-2,.38-1.77a12.9,12.9,0,0,1,4.85,2.14c2.21,1.41,4.8,5.53,7.42.15.45-.92,1.44,0,2,.53s1.05,1.21.06,2c-1.47,1.11-2.94,2.1-4.89,1.93A19.2,19.2,0,0,1,65,422.15Z" transform="translate(-44.81 -51.16)"/><path class="cls-5" d="M298,521c-4.41-1.61-9.34-1.14-13.47-4.42-2.79-2.22-6.92-2.28-10.81-2.34l2.52-1.37c4.92-.26,9,3,13.8,3.26a12.93,12.93,0,0,0,4.08,1.78l-.07,0c1.21,1.15,3.28.89,4.18,2.55C298.15,520.6,298.07,520.8,298,521Z" transform="translate(-44.81 -51.16)"/><path class="cls-10" d="M317.12,684.06c-.59-3-4.51-5.21-1.64-9,.92-1.23-2-2-1.65-3.72,3.3-.92,2.6,2.69,4.17,3.67s1.41-2.39,3-1A38.18,38.18,0,0,1,317.12,684.06Z" transform="translate(-44.81 -51.16)"/><path class="cls-15" d="M547,617.14c-1.05,1.15-2.44.85-3.74.85q-17.19,0-34.39,0c-1.3,0-2.7.3-3.76-.83Z" transform="translate(-44.81 -51.16)"/><path class="cls-5" d="M260,422a8.59,8.59,0,0,1,2,.17c4.27,1.41,7.54,5.17,12.13,5.61,4.25.4,8.56.08,12.85.08v1.3h-12.3c-2.28,0-4.62.48-6.77-.74-.78-1.73-3.46-1.3-3.89-3.42-1.18-1.2-3.92-.33-4-3Z" transform="translate(-44.81 -51.16)"/><path class="cls-18" d="M54,470.19c12.13,1.64,23.41.28,34.69,1.81H71c-3,0-6.07.41-9-.13C59.69,471.43,56.54,474.28,54,470.19Z" transform="translate(-44.81 -51.16)"/><path class="cls-19" d="M463,710l19.21,0c.5,1.24-.1,2.06-1.25,2.08-5.48.08-11,.06-16.44,0C463.22,712,462.82,711.15,463,710Z" transform="translate(-44.81 -51.16)"/><path class="cls-8" d="M204.15,679c.67.11,1-2.4,1.9-.27s1.55,4.17,2.34,6.31c-2.24.8-1.36-2.09-3.11-1.82-.73,2.41-1.2,5.3-3.15,7.58-.89,1-1.5,1.13-2.25,0A33,33,0,0,0,204.15,679Z" transform="translate(-44.81 -51.16)"/><path class="cls-16" d="M113,408l-1.1-1.2,6-7.83c1.7-2.63,2.43-5.29.14-8l1-1c2.79,1.35,2.31,4,1.88,6.1A17.78,17.78,0,0,1,113,408Z" transform="translate(-44.81 -51.16)"/><path class="cls-9" d="M374,427.11c.89-1.36,2.29-1.1,3.58-1.1l32.71.09c-4.18,1.7-8.56.72-12.83.86C389.66,427.21,381.84,427.08,374,427.11Z" transform="translate(-44.81 -51.16)"/><path class="cls-3" d="M118,391c3.35,2.72,2.34,5.37-.14,8,1.57-7.27,1.57-7.27-6.2-7.28-4.1,0-8.21,0-12.31,0-1.35,0-3.14.61-3.45-1.67,6.06,2,12.26,1,18.39.66A7,7,0,0,1,118,391Z" transform="translate(-44.81 -51.16)"/><path class="cls-13" d="M51.68,567.88,54,568a27.12,27.12,0,0,1,11,0c1.71,1.54,4.36.2,6,2-5.47.08-10.94.18-16.4.22C53,570.22,51.14,570.54,51.68,567.88Z" transform="translate(-44.81 -51.16)"/><path class="cls-3" d="M564,634c7.16.19,14.32.37,21.48.6a3.05,3.05,0,0,1,2.49,1.36c-8.8-.32-17.59-.67-26.39-1-2-.07-4.26.26-3.63-3C559.47,634.19,561.72,634.14,564,634Z" transform="translate(-44.81 -51.16)"/><path class="cls-15" d="M457,618c0-.27,0-.54,0-.82,6.76,0,13.54.15,20.28-.26,4.08-.25,5.67,1.28,5.59,5.11l-2.15,3.15c1.71-7.5-2.24-7.45-6.78-7.23C468.32,618.2,462.65,618,457,618Z" transform="translate(-44.81 -51.16)"/><path class="cls-5" d="M321,674c-1.6.46-1.7,2.1-2.75,3.63-.11-1.16-.18-1.9-.24-2.63,1.42-3.77,2.75-7.58,4.34-11.28.29-.68.81-3.41,2.64-1Z" transform="translate(-44.81 -51.16)"/><path class="cls-20" d="M105,540c3.44.74,2.88,4,3.9,6.28a34.34,34.34,0,0,1,3.21,11.26L109.89,555,106,543.94c-.53-1.26-1.33-2.46-1-3.94Z" transform="translate(-44.81 -51.16)"/><path class="cls-7" d="M296,710c2.53,1.47,5.29,1.11,8,.81,1.12-.12,1.87-.24,2,1.11-5.81,1.86-11.54,2-17.11-.89.93-1.21,2.29-.93,3.54-1.06C293.61,710,294.82,708.78,296,710Z" transform="translate(-44.81 -51.16)"/><path class="cls-22" d="M626.47,279.19H656.8v.5H626.05Z" transform="translate(-44.81 -51.16)"/><path class="cls-10" d="M55,351l-1.18-1.33c.07-1.86,1.5-2.75,2.72-3.78,2.29-1.83,4-4.32,6.47-5.93a.74.74,0,0,1,.73-.12,2.35,2.35,0,0,1-.57,3.74C59.92,345.54,57.79,348.61,55,351Z" transform="translate(-44.81 -51.16)"/><path class="cls-3" d="M173,530.1c1-1.51,2.64-1.08,4.06-1.08,9.06,0,18.12,0,27.19.06-8.55,1.55-17.19.47-25.78.9C176.67,530.07,174.84,530.07,173,530.1Z" transform="translate(-44.81 -51.16)"/><path class="cls-14" d="M290,329.18c.8,1.85-.38,1.84-1.67,1.84-4.09,0-8.17-.92-12.28.35-.07-1.83,1.68-1.27,1.91-2.29C282,327.89,286,328.84,290,329.18Z" transform="translate(-44.81 -51.16)"/><path class="cls-5" d="M121,641c1.19-3.45-2.13-1.22-3-2.63,3.5-.58,3.39-2,1.47-4.64-1.14-1.57-4.64-2.87-2.07-5.92,1.78,3.35,5.14,5.77,5.75,9.8.27,1.74,1.29,4-2.13,3.39Z" transform="translate(-44.81 -51.16)"/><path class="cls-20" d="M508,408.14c-.36-.53-1.09-1.15-1-1.56.28-1.11,1.34-.59,2-.39,3.31,1,4.66,5.38,3.09,9.8C510.66,413.38,510.14,410.33,508,408.14Z" transform="translate(-44.81 -51.16)"/><path class="cls-23" d="M301.84,677.91c2,4.58-1.46,7.72-2.81,12.68-1.35-2.93-4.39-3.91-2-6.68h0c1.05,1.91,2,1.93,2.83-.15A13.45,13.45,0,0,1,301.84,677.91Z" transform="translate(-44.81 -51.16)"/><path class="cls-4" d="M446,685.94a15.51,15.51,0,0,1,3.63-12.79c.84.74.16,2,.42,3C449,679.53,448.42,683.11,446,685.94Z" transform="translate(-44.81 -51.16)"/><path class="cls-9" d="M348,427l26.11,0C365.38,428.09,356.68,428.55,348,427Z" transform="translate(-44.81 -51.16)"/><path class="cls-20" d="M429,685c2.31.72,2.5,1,1.54,1.65-1.64,1.09-2,2.82-3.41,5.38.58-4.16-4-6.46-1.05-10C427.15,682.87,426.51,685.43,429,685Z" transform="translate(-44.81 -51.16)"/><path class="cls-16" d="M294,674.9l-.15,2.93c-1.38-5.38-6.3-9.66-4.89-15.83l1,2.16c.93,1.51,1.08,3.35,2,4.85Z" transform="translate(-44.81 -51.16)"/><path class="cls-3" d="M176.21,551.91A7.17,7.17,0,0,1,171,551c2-5,.51-10.33,1-15.48.19-1.86-.78-4,1.1-5.5-.11,6-.08,12-.38,18C172.58,550.74,174.3,551.28,176.21,551.91Z" transform="translate(-44.81 -51.16)"/><path class="cls-17" d="M438.84,425.74c7.06,2.42,14.16,1.42,21.27.24,0,1.15-.6,1.85-1.78,1.85q-9.06,0-18.13,0C438.75,427.82,438,427.3,438.84,425.74Z" transform="translate(-44.81 -51.16)"/><path class="cls-11" d="M132.92,505.91c.1.83.19,1.65.28,2.48a4.73,4.73,0,0,1-.93,3.67c-1.41,1.36-1.35,3.38-2.25,5h0a2.3,2.3,0,0,1-.81-3.07c2.57-4.44,1.59-9.26,1.79-14C134.16,501.15,131.43,504.22,132.92,505.91Z" transform="translate(-44.81 -51.16)"/><path class="cls-10" d="M122,700c-1.68-4.59,2.65-8.55.4-13.86,3.44,1.77,2.23,4,2.58,5.7C123.72,694.46,124.57,697.86,122,700Z" transform="translate(-44.81 -51.16)"/><path class="cls-15" d="M400.93,617.19a70.59,70.59,0,0,1-23.87,0Z" transform="translate(-44.81 -51.16)"/><path class="cls-16" d="M145,618v-.86c4.47,0,8.93-.09,13.4-.12,1.33,0,2.81-.15,2.42,2Z" transform="translate(-44.81 -51.16)"/><path class="cls-11" d="M310,551l1,1c1.32,2-.14,3.46-1,5-1.41,1.58-1.76,4-3.85,5.05-2.15-1.67-.86-3.52.39-4.46C308.84,555.86,309.41,553.49,310,551Z" transform="translate(-44.81 -51.16)"/><path class="cls-19" d="M100,329.12l2.6,1.77c-4.38.13-8.17-.26-11.93-.07-1.77.09.38-1.11.31-1.79A23.6,23.6,0,0,1,100,329.12Z" transform="translate(-44.81 -51.16)"/><path class="cls-17" d="M167.91,714.07c6.45-.75,12.75,1.37,19.17,1C180.6,716.6,174.25,715.36,167.91,714.07Z" transform="translate(-44.81 -51.16)"/><path class="cls-22" d="M228.73,617.26V635h-.5V617.21Z" transform="translate(-44.81 -51.16)"/><path class="cls-19" d="M227,410c1.92,4.58.68,9.38.89,14.08.08,1.86-1.49,1.84-2.83,1.88,2.8-3.66,2.78-11.43-.05-15.92Z" transform="translate(-44.81 -51.16)"/><path class="cls-10" d="M641,618c0-.28,0-.56,0-.84,2-.16,3.33.5,3,2.85-2.31,3.09.11,7-1.88,11.07C641.37,626.14,643.09,621.87,641,618Z" transform="translate(-44.81 -51.16)"/><path class="cls-14" d="M281.82,533.32c1.43-2,3-1.39,4.69-.33s3.37,1.84,5.6,3H288Z" transform="translate(-44.81 -51.16)"/><path class="cls-3" d="M81,714c4,2,8.2.52,12.27,1.08-6.23,1.58-12.32.72-18.38-1l.37-.26A8.76,8.76,0,0,1,81,714Z" transform="translate(-44.81 -51.16)"/><path class="cls-3" d="M237.91,488.89q-.48,7.59-1,15.2C235.78,498.93,235.42,493.82,237.91,488.89Z" transform="translate(-44.81 -51.16)"/><path class="cls-14" d="M214,514.16c-.36,4.54.73,9.22-1.2,13.64a31.64,31.64,0,0,0-.79-13.86Z" transform="translate(-44.81 -51.16)"/><path class="cls-14" d="M225,617.19V618c-5.63-.41-11.36,1-16.93-.82Z" transform="translate(-44.81 -51.16)"/><path class="cls-14" d="M242,559c0,.81-.08,1.62-.13,2.43-2-1.88-4.21-3.57-5.05-6.36C240.4,553.93,240.16,557.84,242,559Z" transform="translate(-44.81 -51.16)"/><path class="cls-24" d="M85.13,695.47c3.7-.06,6.9-3.06,12.21-2.05C92.42,694.28,89.2,696.68,85.13,695.47Z" transform="translate(-44.81 -51.16)"/><path class="cls-25" d="M536.05,635.11c-.35-.7-.69-1.4-1-2.09,3.67-1,7.45,1.23,11.12-.56-2.59,2.83-6.31.32-9,2.18Z" transform="translate(-44.81 -51.16)"/><path class="cls-3" d="M333.15,380.32c-2.08-4-.86-8.27-1.07-12.42A29.81,29.81,0,0,1,333.15,380.32Z" transform="translate(-44.81 -51.16)"/><path class="cls-3" d="M121,641c2.25-.16,1.94-1.93,2.13-3.39,1.94,2.61,1.16,4.28-1.82,5.12-1.75.49-3.53.91-5.29,1.36C117.05,642,119.7,642.61,121,641Z" transform="translate(-44.81 -51.16)"/><path class="cls-3" d="M294.5,502.11c3.74,1.73,6.95-1.86,10.59-1.08-2.22.86-4.45,1.72-6.68,2.56C296.68,504.25,295.25,504.05,294.5,502.11Z" transform="translate(-44.81 -51.16)"/><path class="cls-3" d="M53.94,624.82c-.69,3.28-1.83,6.29-4.88,8.17C49.65,629.64,51.6,627.12,53.94,624.82Z" transform="translate(-44.81 -51.16)"/><path class="cls-11" d="M317,342l.11-1.26c1.89,1.08,3.87,2.06,4.94,4.14-.15,1-.34,2.14-1.61,1S318.13,343.29,317,342Z" transform="translate(-44.81 -51.16)"/><path class="cls-26" d="M278.24,471.89l-12.43,0A24.69,24.69,0,0,1,278.24,471.89Z" transform="translate(-44.81 -51.16)"/><path class="cls-15" d="M613,409.94c-3.55,2.12-7.29.68-11-.07h9.2Z" transform="translate(-44.81 -51.16)"/><path class="cls-19" d="M352.84,712H342v-1h10.8A1.16,1.16,0,0,1,352.84,712Z" transform="translate(-44.81 -51.16)"/><path class="cls-12" d="M157,332.23l-.09,12.08C156.12,340.28,155.71,336.25,157,332.23Z" transform="translate(-44.81 -51.16)"/><path class="cls-19" d="M85.78,329.89l.92.24c-.93,1.58-4.84,2.1-6.7.88A11.31,11.31,0,0,1,85.78,329.89Z" transform="translate(-44.81 -51.16)"/><path class="cls-3" d="M264,425c1.5.91,3.58,1.15,3.89,3.41-2.42-.54-4.91-.87-7-2.36C262,425.94,263.24,426.2,264,425Z" transform="translate(-44.81 -51.16)"/><path class="cls-3" d="M63,340c-1.78,2.38-3.5,4.84-6.47,5.93C58.23,343.4,59.7,340.68,63,340Z" transform="translate(-44.81 -51.16)"/><path class="cls-3" d="M558.13,623.76c-.08,1.55-.15,3.1-.23,4.66-.53-3.75-1.88-7.5.1-11.22,0,.31,0,.61,0,.92A8.78,8.78,0,0,1,558.13,623.76Z" transform="translate(-44.81 -51.16)"/><path class="cls-3" d="M526,394a10.24,10.24,0,0,1-3-7.75C525,388.44,525.58,391.19,526,394Z" transform="translate(-44.81 -51.16)"/><path class="cls-2" d="M784,384a7.47,7.47,0,0,1-4-7.08A23.48,23.48,0,0,1,784,384Z" transform="translate(-44.81 -51.16)"/><path class="cls-17" d="M411.56,694.11c3,2,3.15,5.08,3.33,8.19Z" transform="translate(-44.81 -51.16)"/><path class="cls-17" d="M48.89,635.67v10.7A15.56,15.56,0,0,1,48.89,635.67Z" transform="translate(-44.81 -51.16)"/><path class="cls-16" d="M233.92,549.18c.06-.33,0-.72.2-1,1.25-1.76,1.62-.22,1.29.54-.49,1.13,3.7,2.69-.34,3.25C234.69,551.06,234.3,550.12,233.92,549.18Z" transform="translate(-44.81 -51.16)"/><path class="cls-22" d="M262,503c-3-1.52-1.69-4.05-1.06-6.42q.54,3.21,1.06,6.42Z" transform="translate(-44.81 -51.16)"/><path class="cls-4" d="M541,712.07c3.12-2.19,6.65-.58,9.95-1.07C547.83,713.36,544.32,712,541,712.07Z" transform="translate(-44.81 -51.16)"/><path class="cls-7" d="M302,521.89c0,.68,1.22,2.14-.76,1.67A4.33,4.33,0,0,1,298,521h0a2,2,0,0,1,2.36-.13Z" transform="translate(-44.81 -51.16)"/><path class="cls-13" d="M257,617.16a10.51,10.51,0,0,1-8.89,0Z" transform="translate(-44.81 -51.16)"/><path class="cls-12" d="M91.79,656A6.86,6.86,0,0,1,85,653.9C87.41,654.16,89.81,654.42,91.79,656Z" transform="translate(-44.81 -51.16)"/><path class="cls-7" d="M322.66,622.82c1.76,1.21,1.9,2.91.47,4.16-1,.91-1-.7-1.29-1.3C322,624.68,321.71,623.58,322.66,622.82Z" transform="translate(-44.81 -51.16)"/><path class="cls-3" d="M310,557l1-5,2-2C312.78,552.68,312.29,555.24,310,557Z" transform="translate(-44.81 -51.16)"/><path class="cls-17" d="M187,715.11c2.88-2.19,6.16-.7,9.25-1C193.3,715.45,190.13,715,187,715.11Z" transform="translate(-44.81 -51.16)"/><path class="cls-12" d="M156.9,348a7.14,7.14,0,0,1,0,8.07C156.91,353.34,156.9,350.65,156.9,348Z" transform="translate(-44.81 -51.16)"/><path class="cls-8" d="M161.08,677.83v4.92l-1.08,0V676h.94C161,676.61,161,677.22,161.08,677.83Z" transform="translate(-44.81 -51.16)"/><path class="cls-27" d="M202.26,406.21h5.65A6,6,0,0,1,202.26,406.21Z" transform="translate(-44.81 -51.16)"/><path class="cls-17" d="M403.11,564.35c0-2.85,0-5.69,0-8.53A12.5,12.5,0,0,1,403.11,564.35Z" transform="translate(-44.81 -51.16)"/><path class="cls-3" d="M537.09,423c-2.82-1.13-1.92-3.62-2.1-5.72A9.92,9.92,0,0,1,537.09,423Z" transform="translate(-44.81 -51.16)"/><path class="cls-3" d="M80.25,408.93A6.54,6.54,0,0,1,76,404.26,8.56,8.56,0,0,1,80.25,408.93Z" transform="translate(-44.81 -51.16)"/><path class="cls-3" d="M300.36,520.86,298,521l-4-3.13A10,10,0,0,1,300.36,520.86Z" transform="translate(-44.81 -51.16)"/><path class="cls-28" d="M125.56,412.11c2.71,2.29,1,5.31,1.33,8Q126.22,416.12,125.56,412.11Z" transform="translate(-44.81 -51.16)"/><path class="cls-3" d="M75,632l5.22.08L74,634Z" transform="translate(-44.81 -51.16)"/><path class="cls-3" d="M240.61,514.11a6.11,6.11,0,0,1,4.29,4.39A8.89,8.89,0,0,1,240.61,514.11Z" transform="translate(-44.81 -51.16)"/><path class="cls-3" d="M272.68,530.11c2.4-.12,4.86-.42,6.23,2.28Z" transform="translate(-44.81 -51.16)"/><path class="cls-12" d="M100.09,679c2.32.42,3.74,1.66,3.83,4.14Z" transform="translate(-44.81 -51.16)"/><path class="cls-3" d="M122,367l-1-2,6.28,1.1C125.66,367.21,123.83,367.09,122,367Z" transform="translate(-44.81 -51.16)"/><path class="cls-3" d="M588.54,636.09c2.65,1.59,1,4.11,1.36,6.22Q589.23,639.19,588.54,636.09Z" transform="translate(-44.81 -51.16)"/><path class="cls-3" d="M293,711l-4.12,0a2,2,0,0,1-1-2L289,709l0,0C290,710.4,292.72,708.24,293,711Z" transform="translate(-44.81 -51.16)"/><path class="cls-28" d="M174.78,697c-1.89,0-3.92.27-4.74-2.12C171.71,695.38,173.5,695.64,174.78,697Z" transform="translate(-44.81 -51.16)"/><path class="cls-29" d="M435.92,665.8A5.63,5.63,0,0,1,434,671,8.59,8.59,0,0,1,435.92,665.8Z" transform="translate(-44.81 -51.16)"/><path class="cls-3" d="M281,641a5.66,5.66,0,0,1-1.89-5.07A7.24,7.24,0,0,1,281,641Z" transform="translate(-44.81 -51.16)"/><path class="cls-3" d="M533,412a5.72,5.72,0,0,1-2-5C532.67,408.26,533,410.08,533,412Z" transform="translate(-44.81 -51.16)"/><path class="cls-3" d="M443,694a5.76,5.76,0,0,1,2-5C444.9,690.88,444.55,692.67,443,694Z" transform="translate(-44.81 -51.16)"/><path class="cls-3" d="M519.16,376c-1.84-1.14-2.16-2.95-2.16-4.9C518.59,372.3,519,374.09,519.16,376Z" transform="translate(-44.81 -51.16)"/><path class="cls-3" d="M88.87,674.05c1.95,0,4-.43,5.12,1.89Z" transform="translate(-44.81 -51.16)"/><path class="cls-21" d="M293.27,429.16l-4.42-.58c2.92-.66,4.62-1.11,6.15.43Z" transform="translate(-44.81 -51.16)"/><path class="cls-4" d="M130,517c0-2,.23-3.88,2.25-5C131.94,513.91,131.52,515.72,130,517Z" transform="translate(-44.81 -51.16)"/><path class="cls-30" d="M312.94,647a6.6,6.6,0,0,1-1.89,5.07A5.69,5.69,0,0,1,312.94,647Z" transform="translate(-44.81 -51.16)"/><path class="cls-3" d="M292,669a5.58,5.58,0,0,1-2-4.85C291.58,665.39,291.87,667.17,292,669Z" transform="translate(-44.81 -51.16)"/><path class="cls-22" d="M262,503c.9-.28,1-1.86,2.31-1.39.16.06.25,1,.05,1.26-.67.93-1.51,1.29-2.36.13Z" transform="translate(-44.81 -51.16)"/><path class="cls-3" d="M310.92,336c-1.59-.26-3.1-.62-3.86-2.28C308.59,334.07,310.23,334.23,310.92,336Z" transform="translate(-44.81 -51.16)"/><path class="cls-17" d="M475,332.14c.1,1.62-.2,3-1.83,3.82A5.09,5.09,0,0,1,475,332.14Z" transform="translate(-44.81 -51.16)"/><path class="cls-31" d="M682.05,254a2.27,2.27,0,0,1,.55,3.46c-.45.56-1.2.13-1.55-.55C682.44,256.29,681.94,255,682.05,254Z" transform="translate(-44.81 -51.16)"/><path class="cls-3" d="M72.86,400c-1.6-.76-2-2.13-1.87-3.74A5.23,5.23,0,0,1,72.86,400Z" transform="translate(-44.81 -51.16)"/><path class="cls-4" d="M105,540a6.68,6.68,0,0,1,1,3.94,8.46,8.46,0,0,1-2.17-3.88Z" transform="translate(-44.81 -51.16)"/><path class="cls-17" d="M243,540.08c-.91,1.92-2.56,2-4.36,1.78C239.91,540.85,241.24,540,243,540.08Z" transform="translate(-44.81 -51.16)"/><path class="cls-17" d="M49.23,650c1.7.91,1.89,2.45,1.7,4.14A6.81,6.81,0,0,1,49.23,650Z" transform="translate(-44.81 -51.16)"/><path class="cls-3" d="M294.11,517.91c-1.72.23-3.23,0-4.08-1.78A5.83,5.83,0,0,1,294.11,517.91Z" transform="translate(-44.81 -51.16)"/><path class="cls-12" d="M416.86,656c-1.7-.8-2-2.29-1.86-3.94A5,5,0,0,1,416.86,656Z" transform="translate(-44.81 -51.16)"/><path class="cls-3" d="M520.78,380c-1.67-.9-1.94-2.38-1.68-4.08A6.73,6.73,0,0,1,520.78,380Z" transform="translate(-44.81 -51.16)"/><path class="cls-3" d="M299.89,683.77c0,1-.12,2-1.33,2.06s-1.5-.87-1.5-1.91A2,2,0,0,0,299.89,683.77Z" transform="translate(-44.81 -51.16)"/><path class="cls-3" d="M237.83,509.05a4.45,4.45,0,0,1,2.06,4.28A5.73,5.73,0,0,1,237.83,509.05Z" transform="translate(-44.81 -51.16)"/><path class="cls-17" d="M100.9,693.6c-.44,2.29-2.13,2.47-4,2.37Z" transform="translate(-44.81 -51.16)"/><path class="cls-3" d="M332.14,368c-1.93-1.43-.89-3.45-1.05-5.24A9.27,9.27,0,0,1,332.14,368Z" transform="translate(-44.81 -51.16)"/><path class="cls-3" d="M236.89,504c1.85,1.39.88,3.35,1,5.09C236.49,507.63,236.78,505.81,236.89,504Z" transform="translate(-44.81 -51.16)"/><path class="cls-3" d="M281.17,692c1.86.94,1.94,2.59,1.7,4.36A7.42,7.42,0,0,1,281.17,692Z" transform="translate(-44.81 -51.16)"/><path class="cls-3" d="M239.89,484.65a4.53,4.53,0,0,1-2,4.31C237.67,487.12,238.74,485.87,239.89,484.65Z" transform="translate(-44.81 -51.16)"/><path class="cls-9" d="M170.1,694.93a2.7,2.7,0,0,1-3.11-2.6Z" transform="translate(-44.81 -51.16)"/><path class="cls-32" d="M408.83,635c-1.62-.8-1.93-2.23-1.84-3.85A5,5,0,0,1,408.83,635Z" transform="translate(-44.81 -51.16)"/><path class="cls-3" d="M513,360c-2-.9-2.08-2.56-1.81-4.38A7.48,7.48,0,0,1,513,360Z" transform="translate(-44.81 -51.16)"/><path class="cls-3" d="M239.87,351.85c0,1.74-.46,3.23-2.14,4.09A5.29,5.29,0,0,1,239.87,351.85Z" transform="translate(-44.81 -51.16)"/><path class="cls-16" d="M956,151c-.79,1.9-2.36,2.17-4.15,2A5.48,5.48,0,0,1,956,151Z" transform="translate(-44.81 -51.16)"/><path class="cls-10" d="M51,353.89c.15,1.7-.06,3.23-1.82,4.08A7.83,7.83,0,0,1,51,353.89Z" transform="translate(-44.81 -51.16)"/><path class="cls-3" d="M94,715c1.58-1.73,3.59-.78,5.43-.89C97.75,715.23,95.86,715,94,715Z" transform="translate(-44.81 -51.16)"/><path class="cls-25" d="M842,355c-1.7.11-3.22-.15-4-1.93C839.71,353,840.85,354,842,355Z" transform="translate(-44.81 -51.16)"/><path class="cls-3" d="M65,666c1.66-.09,3.16.15,4,1.88A5.67,5.67,0,0,1,65,666Z" transform="translate(-44.81 -51.16)"/><path class="cls-33" d="M734.14,242.67V141.34h.5V242.86Z" transform="translate(-44.81 -51.16)"/><path class="cls-6" d="M891,311c-.16,0-.38,0-.48-.1a3.46,3.46,0,0,1-.42-.63c.95-.09,1.89-.26,2.84-.26q31.93,0,63.88,0c1.44,0,3-.41,4.18,1a4.51,4.51,0,0,1-2.88.49H893.89A4.62,4.62,0,0,1,891,311Z" transform="translate(-44.81 -51.16)"/><path class="cls-33" d="M891,311h70c-1.13,1.41-2.72,1-4.16,1q-30.84,0-61.67,0C893.73,312,892.14,312.4,891,311Z" transform="translate(-44.81 -51.16)"/><path class="cls-34" d="M711.27,122.72V87h.48v35.71Z" transform="translate(-44.81 -51.16)"/><path class="cls-35" d="M905,290a58.45,58.45,0,0,1,24,0A122.59,122.59,0,0,1,905,290Z" transform="translate(-44.81 -51.16)"/><ellipse class="cls-36" cx="800.09" cy="261.3" rx="15.33" ry="0.28"/><path class="cls-13" d="M905,290h24A59,59,0,0,1,905,290Z" transform="translate(-44.81 -51.16)"/><path class="cls-37" d="M785,312c-2.68,2-5.74.59-8.61,1-.09,0-.21-.17-.31-.26L777,312A14.13,14.13,0,0,1,785,312Z" transform="translate(-44.81 -51.16)"/><path class="cls-16" d="M785,312h-8A7.54,7.54,0,0,1,785,312Z" transform="translate(-44.81 -51.16)"/><path class="cls-2" d="M620.15,224.63,617,226a5.13,5.13,0,0,1,.09-1.48C617.81,222.55,619,224.33,620.15,224.63Z" transform="translate(-44.81 -51.16)"/><path class="cls-37" d="M731,356c1.07.82,1,2,1,3.17V407c-1.66-.73-.7-2-1-3-1.07-8.73-.4-17.49-.42-26.24C730.56,370.51,729.93,363.23,731,356Z" transform="translate(-44.81 -51.16)"/><path class="cls-19" d="M731,356q0,24,0,48c-1.25-1-1-2.36-1-3.66q0-20.34,0-40.69C730,358.35,729.75,357,731,356Z" transform="translate(-44.81 -51.16)"/><path class="cls-1" d="M729.56,353c.27-1.74.45-2.91.73-4.75C731.15,350.28,731.43,351.5,729.56,353Z" transform="translate(-44.81 -51.16)"/><path class="cls-28" d="M259,668c.28.4.8.79.81,1.19q.06,18.81,0,37.62c0,.4-.53.79-.81,1.19-1.12-11.37-.21-22.77-.45-34.15C258.51,671.91,258.05,669.88,259,668Z" transform="translate(-44.81 -51.16)"/><path class="cls-7" d="M259,668v40c-.28-.4-.8-.79-.8-1.19q-.07-18.81,0-37.62C258.2,668.79,258.72,668.4,259,668Z" transform="translate(-44.81 -51.16)"/><path class="cls-4" d="M293,711c-.85-1.62-3.13-.38-4-2a15.11,15.11,0,0,0,5.67-.74c1.81-.72,1.82.42,1.31,1.73Z" transform="translate(-44.81 -51.16)"/><path class="cls-38" d="M101.71,492.14l-27.54,0a4.35,4.35,0,0,1,3.55-1.53q10.23-.19,20.45,0A4.25,4.25,0,0,1,101.71,492.14Z" transform="translate(-44.81 -51.16)"/><path class="cls-38" d="M107,514.91c4.45-5.88,3.69-12.32,2-18.86C113.15,501.38,112.07,511.43,107,514.91Z" transform="translate(-44.81 -51.16)"/><path class="cls-9" d="M65,568l-11,0V476.21c1.4,2.54,1,4.26,1,5.86,0,26.27.13,52.55-.09,78.82,0,4.63.94,6.9,5.94,6.16C62.23,566.84,63.87,566.59,65,568Z" transform="translate(-44.81 -51.16)"/><path class="cls-8" d="M104.7,490.37c0,2-1.82,1.45-3,1.77l-27.54,0h0c-1.87-2-1-3,1.28-3.06,9-.09,18,0,27,0C103.44,489,104.7,489.12,104.7,490.37Z" transform="translate(-44.81 -51.16)"/><path class="cls-4" d="M110.8,513.86c-.67,1.43-2,2.81-3.84,1,4.45-5.88,3.69-12.32,2-18.86.23-1.77-1.35-2.47-2.34-3.83a4.48,4.48,0,0,1,5,3.26A23.65,23.65,0,0,1,110.8,513.86Z" transform="translate(-44.81 -51.16)"/><path class="cls-2" d="M74.09,519.17H98.82l0,.63H74.29Z" transform="translate(-44.81 -51.16)"/><path class="cls-13" d="M132.92,505.91c-2-1.53.17-4.41-1.91-5.91.64-1.06,1.52-2.3,1.9,0A34.41,34.41,0,0,1,132.92,505.91Z" transform="translate(-44.81 -51.16)"/><path class="cls-38" d="M395,412.09l3.66-.27C397.51,413.15,396.28,413.09,395,412.09Z" transform="translate(-44.81 -51.16)"/><path class="cls-38" d="M408.72,394.13c-1.65-3.57-4-6.49-7.74-8-7.16-.67-14.38,0-21.56-.56a13.42,13.42,0,0,1-3.77-.41h-1.31a3.73,3.73,0,0,1-2,.35l-3.34.59V386l.51-.54c.09,0,.18-.09.27-.12a6.85,6.85,0,0,1,.95-.36h0c1.25-.37,2.57-.49,3.85-.81a6.44,6.44,0,0,1,2.39.21c7.63.64,15.28-.24,22.9.48C404.26,386.62,408.75,388.21,408.72,394.13Z" transform="translate(-44.81 -51.16)"/><path class="cls-39" d="M398,348c-8.1-.11-16.2-.1-24.29-.36-3.08-.1-4,1-3.93,4,.22,6.44.15,12.89.19,19.33a26.53,26.53,0,0,1-1-5.45,59.72,59.72,0,0,1,0-7.45c.13-2.74.31-5.5.24-8.24,0-1.49.94-2.4,2.59-2.35C380.52,347.81,389.28,346.88,398,348Z" transform="translate(-44.81 -51.16)"/><path class="cls-39" d="M406,365.06c-2.18,4.57-5.93,6.5-11,5.95,9.41-2.86,11.71-6.14,10.59-14.79-.41-3.18-1.74-5.64-4.61-7.18,2.22-.41,3.58,1,4.34,2.62C407.33,356,408.13,360.53,406,365.06Z" transform="translate(-44.81 -51.16)"/><path class="cls-4" d="M408.72,394.13c-1.65-3.57-4-6.49-7.74-8-5.63-1.32-11.36-.25-17-.61-1.5-.09-3,0-4.53,0a13.42,13.42,0,0,1-3.77-.41h-1.31a3.73,3.73,0,0,1-2,.35c-1.15,0-2.34-.23-3.34.58h0V386c-.76-.19-1.84-.24-1.54-1.38.41-1.6,1.87-1.62,3.19-1.63,5.74,0,11.48,0,17.22,0,1.71,0,3.6.63,5.08-1l.06-.06c2.54-.87,3.85,1.49,6.06,1.43.44.15-.24-.76-.2-.1-2.08.13-3.56-2.6-5.86-1.33h-.14c-2.3.09-4.57.09-6.85.09.06-1.42,1.45-.63,2-2.14-4.41,1.16-9-2-13,2-.15.15-3.67,1.94-4.15-1.55-.12-.81-1.71-1.39.42-1.29,9.91.46,19.88-1,29.76.91,2,.39,3.35.37,1.81,2.91-.93,1.51.63,2,1.76,2.18,3.42.68,3.66,4.3,5.73,6.26C411.64,392.47,409.92,393.5,408.72,394.13Z" transform="translate(-44.81 -51.16)"/><path class="cls-20" d="M403.58,370.28A7.08,7.08,0,0,1,395,371c9.41-2.86,11.71-6.14,10.59-14.79-.41-3.18-1.74-5.64-4.61-7.18,2.46-2.16,3.93-.29,5.18,1.45C410.13,356,408.85,366,403.58,370.28Z" transform="translate(-44.81 -51.16)"/><path class="cls-10" d="M399.65,413.41a10.06,10.06,0,0,1-5.4,2.14c-8.17.22-16.35.1-25.47.1,1.69-3.32,3.38-2.6,4.66-2.6q9.58,0,19.19.33a2.2,2.2,0,0,0,2.35-1.29l3.66-.27h0C399.32,412.18,401.3,412.16,399.65,413.41Z" transform="translate(-44.81 -51.16)"/><path class="cls-17" d="M398,348c-8.1-.11-16.2-.1-24.29-.36-3.08-.1-4,1-3.93,4,.22,6.44.15,12.89.19,19.33l-.14.12h0a1.37,1.37,0,0,1-1.13-.67,1.18,1.18,0,0,1-.12-.58v-.11c.11-7.22-.56-14.46.36-21.67,1.07-1.47,2.66-1.19,4.1-1.09C381.35,347.55,389.77,345.75,398,348Z" transform="translate(-44.81 -51.16)"/><path class="cls-23" d="M368.94,348.11c0,6.1,0,12.21,0,18.32,0,1.6-.47,3.33.86,4.71a4.82,4.82,0,0,1,.11.85.54.54,0,0,1-.95,0A59.55,59.55,0,0,1,368.94,348.11Z" transform="translate(-44.81 -51.16)"/><path class="cls-16" d="M369,372l.95,0h21.73C384.12,372.43,376.53,374.18,369,372Z" transform="translate(-44.81 -51.16)"/><path class="cls-9" d="M394.07,424.27c4.55,1.07,8.14-3.23,12.79-2.12C403.12,425.48,401.69,425.74,394.07,424.27Z" transform="translate(-44.81 -51.16)"/><path class="cls-16" d="M297,410c-3.68,1.33-7.28,3.07-11.07,3.89-5,1.08-9.78-.67-14.36-2.65-4.81-2.1-11.24-5.4-12.1-8.91-1.2-4.89-5.89-8.8-4.47-14.33-.2-2.92-2.15-6.12,1.4-8.41a3.63,3.63,0,0,1,.44.25.28.28,0,0,1,.09.07c1.7,1.15,1.21,3.19,1.51,4.89.94,5.24,1.85,10.39,5.06,14.95,6.73,9.55,16.43,9.46,26.45,8.67,1.65-.13,3.25-.7,4.94-.49l.17.05c.24.06.49.12.72.2A1.54,1.54,0,0,1,297,410Z" transform="translate(-44.81 -51.16)"/><path class="cls-16" d="M295,349.93a2.11,2.11,0,0,1-.4.39,2,2,0,0,1-.65.35l-.23.07c-5.38,0-10.57-2.34-16.18-.62-5.89,1.82-11.1,4.21-14.41,9.7-.81,1.34-1.68,2.76-3.5,2.85h-.24l-.09,0A2.22,2.22,0,0,1,258,362c1.8-8,7.84-11.42,14.68-14.46,5.85-2.6,11.76-1.22,17.63-1.36A4.68,4.68,0,0,1,295,349.93Z" transform="translate(-44.81 -51.16)"/><path class="cls-20" d="M311.73,386.22C310.25,394.42,308,403,300,408c-1.82-.14-1.25-1.11-1-2a1.71,1.71,0,0,0,.12-.51l0,0h0a29.23,29.23,0,0,1,5.07-6.43c1.53-1.06,1.45-2.73,1.6-4.31,3.12-9.15,2.7-18.41.92-27.72l0-.14a9.41,9.41,0,0,1,.4-1.83A1.73,1.73,0,0,1,309,364,40.57,40.57,0,0,1,311.73,386.22Z" transform="translate(-44.81 -51.16)"/><path class="cls-11" d="M309,364c-1.22.76-.94,2-1.09,3.18a1.94,1.94,0,0,1-1.13-.3,3.43,3.43,0,0,1-1.16-1.9c-1.9-5.66-5.1-10.24-10.57-13a2,2,0,0,1-1.16-1.31,1.74,1.74,0,0,1,0-.64l1-.1c4.89-2.89,6.89,2.17,9.51,4.1,2.35,1.72,3.14,5.45,5.74,7.62C311.9,363.07,310.4,363.7,309,364Z" transform="translate(-44.81 -51.16)"/><path class="cls-11" d="M256.93,379.91l-.09.09c-3.6,2-1,5.38-1.84,8-1.65-7.87-2.15-15.64,2-23a3.28,3.28,0,0,1,1.15,2,1.74,1.74,0,0,1,.05.22,1,1,0,0,1,0,.17c.21,1.67.11,3.36.26,5C258.25,375,259.09,377.78,256.93,379.91Z" transform="translate(-44.81 -51.16)"/><path class="cls-7" d="M300,408c-.09,2-1.55,2-3,2a2.62,2.62,0,0,0-2.27-1.12,6.75,6.75,0,0,1,.33-.9,4.14,4.14,0,0,1,4.1-2.5h0l.63,0C300,406.33,299,407.24,300,408Z" transform="translate(-44.81 -51.16)"/><path class="cls-14" d="M258.56,367.34a1.13,1.13,0,0,1-.36.06h-.11a1.14,1.14,0,0,1-.26,0A1.56,1.56,0,0,1,257,367c0-.67,0-1.34,0-2l1-3,1.28.11c.11.19.21.38.3.56A3.4,3.4,0,0,1,258.56,367.34Z" transform="translate(-44.81 -51.16)"/><path class="cls-17" d="M308.93,420.41c-1.1,2.5-2.15,2.77-3.7,3C305.68,421.7,307,421.73,308.93,420.41Z" transform="translate(-44.81 -51.16)"/><path class="cls-8" d="M201.71,489.48h17.57l0,.91H201.73Z" transform="translate(-44.81 -51.16)"/><path class="cls-6" d="M201,515a7,7,0,0,1,.06-.92h4.39C203.73,515.5,202.29,514.77,201,515Z" transform="translate(-44.81 -51.16)"/><path class="cls-40" d="M480,370q-2.46,8-4.91,16A27.65,27.65,0,0,1,480,370Z" transform="translate(-44.81 -51.16)"/><path class="cls-40" d="M483.08,362c0-2.05-.27-4.14,1.08-5.93a.21.21,0,0,1,0-.06v.12C484.06,358.17,484.56,360.29,483.08,362Z" transform="translate(-44.81 -51.16)"/><path class="cls-40" d="M484.21,356.19c.75-1.93,1-4.49,3.67-4.61,2.87-.13,3.09,2.59,3.75,4.46.92,2.61,2.07,5.15,2.76,7.84a22.34,22.34,0,0,1,.83,2.51v0c.24.85.45,1.7.67,2.55a6.5,6.5,0,0,1,0,1.08v0A7.23,7.23,0,0,1,494,365c-1.92-2.75-2.64-6-3.53-9.12-.4-1.4-.64-3.36-2.12-3.67-2-.44-1.81,1.85-2.56,3C485.47,355.67,484.75,355.87,484.21,356.19Z" transform="translate(-44.81 -51.16)"/><path class="cls-40" d="M497.9,376.14l0,0v-.05Z" transform="translate(-44.81 -51.16)"/><path class="cls-40" d="M500.87,389.84h0c-.12.12-.25.25-.36.38l0,0c-.09.08-.17.17-.25.25l-.15,0a52.15,52.15,0,0,1-5.71.49c-2.05.08-4.11.06-6.17,0h0c-2.4-.05-4.8-.12-7.2-.12-.79,0-1.56,0-2.35,0a3,3,0,0,1-2.38-1.1L478,390Z" transform="translate(-44.81 -51.16)"/><path class="cls-10" d="M495.83,370.24l.05-.11,0-.09A27.6,27.6,0,0,0,494,365c-1.92-2.75-2.64-6-3.53-9.12-.4-1.4-.64-3.36-2.12-3.67-2-.44-1.81,1.85-2.56,3-.3.47-1,.67-1.56,1v0l0-.06s0,0,0,0c-2-3.1.06-5.67,2-7.27,3-2.49,4.27.82,5.5,2.81,1.57,2.53-.21,7,4.44,7.76C492.65,362.92,499.37,366.71,495.83,370.24Z" transform="translate(-44.81 -51.16)"/><path class="cls-11" d="M480,370q-2.46,8-4.91,16l-1.55,1.11c.2-3.7.4-7.39.61-11.09,1.41,1.57,2.18.94,2.63-.77.37-1.42.73-2.84,1.06-4.27a18.76,18.76,0,0,1,.5-2.39c.21-.55.8-1.27,1.4-.49C480.08,368.53,479.93,369.35,480,370Z" transform="translate(-44.81 -51.16)"/><path class="cls-21" d="M502,391.79c-9.52-.14-19.14,1.38-28.48-1.94h2.74L478,390a87.19,87.19,0,0,0,22.88-.11h.05c.75.22,1.77.24,2.12.74C503.51,391.26,502.55,391.8,502,391.79Z" transform="translate(-44.81 -51.16)"/><path class="cls-19" d="M484.2,356.17c-.14,2,.36,4.12-1.12,5.87-2.09-2.44-.85-4.26,1.07-6l.05,0A.48.48,0,0,0,484.2,356.17Z" transform="translate(-44.81 -51.16)"/><path class="cls-17" d="M476.71,339.35c-.88-2.69-.87-3.89.65-4.7C478.65,336.11,477.17,337,476.71,339.35Z" transform="translate(-44.81 -51.16)"/><path class="cls-21" d="M497.9,376.14c.18-.43.42-1.26.53-1.24,2.22.34,1.45,1.89,1.34,3.34l-1.89-2.18Z" transform="translate(-44.81 -51.16)"/><path class="cls-41" d="M389.65,553.85H353.32v-.5h36.55Z" transform="translate(-44.81 -51.16)"/><path class="cls-3" d="M239.31,506.74v-15H240v15.07Z" transform="translate(-44.81 -51.16)"/><path class="cls-17" d="M242,544c1.87-1.21,3.22-4,6.63-2-1.08,1.39-3.27,1.26-3.63,3C243.9,545,242.72,545.17,242,544Z" transform="translate(-44.81 -51.16)"/><path class="cls-3" d="M293.53,493.67c2.73,1.06,4,2.7,1.93,6.07A23.57,23.57,0,0,0,293.53,493.67Z" transform="translate(-44.81 -51.16)"/><path class="cls-17" d="M235,546c1.85-1.12,3.27-3.51,6-2C239.22,545.34,237.36,546.43,235,546Z" transform="translate(-44.81 -51.16)"/><path class="cls-8" d="M158,675.9q0-27.58,0-55.17l1.46,0V676Z" transform="translate(-44.81 -51.16)"/><path class="cls-20" d="M207,668c-.28-.4-.8-.79-.8-1.19q-.07-18.81,0-37.62c0-.4.53-.79.81-1.19,1.08,7.89.38,15.82.42,23.72C207.46,657.14,208.08,662.6,207,668Z" transform="translate(-44.81 -51.16)"/><path class="cls-32" d="M207,668V628c.28.4.8.79.8,1.19q.07,18.81,0,37.62C207.81,667.2,207.28,667.6,207,668Z" transform="translate(-44.81 -51.16)"/><path class="cls-3" d="M593,632c-9.61,2.08-19.34.5-29,1,.62-2.28,2.43-.87,3.53-.91,6.14-.2,12.28-.08,18.42-.13.92,0,2.19,0,2.09-1.35,0-.4-1.25-.71-1.79-1.43C588.46,630.23,592.4,626.43,593,632Z" transform="translate(-44.81 -51.16)"/><path class="cls-41" d="M558.13,623.76c0-1.88,0-3.76-.08-5.64A4.23,4.23,0,0,1,558.13,623.76Z" transform="translate(-44.81 -51.16)"/><path class="cls-8" d="M493,476c-3.26,1.27-6.52-.09-9.79-.08-23,.13-45.93.07-68.89-.87H493c.25.22.34.44.24.64S493.07,476,493,476Z" transform="translate(-44.81 -51.16)"/><path class="cls-14" d="M466.33,491.28h13.56v.49H466.14Z" transform="translate(-44.81 -51.16)"/><path class="cls-19" d="M493,476c0-.32,0-.63,0-.95,2.29,4.43.13,9.08,1.2,13.57l-1.24.07Z" transform="translate(-44.81 -51.16)"/><path class="cls-21" d="M514,711.24h11.69v.43H514Z" transform="translate(-44.81 -51.16)"/><path class="cls-13" d="M545.17,695.88c-2.16,2-4.64.81-7,.35l7-.35Z" transform="translate(-44.81 -51.16)"/><path class="cls-21" d="M179.1,410.22h4.66l.07.42h-4.57Z" transform="translate(-44.81 -51.16)"/><path class="cls-23" d="M551.16,384.72q0-18.32-.1-36.62c1.75,1.74.6,3.94.94,5.9q0,3,0,6c0,6.67,0,13.33-.06,20C551.94,381.58,552.63,383.36,551.16,384.72Z" transform="translate(-44.81 -51.16)"/><path class="cls-21" d="M573.83,410.39h9.9c0,.16,0,.33,0,.49h-9.89Z" transform="translate(-44.81 -51.16)"/><path class="cls-17" d="M103.37,700.23c-3.53-3.57.26-4.46,1.49-6.14C104.42,695.89,104,697.69,103.37,700.23Z" transform="translate(-44.81 -51.16)"/><path class="cls-3" d="M104.14,710.64,97,712.13C99.73,709.86,101.57,708.66,104.14,710.64Z" transform="translate(-44.81 -51.16)"/><path class="cls-13" d="M81,714l-5.74-.15A4.34,4.34,0,0,1,81,714Z" transform="translate(-44.81 -51.16)"/><path class="cls-21" d="M80.17,615.25h8.76v.49H80.28Z" transform="translate(-44.81 -51.16)"/><path class="cls-23" d="M67,640c2,1.32,1.08,2.65,0,4C67,642.66,67,641.33,67,640Z" transform="translate(-44.81 -51.16)"/><path class="cls-3" d="M70.87,631.9c-.34.55-.49,1-.82,1.26-.5.34-.9-.06-.88-.55a1.77,1.77,0,0,1,.53-1.15C69.83,631.34,70.38,631.7,70.87,631.9Z" transform="translate(-44.81 -51.16)"/><path class="cls-3" d="M298.6,332.57c2,.41,2.26,2.36,3.95,2.51,1,.08,2.67.52,1.41,2.17-.81,1.06-1.86.39-2.52-.38C300.43,335.69,298.65,335,298.6,332.57Z" transform="translate(-44.81 -51.16)"/><path class="cls-3" d="M87.86,416.32c3.47-3.14,6-2.37,8.48-1.29C94.05,416.5,91.44,415.68,87.86,416.32Z" transform="translate(-44.81 -51.16)"/><path class="cls-3" d="M193,567h4.49c-2,1.46-3.28,1.21-4.49,0Z" transform="translate(-44.81 -51.16)"/><path class="cls-3" d="M260,422l4,3c-2.08.21-3.76-.85-5.47-1.78-.66-.36-1.16-.81,0-1.14A6.41,6.41,0,0,1,260,422Z" transform="translate(-44.81 -51.16)"/><path class="cls-32" d="M401,386.09c-7.16-.67-14.38,0-21.56-.56-1.26-.09-2.51-.23-3.77-.41,7.25,0,14.5-.1,21.75-.12C398.69,385,400.09,384.76,401,386.09Z" transform="translate(-44.81 -51.16)"/><path class="cls-32" d="M374.34,385.13l-2,.35-3.34.59h0a3.13,3.13,0,0,1,.78-.7,2.63,2.63,0,0,1,.95-.36h0C371.91,384.78,373.16,385.17,374.34,385.13Z" transform="translate(-44.81 -51.16)"/><path class="cls-3" d="M392.84,382c3.44-2.24,5.11.37,7.38,1.5C397.19,385.3,395.42,382.13,392.84,382Z" transform="translate(-44.81 -51.16)"/><path class="cls-38" d="M307.92,367.18c-.22-.72-.46-1.43-.73-2.13-2.34-6.43-6.13-11.7-12.64-14.73l-.63-.29c-13.93-3.75-25.88-1.86-33.73,11.79-.12.21-.6.2-.91.29l0,.55c-.06,1.53,0,3.07-1.12,4.35l0,0a2.26,2.26,0,0,0-.28.35c-.86,1.35.22,3.13-.67,4.48l-.14.19-.18,7.78V380c.07,1.66.11,3.33.22,5,.88,13.06,9.13,23.48,19.86,24.86a43,43,0,0,0,17.81-1l1-.7L299,406l.78-.52,4.92-5.59c1.52-.91,1.5-2.68,2.24-4A50.4,50.4,0,0,0,307.92,367.18Zm-2.08,27.56c-.15,1.58-.07,3.25-1.6,4.31a29.23,29.23,0,0,0-5.07,6.43h0a4.14,4.14,0,0,0-4.1,2.5l-.17-.05c-1.69-.21-3.29.36-4.94.49-10,.79-19.72.88-26.45-8.67-3.21-4.56-4.12-9.71-5.06-14.95-.3-1.7.19-3.74-1.51-4.89,2.16-2.13,1.32-4.92,1.53-7.47-.15-1.68,0-3.37-.26-5a1.13,1.13,0,0,0,.36-.06,3.4,3.4,0,0,0,1-4.67c1.82-.09,2.69-1.51,3.5-2.85,3.31-5.49,8.52-7.88,14.41-9.7,5.61-1.72,10.8.58,16.18.62l.23-.07a2,2,0,0,0,1.16,1.31c5.47,2.76,8.67,7.34,10.57,13a3.43,3.43,0,0,0,1.16,1.9l0,.14C308.54,376.33,309,385.59,305.84,394.74Z" transform="translate(-44.81 -51.16)"/><path class="cls-7" d="M304.72,399.92q1.11-2,2.24-4C307.07,397.71,306.91,399.38,304.72,399.92Z" transform="translate(-44.81 -51.16)"/><path class="cls-3" d="M258.11,367c-.1,1.73.09,3.52-1.09,5,0-1.69,0-3.37,0-5.06Z" transform="translate(-44.81 -51.16)"/><path class="cls-3" d="M501,389.84l0,0a3.51,3.51,0,0,1-.41.37l0,0c-.13.09-.26.19-.4.27-1.77,1.11-3.78.74-5.71.49-.47-.06-.94-.11-1.4-.13a42.4,42.4,0,0,0-4.77.16h0a27.53,27.53,0,0,1-7.2-.12,12.17,12.17,0,0,1-3-1l22.88-.12Z" transform="translate(-44.81 -51.16)"/><path class="cls-3" d="M495.88,370.13l0,0A7.23,7.23,0,0,1,494,365a5.78,5.78,0,0,1,1.24,1.4v0A5.62,5.62,0,0,1,495.88,370.13Z" transform="translate(-44.81 -51.16)"/></svg>