<svg xmlns="http://www.w3.org/2000/svg" xmlns:xlink="http://www.w3.org/1999/xlink" viewBox="0 0 1336 796"><defs><style>.a{fill:none;}.b{clip-path:url(#a);}.c{fill:url(#b);}</style><clipPath id="a" transform="translate(35 23)"><path class="a" d="M388.678,713.2439h1.448v-1.448h-1.448Zm562.0471.124h1.6941v-1.695h-1.6941Zm-199.4121.31h2.314v-2.315h-2.314Zm187.2649.124h2.5639v-2.563h-2.5639Zm-398.5329.33h3.2231v-3.2241H540.045Zm386.3681.1241h3.4709V710.783h-3.4709Zm-316.4891.269h4.008v-4.01h-4.008Zm222.4219.103h4.216v-4.216h-4.216Zm-47.1169.2691h4.754v-4.753h-4.754Zm117.0359.082h4.9189v-4.918h-4.9189Zm-105.6129.207h5.332v-5.331h-5.332Zm93.633.062h5.456v-5.456h-5.456Zm-492.045.1448h5.746v-5.7451H398.24Zm480.126.062h5.87v-5.87h-5.87Zm-140.646.1031h6.077v-6.076H737.72Zm128.811.021h6.1169v-6.117H866.531Zm-46.89.041h6.199v-6.2h-6.199Zm35.116.021h6.2419v-6.242H854.757Zm-11.7539.041h6.3239v-6.323h-6.3239Zm-688.417-14.294h1.156V700.229h-1.156Zm854.76.2051h1.5721v-1.57h-1.5721Zm-843.9779.7239h3.017v-3.0181h-3.017Zm831.2741.269h3.5559V699.031h-3.5559Zm-504.3751.764h5.083v-5.0831h-5.083Zm491.65.249h5.581v-5.5811h-5.581Zm-387.194.7031h6.985v-6.9871h-6.985Zm374.5519.228h7.44v-7.4419h-7.44Zm-726.6119.4739h8.3919v-8.3911H244.663Zm714.26.166h8.7229V696.447h-8.7229Zm-222.8561.33h9.382v-9.3831h-9.382Zm210.7311.083h9.5481v-9.55h-9.5481Zm-257.868.2061h9.962v-9.962H688.93Zm245.9078.0407h10.043V695.7859h-10.043Zm-187.5139.125h10.2929V695.6619H747.324Zm175.6579.02h10.333V695.6418h-10.333Zm-164.0279.061h10.458v-10.457H758.954Zm152.233.022h10.499v-10.5H911.187Zm-245.9711.021h10.542v-10.542h-10.542Zm46.8481,0h10.541v-10.542H712.064Zm58.56,0h10.541v-10.542H770.624Zm11.711,0h10.542v-10.542H782.335Zm11.712,0h10.542v-10.542H794.047Zm11.712,0h10.542v-10.542H805.759Zm11.7119,0h10.542v-10.542h-10.542Zm11.7121,0h10.542v-10.542H829.183Zm23.4241,0h10.541v-10.542h-10.541Zm23.4239,0h10.541v-10.542H876.031Zm23.4241,0h10.541v-10.542h-10.541Zm145.1509-16.3208h1.323v-1.323h-1.323ZM118.334,690.79h3.389v-3.3879h-3.389Zm913.072.4558h4.2981v-4.3h-4.2981Zm-844.413,1.157h6.615V685.79h-6.615Zm831.151.3921h7.399V685.396h-7.399ZM291.2,693.603h9.0119v-9.0119H291.2Zm714.24.1848h9.3831v-9.383H1005.44Zm-316.6139.3931h10.169v-10.168H688.826Zm304.4269.082h10.334V683.93h-10.334Zm-527.1379.104h10.541V683.825H466.115Zm11.712,0h10.541V683.825H477.827Zm11.7119,0H500.08V683.825H489.5389Zm23.4231,0h10.5411V683.825H512.962Zm46.8481,0h10.541V683.825H559.81Zm11.7119,0h10.5389V683.825H571.522Zm11.712,0h10.5389V683.825H583.234Zm11.712,0h10.539V683.825H594.946Zm46.847,0h10.541V683.825H641.793Zm11.711,0h10.542V683.825H653.504Zm58.56,0h10.541V683.825H712.064Zm23.424,0h10.5411V683.825H735.488Zm23.424,0h10.541V683.825H758.912Zm11.712,0h10.541V683.825H770.624Zm11.711,0h10.542V683.825H782.335Zm58.56,0h10.541V683.825H840.895Zm35.136,0h10.541V683.825H876.031Zm23.4241,0h10.541V683.825h-10.541Zm11.7119,0h10.5391V683.825H911.167Zm11.7109,0h10.541V683.825h-10.541Zm11.7122,0h10.541V683.825H934.59Zm11.7119,0h10.541V683.825H946.302Zm11.7119,0h10.541V683.825h-10.541Zm11.7122,0h10.541V683.825h-10.541Zm11.7119,0h10.541V683.825H981.438Zm-769.554-15.143h3.678v-3.68h-3.678Zm842.6971.5571h4.7959v-4.7939h-4.7959ZM221.488,681.332h7.8951v-7.895H221.488Zm819.419.4138h8.7219v-8.7229h-8.7219Zm-527.7381.7022H523.297V672.321H513.1689Zm515.199.124h10.375V672.197h-10.375Zm-573.9649.083h10.541V672.114H454.403Zm46.847,0h10.542V672.114H501.25Zm93.696,0h10.539V672.114H594.946Zm11.712,0h10.5389V672.114H606.658Zm11.712,0h10.5389V672.114H618.37Zm11.7111,0h10.541V672.114h-10.541Zm11.7119,0h10.541V672.114H641.793Zm11.711,0h10.542V672.114H653.504Zm11.7119,0h10.542V672.114h-10.542Zm11.7121,0H687.47V672.114H676.928Zm11.712,0h10.542V672.114H688.64Zm58.56,0h10.541V672.114H747.2Zm11.712,0h10.541V672.114H758.912Zm11.712,0h10.541V672.114H770.624Zm11.711,0h10.542V672.114H782.335Zm23.424,0h10.542V672.114H805.759Zm23.424,0h10.542V672.114H829.183Zm23.4241,0h10.541V672.114h-10.541Zm11.7119,0H874.86V672.114H864.319Zm11.712,0h10.541V672.114H876.031Zm11.712,0h10.5409V672.114H887.743Zm11.7121,0h10.541V672.114h-10.541Zm23.4228,0h10.541V672.114h-10.541Zm11.7122,0h10.541V672.114H934.59Zm11.7119,0h10.541V672.114H946.302Zm11.7119,0h10.541V672.114h-10.541Zm11.7122,0h10.541V672.114h-10.541Zm11.7119,0h10.541V672.114H981.438Zm11.7119,0h10.5391V672.114H993.15Zm11.7122,0h10.54V672.114h-10.54Zm11.7119,0h10.539V672.114h-10.539Zm-862.112-16.28h1.4051v-1.406H154.462Zm924.6191.6208h2.645v-2.6469h-2.645ZM163.486,669.063h6.779v-6.78h-6.779Zm901.1341.6809h8.1441v-8.1421H1064.62ZM583.399,670.7778h10.21v-10.21h-10.21Zm468.351.125h10.458v-10.458H1051.75Zm-714.4659.04h10.541v-10.541h-10.541Zm58.5589,0h10.542v-10.541H395.843Zm46.848,0h10.5411v-10.541H442.691Zm23.424,0h10.541v-10.541H466.115Zm11.712,0h10.541v-10.541H477.827Zm58.559,0h10.541v-10.541H536.386Zm58.56,0h10.539v-10.541H594.946Zm11.712,0h10.5389v-10.541H606.658Zm11.712,0h10.5389v-10.541H618.37Zm11.7111,0h10.541v-10.541h-10.541Zm11.7119,0h10.541v-10.541H641.793Zm35.135,0H687.47v-10.541H676.928Zm11.712,0h10.542v-10.541H688.64Zm35.136,0h10.541v-10.541H723.776Zm11.712,0h10.5411v-10.541H735.488Zm11.712,0h10.541v-10.541H747.2Zm35.135,0h10.542v-10.541H782.335Zm11.712,0h10.542v-10.541H794.047Zm23.4239,0h10.542v-10.541h-10.542Zm11.7121,0h10.542v-10.541H829.183Zm11.712,0h10.541v-10.541H840.895Zm11.7121,0h10.541v-10.541h-10.541Zm35.1359,0h10.5409v-10.541H887.743Zm11.7121,0h10.541v-10.541h-10.541Zm11.7119,0h10.5391v-10.541H911.167Zm11.7109,0h10.541v-10.541h-10.541Zm23.4241,0h10.541v-10.541H946.302Zm11.7119,0h10.541v-10.541h-10.541Zm11.7122,0h10.541v-10.541h-10.541Zm11.7119,0h10.541v-10.541H981.438Zm11.7119,0h10.5391v-10.541H993.15Zm11.7122,0h10.54v-10.541h-10.54Zm11.7119,0h10.539v-10.541h-10.539Zm11.7119,0h10.54v-10.541h-10.54Zm11.7121,0h10.54v-10.541h-10.54Zm-850.587-16.094H191.19v-1.7771H189.411Zm901.1119.7041h3.1832v-3.1841h-3.1832ZM197.981,657.991h8.061V649.93h-8.061Zm877.7509.6408h9.3421v-9.343h-9.3421Zm-867.2789.5992h10.541V648.69H208.453Zm222.526,0H441.52V648.69H430.979Zm35.136,0h10.541V648.69H466.115Zm46.847,0h10.5411V648.69H512.962Zm70.272,0h10.5389V648.69H583.234Zm11.712,0h10.539V648.69H594.946Zm11.712,0h10.5389V648.69H606.658Zm11.712,0h10.5389V648.69H618.37Zm23.423,0h10.541V648.69H641.793Zm11.711,0h10.542V648.69H653.504Zm11.7119,0h10.542V648.69h-10.542Zm11.7121,0H687.47V648.69H676.928Zm11.712,0h10.542V648.69H688.64Zm11.7121,0h10.541V648.69h-10.541Zm11.7119,0h10.541V648.69H712.064Zm11.712,0h10.541V648.69H723.776Zm23.424,0h10.541V648.69H747.2Zm35.135,0h10.542V648.69H782.335Zm11.712,0h10.542V648.69H794.047Zm11.712,0h10.542V648.69H805.759Zm11.7119,0h10.542V648.69h-10.542Zm11.7121,0h10.542V648.69H829.183Zm23.4241,0h10.541V648.69h-10.541Zm11.7119,0H874.86V648.69H864.319Zm23.424,0h10.5409V648.69H887.743Zm11.7121,0h10.541V648.69h-10.541Zm11.7119,0h10.5391V648.69H911.167Zm11.7109,0h10.541V648.69h-10.541Zm23.4241,0h10.541V648.69H946.302Zm11.7119,0h10.541V648.69h-10.541Zm11.7122,0h10.541V648.69h-10.541Zm11.7119,0h10.541V648.69H981.438Zm11.7119,0h10.5391V648.69H993.15Zm11.7122,0h10.54V648.69h-10.54Zm11.7119,0h10.539V648.69h-10.539Zm11.7119,0h10.54V648.69h-10.54Zm11.7121,0h10.54V648.69h-10.54Zm11.711,0h10.541V648.69h-10.541Zm11.7119,0h10.541V648.69h-10.541Zm39.373-15.949h2.065v-2.0669h-2.065Zm-822.6219,2.79h7.647v-7.647h-7.647Zm807.3961.7229h9.094v-9.093h-9.094Zm-914.25.7241h10.5389V636.978H173.318Zm11.712,0h10.539V636.978H185.03Zm58.558,0H254.13V636.978H243.588Zm105.408,0h10.541V636.978H348.996Zm11.711,0h10.542V636.978H360.707Zm23.424,0h10.542V636.978H384.131Zm58.56,0h10.5411V636.978H442.691Zm11.712,0h10.541V636.978H454.403Zm11.712,0h10.541V636.978H466.115Zm70.271,0h10.541V636.978H536.386Zm81.984,0h10.5389V636.978H618.37Zm11.7111,0h10.541V636.978h-10.541Zm11.7119,0h10.541V636.978H641.793Zm46.847,0h10.542V636.978H688.64Zm11.7121,0h10.541V636.978h-10.541Zm11.7119,0h10.541V636.978H712.064Zm23.424,0h10.5411V636.978H735.488Zm23.424,0h10.541V636.978H758.912Zm23.423,0h10.542V636.978H782.335Zm23.424,0h10.542V636.978H805.759Zm11.7119,0h10.542V636.978h-10.542Zm23.4241,0h10.541V636.978H840.895Zm11.7121,0h10.541V636.978h-10.541Zm11.7119,0H874.86V636.978H864.319Zm11.712,0h10.541V636.978H876.031Zm11.712,0h10.5409V636.978H887.743Zm11.7121,0h10.541V636.978h-10.541Zm11.7119,0h10.5391V636.978H911.167Zm11.7109,0h10.541V636.978h-10.541Zm11.7122,0h10.541V636.978H934.59Zm11.7119,0h10.541V636.978H946.302Zm11.7119,0h10.541V636.978h-10.541Zm23.4241,0h10.541V636.978H981.438Zm11.7119,0h10.5391V636.978H993.15Zm11.7122,0h10.54V636.978h-10.54Zm11.7119,0h10.539V636.978h-10.539Zm11.7119,0h10.54V636.978h-10.54Zm11.7121,0h10.54V636.978h-10.54Zm11.711,0h10.541V636.978h-10.541Zm11.7119,0h10.541V636.978h-10.541Zm11.7112,0h10.542V636.978h-10.542ZM293.474,632.769h4.465v-4.465h-4.465Zm807.026,1.096h6.655v-6.656H1100.5Zm-505.452,1.8389h10.3349v-10.335H595.048Zm-292.9.103H312.689v-10.541H302.1479Zm163.9671,0h10.541v-10.541H466.115Zm11.712,0h10.541v-10.541H477.827Zm46.847,0h10.541v-10.541H524.674Zm46.848,0h10.5389v-10.541H571.522Zm35.136,0h10.5389v-10.541H606.658Zm11.712,0h10.5389v-10.541H618.37Zm11.7111,0h10.541v-10.541h-10.541Zm23.4229,0h10.542v-10.541H653.504Zm11.7119,0h10.542v-10.541h-10.542Zm11.7121,0H687.47v-10.541H676.928Zm11.712,0h10.542v-10.541H688.64Zm11.7121,0h10.541v-10.541h-10.541Zm11.7119,0h10.541v-10.541H712.064Zm11.712,0h10.541v-10.541H723.776Zm11.712,0h10.5411v-10.541H735.488Zm11.712,0h10.541v-10.541H747.2Zm11.712,0h10.541v-10.541H758.912Zm11.712,0h10.541v-10.541H770.624Zm11.711,0h10.542v-10.541H782.335Zm11.712,0h10.542v-10.541H794.047Zm11.712,0h10.542v-10.541H805.759Zm46.8481,0h10.541v-10.541h-10.541Zm11.7119,0H874.86v-10.541H864.319Zm11.712,0h10.541v-10.541H876.031Zm11.712,0h10.5409v-10.541H887.743Zm11.7121,0h10.541v-10.541h-10.541Zm23.4228,0h10.541v-10.541h-10.541Zm11.7122,0h10.541v-10.541H934.59Zm11.7119,0h10.541v-10.541H946.302Zm11.7119,0h10.541v-10.541h-10.541Zm11.7122,0h10.541v-10.541h-10.541Zm11.7119,0h10.541v-10.541H981.438Zm11.7119,0h10.5391v-10.541H993.15Zm11.7122,0h10.54v-10.541h-10.54Zm11.7119,0h10.539v-10.541h-10.539Zm11.7119,0h10.54v-10.541h-10.54Zm11.7121,0h10.54v-10.541h-10.54Zm11.711,0h10.541v-10.541h-10.541Zm11.7119,0h10.541v-10.541h-10.541Zm11.7112,0h10.542v-10.541h-10.542Zm11.7119,0h10.542v-10.541h-10.542Zm27.7019-15.99h1.9839V617.833h-1.9839ZM572.741,622.876h8.103v-8.1021h-8.103Zm526.27.7639h9.6311v-9.63h-9.6311ZM32.775,624.095H43.316V613.554H32.775Zm46.8469,0h10.542V613.554H79.6219Zm93.6961,0h10.5389V613.554H173.318Zm23.4239,0h10.539V613.554h-10.539Zm23.4231,0h10.5411V613.554H220.165Zm23.423,0H254.13V613.554H243.588Zm35.136,0h10.541V613.554H278.724Zm70.272,0h10.541V613.554H348.996Zm11.711,0h10.542V613.554H360.707Zm105.408,0h10.541V613.554H466.115Zm11.712,0h10.541V613.554H477.827Zm46.847,0h10.541V613.554H524.674Zm35.1361,0h10.541V613.554H559.81Zm23.4239,0h10.5389V613.554H583.234Zm35.136,0h10.5389V613.554H618.37Zm46.8459,0h10.542V613.554h-10.542Zm58.56,0h10.541V613.554H723.776Zm11.712,0h10.5411V613.554H735.488Zm11.712,0h10.541V613.554H747.2Zm11.712,0h10.541V613.554H758.912Zm11.712,0h10.541V613.554H770.624Zm11.711,0h10.542V613.554H782.335Zm11.712,0h10.542V613.554H794.047Zm35.136,0h10.542V613.554H829.183Zm11.712,0h10.541V613.554H840.895Zm11.7121,0h10.541V613.554h-10.541Zm23.4239,0h10.541V613.554H876.031Zm11.712,0h10.5409V613.554H887.743Zm23.424,0h10.5391V613.554H911.167Zm23.4231,0h10.541V613.554H934.59Zm11.7119,0h10.541V613.554H946.302Zm11.7119,0h10.541V613.554h-10.541Zm11.7122,0h10.541V613.554h-10.541Zm11.7119,0h10.541V613.554H981.438Zm11.7119,0h10.5391V613.554H993.15Zm11.7122,0h10.54V613.554h-10.54Zm11.7119,0h10.539V613.554h-10.539Zm11.7119,0h10.54V613.554h-10.54Zm11.7121,0h10.54V613.554h-10.54Zm11.711,0h10.541V613.554h-10.541Zm11.7119,0h10.541V613.554h-10.541Zm11.7112,0h10.542V613.554h-10.542Zm11.7119,0h10.542V613.554h-10.542Zm51.292-16.1551h1.654v-1.654h-1.654Zm-573.965.0821h1.819v-1.8181h-1.819Zm585.4911.104h2.0249V606.1h-2.0249Zm-36.0871.9509h3.927V605.15h-3.927ZM454.858,611.929h9.632v-9.6311h-9.632Zm643.74.414h10.457V601.885h-10.457Zm-1030.6879.04H78.452V601.842H67.91Zm152.255,0h10.5411V601.842H220.165Zm35.135,0h10.542V601.842H255.3Zm105.407,0h10.542V601.842H360.707Zm105.408,0h10.541V601.842H466.115Zm105.407,0h10.5389V601.842H571.522Zm11.712,0h10.5389V601.842H583.234Zm11.712,0h10.539V601.842H594.946Zm11.712,0h10.5389V601.842H606.658Zm11.712,0h10.5389V601.842H618.37Zm23.423,0h10.541V601.842H641.793Zm11.711,0h10.542V601.842H653.504Zm11.7119,0h10.542V601.842h-10.542Zm11.7121,0H687.47V601.842H676.928Zm11.712,0h10.542V601.842H688.64Zm11.7121,0h10.541V601.842h-10.541Zm11.7119,0h10.541V601.842H712.064Zm11.712,0h10.541V601.842H723.776Zm11.712,0h10.5411V601.842H735.488Zm11.712,0h10.541V601.842H747.2Zm11.712,0h10.541V601.842H758.912Zm46.847,0h10.542V601.842H805.759Zm11.7119,0h10.542V601.842h-10.542Zm23.4241,0h10.541V601.842H840.895Zm11.7121,0h10.541V601.842h-10.541Zm11.7119,0H874.86V601.842H864.319Zm23.424,0h10.5409V601.842H887.743Zm11.7121,0h10.541V601.842h-10.541Zm23.4228,0h10.541V601.842h-10.541Zm11.7122,0h10.541V601.842H934.59Zm11.7119,0h10.541V601.842H946.302Zm11.7119,0h10.541V601.842h-10.541Zm11.7122,0h10.541V601.842h-10.541Zm11.7119,0h10.541V601.842H981.438Zm11.7119,0h10.5391V601.842H993.15Zm11.7122,0h10.54V601.842h-10.54Zm11.7119,0h10.539V601.842h-10.539Zm11.7119,0h10.54V601.842h-10.54Zm11.7121,0h10.54V601.842h-10.54Zm11.711,0h10.541V601.842h-10.541Zm11.7119,0h10.541V601.842h-10.541Zm11.7112,0h10.542V601.842h-10.542Zm11.7119,0h10.542V601.842h-10.542ZM71.858,596.7239h2.646v-2.646H71.858Zm1100.4831.4341h3.5139v-3.513h-3.5139Zm-35.5071.372h4.258v-4.258h-4.258Zm-23.7969.3719h5.002V592.9h-5.002Zm45.7529,1.0961h7.1932v-7.1931H1158.79Zm-12.9111,1.198h9.59v-9.59h-9.59Zm-574.13.2478h10.0871V590.3579H571.749Zm-492.1271.2281h10.542V590.13H79.6219Zm58.56,0h10.5389V590.13H138.182Zm46.848,0h10.539V590.13H185.03Zm93.694,0h10.541V590.13H278.724Zm46.848,0h10.541V590.13H325.572Zm46.8469,0h10.542V590.13h-10.542Zm81.9841,0h10.541V590.13H454.403Zm35.1359,0H500.08V590.13H489.5389Zm93.6951,0h10.5389V590.13H583.234Zm35.136,0h10.5389V590.13H618.37Zm11.7111,0h10.541V590.13h-10.541Zm11.7119,0h10.541V590.13H641.793Zm11.711,0h10.542V590.13H653.504Zm11.7119,0h10.542V590.13h-10.542Zm11.7121,0H687.47V590.13H676.928Zm46.848,0h10.541V590.13H723.776Zm11.712,0h10.5411V590.13H735.488Zm11.712,0h10.541V590.13H747.2Zm11.712,0h10.541V590.13H758.912Zm35.135,0h10.542V590.13H794.047Zm11.712,0h10.542V590.13H805.759Zm11.7119,0h10.542V590.13h-10.542Zm23.4241,0h10.541V590.13H840.895Zm11.7121,0h10.541V590.13h-10.541Zm23.4239,0h10.541V590.13H876.031Zm11.712,0h10.5409V590.13H887.743Zm11.7121,0h10.541V590.13h-10.541Zm11.7119,0h10.5391V590.13H911.167Zm11.7109,0h10.541V590.13h-10.541Zm11.7122,0h10.541V590.13H934.59Zm11.7119,0h10.541V590.13H946.302Zm11.7119,0h10.541V590.13h-10.541Zm11.7122,0h10.541V590.13h-10.541Zm11.7119,0h10.541V590.13H981.438Zm11.7119,0h10.5391V590.13H993.15Zm11.7122,0h10.54V590.13h-10.54Zm11.7119,0h10.539V590.13h-10.539Zm11.7119,0h10.54V590.13h-10.54Zm11.7121,0h10.54V590.13h-10.54Zm11.711,0h10.541V590.13h-10.541Zm11.7119,0h10.541V590.13h-10.541Zm11.7112,0h10.542V590.13h-10.542Zm11.7119,0h10.542V590.13h-10.542Zm11.7119,0h10.542V590.13h-10.542ZM1196.22,584.991h2.603v-2.604h-2.603Zm-632.4829.042h2.686v-2.6861h-2.686Zm572.9519.93h4.5471v-4.5471h-4.5471Zm-23.6729.2471h5.043v-5.043h-5.043Zm69.073,1.1989h7.4409v-7.44h-7.4409Zm-13.0542,1.344h10.127V578.625h-10.127Zm-585.616.021h10.169V578.606h-10.169Zm562.0061.1651h10.5V578.44h-10.5Zm-901.837.021H254.13V578.418H243.588Zm46.848,0h10.5411V578.418H290.436Zm11.7119,0H312.689V578.418H302.1479Zm11.7121,0h10.541V578.418H313.86Zm11.712,0h10.541V578.418H325.572Zm23.424,0h10.541V578.418H348.996Zm105.407,0h10.541V578.418H454.403Zm35.1359,0H500.08V578.418H489.5389Zm11.7111,0h10.542V578.418H501.25Zm70.272,0h10.5389V578.418H571.522Zm23.424,0h10.539V578.418H594.946Zm11.712,0h10.5389V578.418H606.658Zm11.712,0h10.5389V578.418H618.37Zm11.7111,0h10.541V578.418h-10.541Zm23.4229,0h10.542V578.418H653.504Zm23.424,0H687.47V578.418H676.928Zm58.56,0h10.5411V578.418H735.488Zm23.424,0h10.541V578.418H758.912Zm11.712,0h10.541V578.418H770.624Zm11.711,0h10.542V578.418H782.335Zm11.712,0h10.542V578.418H794.047Zm11.712,0h10.542V578.418H805.759Zm11.7119,0h10.542V578.418h-10.542Zm11.7121,0h10.542V578.418H829.183Zm46.848,0h10.541V578.418H876.031Zm11.712,0h10.5409V578.418H887.743Zm11.7121,0h10.541V578.418h-10.541Zm11.7119,0h10.5391V578.418H911.167Zm11.7109,0h10.541V578.418h-10.541Zm11.7122,0h10.541V578.418H934.59Zm11.7119,0h10.541V578.418H946.302Zm11.7119,0h10.541V578.418h-10.541Zm11.7122,0h10.541V578.418h-10.541Zm11.7119,0h10.541V578.418H981.438Zm11.7119,0h10.5391V578.418H993.15Zm11.7122,0h10.54V578.418h-10.54Zm11.7119,0h10.539V578.418h-10.539Zm11.7119,0h10.54V578.418h-10.54Zm11.7121,0h10.54V578.418h-10.54Zm11.711,0h10.541V578.418h-10.541Zm11.7119,0h10.541V578.418h-10.541Zm11.7112,0h10.542V578.418h-10.542Zm11.7119,0h10.542V578.418h-10.542Zm11.7119,0h10.542V578.418h-10.542Zm58.56,0h10.541V578.418h-10.541Zm-30.878-15.97h2.0259v-2.0259h-2.0259Zm80.908,1.0759h4.176V569.89h-4.176Zm-774.08,1.094h6.366v-6.365h-6.366Zm702.652.062h6.49v-6.489h-6.49Zm-35.6941.5572h7.604V568.175h-7.604Zm92.7442.9519h9.508v-9.5071h-9.508Zm-609.0381.021h9.547v-9.55H583.73Zm503.404.207h9.9619v-9.9619h-9.9619Zm-913.796.2681h10.499V566.728H173.338Zm93.674.0209h10.542V566.7061H267.012Zm11.712,0h10.541V566.7061H278.724Zm23.4239,0H312.689V566.7061H302.1479Zm58.5591,0h10.542V566.7061H360.707Zm81.984,0h10.5411V566.7061H442.691Zm117.1191,0h10.541V566.7061H559.81Zm35.1359,0h10.539V566.7061H594.946Zm23.424,0h10.5389V566.7061H618.37Zm11.7111,0h10.541V566.7061h-10.541Zm11.7119,0h10.541V566.7061H641.793Zm23.4229,0h10.542V566.7061h-10.542Zm11.7121,0H687.47V566.7061H676.928Zm23.4241,0h10.541V566.7061h-10.541Zm11.7119,0h10.541V566.7061H712.064Zm35.136,0h10.541V566.7061H747.2Zm23.424,0h10.541V566.7061H770.624Zm11.711,0h10.542V566.7061H782.335Zm11.712,0h10.542V566.7061H794.047Zm11.712,0h10.542V566.7061H805.759Zm11.7119,0h10.542V566.7061h-10.542Zm11.7121,0h10.542V566.7061H829.183Zm11.712,0h10.541V566.7061H840.895Zm11.7121,0h10.541V566.7061h-10.541Zm11.7119,0H874.86V566.7061H864.319Zm23.424,0h10.5409V566.7061H887.743Zm11.7121,0h10.541V566.7061h-10.541Zm11.7119,0h10.5391V566.7061H911.167Zm11.7109,0h10.541V566.7061h-10.541Zm11.7122,0h10.541V566.7061H934.59Zm11.7119,0h10.541V566.7061H946.302Zm11.7119,0h10.541V566.7061h-10.541Zm23.4241,0h10.541V566.7061H981.438Zm11.7119,0h10.5391V566.7061H993.15Zm11.7122,0h10.54V566.7061h-10.54Zm11.7119,0h10.539V566.7061h-10.539Zm11.7119,0h10.54V566.7061h-10.54Zm11.7121,0h10.54V566.7061h-10.54Zm11.711,0h10.541V566.7061h-10.541Zm11.7119,0h10.541V566.7061h-10.541Zm11.7112,0h10.542V566.7061h-10.542Zm70.272,0h10.541V566.7061h-10.541Zm11.7119,0h10.541V566.7061h-10.541Zm11.7119,0h10.541V566.7061h-10.541Zm11.7121,0h10.5411V566.7061H1180.54ZM165.884,561.2568h1.984v-1.9839h-1.984Zm960.085.2891h2.563v-2.563h-2.563Zm-35.197.063h2.686v-2.686h-2.686Zm128.0239.8061h4.3v-4.299h-4.3Zm-621.1229.3919h5.086v-5.083h-5.086Zm479.692.4961h6.0759v-6.0759h-6.0759ZM619.485,564.42h8.3089v-8.3091H619.485Zm444.7.3521h9.0119v-9.011h-9.0119Zm70.0649.207h9.4241v-9.426H1134.25Zm70.0239.2468h9.92v-9.9209h-9.92ZM466.3,565.35h10.169v-10.168H466.3Zm585.471.125h10.417v-10.418h-10.417Zm-878.453.061h10.5389v-10.542H173.318Zm70.27,0H254.13v-10.542H243.588Zm46.848,0h10.5411v-10.542H290.436Zm23.424,0h10.541v-10.542H313.86Zm163.967,0h10.541v-10.542H477.827Zm11.7119,0H500.08v-10.542H489.5389Zm23.4231,0h10.5411v-10.542H512.962Zm11.712,0h10.541v-10.542H524.674Zm35.1361,0h10.541v-10.542H559.81Zm46.8479,0h10.5389v-10.542H606.658Zm46.846,0h10.542v-10.542H653.504Zm11.7119,0h10.542v-10.542h-10.542Zm11.7121,0H687.47v-10.542H676.928Zm23.4241,0h10.541v-10.542h-10.541Zm46.8479,0h10.541v-10.542H747.2Zm11.712,0h10.541v-10.542H758.912Zm11.712,0h10.541v-10.542H770.624Zm11.711,0h10.542v-10.542H782.335Zm11.712,0h10.542v-10.542H794.047Zm11.712,0h10.542v-10.542H805.759Zm46.8481,0h10.541v-10.542h-10.541Zm11.7119,0H874.86v-10.542H864.319Zm11.712,0h10.541v-10.542H876.031Zm11.712,0h10.5409v-10.542H887.743Zm11.7121,0h10.541v-10.542h-10.541Zm35.135,0h10.541v-10.542H934.59Zm11.7119,0h10.541v-10.542H946.302Zm11.7119,0h10.541v-10.542h-10.541Zm11.7122,0h10.541v-10.542h-10.541Zm11.7119,0h10.541v-10.542H981.438Zm11.7119,0h10.5391v-10.542H993.15Zm11.7122,0h10.54v-10.542h-10.54Zm11.7119,0h10.539v-10.542h-10.539Zm11.7119,0h10.54v-10.542h-10.54Zm11.7121,0h10.54v-10.542h-10.54Zm105.4061,0h10.541v-10.542h-10.541Zm11.7119,0h10.541v-10.542h-10.541Zm11.7119,0h10.541v-10.542h-10.541Zm11.7121,0h10.5411v-10.542H1180.54Zm11.712,0h10.541v-10.542h-10.541Zm-88.983-16.4238h1.116v-1.116h-1.116Zm-35.239.1037h1.3221v-1.324H1068.03Zm163.533.4331h2.1909v-2.19h-2.1909Zm-1042.854.4971h3.182v-3.1819h-3.182Zm866.2241.4539h4.093v-4.0931h-4.093Zm58.4148.144h4.3821v-4.3821h-4.3821ZM34.739,551.86h6.6131v-6.6131H34.739Zm1006.7461.476h7.564V544.772h-7.564Zm81.2588.7242h9.012v-9.011h-9.012Zm-503.7759.1638h9.343v-9.3421h-9.343Zm597.2439.062h9.4661v-9.4651h-9.4661Zm-187.5969.207h9.88V543.614h-9.88Zm-714.755.3311h10.541V543.283H313.86Zm210.814,0h10.541V543.283H524.674Zm105.4071,0h10.541V543.283h-10.541Zm11.7119,0h10.541V543.283H641.793Zm11.711,0h10.542V543.283H653.504Zm11.7119,0h10.542V543.283h-10.542Zm11.7121,0H687.47V543.283H676.928Zm11.712,0h10.542V543.283H688.64Zm11.7121,0h10.541V543.283h-10.541Zm11.7119,0h10.541V543.283H712.064Zm11.712,0h10.541V543.283H723.776Zm11.712,0h10.5411V543.283H735.488Zm11.712,0h10.541V543.283H747.2Zm11.712,0h10.541V543.283H758.912Zm11.712,0h10.541V543.283H770.624Zm11.711,0h10.542V543.283H782.335Zm11.712,0h10.542V543.283H794.047Zm23.4239,0h10.542V543.283h-10.542Zm11.7121,0h10.542V543.283H829.183Zm11.712,0h10.541V543.283H840.895Zm11.7121,0h10.541V543.283h-10.541Zm35.1359,0h10.5409V543.283H887.743Zm23.424,0h10.5391V543.283H911.167Zm11.7109,0h10.541V543.283h-10.541Zm11.7122,0h10.541V543.283H934.59Zm11.7119,0h10.541V543.283H946.302Zm11.7119,0h10.541V543.283h-10.541Zm23.4241,0h10.541V543.283H981.438Zm11.7119,0h10.5391V543.283H993.15Zm11.7122,0h10.54V543.283h-10.54Zm11.7119,0h10.539V543.283h-10.539Zm117.1179,0h10.541V543.283h-10.541Zm11.7122,0h10.541V543.283h-10.541Zm11.7119,0h10.541V543.283h-10.541Zm11.7119,0h10.541V543.283h-10.541Zm11.7121,0h10.5411V543.283H1180.54Zm11.712,0h10.541V543.283h-10.541Zm11.7121,0h10.541V543.283h-10.541ZM224.629,537.6479h1.6131v-1.612H224.629Zm842.8429.4131h2.439v-2.4389h-2.439Zm11.5462.1661h2.77v-2.77h-2.77Zm-434.2691.9309h4.6291v-4.63H644.749Zm374.2219.5568h5.7452V533.97h-5.7452Zm70.168.1031h5.9519V533.866h-5.9519Zm140.314.227h6.4079v-6.407h-6.4079Zm-609.8019.7862h7.9771V532.853H619.651Zm386.099.3918h8.7629v-8.762H1005.75Zm93.6531.041h8.8459v-8.845h-8.8459Zm-492.5181.62H616.97V531.7981H606.885Zm503.4871.1241h10.333V531.675h-10.333Zm-117.14.0219h10.376V531.6541h-10.376Zm-761.3549.0821h10.541V531.571H231.877Zm187.39,0h10.541V531.571H419.267Zm58.56,0h10.541V531.571H477.827Zm105.407,0h10.5389V531.571H583.234Zm11.712,0h10.539V531.571H594.946Zm58.558,0h10.542V531.571H653.504Zm11.7119,0h10.542V531.571h-10.542Zm11.7121,0H687.47V531.571H676.928Zm11.712,0h10.542V531.571H688.64Zm11.7121,0h10.541V531.571h-10.541Zm11.7119,0h10.541V531.571H712.064Zm11.712,0h10.541V531.571H723.776Zm11.712,0h10.5411V531.571H735.488Zm11.712,0h10.541V531.571H747.2Zm11.712,0h10.541V531.571H758.912Zm11.712,0h10.541V531.571H770.624Zm11.711,0h10.542V531.571H782.335Zm70.2721,0h10.541V531.571h-10.541Zm23.4239,0h10.541V531.571H876.031Zm11.712,0h10.5409V531.571H887.743Zm11.7121,0h10.541V531.571h-10.541Zm23.4228,0h10.541V531.571h-10.541Zm23.4241,0h10.541V531.571H946.302Zm23.4241,0h10.541V531.571h-10.541Zm11.7119,0h10.541V531.571H981.438Zm140.542,0h10.542V531.571H1121.98Zm11.7119,0h10.541V531.571h-10.541Zm11.7122,0h10.541V531.571h-10.541Zm11.7119,0h10.541V531.571h-10.541Zm11.7119,0h10.541V531.571h-10.541Zm11.7121,0h10.5411V531.571H1180.54Zm11.712,0h10.541V531.571h-10.541Zm11.7121,0h10.541V531.571h-10.541Zm11.7109,0h10.542V531.571h-10.542Zm28.136-16.4241h1.116v-1.116h-1.116Zm-234.341.104h1.323v-1.323h-1.323Zm35.115.021h1.365v-1.365h-1.365Zm-375.731.949h3.266v-3.2662h-3.266Zm386.0381.456h4.175v-4.175h-4.175Zm-58.6221.0611h4.3V522.981h-4.3Zm-317.441,1.22h6.738v-6.737h-6.738Zm386.1419.3509h7.44v-7.44h-7.44Zm-82.1479.166h7.77v-7.771h-7.77Zm245.3491.5991h8.97v-8.969h-8.97Zm-808.3461.228h9.423v-9.425h-9.423Zm655.6381.2268h9.8789v-9.88h-9.8789Zm-105.4492.041h9.9619V520.15h-9.9619Zm-269.6419.2681h10.5V519.88h-10.5Zm-480.208.021h10.5411V519.8608H220.165Zm187.39,0h10.541V519.8608h-10.541Zm163.9669,0h10.5389V519.8608H571.522Zm35.136,0h10.5389V519.8608H606.658Zm11.712,0h10.5389V519.8608H618.37Zm70.27,0h10.542V519.8608H688.64Zm23.424,0h10.541V519.8608H712.064Zm11.712,0h10.541V519.8608H723.776Zm23.424,0h10.541V519.8608H747.2Zm11.712,0h10.541V519.8608H758.912Zm11.712,0h10.541V519.8608H770.624Zm23.423,0h10.542V519.8608H794.047Zm11.712,0h10.542V519.8608H805.759Zm46.8481,0h10.541V519.8608h-10.541Zm35.1359,0h10.5409V519.8608H887.743Zm23.424,0h10.5391V519.8608H911.167Zm11.7109,0h10.541V519.8608h-10.541Zm11.7122,0h10.541V519.8608H934.59Zm11.7119,0h10.541V519.8608H946.302Zm11.7119,0h10.541V519.8608h-10.541Zm128.83,0h10.542V519.8608h-10.542Zm11.7119,0h10.542V519.8608h-10.542Zm11.7122,0h10.542V519.8608h-10.542Zm11.7119,0h10.542V519.8608H1121.98Zm11.7119,0h10.541V519.8608h-10.541Zm11.7122,0h10.541V519.8608h-10.541Zm11.7119,0h10.541V519.8608h-10.541Zm11.7119,0h10.541V519.8608h-10.541Zm11.7121,0h10.5411V519.8608H1180.54Zm11.712,0h10.541V519.8608h-10.541Zm11.7121,0h10.541V519.8608h-10.541Zm11.7109,0h10.542V519.8608h-10.542Zm-827.182-16.072h1.818v-1.82h-1.818Zm854.74.2261h2.273v-2.273h-2.273Zm-222.7749.249h2.77v-2.77h-2.77Zm-46.8879.041h2.853v-2.8521H973.57Zm-504.81,1.198h5.25v-5.249h-5.25Zm561.6951.477h6.2009v-6.2009h-6.2009Zm-70.4361.1639h6.53v-6.53h-6.53Zm-223.6211,1.0962H745.12v-8.722h-8.7221Zm304.323.1857h9.0931v-9.094h-9.0931Zm-93.9018.2061h9.5071v-9.5071h-9.5071Zm280.8779.207h9.9209V508.457h-9.9209Zm-679.5379.2491H558.576V508.21H548.1591Zm503.5909.0209h10.458V508.19H1051.75Zm-655.907.04h10.542v-10.54H395.843Zm93.6959,0H500.08v-10.54H489.5389Zm257.6611,0h10.541v-10.54H747.2Zm11.712,0h10.541v-10.54H758.912Zm11.712,0h10.541v-10.54H770.624Zm11.711,0h10.542v-10.54H782.335Zm23.424,0h10.542v-10.54H805.759Zm11.7119,0h10.542v-10.54h-10.542Zm11.7121,0h10.542v-10.54H829.183Zm23.4241,0h10.541v-10.54h-10.541Zm11.7119,0H874.86v-10.54H864.319Zm23.424,0h10.5409v-10.54H887.743Zm11.7121,0h10.541v-10.54h-10.541Zm11.7119,0h10.5391v-10.54H911.167Zm11.7109,0h10.541v-10.54h-10.541Zm11.7122,0h10.541v-10.54H934.59Zm128.8308,0h10.541v-10.54h-10.541Zm11.7112,0h10.542v-10.54h-10.542Zm11.7119,0h10.542v-10.54h-10.542Zm11.7119,0h10.542v-10.54h-10.542Zm11.7122,0h10.542v-10.54h-10.542Zm11.7119,0h10.542v-10.54H1121.98Zm11.7119,0h10.541v-10.54h-10.541Zm11.7122,0h10.541v-10.54h-10.541Zm11.7119,0h10.541v-10.54h-10.541Zm11.7119,0h10.541v-10.54h-10.541Zm11.7121,0h10.5411v-10.54H1180.54Zm11.712,0h10.541v-10.54h-10.541Zm11.7121,0h10.541v-10.54h-10.541Zm11.7109,0h10.542v-10.54h-10.542ZM341.976,502.2839h1.1579v-1.156H341.976Zm644.0489.104h1.365v-1.365h-1.365Zm-246.2579.3111h1.984v-1.9839h-1.984Zm503.1981.4131h2.81V500.3h-2.81Zm-246.7981.8469h4.5049v-4.5049H996.167Zm-245.99.042h4.587v-4.5891h-4.587Zm186.749.64h5.87v-5.87h-5.87Zm69.2381,1.0341h7.936v-7.937h-7.936Zm-656.1971.3309h8.5981v-8.5992H349.967Zm573.428.4541h9.5071v-9.5081H923.395Zm93.447.248h10.003V496.7051h-10.003Zm210.731.083h10.168V496.6221h-10.168Zm-808.285.1651h10.5v-10.5h-10.5Zm58.539.02h10.541v-10.539H477.827Zm70.271,0h10.541v-10.539H548.098Zm11.7121,0h10.541v-10.539H559.81Zm11.7119,0h10.5389v-10.539H571.522Zm199.102,0h10.541v-10.539H770.624Zm11.711,0h10.542v-10.539H782.335Zm11.712,0h10.542v-10.539H794.047Zm58.56,0h10.541v-10.539h-10.541Zm11.7119,0H874.86v-10.539H864.319Zm11.712,0h10.541v-10.539H876.031Zm23.4241,0h10.541v-10.539h-10.541Zm11.7119,0h10.5391v-10.539H911.167Zm117.1189,0h10.54v-10.539h-10.54Zm11.7121,0h10.54v-10.539h-10.54Zm11.711,0h10.541v-10.539h-10.541Zm11.7119,0h10.541v-10.539h-10.541Zm11.7112,0h10.542v-10.539h-10.542Zm11.7119,0h10.542v-10.539h-10.542Zm11.7119,0h10.542v-10.539h-10.542Zm11.7122,0h10.542v-10.539h-10.542Zm11.7119,0h10.542v-10.539H1121.98Zm11.7119,0h10.541v-10.539h-10.541Zm11.7122,0h10.541v-10.539h-10.541Zm11.7119,0h10.541v-10.539h-10.541Zm11.7119,0h10.541v-10.539h-10.541Zm11.7121,0h10.5411v-10.539H1180.54Zm11.712,0h10.541v-10.539h-10.541Zm11.7121,0h10.541v-10.539h-10.541Zm11.7109,0h10.542v-10.539h-10.542ZM423.917,490.614h1.241v-1.24h-1.241Zm538.416.3308h1.9021v-1.9009H962.333Zm281.023.0611h2.0258V488.981h-2.0258Zm-316.323.104h2.2319v-2.232H927.033Zm45.1721,1.675h5.581v-5.581h-5.581Zm-257.723.061h5.7039v-5.7028h-5.7039Zm198.275.8279h7.3579v-7.3589h-7.3579Zm69.4658.8052h8.97V485.51h-8.97Zm245.7222.228h9.425v-9.425h-9.425Zm-796.7191.3089h10.046v-10.044H431.226Zm163.802.166h10.375v-10.375H595.028Zm398.1829.021h10.417v-10.417h-10.417Zm-503.672.061H500.08v-10.54H489.5389Zm23.4231,0h10.5411v-10.54H512.962Zm70.272,0h10.5389v-10.54H583.234Zm234.2369,0h10.542v-10.54h-10.542Zm11.7121,0h10.542v-10.54H829.183Zm11.712,0h10.541v-10.54H840.895Zm11.7121,0h10.541v-10.54h-10.541Zm11.7119,0H874.86v-10.54H864.319Zm23.424,0h10.5409v-10.54H887.743Zm117.1191,0h10.54v-10.54h-10.54Zm11.7119,0h10.539v-10.54h-10.539Zm11.7119,0h10.54v-10.54h-10.54Zm11.7121,0h10.54v-10.54h-10.54Zm11.711,0h10.541v-10.54h-10.541Zm11.7119,0h10.541v-10.54h-10.541Zm11.7112,0h10.542v-10.54h-10.542Zm11.7119,0h10.542v-10.54h-10.542Zm11.7119,0h10.542v-10.54h-10.542Zm11.7122,0h10.542v-10.54h-10.542Zm11.7119,0h10.542v-10.54H1121.98Zm11.7119,0h10.541v-10.54h-10.541Zm11.7122,0h10.541v-10.54h-10.541Zm11.7119,0h10.541v-10.54h-10.541Zm11.7119,0h10.541v-10.54h-10.541Zm11.7121,0h10.5411v-10.54H1180.54Zm11.712,0h10.541v-10.54h-10.541Zm11.7121,0h10.541v-10.54h-10.541Zm11.7109,0h10.542v-10.54h-10.542Zm-288.1879-16.32h1.323v-1.323h-1.323Zm11.5869.125h1.572v-1.572h-1.572Zm292.1579.64h2.8521v-2.853h-2.8521ZM948.761,481.094h5.6211v-5.6231H948.761Zm268.8979.4748h6.573v-6.573h-6.573Zm-492.0029.1031h6.78v-6.7791h-6.78Zm45.939.91h8.598v-8.5991h-8.598Zm187.08.31h9.2181v-9.218H958.675Zm245.929.0191h9.259v-9.2581h-9.259Zm-12.312.6011h10.458V473.054h-10.458Zm-550.499.04h10.541v-10.54H641.793Zm58.5591,0h10.541v-10.54h-10.541Zm35.1359,0h10.5411v-10.54H735.488Zm58.559,0h10.542v-10.54H794.047Zm11.712,0h10.542v-10.54H805.759Zm11.7119,0h10.542v-10.54h-10.542Zm11.7121,0h10.542v-10.54H829.183Zm11.712,0h10.541v-10.54H840.895Zm23.424,0H874.86v-10.54H864.319Zm105.4071,0h10.541v-10.54h-10.541Zm11.7119,0h10.541v-10.54H981.438Zm11.7119,0h10.5391v-10.54H993.15Zm11.7122,0h10.54v-10.54h-10.54Zm11.7119,0h10.539v-10.54h-10.539Zm11.7119,0h10.54v-10.54h-10.54Zm11.7121,0h10.54v-10.54h-10.54Zm11.711,0h10.541v-10.54h-10.541Zm11.7119,0h10.541v-10.54h-10.541Zm11.7112,0h10.542v-10.54h-10.542Zm11.7119,0h10.542v-10.54h-10.542Zm11.7119,0h10.542v-10.54h-10.542Zm11.7122,0h10.542v-10.54h-10.542Zm11.7119,0h10.542v-10.54H1121.98Zm11.7119,0h10.541v-10.54h-10.541Zm11.7122,0h10.541v-10.54h-10.541Zm11.7119,0h10.541v-10.54h-10.541Zm11.7119,0h10.541v-10.54h-10.541Zm11.7121,0h10.5411v-10.54H1180.54Zm27.908-16.1951h1.571v-1.572h-1.571Zm-281.209.1231h1.8191v-1.8191H927.239Zm267.969,1.405h4.6289v-4.63h-4.6289Zm-773.212.228h5.083v-5.0849h-5.083Zm174.52,1.158h7.399v-7.4h-7.399Zm585.3251.2681h7.937V462.603h-7.937Zm-246.3831.4338h8.8049v-8.804H935.458Zm233.6379.5991H1179.1V461.5691h-10.004ZM477.827,471.84h10.541v-10.539H477.827Zm257.661,0h10.5411v-10.539H735.488Zm23.424,0h10.541v-10.539H758.912Zm23.423,0h10.542v-10.539H782.335Zm11.712,0h10.542v-10.539H794.047Zm11.712,0h10.542v-10.539H805.759Zm35.136,0h10.541v-10.539H840.895Zm11.7121,0h10.541v-10.539h-10.541Zm11.7119,0H874.86v-10.539H864.319Zm11.712,0h10.541v-10.539H876.031Zm11.712,0h10.5409v-10.539H887.743Zm70.2709,0h10.541v-10.539h-10.541Zm23.4241,0h10.541v-10.539H981.438Zm11.7119,0h10.5391v-10.539H993.15Zm11.7122,0h10.54v-10.539h-10.54Zm11.7119,0h10.539v-10.539h-10.539Zm11.7119,0h10.54v-10.539h-10.54Zm11.7121,0h10.54v-10.539h-10.54Zm11.711,0h10.541v-10.539h-10.541Zm11.7119,0h10.541v-10.539h-10.541Zm11.7112,0h10.542v-10.539h-10.542Zm11.7119,0h10.542v-10.539h-10.542Zm11.7119,0h10.542v-10.539h-10.542Zm11.7122,0h10.542v-10.539h-10.542Zm11.7119,0h10.542v-10.539H1121.98Zm11.7119,0h10.541v-10.539h-10.541Zm11.7122,0h10.541v-10.539h-10.541Zm11.7119,0h10.541v-10.539h-10.541Zm-229.98-15.969h2.0259v-2.0249H927.136Zm245.5371.4141h2.85v-2.853h-2.85Zm-399.5281,1.322h5.4981v-5.4961H773.145Zm386.1619.3311h6.1589v-6.1589h-6.1589Zm-539.5109.7649h7.688v-7.689h-7.688Zm526.3319.7031h9.094v-9.095h-9.094Zm-211.166.3508h9.7959v-9.7959h-9.7959Zm198.771.33h10.458V449.63h-10.458Zm-573.9228.042h10.541v-10.541H559.81Zm11.7119,0h10.5389v-10.541H571.522Zm210.813,0h10.542v-10.541H782.335Zm11.712,0h10.542v-10.541H794.047Zm11.712,0h10.542v-10.541H805.759Zm11.7119,0h10.542v-10.541h-10.542Zm11.7121,0h10.542v-10.541H829.183Zm11.712,0h10.541v-10.541H840.895Zm35.136,0h10.541v-10.541H876.031Zm70.271,0h10.541v-10.541H946.302Zm11.7119,0h10.541v-10.541h-10.541Zm11.7122,0h10.541v-10.541h-10.541Zm11.7119,0h10.541v-10.541H981.438Zm11.7119,0h10.5391v-10.541H993.15Zm11.7122,0h10.54v-10.541h-10.54Zm11.7119,0h10.539v-10.541h-10.539Zm11.7119,0h10.54v-10.541h-10.54Zm11.7121,0h10.54v-10.541h-10.54Zm11.711,0h10.541v-10.541h-10.541Zm11.7119,0h10.541v-10.541h-10.541Zm11.7112,0h10.542v-10.541h-10.542Zm11.7119,0h10.542v-10.541h-10.542Zm11.7119,0h10.542v-10.541h-10.542Zm11.7122,0h10.542v-10.541h-10.542Zm11.7119,0h10.542v-10.541H1121.98ZM927.5081,443.7878h1.281v-1.2819h-1.281Zm222.4628.0611h1.4061v-1.4051h-1.4061Zm-13.1989,1.488h4.38v-4.3821h-4.38ZM936.43,446.5779h6.8621v-6.8631H936.43Zm-164.07.103h7.068v-7.0681H772.36Zm350.943.4131h7.895v-7.895h-7.895Zm-223.022.4958h8.8879v-8.8869H900.281Zm210.2151.6h10.0859V438.104h-10.0859Zm-761.5.2271h10.541V437.876H348.996Zm199.102,0h10.541V437.876H548.098Zm46.848,0h10.539V437.876H594.946Zm35.1351,0h10.541V437.876h-10.541Zm58.5589,0h10.542V437.876H688.64Zm93.695,0h10.542V437.876H782.335Zm23.424,0h10.542V437.876H805.759Zm35.136,0h10.541V437.876H840.895Zm11.7121,0h10.541V437.876h-10.541Zm93.6949,0h10.541V437.876H946.302Zm11.7119,0h10.541V437.876h-10.541Zm11.7122,0h10.541V437.876h-10.541Zm11.7119,0h10.541V437.876H981.438Zm11.7119,0h10.5391V437.876H993.15Zm11.7122,0h10.54V437.876h-10.54Zm11.7119,0h10.539V437.876h-10.539Zm11.7119,0h10.54V437.876h-10.54Zm11.7121,0h10.54V437.876h-10.54Zm11.711,0h10.541V437.876h-10.541Zm11.7119,0h10.541V437.876h-10.541Zm11.7112,0h10.542V437.876h-10.542Zm11.7119,0h10.542V437.876h-10.542Zm11.7119,0h10.542V437.876h-10.542Zm-159.667-16.011h1.9419v-1.9419h-1.9419Zm-164.4209.4548H777.32v-2.853H774.468Zm339.603.0411h2.9351v-2.9341h-2.9351ZM913.873,433.998h5.126v-5.1259h-5.126Zm186.75.64h6.408V428.231h-6.408Zm-153.5759,1.323h9.051v-9.052h-9.051Zm140.397.1451h9.3411v-9.3411h-9.3411Zm-456.97.206h9.755v-9.7539h-9.755Zm269.0841.29h10.333V426.269h-10.333Zm-210.9181.1027h10.542v-10.541H688.64Zm105.407,0h10.542v-10.541H794.047Zm23.4239,0h10.542v-10.541h-10.542Zm11.7121,0h10.542v-10.541H829.183Zm11.712,0h10.541v-10.541H840.895Zm11.7121,0h10.541v-10.541h-10.541Zm11.7119,0H874.86v-10.541H864.319Zm11.712,0h10.541v-10.541H876.031Zm11.712,0h10.5409v-10.541H887.743Zm70.2709,0h10.541v-10.541h-10.541Zm11.7122,0h10.541v-10.541h-10.541Zm11.7119,0h10.541v-10.541H981.438Zm11.7119,0h10.5391v-10.541H993.15Zm11.7122,0h10.54v-10.541h-10.54Zm11.7119,0h10.539v-10.541h-10.539Zm11.7119,0h10.54v-10.541h-10.54Zm11.7121,0h10.54v-10.541h-10.54Zm11.711,0h10.541v-10.541h-10.541Zm11.7119,0h10.541v-10.541h-10.541Zm11.7112,0h10.542v-10.541h-10.542Zm16.032-16.031h1.9021v-1.9021h-1.9021Zm-164.2351.2681h2.4389v-2.439H926.929Zm-141.493.9509h4.34v-4.34h-4.34Zm292.24.5581h5.4561v-5.456h-5.4561Zm-739.131,1.281h8.02v-8.018h-8.02Zm725.64.4971h9.0119v-9.01h-9.0119Zm-152.502.2468H921.19v-9.507h-9.5071Zm46.4959.3521h10.21v-10.21h-10.21Zm93.55.144h10.499v-10.499h-10.499Zm-655.886.021h10.542v-10.541H395.843Zm128.831,0h10.541v-10.541H524.674Zm81.984,0h10.5389v-10.541H606.658Zm11.712,0h10.5389v-10.541H618.37Zm175.677,0h10.542v-10.541H794.047Zm35.136,0h10.542v-10.541H829.183Zm11.712,0h10.541v-10.541H840.895Zm11.7121,0h10.541v-10.541h-10.541Zm11.7119,0H874.86v-10.541H864.319Zm11.712,0h10.541v-10.541H876.031Zm11.712,0h10.5409v-10.541H887.743Zm81.9831,0h10.541v-10.541h-10.541Zm11.7119,0h10.541v-10.541H981.438Zm11.7119,0h10.5391v-10.541H993.15Zm11.7122,0h10.54v-10.541h-10.54Zm11.7119,0h10.539v-10.541h-10.539Zm11.7119,0h10.54v-10.541h-10.54Zm11.7121,0h10.54v-10.541h-10.54Zm27.949-16.237h1.4881v-1.4881h-1.4881Zm-306.37,1.8581h5.21v-5.207h-5.21Zm292.736.064h5.332v-5.333h-5.332Zm-141.638,1.0949h7.522V404.25h-7.522Zm46.702.1451h7.8139v-7.812H959.377Zm81.1779.8059h9.4251v-9.4251h-9.4251ZM770.686,413.22h10.4161V402.803H770.686Zm-363.1309.061h10.541V402.74h-10.541Zm81.9838,0H500.08V402.74H489.5389Zm58.5591,0h10.541V402.74H548.098Zm23.424,0h10.5389V402.74H571.522Zm93.6939,0h10.542V402.74h-10.542Zm81.9841,0h10.541V402.74H747.2Zm35.135,0h10.542V402.74H782.335Zm23.424,0h10.542V402.74H805.759Zm23.424,0h10.542V402.74H829.183Zm23.4241,0h10.541V402.74h-10.541Zm23.4239,0h10.541V402.74H876.031Zm23.4241,0h10.541V402.74h-10.541Zm70.271,0h10.541V402.74h-10.541Zm11.7119,0h10.541V402.74H981.438Zm11.7119,0h10.5391V402.74H993.15Zm11.7122,0h10.54V402.74h-10.54Zm11.7119,0h10.539V402.74h-10.539Zm11.7119,0h10.54V402.74h-10.54ZM646.07,397.292h1.9841v-1.9839H646.07Zm397.9792.2258h2.438v-2.4389h-2.438Zm-106.1111.7031h3.845V394.376h-3.845Zm23.383.042h3.9261v-3.927H961.321Zm67.8321,2.439h8.8039V391.897h-8.8039ZM759.532,400.95h9.301v-9.3011h-9.301Zm116.644.4738h10.25V391.1729h-10.25Zm93.6321.0633h10.376v-10.376h-10.376ZM653.504,401.57h10.542v-10.542H653.504Zm81.984,0h10.5411v-10.542H735.488Zm46.847,0h10.542v-10.542H782.335Zm11.712,0h10.542v-10.542H794.047Zm11.712,0h10.542v-10.542H805.759Zm11.7119,0h10.542v-10.542h-10.542Zm11.7121,0h10.542v-10.542H829.183Zm11.712,0h10.541v-10.542H840.895Zm11.7121,0h10.541v-10.542h-10.541Zm11.7119,0H874.86v-10.542H864.319Zm23.424,0h10.5409v-10.542H887.743Zm11.7121,0h10.541v-10.542h-10.541Zm11.7119,0h10.5391v-10.542H911.167Zm70.271,0h10.541v-10.542H981.438Zm11.7119,0h10.5391v-10.542H993.15Zm11.7122,0h10.54v-10.542h-10.54Zm11.7119,0h10.539v-10.542h-10.539Zm14.17-14.1719h5.6221v-5.622h-5.6221Zm-281.1679.0831h5.788v-5.7872h-5.788Zm186.3371,1.0539h7.895v-7.896h-7.895Zm35.115.02h7.937v-7.937h-7.937Zm-633.7241,1.281h10.5v-10.499h-10.5Zm-23.444.022h10.541v-10.541H313.86Zm35.136,0h10.541v-10.541H348.996Zm93.695,0h10.5411v-10.541H442.691Zm11.712,0h10.541v-10.541H454.403Zm175.6781,0h10.541v-10.541h-10.541Zm128.8309,0h10.541v-10.541H758.912Zm23.423,0h10.542v-10.541H782.335Zm46.848,0h10.542v-10.541H829.183Zm23.4241,0h10.541v-10.541h-10.541Zm11.7119,0H874.86v-10.541H864.319Zm11.712,0h10.541v-10.541H876.031Zm23.4241,0h10.541v-10.541h-10.541Zm11.7119,0h10.5391v-10.541H911.167Zm11.7109,0h10.541v-10.541h-10.541Zm58.56,0h10.541v-10.541H981.438Zm11.7119,0h10.5391v-10.541H993.15Zm11.7122,0h10.54v-10.541h-10.54Zm11.7119,0h10.539v-10.541h-10.539Zm-569.2119-16.384h1.1989v-1.198h-1.1989Zm526.415.62h2.439v-2.438h-2.439Zm-23.6931.27h2.9751v-2.977H950.084Zm80.8469,1.136h5.249v-5.25h-5.249ZM490.365,377.3188h8.8879v-8.8879H490.365Zm491.7341.1641h9.218v-9.218h-9.218Zm-47.2612.416h10.043V367.853h-10.043Zm-480.4349.2471h10.541V367.605H454.403Zm93.695,0h10.541V367.605H548.098Zm46.848,0h10.539V367.605H594.946Zm152.254,0h10.541V367.605H747.2Zm11.712,0h10.541V367.605H758.912Zm11.712,0h10.541V367.605H770.624Zm23.423,0h10.542V367.605H794.047Zm11.712,0h10.542V367.605H805.759Zm11.7119,0h10.542V367.605h-10.542Zm11.7121,0h10.542V367.605H829.183Zm11.712,0h10.541V367.605H840.895Zm23.424,0H874.86V367.605H864.319Zm11.712,0h10.541V367.605H876.031Zm23.4241,0h10.541V367.605h-10.541Zm23.4228,0h10.541V367.605h-10.541Zm70.272,0h10.5391V367.605H993.15Zm11.7122,0h10.54V367.605h-10.54Zm11.7119,0h10.539V367.605h-10.539ZM973.8811,362.28h2.231v-2.2329h-2.231Zm10.718.9929h4.2161v-4.217h-4.2161Zm45.938.908h6.0349V358.146h-6.0349Zm-304.9211.4131h6.8609v-6.8611H725.616Zm221.76.7649h8.3921v-8.3911H947.376Zm45.9389.91h10.21V356.0581h-10.21Zm-257.7439.0818h10.3741v-10.374H735.571Zm-105.49.083h10.541v-10.541h-10.541Zm81.9829,0h10.541v-10.541H712.064Zm46.848,0h10.541v-10.541H758.912Zm11.712,0h10.541v-10.541H770.624Zm11.711,0h10.542v-10.541H782.335Zm11.712,0h10.542v-10.541H794.047Zm11.712,0h10.542v-10.541H805.759Zm11.7119,0h10.542v-10.541h-10.542Zm11.7121,0h10.542v-10.541H829.183Zm11.712,0h10.541v-10.541H840.895Zm11.7121,0h10.541v-10.541h-10.541Zm11.7119,0H874.86v-10.541H864.319Zm11.712,0h10.541v-10.541H876.031Zm35.136,0h10.5391v-10.541H911.167Zm11.7109,0h10.541v-10.541h-10.541Zm11.7122,0h10.541v-10.541H934.59Zm70.272,0h10.54v-10.541h-10.54Zm11.7119,0h10.539v-10.541h-10.539ZM433.439,352.2629H439.06V346.64H433.439Zm549.321,1.136h7.896v-7.895H982.76Zm11.5469.166h8.2261V345.34h-8.2261Zm35.0322.1031h8.4319v-8.4331h-8.4319Zm-293.83,1.0329h10.4991v-10.499H735.509Zm-292.818.021h10.5411v-10.541H442.691Zm58.559,0h10.542v-10.541H501.25Zm105.408,0h10.5389v-10.541H606.658Zm70.27,0H687.47v-10.541H676.928Zm35.136,0h10.541v-10.541H712.064Zm46.848,0h10.541v-10.541H758.912Zm11.712,0h10.541v-10.541H770.624Zm11.711,0h10.542v-10.541H782.335Zm11.712,0h10.542v-10.541H794.047Zm35.136,0h10.542v-10.541H829.183Zm23.4241,0h10.541v-10.541h-10.541Zm11.7119,0H874.86v-10.541H864.319Zm23.424,0h10.5409v-10.541H887.743Zm11.7121,0h10.541v-10.541h-10.541Zm11.7119,0h10.5391v-10.541H911.167Zm11.7109,0h10.541v-10.541h-10.541Zm11.7122,0h10.541v-10.541H934.59Zm11.7119,0h10.541v-10.541H946.302Zm58.56,0h10.54v-10.541h-10.54Zm11.7119,0h10.539v-10.541h-10.539Zm-768.396-16.301h1.363v-1.365h-1.363Zm736.8349,1.0129h3.389v-3.3889h-3.389Zm57.6092.9512h5.291v-5.291h-5.291Zm-46.9512.104h5.4971V334.99h-5.4971ZM724.479,342.3069h9.134v-9.134h-9.134Zm233.7.5381h10.21v-10.21h-10.21Zm70.1889.083h10.375V332.553h-10.375Zm-23.4848.063h10.499v-10.5h-10.499ZM255.3,343.01h10.542V332.469H255.3Zm128.831,0h10.542V332.469H384.131Zm210.815,0h10.539V332.469H594.946Zm11.712,0h10.5389V332.469H606.658Zm46.846,0h10.542V332.469H653.504Zm46.8481,0h10.541V332.469h-10.541Zm46.8479,0h10.541V332.469H747.2Zm23.424,0h10.541V332.469H770.624Zm11.711,0h10.542V332.469H782.335Zm23.424,0h10.542V332.469H805.759Zm11.7119,0h10.542V332.469h-10.542Zm23.4241,0h10.541V332.469H840.895Zm11.7121,0h10.541V332.469h-10.541Zm11.7119,0H874.86V332.469H864.319Zm23.424,0h10.5409V332.469H887.743Zm23.424,0h10.5391V332.469H911.167Zm11.7109,0h10.541V332.469h-10.541Zm11.7122,0h10.541V332.469H934.59Zm11.7119,0h10.541V332.469H946.302Zm70.272,0h10.539V332.469h-10.539Zm39.103-15.6811h2.604v-2.6031h-2.604Zm-457.073.311h3.224v-3.2251h-3.224Zm397.9971.206h3.6379V324.208h-3.6379Zm-24.4981,1.076h5.7859v-5.7881H972.103Zm68.3479,1.9221h9.6321v-9.63h-9.6321Zm-527.3438.31H523.358v-10.251H513.1071Zm491.837.0617h10.375v-10.375h-10.375Zm-691.0841.0821h10.541V320.7568H313.86Zm58.5589,0h10.542V320.7568h-10.542Zm304.5091,0H687.47V320.7568H676.928Zm11.712,0h10.542V320.7568H688.64Zm11.7121,0h10.541V320.7568h-10.541Zm11.7119,0h10.541V320.7568H712.064Zm11.712,0h10.541V320.7568H723.776Zm11.712,0h10.5411V320.7568H735.488Zm23.424,0h10.541V320.7568H758.912Zm11.712,0h10.541V320.7568H770.624Zm11.711,0h10.542V320.7568H782.335Zm11.712,0h10.542V320.7568H794.047Zm35.136,0h10.542V320.7568H829.183Zm11.712,0h10.541V320.7568H840.895Zm58.56,0h10.541V320.7568h-10.541Zm11.7119,0h10.5391V320.7568H911.167Zm11.7109,0h10.541V320.7568h-10.541Zm11.7122,0h10.541V320.7568H934.59Zm11.7119,0h10.541V320.7568H946.302Zm11.7119,0h10.541V320.7568h-10.541Zm58.56,0h10.539V320.7568h-10.539Zm11.7119,0h10.54V320.7568h-10.54Zm-31.354-15.493h2.9761v-2.977h-2.9761Zm-281.7468.66h4.2979v-4.2981h-4.2979Zm256.36,1.302h6.9031v-6.903h-6.9031Zm81.7151.2681h7.44v-7.44h-7.44Zm-48.2329,1.386h10.21v-10.21h-10.21Zm-410.0612.145h10.5v-10.5h-10.5Zm-82.0039.02h10.5411v-10.541H512.962Zm23.424,0h10.541v-10.541H536.386Zm11.712,0h10.541v-10.541H548.098Zm105.406,0h10.542v-10.541H653.504Zm23.424,0H687.47v-10.541H676.928Zm58.56,0h10.5411v-10.541H735.488Zm11.712,0h10.541v-10.541H747.2Zm11.712,0h10.541v-10.541H758.912Zm11.712,0h10.541v-10.541H770.624Zm11.711,0h10.542v-10.541H782.335Zm23.424,0h10.542v-10.541H805.759Zm11.7119,0h10.542v-10.541h-10.542Zm11.7121,0h10.542v-10.541H829.183Zm11.712,0h10.541v-10.541H840.895Zm11.7121,0h10.541v-10.541h-10.541Zm11.7119,0H874.86v-10.541H864.319Zm46.848,0h10.5391v-10.541H911.167Zm23.4231,0h10.541v-10.541H934.59Zm11.7119,0h10.541v-10.541H946.302Zm11.7119,0h10.541v-10.541h-10.541Zm58.56,0h10.539v-10.541h-10.539Zm11.7119,0h10.54v-10.541h-10.54Zm11.7121,0h10.54v-10.541h-10.54Zm-43.3559-15.2041h3.5559v-3.5549h-3.5559Zm70.21.0611h3.6779v-3.678h-3.6779Zm-351.4391.083h3.844v-3.845h-3.844Zm256.339,1.323h6.489v-6.49h-6.489Zm80.143,1.8391h10.169V297.52h-10.169Zm-46.93.083h10.333V297.438h-10.333Zm-585.6771.083h10.5v-10.5h-10.5Zm-128.852.021h10.5411V297.333H290.436Zm105.407,0h10.542V297.333H395.843Zm175.679,0h10.5389V297.333H571.522Zm46.848,0h10.5389V297.333H618.37Zm11.7111,0h10.541V297.333h-10.541Zm23.4229,0h10.542V297.333H653.504Zm81.984,0h10.5411V297.333H735.488Zm58.559,0h10.542V297.333H794.047Zm11.712,0h10.542V297.333H805.759Zm11.7119,0h10.542V297.333h-10.542Zm11.7121,0h10.542V297.333H829.183Zm11.712,0h10.541V297.333H840.895Zm11.7121,0h10.541V297.333h-10.541Zm11.7119,0H874.86V297.333H864.319Zm11.712,0h10.541V297.333H876.031Zm11.712,0h10.5409V297.333H887.743Zm23.424,0h10.5391V297.333H911.167Zm11.7109,0h10.541V297.333h-10.541Zm23.4241,0h10.541V297.333H946.302Zm11.7119,0h10.541V297.333h-10.541Zm58.56,0h10.539V297.333h-10.539Zm11.7119,0h10.54V297.333h-10.54Zm11.7121,0h10.54V297.333h-10.54ZM306.881,291.429h1.074v-1.074h-1.074Zm678.608.6818h2.439v-2.4379h-2.439Zm10.0581,1.6541h5.7451v-5.7461h-5.7451ZM315.472,294.55h7.3171v-7.3149H315.472Zm749.4789.0831h7.481v-7.482h-7.481Zm-106.0908.6818h8.8479V286.469H958.86Zm-387.3171.826h10.499V285.6418H571.543Zm433.34,0h10.499V285.6418h-10.499Zm-667.599.0219h10.541v-10.542h-10.541Zm105.4069,0h10.5411v-10.542H442.691Zm35.136,0h10.541v-10.542H477.827Zm23.423,0h10.542v-10.542H501.25Zm11.712,0h10.5411v-10.542H512.962Zm35.136,0h10.541v-10.542H548.098Zm70.272,0h10.5389v-10.542H618.37Zm93.694,0h10.541v-10.542H712.064Zm46.848,0h10.541v-10.542H758.912Zm11.712,0h10.541v-10.542H770.624Zm11.711,0h10.542v-10.542H782.335Zm35.1359,0h10.542v-10.542h-10.542Zm23.4241,0h10.541v-10.542H840.895Zm11.7121,0h10.541v-10.542h-10.541Zm23.4239,0h10.541v-10.542H876.031Zm23.4241,0h10.541v-10.542h-10.541Zm11.7119,0h10.5391v-10.542H911.167Zm23.4231,0h10.541v-10.542H934.59Zm81.9839,0h10.539v-10.542h-10.539Zm11.7119,0h10.54v-10.542h-10.54Zm11.7121,0h10.54v-10.542h-10.54Zm11.711,0h10.541v-10.542h-10.541ZM985.8181,280.07h1.7791v-1.7771h-1.7791Zm92.89.8062h3.3889v-3.3911h-3.3889Zm-351.3979.041h3.473v-3.4729H727.31Zm232.936,1.301h6.0769v-6.0759h-6.0769Zm33.606,1.53h9.135v-9.135h-9.135Zm69.92.3519h9.8379v-9.8392h-9.8379Zm-328.201.268h10.3741v-10.375H735.571Zm-269.456.083h10.541v-10.542H466.115Zm70.271,0h10.541v-10.542H536.386Zm23.4241,0h10.541v-10.542H559.81Zm58.56,0h10.5389v-10.542H618.37Zm35.134,0h10.542v-10.542H653.504Zm93.696,0h10.541v-10.542H747.2Zm23.424,0h10.541v-10.542H770.624Zm11.711,0h10.542v-10.542H782.335Zm11.712,0h10.542v-10.542H794.047Zm11.712,0h10.542v-10.542H805.759Zm11.7119,0h10.542v-10.542h-10.542Zm11.7121,0h10.542v-10.542H829.183Zm11.712,0h10.541v-10.542H840.895Zm11.7121,0h10.541v-10.542h-10.541Zm11.7119,0H874.86v-10.542H864.319Zm35.1361,0h10.541v-10.542h-10.541Zm23.4228,0h10.541v-10.542h-10.541Zm11.7122,0h10.541v-10.542H934.59Zm70.272,0h10.54v-10.542h-10.54Zm11.7119,0h10.539v-10.542h-10.539Zm11.7119,0h10.54v-10.542h-10.54Zm11.7121,0h10.54v-10.542h-10.54Zm11.711,0h10.541v-10.542h-10.541Zm38.98-15.5569h2.853v-2.852h-2.853Zm-714.715.2889h3.432v-3.43h-3.432Zm608.9349.083h3.596V265.67h-3.596Zm-24.6428,1.22h6.0349v-6.0349h-6.0349Zm115.4448,1.6741h9.3831v-9.383h-9.3831Zm-82.479.4961h10.376V262.281h-10.376Zm-269.3939.021h10.416V262.26H723.838Zm-281.147.062h10.5411V262.197H442.691Zm140.543,0h10.5389V262.197H583.234Zm81.9819,0h10.542V262.197h-10.542Zm93.6961,0h10.541V262.197H758.912Zm11.712,0h10.541V262.197H770.624Zm11.711,0h10.542V262.197H782.335Zm11.712,0h10.542V262.197H794.047Zm11.712,0h10.542V262.197H805.759Zm23.424,0h10.542V262.197H829.183Zm11.712,0h10.541V262.197H840.895Zm11.7121,0h10.541V262.197h-10.541Zm11.7119,0H874.86V262.197H864.319Zm11.712,0h10.541V262.197H876.031Zm11.712,0h10.5409V262.197H887.743Zm11.7121,0h10.541V262.197h-10.541Zm23.4228,0h10.541V262.197h-10.541Zm11.7122,0h10.541V262.197H934.59Zm11.7119,0h10.541V262.197H946.302Zm58.56,0h10.54V262.197h-10.54Zm11.7119,0h10.539V262.197h-10.539Zm11.7119,0h10.54V262.197h-10.54Zm11.7121,0h10.54V262.197h-10.54Zm11.711,0h10.541V262.197h-10.541Zm11.7119,0h10.541V262.197h-10.541ZM457.958,257.4719h3.43V254.041h-3.43Zm526.9719.062h3.5559V253.979H984.93Zm-24.6638,1.24h6.0349V252.739h-6.0349Zm128.0049.8269h7.689v-7.6889h-7.689Zm-352.7,1.344h10.3741v-10.376H735.571Zm257.6609,0h10.376v-10.376h-10.376Zm-527.1169.0821h10.541V250.4858H466.115Zm11.712,0h10.541V250.4858H477.827Zm81.9831,0h10.541V250.4858H559.81Zm46.8479,0h10.5389V250.4858H606.658Zm11.712,0h10.5389V250.4858H618.37Zm105.406,0h10.541V250.4858H723.776Zm58.559,0h10.542V250.4858H782.335Zm23.424,0h10.542V250.4858H805.759Zm11.7119,0h10.542V250.4858h-10.542Zm11.7121,0h10.542V250.4858H829.183Zm11.712,0h10.541V250.4858H840.895Zm23.424,0H874.86V250.4858H864.319Zm23.424,0h10.5409V250.4858H887.743Zm11.7121,0h10.541V250.4858h-10.541Zm11.7119,0h10.5391V250.4858H911.167Zm11.7109,0h10.541V250.4858h-10.541Zm11.7122,0h10.541V250.4858H934.59Zm11.7119,0h10.541V250.4858H946.302Zm58.56,0h10.54V250.4858h-10.54Zm11.7119,0h10.539V250.4858h-10.539Zm11.7119,0h10.54V250.4858h-10.54Zm11.7121,0h10.54V250.4858h-10.54Zm11.711,0h10.541V250.4858h-10.541Zm11.7119,0h10.541V250.4858h-10.541Zm11.7112,0h10.542V250.4858h-10.542Zm27.5368-15.825h2.315v-2.314h-2.315Zm-749.9939.4341h3.184v-3.1831h-3.184Zm632.0689.3721h3.927v-3.927h-3.927Zm-24.333.91h5.7461v-5.7461h-5.7461Zm126.7651,2.0659h9.878V239.105h-9.878Zm-351.5639.207H745.905v-10.293H735.6121Zm257.5988.062h10.417v-10.417h-10.417Zm-679.3509.062h10.541v-10.541H313.86Zm23.4241,0h10.541v-10.541h-10.541Zm292.797,0h10.541v-10.541h-10.541Zm70.271,0h10.541v-10.541h-10.541Zm23.4239,0h10.541v-10.541H723.776Zm23.424,0h10.541v-10.541H747.2Zm35.135,0h10.542v-10.541H782.335Zm23.424,0h10.542v-10.541H805.759Zm11.7119,0h10.542v-10.541h-10.542Zm11.7121,0h10.542v-10.541H829.183Zm23.4241,0h10.541v-10.541h-10.541Zm11.7119,0H874.86v-10.541H864.319Zm11.712,0h10.541v-10.541H876.031Zm23.4241,0h10.541v-10.541h-10.541Zm11.7119,0h10.5391v-10.541H911.167Zm11.7109,0h10.541v-10.541h-10.541Zm11.7122,0h10.541v-10.541H934.59Zm11.7119,0h10.541v-10.541H946.302Zm58.56,0h10.54v-10.541h-10.54Zm11.7119,0h10.539v-10.541h-10.539Zm11.7119,0h10.54v-10.541h-10.54Zm11.7121,0h10.54v-10.541h-10.54Zm11.711,0h10.541v-10.541h-10.541Zm11.7119,0h10.541v-10.541h-10.541Zm11.7112,0h10.542v-10.541h-10.542ZM317.89,233.573h2.48v-2.48h-2.48Zm783.952.7439h3.969v-3.968h-3.969Zm-117.5109.3931h4.7529v-4.7539h-4.7529Zm-23.5271.103h4.96v-4.96h-4.96Zm-236.7811,2.543H734.069V227.31H724.0229Zm362.8631.206h10.457V227.104h-10.457Zm-93.7151.02h10.499V227.083h-10.499Zm-667.5989.021h10.541V227.062H325.572Zm105.407,0H441.52V227.062H430.979Zm23.424,0h10.541V227.062H454.403Zm105.4071,0h10.541V227.062H559.81Zm128.83,0h10.542V227.062H688.64Zm46.848,0h10.5411V227.062H735.488Zm11.712,0h10.541V227.062H747.2Zm46.847,0h10.542V227.062H794.047Zm11.712,0h10.542V227.062H805.759Zm11.7119,0h10.542V227.062h-10.542Zm11.7121,0h10.542V227.062H829.183Zm11.712,0h10.541V227.062H840.895Zm11.7121,0h10.541V227.062h-10.541Zm11.7119,0H874.86V227.062H864.319Zm11.712,0h10.541V227.062H876.031Zm11.712,0h10.5409V227.062H887.743Zm35.1349,0h10.541V227.062h-10.541Zm23.4241,0h10.541V227.062H946.302Zm58.56,0h10.54V227.062h-10.54Zm11.7119,0h10.539V227.062h-10.539Zm11.7119,0h10.54V227.062h-10.54Zm11.7121,0h10.54V227.062h-10.54Zm11.711,0h10.541V227.062h-10.541Zm11.7119,0h10.541V227.062h-10.541Zm11.7112,0h10.542V227.062h-10.542ZM388.678,221.344h1.448v-1.447h-1.448Zm584.54,1.0539h3.5559V218.845H973.218Zm128.397.4341h4.4231v-4.4231h-4.4231Zm-117.9661.8479h6.1179V217.563h-6.1179ZM736.067,225.313h9.382V215.93h-9.382Zm210.317.4958H956.76v-10.375H946.384Zm-550.541.0821h10.542V215.35H395.843Zm81.984,0h10.541V215.35H477.827Zm23.423,0h10.542V215.35H501.25Zm46.848,0h10.541V215.35H548.098Zm23.424,0h10.5389V215.35H571.522Zm175.678,0h10.541V215.35H747.2Zm23.424,0h10.541V215.35H770.624Zm11.711,0h10.542V215.35H782.335Zm11.712,0h10.542V215.35H794.047Zm11.712,0h10.542V215.35H805.759Zm11.7119,0h10.542V215.35h-10.542Zm23.4241,0h10.541V215.35H840.895Zm11.7121,0h10.541V215.35h-10.541Zm11.7119,0H874.86V215.35H864.319Zm11.712,0h10.541V215.35H876.031Zm46.8469,0h10.541V215.35h-10.541Zm11.7122,0h10.541V215.35H934.59Zm58.56,0h10.5391V215.35H993.15Zm11.7122,0h10.54V215.35h-10.54Zm11.7119,0h10.539V215.35h-10.539Zm11.7119,0h10.54V215.35h-10.54Zm11.7121,0h10.54V215.35h-10.54Zm11.711,0h10.541V215.35h-10.541Zm11.7119,0h10.541V215.35h-10.541Zm11.7112,0h10.542V215.35h-10.542Zm11.7119,0h10.542V215.35h-10.542ZM974.1489,209.7568h1.6941v-1.695h-1.6941Zm128.252.5782h2.852v-2.8521h-2.852ZM268.418,212.7739h7.729v-7.729h-7.729Zm714.322.1031h7.936v-7.9361H982.74Zm-35.8811.7448h9.426v-9.425h-9.426Zm140.3572.1851h9.7971V204.011h-9.7971Zm-12.062.352h10.499v-10.5h-10.499Zm-749.5821.02h10.541V203.6379H325.572Zm35.135,0h10.542V203.6379H360.707Zm128.8319,0H500.08V203.6379H489.5389Zm11.7111,0h10.542V203.6379H501.25Zm105.408,0h10.5389V203.6379H606.658Zm140.542,0h10.541V203.6379H747.2Zm35.135,0h10.542V203.6379H782.335Zm23.424,0h10.542V203.6379H805.759Zm23.424,0h10.542V203.6379H829.183Zm23.4241,0h10.541V203.6379h-10.541Zm11.7119,0H874.86V203.6379H864.319Zm11.712,0h10.541V203.6379H876.031Zm11.712,0h10.5409V203.6379H887.743Zm11.7121,0h10.541V203.6379h-10.541Zm11.7119,0h10.5391V203.6379H911.167Zm11.7109,0h10.541V203.6379h-10.541Zm11.7122,0h10.541V203.6379H934.59Zm58.56,0h10.5391V203.6379H993.15Zm11.7122,0h10.54V203.6379h-10.54Zm11.7119,0h10.539V203.6379h-10.539Zm11.7119,0h10.54V203.6379h-10.54Zm11.7121,0h10.54V203.6379h-10.54Zm11.711,0h10.541V203.6379h-10.541Zm11.7119,0h10.541V203.6379h-10.541ZM974.0039,198.19h1.9829v-1.9838h-1.9829ZM316.877,199.45h4.5059v-4.5049H316.877Zm772.736.248h5.002v-5.001h-5.002Zm-141.43.8889h6.7781v-6.779h-6.7781Zm33.689,1.447h9.6731v-9.6721h-9.6731Zm-574.2342.3511h10.375V192.01h-10.375Zm667.5362.04h10.458V191.968h-10.458Zm-351.3981.042h10.541V191.926H723.776Zm11.712,0h10.5411V191.926H735.488Zm11.712,0h10.541V191.926H747.2Zm11.712,0h10.541V191.926H758.912Zm11.712,0h10.541V191.926H770.624Zm11.711,0h10.542V191.926H782.335Zm11.712,0h10.542V191.926H794.047Zm11.712,0h10.542V191.926H805.759Zm11.7119,0h10.542V191.926h-10.542Zm11.7121,0h10.542V191.926H829.183Zm11.712,0h10.541V191.926H840.895Zm11.7121,0h10.541V191.926h-10.541Zm11.7119,0H874.86V191.926H864.319Zm11.712,0h10.541V191.926H876.031Zm11.712,0h10.5409V191.926H887.743Zm35.1349,0h10.541V191.926h-10.541Zm70.272,0h10.5391V191.926H993.15Zm11.7122,0h10.54V191.926h-10.54Zm11.7119,0h10.539V191.926h-10.539Zm11.7119,0h10.54V191.926h-10.54Zm11.7121,0h10.54V191.926h-10.54Zm11.711,0h10.541V191.926h-10.541Zm11.7119,0h10.541V191.926h-10.541Zm-756.54-16.4441h1.074V184.948h-1.074Zm655.1.764h2.6049v-2.604H961.981Zm128.3979.434h3.4729V183.75h-3.4729Zm-117.9458.827h5.126v-5.125h-5.126Zm-657.5391,1.674h8.474v-8.4741h-8.474Zm620.11.62h9.7141v-9.7141h-9.7141Zm140.2112.3309h10.375v-10.375h-10.375Zm-93.7371.0419h10.458v-10.458H981.478Zm-234.278.04h10.541v-10.541H747.2Zm11.712,0h10.541v-10.541H758.912Zm11.712,0h10.541v-10.541H770.624Zm11.711,0h10.542v-10.541H782.335Zm11.712,0h10.542v-10.541H794.047Zm23.4239,0h10.542v-10.541h-10.542Zm11.7121,0h10.542v-10.541H829.183Zm11.712,0h10.541v-10.541H840.895Zm11.7121,0h10.541v-10.541h-10.541Zm11.7119,0H874.86v-10.541H864.319Zm11.712,0h10.541v-10.541H876.031Zm11.712,0h10.5409v-10.541H887.743Zm11.7121,0h10.541v-10.541h-10.541Zm11.7119,0h10.5391v-10.541H911.167Zm11.7109,0h10.541v-10.541h-10.541Zm70.272,0h10.5391v-10.541H993.15Zm11.7122,0h10.54v-10.541h-10.54Zm11.7119,0h10.539v-10.541h-10.539Zm11.7119,0h10.54v-10.541h-10.54Zm11.7121,0h10.54v-10.541h-10.54Zm11.711,0h10.541v-10.541h-10.541Zm11.7119,0h10.541v-10.541h-10.541ZM962.582,174.4758h1.4051V173.07H962.582Zm-211.786.9722h3.348v-3.3491h-3.348Zm339.5409.103h3.5549v-3.5549h-3.5549Zm-153.1218.8679h5.292v-5.291h-5.292Zm33.3569,1.7781h8.846v-8.8459h-8.846Zm-656.298.4329h9.714v-9.7141h-9.714Zm608.7079.31h10.333V168.606h-10.333Zm152.2132.042h10.417v-10.417h-10.417Zm-597.3681.062h10.541v-10.541H477.827Zm175.677,0h10.542v-10.541H653.504Zm23.424,0H687.47v-10.541H676.928Zm81.984,0h10.541v-10.541H758.912Zm46.847,0h10.542v-10.541H805.759Zm11.7119,0h10.542v-10.541h-10.542Zm11.7121,0h10.542v-10.541H829.183Zm11.712,0h10.541v-10.541H840.895Zm11.7121,0h10.541v-10.541h-10.541Zm11.7119,0H874.86v-10.541H864.319Zm11.712,0h10.541v-10.541H876.031Zm11.712,0h10.5409v-10.541H887.743Zm23.424,0h10.5391v-10.541H911.167Zm70.271,0h10.541v-10.541H981.438Zm11.7119,0h10.5391v-10.541H993.15Zm11.7122,0h10.54v-10.541h-10.54Zm11.7119,0h10.539v-10.541h-10.539Zm11.7119,0h10.54v-10.541h-10.54Zm11.7121,0h10.54v-10.541h-10.54Zm11.711,0h10.541v-10.541h-10.541Zm11.7119,0h10.541v-10.541h-10.541Zm26.958-15.247h3.4729V160.325h-3.4729Zm-363.4819.414h4.2979v-4.299H726.897Zm233.3691.8689h6.0349v-6.0349h-6.0349Zm-35.238.1021h6.2409V158.94h-6.2409ZM747.613,166.918h9.715v-9.7141h-9.715Zm-35.405.27h10.251V156.937H712.208Zm363.0071.061h10.375V156.874h-10.375Zm-105.468.062h10.499v-10.5h-10.499Zm-562.192.021h10.541V156.791h-10.541Zm163.9669,0h10.5389V156.791H571.522Zm11.712,0h10.5389V156.791H583.234Zm11.712,0h10.539V156.791H594.946Zm46.847,0h10.541V156.791H641.793Zm117.119,0h10.541V156.791H758.912Zm11.712,0h10.541V156.791H770.624Zm58.559,0h10.542V156.791H829.183Zm23.4241,0h10.541V156.791h-10.541Zm23.4239,0h10.541V156.791H876.031Zm11.712,0h10.5409V156.791H887.743Zm93.695,0h10.541V156.791H981.438Zm11.7119,0h10.5391V156.791H993.15Zm11.7122,0h10.54V156.791h-10.54Zm11.7119,0h10.539V156.791h-10.539Zm11.7119,0h10.54V156.791h-10.54Zm11.7121,0h10.54V156.791h-10.54Zm11.711,0h10.541V156.791h-10.541Zm11.7119,0h10.541V156.791h-10.541ZM774.386,151.8579h3.017v-3.0171h-3.017Zm316.219,0h3.018v-3.0171h-3.018Zm-176.4209.7442h4.5049v-4.5049h-4.5049Zm35.011.1237h4.7539v-4.7529h-4.7539ZM479.149,154.2969h7.896v-7.895h-7.896Zm421.194.4341h8.763v-8.763h-8.763Zm57.8989.6608h10.086V145.3059h-10.086Zm-199.1649.063h10.21v-10.21h-10.21Zm316.2.021h10.251V145.2249h-10.251Zm-187.4941.1021h10.458V145.1208H887.783Zm-339.685.042h10.541v-10.541H548.098Zm23.424,0h10.5389v-10.541H571.522Zm58.5591,0h10.541v-10.541h-10.541Zm187.39,0h10.542v-10.541h-10.542Zm11.7121,0h10.542v-10.541H829.183Zm11.712,0h10.541v-10.541H840.895Zm35.136,0h10.541v-10.541H876.031Zm93.6951,0h10.541v-10.541h-10.541Zm11.7119,0h10.541v-10.541H981.438Zm11.7119,0h10.5391v-10.541H993.15Zm11.7122,0h10.54v-10.541h-10.54Zm11.7119,0h10.539v-10.541h-10.539Zm11.7119,0h10.54v-10.541h-10.54Zm11.7121,0h10.54v-10.541h-10.54Zm11.711,0h10.541v-10.541h-10.541Zm11.7119,0h10.541v-10.541h-10.541ZM927.5291,139.2581h1.24v-1.241h-1.24Zm163.5319.4338h2.1079V137.584h-2.1079Zm-328.573.6411h3.3891v-3.3889H762.488Zm128.417.4119h4.2161v-4.2161H890.905Zm46.2681.58h5.374v-5.3741h-5.374Zm-246.4041.4541h6.2841v-6.283H690.769Zm-12.064.3518h6.987v-6.9861h-6.987Zm139.903.6411h8.268v-8.2671h-8.268Zm-117.304.186h8.6379v-8.6389H701.304Zm128.519.31h9.26v-9.26h-9.26Zm-164.028.0611h9.3831v-9.3831H665.795Zm-46.93.083h9.548v-9.5491h-9.548Zm456.5991.165h9.8789V133.698h-9.8789Zm-128.8931.063h10.003V133.636H946.571Zm11.4429.2681h10.541V133.3669h-10.541Zm11.7122,0h10.541V133.3669h-10.541Zm11.7119,0h10.541V133.3669H981.438Zm11.7119,0h10.5391V133.3669H993.15Zm11.7122,0h10.54V133.3669h-10.54Zm11.7119,0h10.539V133.3669h-10.539Zm11.7119,0h10.54V133.3669h-10.54Zm11.7121,0h10.54V133.3669h-10.54Zm11.711,0h10.541V133.3669h-10.541Zm11.7119,0h10.541V133.3669h-10.541ZM833.834,127.5459h1.24v-1.241h-1.24Zm70.208.061h1.365v-1.363h-1.365Zm-58.661.105h1.57V126.14h-1.57Zm69.527.7429h3.059v-3.059h-3.059Zm9.437,2.2742h7.6069v-7.605H924.345Zm151.655.6h8.8049v-8.805H1076Zm-141.3059.7641h10.333V121.7581h-10.333Zm11.6079.103h10.541V121.655H946.302Zm11.7119,0h10.541V121.655h-10.541Zm11.7122,0h10.541V121.655h-10.541Zm11.7119,0h10.541V121.655H981.438Zm11.7119,0h10.5391V121.655H993.15Zm11.7122,0h10.54V121.655h-10.54Zm11.7119,0h10.539V121.655h-10.539Zm11.7119,0h10.54V121.655h-10.54Zm11.7121,0h10.54V121.655h-10.54Zm11.711,0h10.541V121.655h-10.541Zm11.7119,0h10.541V121.655h-10.541Zm-440.98-15.7841h2.397v-2.397h-2.397Zm10.636,1.0761h4.547v-4.5471h-4.547Zm444.06.992h6.531v-6.531h-6.531Zm-211.309.4949h7.5241v-7.522H865.828Zm-223.725,1.1989h9.921v-9.9209h-9.921Zm210.5041.31h10.541v-10.541h-10.541Zm70.2708,0h10.541v-10.541h-10.541Zm23.4241,0h10.541v-10.541H946.302Zm11.7119,0h10.541v-10.541h-10.541Zm11.7122,0h10.541v-10.541h-10.541Zm11.7119,0h10.541v-10.541H981.438Zm11.7119,0h10.5391v-10.541H993.15Zm11.7122,0h10.54v-10.541h-10.54Zm11.7119,0h10.539v-10.541h-10.539Zm11.7119,0h10.54v-10.541h-10.54Zm11.7121,0h10.54v-10.541h-10.54Zm11.711,0h10.541v-10.541h-10.541Zm11.7119,0h10.541v-10.541h-10.541Zm15.5562-15.5559h2.853v-2.853h-2.853Zm-316.8621.6408h4.133v-4.134h-4.133Zm114.2259,2.8931h9.9211V98.541h-9.9211Zm187.39,0h9.9209V98.541h-9.9209Zm-492.209.31h10.5389V98.231H571.522Zm58.5591,0h10.541V98.231h-10.541Zm187.39,0h10.542V98.231h-10.542Zm81.9842,0h10.541V98.231h-10.541Zm23.4228,0h10.541V98.231h-10.541Zm11.7122,0h10.541V98.231H934.59Zm11.7119,0h10.541V98.231H946.302Zm23.4241,0h10.541V98.231h-10.541Zm11.7119,0h10.541V98.231H981.438Zm11.7119,0h10.5391V98.231H993.15Zm11.7122,0h10.54V98.231h-10.54Zm11.7119,0h10.539V98.231h-10.539Zm11.7119,0h10.54V98.231h-10.54Zm11.7121,0h10.54V98.231h-10.54Zm11.711,0h10.541V98.231h-10.541ZM587.9659,92.3269h1.075v-1.074h-1.075Zm477.5212,2.667h6.4069v-6.406h-6.4069Zm-188.2991.9089h8.225v-8.226h-8.225Zm174.541,1.1363h10.499V86.54h-10.499Zm-456.783.0219h10.539V86.519H594.946Zm70.27,0h10.542V86.519h-10.542Zm70.2721,0h10.5411V86.519H735.488Zm58.559,0h10.542V86.519H794.047Zm128.8309,0h10.541V86.519h-10.541Zm11.7122,0h10.541V86.519H934.59Zm11.7119,0h10.541V86.519H946.302Zm11.7119,0h10.541V86.519h-10.541Zm23.4241,0h10.541V86.519H981.438Zm11.7119,0h10.5391V86.519H993.15Zm11.7122,0h10.54V86.519h-10.54Zm11.7119,0h10.539V86.519h-10.539Zm11.7119,0h10.54V86.519h-10.54Zm11.7121,0h10.54V86.519h-10.54ZM1068.03,80.74h1.3221V79.417H1068.03Zm-316.8821.6609h2.646v-2.646h-2.646Zm301.9451,2.563h7.772v-7.771h-7.772Zm-164.709.7431h9.2581V75.448H888.384Zm-293.438.6419h10.539V74.8069H594.946Zm304.5091,0h10.541V74.8069h-10.541Zm23.4228,0h10.541V74.8069h-10.541Zm11.7122,0h10.541V74.8069H934.59Zm11.7119,0h10.541V74.8069H946.302Zm11.7119,0h10.541V74.8069h-10.541Zm11.7122,0h10.541V74.8069h-10.541Zm11.7119,0h10.541V74.8069H981.438Zm11.7119,0h10.5391V74.8069H993.15Zm11.7122,0h10.54V74.8069h-10.54Zm11.7119,0h10.539V74.8069h-10.539Zm11.7119,0h10.54V74.8069h-10.54Zm11.7121,0h10.54V74.8069h-10.54Zm16.1341-16.135h1.6941V67.5188h-1.6941Zm-305.17.6621h3.017V66.8579h-3.017Zm290.6259,2.1689h7.3579V64.688h-7.3579Zm-141.1409.6h8.5559V64.0881H900.447Zm127.961.867h10.2929V63.22H1028.408Zm-117.221.1049h10.499v-10.5H911.187Zm-152.275.02h10.541V63.095H758.912Zm11.712,0h10.541V63.095H770.624Zm93.695,0H874.86V63.095H864.319Zm70.2711,0h10.541V63.095H934.59Zm35.136,0h10.541V63.095h-10.541Zm11.7119,0h10.541V63.095H981.438Zm11.7119,0h10.5391V63.095H993.15Zm11.7122,0h10.54V63.095h-10.54Zm11.7119,0h10.539V63.095h-10.539Zm-346.768-16.3h1.3631v-1.365H669.806Zm361.642,1.426h4.2161v-4.216h-4.2161ZM913.792,59.3h5.291V54.0081h-5.291Zm104.021,1.3838h8.061v-8.06h-8.061Zm-339.975.3311H686.56V52.293H677.838Zm327.3341.6h9.9209V51.6941h-9.9209Zm-70.3962.124h10.1679V51.57H934.7759Zm58.395.1651h10.499V51.405h-10.499Zm-46.8689.0209h10.541V51.3831H946.302Zm11.7119,0h10.541V51.3831h-10.541Zm11.7122,0h10.541V51.3831h-10.541Zm11.7119,0h10.541V51.3831H981.438Zm27.4751-15.7631h2.438v-2.439h-2.438Zm-70.541.269h2.976V43.4548h-2.976Zm57.8569.7031h4.3821V42.752H996.229Zm-47.053.2058h4.794V42.5459h-4.794Zm34.68.4551H989.56V42.09H983.856Zm-23.5269.103h5.91V41.9871h-5.91Zm11.5669.1451h6.199v-6.2h-6.199Z"/></clipPath><linearGradient id="b" y1="398" x2="1336" y2="398" gradientUnits="userSpaceOnUse"><stop offset="0" stop-color="#bababa"/><stop offset="1" stop-color="#ededed"/></linearGradient></defs><title>scattered-id</title><g class="b"><rect class="c" width="1336" height="796"/></g></svg>