<svg id="Layer_1" data-name="Layer 1" xmlns="http://www.w3.org/2000/svg" viewBox="0 0 1232.84 217.72"><defs><style>.cls-1{fill:#858585;}.cls-2{fill:#8d8d8d;}.cls-3{fill:#898989;}.cls-4{fill:#818181;}.cls-5{fill:#828282;}.cls-6{fill:#838383;}.cls-7{fill:#868686;}.cls-8{fill:#8e8e8e;}</style></defs><title>threefold network</title><path class="cls-1" d="M124.49,183.8c-37.64,0-75.28-.08-112.92.1-4.94,0-6.71-1.21-6.59-6.39q.48-21.47,0-43c-.1-5,2-5.64,6.25-5.63q101.43.15,202.86.08c19.17,0,30.34,11,30.66,30.27.1,5.83,0,11.66,0,17.48,0,7,0,7-6.88,7.05Z" transform="translate(-4.97 -126.13)"/><path class="cls-2" d="M124.48,287.89H238c6.72,0,6.8.05,6.81,6.56,0,8,.16,16-.7,24-1.24,11.41-10.68,21.7-22,23.49a67.61,67.61,0,0,1-10.45.78q-99.22.07-198.47,0c-8,0-8,0-8-7.93,0-13.5.2-27-.1-40.49-.11-5.05,1.44-6.55,6.51-6.52C49.16,288,86.82,287.89,124.48,287.89Z" transform="translate(-4.97 -126.13)"/><path class="cls-3" d="M160,208.1h77.94c6.68,0,6.87.17,6.88,6.59,0,14.16-.11,28.31.11,42.47.07,4.6-1.65,6.06-6.14,6.05q-78.94-.15-157.88,0c-4.16,0-6-1.11-5.88-5.66q.34-21.72,0-43.46C74.88,209.47,76.52,208,81,208,107.33,208.17,133.64,208.1,160,208.1Z" transform="translate(-4.97 -126.13)"/><path class="cls-4" d="M969.22,126.13c-35.87-.09-61,24.65-61.07,60.23s24.74,60.56,60.54,60.64c35.33.07,60.29-24.88,60.4-60.4C1029.21,151.51,1004.16,126.21,969.22,126.13ZM998,210.45c-6.3,11.18-16.78,15.62-29.34,15.55-17.88-.05-30.19-9.62-34-27.05-3.15-14.56-2.28-28.85,7.75-40.7,15.67-18.49,47.56-14.16,57.37,7.94C1006.37,180.88,1006.07,196.19,998,210.45Z" transform="translate(-4.97 -126.13)"/><path class="cls-4" d="M1179.77,127.75c-13.66-.21-27.33,0-41-.15-7,0-7-.13-7,7.09v51.49c0,18,.09,36-.06,54,0,4.1,1.31,5.56,5.48,5.51,14.66-.17,29.36.68,44-.15,23.07-1.31,41.58-11.05,51.18-33.14C1248.61,174.9,1227.9,128.49,1179.77,127.75Zm26.94,82.57c-5.8,10-14.77,15.14-26.25,15.7-6.15.3-12.33-.1-18.48.2-4.32.21-5.92-1.28-5.82-5.7.23-11.33.07-22.66.07-34s.11-22.66-.07-34c-.06-4.12,1.48-5.72,5.57-5.56,5,.21,10,0,15,0,19.65.13,32.8,11.67,35.09,31.25C1213.1,189.36,1212.5,200.37,1206.71,210.32Z" transform="translate(-4.97 -126.13)"/><path class="cls-4" d="M406.06,186.15c0-17.66.13-35.33-.08-53-.05-4.69,1.58-6.2,6.14-5.81a91.9,91.9,0,0,0,14,.12c3.85-.25,5,1.23,4.93,4.85-.13,13,.11,26-.13,39-.09,4.58,1.43,6.11,6,6,13.5-.24,27-.21,40.5,0,4.17.06,5.51-1.46,5.46-5.53-.17-13,.05-26-.12-39-.05-4.11,1.25-5.67,5.52-5.32a77.69,77.69,0,0,0,13.47-.12c4.62-.43,6.09,1.16,6.07,5.8-.14,33.17-.05,66.33,0,99.49,0,2.5-.13,5,0,7.5.22,3.76-1.32,5.6-5.19,5.53-5-.09-10-.14-15,0-3.78.12-4.85-1.7-4.82-5.19.1-13,.05-26,0-39,0-6.5-.16-6.64-6.81-6.65-13.17,0-26.34.1-39.5-.06-4.07-.06-5.6,1.3-5.54,5.48.18,13.16-.12,26.33.12,39.49.09,4.67-1.6,6.26-6.1,6a116.75,116.75,0,0,0-13.49,0c-4.19.21-5.51-1.57-5.48-5.61C406.14,222.15,406.06,204.15,406.06,186.15Z" transform="translate(-4.97 -126.13)"/><path class="cls-4" d="M623.51,241.11c-3.19-4.87-6.22-9.85-9.44-14.71-6-9-11.64-18.27-18.27-26.77-3-3.86-2.86-4.63,1.36-6.71,19.69-9.64,24.85-38.43,9.77-53.64-7.85-7.93-18-10.59-28.65-11.28-13.45-.88-26.94-.86-40.44-.52-5,.13-6.14,2-6.09,6.57.2,17.65.08,35.3.08,52.95s.1,35.31-.07,53c0,4.34,1.49,6,5.82,5.8a136,136,0,0,1,14,0c3.95.2,5.26-1.42,5.2-5.26-.17-10.33-.07-20.65,0-31,0-8.79,2.11-10.43,10.68-8.44,3.25.76,4.9,3.31,6.48,5.85q10,16.13,19.9,32.32c2.21,3.64,4.93,6.31,9.44,6.37,6,.07,12,0,18,.08C625.09,245.71,625.44,244.08,623.51,241.11Zm-44.59-59.33c-6.16,2-12.51,1.48-18.83,1.34-2.25-.05-3.29-1.34-3.29-3.52,0-9.82,0-19.63,0-29.45,0-2.45,1.13-3.73,3.59-3.75,2.17,0,4.33,0,6.49,0a38.41,38.41,0,0,1,10.42.82c8.32,1.71,13.43,7.15,13.9,14.74C591.81,172.24,587.67,179,578.92,181.78Z" transform="translate(-4.97 -126.13)"/><path class="cls-4" d="M730.93,186c0-17.49.1-35-.07-52.48-.05-4.3.88-6.25,5.74-6.19,21.32.28,42.65.28,64,.19,4.42,0,5.74,1.7,5.63,6-.39,16,2.06,13.35-13.42,13.54-10.66.13-21.33.14-32,0-4-.06-5.71,1.34-5.56,5.51.25,6.49.21,13,0,19.49-.11,3.73,1.41,5,5,4.92,9.82-.15,19.66.07,29.48-.12,3.91-.08,5.39,1.37,5.25,5.23-.51,14.38,2.74,13.5-13.12,13.64-7,.07-14-.07-21-.32-3.93-.14-5.85,1.07-5.69,5.38.26,6.82.19,13.66,0,20.49-.08,3.65,1.41,5,5,5,13-.11,26-.05,39,0,6.76,0,6.87.05,6.82,6.56-.09,15.32,1.66,12.83-13,12.94-18.66.15-37.32-.07-56,.13-4.76.05-6.38-1.48-6.32-6.31C731.07,221.65,730.93,203.82,730.93,186Z" transform="translate(-4.97 -126.13)"/><path class="cls-4" d="M637.73,186.35c0-17.66.12-35.31-.09-53,0-4.58,1.34-5.92,6-5.86q31.47.38,62.94,0c5.11-.06,6.53,1.6,6.44,6.59-.24,12.89,0,12.9-13,12.9-10.82,0-21.65.1-32.47,0-3.86-.05-5.4,1.34-5.28,5.25q.3,9.73,0,19.48c-.13,4,1.55,5.22,5.34,5.16,9.65-.16,19.32.08,29-.11,3.84-.07,5.27,1.23,5.34,5.16.26,13.48.38,13.46-13,13.37-6.83,0-13.66.18-20.48-.07-4.42-.16-6.43,1.22-6.23,5.93.28,6.49.23,13,0,19.48-.12,4.06,1.38,5.63,5.52,5.57,12.82-.18,25.64-.09,38.46-.07,6.62,0,6.75.07,6.66,6.7-.19,14.28,2.34,12.81-12.58,12.85q-27.48.06-55,0c-7.57,0-7.59,0-7.6-7.39Q637.72,212.32,637.73,186.35Z" transform="translate(-4.97 -126.13)"/><path class="cls-4" d="M824,186c0-17.48.14-35-.1-52.45-.06-4.67,1.13-6.42,6.09-6.37,21.14.24,42.3.21,63.44,0,4.64,0,6.55,1.25,6.41,6.2-.45,15.77,2,13.4-13.47,13.57-10.66.11-21.32.15-32,0-4.06-.07-5.67,1.23-5.5,5.43.28,6.65.06,13.32.08,20s0,6.75,6.54,6.77c10,0,20,.15,30,0,4.25-.09,6,1.27,5.88,5.71-.48,16.28,2.22,13.65-13.63,13.87-7.66.11-15.33.26-23-.06-4.7-.2-6,1.59-5.88,6.06.25,11.65-.1,23.32.17,35,.1,4.49-1.2,6.43-5.88,6.12a112.27,112.27,0,0,0-13.48,0c-4.33.24-5.83-1.41-5.78-5.78C824.06,222,824,204,824,186Z" transform="translate(-4.97 -126.13)"/><path class="cls-4" d="M332.68,197.09q0-21,0-42c0-7.33,0-7.34-7.58-7.35-7.34,0-14.67-.08-22,.07-3.62.08-5.08-1.29-5-5,.43-18.78-2.82-15.34,14.89-15.46,24.83-.18,49.66.08,74.49,0,3.27,0,4.5,1.14,4.45,4.34-.34,19.72,2.67,15.55-14.91,16-4.83.12-9.69.28-14.5,0s-5.4,2.15-5.38,6.09c.1,27.83.05,55.66,0,83.49,0,8.43,0,8.43-8.54,8.43-3.84,0-7.67-.13-11.5,0-3.39.14-4.73-1.08-4.69-4.64.15-14.66.06-29.32.06-44Z" transform="translate(-4.97 -126.13)"/><path class="cls-4" d="M1071.67,176.37c0,14.49.14,29-.08,43.47-.07,4.58,1.46,6.12,6,6,11.16-.25,22.32,0,33.48-.15,4.19-.07,6.06,1.14,5.94,5.64-.45,17,2.3,14.15-14.18,14.31-16.82.17-33.65-.08-50.47.12-4.42.05-5.7-1.48-5.68-5.8q.19-53.46,0-106.93c0-4.38,1.42-6,5.76-5.77a114.58,114.58,0,0,0,14.47.19c4-.27,4.82,1.44,4.79,4.93-.1,14.65,0,29.31,0,44Z" transform="translate(-4.97 -126.13)"/><path class="cls-5" d="M688.35,333q4.29-13.74,8.58-27.49c2-6.52,4-13.06,6-19.58.61-2,1.6-4.22,4-3.39s1,3.18.49,4.73c-5.43,17.48-11,34.94-16.43,52.41-.52,1.67-1.12,3.26-3.23,3.21-2.6-.07-3.07-2.25-3.71-4.11Q677,317.94,670,297.11c-.62-1.83-.85-3.9-3.19-5.48-1.4,3.68-2.83,7.13-4,10.67-4,11.81-7.93,23.67-11.95,35.49-.72,2.11-1,5-4,5-2.87,0-3-2.72-3.65-4.7q-8.07-25.46-16-51c-.46-1.5-2.18-3.71.59-4.63,2.47-.81,3.59,1.16,4.21,3.2q6.5,21.52,12.93,43c.46,1.53.06,3.9,2.16,3.92,1.37,0,1.53-2.15,2-3.54q7.41-21.18,15-42.3c.63-1.75.79-4.39,3.43-4.34,2.85.05,2.94,2.8,3.62,4.75,4.92,14.15,9.78,28.33,14.68,42.49.37,1.07.85,2.1,1.28,3.15Z" transform="translate(-4.97 -126.13)"/><path class="cls-4" d="M790.72,281.8c-17.72-.08-29.3,12-29.34,30.65s11.65,31.39,28.79,31.4S819.6,331.1,819.59,313C819.58,294,808.31,281.87,790.72,281.8Zm20,46.82c-6.37,10.51-19.43,14-31.65,8.38-7.81-3.57-12.9-13.1-12.93-25.56.6-8.91,3-18.29,13.23-23.21,9-4.34,17.86-3.62,25.93,2.38C815.23,298,817.83,317,810.75,328.62Z" transform="translate(-4.97 -126.13)"/><path class="cls-5" d="M375.94,332.76c0-3.29,0-6.37,0-9.45,0-12-.05-24,0-35.95,0-1.75-1-4.7,2.06-4.63,2.47,0,1.88,2.75,1.89,4.44q.09,25.47,0,50.93c0,1.62.47,3.72-1.44,4.42-2.18.79-3.17-1.26-4.25-2.7q-16.32-21.76-32.64-43.52c-1-1.28-1.6-3-3.48-3.47-1.75,1.41-1,3.39-1,5.08-.07,12.81,0,25.63,0,38.45a37.23,37.23,0,0,1-.22,4.48,1.79,1.79,0,0,1-2,1.73,1.73,1.73,0,0,1-1.62-1.62,35.25,35.25,0,0,1-.21-4c0-16.31,0-32.62,0-48.93,0-1.9-.74-4.52,1.54-5.35,2.62-.93,3.65,1.81,4.88,3.43,10.83,14.33,21.58,28.72,32.39,43.07C372.79,330.45,373.38,332.14,375.94,332.76Z" transform="translate(-4.97 -126.13)"/><path class="cls-6" d="M919.32,338.5c-4.71-6-9.49-12-14.29-18-3.75-4.66-3.73-4.85,1.65-7,7.75-3.06,11.3-9.16,10.39-17.85-.72-6.82-5.39-11.26-13.27-12.85-5.79-1.16-11.63-.48-17.43-.83-4-.23-5.67,1.17-5.54,5.38.24,8.31.07,16.64.06,25v13c0,4.33-.06,8.66,0,13,0,1.7-.62,4.18,2,4.37,3.17.23,2.51-2.63,2.57-4.39.21-6,.25-12,.19-18,0-3.19,1.37-4.15,4.45-4.55,6.06-.8,8.49,3.44,11.44,7.22q7.06,9,14.23,18c1.22,1.53,3.08,2.84,4.71,1.54C922.47,341,920.22,339.66,919.32,338.5ZM889.1,311.84c-2.63,0-3.36-1.67-3.35-3.95v-9.46h0v-2c0-11.18,0-11.18,11.45-10.49,10.67.63,15.31,4.65,15.14,13.11-.11,5.82-3.27,10-8.87,11.84C898.74,312.42,893.9,311.85,889.1,311.84Z" transform="translate(-4.97 -126.13)"/><path class="cls-7" d="M463.62,343.08c-4.5,0-9-.09-13.49,0-3.27.09-5-1-5-4.56q.07-26,0-52c0-3.18,1.35-4.51,4.5-4.49,9.33.07,18.66,0,28,.06,1.56,0,3.87-.34,3.81,2.05s-2.39,1.88-3.92,1.89c-7.17.08-14.34.28-21.5,0-4.71-.2-6.23,1.73-6,6.16s.18,9,0,13.49c-.12,3.61,1.28,5.14,5,5,5.82-.18,11.66-.08,17.49,0,1.4,0,3.53-.36,3.53,1.73s-2.14,1.65-3.52,1.66c-6,.07-12,.17-18,0-3.24-.08-4.52,1.22-4.46,4.39.1,5.5.07,11,0,16.5,0,3,1.33,4.11,4.27,4.07q11.25-.15,22.5,0c1.76,0,4.78-.93,4.66,2-.1,2.79-3.07,1.85-4.88,1.91-4.33.14-8.66,0-13,0Z" transform="translate(-4.97 -126.13)"/><path class="cls-1" d="M980.68,312.38c0-8.66,0-17.31,0-26,0-1.55-.45-3.76,2-3.84s2.28,2.08,2.3,3.67c.09,6.16,0,12.32.1,18.47,0,1.89-.59,4.31,2,5.1,2.24.69,4.13-.19,5.81-1.91,7.42-7.62,14.92-15.16,22.4-22.73.35-.36.68-.73,1.05-1.06,1.52-1.41,3.68-3,5.21-1.45,1.78,1.83-1,3.05-2.12,4.17-7,7.31-14.1,14.58-21.37,21.65-2.45,2.39-2,4,.1,6.18q11.49,11.79,22.74,23.81c1,1.08,3.51,2.26,2,3.87-1.66,1.77-3.66.16-5.12-1.32q-11.91-12-23.82-24.09a11.2,11.2,0,0,0-3-2.49c-3.5-1.55-5.73-.07-5.81,3.92-.13,6.66,0,13.31-.11,20,0,1.71.5,4.22-2.16,4.23s-2.09-2.58-2.11-4.23c-.08-8.66,0-17.31,0-26Z" transform="translate(-4.97 -126.13)"/><path class="cls-8" d="M553.71,314.91c0-7.82-.09-15.63,0-23.44.07-3.81-1.37-5.49-5.27-5.34-4.32.18-8.65,0-13,0-1.33,0-2.9-.15-2.92-1.94s1.58-2,2.89-2q20.46-.07,40.9,0c1.33,0,2.94.17,3,1.93,0,2.16-1.85,2-3.29,2.07-3.83.09-7.67.28-11.47,0-4.74-.34-6.49,1.49-6.42,6.29.21,14.29.07,28.6.07,42.89,0,1.17,0,2.34,0,3.49-.14,1.78.1,4.09-2.59,3.93-2.45-.14-1.9-2.31-1.91-3.88C553.69,330.87,553.71,322.89,553.71,314.91Z" transform="translate(-4.97 -126.13)"/></svg>