<svg xmlns="http://www.w3.org/2000/svg" viewBox="0 0 1920 1080"><defs><style>.a,.g,.h{fill:none;}.a{stroke:#5f5b00;stroke-linejoin:round;stroke-width:6px;opacity:0.61;}.b{opacity:0.9;}.c{fill:#6da080;}.d{fill:#398458;}.e{fill:#227d4c;}.f{fill:#187a48;}.g,.h{stroke:#110f00;stroke-miterlimit:10;}.g{stroke-width:27px;}.h{stroke-width:10px;}</style></defs><title>veda pattern 2 og</title><path class="a" d="M199.12,91.92a1.33,1.33,0,0,1-.41-.25L173.32,67.8a1.18,1.18,0,0,1-.36-.86q.36-17.43.71-34.85a1,1,0,0,1,.11-.46h0A3.49,3.49,0,0,0,169.1,27h0a1,1,0,0,1-.46.11L133.8,28.19a1.14,1.14,0,0,1-.86-.36L108.8,2.69a1,1,0,0,1-.25-.4h0a3.49,3.49,0,0,0-6.58,0h0a1.06,1.06,0,0,1-.24.41L77.85,28.12a1.11,1.11,0,0,1-.86.36l-34.84-.7a1.29,1.29,0,0,1-.47-.11,3.48,3.48,0,0,0-4.62,4.67,1.07,1.07,0,0,1,.11.46q.54,17.43,1.07,34.84a1.14,1.14,0,0,1-.35.86L12.75,92.64a1.15,1.15,0,0,1-.4.26h0a3.49,3.49,0,0,0,0,6.57h0a1.16,1.16,0,0,1,.41.25l25.71,24.1a1.18,1.18,0,0,1,.37.88q-.52,17.29-1,34.6a1.41,1.41,0,0,1-.11.46h0a3.49,3.49,0,0,0,4.68,4.63h0a1.21,1.21,0,0,1,.46-.12L77.7,163.2a1.15,1.15,0,0,1,.86.35l24.14,25.14a1.16,1.16,0,0,1,.25.41h0a3.49,3.49,0,0,0,6.58,0h0a1,1,0,0,1,.24-.4l23.88-25.39a1.16,1.16,0,0,1,.86-.37l34.84.71a1.08,1.08,0,0,1,.47.11h0a3.49,3.49,0,0,0,4.62-4.67h0a1.29,1.29,0,0,1-.11-.47q-.54-17.42-1.07-34.83a1.18,1.18,0,0,1,.35-.87l25.14-24.14a1.22,1.22,0,0,1,.41-.25,3.55,3.55,0,0,0,3.38-4A3.49,3.49,0,0,0,199.12,91.92Z"/><path class="a" d="M389.12,91.92a1.33,1.33,0,0,1-.41-.25L363.32,67.8a1.18,1.18,0,0,1-.36-.86q.36-17.43.71-34.85a1,1,0,0,1,.11-.46h0A3.49,3.49,0,0,0,359.1,27h0a1,1,0,0,1-.46.11L323.8,28.19a1.14,1.14,0,0,1-.86-.36L298.8,2.69a1,1,0,0,1-.25-.4h0a3.49,3.49,0,0,0-6.58,0h0a1.06,1.06,0,0,1-.24.41L267.85,28.12a1.11,1.11,0,0,1-.86.36l-34.84-.7a1.29,1.29,0,0,1-.47-.11,3.48,3.48,0,0,0-4.62,4.67,1.07,1.07,0,0,1,.11.46q.54,17.43,1.07,34.84a1.14,1.14,0,0,1-.35.86L202.75,92.64a1.15,1.15,0,0,1-.4.26h0a3.49,3.49,0,0,0,0,6.57h0a1.16,1.16,0,0,1,.41.25l25.71,24.1a1.18,1.18,0,0,1,.37.88q-.52,17.29-1,34.6a1.41,1.41,0,0,1-.11.46h0a3.49,3.49,0,0,0,4.68,4.63h0a1.21,1.21,0,0,1,.46-.12l34.84-1.07a1.15,1.15,0,0,1,.86.35l24.14,25.14a1.16,1.16,0,0,1,.25.41h0a3.49,3.49,0,0,0,6.58,0h0a1,1,0,0,1,.24-.4l23.88-25.39a1.16,1.16,0,0,1,.86-.37l34.84.71a1.08,1.08,0,0,1,.47.11h0a3.49,3.49,0,0,0,4.62-4.67h0a1.29,1.29,0,0,1-.11-.47q-.54-17.42-1.07-34.83a1.18,1.18,0,0,1,.35-.87l25.14-24.14a1.22,1.22,0,0,1,.41-.25,3.55,3.55,0,0,0,3.38-4A3.49,3.49,0,0,0,389.12,91.92Z"/><path class="a" d="M579.12,91.92a1.33,1.33,0,0,1-.41-.25L553.32,67.8a1.18,1.18,0,0,1-.36-.86q.36-17.43.71-34.85a1,1,0,0,1,.11-.46h0A3.49,3.49,0,0,0,549.1,27h0a1,1,0,0,1-.46.11L513.8,28.19a1.14,1.14,0,0,1-.86-.36L488.8,2.69a1,1,0,0,1-.25-.4h0a3.49,3.49,0,0,0-6.58,0h0a1.06,1.06,0,0,1-.24.41L457.85,28.12a1.11,1.11,0,0,1-.86.36l-34.84-.7a1.29,1.29,0,0,1-.47-.11,3.48,3.48,0,0,0-4.62,4.67,1.07,1.07,0,0,1,.11.46q.54,17.43,1.07,34.84a1.14,1.14,0,0,1-.35.86L392.75,92.64a1.15,1.15,0,0,1-.4.26h0a3.49,3.49,0,0,0,0,6.57h0a1.16,1.16,0,0,1,.41.25l25.71,24.1a1.18,1.18,0,0,1,.37.88q-.53,17.29-1,34.6a1.41,1.41,0,0,1-.11.46h0a3.49,3.49,0,0,0,4.68,4.63h0a1.21,1.21,0,0,1,.46-.12l34.84-1.07a1.15,1.15,0,0,1,.86.35l24.14,25.14a1.16,1.16,0,0,1,.25.41h0a3.49,3.49,0,0,0,6.58,0h0a1,1,0,0,1,.24-.4l23.88-25.39a1.16,1.16,0,0,1,.86-.37l34.84.71a1.08,1.08,0,0,1,.47.11h0a3.49,3.49,0,0,0,4.62-4.67h0a1.29,1.29,0,0,1-.11-.47q-.54-17.42-1.07-34.83a1.18,1.18,0,0,1,.35-.87l25.14-24.14a1.22,1.22,0,0,1,.41-.25,3.55,3.55,0,0,0,3.38-4A3.49,3.49,0,0,0,579.12,91.92Z"/><path class="a" d="M769.12,91.92a1.33,1.33,0,0,1-.41-.25L743.32,67.8a1.18,1.18,0,0,1-.36-.86q.36-17.43.71-34.85a1,1,0,0,1,.11-.46h0A3.49,3.49,0,0,0,739.1,27h0a1,1,0,0,1-.46.11L703.8,28.19a1.14,1.14,0,0,1-.86-.36L678.8,2.69a1,1,0,0,1-.25-.4h0a3.49,3.49,0,0,0-6.58,0h0a1.06,1.06,0,0,1-.24.41L647.85,28.12a1.11,1.11,0,0,1-.86.36l-34.84-.7a1.29,1.29,0,0,1-.47-.11,3.48,3.48,0,0,0-4.62,4.67,1.07,1.07,0,0,1,.11.46q.54,17.43,1.07,34.84a1.14,1.14,0,0,1-.35.86L582.75,92.64a1.15,1.15,0,0,1-.4.26h0a3.49,3.49,0,0,0,0,6.57h0a1.16,1.16,0,0,1,.41.25l25.71,24.1a1.18,1.18,0,0,1,.37.88q-.52,17.29-1,34.6a1.41,1.41,0,0,1-.11.46h0a3.49,3.49,0,0,0,4.68,4.63h0a1.21,1.21,0,0,1,.46-.12l34.84-1.07a1.15,1.15,0,0,1,.86.35l24.14,25.14a1.16,1.16,0,0,1,.25.41h0a3.49,3.49,0,0,0,6.58,0h0a1,1,0,0,1,.24-.4l23.88-25.39a1.16,1.16,0,0,1,.86-.37l34.84.71a1.08,1.08,0,0,1,.47.11h0a3.49,3.49,0,0,0,4.62-4.67h0a1.29,1.29,0,0,1-.11-.47q-.54-17.42-1.07-34.83a1.18,1.18,0,0,1,.35-.87l25.14-24.14a1.22,1.22,0,0,1,.41-.25,3.55,3.55,0,0,0,3.38-4A3.49,3.49,0,0,0,769.12,91.92Z"/><path class="a" d="M960.6,98.1a3.42,3.42,0,0,0,1.94-3.58,2.94,2.94,0,0,0-.71-1.39,3.78,3.78,0,0,0-2.71-1.21,1.33,1.33,0,0,1-.41-.25l-1.27-1.19Q945.38,79.13,933.32,67.8a1.18,1.18,0,0,1-.36-.86q.36-17.43.71-34.85a1,1,0,0,1,.11-.46,3.44,3.44,0,0,0,.34-1.5,3.5,3.5,0,0,0-5-3.13,1,1,0,0,1-.46.11L893.8,28.19a1.14,1.14,0,0,1-.86-.36L868.8,2.69a1,1,0,0,1-.25-.4,3.49,3.49,0,0,0-6.58,0,1.06,1.06,0,0,1-.24.41L837.85,28.12a1.11,1.11,0,0,1-.86.36l-34.84-.7a1.29,1.29,0,0,1-.47-.11,3.48,3.48,0,0,0-4.62,4.67,1.07,1.07,0,0,1,.11.46q.54,17.43,1.07,34.84a1.14,1.14,0,0,1-.35.86L772.75,92.64a1.15,1.15,0,0,1-.4.26,3.55,3.55,0,0,0-.52.23A3.44,3.44,0,0,0,770,96.18a3.58,3.58,0,0,0,.56,1.92,3.43,3.43,0,0,0,1.78,1.37,1.16,1.16,0,0,1,.41.25l23.82,22.33"/><path class="a" d="M1125.94,120.64l22.81-21.9a1.22,1.22,0,0,1,.41-.25,3.93,3.93,0,0,0,1.44-.39,3.42,3.42,0,0,0,1.94-3.58,2.94,2.94,0,0,0-.71-1.39,3.78,3.78,0,0,0-2.71-1.21,1.33,1.33,0,0,1-.41-.25Q1136,79.73,1123.32,67.8a1.18,1.18,0,0,1-.36-.86q.36-17.43.71-34.85a1,1,0,0,1,.11-.46,3.44,3.44,0,0,0,.34-1.5,3.5,3.5,0,0,0-5-3.13,1,1,0,0,1-.46.11l-34.84,1.08a1.14,1.14,0,0,1-.86-.36L1058.8,2.69a1,1,0,0,1-.25-.4,3.49,3.49,0,0,0-6.58,0,1.06,1.06,0,0,1-.24.41l-23.88,25.39a1.11,1.11,0,0,1-.86.36l-34.84-.7a1.29,1.29,0,0,1-.47-.11,3.48,3.48,0,0,0-4.62,4.67,1.07,1.07,0,0,1,.11.46q.54,17.43,1.07,34.84a1.14,1.14,0,0,1-.35.86L965,90.45l-2.28,2.19a1.15,1.15,0,0,1-.4.26,3.55,3.55,0,0,0-.52.23A3.44,3.44,0,0,0,960,96.18a3.58,3.58,0,0,0,.56,1.92"/><path class="a" d="M1339.12,91.92a1.33,1.33,0,0,1-.41-.25L1313.32,67.8a1.18,1.18,0,0,1-.36-.86q.36-17.43.71-34.85a1,1,0,0,1,.11-.46h0A3.49,3.49,0,0,0,1309.1,27h0a1,1,0,0,1-.46.11l-34.84,1.08a1.14,1.14,0,0,1-.86-.36L1248.8,2.69a1,1,0,0,1-.25-.4h0a3.49,3.49,0,0,0-6.58,0h0a1.06,1.06,0,0,1-.24.41l-23.88,25.39a1.11,1.11,0,0,1-.86.36l-34.84-.7a1.29,1.29,0,0,1-.47-.11,3.48,3.48,0,0,0-4.62,4.67,1.07,1.07,0,0,1,.11.46q.54,17.43,1.07,34.84a1.14,1.14,0,0,1-.35.86l-25.14,24.14a1.15,1.15,0,0,1-.4.26h0a3.49,3.49,0,0,0,0,6.57h0a1.16,1.16,0,0,1,.41.25l25.71,24.1a1.18,1.18,0,0,1,.37.88q-.52,17.29-1,34.6a1.41,1.41,0,0,1-.11.46h0a3.49,3.49,0,0,0,4.68,4.63h0a1.21,1.21,0,0,1,.46-.12l34.84-1.07a1.15,1.15,0,0,1,.86.35l24.14,25.14a1.16,1.16,0,0,1,.25.41h0a3.49,3.49,0,0,0,6.58,0h0a1,1,0,0,1,.24-.4l23.88-25.39a1.16,1.16,0,0,1,.86-.37l34.84.71a1.08,1.08,0,0,1,.47.11h0a3.49,3.49,0,0,0,4.62-4.67h0a1.29,1.29,0,0,1-.11-.47q-.54-17.42-1.07-34.83a1.18,1.18,0,0,1,.35-.87l25.14-24.14a1.22,1.22,0,0,1,.41-.25,3.55,3.55,0,0,0,3.38-4A3.49,3.49,0,0,0,1339.12,91.92Z"/><path class="a" d="M1529.12,91.92a1.33,1.33,0,0,1-.41-.25L1503.32,67.8a1.18,1.18,0,0,1-.36-.86q.36-17.43.71-34.85a1,1,0,0,1,.11-.46h0A3.49,3.49,0,0,0,1499.1,27h0a1,1,0,0,1-.46.11l-34.84,1.08a1.14,1.14,0,0,1-.86-.36L1438.8,2.69a1,1,0,0,1-.25-.4h0a3.49,3.49,0,0,0-6.58,0h0a1.06,1.06,0,0,1-.24.41l-23.88,25.39a1.11,1.11,0,0,1-.86.36l-34.84-.7a1.29,1.29,0,0,1-.47-.11,3.48,3.48,0,0,0-4.62,4.67,1.07,1.07,0,0,1,.11.46q.54,17.43,1.07,34.84a1.14,1.14,0,0,1-.35.86l-25.14,24.14a1.15,1.15,0,0,1-.4.26h0a3.49,3.49,0,0,0,0,6.57h0a1.16,1.16,0,0,1,.41.25l25.71,24.1a1.18,1.18,0,0,1,.37.88q-.52,17.29-1,34.6a1.41,1.41,0,0,1-.11.46h0a3.49,3.49,0,0,0,4.68,4.63h0a1.21,1.21,0,0,1,.46-.12l34.84-1.07a1.15,1.15,0,0,1,.86.35l24.14,25.14a1.16,1.16,0,0,1,.25.41h0a3.49,3.49,0,0,0,6.58,0h0a1,1,0,0,1,.24-.4l23.88-25.39a1.16,1.16,0,0,1,.86-.37l34.84.71a1.08,1.08,0,0,1,.47.11h0a3.49,3.49,0,0,0,4.62-4.67h0a1.29,1.29,0,0,1-.11-.47q-.54-17.42-1.07-34.83a1.18,1.18,0,0,1,.35-.87l25.14-24.14a1.22,1.22,0,0,1,.41-.25,3.55,3.55,0,0,0,3.38-4A3.49,3.49,0,0,0,1529.12,91.92Z"/><path class="a" d="M1719.12,91.92a1.33,1.33,0,0,1-.41-.25L1693.32,67.8a1.18,1.18,0,0,1-.36-.86q.36-17.43.71-34.85a1,1,0,0,1,.11-.46h0A3.49,3.49,0,0,0,1689.1,27h0a1,1,0,0,1-.46.11l-34.84,1.08a1.14,1.14,0,0,1-.86-.36L1628.8,2.69a1,1,0,0,1-.25-.4h0a3.49,3.49,0,0,0-6.58,0h0a1.06,1.06,0,0,1-.24.41l-23.88,25.39a1.11,1.11,0,0,1-.86.36l-34.84-.7a1.29,1.29,0,0,1-.47-.11,3.48,3.48,0,0,0-4.62,4.67,1.07,1.07,0,0,1,.11.46q.54,17.43,1.07,34.84a1.14,1.14,0,0,1-.35.86l-25.14,24.14a1.15,1.15,0,0,1-.4.26h0a3.49,3.49,0,0,0,0,6.57h0a1.16,1.16,0,0,1,.41.25l25.71,24.1a1.18,1.18,0,0,1,.37.88q-.52,17.29-1,34.6a1.41,1.41,0,0,1-.11.46h0a3.49,3.49,0,0,0,4.68,4.63h0a1.21,1.21,0,0,1,.46-.12l34.84-1.07a1.15,1.15,0,0,1,.86.35l24.14,25.14a1.16,1.16,0,0,1,.25.41h0a3.49,3.49,0,0,0,6.58,0h0a1,1,0,0,1,.24-.4l23.88-25.39a1.16,1.16,0,0,1,.86-.37l34.84.71a1.08,1.08,0,0,1,.47.11h0a3.49,3.49,0,0,0,4.62-4.67h0a1.29,1.29,0,0,1-.11-.47q-.54-17.42-1.07-34.83a1.18,1.18,0,0,1,.35-.87l25.14-24.14a1.22,1.22,0,0,1,.41-.25,3.55,3.55,0,0,0,3.38-4A3.49,3.49,0,0,0,1719.12,91.92Z"/><path class="a" d="M1909.12,91.92a1.33,1.33,0,0,1-.41-.25L1883.32,67.8a1.18,1.18,0,0,1-.36-.86q.36-17.43.71-34.85a1,1,0,0,1,.11-.46h0A3.49,3.49,0,0,0,1879.1,27h0a1,1,0,0,1-.46.11l-34.84,1.08a1.14,1.14,0,0,1-.86-.36L1818.8,2.69a1,1,0,0,1-.25-.4h0a3.49,3.49,0,0,0-6.58,0h0a1.06,1.06,0,0,1-.24.41l-23.88,25.39a1.11,1.11,0,0,1-.86.36l-34.84-.7a1.29,1.29,0,0,1-.47-.11,3.48,3.48,0,0,0-4.62,4.67,1.07,1.07,0,0,1,.11.46q.54,17.43,1.07,34.84a1.14,1.14,0,0,1-.35.86l-25.14,24.14a1.15,1.15,0,0,1-.4.26h0a3.49,3.49,0,0,0,0,6.57h0a1.16,1.16,0,0,1,.41.25l25.71,24.1a1.18,1.18,0,0,1,.37.88q-.52,17.29-1,34.6a1.41,1.41,0,0,1-.11.46h0a3.49,3.49,0,0,0,4.68,4.63h0a1.21,1.21,0,0,1,.46-.12l34.84-1.07a1.15,1.15,0,0,1,.86.35l24.14,25.14a1.16,1.16,0,0,1,.25.41h0a3.49,3.49,0,0,0,6.58,0h0a1,1,0,0,1,.24-.4l23.88-25.39a1.16,1.16,0,0,1,.86-.37l34.84.71a1.08,1.08,0,0,1,.47.11h0a3.49,3.49,0,0,0,4.62-4.67h0a1.29,1.29,0,0,1-.11-.47q-.54-17.42-1.07-34.83a1.18,1.18,0,0,1,.35-.87l25.14-24.14a1.22,1.22,0,0,1,.41-.25,3.55,3.55,0,0,0,3.38-4A3.49,3.49,0,0,0,1909.12,91.92Z"/><path class="a" d="M199.12,281.92a1.33,1.33,0,0,1-.41-.25L173.32,257.8a1.18,1.18,0,0,1-.36-.86q.36-17.43.71-34.85a1,1,0,0,1,.11-.46h0A3.49,3.49,0,0,0,169.1,217h0a1,1,0,0,1-.46.11l-34.84,1.08a1.14,1.14,0,0,1-.86-.36L108.8,192.69a1,1,0,0,1-.25-.4h0a3.49,3.49,0,0,0-6.58,0h0a1.06,1.06,0,0,1-.24.41L77.85,218.12a1.11,1.11,0,0,1-.86.36l-34.84-.7a1.29,1.29,0,0,1-.47-.11,3.48,3.48,0,0,0-4.62,4.67,1.07,1.07,0,0,1,.11.46q.54,17.43,1.07,34.84a1.14,1.14,0,0,1-.35.86L12.75,282.64a1.15,1.15,0,0,1-.4.26h0a3.49,3.49,0,0,0,0,6.57h0a1.16,1.16,0,0,1,.41.25l25.71,24.1a1.18,1.18,0,0,1,.37.88q-.52,17.3-1,34.6a1.41,1.41,0,0,1-.11.46h0a3.49,3.49,0,0,0,4.68,4.63h0a1.21,1.21,0,0,1,.46-.12L77.7,353.2a1.15,1.15,0,0,1,.86.35l24.14,25.14a1.16,1.16,0,0,1,.25.41h0a3.49,3.49,0,0,0,6.58,0h0a1,1,0,0,1,.24-.4l23.88-25.39a1.16,1.16,0,0,1,.86-.37l34.84.71a1.08,1.08,0,0,1,.47.11h0a3.49,3.49,0,0,0,4.62-4.67h0a1.29,1.29,0,0,1-.11-.47q-.54-17.41-1.07-34.83a1.18,1.18,0,0,1,.35-.87l25.14-24.14a1.22,1.22,0,0,1,.41-.25,3.55,3.55,0,0,0,3.38-4A3.49,3.49,0,0,0,199.12,281.92Z"/><path class="a" d="M389.12,281.92a1.33,1.33,0,0,1-.41-.25L363.32,257.8a1.18,1.18,0,0,1-.36-.86q.36-17.43.71-34.85a1,1,0,0,1,.11-.46h0A3.49,3.49,0,0,0,359.1,217h0a1,1,0,0,1-.46.11l-34.84,1.08a1.14,1.14,0,0,1-.86-.36L298.8,192.69a1,1,0,0,1-.25-.4h0a3.49,3.49,0,0,0-6.58,0h0a1.06,1.06,0,0,1-.24.41l-23.88,25.39a1.11,1.11,0,0,1-.86.36l-34.84-.7a1.29,1.29,0,0,1-.47-.11,3.48,3.48,0,0,0-4.62,4.67,1.07,1.07,0,0,1,.11.46q.54,17.43,1.07,34.84a1.14,1.14,0,0,1-.35.86l-25.14,24.14a1.15,1.15,0,0,1-.4.26h0a3.49,3.49,0,0,0,0,6.57h0a1.16,1.16,0,0,1,.41.25l25.71,24.1a1.18,1.18,0,0,1,.37.88q-.52,17.3-1,34.6a1.41,1.41,0,0,1-.11.46h0a3.49,3.49,0,0,0,4.68,4.63h0a1.21,1.21,0,0,1,.46-.12l34.84-1.07a1.15,1.15,0,0,1,.86.35l24.14,25.14a1.16,1.16,0,0,1,.25.41h0a3.49,3.49,0,0,0,6.58,0h0a1,1,0,0,1,.24-.4l23.88-25.39a1.16,1.16,0,0,1,.86-.37l34.84.71a1.08,1.08,0,0,1,.47.11h0a3.49,3.49,0,0,0,4.62-4.67h0a1.29,1.29,0,0,1-.11-.47q-.54-17.41-1.07-34.83a1.18,1.18,0,0,1,.35-.87l25.14-24.14a1.22,1.22,0,0,1,.41-.25,3.55,3.55,0,0,0,3.38-4A3.49,3.49,0,0,0,389.12,281.92Z"/><path class="a" d="M579.12,281.92a1.33,1.33,0,0,1-.41-.25L553.32,257.8a1.18,1.18,0,0,1-.36-.86q.36-17.43.71-34.85a1,1,0,0,1,.11-.46h0A3.49,3.49,0,0,0,549.1,217h0a1,1,0,0,1-.46.11l-34.84,1.08a1.14,1.14,0,0,1-.86-.36L488.8,192.69a1,1,0,0,1-.25-.4h0a3.49,3.49,0,0,0-6.58,0h0a1.06,1.06,0,0,1-.24.41l-23.88,25.39a1.11,1.11,0,0,1-.86.36l-34.84-.7a1.29,1.29,0,0,1-.47-.11,3.48,3.48,0,0,0-4.62,4.67,1.07,1.07,0,0,1,.11.46q.54,17.43,1.07,34.84a1.14,1.14,0,0,1-.35.86l-25.14,24.14a1.15,1.15,0,0,1-.4.26h0a3.49,3.49,0,0,0,0,6.57h0a1.16,1.16,0,0,1,.41.25l25.71,24.1a1.18,1.18,0,0,1,.37.88q-.53,17.3-1,34.6a1.41,1.41,0,0,1-.11.46h0a3.49,3.49,0,0,0,4.68,4.63h0a1.21,1.21,0,0,1,.46-.12l34.84-1.07a1.15,1.15,0,0,1,.86.35l24.14,25.14a1.16,1.16,0,0,1,.25.41h0a3.49,3.49,0,0,0,6.58,0h0a1,1,0,0,1,.24-.4l23.88-25.39a1.16,1.16,0,0,1,.86-.37l34.84.71a1.08,1.08,0,0,1,.47.11h0a3.49,3.49,0,0,0,4.62-4.67h0a1.29,1.29,0,0,1-.11-.47q-.54-17.41-1.07-34.83a1.18,1.18,0,0,1,.35-.87l25.14-24.14a1.22,1.22,0,0,1,.41-.25,3.55,3.55,0,0,0,3.38-4A3.49,3.49,0,0,0,579.12,281.92Z"/><path class="a" d="M586,292.72l-3.2-3a1.16,1.16,0,0,0-.41-.25,3.43,3.43,0,0,1-1.78-1.37,3.58,3.58,0,0,1-.56-1.92,3.44,3.44,0,0,1,1.79-3.05,3.55,3.55,0,0,1,.52-.23,1.15,1.15,0,0,0,.4-.26l25.14-24.14a1.14,1.14,0,0,0,.35-.86q-.53-17.41-1.07-34.84a1.07,1.07,0,0,0-.11-.46,3.48,3.48,0,0,1,4.62-4.67,1.29,1.29,0,0,0,.47.11l34.84.7a1.11,1.11,0,0,0,.86-.36l23.88-25.39a1.06,1.06,0,0,0,.24-.41,3.41,3.41,0,0,1,1.75-2,3.65,3.65,0,0,1,1.55-.35,3.37,3.37,0,0,1,2.5,1.07,1.45,1.45,0,0,1,.32.39"/><path class="a" d="M1243.72,190.33a3.65,3.65,0,0,1,1.55-.35,3.5,3.5,0,0,1,1.28.24h0a3.16,3.16,0,0,1,1.21.83,1.87,1.87,0,0,1,.38.47h0a2.9,2.9,0,0,1,.4.76,1,1,0,0,0,.25.4l24.14,25.14a1.14,1.14,0,0,0,.86.36l4.24-.13h0l30.59-.95a1,1,0,0,0,.46-.11,3.5,3.5,0,0,1,5,3.13,3.44,3.44,0,0,1-.34,1.5,1,1,0,0,0-.11.46L1313,256c0,.31,0,.62,0,.93a1.18,1.18,0,0,0,.36.86l4.56,4.29s0,0,0,0q10.42,9.78,20.82,19.57a1.33,1.33,0,0,0,.41.25,3.78,3.78,0,0,1,2.71,1.21,2.94,2.94,0,0,1,.71,1.39,3.42,3.42,0,0,1-1.94,3.58,3.93,3.93,0,0,1-1.44.39,1.22,1.22,0,0,0-.41.25l-.77.74"/><path class="a" d="M1529.12,281.92a1.33,1.33,0,0,1-.41-.25l-25.39-23.87a1.18,1.18,0,0,1-.36-.86q.36-17.43.71-34.85a1,1,0,0,1,.11-.46h0a3.49,3.49,0,0,0-4.68-4.63h0a1,1,0,0,1-.46.11l-34.84,1.08a1.14,1.14,0,0,1-.86-.36l-24.14-25.14a1,1,0,0,1-.25-.4h0a3.49,3.49,0,0,0-6.58,0h0a1.06,1.06,0,0,1-.24.41l-23.88,25.39a1.11,1.11,0,0,1-.86.36l-34.84-.7a1.29,1.29,0,0,1-.47-.11,3.48,3.48,0,0,0-4.62,4.67,1.07,1.07,0,0,1,.11.46q.54,17.43,1.07,34.84a1.14,1.14,0,0,1-.35.86l-25.14,24.14a1.15,1.15,0,0,1-.4.26h0a3.49,3.49,0,0,0,0,6.57h0a1.16,1.16,0,0,1,.41.25l25.71,24.1a1.18,1.18,0,0,1,.37.88q-.52,17.3-1,34.6a1.41,1.41,0,0,1-.11.46h0a3.49,3.49,0,0,0,4.68,4.63h0a1.21,1.21,0,0,1,.46-.12l34.84-1.07a1.15,1.15,0,0,1,.86.35l24.14,25.14a1.16,1.16,0,0,1,.25.41h0a3.49,3.49,0,0,0,6.58,0h0a1,1,0,0,1,.24-.4l23.88-25.39a1.16,1.16,0,0,1,.86-.37l34.84.71a1.08,1.08,0,0,1,.47.11h0a3.49,3.49,0,0,0,4.62-4.67h0a1.29,1.29,0,0,1-.11-.47q-.54-17.41-1.07-34.83a1.18,1.18,0,0,1,.35-.87l25.14-24.14a1.22,1.22,0,0,1,.41-.25,3.55,3.55,0,0,0,3.38-4A3.49,3.49,0,0,0,1529.12,281.92Z"/><path class="a" d="M1719.12,281.92a1.33,1.33,0,0,1-.41-.25l-25.39-23.87a1.18,1.18,0,0,1-.36-.86q.36-17.43.71-34.85a1,1,0,0,1,.11-.46h0a3.49,3.49,0,0,0-4.68-4.63h0a1,1,0,0,1-.46.11l-34.84,1.08a1.14,1.14,0,0,1-.86-.36l-24.14-25.14a1,1,0,0,1-.25-.4h0a3.49,3.49,0,0,0-6.58,0h0a1.06,1.06,0,0,1-.24.41l-23.88,25.39a1.11,1.11,0,0,1-.86.36l-34.84-.7a1.29,1.29,0,0,1-.47-.11,3.48,3.48,0,0,0-4.62,4.67,1.07,1.07,0,0,1,.11.46q.54,17.43,1.07,34.84a1.14,1.14,0,0,1-.35.86l-25.14,24.14a1.15,1.15,0,0,1-.4.26h0a3.49,3.49,0,0,0,0,6.57h0a1.16,1.16,0,0,1,.41.25l25.71,24.1a1.18,1.18,0,0,1,.37.88q-.52,17.3-1,34.6a1.41,1.41,0,0,1-.11.46h0a3.49,3.49,0,0,0,4.68,4.63h0a1.21,1.21,0,0,1,.46-.12l34.84-1.07a1.15,1.15,0,0,1,.86.35l24.14,25.14a1.16,1.16,0,0,1,.25.41h0a3.49,3.49,0,0,0,6.58,0h0a1,1,0,0,1,.24-.4l23.88-25.39a1.16,1.16,0,0,1,.86-.37l34.84.71a1.08,1.08,0,0,1,.47.11h0a3.49,3.49,0,0,0,4.62-4.67h0a1.29,1.29,0,0,1-.11-.47q-.54-17.41-1.07-34.83a1.18,1.18,0,0,1,.35-.87l25.14-24.14a1.22,1.22,0,0,1,.41-.25,3.55,3.55,0,0,0,3.38-4A3.49,3.49,0,0,0,1719.12,281.92Z"/><path class="a" d="M1909.12,281.92a1.33,1.33,0,0,1-.41-.25l-25.39-23.87a1.18,1.18,0,0,1-.36-.86q.36-17.43.71-34.85a1,1,0,0,1,.11-.46h0a3.49,3.49,0,0,0-4.68-4.63h0a1,1,0,0,1-.46.11l-34.84,1.08a1.14,1.14,0,0,1-.86-.36l-24.14-25.14a1,1,0,0,1-.25-.4h0a3.49,3.49,0,0,0-6.58,0h0a1.06,1.06,0,0,1-.24.41l-23.88,25.39a1.11,1.11,0,0,1-.86.36l-34.84-.7a1.29,1.29,0,0,1-.47-.11,3.48,3.48,0,0,0-4.62,4.67,1.07,1.07,0,0,1,.11.46q.54,17.43,1.07,34.84a1.14,1.14,0,0,1-.35.86l-25.14,24.14a1.15,1.15,0,0,1-.4.26h0a3.49,3.49,0,0,0,0,6.57h0a1.16,1.16,0,0,1,.41.25l25.71,24.1a1.18,1.18,0,0,1,.37.88q-.52,17.3-1,34.6a1.41,1.41,0,0,1-.11.46h0a3.49,3.49,0,0,0,4.68,4.63h0a1.21,1.21,0,0,1,.46-.12l34.84-1.07a1.15,1.15,0,0,1,.86.35l24.14,25.14a1.16,1.16,0,0,1,.25.41h0a3.49,3.49,0,0,0,6.58,0h0a1,1,0,0,1,.24-.4l23.88-25.39a1.16,1.16,0,0,1,.86-.37l34.84.71a1.08,1.08,0,0,1,.47.11h0a3.49,3.49,0,0,0,4.62-4.67h0a1.29,1.29,0,0,1-.11-.47q-.54-17.41-1.07-34.83a1.18,1.18,0,0,1,.35-.87l25.14-24.14a1.22,1.22,0,0,1,.41-.25,3.55,3.55,0,0,0,3.38-4A3.49,3.49,0,0,0,1909.12,281.92Z"/><path class="a" d="M199.12,471.92a1.33,1.33,0,0,1-.41-.25L173.32,447.8a1.18,1.18,0,0,1-.36-.86q.36-17.43.71-34.85a1,1,0,0,1,.11-.46h0A3.49,3.49,0,0,0,169.1,407h0a1,1,0,0,1-.46.11l-34.84,1.08a1.14,1.14,0,0,1-.86-.36L108.8,382.69a1,1,0,0,1-.25-.4h0a3.49,3.49,0,0,0-6.58,0h0a1.06,1.06,0,0,1-.24.41L77.85,408.12a1.11,1.11,0,0,1-.86.36l-34.84-.7a1.29,1.29,0,0,1-.47-.11,3.48,3.48,0,0,0-4.62,4.67,1.07,1.07,0,0,1,.11.46q.54,17.43,1.07,34.84a1.14,1.14,0,0,1-.35.86L12.75,472.64a1.15,1.15,0,0,1-.4.26h0a3.49,3.49,0,0,0,0,6.57h0a1.16,1.16,0,0,1,.41.25l25.71,24.1a1.18,1.18,0,0,1,.37.88q-.52,17.3-1,34.6a1.41,1.41,0,0,1-.11.46h0a3.49,3.49,0,0,0,4.68,4.63h0a1.21,1.21,0,0,1,.46-.12L77.7,543.2a1.15,1.15,0,0,1,.86.35l24.14,25.14a1.16,1.16,0,0,1,.25.41h0a3.49,3.49,0,0,0,6.58,0h0a1,1,0,0,1,.24-.4l23.88-25.39a1.16,1.16,0,0,1,.86-.37l34.84.71a1.08,1.08,0,0,1,.47.11h0a3.49,3.49,0,0,0,4.62-4.67h0a1.29,1.29,0,0,1-.11-.47q-.54-17.42-1.07-34.83a1.18,1.18,0,0,1,.35-.87l25.14-24.14a1.22,1.22,0,0,1,.41-.25,3.55,3.55,0,0,0,3.38-4A3.49,3.49,0,0,0,199.12,471.92Z"/><path class="a" d="M389.12,471.92a1.33,1.33,0,0,1-.41-.25L363.32,447.8a1.18,1.18,0,0,1-.36-.86q.36-17.43.71-34.85a1,1,0,0,1,.11-.46h0A3.49,3.49,0,0,0,359.1,407h0a1,1,0,0,1-.46.11l-34.84,1.08a1.14,1.14,0,0,1-.86-.36L298.8,382.69a1,1,0,0,1-.25-.4h0a3.49,3.49,0,0,0-6.58,0h0a1.06,1.06,0,0,1-.24.41l-23.88,25.39a1.11,1.11,0,0,1-.86.36l-34.84-.7a1.29,1.29,0,0,1-.47-.11,3.48,3.48,0,0,0-4.62,4.67,1.07,1.07,0,0,1,.11.46q.54,17.43,1.07,34.84a1.14,1.14,0,0,1-.35.86l-25.14,24.14a1.15,1.15,0,0,1-.4.26h0a3.49,3.49,0,0,0,0,6.57h0a1.16,1.16,0,0,1,.41.25l25.71,24.1a1.18,1.18,0,0,1,.37.88q-.52,17.3-1,34.6a1.41,1.41,0,0,1-.11.46h0a3.49,3.49,0,0,0,4.68,4.63h0a1.21,1.21,0,0,1,.46-.12l34.84-1.07a1.15,1.15,0,0,1,.86.35l24.14,25.14a1.16,1.16,0,0,1,.25.41h0a3.49,3.49,0,0,0,6.58,0h0a1,1,0,0,1,.24-.4l23.88-25.39a1.16,1.16,0,0,1,.86-.37l34.84.71a1.08,1.08,0,0,1,.47.11h0a3.49,3.49,0,0,0,4.62-4.67h0a1.29,1.29,0,0,1-.11-.47q-.54-17.42-1.07-34.83a1.18,1.18,0,0,1,.35-.87l25.14-24.14a1.22,1.22,0,0,1,.41-.25,3.55,3.55,0,0,0,3.38-4A3.49,3.49,0,0,0,389.12,471.92Z"/><path class="a" d="M510.59,546.52l-20.82,22.14a1,1,0,0,0-.24.4,3.43,3.43,0,0,1-1.76,2,3.58,3.58,0,0,1-1.54.35,3.5,3.5,0,0,1-3.28-2.3,1.16,1.16,0,0,0-.25-.41l-24.14-25.14a1.15,1.15,0,0,0-.86-.35l-34.84,1.07a1.21,1.21,0,0,0-.46.12,3.49,3.49,0,0,1-4.68-4.63h0a1.41,1.41,0,0,0,.11-.46q.51-17.29,1-34.6a1.18,1.18,0,0,0-.37-.88l-25.71-24.1a1.16,1.16,0,0,0-.41-.25,3.43,3.43,0,0,1-1.78-1.37,3.58,3.58,0,0,1-.56-1.92,3.44,3.44,0,0,1,1.79-3.05,3.55,3.55,0,0,1,.52-.23,1.15,1.15,0,0,0,.4-.26l25.14-24.14a1.14,1.14,0,0,0,.35-.86q-.53-17.42-1.07-34.84a1.07,1.07,0,0,0-.11-.46,3.48,3.48,0,0,1,4.62-4.67,1.29,1.29,0,0,0,.47.11l34.84.7a1.11,1.11,0,0,0,.86-.36l23.88-25.39a1.06,1.06,0,0,0,.24-.41,3.41,3.41,0,0,1,1.75-2,3.65,3.65,0,0,1,1.55-.35,3.37,3.37,0,0,1,2.5,1.07,3.28,3.28,0,0,1,.78,1.24,1,1,0,0,0,.25.4l24.14,25.14a1.14,1.14,0,0,0,.86.36l17.34-.54"/><path class="a" d="M1415.49,550.77l17.21,17.92a1.16,1.16,0,0,1,.25.41,3.5,3.5,0,0,0,3.28,2.3,3.58,3.58,0,0,0,1.54-.35,3.43,3.43,0,0,0,1.76-2,1,1,0,0,1,.24-.4l23.88-25.39a1.16,1.16,0,0,1,.86-.37l34.84.71a1.08,1.08,0,0,1,.47.11,3.44,3.44,0,0,0,1.5.34,3.49,3.49,0,0,0,3.12-5,1.29,1.29,0,0,1-.11-.47q-.54-17.42-1.07-34.83a1.18,1.18,0,0,1,.35-.87l25.14-24.14a1.22,1.22,0,0,1,.41-.25,3.93,3.93,0,0,0,1.44-.39,3.42,3.42,0,0,0,1.94-3.58,2.94,2.94,0,0,0-.71-1.39,3.78,3.78,0,0,0-2.71-1.21,1.33,1.33,0,0,1-.41-.25q-12.69-11.94-25.39-23.87a1.18,1.18,0,0,1-.36-.86q.36-17.43.71-34.85a1,1,0,0,1,.11-.46,3.44,3.44,0,0,0,.34-1.5,3.5,3.5,0,0,0-5-3.13,1,1,0,0,1-.46.11l-34.84,1.08a1.14,1.14,0,0,1-.86-.36l-24.14-25.14a1,1,0,0,1-.25-.4,3.28,3.28,0,0,0-.78-1.24,3.37,3.37,0,0,0-2.5-1.07,3.65,3.65,0,0,0-1.55.35,3.41,3.41,0,0,0-1.75,2,1.06,1.06,0,0,1-.24.41l-23.88,25.39a1.11,1.11,0,0,1-.86.36l-11.8-.24"/><path class="a" d="M1719.12,471.92a1.33,1.33,0,0,1-.41-.25l-25.39-23.87a1.18,1.18,0,0,1-.36-.86q.36-17.43.71-34.85a1,1,0,0,1,.11-.46h0a3.49,3.49,0,0,0-4.68-4.63h0a1,1,0,0,1-.46.11l-34.84,1.08a1.14,1.14,0,0,1-.86-.36l-24.14-25.14a1,1,0,0,1-.25-.4h0a3.49,3.49,0,0,0-6.58,0h0a1.06,1.06,0,0,1-.24.41l-23.88,25.39a1.11,1.11,0,0,1-.86.36l-34.84-.7a1.29,1.29,0,0,1-.47-.11,3.48,3.48,0,0,0-4.62,4.67,1.07,1.07,0,0,1,.11.46q.54,17.43,1.07,34.84a1.14,1.14,0,0,1-.35.86l-25.14,24.14a1.15,1.15,0,0,1-.4.26h0a3.49,3.49,0,0,0,0,6.57h0a1.16,1.16,0,0,1,.41.25l25.71,24.1a1.18,1.18,0,0,1,.37.88q-.52,17.3-1,34.6a1.41,1.41,0,0,1-.11.46h0a3.49,3.49,0,0,0,4.68,4.63h0a1.21,1.21,0,0,1,.46-.12l34.84-1.07a1.15,1.15,0,0,1,.86.35l24.14,25.14a1.16,1.16,0,0,1,.25.41h0a3.49,3.49,0,0,0,6.58,0h0a1,1,0,0,1,.24-.4l23.88-25.39a1.16,1.16,0,0,1,.86-.37l34.84.71a1.08,1.08,0,0,1,.47.11h0a3.49,3.49,0,0,0,4.62-4.67h0a1.29,1.29,0,0,1-.11-.47q-.54-17.42-1.07-34.83a1.18,1.18,0,0,1,.35-.87l25.14-24.14a1.22,1.22,0,0,1,.41-.25,3.55,3.55,0,0,0,3.38-4A3.49,3.49,0,0,0,1719.12,471.92Z"/><path class="a" d="M1909.12,471.92a1.33,1.33,0,0,1-.41-.25l-25.39-23.87a1.18,1.18,0,0,1-.36-.86q.36-17.43.71-34.85a1,1,0,0,1,.11-.46h0a3.49,3.49,0,0,0-4.68-4.63h0a1,1,0,0,1-.46.11l-34.84,1.08a1.14,1.14,0,0,1-.86-.36l-24.14-25.14a1,1,0,0,1-.25-.4h0a3.49,3.49,0,0,0-6.58,0h0a1.06,1.06,0,0,1-.24.41l-23.88,25.39a1.11,1.11,0,0,1-.86.36l-34.84-.7a1.29,1.29,0,0,1-.47-.11,3.48,3.48,0,0,0-4.62,4.67,1.07,1.07,0,0,1,.11.46q.54,17.43,1.07,34.84a1.14,1.14,0,0,1-.35.86l-25.14,24.14a1.15,1.15,0,0,1-.4.26h0a3.49,3.49,0,0,0,0,6.57h0a1.16,1.16,0,0,1,.41.25l25.71,24.1a1.18,1.18,0,0,1,.37.88q-.52,17.3-1,34.6a1.41,1.41,0,0,1-.11.46h0a3.49,3.49,0,0,0,4.68,4.63h0a1.21,1.21,0,0,1,.46-.12l34.84-1.07a1.15,1.15,0,0,1,.86.35l24.14,25.14a1.16,1.16,0,0,1,.25.41h0a3.49,3.49,0,0,0,6.58,0h0a1,1,0,0,1,.24-.4l23.88-25.39a1.16,1.16,0,0,1,.86-.37l34.84.71a1.08,1.08,0,0,1,.47.11h0a3.49,3.49,0,0,0,4.62-4.67h0a1.29,1.29,0,0,1-.11-.47q-.54-17.42-1.07-34.83a1.18,1.18,0,0,1,.35-.87l25.14-24.14a1.22,1.22,0,0,1,.41-.25,3.55,3.55,0,0,0,3.38-4A3.49,3.49,0,0,0,1909.12,471.92Z"/><path class="a" d="M199.12,661.92a1.33,1.33,0,0,1-.41-.25L173.32,637.8a1.18,1.18,0,0,1-.36-.86q.36-17.43.71-34.85a1,1,0,0,1,.11-.46h0A3.49,3.49,0,0,0,169.1,597h0a1,1,0,0,1-.46.11l-34.84,1.08a1.14,1.14,0,0,1-.86-.36L108.8,572.69a1,1,0,0,1-.25-.4h0a3.49,3.49,0,0,0-6.58,0h0a1.06,1.06,0,0,1-.24.41L77.85,598.12a1.11,1.11,0,0,1-.86.36l-34.84-.7a1.29,1.29,0,0,1-.47-.11,3.48,3.48,0,0,0-4.62,4.67,1.07,1.07,0,0,1,.11.46q.54,17.43,1.07,34.84a1.14,1.14,0,0,1-.35.86L12.75,662.64a1.15,1.15,0,0,1-.4.26h0a3.49,3.49,0,0,0,0,6.57h0a1.16,1.16,0,0,1,.41.25l25.71,24.1a1.18,1.18,0,0,1,.37.88q-.52,17.29-1,34.6a1.41,1.41,0,0,1-.11.46h0a3.49,3.49,0,0,0,4.68,4.63h0a1.21,1.21,0,0,1,.46-.12L77.7,733.2a1.15,1.15,0,0,1,.86.35l24.14,25.14a1.16,1.16,0,0,1,.25.41h0a3.49,3.49,0,0,0,6.58,0h0a1,1,0,0,1,.24-.4l23.88-25.39a1.16,1.16,0,0,1,.86-.37l34.84.71a1.08,1.08,0,0,1,.47.11h0a3.49,3.49,0,0,0,4.62-4.67h0a1.29,1.29,0,0,1-.11-.47q-.54-17.42-1.07-34.83a1.18,1.18,0,0,1,.35-.87l25.14-24.14a1.22,1.22,0,0,1,.41-.25,3.55,3.55,0,0,0,3.38-4A3.49,3.49,0,0,0,199.12,661.92Z"/><path class="a" d="M389.12,661.92a1.33,1.33,0,0,1-.41-.25L363.32,637.8a1.18,1.18,0,0,1-.36-.86q.36-17.43.71-34.85a1,1,0,0,1,.11-.46h0A3.49,3.49,0,0,0,359.1,597h0a1,1,0,0,1-.46.11l-34.84,1.08a1.14,1.14,0,0,1-.86-.36L298.8,572.69a1,1,0,0,1-.25-.4h0a3.49,3.49,0,0,0-6.58,0h0a1.06,1.06,0,0,1-.24.41l-23.88,25.39a1.11,1.11,0,0,1-.86.36l-34.84-.7a1.29,1.29,0,0,1-.47-.11,3.48,3.48,0,0,0-4.62,4.67,1.07,1.07,0,0,1,.11.46q.54,17.43,1.07,34.84a1.14,1.14,0,0,1-.35.86l-25.14,24.14a1.15,1.15,0,0,1-.4.26h0a3.49,3.49,0,0,0,0,6.57h0a1.16,1.16,0,0,1,.41.25l25.71,24.1a1.18,1.18,0,0,1,.37.88q-.52,17.29-1,34.6a1.41,1.41,0,0,1-.11.46h0a3.49,3.49,0,0,0,4.68,4.63h0a1.21,1.21,0,0,1,.46-.12l34.84-1.07a1.15,1.15,0,0,1,.86.35l24.14,25.14a1.16,1.16,0,0,1,.25.41h0a3.49,3.49,0,0,0,6.58,0h0a1,1,0,0,1,.24-.4l23.88-25.39a1.16,1.16,0,0,1,.86-.37l34.84.71a1.08,1.08,0,0,1,.47.11h0a3.49,3.49,0,0,0,4.62-4.67h0a1.29,1.29,0,0,1-.11-.47q-.54-17.42-1.07-34.83a1.18,1.18,0,0,1,.35-.87l25.14-24.14a1.22,1.22,0,0,1,.41-.25,3.55,3.55,0,0,0,3.38-4A3.49,3.49,0,0,0,389.12,661.92Z"/><path class="a" d="M513.92,598.19h-.12a1.14,1.14,0,0,1-.86-.36L488.8,572.69a1,1,0,0,1-.25-.4,3.28,3.28,0,0,0-.78-1.24,3.37,3.37,0,0,0-2.5-1.07,3.65,3.65,0,0,0-1.55.35,3.41,3.41,0,0,0-1.75,2,1.06,1.06,0,0,1-.24.41l-23.88,25.39a1.11,1.11,0,0,1-.86.36l-34.84-.7a1.29,1.29,0,0,1-.47-.11,3.48,3.48,0,0,0-4.62,4.67,1.07,1.07,0,0,1,.11.46q.54,17.43,1.07,34.84a1.14,1.14,0,0,1-.35.86l-25.14,24.14a1.15,1.15,0,0,1-.4.26,3.55,3.55,0,0,0-.52.23,3.44,3.44,0,0,0-1.79,3,3.58,3.58,0,0,0,.56,1.92,3.43,3.43,0,0,0,1.78,1.37,1.16,1.16,0,0,1,.41.25l25.71,24.1a1.18,1.18,0,0,1,.37.88q-.53,17.29-1,34.6a1.41,1.41,0,0,1-.11.46h0a3.49,3.49,0,0,0,4.68,4.63,1.21,1.21,0,0,1,.46-.12l34.84-1.07a1.15,1.15,0,0,1,.86.35l24.14,25.14a1.16,1.16,0,0,1,.25.41,3.5,3.5,0,0,0,3.28,2.3,3.58,3.58,0,0,0,1.54-.35,3.43,3.43,0,0,0,1.76-2,1,1,0,0,1,.24-.4l23.88-25.39a1.16,1.16,0,0,1,.86-.37l34.84.71a1.08,1.08,0,0,1,.47.11,3.44,3.44,0,0,0,1.5.34,3.39,3.39,0,0,0,1.34-.28"/><path class="a" d="M1373.25,734.26l34.45-1.06a1.15,1.15,0,0,1,.86.35l24.14,25.14a1.16,1.16,0,0,1,.25.41,3.5,3.5,0,0,0,3.28,2.3,3.58,3.58,0,0,0,1.54-.35,3.43,3.43,0,0,0,1.76-2,1,1,0,0,1,.24-.4l23.88-25.39a1.16,1.16,0,0,1,.86-.37l34.84.71a1.08,1.08,0,0,1,.47.11,3.44,3.44,0,0,0,1.5.34,3.49,3.49,0,0,0,3.12-5,1.29,1.29,0,0,1-.11-.47q-.54-17.42-1.07-34.83a1.18,1.18,0,0,1,.35-.87l25.14-24.14a1.22,1.22,0,0,1,.41-.25,3.93,3.93,0,0,0,1.44-.39,3.42,3.42,0,0,0,1.94-3.58,2.94,2.94,0,0,0-.71-1.39,3.78,3.78,0,0,0-2.71-1.21,1.33,1.33,0,0,1-.41-.25q-12.69-11.94-25.39-23.87a1.18,1.18,0,0,1-.36-.86q.36-17.43.71-34.85a1,1,0,0,1,.11-.46,3.44,3.44,0,0,0,.34-1.5,3.5,3.5,0,0,0-5-3.13,1,1,0,0,1-.46.11l-34.84,1.08a1.14,1.14,0,0,1-.86-.36l-24.14-25.14a1,1,0,0,1-.25-.4,3.28,3.28,0,0,0-.78-1.24,3.37,3.37,0,0,0-2.5-1.07,3.65,3.65,0,0,0-1.55.35,3.41,3.41,0,0,0-1.75,2,1.06,1.06,0,0,1-.24.41l-18.89,20.08"/><path class="a" d="M1719.12,661.92a1.33,1.33,0,0,1-.41-.25l-25.39-23.87a1.18,1.18,0,0,1-.36-.86q.36-17.43.71-34.85a1,1,0,0,1,.11-.46h0a3.49,3.49,0,0,0-4.68-4.63h0a1,1,0,0,1-.46.11l-34.84,1.08a1.14,1.14,0,0,1-.86-.36l-24.14-25.14a1,1,0,0,1-.25-.4h0a3.49,3.49,0,0,0-6.58,0h0a1.06,1.06,0,0,1-.24.41l-23.88,25.39a1.11,1.11,0,0,1-.86.36l-34.84-.7a1.29,1.29,0,0,1-.47-.11,3.48,3.48,0,0,0-4.62,4.67,1.07,1.07,0,0,1,.11.46q.54,17.43,1.07,34.84a1.14,1.14,0,0,1-.35.86l-25.14,24.14a1.15,1.15,0,0,1-.4.26h0a3.49,3.49,0,0,0,0,6.57h0a1.16,1.16,0,0,1,.41.25l25.71,24.1a1.18,1.18,0,0,1,.37.88q-.52,17.29-1,34.6a1.41,1.41,0,0,1-.11.46h0a3.49,3.49,0,0,0,4.68,4.63h0a1.21,1.21,0,0,1,.46-.12l34.84-1.07a1.15,1.15,0,0,1,.86.35l24.14,25.14a1.16,1.16,0,0,1,.25.41h0a3.49,3.49,0,0,0,6.58,0h0a1,1,0,0,1,.24-.4l23.88-25.39a1.16,1.16,0,0,1,.86-.37l34.84.71a1.08,1.08,0,0,1,.47.11h0a3.49,3.49,0,0,0,4.62-4.67h0a1.29,1.29,0,0,1-.11-.47q-.54-17.42-1.07-34.83a1.18,1.18,0,0,1,.35-.87l25.14-24.14a1.22,1.22,0,0,1,.41-.25,3.55,3.55,0,0,0,3.38-4A3.49,3.49,0,0,0,1719.12,661.92Z"/><path class="a" d="M1909.12,661.92a1.33,1.33,0,0,1-.41-.25l-25.39-23.87a1.18,1.18,0,0,1-.36-.86q.36-17.43.71-34.85a1,1,0,0,1,.11-.46h0a3.49,3.49,0,0,0-4.68-4.63h0a1,1,0,0,1-.46.11l-34.84,1.08a1.14,1.14,0,0,1-.86-.36l-24.14-25.14a1,1,0,0,1-.25-.4h0a3.49,3.49,0,0,0-6.58,0h0a1.06,1.06,0,0,1-.24.41l-23.88,25.39a1.11,1.11,0,0,1-.86.36l-34.84-.7a1.29,1.29,0,0,1-.47-.11,3.48,3.48,0,0,0-4.62,4.67,1.07,1.07,0,0,1,.11.46q.54,17.43,1.07,34.84a1.14,1.14,0,0,1-.35.86l-25.14,24.14a1.15,1.15,0,0,1-.4.26h0a3.49,3.49,0,0,0,0,6.57h0a1.16,1.16,0,0,1,.41.25l25.71,24.1a1.18,1.18,0,0,1,.37.88q-.52,17.29-1,34.6a1.41,1.41,0,0,1-.11.46h0a3.49,3.49,0,0,0,4.68,4.63h0a1.21,1.21,0,0,1,.46-.12l34.84-1.07a1.15,1.15,0,0,1,.86.35l24.14,25.14a1.16,1.16,0,0,1,.25.41h0a3.49,3.49,0,0,0,6.58,0h0a1,1,0,0,1,.24-.4l23.88-25.39a1.16,1.16,0,0,1,.86-.37l34.84.71a1.08,1.08,0,0,1,.47.11h0a3.49,3.49,0,0,0,4.62-4.67h0a1.29,1.29,0,0,1-.11-.47q-.54-17.42-1.07-34.83a1.18,1.18,0,0,1,.35-.87l25.14-24.14a1.22,1.22,0,0,1,.41-.25,3.55,3.55,0,0,0,3.38-4A3.49,3.49,0,0,0,1909.12,661.92Z"/><path class="a" d="M199.12,851.92a1.33,1.33,0,0,1-.41-.25L173.32,827.8a1.18,1.18,0,0,1-.36-.86q.36-17.43.71-34.85a1,1,0,0,1,.11-.46h0A3.49,3.49,0,0,0,169.1,787h0a1,1,0,0,1-.46.11l-34.84,1.08a1.14,1.14,0,0,1-.86-.36L108.8,762.69a1,1,0,0,1-.25-.4h0a3.49,3.49,0,0,0-6.58,0h0a1.06,1.06,0,0,1-.24.41L77.85,788.12a1.11,1.11,0,0,1-.86.36l-34.84-.7a1.29,1.29,0,0,1-.47-.11,3.48,3.48,0,0,0-4.62,4.67,1.07,1.07,0,0,1,.11.46q.54,17.43,1.07,34.84a1.14,1.14,0,0,1-.35.86L12.75,852.64a1.15,1.15,0,0,1-.4.26h0a3.49,3.49,0,0,0,0,6.57h0a1.16,1.16,0,0,1,.41.25l25.71,24.1a1.18,1.18,0,0,1,.37.88q-.52,17.29-1,34.6a1.41,1.41,0,0,1-.11.46h0a3.49,3.49,0,0,0,4.68,4.63h0a1.21,1.21,0,0,1,.46-.12L77.7,923.2a1.15,1.15,0,0,1,.86.35l24.14,25.14a1.16,1.16,0,0,1,.25.41h0a3.49,3.49,0,0,0,6.58,0h0a1,1,0,0,1,.24-.4l23.88-25.39a1.16,1.16,0,0,1,.86-.37l34.84.71a1.08,1.08,0,0,1,.47.11h0a3.49,3.49,0,0,0,4.62-4.67h0a1.29,1.29,0,0,1-.11-.47q-.54-17.42-1.07-34.83a1.18,1.18,0,0,1,.35-.87l25.14-24.14a1.22,1.22,0,0,1,.41-.25,3.55,3.55,0,0,0,3.38-4A3.49,3.49,0,0,0,199.12,851.92Z"/><path class="a" d="M389.12,851.92a1.33,1.33,0,0,1-.41-.25L363.32,827.8a1.18,1.18,0,0,1-.36-.86q.36-17.43.71-34.85a1,1,0,0,1,.11-.46h0A3.49,3.49,0,0,0,359.1,787h0a1,1,0,0,1-.46.11l-34.84,1.08a1.14,1.14,0,0,1-.86-.36L298.8,762.69a1,1,0,0,1-.25-.4h0a3.49,3.49,0,0,0-6.58,0h0a1.06,1.06,0,0,1-.24.41l-23.88,25.39a1.11,1.11,0,0,1-.86.36l-34.84-.7a1.29,1.29,0,0,1-.47-.11,3.48,3.48,0,0,0-4.62,4.67,1.07,1.07,0,0,1,.11.46q.54,17.43,1.07,34.84a1.14,1.14,0,0,1-.35.86l-25.14,24.14a1.15,1.15,0,0,1-.4.26h0a3.49,3.49,0,0,0,0,6.57h0a1.16,1.16,0,0,1,.41.25l25.71,24.1a1.18,1.18,0,0,1,.37.88q-.52,17.29-1,34.6a1.41,1.41,0,0,1-.11.46h0a3.49,3.49,0,0,0,4.68,4.63h0a1.21,1.21,0,0,1,.46-.12l34.84-1.07a1.15,1.15,0,0,1,.86.35l24.14,25.14a1.16,1.16,0,0,1,.25.41h0a3.49,3.49,0,0,0,6.58,0h0a1,1,0,0,1,.24-.4l23.88-25.39a1.16,1.16,0,0,1,.86-.37l34.84.71a1.08,1.08,0,0,1,.47.11h0a3.49,3.49,0,0,0,4.62-4.67h0a1.29,1.29,0,0,1-.11-.47q-.54-17.42-1.07-34.83a1.18,1.18,0,0,1,.35-.87l25.14-24.14a1.22,1.22,0,0,1,.41-.25,3.55,3.55,0,0,0,3.38-4A3.49,3.49,0,0,0,389.12,851.92Z"/><path class="a" d="M579.12,851.92a1.33,1.33,0,0,1-.41-.25L553.32,827.8a1.18,1.18,0,0,1-.36-.86q.36-17.43.71-34.85a1,1,0,0,1,.11-.46h0A3.49,3.49,0,0,0,549.1,787h0a1,1,0,0,1-.46.11l-34.84,1.08a1.14,1.14,0,0,1-.86-.36L488.8,762.69a1,1,0,0,1-.25-.4h0a3.49,3.49,0,0,0-6.58,0h0a1.06,1.06,0,0,1-.24.41l-23.88,25.39a1.11,1.11,0,0,1-.86.36l-34.84-.7a1.29,1.29,0,0,1-.47-.11,3.48,3.48,0,0,0-4.62,4.67,1.07,1.07,0,0,1,.11.46q.54,17.43,1.07,34.84a1.14,1.14,0,0,1-.35.86l-25.14,24.14a1.15,1.15,0,0,1-.4.26h0a3.49,3.49,0,0,0,0,6.57h0a1.16,1.16,0,0,1,.41.25l25.71,24.1a1.18,1.18,0,0,1,.37.88q-.53,17.29-1,34.6a1.41,1.41,0,0,1-.11.46h0a3.49,3.49,0,0,0,4.68,4.63h0a1.21,1.21,0,0,1,.46-.12l34.84-1.07a1.15,1.15,0,0,1,.86.35l24.14,25.14a1.16,1.16,0,0,1,.25.41h0a3.49,3.49,0,0,0,6.58,0h0a1,1,0,0,1,.24-.4l23.88-25.39a1.16,1.16,0,0,1,.86-.37l34.84.71a1.08,1.08,0,0,1,.47.11h0a3.49,3.49,0,0,0,4.62-4.67h0a1.29,1.29,0,0,1-.11-.47q-.54-17.42-1.07-34.83a1.18,1.18,0,0,1,.35-.87l25.14-24.14a1.22,1.22,0,0,1,.41-.25,3.55,3.55,0,0,0,3.38-4A3.49,3.49,0,0,0,579.12,851.92Z"/><path class="a" d="M717.67,923.17l-13.16-.27a1.16,1.16,0,0,0-.86.37l-23.88,25.39a1,1,0,0,0-.24.4,3.43,3.43,0,0,1-1.76,2,3.58,3.58,0,0,1-1.54.35,3.5,3.5,0,0,1-3.28-2.3,1.16,1.16,0,0,0-.25-.41l-24.14-25.14a1.15,1.15,0,0,0-.86-.35l-34.84,1.07a1.21,1.21,0,0,0-.46.12,3.49,3.49,0,0,1-4.68-4.63h0a1.41,1.41,0,0,0,.11-.46q.51-17.29,1-34.6a1.18,1.18,0,0,0-.37-.88l-25.71-24.1a1.16,1.16,0,0,0-.41-.25,3.43,3.43,0,0,1-1.78-1.37,3.58,3.58,0,0,1-.56-1.92,3.44,3.44,0,0,1,1.79-3,3.55,3.55,0,0,1,.52-.23,1.15,1.15,0,0,0,.4-.26l25.14-24.14a1.14,1.14,0,0,0,.35-.86l-.12-4h0"/><path class="a" d="M1314.08,828.52q12.33,11.57,24.63,23.15a1.33,1.33,0,0,0,.41.25,3.78,3.78,0,0,1,2.71,1.21,2.94,2.94,0,0,1,.71,1.39,3.42,3.42,0,0,1-1.94,3.58,3.93,3.93,0,0,1-1.44.39,1.22,1.22,0,0,0-.41.25l-25.14,24.14a1.18,1.18,0,0,0-.35.87q.54,17.41,1.07,34.83a1.29,1.29,0,0,0,.11.47,3.49,3.49,0,0,1-3.12,5,3.44,3.44,0,0,1-1.5-.34,1.08,1.08,0,0,0-.47-.11l-34.84-.71a1.16,1.16,0,0,0-.86.37l-23.88,25.39a1,1,0,0,0-.24.4,3.43,3.43,0,0,1-1.76,2,3.58,3.58,0,0,1-1.54.35,3.5,3.5,0,0,1-3.28-2.3,1.16,1.16,0,0,0-.25-.41l-24.14-25.14a1.15,1.15,0,0,0-.86-.35l-9.74.3"/><path class="a" d="M1529.12,851.92a1.33,1.33,0,0,1-.41-.25l-25.39-23.87a1.18,1.18,0,0,1-.36-.86q.36-17.43.71-34.85a1,1,0,0,1,.11-.46h0a3.49,3.49,0,0,0-4.68-4.63h0a1,1,0,0,1-.46.11l-34.84,1.08a1.14,1.14,0,0,1-.86-.36l-24.14-25.14a1,1,0,0,1-.25-.4h0a3.49,3.49,0,0,0-6.58,0h0a1.06,1.06,0,0,1-.24.41l-23.88,25.39a1.11,1.11,0,0,1-.86.36l-34.84-.7a1.29,1.29,0,0,1-.47-.11,3.48,3.48,0,0,0-4.62,4.67,1.07,1.07,0,0,1,.11.46q.54,17.43,1.07,34.84a1.14,1.14,0,0,1-.35.86l-25.14,24.14a1.15,1.15,0,0,1-.4.26h0a3.49,3.49,0,0,0,0,6.57h0a1.16,1.16,0,0,1,.41.25l25.71,24.1a1.18,1.18,0,0,1,.37.88q-.52,17.29-1,34.6a1.41,1.41,0,0,1-.11.46h0a3.49,3.49,0,0,0,4.68,4.63h0a1.21,1.21,0,0,1,.46-.12l34.84-1.07a1.15,1.15,0,0,1,.86.35l24.14,25.14a1.16,1.16,0,0,1,.25.41h0a3.49,3.49,0,0,0,6.58,0h0a1,1,0,0,1,.24-.4l23.88-25.39a1.16,1.16,0,0,1,.86-.37l34.84.71a1.08,1.08,0,0,1,.47.11h0a3.49,3.49,0,0,0,4.62-4.67h0a1.29,1.29,0,0,1-.11-.47q-.54-17.42-1.07-34.83a1.18,1.18,0,0,1,.35-.87l25.14-24.14a1.22,1.22,0,0,1,.41-.25,3.55,3.55,0,0,0,3.38-4A3.49,3.49,0,0,0,1529.12,851.92Z"/><path class="a" d="M1719.12,851.92a1.33,1.33,0,0,1-.41-.25l-25.39-23.87a1.18,1.18,0,0,1-.36-.86q.36-17.43.71-34.85a1,1,0,0,1,.11-.46h0a3.49,3.49,0,0,0-4.68-4.63h0a1,1,0,0,1-.46.11l-34.84,1.08a1.14,1.14,0,0,1-.86-.36l-24.14-25.14a1,1,0,0,1-.25-.4h0a3.49,3.49,0,0,0-6.58,0h0a1.06,1.06,0,0,1-.24.41l-23.88,25.39a1.11,1.11,0,0,1-.86.36l-34.84-.7a1.29,1.29,0,0,1-.47-.11,3.48,3.48,0,0,0-4.62,4.67,1.07,1.07,0,0,1,.11.46q.54,17.43,1.07,34.84a1.14,1.14,0,0,1-.35.86l-25.14,24.14a1.15,1.15,0,0,1-.4.26h0a3.49,3.49,0,0,0,0,6.57h0a1.16,1.16,0,0,1,.41.25l25.71,24.1a1.18,1.18,0,0,1,.37.88q-.52,17.29-1,34.6a1.41,1.41,0,0,1-.11.46h0a3.49,3.49,0,0,0,4.68,4.63h0a1.21,1.21,0,0,1,.46-.12l34.84-1.07a1.15,1.15,0,0,1,.86.35l24.14,25.14a1.16,1.16,0,0,1,.25.41h0a3.49,3.49,0,0,0,6.58,0h0a1,1,0,0,1,.24-.4l23.88-25.39a1.16,1.16,0,0,1,.86-.37l34.84.71a1.08,1.08,0,0,1,.47.11h0a3.49,3.49,0,0,0,4.62-4.67h0a1.29,1.29,0,0,1-.11-.47q-.54-17.42-1.07-34.83a1.18,1.18,0,0,1,.35-.87l25.14-24.14a1.22,1.22,0,0,1,.41-.25,3.55,3.55,0,0,0,3.38-4A3.49,3.49,0,0,0,1719.12,851.92Z"/><path class="a" d="M1909.12,851.92a1.33,1.33,0,0,1-.41-.25l-25.39-23.87a1.18,1.18,0,0,1-.36-.86q.36-17.43.71-34.85a1,1,0,0,1,.11-.46h0a3.49,3.49,0,0,0-4.68-4.63h0a1,1,0,0,1-.46.11l-34.84,1.08a1.14,1.14,0,0,1-.86-.36l-24.14-25.14a1,1,0,0,1-.25-.4h0a3.49,3.49,0,0,0-6.58,0h0a1.06,1.06,0,0,1-.24.41l-23.88,25.39a1.11,1.11,0,0,1-.86.36l-34.84-.7a1.29,1.29,0,0,1-.47-.11,3.48,3.48,0,0,0-4.62,4.67,1.07,1.07,0,0,1,.11.46q.54,17.43,1.07,34.84a1.14,1.14,0,0,1-.35.86l-25.14,24.14a1.15,1.15,0,0,1-.4.26h0a3.49,3.49,0,0,0,0,6.57h0a1.16,1.16,0,0,1,.41.25l25.71,24.1a1.18,1.18,0,0,1,.37.88q-.52,17.29-1,34.6a1.41,1.41,0,0,1-.11.46h0a3.49,3.49,0,0,0,4.68,4.63h0a1.21,1.21,0,0,1,.46-.12l34.84-1.07a1.15,1.15,0,0,1,.86.35l24.14,25.14a1.16,1.16,0,0,1,.25.41h0a3.49,3.49,0,0,0,6.58,0h0a1,1,0,0,1,.24-.4l23.88-25.39a1.16,1.16,0,0,1,.86-.37l34.84.71a1.08,1.08,0,0,1,.47.11h0a3.49,3.49,0,0,0,4.62-4.67h0a1.29,1.29,0,0,1-.11-.47q-.54-17.42-1.07-34.83a1.18,1.18,0,0,1,.35-.87l25.14-24.14a1.22,1.22,0,0,1,.41-.25,3.55,3.55,0,0,0,3.38-4A3.49,3.49,0,0,0,1909.12,851.92Z"/><path class="a" d="M199.12,1041.92a1.33,1.33,0,0,1-.41-.25l-25.39-23.87a1.18,1.18,0,0,1-.36-.86q.36-17.43.71-34.85a1,1,0,0,1,.11-.46h0A3.49,3.49,0,0,0,169.1,977h0a1,1,0,0,1-.46.11l-34.84,1.08a1.14,1.14,0,0,1-.86-.36L108.8,952.69a1,1,0,0,1-.25-.4h0a3.49,3.49,0,0,0-6.58,0h0a1.06,1.06,0,0,1-.24.41L77.85,978.12a1.11,1.11,0,0,1-.86.36l-34.84-.7a1.29,1.29,0,0,1-.47-.11,3.48,3.48,0,0,0-4.62,4.67,1.07,1.07,0,0,1,.11.46q.54,17.43,1.07,34.84a1.14,1.14,0,0,1-.35.86l-25.14,24.14a1.15,1.15,0,0,1-.4.26h0a3.49,3.49,0,0,0,0,6.57h0a1.16,1.16,0,0,1,.41.25l25.71,24.1a1.18,1.18,0,0,1,.37.88q-.52,17.29-1,34.6a1.41,1.41,0,0,1-.11.46h0a3.49,3.49,0,0,0,4.68,4.63h0a1.21,1.21,0,0,1,.46-.12l34.84-1.07a1.15,1.15,0,0,1,.86.35l24.14,25.14a1.16,1.16,0,0,1,.25.41h0a3.49,3.49,0,0,0,6.58,0h0a1,1,0,0,1,.24-.4l23.88-25.39a1.16,1.16,0,0,1,.86-.37l34.84.71a1.08,1.08,0,0,1,.47.11h0a3.49,3.49,0,0,0,4.62-4.67h0a1.29,1.29,0,0,1-.11-.47q-.54-17.41-1.07-34.83a1.18,1.18,0,0,1,.35-.87l25.14-24.14a1.22,1.22,0,0,1,.41-.25,3.55,3.55,0,0,0,3.38-4A3.49,3.49,0,0,0,199.12,1041.92Z"/><path class="a" d="M389.12,1041.92a1.33,1.33,0,0,1-.41-.25l-25.39-23.87a1.18,1.18,0,0,1-.36-.86q.36-17.43.71-34.85a1,1,0,0,1,.11-.46h0A3.49,3.49,0,0,0,359.1,977h0a1,1,0,0,1-.46.11l-34.84,1.08a1.14,1.14,0,0,1-.86-.36L298.8,952.69a1,1,0,0,1-.25-.4h0a3.49,3.49,0,0,0-6.58,0h0a1.06,1.06,0,0,1-.24.41l-23.88,25.39a1.11,1.11,0,0,1-.86.36l-34.84-.7a1.29,1.29,0,0,1-.47-.11,3.48,3.48,0,0,0-4.62,4.67,1.07,1.07,0,0,1,.11.46q.54,17.43,1.07,34.84a1.14,1.14,0,0,1-.35.86l-25.14,24.14a1.15,1.15,0,0,1-.4.26h0a3.49,3.49,0,0,0,0,6.57h0a1.16,1.16,0,0,1,.41.25l25.71,24.1a1.18,1.18,0,0,1,.37.88q-.52,17.29-1,34.6a1.41,1.41,0,0,1-.11.46h0a3.49,3.49,0,0,0,4.68,4.63h0a1.21,1.21,0,0,1,.46-.12l34.84-1.07a1.15,1.15,0,0,1,.86.35l24.14,25.14a1.16,1.16,0,0,1,.25.41h0a3.49,3.49,0,0,0,6.58,0h0a1,1,0,0,1,.24-.4l23.88-25.39a1.16,1.16,0,0,1,.86-.37l34.84.71a1.08,1.08,0,0,1,.47.11h0a3.49,3.49,0,0,0,4.62-4.67h0a1.29,1.29,0,0,1-.11-.47q-.54-17.41-1.07-34.83a1.18,1.18,0,0,1,.35-.87l25.14-24.14a1.22,1.22,0,0,1,.41-.25,3.55,3.55,0,0,0,3.38-4A3.49,3.49,0,0,0,389.12,1041.92Z"/><path class="a" d="M579.12,1041.92a1.33,1.33,0,0,1-.41-.25l-25.39-23.87a1.18,1.18,0,0,1-.36-.86q.36-17.43.71-34.85a1,1,0,0,1,.11-.46h0A3.49,3.49,0,0,0,549.1,977h0a1,1,0,0,1-.46.11l-34.84,1.08a1.14,1.14,0,0,1-.86-.36L488.8,952.69a1,1,0,0,1-.25-.4h0a3.49,3.49,0,0,0-6.58,0h0a1.06,1.06,0,0,1-.24.41l-23.88,25.39a1.11,1.11,0,0,1-.86.36l-34.84-.7a1.29,1.29,0,0,1-.47-.11,3.48,3.48,0,0,0-4.62,4.67,1.07,1.07,0,0,1,.11.46q.54,17.43,1.07,34.84a1.14,1.14,0,0,1-.35.86l-25.14,24.14a1.15,1.15,0,0,1-.4.26h0a3.49,3.49,0,0,0,0,6.57h0a1.16,1.16,0,0,1,.41.25l25.71,24.1a1.18,1.18,0,0,1,.37.88q-.53,17.29-1,34.6a1.41,1.41,0,0,1-.11.46h0a3.49,3.49,0,0,0,4.68,4.63h0a1.21,1.21,0,0,1,.46-.12l34.84-1.07a1.15,1.15,0,0,1,.86.35l24.14,25.14a1.16,1.16,0,0,1,.25.41h0a3.49,3.49,0,0,0,6.58,0h0a1,1,0,0,1,.24-.4l23.88-25.39a1.16,1.16,0,0,1,.86-.37l34.84.71a1.08,1.08,0,0,1,.47.11h0a3.49,3.49,0,0,0,4.62-4.67h0a1.29,1.29,0,0,1-.11-.47q-.54-17.41-1.07-34.83a1.18,1.18,0,0,1,.35-.87l25.14-24.14a1.22,1.22,0,0,1,.41-.25,3.55,3.55,0,0,0,3.38-4A3.49,3.49,0,0,0,579.12,1041.92Z"/><path class="a" d="M769.12,1041.92a1.33,1.33,0,0,1-.41-.25l-25.39-23.87a1.18,1.18,0,0,1-.36-.86q.36-17.43.71-34.85a1,1,0,0,1,.11-.46h0A3.49,3.49,0,0,0,739.1,977h0a1,1,0,0,1-.46.11l-34.84,1.08a1.14,1.14,0,0,1-.86-.36L678.8,952.69a1,1,0,0,1-.25-.4h0a3.49,3.49,0,0,0-6.58,0h0a1.06,1.06,0,0,1-.24.41l-23.88,25.39a1.11,1.11,0,0,1-.86.36l-34.84-.7a1.29,1.29,0,0,1-.47-.11,3.48,3.48,0,0,0-4.62,4.67,1.07,1.07,0,0,1,.11.46q.54,17.43,1.07,34.84a1.14,1.14,0,0,1-.35.86l-25.14,24.14a1.15,1.15,0,0,1-.4.26h0a3.49,3.49,0,0,0,0,6.57h0a1.16,1.16,0,0,1,.41.25l25.71,24.1a1.18,1.18,0,0,1,.37.88q-.52,17.29-1,34.6a1.41,1.41,0,0,1-.11.46h0a3.49,3.49,0,0,0,4.68,4.63h0a1.21,1.21,0,0,1,.46-.12l34.84-1.07a1.15,1.15,0,0,1,.86.35l24.14,25.14a1.16,1.16,0,0,1,.25.41h0a3.49,3.49,0,0,0,6.58,0h0a1,1,0,0,1,.24-.4l23.88-25.39a1.16,1.16,0,0,1,.86-.37l34.84.71a1.08,1.08,0,0,1,.47.11h0a3.49,3.49,0,0,0,4.62-4.67h0a1.29,1.29,0,0,1-.11-.47q-.54-17.41-1.07-34.83a1.18,1.18,0,0,1,.35-.87l25.14-24.14a1.22,1.22,0,0,1,.41-.25,3.55,3.55,0,0,0,3.38-4A3.49,3.49,0,0,0,769.12,1041.92Z"/><path class="a" d="M838,977.93l-.18.19a1.11,1.11,0,0,1-.86.36l-34.84-.7a1.29,1.29,0,0,1-.47-.11,3.48,3.48,0,0,0-4.62,4.67,1.07,1.07,0,0,1,.11.46q.54,17.43,1.07,34.84a1.14,1.14,0,0,1-.35.86l-25.14,24.14a1.15,1.15,0,0,1-.4.26,3.55,3.55,0,0,0-.52.23,3.44,3.44,0,0,0-1.79,3,3.58,3.58,0,0,0,.56,1.92,3.43,3.43,0,0,0,1.78,1.37,1.16,1.16,0,0,1,.41.25l25.71,24.1a1.18,1.18,0,0,1,.37.88q-.52,17.29-1,34.6a1.41,1.41,0,0,1-.11.46h0a3.49,3.49,0,0,0,4.68,4.63,1.21,1.21,0,0,1,.46-.12l34.84-1.07a1.15,1.15,0,0,1,.86.35l24.14,25.14a1.16,1.16,0,0,1,.25.41,3.49,3.49,0,0,0,6.58,0,1,1,0,0,1,.24-.4l23.88-25.39a1.16,1.16,0,0,1,.86-.37l34.84.71a1.08,1.08,0,0,1,.47.11,3.44,3.44,0,0,0,1.5.34,3.49,3.49,0,0,0,3.12-5,1.29,1.29,0,0,1-.11-.47q-.54-17.41-1.07-34.83a1.18,1.18,0,0,1,.35-.87l25.14-24.14a1.22,1.22,0,0,1,.41-.25,3.93,3.93,0,0,0,1.44-.39,3.42,3.42,0,0,0,1.94-3.58,2.94,2.94,0,0,0-.71-1.39,3.78,3.78,0,0,0-2.71-1.21,1.33,1.33,0,0,1-.41-.25q-12.69-11.94-25.39-23.87a1.18,1.18,0,0,1-.36-.86q.22-11.24.46-22.46"/><path class="a" d="M987.54,994.78q.36,11.43.7,22.86a1.14,1.14,0,0,1-.35.86l-25.14,24.14a1.15,1.15,0,0,1-.4.26,3.55,3.55,0,0,0-.52.23,3.44,3.44,0,0,0-1.79,3,3.58,3.58,0,0,0,.56,1.92,3.43,3.43,0,0,0,1.78,1.37,1.16,1.16,0,0,1,.41.25l25.71,24.1a1.18,1.18,0,0,1,.37.88q-.52,17.29-1,34.6a1.41,1.41,0,0,1-.11.46h0a3.49,3.49,0,0,0,4.68,4.63,1.21,1.21,0,0,1,.46-.12l34.84-1.07a1.15,1.15,0,0,1,.86.35l24.14,25.14a1.16,1.16,0,0,1,.25.41,3.49,3.49,0,0,0,6.58,0,1,1,0,0,1,.24-.4l23.88-25.39a1.16,1.16,0,0,1,.86-.37l34.84.71a1.08,1.08,0,0,1,.47.11,3.44,3.44,0,0,0,1.5.34,3.49,3.49,0,0,0,3.12-5,1.29,1.29,0,0,1-.11-.47q-.54-17.41-1.07-34.83a1.18,1.18,0,0,1,.35-.87l25.14-24.14a1.22,1.22,0,0,1,.41-.25,3.93,3.93,0,0,0,1.44-.39,3.42,3.42,0,0,0,1.94-3.58,2.94,2.94,0,0,0-.71-1.39,3.78,3.78,0,0,0-2.71-1.21,1.33,1.33,0,0,1-.41-.25q-12.69-11.94-25.39-23.87a1.18,1.18,0,0,1-.36-.86q.36-17.43.71-34.85a1,1,0,0,1,.11-.46,3.44,3.44,0,0,0,.34-1.5,3.5,3.5,0,0,0-5-3.13,1,1,0,0,1-.46.11l-31,1"/><path class="a" d="M1339.12,1041.92a1.33,1.33,0,0,1-.41-.25l-25.39-23.87a1.18,1.18,0,0,1-.36-.86q.36-17.43.71-34.85a1,1,0,0,1,.11-.46h0a3.49,3.49,0,0,0-4.68-4.63h0a1,1,0,0,1-.46.11l-34.84,1.08a1.14,1.14,0,0,1-.86-.36l-24.14-25.14a1,1,0,0,1-.25-.4h0a3.49,3.49,0,0,0-6.58,0h0a1.06,1.06,0,0,1-.24.41l-23.88,25.39a1.11,1.11,0,0,1-.86.36l-34.84-.7a1.29,1.29,0,0,1-.47-.11,3.48,3.48,0,0,0-4.62,4.67,1.07,1.07,0,0,1,.11.46q.54,17.43,1.07,34.84a1.14,1.14,0,0,1-.35.86l-25.14,24.14a1.15,1.15,0,0,1-.4.26h0a3.49,3.49,0,0,0,0,6.57h0a1.16,1.16,0,0,1,.41.25l25.71,24.1a1.18,1.18,0,0,1,.37.88q-.52,17.29-1,34.6a1.41,1.41,0,0,1-.11.46h0a3.49,3.49,0,0,0,4.68,4.63h0a1.21,1.21,0,0,1,.46-.12l34.84-1.07a1.15,1.15,0,0,1,.86.35l24.14,25.14a1.16,1.16,0,0,1,.25.41h0a3.49,3.49,0,0,0,6.58,0h0a1,1,0,0,1,.24-.4l23.88-25.39a1.16,1.16,0,0,1,.86-.37l34.84.71a1.08,1.08,0,0,1,.47.11h0a3.49,3.49,0,0,0,4.62-4.67h0a1.29,1.29,0,0,1-.11-.47q-.54-17.41-1.07-34.83a1.18,1.18,0,0,1,.35-.87l25.14-24.14a1.22,1.22,0,0,1,.41-.25,3.55,3.55,0,0,0,3.38-4A3.49,3.49,0,0,0,1339.12,1041.92Z"/><path class="a" d="M1529.12,1041.92a1.33,1.33,0,0,1-.41-.25l-25.39-23.87a1.18,1.18,0,0,1-.36-.86q.36-17.43.71-34.85a1,1,0,0,1,.11-.46h0a3.49,3.49,0,0,0-4.68-4.63h0a1,1,0,0,1-.46.11l-34.84,1.08a1.14,1.14,0,0,1-.86-.36l-24.14-25.14a1,1,0,0,1-.25-.4h0a3.49,3.49,0,0,0-6.58,0h0a1.06,1.06,0,0,1-.24.41l-23.88,25.39a1.11,1.11,0,0,1-.86.36l-34.84-.7a1.29,1.29,0,0,1-.47-.11,3.48,3.48,0,0,0-4.62,4.67,1.07,1.07,0,0,1,.11.46q.54,17.43,1.07,34.84a1.14,1.14,0,0,1-.35.86l-25.14,24.14a1.15,1.15,0,0,1-.4.26h0a3.49,3.49,0,0,0,0,6.57h0a1.16,1.16,0,0,1,.41.25l25.71,24.1a1.18,1.18,0,0,1,.37.88q-.52,17.29-1,34.6a1.41,1.41,0,0,1-.11.46h0a3.49,3.49,0,0,0,4.68,4.63h0a1.21,1.21,0,0,1,.46-.12l34.84-1.07a1.15,1.15,0,0,1,.86.35l24.14,25.14a1.16,1.16,0,0,1,.25.41h0a3.49,3.49,0,0,0,6.58,0h0a1,1,0,0,1,.24-.4l23.88-25.39a1.16,1.16,0,0,1,.86-.37l34.84.71a1.08,1.08,0,0,1,.47.11h0a3.49,3.49,0,0,0,4.62-4.67h0a1.29,1.29,0,0,1-.11-.47q-.54-17.41-1.07-34.83a1.18,1.18,0,0,1,.35-.87l25.14-24.14a1.22,1.22,0,0,1,.41-.25,3.55,3.55,0,0,0,3.38-4A3.49,3.49,0,0,0,1529.12,1041.92Z"/><path class="a" d="M1719.12,1041.92a1.33,1.33,0,0,1-.41-.25l-25.39-23.87a1.18,1.18,0,0,1-.36-.86q.36-17.43.71-34.85a1,1,0,0,1,.11-.46h0a3.49,3.49,0,0,0-4.68-4.63h0a1,1,0,0,1-.46.11l-34.84,1.08a1.14,1.14,0,0,1-.86-.36l-24.14-25.14a1,1,0,0,1-.25-.4h0a3.49,3.49,0,0,0-6.58,0h0a1.06,1.06,0,0,1-.24.41l-23.88,25.39a1.11,1.11,0,0,1-.86.36l-34.84-.7a1.29,1.29,0,0,1-.47-.11,3.48,3.48,0,0,0-4.62,4.67,1.07,1.07,0,0,1,.11.46q.54,17.43,1.07,34.84a1.14,1.14,0,0,1-.35.86l-25.14,24.14a1.15,1.15,0,0,1-.4.26h0a3.49,3.49,0,0,0,0,6.57h0a1.16,1.16,0,0,1,.41.25l25.71,24.1a1.18,1.18,0,0,1,.37.88q-.52,17.29-1,34.6a1.41,1.41,0,0,1-.11.46h0a3.49,3.49,0,0,0,4.68,4.63h0a1.21,1.21,0,0,1,.46-.12l34.84-1.07a1.15,1.15,0,0,1,.86.35l24.14,25.14a1.16,1.16,0,0,1,.25.41h0a3.49,3.49,0,0,0,6.58,0h0a1,1,0,0,1,.24-.4l23.88-25.39a1.16,1.16,0,0,1,.86-.37l34.84.71a1.08,1.08,0,0,1,.47.11h0a3.49,3.49,0,0,0,4.62-4.67h0a1.29,1.29,0,0,1-.11-.47q-.54-17.41-1.07-34.83a1.18,1.18,0,0,1,.35-.87l25.14-24.14a1.22,1.22,0,0,1,.41-.25,3.55,3.55,0,0,0,3.38-4A3.49,3.49,0,0,0,1719.12,1041.92Z"/><path class="a" d="M1909.12,1041.92a1.33,1.33,0,0,1-.41-.25l-25.39-23.87a1.18,1.18,0,0,1-.36-.86q.36-17.43.71-34.85a1,1,0,0,1,.11-.46h0a3.49,3.49,0,0,0-4.68-4.63h0a1,1,0,0,1-.46.11l-34.84,1.08a1.14,1.14,0,0,1-.86-.36l-24.14-25.14a1,1,0,0,1-.25-.4h0a3.49,3.49,0,0,0-6.58,0h0a1.06,1.06,0,0,1-.24.41l-23.88,25.39a1.11,1.11,0,0,1-.86.36l-34.84-.7a1.29,1.29,0,0,1-.47-.11,3.48,3.48,0,0,0-4.62,4.67,1.07,1.07,0,0,1,.11.46q.54,17.43,1.07,34.84a1.14,1.14,0,0,1-.35.86l-25.14,24.14a1.15,1.15,0,0,1-.4.26h0a3.49,3.49,0,0,0,0,6.57h0a1.16,1.16,0,0,1,.41.25l25.71,24.1a1.18,1.18,0,0,1,.37.88q-.52,17.29-1,34.6a1.41,1.41,0,0,1-.11.46h0a3.49,3.49,0,0,0,4.68,4.63h0a1.21,1.21,0,0,1,.46-.12l34.84-1.07a1.15,1.15,0,0,1,.86.35l24.14,25.14a1.16,1.16,0,0,1,.25.41h0a3.49,3.49,0,0,0,6.58,0h0a1,1,0,0,1,.24-.4l23.88-25.39a1.16,1.16,0,0,1,.86-.37l34.84.71a1.08,1.08,0,0,1,.47.11h0a3.49,3.49,0,0,0,4.62-4.67h0a1.29,1.29,0,0,1-.11-.47q-.54-17.41-1.07-34.83a1.18,1.18,0,0,1,.35-.87l25.14-24.14a1.22,1.22,0,0,1,.41-.25,3.55,3.55,0,0,0,3.38-4A3.49,3.49,0,0,0,1909.12,1041.92Z"/><g class="b"><path class="c" d="M963,854a221.34,221.34,0,0,1-157,65,222,222,0,0,0,314,0h0a221.34,221.34,0,0,1-157-65"/><path class="c" d="M963,95.9a221.35,221.35,0,0,0-157,65,221.34,221.34,0,0,1,157,65,221.34,221.34,0,0,1,157-65h0a221.35,221.35,0,0,0-157-65"/><path class="c" d="M1342.06,697a221.37,221.37,0,0,1-157,65,221.37,221.37,0,0,1-65,157,222.06,222.06,0,0,0,222-222"/><path class="d" d="M1028,697a221.34,221.34,0,0,1-65,157,221.34,221.34,0,0,0,157,65h0a221.37,221.37,0,0,0,65-157,221.35,221.35,0,0,1-157-65"/><path class="c" d="M806,160.94A222.06,222.06,0,0,0,583.94,383a221.37,221.37,0,0,1,157-65,221.37,221.37,0,0,1,65-157"/><path class="d" d="M806,160.94h0a221.37,221.37,0,0,0-65,157,221.35,221.35,0,0,1,157,65,221.34,221.34,0,0,1,65-157,221.34,221.34,0,0,0-157-65"/><path class="c" d="M1120,160.94a221.37,221.37,0,0,1,65,157,221.37,221.37,0,0,1,157,65,222.06,222.06,0,0,0-222-222"/><path class="d" d="M1120,160.94a221.34,221.34,0,0,0-157,65,221.34,221.34,0,0,1,65,157,221.35,221.35,0,0,1,157-65,221.37,221.37,0,0,0-65-157h0"/><path class="e" d="M963,226a221.33,221.33,0,0,0-65,157,221.31,221.31,0,0,1,65,157,221.31,221.31,0,0,1,65-157,221.33,221.33,0,0,0-65-157"/><path class="c" d="M583.94,697a222.06,222.06,0,0,0,222,222,221.37,221.37,0,0,1-65-157,221.37,221.37,0,0,1-157-65"/><path class="d" d="M898,697a221.35,221.35,0,0,1-157,65,221.37,221.37,0,0,0,65,157,221.34,221.34,0,0,0,157-65,221.34,221.34,0,0,1-65-157"/><path class="e" d="M963,540h0a221.31,221.31,0,0,1-65,157,221.33,221.33,0,0,0,65,157,221.33,221.33,0,0,0,65-157,221.31,221.31,0,0,1-65-157"/><path class="c" d="M1342.06,383a221.34,221.34,0,0,1-65,157,221.34,221.34,0,0,1,65,157,222.06,222.06,0,0,0,0-314"/><path class="d" d="M1277,540a221.33,221.33,0,0,1-157,65,221.35,221.35,0,0,1,65,157,221.37,221.37,0,0,0,157-65,221.34,221.34,0,0,0-65-157"/><path class="e" d="M963,540h0a221.34,221.34,0,0,1,65,157,221.35,221.35,0,0,0,157,65,221.35,221.35,0,0,0-65-157h0a221.34,221.34,0,0,1-157-65"/><path class="d" d="M1185.05,318h0a221.35,221.35,0,0,1-65,157,221.33,221.33,0,0,1,157,65,221.34,221.34,0,0,0,65-157,221.37,221.37,0,0,0-157-65"/><path class="e" d="M1185.05,318a221.35,221.35,0,0,0-157,65,221.34,221.34,0,0,1-65,157,221.34,221.34,0,0,1,157-65,221.35,221.35,0,0,0,65-157"/><path class="e" d="M1120,475h0a221.31,221.31,0,0,1-157,65,221.31,221.31,0,0,1,157,65,221.33,221.33,0,0,0,157-65,221.33,221.33,0,0,0-157-65"/><path class="f" d="M963,540h0a221.34,221.34,0,0,0,157,65h0a221.31,221.31,0,0,0-157-65"/><path class="f" d="M1120,475a221.34,221.34,0,0,0-157,65,221.31,221.31,0,0,0,157-65"/><path class="f" d="M1028,383a221.31,221.31,0,0,0-65,157,221.34,221.34,0,0,0,65-157"/><path class="f" d="M963,540a221.31,221.31,0,0,0,65,157,221.34,221.34,0,0,0-65-157"/><path class="c" d="M583.94,383a222.06,222.06,0,0,0,0,314,221.34,221.34,0,0,1,65-157,221.34,221.34,0,0,1-65-157"/><path class="d" d="M741,318a221.37,221.37,0,0,0-157,65,221.34,221.34,0,0,0,65,157,221.34,221.34,0,0,1,157-65,221.35,221.35,0,0,1-65-157"/><path class="e" d="M741,318h0a221.35,221.35,0,0,0,65,157,221.34,221.34,0,0,1,157,65,221.34,221.34,0,0,1-65-157,221.35,221.35,0,0,0-157-65"/><path class="f" d="M898,383a221.34,221.34,0,0,0,65,157,221.31,221.31,0,0,0-65-157"/><path class="d" d="M649,540a221.34,221.34,0,0,0-65,157,221.37,221.37,0,0,0,157,65,221.35,221.35,0,0,1,65-157,221.34,221.34,0,0,1-157-65"/><path class="e" d="M963,540a221.34,221.34,0,0,1-157,65,221.35,221.35,0,0,0-65,157,221.35,221.35,0,0,0,157-65,221.34,221.34,0,0,1,65-157"/><path class="f" d="M963,540a221.34,221.34,0,0,0-65,157,221.31,221.31,0,0,0,65-157"/><path class="e" d="M806,475a221.33,221.33,0,0,0-157,65,221.33,221.33,0,0,0,157,65,221.31,221.31,0,0,1,157-65,221.31,221.31,0,0,1-157-65"/><path class="f" d="M963,540a221.31,221.31,0,0,0-157,65,221.34,221.34,0,0,0,157-65"/><path class="f" d="M806,475a221.31,221.31,0,0,0,157,65,221.34,221.34,0,0,0-157-65"/></g><circle class="g" cx="963" cy="540" r="452.5"/><path class="f" d="M1270,219.27a221.29,221.29,0,0,0-150-58.33A221.25,221.25,0,0,0,972.89,96.12,442.37,442.37,0,0,1,1270,219.27Z"/><path class="f" d="M953.11,96.12A221.28,221.28,0,0,0,806,160.94a221.29,221.29,0,0,0-150,58.33A442.37,442.37,0,0,1,953.11,96.12Z"/><path class="f" d="M642.27,233a221.3,221.3,0,0,0-58.33,150,221.29,221.29,0,0,0-64.83,147.5A442.34,442.34,0,0,1,642.27,233Z"/><path class="f" d="M642.27,847A442.34,442.34,0,0,1,519.11,549.51,221.29,221.29,0,0,0,583.94,697,221.3,221.3,0,0,0,642.27,847Z"/><path class="f" d="M953.1,983.88A442.35,442.35,0,0,1,656,860.73a221.3,221.3,0,0,0,150,58.33A221.33,221.33,0,0,0,953.1,983.88Z"/><path class="f" d="M1270,860.73A442.35,442.35,0,0,1,972.9,983.88,221.33,221.33,0,0,0,1120,919.06,221.29,221.29,0,0,0,1270,860.73Z"/><path class="f" d="M1406.89,549.51A442.34,442.34,0,0,1,1283.73,847a221.3,221.3,0,0,0,58.33-150A221.29,221.29,0,0,0,1406.89,549.51Z"/><path class="f" d="M1406.89,530.49A221.29,221.29,0,0,0,1342.06,383a221.3,221.3,0,0,0-58.33-150A442.34,442.34,0,0,1,1406.89,530.49Z"/><path class="h" d="M130,1519c0,3.15,0,6.29-.11,9.42v.09A221.29,221.29,0,0,1,65.06,1676,221.3,221.3,0,0,1,6.73,1826l-.13.13Q0,1833-6.85,1839.6a1.59,1.59,0,0,1-.13.13,221.29,221.29,0,0,1-150,58.33,221.33,221.33,0,0,1-147.11,64.82h0c-3.29.08-6.58.12-9.89.12s-6.6,0-9.89-.12h0A221.33,221.33,0,0,1-471,1898.06a221.3,221.3,0,0,1-150-58.33,1.59,1.59,0,0,1-.13-.13q-6.87-6.57-13.45-13.45l-.13-.13a221.3,221.3,0,0,1-58.33-150,221.29,221.29,0,0,1-64.83-147.5v-.09c-.08-3.13-.11-6.27-.11-9.42s0-6.29.11-9.42v-.09A221.29,221.29,0,0,1-693.06,1362a221.3,221.3,0,0,1,58.33-150l.13-.13q6.57-6.87,13.45-13.45a1.59,1.59,0,0,1,.13-.13,221.29,221.29,0,0,1,150-58.33,221.28,221.28,0,0,1,147.12-64.82c3.29-.08,6.58-.12,9.89-.12s6.6,0,9.89.12a220.82,220.82,0,0,1,76.54,17.23A222.43,222.43,0,0,1-157,1139.94,221.29,221.29,0,0,1-7,1198.27Q0,1205,6.73,1212a221.3,221.3,0,0,1,58.33,150,221.29,221.29,0,0,1,64.83,147.5v.09C130,1512.71,130,1515.85,130,1519Z"/></svg>