<?xml version="1.0" encoding="utf-8"?>
<!-- Generator: Adobe Illustrator 22.1.0, SVG Export Plug-In . SVG Version: 6.00 Build 0)  -->
<svg version="1.1" id="Layer_1" xmlns="http://www.w3.org/2000/svg" xmlns:xlink="http://www.w3.org/1999/xlink" x="0px" y="0px"
	 viewBox="0 0 77 79.8" style="enable-background:new 0 0 77 79.8;" xml:space="preserve">
<style type="text/css">
	.st0{fill:url(#SVGID_1_);}
</style>
<linearGradient id="SVGID_1_" gradientUnits="userSpaceOnUse" x1="10.2944" y1="30.1917" x2="88.2987" y2="58.3358" gradientTransform="matrix(1 0 0 -1 0 81.5)">
	<stop  offset="0" style="stop-color:#43D4D4"/>
	<stop  offset="0.2162" style="stop-color:#6FE1E1"/>
	<stop  offset="0.4639" style="stop-color:#9BEEEE"/>
	<stop  offset="0.6861" style="stop-color:#BBF7F7"/>
	<stop  offset="0.8723" style="stop-color:#CFFDFD"/>
	<stop  offset="1" style="stop-color:#D6FFFF"/>
</linearGradient>
<path class="st0" d="M74.1,48.5l-6.3-7.9l4.9-7c0.2-0.1,0.3-0.2,0.3-0.4l0.3-0.5c0.2-0.3,0.2-0.6,0.1-0.9s-0.4-0.5-0.7-0.6
	l-16.1-4.6L39.4,4.8c-0.2-0.2-0.5-0.4-0.8-0.4S38,4.6,37.8,4.8L21.4,27.4L2.7,32.1c-0.3,0.1-0.6,0.3-0.7,0.7c-0.1,0.3,0,0.7,0.2,1
	l8.1,8.8l-3,4.1c-0.2,0.2-0.2,0.5-0.2,0.8c0.1,0.3,0.3,0.5,0.5,0.7l14,6.6l19.8,21.3c0.2,0.2,0.5,0.3,0.7,0.3c0,0,0,0,0.1,0
	c0.3,0,0.6-0.2,0.8-0.4l14.6-20.8l16.1-5.1c0.3-0.1,0.6-0.3,0.7-0.7C74.3,49.1,74.3,48.7,74.1,48.5z M22.2,29.2
	c0.2,0,0.3-0.1,0.4-0.2l11.7,3.6H8.9L22.2,29.2z M55.4,28.2L55.4,28.2c0.2,0.1,0.2,0.2,0.3,0.2c0,0,0,0,0.1,0l14.7,4.2H41L55.4,28.2
	z M36.2,59.4l-12.3-5.8l13.2-18.7L36.2,59.4z M38.1,34.3l17.6,19.4l-18.5,5.8L38.1,34.3z M38.8,33.6h31.4L56.5,53.1L38.8,33.6z
	 M54.7,27.3l-16.6,5.1L39,7.5L54.7,27.3z M38,7.9l-0.9,24.5l-13.8-4.3L38,7.9z M5,33.6h31.7L22.9,53.2h-0.1l-18-19.5L5,33.6z
	 M9.6,46.9l2.1-2.8l6.3,6.8L9.6,46.9z M42,73.8L26.5,57.1l9.7,4.6c0.1,0.1,0.3,0.1,0.4,0.1s0.2,0,0.3,0l17.5-5.6L42,73.8z
	 M59.4,52.5l7.2-10.2l5,6.3L59.4,52.5z"/>
</svg>
